G04 #@! TF.GenerationSoftware,KiCad,Pcbnew,(5.1.5)-3*
G04 #@! TF.CreationDate,2020-05-01T11:47:36-04:00*
G04 #@! TF.ProjectId,amp,616d702e-6b69-4636-9164-5f7063625858,0.6.0*
G04 #@! TF.SameCoordinates,Original*
G04 #@! TF.FileFunction,Copper,L2,Bot*
G04 #@! TF.FilePolarity,Positive*
%FSLAX46Y46*%
G04 Gerber Fmt 4.6, Leading zero omitted, Abs format (unit mm)*
G04 Created by KiCad (PCBNEW (5.1.5)-3) date 2020-05-01 11:47:36*
%MOMM*%
%LPD*%
G04 APERTURE LIST*
%ADD10O,2.100000X1.050000*%
%ADD11O,2.000000X1.000000*%
%ADD12R,1.550000X0.600000*%
%ADD13R,1.800000X1.200000*%
%ADD14O,1.000000X1.000000*%
%ADD15R,1.000000X1.000000*%
%ADD16C,1.998980*%
%ADD17R,1.998980X1.998980*%
%ADD18C,0.450000*%
%ADD19C,0.088900*%
%ADD20C,0.320000*%
%ADD21C,0.250000*%
%ADD22C,0.100000*%
G04 APERTURE END LIST*
D10*
X60780000Y-59220000D03*
X60780000Y-50580000D03*
D11*
X56600000Y-59220000D03*
X56600000Y-50580000D03*
D12*
X111000000Y-47100000D03*
X111000000Y-46100000D03*
X111000000Y-45100000D03*
X111000000Y-44100000D03*
D13*
X114875000Y-42800000D03*
X114875000Y-48400000D03*
D12*
X111000000Y-56000000D03*
X111000000Y-55000000D03*
X111000000Y-54000000D03*
X111000000Y-53000000D03*
D13*
X114875000Y-51700000D03*
X114875000Y-57300000D03*
D14*
X70360000Y-36870000D03*
X70360000Y-35600000D03*
X71630000Y-36870000D03*
X71630000Y-35600000D03*
X72900000Y-36870000D03*
D15*
X72900000Y-35600000D03*
D16*
X107600000Y-61790000D03*
D17*
X107600000Y-65600000D03*
D18*
X91500000Y-51100000D03*
X93000000Y-51300000D03*
X109300000Y-44000000D03*
X107600000Y-38800000D03*
X61400000Y-51700000D03*
X63700000Y-51600000D03*
X61200000Y-43900000D03*
X56800000Y-47400000D03*
X106400000Y-44100000D03*
X63500000Y-55100000D03*
X112200000Y-49800000D03*
X94500000Y-50300000D03*
X98200000Y-50900000D03*
X110400000Y-50300000D03*
X65637500Y-46162500D03*
X73400000Y-58800000D03*
X69100000Y-43000000D03*
X74600000Y-34300000D03*
X96700000Y-34000000D03*
X92600000Y-41200000D03*
X65576978Y-45200000D03*
X112161511Y-56361511D03*
X112500000Y-47200000D03*
X94900000Y-38900000D03*
X66700000Y-53200000D03*
X61600000Y-40200000D03*
X63000000Y-38800000D03*
X68500000Y-55000000D03*
X65900000Y-37900000D03*
X97250000Y-48850000D03*
X91300000Y-42650000D03*
X92400000Y-39100000D03*
X94050000Y-47700000D03*
X109300000Y-40350000D03*
X91900000Y-52900000D03*
X110500000Y-41600000D03*
X89800000Y-53000000D03*
X58000000Y-44500000D03*
X59500000Y-53500000D03*
X57000000Y-42800000D03*
X58400000Y-55800000D03*
X59000000Y-46400000D03*
X63000000Y-49800000D03*
X85000000Y-51400000D03*
X74000000Y-52700000D03*
X105800000Y-56500000D03*
X81350000Y-47300000D03*
X103000000Y-57200000D03*
X83500000Y-48850000D03*
X79200000Y-45550000D03*
X85800000Y-45400000D03*
D19*
X109400000Y-44100000D02*
X109300000Y-44000000D01*
X111000000Y-44100000D02*
X109400000Y-44100000D01*
X106500000Y-44000000D02*
X106400000Y-44100000D01*
X109300000Y-44000000D02*
X106500000Y-44000000D01*
X74600000Y-37500000D02*
X69100000Y-43000000D01*
X74600000Y-34300000D02*
X74600000Y-37500000D01*
X69100000Y-54500000D02*
X73400000Y-58800000D01*
X69100000Y-43000000D02*
X69100000Y-54500000D01*
D20*
X72900000Y-38195176D02*
X72900000Y-37577106D01*
X72900000Y-37577106D02*
X72900000Y-36870000D01*
X65895176Y-45200000D02*
X72900000Y-38195176D01*
X65576978Y-45200000D02*
X65895176Y-45200000D01*
X111361511Y-56361511D02*
X111000000Y-56000000D01*
X112161511Y-56361511D02*
X111361511Y-56361511D01*
X111100000Y-47200000D02*
X111000000Y-47100000D01*
X112500000Y-47200000D02*
X111100000Y-47200000D01*
X73607106Y-36870000D02*
X74000000Y-36477106D01*
X72900000Y-36870000D02*
X73607106Y-36870000D01*
X74000000Y-36477106D02*
X74000000Y-34000000D01*
X74173901Y-33826099D02*
X94426099Y-33826099D01*
X74000000Y-34000000D02*
X74173901Y-33826099D01*
X94426099Y-33826099D02*
X94900000Y-34300000D01*
X94900000Y-38900000D02*
X94900000Y-38900000D01*
X94900000Y-34300000D02*
X94900000Y-38900000D01*
X94900000Y-38900000D02*
X92600000Y-41200000D01*
X94900000Y-34300000D02*
X96400000Y-34300000D01*
X96400000Y-34300000D02*
X96700000Y-34000000D01*
D19*
X63700000Y-35600000D02*
X70360000Y-35600000D01*
X61600000Y-40200000D02*
X61600000Y-37700000D01*
X61600000Y-37700000D02*
X63700000Y-35600000D01*
X66475001Y-52975001D02*
X66475001Y-49075001D01*
X66700000Y-53200000D02*
X66475001Y-52975001D01*
X61600000Y-44200000D02*
X61600000Y-40200000D01*
X66475001Y-49075001D02*
X61600000Y-44200000D01*
X65675001Y-38124999D02*
X65900000Y-37900000D01*
X63224999Y-39024999D02*
X64775001Y-39024999D01*
X64775001Y-39024999D02*
X65675001Y-38124999D01*
X63000000Y-38800000D02*
X63224999Y-39024999D01*
X68724999Y-54775001D02*
X68724999Y-50624999D01*
X68500000Y-55000000D02*
X68724999Y-54775001D01*
X63000000Y-44100000D02*
X63000000Y-44000000D01*
X63000000Y-44900000D02*
X63000000Y-44000000D01*
X68724999Y-50624999D02*
X63000000Y-44900000D01*
X63000000Y-44000000D02*
X63000000Y-38800000D01*
X91300000Y-42650000D02*
X91300000Y-44100000D01*
X91300000Y-44100000D02*
X94700000Y-47500000D01*
X94700000Y-47600000D02*
X95300000Y-48200000D01*
X94700000Y-47500000D02*
X94700000Y-47600000D01*
X96600000Y-48200000D02*
X97250000Y-48850000D01*
X95300000Y-48200000D02*
X96600000Y-48200000D01*
D21*
X94050000Y-47700000D02*
X90000000Y-43650000D01*
X90000000Y-41500000D02*
X92400000Y-39100000D01*
X90000000Y-43650000D02*
X90000000Y-41500000D01*
D20*
X107600000Y-64500000D02*
X107600000Y-65600000D01*
X113400000Y-58700000D02*
X107600000Y-64500000D01*
X113400000Y-43800000D02*
X113400000Y-58700000D01*
X109300000Y-40350000D02*
X109950000Y-40350000D01*
X109950000Y-40350000D02*
X113400000Y-43800000D01*
D19*
X89900000Y-52900000D02*
X89800000Y-53000000D01*
X91900000Y-52900000D02*
X89900000Y-52900000D01*
X57775001Y-44724999D02*
X57775001Y-48175001D01*
X58000000Y-44500000D02*
X57775001Y-44724999D01*
X57775001Y-48175001D02*
X59100000Y-49500000D01*
X59100000Y-53100000D02*
X59500000Y-53500000D01*
X59100000Y-49500000D02*
X59100000Y-53100000D01*
X57000000Y-42800000D02*
X57000000Y-43600000D01*
X57000000Y-43600000D02*
X57500000Y-44100000D01*
X57500000Y-44100000D02*
X57500000Y-49100000D01*
X58400000Y-50000000D02*
X58400000Y-50200000D01*
X57500000Y-49100000D02*
X58400000Y-50000000D01*
X58400000Y-55800000D02*
X58400000Y-50200000D01*
X58400000Y-50200000D02*
X58400000Y-50100000D01*
D20*
X62024999Y-46424999D02*
X59024999Y-46424999D01*
X59024999Y-46424999D02*
X59000000Y-46400000D01*
X63000000Y-49800000D02*
X63000000Y-47400000D01*
X63000000Y-47400000D02*
X62024999Y-46424999D01*
D19*
X77800000Y-56500000D02*
X74000000Y-52700000D01*
X105800000Y-56500000D02*
X77800000Y-56500000D01*
X81574999Y-47524999D02*
X81350000Y-47300000D01*
X89119640Y-55000000D02*
X81644639Y-47524999D01*
X81644639Y-47524999D02*
X81574999Y-47524999D01*
X111000000Y-55000000D02*
X89119640Y-55000000D01*
X111863900Y-54000000D02*
X112600000Y-54736100D01*
X111000000Y-54000000D02*
X111863900Y-54000000D01*
X112600000Y-54736100D02*
X112600000Y-57800000D01*
X112600000Y-57800000D02*
X111400000Y-59000000D01*
X111400000Y-59000000D02*
X104000000Y-59000000D01*
X103224999Y-58224999D02*
X104000000Y-59000000D01*
X103224999Y-57424999D02*
X103224999Y-58224999D01*
X103000000Y-57200000D02*
X103224999Y-57424999D01*
X84450000Y-45550000D02*
X79200000Y-45550000D01*
X101900000Y-46100000D02*
X101900000Y-46500000D01*
X111000000Y-46100000D02*
X101900000Y-46100000D01*
X91000000Y-52100000D02*
X84450000Y-45550000D01*
X101900000Y-46500000D02*
X96300000Y-52100000D01*
X96300000Y-52100000D02*
X91000000Y-52100000D01*
X85800000Y-45400000D02*
X89800000Y-45400000D01*
X97800000Y-49300000D02*
X102000000Y-45100000D01*
X102000000Y-45100000D02*
X111000000Y-45100000D01*
X90400000Y-45400000D02*
X93500000Y-48500000D01*
X85800000Y-45400000D02*
X90400000Y-45400000D01*
X93500000Y-48500000D02*
X95600000Y-48500000D01*
X95600000Y-48500000D02*
X96400000Y-49300000D01*
X96400000Y-49300000D02*
X97800000Y-49300000D01*
D22*
G36*
X115800000Y-32990183D02*
G01*
X115800000Y-41641762D01*
X115775000Y-41639300D01*
X115218500Y-41642000D01*
X115079000Y-41781500D01*
X115079000Y-42596000D01*
X115800000Y-42596000D01*
X115800000Y-43004000D01*
X115079000Y-43004000D01*
X115079000Y-43818500D01*
X115218500Y-43958000D01*
X115775000Y-43960700D01*
X115800000Y-43958238D01*
X115800000Y-47241762D01*
X115775000Y-47239300D01*
X115218500Y-47242000D01*
X115079000Y-47381500D01*
X115079000Y-48196000D01*
X115800000Y-48196000D01*
X115800000Y-48604000D01*
X115079000Y-48604000D01*
X115079000Y-49418500D01*
X115218500Y-49558000D01*
X115775000Y-49560700D01*
X115800000Y-49558238D01*
X115800001Y-50541762D01*
X115775000Y-50539300D01*
X115218500Y-50542000D01*
X115079000Y-50681500D01*
X115079000Y-51496000D01*
X115800001Y-51496000D01*
X115800001Y-51904000D01*
X115079000Y-51904000D01*
X115079000Y-52718500D01*
X115218500Y-52858000D01*
X115775000Y-52860700D01*
X115800001Y-52858238D01*
X115800001Y-56141762D01*
X115775000Y-56139300D01*
X115218500Y-56142000D01*
X115079000Y-56281500D01*
X115079000Y-57096000D01*
X115800001Y-57096000D01*
X115800001Y-57504000D01*
X115079000Y-57504000D01*
X115079000Y-58318500D01*
X115218500Y-58458000D01*
X115775000Y-58460700D01*
X115800001Y-58458238D01*
X115800001Y-67800000D01*
X94050000Y-67800000D01*
X94050000Y-64600510D01*
X106449785Y-64600510D01*
X106449785Y-66599490D01*
X106452681Y-66628895D01*
X106461258Y-66657170D01*
X106475187Y-66683228D01*
X106493931Y-66706069D01*
X106516772Y-66724813D01*
X106542830Y-66738742D01*
X106571105Y-66747319D01*
X106600510Y-66750215D01*
X108599490Y-66750215D01*
X108628895Y-66747319D01*
X108657170Y-66738742D01*
X108683228Y-66724813D01*
X108706069Y-66706069D01*
X108724813Y-66683228D01*
X108738742Y-66657170D01*
X108747319Y-66628895D01*
X108750215Y-66599490D01*
X108750215Y-64837489D01*
X111350000Y-64837489D01*
X111350000Y-65162511D01*
X111413408Y-65481287D01*
X111537789Y-65781568D01*
X111718361Y-66051814D01*
X111948186Y-66281639D01*
X112218432Y-66462211D01*
X112518713Y-66586592D01*
X112837489Y-66650000D01*
X113162511Y-66650000D01*
X113481287Y-66586592D01*
X113781568Y-66462211D01*
X114051814Y-66281639D01*
X114281639Y-66051814D01*
X114462211Y-65781568D01*
X114586592Y-65481287D01*
X114650000Y-65162511D01*
X114650000Y-64837489D01*
X114586592Y-64518713D01*
X114462211Y-64218432D01*
X114281639Y-63948186D01*
X114051814Y-63718361D01*
X113781568Y-63537789D01*
X113481287Y-63413408D01*
X113162511Y-63350000D01*
X112837489Y-63350000D01*
X112518713Y-63413408D01*
X112218432Y-63537789D01*
X111948186Y-63718361D01*
X111718361Y-63948186D01*
X111537789Y-64218432D01*
X111413408Y-64518713D01*
X111350000Y-64837489D01*
X108750215Y-64837489D01*
X108750215Y-64600510D01*
X108747319Y-64571105D01*
X108738742Y-64542830D01*
X108724813Y-64516772D01*
X108706069Y-64493931D01*
X108683228Y-64475187D01*
X108657170Y-64461258D01*
X108628895Y-64452681D01*
X108599490Y-64449785D01*
X108088620Y-64449785D01*
X113608440Y-58929966D01*
X113620263Y-58920263D01*
X113659002Y-58873060D01*
X113687788Y-58819206D01*
X113705514Y-58760770D01*
X113710000Y-58715220D01*
X113711499Y-58700000D01*
X113710000Y-58684780D01*
X113710000Y-58391064D01*
X113760429Y-58418019D01*
X113865613Y-58449926D01*
X113975000Y-58460700D01*
X114531500Y-58458000D01*
X114671000Y-58318500D01*
X114671000Y-57504000D01*
X114651000Y-57504000D01*
X114651000Y-57096000D01*
X114671000Y-57096000D01*
X114671000Y-56281500D01*
X114531500Y-56142000D01*
X113975000Y-56139300D01*
X113865613Y-56150074D01*
X113760429Y-56181981D01*
X113710000Y-56208936D01*
X113710000Y-52791064D01*
X113760429Y-52818019D01*
X113865613Y-52849926D01*
X113975000Y-52860700D01*
X114531500Y-52858000D01*
X114671000Y-52718500D01*
X114671000Y-51904000D01*
X114651000Y-51904000D01*
X114651000Y-51496000D01*
X114671000Y-51496000D01*
X114671000Y-50681500D01*
X114531500Y-50542000D01*
X113975000Y-50539300D01*
X113865613Y-50550074D01*
X113760429Y-50581981D01*
X113710000Y-50608936D01*
X113710000Y-49491064D01*
X113760429Y-49518019D01*
X113865613Y-49549926D01*
X113975000Y-49560700D01*
X114531500Y-49558000D01*
X114671000Y-49418500D01*
X114671000Y-48604000D01*
X114651000Y-48604000D01*
X114651000Y-48196000D01*
X114671000Y-48196000D01*
X114671000Y-47381500D01*
X114531500Y-47242000D01*
X113975000Y-47239300D01*
X113865613Y-47250074D01*
X113760429Y-47281981D01*
X113710000Y-47308936D01*
X113710000Y-43891064D01*
X113760429Y-43918019D01*
X113865613Y-43949926D01*
X113975000Y-43960700D01*
X114531500Y-43958000D01*
X114671000Y-43818500D01*
X114671000Y-43004000D01*
X113556500Y-43004000D01*
X113417000Y-43143500D01*
X113414551Y-43376145D01*
X112238406Y-42200000D01*
X113414300Y-42200000D01*
X113417000Y-42456500D01*
X113556500Y-42596000D01*
X114671000Y-42596000D01*
X114671000Y-41781500D01*
X114531500Y-41642000D01*
X113975000Y-41639300D01*
X113865613Y-41650074D01*
X113760429Y-41681981D01*
X113663492Y-41733795D01*
X113578525Y-41803525D01*
X113508795Y-41888492D01*
X113456981Y-41985429D01*
X113425074Y-42090613D01*
X113414300Y-42200000D01*
X112238406Y-42200000D01*
X110179971Y-40141566D01*
X110170263Y-40129737D01*
X110123060Y-40090998D01*
X110069206Y-40062212D01*
X110010770Y-40044486D01*
X109965220Y-40040000D01*
X109965210Y-40040000D01*
X109950000Y-40038502D01*
X109934790Y-40040000D01*
X109511033Y-40040000D01*
X109477629Y-40017680D01*
X109409383Y-39989411D01*
X109336934Y-39975000D01*
X109263066Y-39975000D01*
X109190617Y-39989411D01*
X109122371Y-40017680D01*
X109060952Y-40058719D01*
X109008719Y-40110952D01*
X108967680Y-40172371D01*
X108939411Y-40240617D01*
X108925000Y-40313066D01*
X108925000Y-40386934D01*
X108939411Y-40459383D01*
X108967680Y-40527629D01*
X109008719Y-40589048D01*
X109060952Y-40641281D01*
X109122371Y-40682320D01*
X109190617Y-40710589D01*
X109263066Y-40725000D01*
X109336934Y-40725000D01*
X109409383Y-40710589D01*
X109477629Y-40682320D01*
X109511033Y-40660000D01*
X109821595Y-40660000D01*
X110399282Y-41237687D01*
X110390617Y-41239411D01*
X110322371Y-41267680D01*
X110260952Y-41308719D01*
X110208719Y-41360952D01*
X110167680Y-41422371D01*
X110139411Y-41490617D01*
X110125000Y-41563066D01*
X110125000Y-41636934D01*
X110139411Y-41709383D01*
X110167680Y-41777629D01*
X110208719Y-41839048D01*
X110260952Y-41891281D01*
X110322371Y-41932320D01*
X110390617Y-41960589D01*
X110463066Y-41975000D01*
X110536934Y-41975000D01*
X110609383Y-41960589D01*
X110677629Y-41932320D01*
X110739048Y-41891281D01*
X110791281Y-41839048D01*
X110832320Y-41777629D01*
X110860589Y-41709383D01*
X110862313Y-41700718D01*
X113090000Y-43928406D01*
X113090001Y-58571593D01*
X107391566Y-64270029D01*
X107379737Y-64279737D01*
X107340998Y-64326941D01*
X107312212Y-64380795D01*
X107294486Y-64439231D01*
X107293447Y-64449785D01*
X106600510Y-64449785D01*
X106571105Y-64452681D01*
X106542830Y-64461258D01*
X106516772Y-64475187D01*
X106493931Y-64493931D01*
X106475187Y-64516772D01*
X106461258Y-64542830D01*
X106452681Y-64571105D01*
X106449785Y-64600510D01*
X94050000Y-64600510D01*
X94050000Y-62931874D01*
X106746625Y-62931874D01*
X106852989Y-63165239D01*
X107135639Y-63284548D01*
X107436133Y-63346423D01*
X107742925Y-63348486D01*
X108044224Y-63290657D01*
X108328452Y-63175159D01*
X108347011Y-63165239D01*
X108453375Y-62931874D01*
X107600000Y-62078500D01*
X106746625Y-62931874D01*
X94050000Y-62931874D01*
X94050000Y-61932925D01*
X106041514Y-61932925D01*
X106099343Y-62234224D01*
X106214841Y-62518452D01*
X106224761Y-62537011D01*
X106458126Y-62643375D01*
X107311500Y-61790000D01*
X107888500Y-61790000D01*
X108741874Y-62643375D01*
X108975239Y-62537011D01*
X109094548Y-62254361D01*
X109156423Y-61953867D01*
X109158486Y-61647075D01*
X109100657Y-61345776D01*
X108985159Y-61061548D01*
X108975239Y-61042989D01*
X108741874Y-60936625D01*
X107888500Y-61790000D01*
X107311500Y-61790000D01*
X106458126Y-60936625D01*
X106224761Y-61042989D01*
X106105452Y-61325639D01*
X106043577Y-61626133D01*
X106041514Y-61932925D01*
X94050000Y-61932925D01*
X94050000Y-61000000D01*
X94049039Y-60990245D01*
X94046194Y-60980866D01*
X94041573Y-60972221D01*
X94035355Y-60964645D01*
X94027779Y-60958427D01*
X94019134Y-60953806D01*
X94009755Y-60950961D01*
X94000000Y-60950000D01*
X65000000Y-60950000D01*
X64990245Y-60950961D01*
X64980866Y-60953806D01*
X64972221Y-60958427D01*
X64964645Y-60964645D01*
X64958427Y-60972221D01*
X64953806Y-60980866D01*
X64950961Y-60990245D01*
X64950000Y-61000000D01*
X64950000Y-67800000D01*
X55200000Y-67800000D01*
X55200000Y-64837489D01*
X56350000Y-64837489D01*
X56350000Y-65162511D01*
X56413408Y-65481287D01*
X56537789Y-65781568D01*
X56718361Y-66051814D01*
X56948186Y-66281639D01*
X57218432Y-66462211D01*
X57518713Y-66586592D01*
X57837489Y-66650000D01*
X58162511Y-66650000D01*
X58481287Y-66586592D01*
X58781568Y-66462211D01*
X59051814Y-66281639D01*
X59281639Y-66051814D01*
X59462211Y-65781568D01*
X59586592Y-65481287D01*
X59650000Y-65162511D01*
X59650000Y-64837489D01*
X59586592Y-64518713D01*
X59462211Y-64218432D01*
X59281639Y-63948186D01*
X59051814Y-63718361D01*
X58781568Y-63537789D01*
X58481287Y-63413408D01*
X58162511Y-63350000D01*
X57837489Y-63350000D01*
X57518713Y-63413408D01*
X57218432Y-63537789D01*
X56948186Y-63718361D01*
X56718361Y-63948186D01*
X56537789Y-64218432D01*
X56413408Y-64518713D01*
X56350000Y-64837489D01*
X55200000Y-64837489D01*
X55200000Y-60648126D01*
X106746625Y-60648126D01*
X107600000Y-61501500D01*
X108453375Y-60648126D01*
X108347011Y-60414761D01*
X108064361Y-60295452D01*
X107763867Y-60233577D01*
X107457075Y-60231514D01*
X107155776Y-60289343D01*
X106871548Y-60404841D01*
X106852989Y-60414761D01*
X106746625Y-60648126D01*
X55200000Y-60648126D01*
X55200000Y-59809794D01*
X55207630Y-59823869D01*
X55342586Y-59986358D01*
X55506649Y-60119397D01*
X55693514Y-60217872D01*
X55896000Y-60278000D01*
X56396000Y-60278000D01*
X56396000Y-59424000D01*
X56804000Y-59424000D01*
X56804000Y-60278000D01*
X57304000Y-60278000D01*
X57506486Y-60217872D01*
X57693351Y-60119397D01*
X57857414Y-59986358D01*
X57992370Y-59823869D01*
X58093032Y-59638173D01*
X58093421Y-59587874D01*
X59236394Y-59587874D01*
X59241182Y-59652062D01*
X59344953Y-59841546D01*
X59483697Y-60007145D01*
X59652082Y-60142494D01*
X59843637Y-60242392D01*
X60051000Y-60303000D01*
X60576000Y-60303000D01*
X60576000Y-59424000D01*
X60984000Y-59424000D01*
X60984000Y-60303000D01*
X61509000Y-60303000D01*
X61716363Y-60242392D01*
X61907918Y-60142494D01*
X62076303Y-60007145D01*
X62215047Y-59841546D01*
X62318818Y-59652062D01*
X62323606Y-59587874D01*
X62226182Y-59424000D01*
X60984000Y-59424000D01*
X60576000Y-59424000D01*
X59333818Y-59424000D01*
X59236394Y-59587874D01*
X58093421Y-59587874D01*
X58093452Y-59583890D01*
X57995559Y-59424000D01*
X56804000Y-59424000D01*
X56396000Y-59424000D01*
X56376000Y-59424000D01*
X56376000Y-59016000D01*
X56396000Y-59016000D01*
X56396000Y-58162000D01*
X56804000Y-58162000D01*
X56804000Y-59016000D01*
X57995559Y-59016000D01*
X58093452Y-58856110D01*
X58093422Y-58852126D01*
X59236394Y-58852126D01*
X59333818Y-59016000D01*
X60576000Y-59016000D01*
X60576000Y-58163496D01*
X60582795Y-58158956D01*
X60604751Y-58137000D01*
X60984000Y-58137000D01*
X60984000Y-59016000D01*
X62226182Y-59016000D01*
X62323606Y-58852126D01*
X62318818Y-58787938D01*
X62215047Y-58598454D01*
X62076303Y-58432855D01*
X61907918Y-58297506D01*
X61716363Y-58197608D01*
X61509000Y-58137000D01*
X60984000Y-58137000D01*
X60604751Y-58137000D01*
X60648956Y-58092795D01*
X60700939Y-58014997D01*
X60736746Y-57928552D01*
X60755000Y-57836783D01*
X60755000Y-57743217D01*
X60736746Y-57651448D01*
X60700939Y-57565003D01*
X60648956Y-57487205D01*
X60582795Y-57421044D01*
X60504997Y-57369061D01*
X60418552Y-57333254D01*
X60326783Y-57315000D01*
X60233217Y-57315000D01*
X60141448Y-57333254D01*
X60055003Y-57369061D01*
X59977205Y-57421044D01*
X59911044Y-57487205D01*
X59859061Y-57565003D01*
X59823254Y-57651448D01*
X59805000Y-57743217D01*
X59805000Y-57836783D01*
X59823254Y-57928552D01*
X59859061Y-58014997D01*
X59911044Y-58092795D01*
X59976905Y-58158656D01*
X59843637Y-58197608D01*
X59652082Y-58297506D01*
X59483697Y-58432855D01*
X59344953Y-58598454D01*
X59241182Y-58787938D01*
X59236394Y-58852126D01*
X58093422Y-58852126D01*
X58093032Y-58801827D01*
X57992370Y-58616131D01*
X57857414Y-58453642D01*
X57693351Y-58320603D01*
X57506486Y-58222128D01*
X57304000Y-58162000D01*
X56804000Y-58162000D01*
X56396000Y-58162000D01*
X55896000Y-58162000D01*
X55693514Y-58222128D01*
X55506649Y-58320603D01*
X55342586Y-58453642D01*
X55207630Y-58616131D01*
X55200000Y-58630206D01*
X55200000Y-51169794D01*
X55207630Y-51183869D01*
X55342586Y-51346358D01*
X55506649Y-51479397D01*
X55693514Y-51577872D01*
X55896000Y-51638000D01*
X56396000Y-51638000D01*
X56396000Y-50784000D01*
X56804000Y-50784000D01*
X56804000Y-51638000D01*
X57304000Y-51638000D01*
X57506486Y-51577872D01*
X57693351Y-51479397D01*
X57857414Y-51346358D01*
X57992370Y-51183869D01*
X58093032Y-50998173D01*
X58093452Y-50943890D01*
X57995559Y-50784000D01*
X56804000Y-50784000D01*
X56396000Y-50784000D01*
X56376000Y-50784000D01*
X56376000Y-50376000D01*
X56396000Y-50376000D01*
X56396000Y-49522000D01*
X56804000Y-49522000D01*
X56804000Y-50376000D01*
X57995559Y-50376000D01*
X58093452Y-50216110D01*
X58093032Y-50161827D01*
X57992370Y-49976131D01*
X57857414Y-49813642D01*
X57693351Y-49680603D01*
X57506486Y-49582128D01*
X57304000Y-49522000D01*
X56804000Y-49522000D01*
X56396000Y-49522000D01*
X55896000Y-49522000D01*
X55693514Y-49582128D01*
X55506649Y-49680603D01*
X55342586Y-49813642D01*
X55207630Y-49976131D01*
X55200000Y-49990206D01*
X55200000Y-42763066D01*
X56625000Y-42763066D01*
X56625000Y-42836934D01*
X56639411Y-42909383D01*
X56667680Y-42977629D01*
X56708719Y-43039048D01*
X56760952Y-43091281D01*
X56805550Y-43121081D01*
X56805551Y-43590448D01*
X56804610Y-43600000D01*
X56808365Y-43638118D01*
X56819483Y-43674772D01*
X56837539Y-43708552D01*
X56837540Y-43708553D01*
X56861839Y-43738162D01*
X56869255Y-43744248D01*
X57305550Y-44180544D01*
X57305551Y-49090448D01*
X57304610Y-49100000D01*
X57308365Y-49138118D01*
X57319483Y-49174772D01*
X57328397Y-49191448D01*
X57337540Y-49208553D01*
X57361839Y-49238162D01*
X57369255Y-49244248D01*
X58205550Y-50080544D01*
X58205550Y-50209544D01*
X58205551Y-50209554D01*
X58205550Y-55478919D01*
X58160952Y-55508719D01*
X58108719Y-55560952D01*
X58067680Y-55622371D01*
X58039411Y-55690617D01*
X58025000Y-55763066D01*
X58025000Y-55836934D01*
X58039411Y-55909383D01*
X58067680Y-55977629D01*
X58108719Y-56039048D01*
X58160952Y-56091281D01*
X58222371Y-56132320D01*
X58290617Y-56160589D01*
X58363066Y-56175000D01*
X58436934Y-56175000D01*
X58509383Y-56160589D01*
X58577629Y-56132320D01*
X58639048Y-56091281D01*
X58691281Y-56039048D01*
X58732320Y-55977629D01*
X58760589Y-55909383D01*
X58775000Y-55836934D01*
X58775000Y-55763066D01*
X58760589Y-55690617D01*
X58732320Y-55622371D01*
X58691281Y-55560952D01*
X58639048Y-55508719D01*
X58594450Y-55478919D01*
X58594450Y-50009541D01*
X58595390Y-49999999D01*
X58594450Y-49990455D01*
X58591636Y-49961881D01*
X58580517Y-49925227D01*
X58572048Y-49909383D01*
X58562461Y-49891446D01*
X58544246Y-49869252D01*
X58538162Y-49861838D01*
X58530747Y-49855753D01*
X57694450Y-49019457D01*
X57694450Y-48369443D01*
X58905550Y-49580544D01*
X58905551Y-53090448D01*
X58904610Y-53100000D01*
X58908365Y-53138118D01*
X58919483Y-53174772D01*
X58928497Y-53191635D01*
X58937540Y-53208553D01*
X58961839Y-53238162D01*
X58969255Y-53244248D01*
X59135464Y-53410457D01*
X59125000Y-53463066D01*
X59125000Y-53536934D01*
X59139411Y-53609383D01*
X59167680Y-53677629D01*
X59208719Y-53739048D01*
X59260952Y-53791281D01*
X59322371Y-53832320D01*
X59390617Y-53860589D01*
X59463066Y-53875000D01*
X59536934Y-53875000D01*
X59609383Y-53860589D01*
X59677629Y-53832320D01*
X59739048Y-53791281D01*
X59791281Y-53739048D01*
X59832320Y-53677629D01*
X59860589Y-53609383D01*
X59875000Y-53536934D01*
X59875000Y-53463066D01*
X59860589Y-53390617D01*
X59832320Y-53322371D01*
X59791281Y-53260952D01*
X59739048Y-53208719D01*
X59677629Y-53167680D01*
X59609383Y-53139411D01*
X59536934Y-53125000D01*
X59463066Y-53125000D01*
X59410457Y-53135464D01*
X59294450Y-53019457D01*
X59294450Y-51109328D01*
X59344953Y-51201546D01*
X59483697Y-51367145D01*
X59652082Y-51502494D01*
X59843637Y-51602392D01*
X59976905Y-51641344D01*
X59911044Y-51707205D01*
X59859061Y-51785003D01*
X59823254Y-51871448D01*
X59805000Y-51963217D01*
X59805000Y-52056783D01*
X59823254Y-52148552D01*
X59859061Y-52234997D01*
X59911044Y-52312795D01*
X59977205Y-52378956D01*
X60055003Y-52430939D01*
X60141448Y-52466746D01*
X60233217Y-52485000D01*
X60326783Y-52485000D01*
X60418552Y-52466746D01*
X60504997Y-52430939D01*
X60582795Y-52378956D01*
X60648956Y-52312795D01*
X60700939Y-52234997D01*
X60736746Y-52148552D01*
X60755000Y-52056783D01*
X60755000Y-51963217D01*
X60736746Y-51871448D01*
X60700939Y-51785003D01*
X60648956Y-51707205D01*
X60582795Y-51641044D01*
X60576000Y-51636504D01*
X60576000Y-50784000D01*
X60984000Y-50784000D01*
X60984000Y-51663000D01*
X61509000Y-51663000D01*
X61716363Y-51602392D01*
X61907918Y-51502494D01*
X62076303Y-51367145D01*
X62215047Y-51201546D01*
X62318818Y-51012062D01*
X62323606Y-50947874D01*
X62226182Y-50784000D01*
X60984000Y-50784000D01*
X60576000Y-50784000D01*
X60556000Y-50784000D01*
X60556000Y-50376000D01*
X60576000Y-50376000D01*
X60576000Y-49497000D01*
X60984000Y-49497000D01*
X60984000Y-50376000D01*
X62226182Y-50376000D01*
X62323606Y-50212126D01*
X62318818Y-50147938D01*
X62215047Y-49958454D01*
X62076303Y-49792855D01*
X61907918Y-49657506D01*
X61716363Y-49557608D01*
X61509000Y-49497000D01*
X60984000Y-49497000D01*
X60576000Y-49497000D01*
X60051000Y-49497000D01*
X59843637Y-49557608D01*
X59652082Y-49657506D01*
X59483697Y-49792855D01*
X59344953Y-49958454D01*
X59294450Y-50050672D01*
X59294450Y-49509545D01*
X59295390Y-49500000D01*
X59291636Y-49461881D01*
X59284441Y-49438162D01*
X59280517Y-49425227D01*
X59262461Y-49391447D01*
X59238162Y-49361838D01*
X59230747Y-49355753D01*
X57969451Y-48094458D01*
X57969451Y-46363066D01*
X58625000Y-46363066D01*
X58625000Y-46436934D01*
X58639411Y-46509383D01*
X58667680Y-46577629D01*
X58708719Y-46639048D01*
X58760952Y-46691281D01*
X58822371Y-46732320D01*
X58890617Y-46760589D01*
X58963066Y-46775000D01*
X59036934Y-46775000D01*
X59109383Y-46760589D01*
X59171161Y-46734999D01*
X61896594Y-46734999D01*
X62690001Y-47528407D01*
X62690000Y-49588967D01*
X62667680Y-49622371D01*
X62639411Y-49690617D01*
X62625000Y-49763066D01*
X62625000Y-49836934D01*
X62639411Y-49909383D01*
X62667680Y-49977629D01*
X62708719Y-50039048D01*
X62760952Y-50091281D01*
X62822371Y-50132320D01*
X62890617Y-50160589D01*
X62963066Y-50175000D01*
X63036934Y-50175000D01*
X63109383Y-50160589D01*
X63177629Y-50132320D01*
X63239048Y-50091281D01*
X63291281Y-50039048D01*
X63332320Y-49977629D01*
X63360589Y-49909383D01*
X63375000Y-49836934D01*
X63375000Y-49763066D01*
X63360589Y-49690617D01*
X63332320Y-49622371D01*
X63310000Y-49588967D01*
X63310000Y-47415220D01*
X63311499Y-47400000D01*
X63305514Y-47339230D01*
X63287788Y-47280794D01*
X63259002Y-47226940D01*
X63252654Y-47219205D01*
X63220263Y-47179737D01*
X63208440Y-47170034D01*
X62254970Y-46216565D01*
X62245262Y-46204736D01*
X62198059Y-46165997D01*
X62144205Y-46137211D01*
X62085769Y-46119485D01*
X62040219Y-46114999D01*
X62040209Y-46114999D01*
X62024999Y-46113501D01*
X62009789Y-46114999D01*
X59245328Y-46114999D01*
X59239048Y-46108719D01*
X59177629Y-46067680D01*
X59109383Y-46039411D01*
X59036934Y-46025000D01*
X58963066Y-46025000D01*
X58890617Y-46039411D01*
X58822371Y-46067680D01*
X58760952Y-46108719D01*
X58708719Y-46160952D01*
X58667680Y-46222371D01*
X58639411Y-46290617D01*
X58625000Y-46363066D01*
X57969451Y-46363066D01*
X57969451Y-44875000D01*
X58036934Y-44875000D01*
X58109383Y-44860589D01*
X58177629Y-44832320D01*
X58239048Y-44791281D01*
X58291281Y-44739048D01*
X58332320Y-44677629D01*
X58360589Y-44609383D01*
X58375000Y-44536934D01*
X58375000Y-44463066D01*
X58360589Y-44390617D01*
X58332320Y-44322371D01*
X58291281Y-44260952D01*
X58239048Y-44208719D01*
X58177629Y-44167680D01*
X58109383Y-44139411D01*
X58036934Y-44125000D01*
X57963066Y-44125000D01*
X57890617Y-44139411D01*
X57822371Y-44167680D01*
X57760952Y-44208719D01*
X57708719Y-44260952D01*
X57694450Y-44282307D01*
X57694450Y-44109542D01*
X57695390Y-44100000D01*
X57694187Y-44087788D01*
X57691636Y-44061881D01*
X57680517Y-44025227D01*
X57662461Y-43991447D01*
X57638162Y-43961838D01*
X57630747Y-43955753D01*
X57194450Y-43519457D01*
X57194450Y-43121081D01*
X57239048Y-43091281D01*
X57291281Y-43039048D01*
X57332320Y-42977629D01*
X57360589Y-42909383D01*
X57375000Y-42836934D01*
X57375000Y-42763066D01*
X57360589Y-42690617D01*
X57332320Y-42622371D01*
X57291281Y-42560952D01*
X57239048Y-42508719D01*
X57177629Y-42467680D01*
X57109383Y-42439411D01*
X57036934Y-42425000D01*
X56963066Y-42425000D01*
X56890617Y-42439411D01*
X56822371Y-42467680D01*
X56760952Y-42508719D01*
X56708719Y-42560952D01*
X56667680Y-42622371D01*
X56639411Y-42690617D01*
X56625000Y-42763066D01*
X55200000Y-42763066D01*
X55200000Y-40163066D01*
X61225000Y-40163066D01*
X61225000Y-40236934D01*
X61239411Y-40309383D01*
X61267680Y-40377629D01*
X61308719Y-40439048D01*
X61360952Y-40491281D01*
X61405551Y-40521081D01*
X61405550Y-44190458D01*
X61404610Y-44200000D01*
X61405550Y-44209542D01*
X61405550Y-44209544D01*
X61408364Y-44238118D01*
X61419483Y-44274772D01*
X61437539Y-44308552D01*
X61461838Y-44338162D01*
X61469260Y-44344253D01*
X66280552Y-49155546D01*
X66280551Y-52965459D01*
X66279611Y-52975001D01*
X66280551Y-52984543D01*
X66280551Y-52984545D01*
X66283365Y-53013119D01*
X66294484Y-53049773D01*
X66312540Y-53083553D01*
X66335299Y-53111287D01*
X66325000Y-53163066D01*
X66325000Y-53236934D01*
X66339411Y-53309383D01*
X66367680Y-53377629D01*
X66408719Y-53439048D01*
X66460952Y-53491281D01*
X66522371Y-53532320D01*
X66590617Y-53560589D01*
X66663066Y-53575000D01*
X66736934Y-53575000D01*
X66809383Y-53560589D01*
X66877629Y-53532320D01*
X66939048Y-53491281D01*
X66991281Y-53439048D01*
X67032320Y-53377629D01*
X67060589Y-53309383D01*
X67075000Y-53236934D01*
X67075000Y-53163066D01*
X67060589Y-53090617D01*
X67032320Y-53022371D01*
X66991281Y-52960952D01*
X66939048Y-52908719D01*
X66877629Y-52867680D01*
X66809383Y-52839411D01*
X66736934Y-52825000D01*
X66669451Y-52825000D01*
X66669451Y-49084546D01*
X66670391Y-49075001D01*
X66666637Y-49036882D01*
X66655518Y-49000229D01*
X66655518Y-49000228D01*
X66637462Y-48966448D01*
X66613163Y-48936839D01*
X66605747Y-48930753D01*
X61794450Y-44119457D01*
X61794450Y-40521081D01*
X61839048Y-40491281D01*
X61891281Y-40439048D01*
X61932320Y-40377629D01*
X61960589Y-40309383D01*
X61975000Y-40236934D01*
X61975000Y-40163066D01*
X61960589Y-40090617D01*
X61932320Y-40022371D01*
X61891281Y-39960952D01*
X61839048Y-39908719D01*
X61794450Y-39878919D01*
X61794450Y-37780543D01*
X63780543Y-35794450D01*
X69736989Y-35794450D01*
X69783978Y-35907890D01*
X69855112Y-36014351D01*
X69945649Y-36104888D01*
X70052110Y-36176022D01*
X70170402Y-36225021D01*
X70220570Y-36235000D01*
X70170402Y-36244979D01*
X70052110Y-36293978D01*
X69945649Y-36365112D01*
X69855112Y-36455649D01*
X69783978Y-36562110D01*
X69734979Y-36680402D01*
X69710000Y-36805981D01*
X69710000Y-36934019D01*
X69734979Y-37059598D01*
X69783978Y-37177890D01*
X69855112Y-37284351D01*
X69945649Y-37374888D01*
X70052110Y-37446022D01*
X70170402Y-37495021D01*
X70295981Y-37520000D01*
X70424019Y-37520000D01*
X70549598Y-37495021D01*
X70667890Y-37446022D01*
X70721537Y-37410177D01*
X70726618Y-37420715D01*
X70851415Y-37586374D01*
X71006133Y-37724503D01*
X71184826Y-37829794D01*
X71266110Y-37863452D01*
X71426000Y-37765559D01*
X71426000Y-37074000D01*
X71406000Y-37074000D01*
X71406000Y-36666000D01*
X71426000Y-36666000D01*
X71426000Y-36646000D01*
X71834000Y-36646000D01*
X71834000Y-36666000D01*
X71854000Y-36666000D01*
X71854000Y-37074000D01*
X71834000Y-37074000D01*
X71834000Y-37765559D01*
X71993890Y-37863452D01*
X72075174Y-37829794D01*
X72253867Y-37724503D01*
X72408585Y-37586374D01*
X72533382Y-37420715D01*
X72538463Y-37410177D01*
X72590000Y-37444612D01*
X72590000Y-37592325D01*
X72590001Y-37592335D01*
X72590000Y-38066769D01*
X65775279Y-44881492D01*
X65754607Y-44867680D01*
X65686361Y-44839411D01*
X65613912Y-44825000D01*
X65540044Y-44825000D01*
X65467595Y-44839411D01*
X65399349Y-44867680D01*
X65337930Y-44908719D01*
X65285697Y-44960952D01*
X65244658Y-45022371D01*
X65216389Y-45090617D01*
X65201978Y-45163066D01*
X65201978Y-45236934D01*
X65216389Y-45309383D01*
X65244658Y-45377629D01*
X65285697Y-45439048D01*
X65337930Y-45491281D01*
X65399349Y-45532320D01*
X65467595Y-45560589D01*
X65540044Y-45575000D01*
X65613912Y-45575000D01*
X65686361Y-45560589D01*
X65754607Y-45532320D01*
X65788011Y-45510000D01*
X65879966Y-45510000D01*
X65895176Y-45511498D01*
X65910386Y-45510000D01*
X65910396Y-45510000D01*
X65955946Y-45505514D01*
X66014382Y-45487788D01*
X66068236Y-45459002D01*
X66115439Y-45420263D01*
X66125147Y-45408434D01*
X73108447Y-38425136D01*
X73120263Y-38415439D01*
X73129961Y-38403622D01*
X73129965Y-38403618D01*
X73159001Y-38368237D01*
X73159003Y-38368235D01*
X73187788Y-38314382D01*
X73205514Y-38255946D01*
X73210000Y-38210396D01*
X73210000Y-38210387D01*
X73211498Y-38195177D01*
X73210000Y-38179966D01*
X73210000Y-37444612D01*
X73314351Y-37374888D01*
X73404888Y-37284351D01*
X73474612Y-37180000D01*
X73591896Y-37180000D01*
X73607106Y-37181498D01*
X73622316Y-37180000D01*
X73622326Y-37180000D01*
X73667876Y-37175514D01*
X73726312Y-37157788D01*
X73780166Y-37129002D01*
X73827369Y-37090263D01*
X73837076Y-37078435D01*
X74208441Y-36707071D01*
X74220263Y-36697369D01*
X74259002Y-36650166D01*
X74287788Y-36596312D01*
X74305514Y-36537876D01*
X74310000Y-36492326D01*
X74310000Y-36492317D01*
X74311498Y-36477107D01*
X74310000Y-36461896D01*
X74310000Y-34540329D01*
X74360952Y-34591281D01*
X74405550Y-34621081D01*
X74405551Y-37419455D01*
X69189542Y-42635464D01*
X69136934Y-42625000D01*
X69063066Y-42625000D01*
X68990617Y-42639411D01*
X68922371Y-42667680D01*
X68860952Y-42708719D01*
X68808719Y-42760952D01*
X68767680Y-42822371D01*
X68739411Y-42890617D01*
X68725000Y-42963066D01*
X68725000Y-43036934D01*
X68739411Y-43109383D01*
X68767680Y-43177629D01*
X68808719Y-43239048D01*
X68860952Y-43291281D01*
X68905550Y-43321081D01*
X68905551Y-50550340D01*
X68905516Y-50550226D01*
X68899676Y-50539300D01*
X68887460Y-50516445D01*
X68869245Y-50494251D01*
X68863161Y-50486837D01*
X68855745Y-50480751D01*
X63194450Y-44819457D01*
X63194450Y-39217381D01*
X63224999Y-39220389D01*
X63234544Y-39219449D01*
X64765459Y-39219449D01*
X64775001Y-39220389D01*
X64784543Y-39219449D01*
X64784546Y-39219449D01*
X64813120Y-39216635D01*
X64849774Y-39205516D01*
X64883554Y-39187460D01*
X64913163Y-39163161D01*
X64919254Y-39155739D01*
X65810458Y-38264536D01*
X65863066Y-38275000D01*
X65936934Y-38275000D01*
X66009383Y-38260589D01*
X66077629Y-38232320D01*
X66139048Y-38191281D01*
X66191281Y-38139048D01*
X66232320Y-38077629D01*
X66260589Y-38009383D01*
X66275000Y-37936934D01*
X66275000Y-37863066D01*
X66260589Y-37790617D01*
X66232320Y-37722371D01*
X66191281Y-37660952D01*
X66139048Y-37608719D01*
X66077629Y-37567680D01*
X66009383Y-37539411D01*
X65936934Y-37525000D01*
X65863066Y-37525000D01*
X65790617Y-37539411D01*
X65722371Y-37567680D01*
X65660952Y-37608719D01*
X65608719Y-37660952D01*
X65567680Y-37722371D01*
X65539411Y-37790617D01*
X65525000Y-37863066D01*
X65525000Y-37936934D01*
X65535464Y-37989542D01*
X64694458Y-38830549D01*
X63375000Y-38830549D01*
X63375000Y-38763066D01*
X63360589Y-38690617D01*
X63332320Y-38622371D01*
X63291281Y-38560952D01*
X63239048Y-38508719D01*
X63177629Y-38467680D01*
X63109383Y-38439411D01*
X63036934Y-38425000D01*
X62963066Y-38425000D01*
X62890617Y-38439411D01*
X62822371Y-38467680D01*
X62760952Y-38508719D01*
X62708719Y-38560952D01*
X62667680Y-38622371D01*
X62639411Y-38690617D01*
X62625000Y-38763066D01*
X62625000Y-38836934D01*
X62639411Y-38909383D01*
X62667680Y-38977629D01*
X62708719Y-39039048D01*
X62760952Y-39091281D01*
X62805551Y-39121081D01*
X62805550Y-43990455D01*
X62805550Y-44109544D01*
X62805551Y-44109553D01*
X62805550Y-44890458D01*
X62804610Y-44900000D01*
X62805550Y-44909542D01*
X62805550Y-44909544D01*
X62808364Y-44938118D01*
X62819483Y-44974772D01*
X62837539Y-45008552D01*
X62861838Y-45038162D01*
X62869260Y-45044253D01*
X68530550Y-50705544D01*
X68530549Y-54625000D01*
X68463066Y-54625000D01*
X68390617Y-54639411D01*
X68322371Y-54667680D01*
X68260952Y-54708719D01*
X68208719Y-54760952D01*
X68167680Y-54822371D01*
X68139411Y-54890617D01*
X68125000Y-54963066D01*
X68125000Y-55036934D01*
X68139411Y-55109383D01*
X68167680Y-55177629D01*
X68208719Y-55239048D01*
X68260952Y-55291281D01*
X68322371Y-55332320D01*
X68390617Y-55360589D01*
X68463066Y-55375000D01*
X68536934Y-55375000D01*
X68609383Y-55360589D01*
X68677629Y-55332320D01*
X68739048Y-55291281D01*
X68791281Y-55239048D01*
X68832320Y-55177629D01*
X68860589Y-55109383D01*
X68875000Y-55036934D01*
X68875000Y-54963066D01*
X68864701Y-54911287D01*
X68887460Y-54883554D01*
X68905516Y-54849774D01*
X68916635Y-54813120D01*
X68919449Y-54784546D01*
X68919449Y-54784545D01*
X68920389Y-54775001D01*
X68919449Y-54765456D01*
X68919449Y-54574660D01*
X68919483Y-54574772D01*
X68931866Y-54597938D01*
X68937540Y-54608553D01*
X68961839Y-54638162D01*
X68969255Y-54644248D01*
X73035464Y-58710458D01*
X73025000Y-58763066D01*
X73025000Y-58836934D01*
X73039411Y-58909383D01*
X73067680Y-58977629D01*
X73108719Y-59039048D01*
X73160952Y-59091281D01*
X73222371Y-59132320D01*
X73290617Y-59160589D01*
X73363066Y-59175000D01*
X73436934Y-59175000D01*
X73509383Y-59160589D01*
X73577629Y-59132320D01*
X73639048Y-59091281D01*
X73691281Y-59039048D01*
X73732320Y-58977629D01*
X73760589Y-58909383D01*
X73775000Y-58836934D01*
X73775000Y-58763066D01*
X73760589Y-58690617D01*
X73732320Y-58622371D01*
X73691281Y-58560952D01*
X73639048Y-58508719D01*
X73577629Y-58467680D01*
X73509383Y-58439411D01*
X73436934Y-58425000D01*
X73363066Y-58425000D01*
X73310458Y-58435464D01*
X72038060Y-57163066D01*
X102625000Y-57163066D01*
X102625000Y-57236934D01*
X102639411Y-57309383D01*
X102667680Y-57377629D01*
X102708719Y-57439048D01*
X102760952Y-57491281D01*
X102822371Y-57532320D01*
X102890617Y-57560589D01*
X102963066Y-57575000D01*
X103030549Y-57575000D01*
X103030550Y-58215447D01*
X103029609Y-58224999D01*
X103033364Y-58263117D01*
X103044482Y-58299771D01*
X103062538Y-58333551D01*
X103062539Y-58333552D01*
X103086838Y-58363161D01*
X103094254Y-58369247D01*
X103855752Y-59130746D01*
X103861838Y-59138162D01*
X103891447Y-59162461D01*
X103925227Y-59180517D01*
X103961881Y-59191636D01*
X103990455Y-59194450D01*
X103990458Y-59194450D01*
X104000000Y-59195390D01*
X104009542Y-59194450D01*
X111390458Y-59194450D01*
X111400000Y-59195390D01*
X111409542Y-59194450D01*
X111409545Y-59194450D01*
X111438119Y-59191636D01*
X111474773Y-59180517D01*
X111508553Y-59162461D01*
X111538162Y-59138162D01*
X111544253Y-59130740D01*
X112730746Y-57944248D01*
X112738162Y-57938162D01*
X112750142Y-57923564D01*
X112762461Y-57908554D01*
X112780517Y-57874773D01*
X112791636Y-57838119D01*
X112794450Y-57809545D01*
X112794450Y-57809543D01*
X112795390Y-57800001D01*
X112794450Y-57790459D01*
X112794450Y-54745645D01*
X112795390Y-54736100D01*
X112791636Y-54697981D01*
X112780517Y-54661327D01*
X112762461Y-54627547D01*
X112746873Y-54608553D01*
X112738162Y-54597938D01*
X112730747Y-54591853D01*
X112008153Y-53869260D01*
X112002062Y-53861838D01*
X111972453Y-53837539D01*
X111956009Y-53828750D01*
X111978838Y-53822336D01*
X112076824Y-53772533D01*
X112163211Y-53704570D01*
X112234679Y-53621060D01*
X112288482Y-53525212D01*
X112322552Y-53420710D01*
X112333000Y-53343500D01*
X112193500Y-53204000D01*
X111204000Y-53204000D01*
X111204000Y-53224000D01*
X110796000Y-53224000D01*
X110796000Y-53204000D01*
X109806500Y-53204000D01*
X109667000Y-53343500D01*
X109677448Y-53420710D01*
X109711518Y-53525212D01*
X109765321Y-53621060D01*
X109836789Y-53704570D01*
X109923176Y-53772533D01*
X110021162Y-53822336D01*
X110074275Y-53837258D01*
X110074275Y-54300000D01*
X110077171Y-54329405D01*
X110085748Y-54357680D01*
X110099677Y-54383738D01*
X110118421Y-54406579D01*
X110141262Y-54425323D01*
X110167320Y-54439252D01*
X110195595Y-54447829D01*
X110225000Y-54450725D01*
X111775000Y-54450725D01*
X111804405Y-54447829D01*
X111832680Y-54439252D01*
X111858738Y-54425323D01*
X111881579Y-54406579D01*
X111900323Y-54383738D01*
X111914252Y-54357680D01*
X111921778Y-54332871D01*
X112405550Y-54816644D01*
X112405550Y-56075221D01*
X112400559Y-56070230D01*
X112339140Y-56029191D01*
X112270894Y-56000922D01*
X112198445Y-55986511D01*
X112124577Y-55986511D01*
X112052128Y-56000922D01*
X111983882Y-56029191D01*
X111950478Y-56051511D01*
X111925725Y-56051511D01*
X111925725Y-55700000D01*
X111922829Y-55670595D01*
X111914252Y-55642320D01*
X111900323Y-55616262D01*
X111881579Y-55593421D01*
X111858738Y-55574677D01*
X111832680Y-55560748D01*
X111804405Y-55552171D01*
X111775000Y-55549275D01*
X110225000Y-55549275D01*
X110195595Y-55552171D01*
X110167320Y-55560748D01*
X110141262Y-55574677D01*
X110118421Y-55593421D01*
X110099677Y-55616262D01*
X110085748Y-55642320D01*
X110077171Y-55670595D01*
X110074275Y-55700000D01*
X110074275Y-56300000D01*
X110077171Y-56329405D01*
X110085748Y-56357680D01*
X110099677Y-56383738D01*
X110118421Y-56406579D01*
X110141262Y-56425323D01*
X110167320Y-56439252D01*
X110195595Y-56447829D01*
X110225000Y-56450725D01*
X111012319Y-56450725D01*
X111131545Y-56569951D01*
X111141248Y-56581774D01*
X111153070Y-56591476D01*
X111188451Y-56620513D01*
X111242305Y-56649299D01*
X111300740Y-56667025D01*
X111361511Y-56673010D01*
X111376731Y-56671511D01*
X111950478Y-56671511D01*
X111983882Y-56693831D01*
X112052128Y-56722100D01*
X112124577Y-56736511D01*
X112198445Y-56736511D01*
X112270894Y-56722100D01*
X112339140Y-56693831D01*
X112400559Y-56652792D01*
X112405551Y-56647800D01*
X112405551Y-57719455D01*
X111319457Y-58805550D01*
X104080544Y-58805550D01*
X103419449Y-58144456D01*
X103419449Y-57434544D01*
X103420389Y-57424999D01*
X103416635Y-57386880D01*
X103405516Y-57350226D01*
X103387460Y-57316446D01*
X103369245Y-57294251D01*
X103364701Y-57288713D01*
X103375000Y-57236934D01*
X103375000Y-57163066D01*
X103360589Y-57090617D01*
X103332320Y-57022371D01*
X103291281Y-56960952D01*
X103239048Y-56908719D01*
X103177629Y-56867680D01*
X103109383Y-56839411D01*
X103036934Y-56825000D01*
X102963066Y-56825000D01*
X102890617Y-56839411D01*
X102822371Y-56867680D01*
X102760952Y-56908719D01*
X102708719Y-56960952D01*
X102667680Y-57022371D01*
X102639411Y-57090617D01*
X102625000Y-57163066D01*
X72038060Y-57163066D01*
X69294450Y-54419457D01*
X69294450Y-52663066D01*
X73625000Y-52663066D01*
X73625000Y-52736934D01*
X73639411Y-52809383D01*
X73667680Y-52877629D01*
X73708719Y-52939048D01*
X73760952Y-52991281D01*
X73822371Y-53032320D01*
X73890617Y-53060589D01*
X73963066Y-53075000D01*
X74036934Y-53075000D01*
X74089542Y-53064536D01*
X77655752Y-56630746D01*
X77661838Y-56638162D01*
X77691447Y-56662461D01*
X77725227Y-56680517D01*
X77761881Y-56691636D01*
X77800000Y-56695390D01*
X77809545Y-56694450D01*
X105478919Y-56694450D01*
X105508719Y-56739048D01*
X105560952Y-56791281D01*
X105622371Y-56832320D01*
X105690617Y-56860589D01*
X105763066Y-56875000D01*
X105836934Y-56875000D01*
X105909383Y-56860589D01*
X105977629Y-56832320D01*
X106039048Y-56791281D01*
X106091281Y-56739048D01*
X106132320Y-56677629D01*
X106160589Y-56609383D01*
X106175000Y-56536934D01*
X106175000Y-56463066D01*
X106160589Y-56390617D01*
X106132320Y-56322371D01*
X106091281Y-56260952D01*
X106039048Y-56208719D01*
X105977629Y-56167680D01*
X105909383Y-56139411D01*
X105836934Y-56125000D01*
X105763066Y-56125000D01*
X105690617Y-56139411D01*
X105622371Y-56167680D01*
X105560952Y-56208719D01*
X105508719Y-56260952D01*
X105478919Y-56305550D01*
X77880544Y-56305550D01*
X74364536Y-52789542D01*
X74375000Y-52736934D01*
X74375000Y-52663066D01*
X74360589Y-52590617D01*
X74332320Y-52522371D01*
X74291281Y-52460952D01*
X74239048Y-52408719D01*
X74177629Y-52367680D01*
X74109383Y-52339411D01*
X74036934Y-52325000D01*
X73963066Y-52325000D01*
X73890617Y-52339411D01*
X73822371Y-52367680D01*
X73760952Y-52408719D01*
X73708719Y-52460952D01*
X73667680Y-52522371D01*
X73639411Y-52590617D01*
X73625000Y-52663066D01*
X69294450Y-52663066D01*
X69294450Y-47263066D01*
X80975000Y-47263066D01*
X80975000Y-47336934D01*
X80989411Y-47409383D01*
X81017680Y-47477629D01*
X81058719Y-47539048D01*
X81110952Y-47591281D01*
X81172371Y-47632320D01*
X81240617Y-47660589D01*
X81313066Y-47675000D01*
X81386934Y-47675000D01*
X81438713Y-47664701D01*
X81450987Y-47674773D01*
X81466446Y-47687460D01*
X81500226Y-47705516D01*
X81536880Y-47716635D01*
X81563948Y-47719301D01*
X84885979Y-51041332D01*
X84822371Y-51067680D01*
X84760952Y-51108719D01*
X84708719Y-51160952D01*
X84667680Y-51222371D01*
X84639411Y-51290617D01*
X84625000Y-51363066D01*
X84625000Y-51436934D01*
X84639411Y-51509383D01*
X84667680Y-51577629D01*
X84708719Y-51639048D01*
X84760952Y-51691281D01*
X84822371Y-51732320D01*
X84890617Y-51760589D01*
X84963066Y-51775000D01*
X85036934Y-51775000D01*
X85109383Y-51760589D01*
X85177629Y-51732320D01*
X85239048Y-51691281D01*
X85291281Y-51639048D01*
X85332320Y-51577629D01*
X85358668Y-51514021D01*
X88975392Y-55130746D01*
X88981478Y-55138162D01*
X89011087Y-55162461D01*
X89044867Y-55180517D01*
X89081521Y-55191636D01*
X89110095Y-55194450D01*
X89110098Y-55194450D01*
X89119640Y-55195390D01*
X89129182Y-55194450D01*
X110074275Y-55194450D01*
X110074275Y-55300000D01*
X110077171Y-55329405D01*
X110085748Y-55357680D01*
X110099677Y-55383738D01*
X110118421Y-55406579D01*
X110141262Y-55425323D01*
X110167320Y-55439252D01*
X110195595Y-55447829D01*
X110225000Y-55450725D01*
X111775000Y-55450725D01*
X111804405Y-55447829D01*
X111832680Y-55439252D01*
X111858738Y-55425323D01*
X111881579Y-55406579D01*
X111900323Y-55383738D01*
X111914252Y-55357680D01*
X111922829Y-55329405D01*
X111925725Y-55300000D01*
X111925725Y-54700000D01*
X111922829Y-54670595D01*
X111914252Y-54642320D01*
X111900323Y-54616262D01*
X111881579Y-54593421D01*
X111858738Y-54574677D01*
X111832680Y-54560748D01*
X111804405Y-54552171D01*
X111775000Y-54549275D01*
X110225000Y-54549275D01*
X110195595Y-54552171D01*
X110167320Y-54560748D01*
X110141262Y-54574677D01*
X110118421Y-54593421D01*
X110099677Y-54616262D01*
X110085748Y-54642320D01*
X110077171Y-54670595D01*
X110074275Y-54700000D01*
X110074275Y-54805550D01*
X89200184Y-54805550D01*
X87357700Y-52963066D01*
X89425000Y-52963066D01*
X89425000Y-53036934D01*
X89439411Y-53109383D01*
X89467680Y-53177629D01*
X89508719Y-53239048D01*
X89560952Y-53291281D01*
X89622371Y-53332320D01*
X89690617Y-53360589D01*
X89763066Y-53375000D01*
X89836934Y-53375000D01*
X89909383Y-53360589D01*
X89977629Y-53332320D01*
X90039048Y-53291281D01*
X90091281Y-53239048D01*
X90132320Y-53177629D01*
X90160589Y-53109383D01*
X90163559Y-53094450D01*
X91578919Y-53094450D01*
X91608719Y-53139048D01*
X91660952Y-53191281D01*
X91722371Y-53232320D01*
X91790617Y-53260589D01*
X91863066Y-53275000D01*
X91936934Y-53275000D01*
X92009383Y-53260589D01*
X92077629Y-53232320D01*
X92139048Y-53191281D01*
X92191281Y-53139048D01*
X92232320Y-53077629D01*
X92260589Y-53009383D01*
X92275000Y-52936934D01*
X92275000Y-52863066D01*
X92260589Y-52790617D01*
X92232320Y-52722371D01*
X92191281Y-52660952D01*
X92186829Y-52656500D01*
X109667000Y-52656500D01*
X109806500Y-52796000D01*
X110796000Y-52796000D01*
X110796000Y-52281500D01*
X111204000Y-52281500D01*
X111204000Y-52796000D01*
X112193500Y-52796000D01*
X112333000Y-52656500D01*
X112322552Y-52579290D01*
X112288482Y-52474788D01*
X112234679Y-52378940D01*
X112163211Y-52295430D01*
X112076824Y-52227467D01*
X111978838Y-52177664D01*
X111873018Y-52147934D01*
X111763432Y-52139419D01*
X111343500Y-52142000D01*
X111204000Y-52281500D01*
X110796000Y-52281500D01*
X110656500Y-52142000D01*
X110236568Y-52139419D01*
X110126982Y-52147934D01*
X110021162Y-52177664D01*
X109923176Y-52227467D01*
X109836789Y-52295430D01*
X109765321Y-52378940D01*
X109711518Y-52474788D01*
X109677448Y-52579290D01*
X109667000Y-52656500D01*
X92186829Y-52656500D01*
X92139048Y-52608719D01*
X92077629Y-52567680D01*
X92009383Y-52539411D01*
X91936934Y-52525000D01*
X91863066Y-52525000D01*
X91790617Y-52539411D01*
X91722371Y-52567680D01*
X91660952Y-52608719D01*
X91608719Y-52660952D01*
X91578919Y-52705550D01*
X90034305Y-52705550D01*
X89977629Y-52667680D01*
X89909383Y-52639411D01*
X89836934Y-52625000D01*
X89763066Y-52625000D01*
X89690617Y-52639411D01*
X89622371Y-52667680D01*
X89560952Y-52708719D01*
X89508719Y-52760952D01*
X89467680Y-52822371D01*
X89439411Y-52890617D01*
X89425000Y-52963066D01*
X87357700Y-52963066D01*
X83605913Y-49211279D01*
X83609383Y-49210589D01*
X83677629Y-49182320D01*
X83739048Y-49141281D01*
X83791281Y-49089048D01*
X83832320Y-49027629D01*
X83860589Y-48959383D01*
X83875000Y-48886934D01*
X83875000Y-48813066D01*
X83860589Y-48740617D01*
X83832320Y-48672371D01*
X83791281Y-48610952D01*
X83739048Y-48558719D01*
X83677629Y-48517680D01*
X83609383Y-48489411D01*
X83536934Y-48475000D01*
X83463066Y-48475000D01*
X83390617Y-48489411D01*
X83322371Y-48517680D01*
X83260952Y-48558719D01*
X83208719Y-48610952D01*
X83167680Y-48672371D01*
X83139411Y-48740617D01*
X83138721Y-48744087D01*
X81788892Y-47394259D01*
X81782801Y-47386837D01*
X81753192Y-47362538D01*
X81723106Y-47346456D01*
X81725000Y-47336934D01*
X81725000Y-47263066D01*
X81710589Y-47190617D01*
X81682320Y-47122371D01*
X81641281Y-47060952D01*
X81589048Y-47008719D01*
X81527629Y-46967680D01*
X81459383Y-46939411D01*
X81386934Y-46925000D01*
X81313066Y-46925000D01*
X81240617Y-46939411D01*
X81172371Y-46967680D01*
X81110952Y-47008719D01*
X81058719Y-47060952D01*
X81017680Y-47122371D01*
X80989411Y-47190617D01*
X80975000Y-47263066D01*
X69294450Y-47263066D01*
X69294450Y-45513066D01*
X78825000Y-45513066D01*
X78825000Y-45586934D01*
X78839411Y-45659383D01*
X78867680Y-45727629D01*
X78908719Y-45789048D01*
X78960952Y-45841281D01*
X79022371Y-45882320D01*
X79090617Y-45910589D01*
X79163066Y-45925000D01*
X79236934Y-45925000D01*
X79309383Y-45910589D01*
X79377629Y-45882320D01*
X79439048Y-45841281D01*
X79491281Y-45789048D01*
X79521081Y-45744450D01*
X84369457Y-45744450D01*
X90855752Y-52230746D01*
X90861838Y-52238162D01*
X90891447Y-52262461D01*
X90925227Y-52280517D01*
X90961881Y-52291636D01*
X90990455Y-52294450D01*
X90990458Y-52294450D01*
X91000000Y-52295390D01*
X91009542Y-52294450D01*
X96290458Y-52294450D01*
X96300000Y-52295390D01*
X96309542Y-52294450D01*
X96309545Y-52294450D01*
X96338119Y-52291636D01*
X96374773Y-52280517D01*
X96408553Y-52262461D01*
X96438162Y-52238162D01*
X96444253Y-52230740D01*
X101874993Y-46800000D01*
X110074275Y-46800000D01*
X110074275Y-47400000D01*
X110077171Y-47429405D01*
X110085748Y-47457680D01*
X110099677Y-47483738D01*
X110118421Y-47506579D01*
X110141262Y-47525323D01*
X110167320Y-47539252D01*
X110195595Y-47547829D01*
X110225000Y-47550725D01*
X111775000Y-47550725D01*
X111804405Y-47547829D01*
X111832680Y-47539252D01*
X111858738Y-47525323D01*
X111877410Y-47510000D01*
X112288967Y-47510000D01*
X112322371Y-47532320D01*
X112390617Y-47560589D01*
X112463066Y-47575000D01*
X112536934Y-47575000D01*
X112609383Y-47560589D01*
X112677629Y-47532320D01*
X112739048Y-47491281D01*
X112791281Y-47439048D01*
X112832320Y-47377629D01*
X112860589Y-47309383D01*
X112875000Y-47236934D01*
X112875000Y-47163066D01*
X112860589Y-47090617D01*
X112832320Y-47022371D01*
X112791281Y-46960952D01*
X112739048Y-46908719D01*
X112677629Y-46867680D01*
X112609383Y-46839411D01*
X112536934Y-46825000D01*
X112463066Y-46825000D01*
X112390617Y-46839411D01*
X112322371Y-46867680D01*
X112288967Y-46890000D01*
X111925725Y-46890000D01*
X111925725Y-46800000D01*
X111922829Y-46770595D01*
X111914252Y-46742320D01*
X111900323Y-46716262D01*
X111881579Y-46693421D01*
X111858738Y-46674677D01*
X111832680Y-46660748D01*
X111804405Y-46652171D01*
X111775000Y-46649275D01*
X110225000Y-46649275D01*
X110195595Y-46652171D01*
X110167320Y-46660748D01*
X110141262Y-46674677D01*
X110118421Y-46693421D01*
X110099677Y-46716262D01*
X110085748Y-46742320D01*
X110077171Y-46770595D01*
X110074275Y-46800000D01*
X101874993Y-46800000D01*
X102030746Y-46644248D01*
X102038162Y-46638162D01*
X102062461Y-46608553D01*
X102080517Y-46574773D01*
X102091636Y-46538119D01*
X102094450Y-46509545D01*
X102094450Y-46509542D01*
X102095390Y-46500000D01*
X102094450Y-46490458D01*
X102094450Y-46294450D01*
X110074275Y-46294450D01*
X110074275Y-46400000D01*
X110077171Y-46429405D01*
X110085748Y-46457680D01*
X110099677Y-46483738D01*
X110118421Y-46506579D01*
X110141262Y-46525323D01*
X110167320Y-46539252D01*
X110195595Y-46547829D01*
X110225000Y-46550725D01*
X111775000Y-46550725D01*
X111804405Y-46547829D01*
X111832680Y-46539252D01*
X111858738Y-46525323D01*
X111881579Y-46506579D01*
X111900323Y-46483738D01*
X111914252Y-46457680D01*
X111922829Y-46429405D01*
X111925725Y-46400000D01*
X111925725Y-45800000D01*
X111922829Y-45770595D01*
X111914252Y-45742320D01*
X111900323Y-45716262D01*
X111881579Y-45693421D01*
X111858738Y-45674677D01*
X111832680Y-45660748D01*
X111804405Y-45652171D01*
X111775000Y-45649275D01*
X110225000Y-45649275D01*
X110195595Y-45652171D01*
X110167320Y-45660748D01*
X110141262Y-45674677D01*
X110118421Y-45693421D01*
X110099677Y-45716262D01*
X110085748Y-45742320D01*
X110077171Y-45770595D01*
X110074275Y-45800000D01*
X110074275Y-45905550D01*
X101909545Y-45905550D01*
X101900000Y-45904610D01*
X101890455Y-45905550D01*
X101861881Y-45908364D01*
X101825227Y-45919483D01*
X101791447Y-45937539D01*
X101761838Y-45961838D01*
X101737539Y-45991447D01*
X101719483Y-46025227D01*
X101708364Y-46061881D01*
X101704610Y-46100000D01*
X101705550Y-46109545D01*
X101705551Y-46419455D01*
X96219457Y-51905550D01*
X91080544Y-51905550D01*
X84594253Y-45419260D01*
X84588162Y-45411838D01*
X84558553Y-45387539D01*
X84524773Y-45369483D01*
X84503620Y-45363066D01*
X85425000Y-45363066D01*
X85425000Y-45436934D01*
X85439411Y-45509383D01*
X85467680Y-45577629D01*
X85508719Y-45639048D01*
X85560952Y-45691281D01*
X85622371Y-45732320D01*
X85690617Y-45760589D01*
X85763066Y-45775000D01*
X85836934Y-45775000D01*
X85909383Y-45760589D01*
X85977629Y-45732320D01*
X86039048Y-45691281D01*
X86091281Y-45639048D01*
X86121081Y-45594450D01*
X90319457Y-45594450D01*
X93355752Y-48630746D01*
X93361838Y-48638162D01*
X93391447Y-48662461D01*
X93425227Y-48680517D01*
X93461881Y-48691636D01*
X93490455Y-48694450D01*
X93490457Y-48694450D01*
X93499999Y-48695390D01*
X93509541Y-48694450D01*
X95519457Y-48694450D01*
X96255752Y-49430746D01*
X96261838Y-49438162D01*
X96291447Y-49462461D01*
X96325227Y-49480517D01*
X96361881Y-49491636D01*
X96390455Y-49494450D01*
X96390458Y-49494450D01*
X96400000Y-49495390D01*
X96409542Y-49494450D01*
X97790458Y-49494450D01*
X97800000Y-49495390D01*
X97809542Y-49494450D01*
X97809545Y-49494450D01*
X97838119Y-49491636D01*
X97874773Y-49480517D01*
X97908553Y-49462461D01*
X97938162Y-49438162D01*
X97944253Y-49430740D01*
X102080544Y-45294450D01*
X110074275Y-45294450D01*
X110074275Y-45400000D01*
X110077171Y-45429405D01*
X110085748Y-45457680D01*
X110099677Y-45483738D01*
X110118421Y-45506579D01*
X110141262Y-45525323D01*
X110167320Y-45539252D01*
X110195595Y-45547829D01*
X110225000Y-45550725D01*
X111775000Y-45550725D01*
X111804405Y-45547829D01*
X111832680Y-45539252D01*
X111858738Y-45525323D01*
X111881579Y-45506579D01*
X111900323Y-45483738D01*
X111914252Y-45457680D01*
X111922829Y-45429405D01*
X111925725Y-45400000D01*
X111925725Y-44937258D01*
X111978838Y-44922336D01*
X112076824Y-44872533D01*
X112163211Y-44804570D01*
X112234679Y-44721060D01*
X112288482Y-44625212D01*
X112322552Y-44520710D01*
X112333000Y-44443500D01*
X112193500Y-44304000D01*
X111204000Y-44304000D01*
X111204000Y-44324000D01*
X110796000Y-44324000D01*
X110796000Y-44304000D01*
X109806500Y-44304000D01*
X109667000Y-44443500D01*
X109677448Y-44520710D01*
X109711518Y-44625212D01*
X109765321Y-44721060D01*
X109836789Y-44804570D01*
X109923176Y-44872533D01*
X109988136Y-44905550D01*
X102009542Y-44905550D01*
X102000000Y-44904610D01*
X101990458Y-44905550D01*
X101990455Y-44905550D01*
X101961881Y-44908364D01*
X101925227Y-44919483D01*
X101891447Y-44937539D01*
X101861838Y-44961838D01*
X101855752Y-44969254D01*
X97719457Y-49105550D01*
X97524779Y-49105550D01*
X97541281Y-49089048D01*
X97582320Y-49027629D01*
X97610589Y-48959383D01*
X97625000Y-48886934D01*
X97625000Y-48813066D01*
X97610589Y-48740617D01*
X97582320Y-48672371D01*
X97541281Y-48610952D01*
X97489048Y-48558719D01*
X97427629Y-48517680D01*
X97359383Y-48489411D01*
X97286934Y-48475000D01*
X97213066Y-48475000D01*
X97160458Y-48485464D01*
X96744253Y-48069260D01*
X96738162Y-48061838D01*
X96708553Y-48037539D01*
X96674773Y-48019483D01*
X96638119Y-48008364D01*
X96609545Y-48005550D01*
X96609542Y-48005550D01*
X96600000Y-48004610D01*
X96590458Y-48005550D01*
X95380544Y-48005550D01*
X94894450Y-47519457D01*
X94894450Y-47509541D01*
X94895390Y-47499999D01*
X94894450Y-47490455D01*
X94891636Y-47461881D01*
X94880517Y-47425227D01*
X94862461Y-47391447D01*
X94838162Y-47361838D01*
X94830747Y-47355753D01*
X91494450Y-44019457D01*
X91494450Y-43756500D01*
X109667000Y-43756500D01*
X109806500Y-43896000D01*
X110796000Y-43896000D01*
X110796000Y-43381500D01*
X111204000Y-43381500D01*
X111204000Y-43896000D01*
X112193500Y-43896000D01*
X112333000Y-43756500D01*
X112322552Y-43679290D01*
X112288482Y-43574788D01*
X112234679Y-43478940D01*
X112163211Y-43395430D01*
X112076824Y-43327467D01*
X111978838Y-43277664D01*
X111873018Y-43247934D01*
X111763432Y-43239419D01*
X111343500Y-43242000D01*
X111204000Y-43381500D01*
X110796000Y-43381500D01*
X110656500Y-43242000D01*
X110236568Y-43239419D01*
X110126982Y-43247934D01*
X110021162Y-43277664D01*
X109923176Y-43327467D01*
X109836789Y-43395430D01*
X109765321Y-43478940D01*
X109711518Y-43574788D01*
X109677448Y-43679290D01*
X109667000Y-43756500D01*
X91494450Y-43756500D01*
X91494450Y-42971081D01*
X91539048Y-42941281D01*
X91591281Y-42889048D01*
X91632320Y-42827629D01*
X91660589Y-42759383D01*
X91675000Y-42686934D01*
X91675000Y-42613066D01*
X91660589Y-42540617D01*
X91632320Y-42472371D01*
X91591281Y-42410952D01*
X91539048Y-42358719D01*
X91477629Y-42317680D01*
X91409383Y-42289411D01*
X91336934Y-42275000D01*
X91263066Y-42275000D01*
X91190617Y-42289411D01*
X91122371Y-42317680D01*
X91060952Y-42358719D01*
X91008719Y-42410952D01*
X90967680Y-42472371D01*
X90939411Y-42540617D01*
X90925000Y-42613066D01*
X90925000Y-42686934D01*
X90939411Y-42759383D01*
X90967680Y-42827629D01*
X91008719Y-42889048D01*
X91060952Y-42941281D01*
X91105550Y-42971081D01*
X91105551Y-44090448D01*
X91104610Y-44100000D01*
X91108365Y-44138118D01*
X91119483Y-44174772D01*
X91130504Y-44195390D01*
X91137540Y-44208553D01*
X91161839Y-44238162D01*
X91169253Y-44244246D01*
X94505550Y-47580544D01*
X94505550Y-47590458D01*
X94504610Y-47600000D01*
X94505550Y-47609542D01*
X94505550Y-47609545D01*
X94508364Y-47638119D01*
X94519483Y-47674773D01*
X94537539Y-47708553D01*
X94561839Y-47738162D01*
X94569255Y-47744248D01*
X95130556Y-48305550D01*
X93580544Y-48305550D01*
X90544253Y-45269260D01*
X90538162Y-45261838D01*
X90508553Y-45237539D01*
X90474773Y-45219483D01*
X90438119Y-45208364D01*
X90409545Y-45205550D01*
X90409542Y-45205550D01*
X90400000Y-45204610D01*
X90390458Y-45205550D01*
X86121081Y-45205550D01*
X86091281Y-45160952D01*
X86039048Y-45108719D01*
X85977629Y-45067680D01*
X85909383Y-45039411D01*
X85836934Y-45025000D01*
X85763066Y-45025000D01*
X85690617Y-45039411D01*
X85622371Y-45067680D01*
X85560952Y-45108719D01*
X85508719Y-45160952D01*
X85467680Y-45222371D01*
X85439411Y-45290617D01*
X85425000Y-45363066D01*
X84503620Y-45363066D01*
X84488119Y-45358364D01*
X84459545Y-45355550D01*
X84459542Y-45355550D01*
X84450000Y-45354610D01*
X84440458Y-45355550D01*
X79521081Y-45355550D01*
X79491281Y-45310952D01*
X79439048Y-45258719D01*
X79377629Y-45217680D01*
X79309383Y-45189411D01*
X79236934Y-45175000D01*
X79163066Y-45175000D01*
X79090617Y-45189411D01*
X79022371Y-45217680D01*
X78960952Y-45258719D01*
X78908719Y-45310952D01*
X78867680Y-45372371D01*
X78839411Y-45440617D01*
X78825000Y-45513066D01*
X69294450Y-45513066D01*
X69294450Y-43321081D01*
X69339048Y-43291281D01*
X69391281Y-43239048D01*
X69432320Y-43177629D01*
X69460589Y-43109383D01*
X69475000Y-43036934D01*
X69475000Y-42963066D01*
X69464536Y-42910458D01*
X70874994Y-41500000D01*
X89723670Y-41500000D01*
X89725001Y-41513513D01*
X89725000Y-43636497D01*
X89723670Y-43650000D01*
X89728980Y-43703909D01*
X89730389Y-43708553D01*
X89744704Y-43755746D01*
X89770240Y-43803521D01*
X89804605Y-43845395D01*
X89815100Y-43854008D01*
X93675000Y-47713909D01*
X93675000Y-47736934D01*
X93689411Y-47809383D01*
X93717680Y-47877629D01*
X93758719Y-47939048D01*
X93810952Y-47991281D01*
X93872371Y-48032320D01*
X93940617Y-48060589D01*
X94013066Y-48075000D01*
X94086934Y-48075000D01*
X94159383Y-48060589D01*
X94227629Y-48032320D01*
X94289048Y-47991281D01*
X94341281Y-47939048D01*
X94382320Y-47877629D01*
X94410589Y-47809383D01*
X94425000Y-47736934D01*
X94425000Y-47663066D01*
X94410589Y-47590617D01*
X94382320Y-47522371D01*
X94341281Y-47460952D01*
X94289048Y-47408719D01*
X94227629Y-47367680D01*
X94159383Y-47339411D01*
X94086934Y-47325000D01*
X94063909Y-47325000D01*
X90275000Y-43536092D01*
X90275000Y-41613908D01*
X92413908Y-39475000D01*
X92436934Y-39475000D01*
X92509383Y-39460589D01*
X92577629Y-39432320D01*
X92639048Y-39391281D01*
X92691281Y-39339048D01*
X92732320Y-39277629D01*
X92760589Y-39209383D01*
X92775000Y-39136934D01*
X92775000Y-39063066D01*
X92760589Y-38990617D01*
X92732320Y-38922371D01*
X92691281Y-38860952D01*
X92639048Y-38808719D01*
X92577629Y-38767680D01*
X92509383Y-38739411D01*
X92436934Y-38725000D01*
X92363066Y-38725000D01*
X92290617Y-38739411D01*
X92222371Y-38767680D01*
X92160952Y-38808719D01*
X92108719Y-38860952D01*
X92067680Y-38922371D01*
X92039411Y-38990617D01*
X92025000Y-39063066D01*
X92025000Y-39086092D01*
X89815095Y-41295997D01*
X89804606Y-41304605D01*
X89770241Y-41346479D01*
X89762505Y-41360952D01*
X89744705Y-41394253D01*
X89728980Y-41446091D01*
X89723670Y-41500000D01*
X70874994Y-41500000D01*
X74730746Y-37644248D01*
X74738162Y-37638162D01*
X74762461Y-37608553D01*
X74780517Y-37574773D01*
X74791636Y-37538119D01*
X74794450Y-37509545D01*
X74795390Y-37500000D01*
X74794450Y-37490455D01*
X74794450Y-34621081D01*
X74839048Y-34591281D01*
X74891281Y-34539048D01*
X74932320Y-34477629D01*
X74960589Y-34409383D01*
X74975000Y-34336934D01*
X74975000Y-34263066D01*
X74960589Y-34190617D01*
X74938006Y-34136099D01*
X94297694Y-34136099D01*
X94590000Y-34428407D01*
X94590001Y-38688965D01*
X94567680Y-38722371D01*
X94539411Y-38790617D01*
X94531573Y-38830020D01*
X92530022Y-40831573D01*
X92490617Y-40839411D01*
X92422371Y-40867680D01*
X92360952Y-40908719D01*
X92308719Y-40960952D01*
X92267680Y-41022371D01*
X92239411Y-41090617D01*
X92225000Y-41163066D01*
X92225000Y-41236934D01*
X92239411Y-41309383D01*
X92267680Y-41377629D01*
X92308719Y-41439048D01*
X92360952Y-41491281D01*
X92422371Y-41532320D01*
X92490617Y-41560589D01*
X92563066Y-41575000D01*
X92636934Y-41575000D01*
X92709383Y-41560589D01*
X92777629Y-41532320D01*
X92839048Y-41491281D01*
X92891281Y-41439048D01*
X92932320Y-41377629D01*
X92960589Y-41309383D01*
X92968427Y-41269978D01*
X94969980Y-39268427D01*
X95009383Y-39260589D01*
X95077629Y-39232320D01*
X95139048Y-39191281D01*
X95191281Y-39139048D01*
X95232320Y-39077629D01*
X95260589Y-39009383D01*
X95275000Y-38936934D01*
X95275000Y-38863066D01*
X95260589Y-38790617D01*
X95232320Y-38722371D01*
X95210000Y-38688967D01*
X95210000Y-34837489D01*
X111350000Y-34837489D01*
X111350000Y-35162511D01*
X111413408Y-35481287D01*
X111537789Y-35781568D01*
X111718361Y-36051814D01*
X111948186Y-36281639D01*
X112218432Y-36462211D01*
X112518713Y-36586592D01*
X112837489Y-36650000D01*
X113162511Y-36650000D01*
X113481287Y-36586592D01*
X113781568Y-36462211D01*
X114051814Y-36281639D01*
X114281639Y-36051814D01*
X114462211Y-35781568D01*
X114586592Y-35481287D01*
X114650000Y-35162511D01*
X114650000Y-34837489D01*
X114586592Y-34518713D01*
X114462211Y-34218432D01*
X114281639Y-33948186D01*
X114051814Y-33718361D01*
X113781568Y-33537789D01*
X113481287Y-33413408D01*
X113162511Y-33350000D01*
X112837489Y-33350000D01*
X112518713Y-33413408D01*
X112218432Y-33537789D01*
X111948186Y-33718361D01*
X111718361Y-33948186D01*
X111537789Y-34218432D01*
X111413408Y-34518713D01*
X111350000Y-34837489D01*
X95210000Y-34837489D01*
X95210000Y-34610000D01*
X96384790Y-34610000D01*
X96400000Y-34611498D01*
X96415210Y-34610000D01*
X96415220Y-34610000D01*
X96460770Y-34605514D01*
X96519206Y-34587788D01*
X96573060Y-34559002D01*
X96620263Y-34520263D01*
X96629970Y-34508435D01*
X96769978Y-34368427D01*
X96809383Y-34360589D01*
X96877629Y-34332320D01*
X96939048Y-34291281D01*
X96991281Y-34239048D01*
X97032320Y-34177629D01*
X97060589Y-34109383D01*
X97075000Y-34036934D01*
X97075000Y-33963066D01*
X97060589Y-33890617D01*
X97032320Y-33822371D01*
X96991281Y-33760952D01*
X96939048Y-33708719D01*
X96877629Y-33667680D01*
X96809383Y-33639411D01*
X96736934Y-33625000D01*
X96663066Y-33625000D01*
X96590617Y-33639411D01*
X96522371Y-33667680D01*
X96460952Y-33708719D01*
X96408719Y-33760952D01*
X96367680Y-33822371D01*
X96339411Y-33890617D01*
X96331573Y-33930022D01*
X96271595Y-33990000D01*
X95028407Y-33990000D01*
X94656069Y-33617664D01*
X94646362Y-33605836D01*
X94599159Y-33567097D01*
X94545305Y-33538311D01*
X94486869Y-33520585D01*
X94441319Y-33516099D01*
X94441309Y-33516099D01*
X94426099Y-33514601D01*
X94410889Y-33516099D01*
X74189111Y-33516099D01*
X74173900Y-33514601D01*
X74158690Y-33516099D01*
X74158681Y-33516099D01*
X74113131Y-33520585D01*
X74054695Y-33538311D01*
X74000841Y-33567097D01*
X73953638Y-33605836D01*
X73943934Y-33617660D01*
X73791560Y-33770034D01*
X73779738Y-33779737D01*
X73770035Y-33791560D01*
X73740999Y-33826940D01*
X73712212Y-33880795D01*
X73694487Y-33939230D01*
X73688502Y-34000000D01*
X73690001Y-34015220D01*
X73690000Y-36348700D01*
X73478701Y-36560000D01*
X73474612Y-36560000D01*
X73404888Y-36455649D01*
X73314351Y-36365112D01*
X73207890Y-36293978D01*
X73103470Y-36250725D01*
X73400000Y-36250725D01*
X73429405Y-36247829D01*
X73457680Y-36239252D01*
X73483738Y-36225323D01*
X73506579Y-36206579D01*
X73525323Y-36183738D01*
X73539252Y-36157680D01*
X73547829Y-36129405D01*
X73550725Y-36100000D01*
X73550725Y-35100000D01*
X73547829Y-35070595D01*
X73539252Y-35042320D01*
X73525323Y-35016262D01*
X73506579Y-34993421D01*
X73483738Y-34974677D01*
X73457680Y-34960748D01*
X73429405Y-34952171D01*
X73400000Y-34949275D01*
X72400000Y-34949275D01*
X72370595Y-34952171D01*
X72342320Y-34960748D01*
X72316262Y-34974677D01*
X72293421Y-34993421D01*
X72274677Y-35016262D01*
X72260748Y-35042320D01*
X72252171Y-35070595D01*
X72249275Y-35100000D01*
X72249275Y-35396530D01*
X72206022Y-35292110D01*
X72134888Y-35185649D01*
X72044351Y-35095112D01*
X71937890Y-35023978D01*
X71819598Y-34974979D01*
X71694019Y-34950000D01*
X71565981Y-34950000D01*
X71440402Y-34974979D01*
X71322110Y-35023978D01*
X71215649Y-35095112D01*
X71125112Y-35185649D01*
X71053978Y-35292110D01*
X71004979Y-35410402D01*
X70995000Y-35460570D01*
X70985021Y-35410402D01*
X70936022Y-35292110D01*
X70864888Y-35185649D01*
X70774351Y-35095112D01*
X70667890Y-35023978D01*
X70549598Y-34974979D01*
X70424019Y-34950000D01*
X70295981Y-34950000D01*
X70170402Y-34974979D01*
X70052110Y-35023978D01*
X69945649Y-35095112D01*
X69855112Y-35185649D01*
X69783978Y-35292110D01*
X69736989Y-35405550D01*
X63709541Y-35405550D01*
X63699999Y-35404610D01*
X63690457Y-35405550D01*
X63690455Y-35405550D01*
X63661881Y-35408364D01*
X63625227Y-35419483D01*
X63591447Y-35437539D01*
X63561838Y-35461838D01*
X63555747Y-35469260D01*
X61469255Y-37555752D01*
X61461839Y-37561838D01*
X61455754Y-37569253D01*
X61437539Y-37591448D01*
X61419483Y-37625228D01*
X61408365Y-37661882D01*
X61404610Y-37700000D01*
X61405551Y-37709552D01*
X61405550Y-39878919D01*
X61360952Y-39908719D01*
X61308719Y-39960952D01*
X61267680Y-40022371D01*
X61239411Y-40090617D01*
X61225000Y-40163066D01*
X55200000Y-40163066D01*
X55200000Y-34837489D01*
X56350000Y-34837489D01*
X56350000Y-35162511D01*
X56413408Y-35481287D01*
X56537789Y-35781568D01*
X56718361Y-36051814D01*
X56948186Y-36281639D01*
X57218432Y-36462211D01*
X57518713Y-36586592D01*
X57837489Y-36650000D01*
X58162511Y-36650000D01*
X58481287Y-36586592D01*
X58781568Y-36462211D01*
X59051814Y-36281639D01*
X59281639Y-36051814D01*
X59462211Y-35781568D01*
X59586592Y-35481287D01*
X59650000Y-35162511D01*
X59650000Y-34837489D01*
X59586592Y-34518713D01*
X59462211Y-34218432D01*
X59281639Y-33948186D01*
X59051814Y-33718361D01*
X58781568Y-33537789D01*
X58481287Y-33413408D01*
X58162511Y-33350000D01*
X57837489Y-33350000D01*
X57518713Y-33413408D01*
X57218432Y-33537789D01*
X56948186Y-33718361D01*
X56718361Y-33948186D01*
X56537789Y-34218432D01*
X56413408Y-34518713D01*
X56350000Y-34837489D01*
X55200000Y-34837489D01*
X55200000Y-32200000D01*
X115800001Y-32200000D01*
X115800000Y-32990183D01*
G37*
X115800000Y-32990183D02*
X115800000Y-41641762D01*
X115775000Y-41639300D01*
X115218500Y-41642000D01*
X115079000Y-41781500D01*
X115079000Y-42596000D01*
X115800000Y-42596000D01*
X115800000Y-43004000D01*
X115079000Y-43004000D01*
X115079000Y-43818500D01*
X115218500Y-43958000D01*
X115775000Y-43960700D01*
X115800000Y-43958238D01*
X115800000Y-47241762D01*
X115775000Y-47239300D01*
X115218500Y-47242000D01*
X115079000Y-47381500D01*
X115079000Y-48196000D01*
X115800000Y-48196000D01*
X115800000Y-48604000D01*
X115079000Y-48604000D01*
X115079000Y-49418500D01*
X115218500Y-49558000D01*
X115775000Y-49560700D01*
X115800000Y-49558238D01*
X115800001Y-50541762D01*
X115775000Y-50539300D01*
X115218500Y-50542000D01*
X115079000Y-50681500D01*
X115079000Y-51496000D01*
X115800001Y-51496000D01*
X115800001Y-51904000D01*
X115079000Y-51904000D01*
X115079000Y-52718500D01*
X115218500Y-52858000D01*
X115775000Y-52860700D01*
X115800001Y-52858238D01*
X115800001Y-56141762D01*
X115775000Y-56139300D01*
X115218500Y-56142000D01*
X115079000Y-56281500D01*
X115079000Y-57096000D01*
X115800001Y-57096000D01*
X115800001Y-57504000D01*
X115079000Y-57504000D01*
X115079000Y-58318500D01*
X115218500Y-58458000D01*
X115775000Y-58460700D01*
X115800001Y-58458238D01*
X115800001Y-67800000D01*
X94050000Y-67800000D01*
X94050000Y-64600510D01*
X106449785Y-64600510D01*
X106449785Y-66599490D01*
X106452681Y-66628895D01*
X106461258Y-66657170D01*
X106475187Y-66683228D01*
X106493931Y-66706069D01*
X106516772Y-66724813D01*
X106542830Y-66738742D01*
X106571105Y-66747319D01*
X106600510Y-66750215D01*
X108599490Y-66750215D01*
X108628895Y-66747319D01*
X108657170Y-66738742D01*
X108683228Y-66724813D01*
X108706069Y-66706069D01*
X108724813Y-66683228D01*
X108738742Y-66657170D01*
X108747319Y-66628895D01*
X108750215Y-66599490D01*
X108750215Y-64837489D01*
X111350000Y-64837489D01*
X111350000Y-65162511D01*
X111413408Y-65481287D01*
X111537789Y-65781568D01*
X111718361Y-66051814D01*
X111948186Y-66281639D01*
X112218432Y-66462211D01*
X112518713Y-66586592D01*
X112837489Y-66650000D01*
X113162511Y-66650000D01*
X113481287Y-66586592D01*
X113781568Y-66462211D01*
X114051814Y-66281639D01*
X114281639Y-66051814D01*
X114462211Y-65781568D01*
X114586592Y-65481287D01*
X114650000Y-65162511D01*
X114650000Y-64837489D01*
X114586592Y-64518713D01*
X114462211Y-64218432D01*
X114281639Y-63948186D01*
X114051814Y-63718361D01*
X113781568Y-63537789D01*
X113481287Y-63413408D01*
X113162511Y-63350000D01*
X112837489Y-63350000D01*
X112518713Y-63413408D01*
X112218432Y-63537789D01*
X111948186Y-63718361D01*
X111718361Y-63948186D01*
X111537789Y-64218432D01*
X111413408Y-64518713D01*
X111350000Y-64837489D01*
X108750215Y-64837489D01*
X108750215Y-64600510D01*
X108747319Y-64571105D01*
X108738742Y-64542830D01*
X108724813Y-64516772D01*
X108706069Y-64493931D01*
X108683228Y-64475187D01*
X108657170Y-64461258D01*
X108628895Y-64452681D01*
X108599490Y-64449785D01*
X108088620Y-64449785D01*
X113608440Y-58929966D01*
X113620263Y-58920263D01*
X113659002Y-58873060D01*
X113687788Y-58819206D01*
X113705514Y-58760770D01*
X113710000Y-58715220D01*
X113711499Y-58700000D01*
X113710000Y-58684780D01*
X113710000Y-58391064D01*
X113760429Y-58418019D01*
X113865613Y-58449926D01*
X113975000Y-58460700D01*
X114531500Y-58458000D01*
X114671000Y-58318500D01*
X114671000Y-57504000D01*
X114651000Y-57504000D01*
X114651000Y-57096000D01*
X114671000Y-57096000D01*
X114671000Y-56281500D01*
X114531500Y-56142000D01*
X113975000Y-56139300D01*
X113865613Y-56150074D01*
X113760429Y-56181981D01*
X113710000Y-56208936D01*
X113710000Y-52791064D01*
X113760429Y-52818019D01*
X113865613Y-52849926D01*
X113975000Y-52860700D01*
X114531500Y-52858000D01*
X114671000Y-52718500D01*
X114671000Y-51904000D01*
X114651000Y-51904000D01*
X114651000Y-51496000D01*
X114671000Y-51496000D01*
X114671000Y-50681500D01*
X114531500Y-50542000D01*
X113975000Y-50539300D01*
X113865613Y-50550074D01*
X113760429Y-50581981D01*
X113710000Y-50608936D01*
X113710000Y-49491064D01*
X113760429Y-49518019D01*
X113865613Y-49549926D01*
X113975000Y-49560700D01*
X114531500Y-49558000D01*
X114671000Y-49418500D01*
X114671000Y-48604000D01*
X114651000Y-48604000D01*
X114651000Y-48196000D01*
X114671000Y-48196000D01*
X114671000Y-47381500D01*
X114531500Y-47242000D01*
X113975000Y-47239300D01*
X113865613Y-47250074D01*
X113760429Y-47281981D01*
X113710000Y-47308936D01*
X113710000Y-43891064D01*
X113760429Y-43918019D01*
X113865613Y-43949926D01*
X113975000Y-43960700D01*
X114531500Y-43958000D01*
X114671000Y-43818500D01*
X114671000Y-43004000D01*
X113556500Y-43004000D01*
X113417000Y-43143500D01*
X113414551Y-43376145D01*
X112238406Y-42200000D01*
X113414300Y-42200000D01*
X113417000Y-42456500D01*
X113556500Y-42596000D01*
X114671000Y-42596000D01*
X114671000Y-41781500D01*
X114531500Y-41642000D01*
X113975000Y-41639300D01*
X113865613Y-41650074D01*
X113760429Y-41681981D01*
X113663492Y-41733795D01*
X113578525Y-41803525D01*
X113508795Y-41888492D01*
X113456981Y-41985429D01*
X113425074Y-42090613D01*
X113414300Y-42200000D01*
X112238406Y-42200000D01*
X110179971Y-40141566D01*
X110170263Y-40129737D01*
X110123060Y-40090998D01*
X110069206Y-40062212D01*
X110010770Y-40044486D01*
X109965220Y-40040000D01*
X109965210Y-40040000D01*
X109950000Y-40038502D01*
X109934790Y-40040000D01*
X109511033Y-40040000D01*
X109477629Y-40017680D01*
X109409383Y-39989411D01*
X109336934Y-39975000D01*
X109263066Y-39975000D01*
X109190617Y-39989411D01*
X109122371Y-40017680D01*
X109060952Y-40058719D01*
X109008719Y-40110952D01*
X108967680Y-40172371D01*
X108939411Y-40240617D01*
X108925000Y-40313066D01*
X108925000Y-40386934D01*
X108939411Y-40459383D01*
X108967680Y-40527629D01*
X109008719Y-40589048D01*
X109060952Y-40641281D01*
X109122371Y-40682320D01*
X109190617Y-40710589D01*
X109263066Y-40725000D01*
X109336934Y-40725000D01*
X109409383Y-40710589D01*
X109477629Y-40682320D01*
X109511033Y-40660000D01*
X109821595Y-40660000D01*
X110399282Y-41237687D01*
X110390617Y-41239411D01*
X110322371Y-41267680D01*
X110260952Y-41308719D01*
X110208719Y-41360952D01*
X110167680Y-41422371D01*
X110139411Y-41490617D01*
X110125000Y-41563066D01*
X110125000Y-41636934D01*
X110139411Y-41709383D01*
X110167680Y-41777629D01*
X110208719Y-41839048D01*
X110260952Y-41891281D01*
X110322371Y-41932320D01*
X110390617Y-41960589D01*
X110463066Y-41975000D01*
X110536934Y-41975000D01*
X110609383Y-41960589D01*
X110677629Y-41932320D01*
X110739048Y-41891281D01*
X110791281Y-41839048D01*
X110832320Y-41777629D01*
X110860589Y-41709383D01*
X110862313Y-41700718D01*
X113090000Y-43928406D01*
X113090001Y-58571593D01*
X107391566Y-64270029D01*
X107379737Y-64279737D01*
X107340998Y-64326941D01*
X107312212Y-64380795D01*
X107294486Y-64439231D01*
X107293447Y-64449785D01*
X106600510Y-64449785D01*
X106571105Y-64452681D01*
X106542830Y-64461258D01*
X106516772Y-64475187D01*
X106493931Y-64493931D01*
X106475187Y-64516772D01*
X106461258Y-64542830D01*
X106452681Y-64571105D01*
X106449785Y-64600510D01*
X94050000Y-64600510D01*
X94050000Y-62931874D01*
X106746625Y-62931874D01*
X106852989Y-63165239D01*
X107135639Y-63284548D01*
X107436133Y-63346423D01*
X107742925Y-63348486D01*
X108044224Y-63290657D01*
X108328452Y-63175159D01*
X108347011Y-63165239D01*
X108453375Y-62931874D01*
X107600000Y-62078500D01*
X106746625Y-62931874D01*
X94050000Y-62931874D01*
X94050000Y-61932925D01*
X106041514Y-61932925D01*
X106099343Y-62234224D01*
X106214841Y-62518452D01*
X106224761Y-62537011D01*
X106458126Y-62643375D01*
X107311500Y-61790000D01*
X107888500Y-61790000D01*
X108741874Y-62643375D01*
X108975239Y-62537011D01*
X109094548Y-62254361D01*
X109156423Y-61953867D01*
X109158486Y-61647075D01*
X109100657Y-61345776D01*
X108985159Y-61061548D01*
X108975239Y-61042989D01*
X108741874Y-60936625D01*
X107888500Y-61790000D01*
X107311500Y-61790000D01*
X106458126Y-60936625D01*
X106224761Y-61042989D01*
X106105452Y-61325639D01*
X106043577Y-61626133D01*
X106041514Y-61932925D01*
X94050000Y-61932925D01*
X94050000Y-61000000D01*
X94049039Y-60990245D01*
X94046194Y-60980866D01*
X94041573Y-60972221D01*
X94035355Y-60964645D01*
X94027779Y-60958427D01*
X94019134Y-60953806D01*
X94009755Y-60950961D01*
X94000000Y-60950000D01*
X65000000Y-60950000D01*
X64990245Y-60950961D01*
X64980866Y-60953806D01*
X64972221Y-60958427D01*
X64964645Y-60964645D01*
X64958427Y-60972221D01*
X64953806Y-60980866D01*
X64950961Y-60990245D01*
X64950000Y-61000000D01*
X64950000Y-67800000D01*
X55200000Y-67800000D01*
X55200000Y-64837489D01*
X56350000Y-64837489D01*
X56350000Y-65162511D01*
X56413408Y-65481287D01*
X56537789Y-65781568D01*
X56718361Y-66051814D01*
X56948186Y-66281639D01*
X57218432Y-66462211D01*
X57518713Y-66586592D01*
X57837489Y-66650000D01*
X58162511Y-66650000D01*
X58481287Y-66586592D01*
X58781568Y-66462211D01*
X59051814Y-66281639D01*
X59281639Y-66051814D01*
X59462211Y-65781568D01*
X59586592Y-65481287D01*
X59650000Y-65162511D01*
X59650000Y-64837489D01*
X59586592Y-64518713D01*
X59462211Y-64218432D01*
X59281639Y-63948186D01*
X59051814Y-63718361D01*
X58781568Y-63537789D01*
X58481287Y-63413408D01*
X58162511Y-63350000D01*
X57837489Y-63350000D01*
X57518713Y-63413408D01*
X57218432Y-63537789D01*
X56948186Y-63718361D01*
X56718361Y-63948186D01*
X56537789Y-64218432D01*
X56413408Y-64518713D01*
X56350000Y-64837489D01*
X55200000Y-64837489D01*
X55200000Y-60648126D01*
X106746625Y-60648126D01*
X107600000Y-61501500D01*
X108453375Y-60648126D01*
X108347011Y-60414761D01*
X108064361Y-60295452D01*
X107763867Y-60233577D01*
X107457075Y-60231514D01*
X107155776Y-60289343D01*
X106871548Y-60404841D01*
X106852989Y-60414761D01*
X106746625Y-60648126D01*
X55200000Y-60648126D01*
X55200000Y-59809794D01*
X55207630Y-59823869D01*
X55342586Y-59986358D01*
X55506649Y-60119397D01*
X55693514Y-60217872D01*
X55896000Y-60278000D01*
X56396000Y-60278000D01*
X56396000Y-59424000D01*
X56804000Y-59424000D01*
X56804000Y-60278000D01*
X57304000Y-60278000D01*
X57506486Y-60217872D01*
X57693351Y-60119397D01*
X57857414Y-59986358D01*
X57992370Y-59823869D01*
X58093032Y-59638173D01*
X58093421Y-59587874D01*
X59236394Y-59587874D01*
X59241182Y-59652062D01*
X59344953Y-59841546D01*
X59483697Y-60007145D01*
X59652082Y-60142494D01*
X59843637Y-60242392D01*
X60051000Y-60303000D01*
X60576000Y-60303000D01*
X60576000Y-59424000D01*
X60984000Y-59424000D01*
X60984000Y-60303000D01*
X61509000Y-60303000D01*
X61716363Y-60242392D01*
X61907918Y-60142494D01*
X62076303Y-60007145D01*
X62215047Y-59841546D01*
X62318818Y-59652062D01*
X62323606Y-59587874D01*
X62226182Y-59424000D01*
X60984000Y-59424000D01*
X60576000Y-59424000D01*
X59333818Y-59424000D01*
X59236394Y-59587874D01*
X58093421Y-59587874D01*
X58093452Y-59583890D01*
X57995559Y-59424000D01*
X56804000Y-59424000D01*
X56396000Y-59424000D01*
X56376000Y-59424000D01*
X56376000Y-59016000D01*
X56396000Y-59016000D01*
X56396000Y-58162000D01*
X56804000Y-58162000D01*
X56804000Y-59016000D01*
X57995559Y-59016000D01*
X58093452Y-58856110D01*
X58093422Y-58852126D01*
X59236394Y-58852126D01*
X59333818Y-59016000D01*
X60576000Y-59016000D01*
X60576000Y-58163496D01*
X60582795Y-58158956D01*
X60604751Y-58137000D01*
X60984000Y-58137000D01*
X60984000Y-59016000D01*
X62226182Y-59016000D01*
X62323606Y-58852126D01*
X62318818Y-58787938D01*
X62215047Y-58598454D01*
X62076303Y-58432855D01*
X61907918Y-58297506D01*
X61716363Y-58197608D01*
X61509000Y-58137000D01*
X60984000Y-58137000D01*
X60604751Y-58137000D01*
X60648956Y-58092795D01*
X60700939Y-58014997D01*
X60736746Y-57928552D01*
X60755000Y-57836783D01*
X60755000Y-57743217D01*
X60736746Y-57651448D01*
X60700939Y-57565003D01*
X60648956Y-57487205D01*
X60582795Y-57421044D01*
X60504997Y-57369061D01*
X60418552Y-57333254D01*
X60326783Y-57315000D01*
X60233217Y-57315000D01*
X60141448Y-57333254D01*
X60055003Y-57369061D01*
X59977205Y-57421044D01*
X59911044Y-57487205D01*
X59859061Y-57565003D01*
X59823254Y-57651448D01*
X59805000Y-57743217D01*
X59805000Y-57836783D01*
X59823254Y-57928552D01*
X59859061Y-58014997D01*
X59911044Y-58092795D01*
X59976905Y-58158656D01*
X59843637Y-58197608D01*
X59652082Y-58297506D01*
X59483697Y-58432855D01*
X59344953Y-58598454D01*
X59241182Y-58787938D01*
X59236394Y-58852126D01*
X58093422Y-58852126D01*
X58093032Y-58801827D01*
X57992370Y-58616131D01*
X57857414Y-58453642D01*
X57693351Y-58320603D01*
X57506486Y-58222128D01*
X57304000Y-58162000D01*
X56804000Y-58162000D01*
X56396000Y-58162000D01*
X55896000Y-58162000D01*
X55693514Y-58222128D01*
X55506649Y-58320603D01*
X55342586Y-58453642D01*
X55207630Y-58616131D01*
X55200000Y-58630206D01*
X55200000Y-51169794D01*
X55207630Y-51183869D01*
X55342586Y-51346358D01*
X55506649Y-51479397D01*
X55693514Y-51577872D01*
X55896000Y-51638000D01*
X56396000Y-51638000D01*
X56396000Y-50784000D01*
X56804000Y-50784000D01*
X56804000Y-51638000D01*
X57304000Y-51638000D01*
X57506486Y-51577872D01*
X57693351Y-51479397D01*
X57857414Y-51346358D01*
X57992370Y-51183869D01*
X58093032Y-50998173D01*
X58093452Y-50943890D01*
X57995559Y-50784000D01*
X56804000Y-50784000D01*
X56396000Y-50784000D01*
X56376000Y-50784000D01*
X56376000Y-50376000D01*
X56396000Y-50376000D01*
X56396000Y-49522000D01*
X56804000Y-49522000D01*
X56804000Y-50376000D01*
X57995559Y-50376000D01*
X58093452Y-50216110D01*
X58093032Y-50161827D01*
X57992370Y-49976131D01*
X57857414Y-49813642D01*
X57693351Y-49680603D01*
X57506486Y-49582128D01*
X57304000Y-49522000D01*
X56804000Y-49522000D01*
X56396000Y-49522000D01*
X55896000Y-49522000D01*
X55693514Y-49582128D01*
X55506649Y-49680603D01*
X55342586Y-49813642D01*
X55207630Y-49976131D01*
X55200000Y-49990206D01*
X55200000Y-42763066D01*
X56625000Y-42763066D01*
X56625000Y-42836934D01*
X56639411Y-42909383D01*
X56667680Y-42977629D01*
X56708719Y-43039048D01*
X56760952Y-43091281D01*
X56805550Y-43121081D01*
X56805551Y-43590448D01*
X56804610Y-43600000D01*
X56808365Y-43638118D01*
X56819483Y-43674772D01*
X56837539Y-43708552D01*
X56837540Y-43708553D01*
X56861839Y-43738162D01*
X56869255Y-43744248D01*
X57305550Y-44180544D01*
X57305551Y-49090448D01*
X57304610Y-49100000D01*
X57308365Y-49138118D01*
X57319483Y-49174772D01*
X57328397Y-49191448D01*
X57337540Y-49208553D01*
X57361839Y-49238162D01*
X57369255Y-49244248D01*
X58205550Y-50080544D01*
X58205550Y-50209544D01*
X58205551Y-50209554D01*
X58205550Y-55478919D01*
X58160952Y-55508719D01*
X58108719Y-55560952D01*
X58067680Y-55622371D01*
X58039411Y-55690617D01*
X58025000Y-55763066D01*
X58025000Y-55836934D01*
X58039411Y-55909383D01*
X58067680Y-55977629D01*
X58108719Y-56039048D01*
X58160952Y-56091281D01*
X58222371Y-56132320D01*
X58290617Y-56160589D01*
X58363066Y-56175000D01*
X58436934Y-56175000D01*
X58509383Y-56160589D01*
X58577629Y-56132320D01*
X58639048Y-56091281D01*
X58691281Y-56039048D01*
X58732320Y-55977629D01*
X58760589Y-55909383D01*
X58775000Y-55836934D01*
X58775000Y-55763066D01*
X58760589Y-55690617D01*
X58732320Y-55622371D01*
X58691281Y-55560952D01*
X58639048Y-55508719D01*
X58594450Y-55478919D01*
X58594450Y-50009541D01*
X58595390Y-49999999D01*
X58594450Y-49990455D01*
X58591636Y-49961881D01*
X58580517Y-49925227D01*
X58572048Y-49909383D01*
X58562461Y-49891446D01*
X58544246Y-49869252D01*
X58538162Y-49861838D01*
X58530747Y-49855753D01*
X57694450Y-49019457D01*
X57694450Y-48369443D01*
X58905550Y-49580544D01*
X58905551Y-53090448D01*
X58904610Y-53100000D01*
X58908365Y-53138118D01*
X58919483Y-53174772D01*
X58928497Y-53191635D01*
X58937540Y-53208553D01*
X58961839Y-53238162D01*
X58969255Y-53244248D01*
X59135464Y-53410457D01*
X59125000Y-53463066D01*
X59125000Y-53536934D01*
X59139411Y-53609383D01*
X59167680Y-53677629D01*
X59208719Y-53739048D01*
X59260952Y-53791281D01*
X59322371Y-53832320D01*
X59390617Y-53860589D01*
X59463066Y-53875000D01*
X59536934Y-53875000D01*
X59609383Y-53860589D01*
X59677629Y-53832320D01*
X59739048Y-53791281D01*
X59791281Y-53739048D01*
X59832320Y-53677629D01*
X59860589Y-53609383D01*
X59875000Y-53536934D01*
X59875000Y-53463066D01*
X59860589Y-53390617D01*
X59832320Y-53322371D01*
X59791281Y-53260952D01*
X59739048Y-53208719D01*
X59677629Y-53167680D01*
X59609383Y-53139411D01*
X59536934Y-53125000D01*
X59463066Y-53125000D01*
X59410457Y-53135464D01*
X59294450Y-53019457D01*
X59294450Y-51109328D01*
X59344953Y-51201546D01*
X59483697Y-51367145D01*
X59652082Y-51502494D01*
X59843637Y-51602392D01*
X59976905Y-51641344D01*
X59911044Y-51707205D01*
X59859061Y-51785003D01*
X59823254Y-51871448D01*
X59805000Y-51963217D01*
X59805000Y-52056783D01*
X59823254Y-52148552D01*
X59859061Y-52234997D01*
X59911044Y-52312795D01*
X59977205Y-52378956D01*
X60055003Y-52430939D01*
X60141448Y-52466746D01*
X60233217Y-52485000D01*
X60326783Y-52485000D01*
X60418552Y-52466746D01*
X60504997Y-52430939D01*
X60582795Y-52378956D01*
X60648956Y-52312795D01*
X60700939Y-52234997D01*
X60736746Y-52148552D01*
X60755000Y-52056783D01*
X60755000Y-51963217D01*
X60736746Y-51871448D01*
X60700939Y-51785003D01*
X60648956Y-51707205D01*
X60582795Y-51641044D01*
X60576000Y-51636504D01*
X60576000Y-50784000D01*
X60984000Y-50784000D01*
X60984000Y-51663000D01*
X61509000Y-51663000D01*
X61716363Y-51602392D01*
X61907918Y-51502494D01*
X62076303Y-51367145D01*
X62215047Y-51201546D01*
X62318818Y-51012062D01*
X62323606Y-50947874D01*
X62226182Y-50784000D01*
X60984000Y-50784000D01*
X60576000Y-50784000D01*
X60556000Y-50784000D01*
X60556000Y-50376000D01*
X60576000Y-50376000D01*
X60576000Y-49497000D01*
X60984000Y-49497000D01*
X60984000Y-50376000D01*
X62226182Y-50376000D01*
X62323606Y-50212126D01*
X62318818Y-50147938D01*
X62215047Y-49958454D01*
X62076303Y-49792855D01*
X61907918Y-49657506D01*
X61716363Y-49557608D01*
X61509000Y-49497000D01*
X60984000Y-49497000D01*
X60576000Y-49497000D01*
X60051000Y-49497000D01*
X59843637Y-49557608D01*
X59652082Y-49657506D01*
X59483697Y-49792855D01*
X59344953Y-49958454D01*
X59294450Y-50050672D01*
X59294450Y-49509545D01*
X59295390Y-49500000D01*
X59291636Y-49461881D01*
X59284441Y-49438162D01*
X59280517Y-49425227D01*
X59262461Y-49391447D01*
X59238162Y-49361838D01*
X59230747Y-49355753D01*
X57969451Y-48094458D01*
X57969451Y-46363066D01*
X58625000Y-46363066D01*
X58625000Y-46436934D01*
X58639411Y-46509383D01*
X58667680Y-46577629D01*
X58708719Y-46639048D01*
X58760952Y-46691281D01*
X58822371Y-46732320D01*
X58890617Y-46760589D01*
X58963066Y-46775000D01*
X59036934Y-46775000D01*
X59109383Y-46760589D01*
X59171161Y-46734999D01*
X61896594Y-46734999D01*
X62690001Y-47528407D01*
X62690000Y-49588967D01*
X62667680Y-49622371D01*
X62639411Y-49690617D01*
X62625000Y-49763066D01*
X62625000Y-49836934D01*
X62639411Y-49909383D01*
X62667680Y-49977629D01*
X62708719Y-50039048D01*
X62760952Y-50091281D01*
X62822371Y-50132320D01*
X62890617Y-50160589D01*
X62963066Y-50175000D01*
X63036934Y-50175000D01*
X63109383Y-50160589D01*
X63177629Y-50132320D01*
X63239048Y-50091281D01*
X63291281Y-50039048D01*
X63332320Y-49977629D01*
X63360589Y-49909383D01*
X63375000Y-49836934D01*
X63375000Y-49763066D01*
X63360589Y-49690617D01*
X63332320Y-49622371D01*
X63310000Y-49588967D01*
X63310000Y-47415220D01*
X63311499Y-47400000D01*
X63305514Y-47339230D01*
X63287788Y-47280794D01*
X63259002Y-47226940D01*
X63252654Y-47219205D01*
X63220263Y-47179737D01*
X63208440Y-47170034D01*
X62254970Y-46216565D01*
X62245262Y-46204736D01*
X62198059Y-46165997D01*
X62144205Y-46137211D01*
X62085769Y-46119485D01*
X62040219Y-46114999D01*
X62040209Y-46114999D01*
X62024999Y-46113501D01*
X62009789Y-46114999D01*
X59245328Y-46114999D01*
X59239048Y-46108719D01*
X59177629Y-46067680D01*
X59109383Y-46039411D01*
X59036934Y-46025000D01*
X58963066Y-46025000D01*
X58890617Y-46039411D01*
X58822371Y-46067680D01*
X58760952Y-46108719D01*
X58708719Y-46160952D01*
X58667680Y-46222371D01*
X58639411Y-46290617D01*
X58625000Y-46363066D01*
X57969451Y-46363066D01*
X57969451Y-44875000D01*
X58036934Y-44875000D01*
X58109383Y-44860589D01*
X58177629Y-44832320D01*
X58239048Y-44791281D01*
X58291281Y-44739048D01*
X58332320Y-44677629D01*
X58360589Y-44609383D01*
X58375000Y-44536934D01*
X58375000Y-44463066D01*
X58360589Y-44390617D01*
X58332320Y-44322371D01*
X58291281Y-44260952D01*
X58239048Y-44208719D01*
X58177629Y-44167680D01*
X58109383Y-44139411D01*
X58036934Y-44125000D01*
X57963066Y-44125000D01*
X57890617Y-44139411D01*
X57822371Y-44167680D01*
X57760952Y-44208719D01*
X57708719Y-44260952D01*
X57694450Y-44282307D01*
X57694450Y-44109542D01*
X57695390Y-44100000D01*
X57694187Y-44087788D01*
X57691636Y-44061881D01*
X57680517Y-44025227D01*
X57662461Y-43991447D01*
X57638162Y-43961838D01*
X57630747Y-43955753D01*
X57194450Y-43519457D01*
X57194450Y-43121081D01*
X57239048Y-43091281D01*
X57291281Y-43039048D01*
X57332320Y-42977629D01*
X57360589Y-42909383D01*
X57375000Y-42836934D01*
X57375000Y-42763066D01*
X57360589Y-42690617D01*
X57332320Y-42622371D01*
X57291281Y-42560952D01*
X57239048Y-42508719D01*
X57177629Y-42467680D01*
X57109383Y-42439411D01*
X57036934Y-42425000D01*
X56963066Y-42425000D01*
X56890617Y-42439411D01*
X56822371Y-42467680D01*
X56760952Y-42508719D01*
X56708719Y-42560952D01*
X56667680Y-42622371D01*
X56639411Y-42690617D01*
X56625000Y-42763066D01*
X55200000Y-42763066D01*
X55200000Y-40163066D01*
X61225000Y-40163066D01*
X61225000Y-40236934D01*
X61239411Y-40309383D01*
X61267680Y-40377629D01*
X61308719Y-40439048D01*
X61360952Y-40491281D01*
X61405551Y-40521081D01*
X61405550Y-44190458D01*
X61404610Y-44200000D01*
X61405550Y-44209542D01*
X61405550Y-44209544D01*
X61408364Y-44238118D01*
X61419483Y-44274772D01*
X61437539Y-44308552D01*
X61461838Y-44338162D01*
X61469260Y-44344253D01*
X66280552Y-49155546D01*
X66280551Y-52965459D01*
X66279611Y-52975001D01*
X66280551Y-52984543D01*
X66280551Y-52984545D01*
X66283365Y-53013119D01*
X66294484Y-53049773D01*
X66312540Y-53083553D01*
X66335299Y-53111287D01*
X66325000Y-53163066D01*
X66325000Y-53236934D01*
X66339411Y-53309383D01*
X66367680Y-53377629D01*
X66408719Y-53439048D01*
X66460952Y-53491281D01*
X66522371Y-53532320D01*
X66590617Y-53560589D01*
X66663066Y-53575000D01*
X66736934Y-53575000D01*
X66809383Y-53560589D01*
X66877629Y-53532320D01*
X66939048Y-53491281D01*
X66991281Y-53439048D01*
X67032320Y-53377629D01*
X67060589Y-53309383D01*
X67075000Y-53236934D01*
X67075000Y-53163066D01*
X67060589Y-53090617D01*
X67032320Y-53022371D01*
X66991281Y-52960952D01*
X66939048Y-52908719D01*
X66877629Y-52867680D01*
X66809383Y-52839411D01*
X66736934Y-52825000D01*
X66669451Y-52825000D01*
X66669451Y-49084546D01*
X66670391Y-49075001D01*
X66666637Y-49036882D01*
X66655518Y-49000229D01*
X66655518Y-49000228D01*
X66637462Y-48966448D01*
X66613163Y-48936839D01*
X66605747Y-48930753D01*
X61794450Y-44119457D01*
X61794450Y-40521081D01*
X61839048Y-40491281D01*
X61891281Y-40439048D01*
X61932320Y-40377629D01*
X61960589Y-40309383D01*
X61975000Y-40236934D01*
X61975000Y-40163066D01*
X61960589Y-40090617D01*
X61932320Y-40022371D01*
X61891281Y-39960952D01*
X61839048Y-39908719D01*
X61794450Y-39878919D01*
X61794450Y-37780543D01*
X63780543Y-35794450D01*
X69736989Y-35794450D01*
X69783978Y-35907890D01*
X69855112Y-36014351D01*
X69945649Y-36104888D01*
X70052110Y-36176022D01*
X70170402Y-36225021D01*
X70220570Y-36235000D01*
X70170402Y-36244979D01*
X70052110Y-36293978D01*
X69945649Y-36365112D01*
X69855112Y-36455649D01*
X69783978Y-36562110D01*
X69734979Y-36680402D01*
X69710000Y-36805981D01*
X69710000Y-36934019D01*
X69734979Y-37059598D01*
X69783978Y-37177890D01*
X69855112Y-37284351D01*
X69945649Y-37374888D01*
X70052110Y-37446022D01*
X70170402Y-37495021D01*
X70295981Y-37520000D01*
X70424019Y-37520000D01*
X70549598Y-37495021D01*
X70667890Y-37446022D01*
X70721537Y-37410177D01*
X70726618Y-37420715D01*
X70851415Y-37586374D01*
X71006133Y-37724503D01*
X71184826Y-37829794D01*
X71266110Y-37863452D01*
X71426000Y-37765559D01*
X71426000Y-37074000D01*
X71406000Y-37074000D01*
X71406000Y-36666000D01*
X71426000Y-36666000D01*
X71426000Y-36646000D01*
X71834000Y-36646000D01*
X71834000Y-36666000D01*
X71854000Y-36666000D01*
X71854000Y-37074000D01*
X71834000Y-37074000D01*
X71834000Y-37765559D01*
X71993890Y-37863452D01*
X72075174Y-37829794D01*
X72253867Y-37724503D01*
X72408585Y-37586374D01*
X72533382Y-37420715D01*
X72538463Y-37410177D01*
X72590000Y-37444612D01*
X72590000Y-37592325D01*
X72590001Y-37592335D01*
X72590000Y-38066769D01*
X65775279Y-44881492D01*
X65754607Y-44867680D01*
X65686361Y-44839411D01*
X65613912Y-44825000D01*
X65540044Y-44825000D01*
X65467595Y-44839411D01*
X65399349Y-44867680D01*
X65337930Y-44908719D01*
X65285697Y-44960952D01*
X65244658Y-45022371D01*
X65216389Y-45090617D01*
X65201978Y-45163066D01*
X65201978Y-45236934D01*
X65216389Y-45309383D01*
X65244658Y-45377629D01*
X65285697Y-45439048D01*
X65337930Y-45491281D01*
X65399349Y-45532320D01*
X65467595Y-45560589D01*
X65540044Y-45575000D01*
X65613912Y-45575000D01*
X65686361Y-45560589D01*
X65754607Y-45532320D01*
X65788011Y-45510000D01*
X65879966Y-45510000D01*
X65895176Y-45511498D01*
X65910386Y-45510000D01*
X65910396Y-45510000D01*
X65955946Y-45505514D01*
X66014382Y-45487788D01*
X66068236Y-45459002D01*
X66115439Y-45420263D01*
X66125147Y-45408434D01*
X73108447Y-38425136D01*
X73120263Y-38415439D01*
X73129961Y-38403622D01*
X73129965Y-38403618D01*
X73159001Y-38368237D01*
X73159003Y-38368235D01*
X73187788Y-38314382D01*
X73205514Y-38255946D01*
X73210000Y-38210396D01*
X73210000Y-38210387D01*
X73211498Y-38195177D01*
X73210000Y-38179966D01*
X73210000Y-37444612D01*
X73314351Y-37374888D01*
X73404888Y-37284351D01*
X73474612Y-37180000D01*
X73591896Y-37180000D01*
X73607106Y-37181498D01*
X73622316Y-37180000D01*
X73622326Y-37180000D01*
X73667876Y-37175514D01*
X73726312Y-37157788D01*
X73780166Y-37129002D01*
X73827369Y-37090263D01*
X73837076Y-37078435D01*
X74208441Y-36707071D01*
X74220263Y-36697369D01*
X74259002Y-36650166D01*
X74287788Y-36596312D01*
X74305514Y-36537876D01*
X74310000Y-36492326D01*
X74310000Y-36492317D01*
X74311498Y-36477107D01*
X74310000Y-36461896D01*
X74310000Y-34540329D01*
X74360952Y-34591281D01*
X74405550Y-34621081D01*
X74405551Y-37419455D01*
X69189542Y-42635464D01*
X69136934Y-42625000D01*
X69063066Y-42625000D01*
X68990617Y-42639411D01*
X68922371Y-42667680D01*
X68860952Y-42708719D01*
X68808719Y-42760952D01*
X68767680Y-42822371D01*
X68739411Y-42890617D01*
X68725000Y-42963066D01*
X68725000Y-43036934D01*
X68739411Y-43109383D01*
X68767680Y-43177629D01*
X68808719Y-43239048D01*
X68860952Y-43291281D01*
X68905550Y-43321081D01*
X68905551Y-50550340D01*
X68905516Y-50550226D01*
X68899676Y-50539300D01*
X68887460Y-50516445D01*
X68869245Y-50494251D01*
X68863161Y-50486837D01*
X68855745Y-50480751D01*
X63194450Y-44819457D01*
X63194450Y-39217381D01*
X63224999Y-39220389D01*
X63234544Y-39219449D01*
X64765459Y-39219449D01*
X64775001Y-39220389D01*
X64784543Y-39219449D01*
X64784546Y-39219449D01*
X64813120Y-39216635D01*
X64849774Y-39205516D01*
X64883554Y-39187460D01*
X64913163Y-39163161D01*
X64919254Y-39155739D01*
X65810458Y-38264536D01*
X65863066Y-38275000D01*
X65936934Y-38275000D01*
X66009383Y-38260589D01*
X66077629Y-38232320D01*
X66139048Y-38191281D01*
X66191281Y-38139048D01*
X66232320Y-38077629D01*
X66260589Y-38009383D01*
X66275000Y-37936934D01*
X66275000Y-37863066D01*
X66260589Y-37790617D01*
X66232320Y-37722371D01*
X66191281Y-37660952D01*
X66139048Y-37608719D01*
X66077629Y-37567680D01*
X66009383Y-37539411D01*
X65936934Y-37525000D01*
X65863066Y-37525000D01*
X65790617Y-37539411D01*
X65722371Y-37567680D01*
X65660952Y-37608719D01*
X65608719Y-37660952D01*
X65567680Y-37722371D01*
X65539411Y-37790617D01*
X65525000Y-37863066D01*
X65525000Y-37936934D01*
X65535464Y-37989542D01*
X64694458Y-38830549D01*
X63375000Y-38830549D01*
X63375000Y-38763066D01*
X63360589Y-38690617D01*
X63332320Y-38622371D01*
X63291281Y-38560952D01*
X63239048Y-38508719D01*
X63177629Y-38467680D01*
X63109383Y-38439411D01*
X63036934Y-38425000D01*
X62963066Y-38425000D01*
X62890617Y-38439411D01*
X62822371Y-38467680D01*
X62760952Y-38508719D01*
X62708719Y-38560952D01*
X62667680Y-38622371D01*
X62639411Y-38690617D01*
X62625000Y-38763066D01*
X62625000Y-38836934D01*
X62639411Y-38909383D01*
X62667680Y-38977629D01*
X62708719Y-39039048D01*
X62760952Y-39091281D01*
X62805551Y-39121081D01*
X62805550Y-43990455D01*
X62805550Y-44109544D01*
X62805551Y-44109553D01*
X62805550Y-44890458D01*
X62804610Y-44900000D01*
X62805550Y-44909542D01*
X62805550Y-44909544D01*
X62808364Y-44938118D01*
X62819483Y-44974772D01*
X62837539Y-45008552D01*
X62861838Y-45038162D01*
X62869260Y-45044253D01*
X68530550Y-50705544D01*
X68530549Y-54625000D01*
X68463066Y-54625000D01*
X68390617Y-54639411D01*
X68322371Y-54667680D01*
X68260952Y-54708719D01*
X68208719Y-54760952D01*
X68167680Y-54822371D01*
X68139411Y-54890617D01*
X68125000Y-54963066D01*
X68125000Y-55036934D01*
X68139411Y-55109383D01*
X68167680Y-55177629D01*
X68208719Y-55239048D01*
X68260952Y-55291281D01*
X68322371Y-55332320D01*
X68390617Y-55360589D01*
X68463066Y-55375000D01*
X68536934Y-55375000D01*
X68609383Y-55360589D01*
X68677629Y-55332320D01*
X68739048Y-55291281D01*
X68791281Y-55239048D01*
X68832320Y-55177629D01*
X68860589Y-55109383D01*
X68875000Y-55036934D01*
X68875000Y-54963066D01*
X68864701Y-54911287D01*
X68887460Y-54883554D01*
X68905516Y-54849774D01*
X68916635Y-54813120D01*
X68919449Y-54784546D01*
X68919449Y-54784545D01*
X68920389Y-54775001D01*
X68919449Y-54765456D01*
X68919449Y-54574660D01*
X68919483Y-54574772D01*
X68931866Y-54597938D01*
X68937540Y-54608553D01*
X68961839Y-54638162D01*
X68969255Y-54644248D01*
X73035464Y-58710458D01*
X73025000Y-58763066D01*
X73025000Y-58836934D01*
X73039411Y-58909383D01*
X73067680Y-58977629D01*
X73108719Y-59039048D01*
X73160952Y-59091281D01*
X73222371Y-59132320D01*
X73290617Y-59160589D01*
X73363066Y-59175000D01*
X73436934Y-59175000D01*
X73509383Y-59160589D01*
X73577629Y-59132320D01*
X73639048Y-59091281D01*
X73691281Y-59039048D01*
X73732320Y-58977629D01*
X73760589Y-58909383D01*
X73775000Y-58836934D01*
X73775000Y-58763066D01*
X73760589Y-58690617D01*
X73732320Y-58622371D01*
X73691281Y-58560952D01*
X73639048Y-58508719D01*
X73577629Y-58467680D01*
X73509383Y-58439411D01*
X73436934Y-58425000D01*
X73363066Y-58425000D01*
X73310458Y-58435464D01*
X72038060Y-57163066D01*
X102625000Y-57163066D01*
X102625000Y-57236934D01*
X102639411Y-57309383D01*
X102667680Y-57377629D01*
X102708719Y-57439048D01*
X102760952Y-57491281D01*
X102822371Y-57532320D01*
X102890617Y-57560589D01*
X102963066Y-57575000D01*
X103030549Y-57575000D01*
X103030550Y-58215447D01*
X103029609Y-58224999D01*
X103033364Y-58263117D01*
X103044482Y-58299771D01*
X103062538Y-58333551D01*
X103062539Y-58333552D01*
X103086838Y-58363161D01*
X103094254Y-58369247D01*
X103855752Y-59130746D01*
X103861838Y-59138162D01*
X103891447Y-59162461D01*
X103925227Y-59180517D01*
X103961881Y-59191636D01*
X103990455Y-59194450D01*
X103990458Y-59194450D01*
X104000000Y-59195390D01*
X104009542Y-59194450D01*
X111390458Y-59194450D01*
X111400000Y-59195390D01*
X111409542Y-59194450D01*
X111409545Y-59194450D01*
X111438119Y-59191636D01*
X111474773Y-59180517D01*
X111508553Y-59162461D01*
X111538162Y-59138162D01*
X111544253Y-59130740D01*
X112730746Y-57944248D01*
X112738162Y-57938162D01*
X112750142Y-57923564D01*
X112762461Y-57908554D01*
X112780517Y-57874773D01*
X112791636Y-57838119D01*
X112794450Y-57809545D01*
X112794450Y-57809543D01*
X112795390Y-57800001D01*
X112794450Y-57790459D01*
X112794450Y-54745645D01*
X112795390Y-54736100D01*
X112791636Y-54697981D01*
X112780517Y-54661327D01*
X112762461Y-54627547D01*
X112746873Y-54608553D01*
X112738162Y-54597938D01*
X112730747Y-54591853D01*
X112008153Y-53869260D01*
X112002062Y-53861838D01*
X111972453Y-53837539D01*
X111956009Y-53828750D01*
X111978838Y-53822336D01*
X112076824Y-53772533D01*
X112163211Y-53704570D01*
X112234679Y-53621060D01*
X112288482Y-53525212D01*
X112322552Y-53420710D01*
X112333000Y-53343500D01*
X112193500Y-53204000D01*
X111204000Y-53204000D01*
X111204000Y-53224000D01*
X110796000Y-53224000D01*
X110796000Y-53204000D01*
X109806500Y-53204000D01*
X109667000Y-53343500D01*
X109677448Y-53420710D01*
X109711518Y-53525212D01*
X109765321Y-53621060D01*
X109836789Y-53704570D01*
X109923176Y-53772533D01*
X110021162Y-53822336D01*
X110074275Y-53837258D01*
X110074275Y-54300000D01*
X110077171Y-54329405D01*
X110085748Y-54357680D01*
X110099677Y-54383738D01*
X110118421Y-54406579D01*
X110141262Y-54425323D01*
X110167320Y-54439252D01*
X110195595Y-54447829D01*
X110225000Y-54450725D01*
X111775000Y-54450725D01*
X111804405Y-54447829D01*
X111832680Y-54439252D01*
X111858738Y-54425323D01*
X111881579Y-54406579D01*
X111900323Y-54383738D01*
X111914252Y-54357680D01*
X111921778Y-54332871D01*
X112405550Y-54816644D01*
X112405550Y-56075221D01*
X112400559Y-56070230D01*
X112339140Y-56029191D01*
X112270894Y-56000922D01*
X112198445Y-55986511D01*
X112124577Y-55986511D01*
X112052128Y-56000922D01*
X111983882Y-56029191D01*
X111950478Y-56051511D01*
X111925725Y-56051511D01*
X111925725Y-55700000D01*
X111922829Y-55670595D01*
X111914252Y-55642320D01*
X111900323Y-55616262D01*
X111881579Y-55593421D01*
X111858738Y-55574677D01*
X111832680Y-55560748D01*
X111804405Y-55552171D01*
X111775000Y-55549275D01*
X110225000Y-55549275D01*
X110195595Y-55552171D01*
X110167320Y-55560748D01*
X110141262Y-55574677D01*
X110118421Y-55593421D01*
X110099677Y-55616262D01*
X110085748Y-55642320D01*
X110077171Y-55670595D01*
X110074275Y-55700000D01*
X110074275Y-56300000D01*
X110077171Y-56329405D01*
X110085748Y-56357680D01*
X110099677Y-56383738D01*
X110118421Y-56406579D01*
X110141262Y-56425323D01*
X110167320Y-56439252D01*
X110195595Y-56447829D01*
X110225000Y-56450725D01*
X111012319Y-56450725D01*
X111131545Y-56569951D01*
X111141248Y-56581774D01*
X111153070Y-56591476D01*
X111188451Y-56620513D01*
X111242305Y-56649299D01*
X111300740Y-56667025D01*
X111361511Y-56673010D01*
X111376731Y-56671511D01*
X111950478Y-56671511D01*
X111983882Y-56693831D01*
X112052128Y-56722100D01*
X112124577Y-56736511D01*
X112198445Y-56736511D01*
X112270894Y-56722100D01*
X112339140Y-56693831D01*
X112400559Y-56652792D01*
X112405551Y-56647800D01*
X112405551Y-57719455D01*
X111319457Y-58805550D01*
X104080544Y-58805550D01*
X103419449Y-58144456D01*
X103419449Y-57434544D01*
X103420389Y-57424999D01*
X103416635Y-57386880D01*
X103405516Y-57350226D01*
X103387460Y-57316446D01*
X103369245Y-57294251D01*
X103364701Y-57288713D01*
X103375000Y-57236934D01*
X103375000Y-57163066D01*
X103360589Y-57090617D01*
X103332320Y-57022371D01*
X103291281Y-56960952D01*
X103239048Y-56908719D01*
X103177629Y-56867680D01*
X103109383Y-56839411D01*
X103036934Y-56825000D01*
X102963066Y-56825000D01*
X102890617Y-56839411D01*
X102822371Y-56867680D01*
X102760952Y-56908719D01*
X102708719Y-56960952D01*
X102667680Y-57022371D01*
X102639411Y-57090617D01*
X102625000Y-57163066D01*
X72038060Y-57163066D01*
X69294450Y-54419457D01*
X69294450Y-52663066D01*
X73625000Y-52663066D01*
X73625000Y-52736934D01*
X73639411Y-52809383D01*
X73667680Y-52877629D01*
X73708719Y-52939048D01*
X73760952Y-52991281D01*
X73822371Y-53032320D01*
X73890617Y-53060589D01*
X73963066Y-53075000D01*
X74036934Y-53075000D01*
X74089542Y-53064536D01*
X77655752Y-56630746D01*
X77661838Y-56638162D01*
X77691447Y-56662461D01*
X77725227Y-56680517D01*
X77761881Y-56691636D01*
X77800000Y-56695390D01*
X77809545Y-56694450D01*
X105478919Y-56694450D01*
X105508719Y-56739048D01*
X105560952Y-56791281D01*
X105622371Y-56832320D01*
X105690617Y-56860589D01*
X105763066Y-56875000D01*
X105836934Y-56875000D01*
X105909383Y-56860589D01*
X105977629Y-56832320D01*
X106039048Y-56791281D01*
X106091281Y-56739048D01*
X106132320Y-56677629D01*
X106160589Y-56609383D01*
X106175000Y-56536934D01*
X106175000Y-56463066D01*
X106160589Y-56390617D01*
X106132320Y-56322371D01*
X106091281Y-56260952D01*
X106039048Y-56208719D01*
X105977629Y-56167680D01*
X105909383Y-56139411D01*
X105836934Y-56125000D01*
X105763066Y-56125000D01*
X105690617Y-56139411D01*
X105622371Y-56167680D01*
X105560952Y-56208719D01*
X105508719Y-56260952D01*
X105478919Y-56305550D01*
X77880544Y-56305550D01*
X74364536Y-52789542D01*
X74375000Y-52736934D01*
X74375000Y-52663066D01*
X74360589Y-52590617D01*
X74332320Y-52522371D01*
X74291281Y-52460952D01*
X74239048Y-52408719D01*
X74177629Y-52367680D01*
X74109383Y-52339411D01*
X74036934Y-52325000D01*
X73963066Y-52325000D01*
X73890617Y-52339411D01*
X73822371Y-52367680D01*
X73760952Y-52408719D01*
X73708719Y-52460952D01*
X73667680Y-52522371D01*
X73639411Y-52590617D01*
X73625000Y-52663066D01*
X69294450Y-52663066D01*
X69294450Y-47263066D01*
X80975000Y-47263066D01*
X80975000Y-47336934D01*
X80989411Y-47409383D01*
X81017680Y-47477629D01*
X81058719Y-47539048D01*
X81110952Y-47591281D01*
X81172371Y-47632320D01*
X81240617Y-47660589D01*
X81313066Y-47675000D01*
X81386934Y-47675000D01*
X81438713Y-47664701D01*
X81450987Y-47674773D01*
X81466446Y-47687460D01*
X81500226Y-47705516D01*
X81536880Y-47716635D01*
X81563948Y-47719301D01*
X84885979Y-51041332D01*
X84822371Y-51067680D01*
X84760952Y-51108719D01*
X84708719Y-51160952D01*
X84667680Y-51222371D01*
X84639411Y-51290617D01*
X84625000Y-51363066D01*
X84625000Y-51436934D01*
X84639411Y-51509383D01*
X84667680Y-51577629D01*
X84708719Y-51639048D01*
X84760952Y-51691281D01*
X84822371Y-51732320D01*
X84890617Y-51760589D01*
X84963066Y-51775000D01*
X85036934Y-51775000D01*
X85109383Y-51760589D01*
X85177629Y-51732320D01*
X85239048Y-51691281D01*
X85291281Y-51639048D01*
X85332320Y-51577629D01*
X85358668Y-51514021D01*
X88975392Y-55130746D01*
X88981478Y-55138162D01*
X89011087Y-55162461D01*
X89044867Y-55180517D01*
X89081521Y-55191636D01*
X89110095Y-55194450D01*
X89110098Y-55194450D01*
X89119640Y-55195390D01*
X89129182Y-55194450D01*
X110074275Y-55194450D01*
X110074275Y-55300000D01*
X110077171Y-55329405D01*
X110085748Y-55357680D01*
X110099677Y-55383738D01*
X110118421Y-55406579D01*
X110141262Y-55425323D01*
X110167320Y-55439252D01*
X110195595Y-55447829D01*
X110225000Y-55450725D01*
X111775000Y-55450725D01*
X111804405Y-55447829D01*
X111832680Y-55439252D01*
X111858738Y-55425323D01*
X111881579Y-55406579D01*
X111900323Y-55383738D01*
X111914252Y-55357680D01*
X111922829Y-55329405D01*
X111925725Y-55300000D01*
X111925725Y-54700000D01*
X111922829Y-54670595D01*
X111914252Y-54642320D01*
X111900323Y-54616262D01*
X111881579Y-54593421D01*
X111858738Y-54574677D01*
X111832680Y-54560748D01*
X111804405Y-54552171D01*
X111775000Y-54549275D01*
X110225000Y-54549275D01*
X110195595Y-54552171D01*
X110167320Y-54560748D01*
X110141262Y-54574677D01*
X110118421Y-54593421D01*
X110099677Y-54616262D01*
X110085748Y-54642320D01*
X110077171Y-54670595D01*
X110074275Y-54700000D01*
X110074275Y-54805550D01*
X89200184Y-54805550D01*
X87357700Y-52963066D01*
X89425000Y-52963066D01*
X89425000Y-53036934D01*
X89439411Y-53109383D01*
X89467680Y-53177629D01*
X89508719Y-53239048D01*
X89560952Y-53291281D01*
X89622371Y-53332320D01*
X89690617Y-53360589D01*
X89763066Y-53375000D01*
X89836934Y-53375000D01*
X89909383Y-53360589D01*
X89977629Y-53332320D01*
X90039048Y-53291281D01*
X90091281Y-53239048D01*
X90132320Y-53177629D01*
X90160589Y-53109383D01*
X90163559Y-53094450D01*
X91578919Y-53094450D01*
X91608719Y-53139048D01*
X91660952Y-53191281D01*
X91722371Y-53232320D01*
X91790617Y-53260589D01*
X91863066Y-53275000D01*
X91936934Y-53275000D01*
X92009383Y-53260589D01*
X92077629Y-53232320D01*
X92139048Y-53191281D01*
X92191281Y-53139048D01*
X92232320Y-53077629D01*
X92260589Y-53009383D01*
X92275000Y-52936934D01*
X92275000Y-52863066D01*
X92260589Y-52790617D01*
X92232320Y-52722371D01*
X92191281Y-52660952D01*
X92186829Y-52656500D01*
X109667000Y-52656500D01*
X109806500Y-52796000D01*
X110796000Y-52796000D01*
X110796000Y-52281500D01*
X111204000Y-52281500D01*
X111204000Y-52796000D01*
X112193500Y-52796000D01*
X112333000Y-52656500D01*
X112322552Y-52579290D01*
X112288482Y-52474788D01*
X112234679Y-52378940D01*
X112163211Y-52295430D01*
X112076824Y-52227467D01*
X111978838Y-52177664D01*
X111873018Y-52147934D01*
X111763432Y-52139419D01*
X111343500Y-52142000D01*
X111204000Y-52281500D01*
X110796000Y-52281500D01*
X110656500Y-52142000D01*
X110236568Y-52139419D01*
X110126982Y-52147934D01*
X110021162Y-52177664D01*
X109923176Y-52227467D01*
X109836789Y-52295430D01*
X109765321Y-52378940D01*
X109711518Y-52474788D01*
X109677448Y-52579290D01*
X109667000Y-52656500D01*
X92186829Y-52656500D01*
X92139048Y-52608719D01*
X92077629Y-52567680D01*
X92009383Y-52539411D01*
X91936934Y-52525000D01*
X91863066Y-52525000D01*
X91790617Y-52539411D01*
X91722371Y-52567680D01*
X91660952Y-52608719D01*
X91608719Y-52660952D01*
X91578919Y-52705550D01*
X90034305Y-52705550D01*
X89977629Y-52667680D01*
X89909383Y-52639411D01*
X89836934Y-52625000D01*
X89763066Y-52625000D01*
X89690617Y-52639411D01*
X89622371Y-52667680D01*
X89560952Y-52708719D01*
X89508719Y-52760952D01*
X89467680Y-52822371D01*
X89439411Y-52890617D01*
X89425000Y-52963066D01*
X87357700Y-52963066D01*
X83605913Y-49211279D01*
X83609383Y-49210589D01*
X83677629Y-49182320D01*
X83739048Y-49141281D01*
X83791281Y-49089048D01*
X83832320Y-49027629D01*
X83860589Y-48959383D01*
X83875000Y-48886934D01*
X83875000Y-48813066D01*
X83860589Y-48740617D01*
X83832320Y-48672371D01*
X83791281Y-48610952D01*
X83739048Y-48558719D01*
X83677629Y-48517680D01*
X83609383Y-48489411D01*
X83536934Y-48475000D01*
X83463066Y-48475000D01*
X83390617Y-48489411D01*
X83322371Y-48517680D01*
X83260952Y-48558719D01*
X83208719Y-48610952D01*
X83167680Y-48672371D01*
X83139411Y-48740617D01*
X83138721Y-48744087D01*
X81788892Y-47394259D01*
X81782801Y-47386837D01*
X81753192Y-47362538D01*
X81723106Y-47346456D01*
X81725000Y-47336934D01*
X81725000Y-47263066D01*
X81710589Y-47190617D01*
X81682320Y-47122371D01*
X81641281Y-47060952D01*
X81589048Y-47008719D01*
X81527629Y-46967680D01*
X81459383Y-46939411D01*
X81386934Y-46925000D01*
X81313066Y-46925000D01*
X81240617Y-46939411D01*
X81172371Y-46967680D01*
X81110952Y-47008719D01*
X81058719Y-47060952D01*
X81017680Y-47122371D01*
X80989411Y-47190617D01*
X80975000Y-47263066D01*
X69294450Y-47263066D01*
X69294450Y-45513066D01*
X78825000Y-45513066D01*
X78825000Y-45586934D01*
X78839411Y-45659383D01*
X78867680Y-45727629D01*
X78908719Y-45789048D01*
X78960952Y-45841281D01*
X79022371Y-45882320D01*
X79090617Y-45910589D01*
X79163066Y-45925000D01*
X79236934Y-45925000D01*
X79309383Y-45910589D01*
X79377629Y-45882320D01*
X79439048Y-45841281D01*
X79491281Y-45789048D01*
X79521081Y-45744450D01*
X84369457Y-45744450D01*
X90855752Y-52230746D01*
X90861838Y-52238162D01*
X90891447Y-52262461D01*
X90925227Y-52280517D01*
X90961881Y-52291636D01*
X90990455Y-52294450D01*
X90990458Y-52294450D01*
X91000000Y-52295390D01*
X91009542Y-52294450D01*
X96290458Y-52294450D01*
X96300000Y-52295390D01*
X96309542Y-52294450D01*
X96309545Y-52294450D01*
X96338119Y-52291636D01*
X96374773Y-52280517D01*
X96408553Y-52262461D01*
X96438162Y-52238162D01*
X96444253Y-52230740D01*
X101874993Y-46800000D01*
X110074275Y-46800000D01*
X110074275Y-47400000D01*
X110077171Y-47429405D01*
X110085748Y-47457680D01*
X110099677Y-47483738D01*
X110118421Y-47506579D01*
X110141262Y-47525323D01*
X110167320Y-47539252D01*
X110195595Y-47547829D01*
X110225000Y-47550725D01*
X111775000Y-47550725D01*
X111804405Y-47547829D01*
X111832680Y-47539252D01*
X111858738Y-47525323D01*
X111877410Y-47510000D01*
X112288967Y-47510000D01*
X112322371Y-47532320D01*
X112390617Y-47560589D01*
X112463066Y-47575000D01*
X112536934Y-47575000D01*
X112609383Y-47560589D01*
X112677629Y-47532320D01*
X112739048Y-47491281D01*
X112791281Y-47439048D01*
X112832320Y-47377629D01*
X112860589Y-47309383D01*
X112875000Y-47236934D01*
X112875000Y-47163066D01*
X112860589Y-47090617D01*
X112832320Y-47022371D01*
X112791281Y-46960952D01*
X112739048Y-46908719D01*
X112677629Y-46867680D01*
X112609383Y-46839411D01*
X112536934Y-46825000D01*
X112463066Y-46825000D01*
X112390617Y-46839411D01*
X112322371Y-46867680D01*
X112288967Y-46890000D01*
X111925725Y-46890000D01*
X111925725Y-46800000D01*
X111922829Y-46770595D01*
X111914252Y-46742320D01*
X111900323Y-46716262D01*
X111881579Y-46693421D01*
X111858738Y-46674677D01*
X111832680Y-46660748D01*
X111804405Y-46652171D01*
X111775000Y-46649275D01*
X110225000Y-46649275D01*
X110195595Y-46652171D01*
X110167320Y-46660748D01*
X110141262Y-46674677D01*
X110118421Y-46693421D01*
X110099677Y-46716262D01*
X110085748Y-46742320D01*
X110077171Y-46770595D01*
X110074275Y-46800000D01*
X101874993Y-46800000D01*
X102030746Y-46644248D01*
X102038162Y-46638162D01*
X102062461Y-46608553D01*
X102080517Y-46574773D01*
X102091636Y-46538119D01*
X102094450Y-46509545D01*
X102094450Y-46509542D01*
X102095390Y-46500000D01*
X102094450Y-46490458D01*
X102094450Y-46294450D01*
X110074275Y-46294450D01*
X110074275Y-46400000D01*
X110077171Y-46429405D01*
X110085748Y-46457680D01*
X110099677Y-46483738D01*
X110118421Y-46506579D01*
X110141262Y-46525323D01*
X110167320Y-46539252D01*
X110195595Y-46547829D01*
X110225000Y-46550725D01*
X111775000Y-46550725D01*
X111804405Y-46547829D01*
X111832680Y-46539252D01*
X111858738Y-46525323D01*
X111881579Y-46506579D01*
X111900323Y-46483738D01*
X111914252Y-46457680D01*
X111922829Y-46429405D01*
X111925725Y-46400000D01*
X111925725Y-45800000D01*
X111922829Y-45770595D01*
X111914252Y-45742320D01*
X111900323Y-45716262D01*
X111881579Y-45693421D01*
X111858738Y-45674677D01*
X111832680Y-45660748D01*
X111804405Y-45652171D01*
X111775000Y-45649275D01*
X110225000Y-45649275D01*
X110195595Y-45652171D01*
X110167320Y-45660748D01*
X110141262Y-45674677D01*
X110118421Y-45693421D01*
X110099677Y-45716262D01*
X110085748Y-45742320D01*
X110077171Y-45770595D01*
X110074275Y-45800000D01*
X110074275Y-45905550D01*
X101909545Y-45905550D01*
X101900000Y-45904610D01*
X101890455Y-45905550D01*
X101861881Y-45908364D01*
X101825227Y-45919483D01*
X101791447Y-45937539D01*
X101761838Y-45961838D01*
X101737539Y-45991447D01*
X101719483Y-46025227D01*
X101708364Y-46061881D01*
X101704610Y-46100000D01*
X101705550Y-46109545D01*
X101705551Y-46419455D01*
X96219457Y-51905550D01*
X91080544Y-51905550D01*
X84594253Y-45419260D01*
X84588162Y-45411838D01*
X84558553Y-45387539D01*
X84524773Y-45369483D01*
X84503620Y-45363066D01*
X85425000Y-45363066D01*
X85425000Y-45436934D01*
X85439411Y-45509383D01*
X85467680Y-45577629D01*
X85508719Y-45639048D01*
X85560952Y-45691281D01*
X85622371Y-45732320D01*
X85690617Y-45760589D01*
X85763066Y-45775000D01*
X85836934Y-45775000D01*
X85909383Y-45760589D01*
X85977629Y-45732320D01*
X86039048Y-45691281D01*
X86091281Y-45639048D01*
X86121081Y-45594450D01*
X90319457Y-45594450D01*
X93355752Y-48630746D01*
X93361838Y-48638162D01*
X93391447Y-48662461D01*
X93425227Y-48680517D01*
X93461881Y-48691636D01*
X93490455Y-48694450D01*
X93490457Y-48694450D01*
X93499999Y-48695390D01*
X93509541Y-48694450D01*
X95519457Y-48694450D01*
X96255752Y-49430746D01*
X96261838Y-49438162D01*
X96291447Y-49462461D01*
X96325227Y-49480517D01*
X96361881Y-49491636D01*
X96390455Y-49494450D01*
X96390458Y-49494450D01*
X96400000Y-49495390D01*
X96409542Y-49494450D01*
X97790458Y-49494450D01*
X97800000Y-49495390D01*
X97809542Y-49494450D01*
X97809545Y-49494450D01*
X97838119Y-49491636D01*
X97874773Y-49480517D01*
X97908553Y-49462461D01*
X97938162Y-49438162D01*
X97944253Y-49430740D01*
X102080544Y-45294450D01*
X110074275Y-45294450D01*
X110074275Y-45400000D01*
X110077171Y-45429405D01*
X110085748Y-45457680D01*
X110099677Y-45483738D01*
X110118421Y-45506579D01*
X110141262Y-45525323D01*
X110167320Y-45539252D01*
X110195595Y-45547829D01*
X110225000Y-45550725D01*
X111775000Y-45550725D01*
X111804405Y-45547829D01*
X111832680Y-45539252D01*
X111858738Y-45525323D01*
X111881579Y-45506579D01*
X111900323Y-45483738D01*
X111914252Y-45457680D01*
X111922829Y-45429405D01*
X111925725Y-45400000D01*
X111925725Y-44937258D01*
X111978838Y-44922336D01*
X112076824Y-44872533D01*
X112163211Y-44804570D01*
X112234679Y-44721060D01*
X112288482Y-44625212D01*
X112322552Y-44520710D01*
X112333000Y-44443500D01*
X112193500Y-44304000D01*
X111204000Y-44304000D01*
X111204000Y-44324000D01*
X110796000Y-44324000D01*
X110796000Y-44304000D01*
X109806500Y-44304000D01*
X109667000Y-44443500D01*
X109677448Y-44520710D01*
X109711518Y-44625212D01*
X109765321Y-44721060D01*
X109836789Y-44804570D01*
X109923176Y-44872533D01*
X109988136Y-44905550D01*
X102009542Y-44905550D01*
X102000000Y-44904610D01*
X101990458Y-44905550D01*
X101990455Y-44905550D01*
X101961881Y-44908364D01*
X101925227Y-44919483D01*
X101891447Y-44937539D01*
X101861838Y-44961838D01*
X101855752Y-44969254D01*
X97719457Y-49105550D01*
X97524779Y-49105550D01*
X97541281Y-49089048D01*
X97582320Y-49027629D01*
X97610589Y-48959383D01*
X97625000Y-48886934D01*
X97625000Y-48813066D01*
X97610589Y-48740617D01*
X97582320Y-48672371D01*
X97541281Y-48610952D01*
X97489048Y-48558719D01*
X97427629Y-48517680D01*
X97359383Y-48489411D01*
X97286934Y-48475000D01*
X97213066Y-48475000D01*
X97160458Y-48485464D01*
X96744253Y-48069260D01*
X96738162Y-48061838D01*
X96708553Y-48037539D01*
X96674773Y-48019483D01*
X96638119Y-48008364D01*
X96609545Y-48005550D01*
X96609542Y-48005550D01*
X96600000Y-48004610D01*
X96590458Y-48005550D01*
X95380544Y-48005550D01*
X94894450Y-47519457D01*
X94894450Y-47509541D01*
X94895390Y-47499999D01*
X94894450Y-47490455D01*
X94891636Y-47461881D01*
X94880517Y-47425227D01*
X94862461Y-47391447D01*
X94838162Y-47361838D01*
X94830747Y-47355753D01*
X91494450Y-44019457D01*
X91494450Y-43756500D01*
X109667000Y-43756500D01*
X109806500Y-43896000D01*
X110796000Y-43896000D01*
X110796000Y-43381500D01*
X111204000Y-43381500D01*
X111204000Y-43896000D01*
X112193500Y-43896000D01*
X112333000Y-43756500D01*
X112322552Y-43679290D01*
X112288482Y-43574788D01*
X112234679Y-43478940D01*
X112163211Y-43395430D01*
X112076824Y-43327467D01*
X111978838Y-43277664D01*
X111873018Y-43247934D01*
X111763432Y-43239419D01*
X111343500Y-43242000D01*
X111204000Y-43381500D01*
X110796000Y-43381500D01*
X110656500Y-43242000D01*
X110236568Y-43239419D01*
X110126982Y-43247934D01*
X110021162Y-43277664D01*
X109923176Y-43327467D01*
X109836789Y-43395430D01*
X109765321Y-43478940D01*
X109711518Y-43574788D01*
X109677448Y-43679290D01*
X109667000Y-43756500D01*
X91494450Y-43756500D01*
X91494450Y-42971081D01*
X91539048Y-42941281D01*
X91591281Y-42889048D01*
X91632320Y-42827629D01*
X91660589Y-42759383D01*
X91675000Y-42686934D01*
X91675000Y-42613066D01*
X91660589Y-42540617D01*
X91632320Y-42472371D01*
X91591281Y-42410952D01*
X91539048Y-42358719D01*
X91477629Y-42317680D01*
X91409383Y-42289411D01*
X91336934Y-42275000D01*
X91263066Y-42275000D01*
X91190617Y-42289411D01*
X91122371Y-42317680D01*
X91060952Y-42358719D01*
X91008719Y-42410952D01*
X90967680Y-42472371D01*
X90939411Y-42540617D01*
X90925000Y-42613066D01*
X90925000Y-42686934D01*
X90939411Y-42759383D01*
X90967680Y-42827629D01*
X91008719Y-42889048D01*
X91060952Y-42941281D01*
X91105550Y-42971081D01*
X91105551Y-44090448D01*
X91104610Y-44100000D01*
X91108365Y-44138118D01*
X91119483Y-44174772D01*
X91130504Y-44195390D01*
X91137540Y-44208553D01*
X91161839Y-44238162D01*
X91169253Y-44244246D01*
X94505550Y-47580544D01*
X94505550Y-47590458D01*
X94504610Y-47600000D01*
X94505550Y-47609542D01*
X94505550Y-47609545D01*
X94508364Y-47638119D01*
X94519483Y-47674773D01*
X94537539Y-47708553D01*
X94561839Y-47738162D01*
X94569255Y-47744248D01*
X95130556Y-48305550D01*
X93580544Y-48305550D01*
X90544253Y-45269260D01*
X90538162Y-45261838D01*
X90508553Y-45237539D01*
X90474773Y-45219483D01*
X90438119Y-45208364D01*
X90409545Y-45205550D01*
X90409542Y-45205550D01*
X90400000Y-45204610D01*
X90390458Y-45205550D01*
X86121081Y-45205550D01*
X86091281Y-45160952D01*
X86039048Y-45108719D01*
X85977629Y-45067680D01*
X85909383Y-45039411D01*
X85836934Y-45025000D01*
X85763066Y-45025000D01*
X85690617Y-45039411D01*
X85622371Y-45067680D01*
X85560952Y-45108719D01*
X85508719Y-45160952D01*
X85467680Y-45222371D01*
X85439411Y-45290617D01*
X85425000Y-45363066D01*
X84503620Y-45363066D01*
X84488119Y-45358364D01*
X84459545Y-45355550D01*
X84459542Y-45355550D01*
X84450000Y-45354610D01*
X84440458Y-45355550D01*
X79521081Y-45355550D01*
X79491281Y-45310952D01*
X79439048Y-45258719D01*
X79377629Y-45217680D01*
X79309383Y-45189411D01*
X79236934Y-45175000D01*
X79163066Y-45175000D01*
X79090617Y-45189411D01*
X79022371Y-45217680D01*
X78960952Y-45258719D01*
X78908719Y-45310952D01*
X78867680Y-45372371D01*
X78839411Y-45440617D01*
X78825000Y-45513066D01*
X69294450Y-45513066D01*
X69294450Y-43321081D01*
X69339048Y-43291281D01*
X69391281Y-43239048D01*
X69432320Y-43177629D01*
X69460589Y-43109383D01*
X69475000Y-43036934D01*
X69475000Y-42963066D01*
X69464536Y-42910458D01*
X70874994Y-41500000D01*
X89723670Y-41500000D01*
X89725001Y-41513513D01*
X89725000Y-43636497D01*
X89723670Y-43650000D01*
X89728980Y-43703909D01*
X89730389Y-43708553D01*
X89744704Y-43755746D01*
X89770240Y-43803521D01*
X89804605Y-43845395D01*
X89815100Y-43854008D01*
X93675000Y-47713909D01*
X93675000Y-47736934D01*
X93689411Y-47809383D01*
X93717680Y-47877629D01*
X93758719Y-47939048D01*
X93810952Y-47991281D01*
X93872371Y-48032320D01*
X93940617Y-48060589D01*
X94013066Y-48075000D01*
X94086934Y-48075000D01*
X94159383Y-48060589D01*
X94227629Y-48032320D01*
X94289048Y-47991281D01*
X94341281Y-47939048D01*
X94382320Y-47877629D01*
X94410589Y-47809383D01*
X94425000Y-47736934D01*
X94425000Y-47663066D01*
X94410589Y-47590617D01*
X94382320Y-47522371D01*
X94341281Y-47460952D01*
X94289048Y-47408719D01*
X94227629Y-47367680D01*
X94159383Y-47339411D01*
X94086934Y-47325000D01*
X94063909Y-47325000D01*
X90275000Y-43536092D01*
X90275000Y-41613908D01*
X92413908Y-39475000D01*
X92436934Y-39475000D01*
X92509383Y-39460589D01*
X92577629Y-39432320D01*
X92639048Y-39391281D01*
X92691281Y-39339048D01*
X92732320Y-39277629D01*
X92760589Y-39209383D01*
X92775000Y-39136934D01*
X92775000Y-39063066D01*
X92760589Y-38990617D01*
X92732320Y-38922371D01*
X92691281Y-38860952D01*
X92639048Y-38808719D01*
X92577629Y-38767680D01*
X92509383Y-38739411D01*
X92436934Y-38725000D01*
X92363066Y-38725000D01*
X92290617Y-38739411D01*
X92222371Y-38767680D01*
X92160952Y-38808719D01*
X92108719Y-38860952D01*
X92067680Y-38922371D01*
X92039411Y-38990617D01*
X92025000Y-39063066D01*
X92025000Y-39086092D01*
X89815095Y-41295997D01*
X89804606Y-41304605D01*
X89770241Y-41346479D01*
X89762505Y-41360952D01*
X89744705Y-41394253D01*
X89728980Y-41446091D01*
X89723670Y-41500000D01*
X70874994Y-41500000D01*
X74730746Y-37644248D01*
X74738162Y-37638162D01*
X74762461Y-37608553D01*
X74780517Y-37574773D01*
X74791636Y-37538119D01*
X74794450Y-37509545D01*
X74795390Y-37500000D01*
X74794450Y-37490455D01*
X74794450Y-34621081D01*
X74839048Y-34591281D01*
X74891281Y-34539048D01*
X74932320Y-34477629D01*
X74960589Y-34409383D01*
X74975000Y-34336934D01*
X74975000Y-34263066D01*
X74960589Y-34190617D01*
X74938006Y-34136099D01*
X94297694Y-34136099D01*
X94590000Y-34428407D01*
X94590001Y-38688965D01*
X94567680Y-38722371D01*
X94539411Y-38790617D01*
X94531573Y-38830020D01*
X92530022Y-40831573D01*
X92490617Y-40839411D01*
X92422371Y-40867680D01*
X92360952Y-40908719D01*
X92308719Y-40960952D01*
X92267680Y-41022371D01*
X92239411Y-41090617D01*
X92225000Y-41163066D01*
X92225000Y-41236934D01*
X92239411Y-41309383D01*
X92267680Y-41377629D01*
X92308719Y-41439048D01*
X92360952Y-41491281D01*
X92422371Y-41532320D01*
X92490617Y-41560589D01*
X92563066Y-41575000D01*
X92636934Y-41575000D01*
X92709383Y-41560589D01*
X92777629Y-41532320D01*
X92839048Y-41491281D01*
X92891281Y-41439048D01*
X92932320Y-41377629D01*
X92960589Y-41309383D01*
X92968427Y-41269978D01*
X94969980Y-39268427D01*
X95009383Y-39260589D01*
X95077629Y-39232320D01*
X95139048Y-39191281D01*
X95191281Y-39139048D01*
X95232320Y-39077629D01*
X95260589Y-39009383D01*
X95275000Y-38936934D01*
X95275000Y-38863066D01*
X95260589Y-38790617D01*
X95232320Y-38722371D01*
X95210000Y-38688967D01*
X95210000Y-34837489D01*
X111350000Y-34837489D01*
X111350000Y-35162511D01*
X111413408Y-35481287D01*
X111537789Y-35781568D01*
X111718361Y-36051814D01*
X111948186Y-36281639D01*
X112218432Y-36462211D01*
X112518713Y-36586592D01*
X112837489Y-36650000D01*
X113162511Y-36650000D01*
X113481287Y-36586592D01*
X113781568Y-36462211D01*
X114051814Y-36281639D01*
X114281639Y-36051814D01*
X114462211Y-35781568D01*
X114586592Y-35481287D01*
X114650000Y-35162511D01*
X114650000Y-34837489D01*
X114586592Y-34518713D01*
X114462211Y-34218432D01*
X114281639Y-33948186D01*
X114051814Y-33718361D01*
X113781568Y-33537789D01*
X113481287Y-33413408D01*
X113162511Y-33350000D01*
X112837489Y-33350000D01*
X112518713Y-33413408D01*
X112218432Y-33537789D01*
X111948186Y-33718361D01*
X111718361Y-33948186D01*
X111537789Y-34218432D01*
X111413408Y-34518713D01*
X111350000Y-34837489D01*
X95210000Y-34837489D01*
X95210000Y-34610000D01*
X96384790Y-34610000D01*
X96400000Y-34611498D01*
X96415210Y-34610000D01*
X96415220Y-34610000D01*
X96460770Y-34605514D01*
X96519206Y-34587788D01*
X96573060Y-34559002D01*
X96620263Y-34520263D01*
X96629970Y-34508435D01*
X96769978Y-34368427D01*
X96809383Y-34360589D01*
X96877629Y-34332320D01*
X96939048Y-34291281D01*
X96991281Y-34239048D01*
X97032320Y-34177629D01*
X97060589Y-34109383D01*
X97075000Y-34036934D01*
X97075000Y-33963066D01*
X97060589Y-33890617D01*
X97032320Y-33822371D01*
X96991281Y-33760952D01*
X96939048Y-33708719D01*
X96877629Y-33667680D01*
X96809383Y-33639411D01*
X96736934Y-33625000D01*
X96663066Y-33625000D01*
X96590617Y-33639411D01*
X96522371Y-33667680D01*
X96460952Y-33708719D01*
X96408719Y-33760952D01*
X96367680Y-33822371D01*
X96339411Y-33890617D01*
X96331573Y-33930022D01*
X96271595Y-33990000D01*
X95028407Y-33990000D01*
X94656069Y-33617664D01*
X94646362Y-33605836D01*
X94599159Y-33567097D01*
X94545305Y-33538311D01*
X94486869Y-33520585D01*
X94441319Y-33516099D01*
X94441309Y-33516099D01*
X94426099Y-33514601D01*
X94410889Y-33516099D01*
X74189111Y-33516099D01*
X74173900Y-33514601D01*
X74158690Y-33516099D01*
X74158681Y-33516099D01*
X74113131Y-33520585D01*
X74054695Y-33538311D01*
X74000841Y-33567097D01*
X73953638Y-33605836D01*
X73943934Y-33617660D01*
X73791560Y-33770034D01*
X73779738Y-33779737D01*
X73770035Y-33791560D01*
X73740999Y-33826940D01*
X73712212Y-33880795D01*
X73694487Y-33939230D01*
X73688502Y-34000000D01*
X73690001Y-34015220D01*
X73690000Y-36348700D01*
X73478701Y-36560000D01*
X73474612Y-36560000D01*
X73404888Y-36455649D01*
X73314351Y-36365112D01*
X73207890Y-36293978D01*
X73103470Y-36250725D01*
X73400000Y-36250725D01*
X73429405Y-36247829D01*
X73457680Y-36239252D01*
X73483738Y-36225323D01*
X73506579Y-36206579D01*
X73525323Y-36183738D01*
X73539252Y-36157680D01*
X73547829Y-36129405D01*
X73550725Y-36100000D01*
X73550725Y-35100000D01*
X73547829Y-35070595D01*
X73539252Y-35042320D01*
X73525323Y-35016262D01*
X73506579Y-34993421D01*
X73483738Y-34974677D01*
X73457680Y-34960748D01*
X73429405Y-34952171D01*
X73400000Y-34949275D01*
X72400000Y-34949275D01*
X72370595Y-34952171D01*
X72342320Y-34960748D01*
X72316262Y-34974677D01*
X72293421Y-34993421D01*
X72274677Y-35016262D01*
X72260748Y-35042320D01*
X72252171Y-35070595D01*
X72249275Y-35100000D01*
X72249275Y-35396530D01*
X72206022Y-35292110D01*
X72134888Y-35185649D01*
X72044351Y-35095112D01*
X71937890Y-35023978D01*
X71819598Y-34974979D01*
X71694019Y-34950000D01*
X71565981Y-34950000D01*
X71440402Y-34974979D01*
X71322110Y-35023978D01*
X71215649Y-35095112D01*
X71125112Y-35185649D01*
X71053978Y-35292110D01*
X71004979Y-35410402D01*
X70995000Y-35460570D01*
X70985021Y-35410402D01*
X70936022Y-35292110D01*
X70864888Y-35185649D01*
X70774351Y-35095112D01*
X70667890Y-35023978D01*
X70549598Y-34974979D01*
X70424019Y-34950000D01*
X70295981Y-34950000D01*
X70170402Y-34974979D01*
X70052110Y-35023978D01*
X69945649Y-35095112D01*
X69855112Y-35185649D01*
X69783978Y-35292110D01*
X69736989Y-35405550D01*
X63709541Y-35405550D01*
X63699999Y-35404610D01*
X63690457Y-35405550D01*
X63690455Y-35405550D01*
X63661881Y-35408364D01*
X63625227Y-35419483D01*
X63591447Y-35437539D01*
X63561838Y-35461838D01*
X63555747Y-35469260D01*
X61469255Y-37555752D01*
X61461839Y-37561838D01*
X61455754Y-37569253D01*
X61437539Y-37591448D01*
X61419483Y-37625228D01*
X61408365Y-37661882D01*
X61404610Y-37700000D01*
X61405551Y-37709552D01*
X61405550Y-39878919D01*
X61360952Y-39908719D01*
X61308719Y-39960952D01*
X61267680Y-40022371D01*
X61239411Y-40090617D01*
X61225000Y-40163066D01*
X55200000Y-40163066D01*
X55200000Y-34837489D01*
X56350000Y-34837489D01*
X56350000Y-35162511D01*
X56413408Y-35481287D01*
X56537789Y-35781568D01*
X56718361Y-36051814D01*
X56948186Y-36281639D01*
X57218432Y-36462211D01*
X57518713Y-36586592D01*
X57837489Y-36650000D01*
X58162511Y-36650000D01*
X58481287Y-36586592D01*
X58781568Y-36462211D01*
X59051814Y-36281639D01*
X59281639Y-36051814D01*
X59462211Y-35781568D01*
X59586592Y-35481287D01*
X59650000Y-35162511D01*
X59650000Y-34837489D01*
X59586592Y-34518713D01*
X59462211Y-34218432D01*
X59281639Y-33948186D01*
X59051814Y-33718361D01*
X58781568Y-33537789D01*
X58481287Y-33413408D01*
X58162511Y-33350000D01*
X57837489Y-33350000D01*
X57518713Y-33413408D01*
X57218432Y-33537789D01*
X56948186Y-33718361D01*
X56718361Y-33948186D01*
X56537789Y-34218432D01*
X56413408Y-34518713D01*
X56350000Y-34837489D01*
X55200000Y-34837489D01*
X55200000Y-32200000D01*
X115800001Y-32200000D01*
X115800000Y-32990183D01*
M02*
