G04 #@! TF.GenerationSoftware,KiCad,Pcbnew,(5.1.5)-3*
G04 #@! TF.CreationDate,2020-03-20T14:52:30-04:00*
G04 #@! TF.ProjectId,amp,616d702e-6b69-4636-9164-5f7063625858,0.6.0*
G04 #@! TF.SameCoordinates,Original*
G04 #@! TF.FileFunction,Legend,Bot*
G04 #@! TF.FilePolarity,Positive*
%FSLAX46Y46*%
G04 Gerber Fmt 4.6, Leading zero omitted, Abs format (unit mm)*
G04 Created by KiCad (PCBNEW (5.1.5)-3) date 2020-03-20 14:52:30*
%MOMM*%
%LPD*%
G04 APERTURE LIST*
%ADD10C,0.100000*%
%ADD11C,0.254000*%
%ADD12C,0.200000*%
%ADD13C,0.150000*%
G04 APERTURE END LIST*
D10*
X105600000Y-34450000D02*
X98550000Y-34450000D01*
X105600000Y-39150000D02*
X105600000Y-34450000D01*
X98550000Y-39150000D02*
X105600000Y-39150000D01*
X98550000Y-34450000D02*
X98550000Y-39150000D01*
X108809523Y-60535714D02*
X109190476Y-60535714D01*
X109000000Y-60726190D02*
X109000000Y-60345238D01*
X113035714Y-40490476D02*
X113035714Y-40109523D01*
X112809523Y-47885714D02*
X113190476Y-47885714D01*
X113000000Y-48076190D02*
X113000000Y-47695238D01*
D11*
X94747000Y-34117000D02*
G75*
G03X94747000Y-34117000I-111000J0D01*
G01*
X85750000Y-35900000D02*
X85750000Y-38100000D01*
X92250000Y-35900000D02*
X92250000Y-38100000D01*
X92250000Y-40000000D02*
X85750000Y-40000000D01*
X92250000Y-34000000D02*
X85750000Y-34000000D01*
D12*
X104500000Y-36100000D02*
G75*
G03X104600000Y-36100000I50000J0D01*
G01*
X104600000Y-36100000D02*
G75*
G03X104500000Y-36100000I-50000J0D01*
G01*
X104500000Y-36100000D02*
G75*
G03X104600000Y-36100000I50000J0D01*
G01*
X104600000Y-36100000D02*
X104600000Y-36100000D01*
X104500000Y-36100000D02*
X104500000Y-36100000D01*
X104600000Y-36100000D02*
X104600000Y-36100000D01*
D10*
X81000000Y-37000000D02*
G75*
G03X81000000Y-37000000I-2000000J0D01*
G01*
X81500000Y-39500000D02*
X76500000Y-39500000D01*
X81500000Y-34500000D02*
X81500000Y-39500000D01*
X76500000Y-34500000D02*
X81500000Y-34500000D01*
X76500000Y-39500000D02*
X76500000Y-34500000D01*
D11*
X90267619Y-37543047D02*
X90086190Y-37603523D01*
X89783809Y-37603523D01*
X89662857Y-37543047D01*
X89602380Y-37482571D01*
X89541904Y-37361619D01*
X89541904Y-37240666D01*
X89602380Y-37119714D01*
X89662857Y-37059238D01*
X89783809Y-36998761D01*
X90025714Y-36938285D01*
X90146666Y-36877809D01*
X90207142Y-36817333D01*
X90267619Y-36696380D01*
X90267619Y-36575428D01*
X90207142Y-36454476D01*
X90146666Y-36394000D01*
X90025714Y-36333523D01*
X89723333Y-36333523D01*
X89541904Y-36394000D01*
X88332380Y-37603523D02*
X89058095Y-37603523D01*
X88695238Y-37603523D02*
X88695238Y-36333523D01*
X88816190Y-36514952D01*
X88937142Y-36635904D01*
X89058095Y-36696380D01*
D10*
X102559523Y-34126190D02*
X102797619Y-34126190D01*
X102797619Y-33626190D01*
X102392857Y-33864285D02*
X102226190Y-33864285D01*
X102154761Y-34126190D02*
X102392857Y-34126190D01*
X102392857Y-33626190D01*
X102154761Y-33626190D01*
X101940476Y-34126190D02*
X101940476Y-33626190D01*
X101821428Y-33626190D01*
X101750000Y-33650000D01*
X101702380Y-33697619D01*
X101678571Y-33745238D01*
X101654761Y-33840476D01*
X101654761Y-33911904D01*
X101678571Y-34007142D01*
X101702380Y-34054761D01*
X101750000Y-34102380D01*
X101821428Y-34126190D01*
X101940476Y-34126190D01*
X101178571Y-34126190D02*
X101464285Y-34126190D01*
X101321428Y-34126190D02*
X101321428Y-33626190D01*
X101369047Y-33697619D01*
X101416666Y-33745238D01*
X101464285Y-33769047D01*
D13*
X79590476Y-37361904D02*
X79590476Y-36561904D01*
X79400000Y-36561904D01*
X79285714Y-36600000D01*
X79209523Y-36676190D01*
X79171428Y-36752380D01*
X79133333Y-36904761D01*
X79133333Y-37019047D01*
X79171428Y-37171428D01*
X79209523Y-37247619D01*
X79285714Y-37323809D01*
X79400000Y-37361904D01*
X79590476Y-37361904D01*
X78371428Y-37361904D02*
X78828571Y-37361904D01*
X78600000Y-37361904D02*
X78600000Y-36561904D01*
X78676190Y-36676190D01*
X78752380Y-36752380D01*
X78828571Y-36790476D01*
X74564285Y-39052380D02*
X75135714Y-39052380D01*
X74850000Y-39052380D02*
X74850000Y-38052380D01*
X74945238Y-38195238D01*
X75040476Y-38290476D01*
X75135714Y-38338095D01*
X112452380Y-43761666D02*
X113166666Y-43761666D01*
X113309523Y-43714047D01*
X113404761Y-43618809D01*
X113452380Y-43475952D01*
X113452380Y-43380714D01*
X112452380Y-44142619D02*
X112452380Y-44761666D01*
X112833333Y-44428333D01*
X112833333Y-44571190D01*
X112880952Y-44666428D01*
X112928571Y-44714047D01*
X113023809Y-44761666D01*
X113261904Y-44761666D01*
X113357142Y-44714047D01*
X113404761Y-44666428D01*
X113452380Y-44571190D01*
X113452380Y-44285476D01*
X113404761Y-44190238D01*
X113357142Y-44142619D01*
M02*
