G04 #@! TF.GenerationSoftware,KiCad,Pcbnew,(5.1.5)-3*
G04 #@! TF.CreationDate,2020-05-02T18:46:00-04:00*
G04 #@! TF.ProjectId,amp,616d702e-6b69-4636-9164-5f7063625858,0.6.0*
G04 #@! TF.SameCoordinates,Original*
G04 #@! TF.FileFunction,Legend,Top*
G04 #@! TF.FilePolarity,Positive*
%FSLAX46Y46*%
G04 Gerber Fmt 4.6, Leading zero omitted, Abs format (unit mm)*
G04 Created by KiCad (PCBNEW (5.1.5)-3) date 2020-05-02 18:46:00*
%MOMM*%
%LPD*%
G04 APERTURE LIST*
%ADD10C,0.250000*%
%ADD11C,0.100000*%
%ADD12C,0.200000*%
%ADD13C,0.010000*%
%ADD14C,0.120000*%
%ADD15C,0.127000*%
%ADD16C,0.300000*%
%ADD17C,0.254000*%
%ADD18C,0.150000*%
G04 APERTURE END LIST*
D10*
X99357142Y-59916666D02*
X99833333Y-59916666D01*
X99261904Y-60202380D02*
X99595238Y-59202380D01*
X99928571Y-60202380D01*
X100261904Y-60202380D02*
X100261904Y-59535714D01*
X100261904Y-59630952D02*
X100309523Y-59583333D01*
X100404761Y-59535714D01*
X100547619Y-59535714D01*
X100642857Y-59583333D01*
X100690476Y-59678571D01*
X100690476Y-60202380D01*
X100690476Y-59678571D02*
X100738095Y-59583333D01*
X100833333Y-59535714D01*
X100976190Y-59535714D01*
X101071428Y-59583333D01*
X101119047Y-59678571D01*
X101119047Y-60202380D01*
X101595238Y-59535714D02*
X101595238Y-60535714D01*
X101595238Y-59583333D02*
X101690476Y-59535714D01*
X101880952Y-59535714D01*
X101976190Y-59583333D01*
X102023809Y-59630952D01*
X102071428Y-59726190D01*
X102071428Y-60011904D01*
X102023809Y-60107142D01*
X101976190Y-60154761D01*
X101880952Y-60202380D01*
X101690476Y-60202380D01*
X101595238Y-60154761D01*
X103452380Y-59202380D02*
X103547619Y-59202380D01*
X103642857Y-59250000D01*
X103690476Y-59297619D01*
X103738095Y-59392857D01*
X103785714Y-59583333D01*
X103785714Y-59821428D01*
X103738095Y-60011904D01*
X103690476Y-60107142D01*
X103642857Y-60154761D01*
X103547619Y-60202380D01*
X103452380Y-60202380D01*
X103357142Y-60154761D01*
X103309523Y-60107142D01*
X103261904Y-60011904D01*
X103214285Y-59821428D01*
X103214285Y-59583333D01*
X103261904Y-59392857D01*
X103309523Y-59297619D01*
X103357142Y-59250000D01*
X103452380Y-59202380D01*
X104214285Y-60107142D02*
X104261904Y-60154761D01*
X104214285Y-60202380D01*
X104166666Y-60154761D01*
X104214285Y-60107142D01*
X104214285Y-60202380D01*
X104595238Y-59202380D02*
X105261904Y-59202380D01*
X104833333Y-60202380D01*
X105642857Y-60107142D02*
X105690476Y-60154761D01*
X105642857Y-60202380D01*
X105595238Y-60154761D01*
X105642857Y-60107142D01*
X105642857Y-60202380D01*
X106309523Y-59202380D02*
X106404761Y-59202380D01*
X106500000Y-59250000D01*
X106547619Y-59297619D01*
X106595238Y-59392857D01*
X106642857Y-59583333D01*
X106642857Y-59821428D01*
X106595238Y-60011904D01*
X106547619Y-60107142D01*
X106500000Y-60154761D01*
X106404761Y-60202380D01*
X106309523Y-60202380D01*
X106214285Y-60154761D01*
X106166666Y-60107142D01*
X106119047Y-60011904D01*
X106071428Y-59821428D01*
X106071428Y-59583333D01*
X106119047Y-59392857D01*
X106166666Y-59297619D01*
X106214285Y-59250000D01*
X106309523Y-59202380D01*
D11*
X64650000Y-60000000D02*
X63550000Y-60000000D01*
X64650000Y-57700000D02*
X64650000Y-60000000D01*
X63550000Y-60000000D02*
X63550000Y-57700000D01*
X63550000Y-57700000D02*
X64650000Y-57700000D01*
X93850000Y-50100000D02*
X93850000Y-46500000D01*
X98150000Y-50100000D02*
X93850000Y-50100000D01*
X98150000Y-46500000D02*
X98150000Y-50100000D01*
X93850000Y-46500000D02*
X98150000Y-46500000D01*
X100200000Y-48200000D02*
X100200000Y-51800000D01*
X104400000Y-51800000D02*
X100200000Y-51800000D01*
X104400000Y-48200000D02*
X104400000Y-51800000D01*
X100200000Y-48200000D02*
X104400000Y-48200000D01*
X98450000Y-51200000D02*
X98450000Y-48200000D01*
X100050000Y-51200000D02*
X98450000Y-51200000D01*
X100050000Y-48200000D02*
X100050000Y-51200000D01*
X98450000Y-48200000D02*
X100050000Y-48200000D01*
X98300000Y-47950000D02*
X98300000Y-44000000D01*
X100700000Y-47950000D02*
X98300000Y-47950000D01*
X100700000Y-44000000D02*
X100700000Y-47950000D01*
X98300000Y-44000000D02*
X100700000Y-44000000D01*
X98150000Y-46300000D02*
X95650000Y-46300000D01*
X95650000Y-45100000D02*
X95650000Y-46300000D01*
X98150000Y-45100000D02*
X98150000Y-46300000D01*
X95650000Y-45100000D02*
X98150000Y-45100000D01*
X92650000Y-46350000D02*
X92650000Y-45250000D01*
X94950000Y-46350000D02*
X92650000Y-46350000D01*
X94950000Y-45250000D02*
X94950000Y-46350000D01*
X92650000Y-45250000D02*
X94950000Y-45250000D01*
X101400000Y-43950000D02*
X101400000Y-42450000D01*
X104400000Y-43950000D02*
X101400000Y-43950000D01*
X104400000Y-42450000D02*
X104400000Y-43950000D01*
X101400000Y-42450000D02*
X104400000Y-42450000D01*
X104550000Y-49600000D02*
X104550000Y-46600000D01*
X106050000Y-49600000D02*
X104550000Y-49600000D01*
X106050000Y-46600000D02*
X106050000Y-49600000D01*
X104550000Y-46600000D02*
X106050000Y-46600000D01*
X108050000Y-48750000D02*
X106200000Y-48750000D01*
X108050000Y-49650000D02*
X108050000Y-48750000D01*
X106200000Y-49650000D02*
X108050000Y-49650000D01*
X106200000Y-48750000D02*
X106200000Y-49650000D01*
X104600000Y-53250000D02*
X104600000Y-49750000D01*
X107800000Y-53250000D02*
X104600000Y-53250000D01*
X107800000Y-49750000D02*
X107800000Y-53250000D01*
X104600000Y-49750000D02*
X107800000Y-49750000D01*
X100250000Y-52900000D02*
X100250000Y-51900000D01*
X102550000Y-52900000D02*
X100250000Y-52900000D01*
X102550000Y-51900000D02*
X102550000Y-52900000D01*
X100300000Y-51900000D02*
X102550000Y-51900000D01*
X106000000Y-54350000D02*
X106000000Y-53450000D01*
X107800000Y-54350000D02*
X106000000Y-54350000D01*
X107800000Y-53450000D02*
X107800000Y-54350000D01*
X106000000Y-53450000D02*
X107800000Y-53450000D01*
X103250000Y-53000000D02*
X104350000Y-53000000D01*
X89550000Y-61500000D02*
X89550000Y-59650000D01*
X90450000Y-61500000D02*
X89550000Y-61500000D01*
X90450000Y-59650000D02*
X90450000Y-61500000D01*
X89550000Y-59650000D02*
X90450000Y-59650000D01*
D12*
X68200000Y-47600000D02*
G75*
G03X68200000Y-47600000I-100000J0D01*
G01*
D11*
X64600000Y-56100000D02*
X63100000Y-56100000D01*
X64600000Y-57100000D02*
X64600000Y-56100000D01*
X63100000Y-57100000D02*
X64600000Y-57100000D01*
X63100000Y-56100000D02*
X63100000Y-57100000D01*
X64600000Y-53200000D02*
X63200000Y-53200000D01*
X64600000Y-54200000D02*
X64600000Y-53200000D01*
X63200000Y-54200000D02*
X64600000Y-54200000D01*
X63200000Y-53200000D02*
X63200000Y-54200000D01*
X64300000Y-49800000D02*
X63200000Y-49800000D01*
X64300000Y-52200000D02*
X64300000Y-49800000D01*
X63100000Y-52200000D02*
X64300000Y-52200000D01*
X63100000Y-50000000D02*
X63100000Y-52200000D01*
X64400000Y-49700000D02*
X63200000Y-49700000D01*
X64400000Y-46900000D02*
X64400000Y-49700000D01*
X62900000Y-46900000D02*
X64400000Y-46900000D01*
X62900000Y-47200000D02*
X62900000Y-46900000D01*
X62900000Y-47200000D02*
X62900000Y-49600000D01*
X61700000Y-47200000D02*
X62900000Y-47200000D01*
X61700000Y-49600000D02*
X61700000Y-47200000D01*
X62900000Y-49600000D02*
X61700000Y-49600000D01*
X59200000Y-49500000D02*
X59200000Y-48300000D01*
X61600000Y-49500000D02*
X59200000Y-49500000D01*
X61600000Y-48300000D02*
X61600000Y-49500000D01*
X59200000Y-48300000D02*
X61600000Y-48300000D01*
X59700000Y-48200000D02*
X59700000Y-47200000D01*
X61500000Y-48200000D02*
X59700000Y-48200000D01*
X61500000Y-47200000D02*
X61500000Y-48200000D01*
X59700000Y-47200000D02*
X61500000Y-47200000D01*
X56300000Y-48000000D02*
X58700000Y-48000000D01*
X56300000Y-46800000D02*
X56300000Y-48000000D01*
X58700000Y-46800000D02*
X56300000Y-46800000D01*
X58700000Y-48000000D02*
X58700000Y-46800000D01*
X63200000Y-45900000D02*
X63200000Y-41900000D01*
X59200000Y-45900000D02*
X63200000Y-45900000D01*
X66900000Y-54200000D02*
G75*
G03X66900000Y-54200000I-300000J0D01*
G01*
X66700000Y-54200000D02*
G75*
G03X66700000Y-54200000I-100000J0D01*
G01*
X67033333Y-54626190D02*
X67366666Y-54626190D01*
X67033333Y-55126190D01*
X67366666Y-55126190D01*
X66100000Y-55688095D02*
X66100000Y-55926190D01*
X65933333Y-55426190D02*
X66100000Y-55688095D01*
X66266666Y-55426190D01*
X67533333Y-53326190D02*
X67866666Y-53826190D01*
X67866666Y-53326190D02*
X67533333Y-53826190D01*
X68200000Y-54200000D02*
X68000000Y-54400000D01*
X68200000Y-54200000D02*
X68000000Y-54000000D01*
X66600000Y-54200000D02*
X68200000Y-54200000D01*
X66600000Y-55900000D02*
X66400000Y-55700000D01*
X66600000Y-55900000D02*
X66800000Y-55700000D01*
X66600000Y-54200000D02*
X66600000Y-55900000D01*
X68050000Y-40000000D02*
X65750000Y-40000000D01*
X68050000Y-41000000D02*
X68050000Y-40000000D01*
X65750000Y-41000000D02*
X68050000Y-41000000D01*
X65750000Y-40000000D02*
X65750000Y-41000000D01*
X65550000Y-40000000D02*
X63250000Y-40000000D01*
X65550000Y-41000000D02*
X65550000Y-40000000D01*
X63250000Y-41000000D02*
X65550000Y-41000000D01*
X63250000Y-40000000D02*
X63250000Y-41000000D01*
X63200000Y-41900000D02*
X59200000Y-41900000D01*
X59200000Y-41900000D02*
X59200000Y-45900000D01*
X56400000Y-46550000D02*
X58200000Y-46550000D01*
X56400000Y-45650000D02*
X56400000Y-46550000D01*
X58200000Y-45650000D02*
X56400000Y-45650000D01*
X58200000Y-46550000D02*
X58200000Y-45650000D01*
X65000000Y-48350000D02*
X65000000Y-51350000D01*
X66500000Y-48350000D02*
X65000000Y-48350000D01*
X66500000Y-51350000D02*
X66500000Y-48350000D01*
X65000000Y-51350000D02*
X66500000Y-51350000D01*
X66750000Y-50200000D02*
X67650000Y-50200000D01*
X66750000Y-48400000D02*
X66750000Y-50200000D01*
X67650000Y-48400000D02*
X66750000Y-48400000D01*
X67650000Y-50200000D02*
X67650000Y-48400000D01*
X68200000Y-50200000D02*
X68250000Y-50200000D01*
X67850000Y-50200000D02*
X68700000Y-50200000D01*
X67850000Y-48400000D02*
X67850000Y-50200000D01*
X68750000Y-48400000D02*
X67850000Y-48400000D01*
X68750000Y-50200000D02*
X68750000Y-48400000D01*
X90550000Y-58200000D02*
X90550000Y-56350000D01*
X90500000Y-58200000D02*
X90550000Y-58200000D01*
X89600000Y-58200000D02*
X90500000Y-58200000D01*
X89600000Y-56350000D02*
X89600000Y-58200000D01*
X90550000Y-56350000D02*
X89600000Y-56350000D01*
X91900000Y-58150000D02*
X91900000Y-55850000D01*
X90900000Y-58150000D02*
X91900000Y-58150000D01*
X90900000Y-55850000D02*
X90900000Y-58150000D01*
X91900000Y-55850000D02*
X90900000Y-55850000D01*
X90850000Y-58500000D02*
X90850000Y-61500000D01*
X92350000Y-58500000D02*
X90850000Y-58500000D01*
X92350000Y-61500000D02*
X92350000Y-58500000D01*
X90850000Y-61500000D02*
X92350000Y-61500000D01*
D12*
X70221428Y-32540476D02*
X70126190Y-32492857D01*
X69935714Y-32492857D01*
X69840476Y-32540476D01*
X69745238Y-32635714D01*
X69697619Y-32730952D01*
X69697619Y-32921428D01*
X69745238Y-33016666D01*
X69840476Y-33111904D01*
X69935714Y-33159523D01*
X70126190Y-33159523D01*
X70221428Y-33111904D01*
X70030952Y-32159523D02*
X69792857Y-32207142D01*
X69554761Y-32350000D01*
X69411904Y-32588095D01*
X69364285Y-32826190D01*
X69411904Y-33064285D01*
X69554761Y-33302380D01*
X69792857Y-33445238D01*
X70030952Y-33492857D01*
X70269047Y-33445238D01*
X70507142Y-33302380D01*
X70650000Y-33064285D01*
X70697619Y-32826190D01*
X70650000Y-32588095D01*
X70507142Y-32350000D01*
X70269047Y-32207142D01*
X70030952Y-32159523D01*
X71840476Y-32397619D02*
X71888095Y-32350000D01*
X71983333Y-32302380D01*
X72221428Y-32302380D01*
X72316666Y-32350000D01*
X72364285Y-32397619D01*
X72411904Y-32492857D01*
X72411904Y-32588095D01*
X72364285Y-32730952D01*
X71792857Y-33302380D01*
X72411904Y-33302380D01*
X73030952Y-32302380D02*
X73126190Y-32302380D01*
X73221428Y-32350000D01*
X73269047Y-32397619D01*
X73316666Y-32492857D01*
X73364285Y-32683333D01*
X73364285Y-32921428D01*
X73316666Y-33111904D01*
X73269047Y-33207142D01*
X73221428Y-33254761D01*
X73126190Y-33302380D01*
X73030952Y-33302380D01*
X72935714Y-33254761D01*
X72888095Y-33207142D01*
X72840476Y-33111904D01*
X72792857Y-32921428D01*
X72792857Y-32683333D01*
X72840476Y-32492857D01*
X72888095Y-32397619D01*
X72935714Y-32350000D01*
X73030952Y-32302380D01*
X73745238Y-32397619D02*
X73792857Y-32350000D01*
X73888095Y-32302380D01*
X74126190Y-32302380D01*
X74221428Y-32350000D01*
X74269047Y-32397619D01*
X74316666Y-32492857D01*
X74316666Y-32588095D01*
X74269047Y-32730952D01*
X73697619Y-33302380D01*
X74316666Y-33302380D01*
X74935714Y-32302380D02*
X75030952Y-32302380D01*
X75126190Y-32350000D01*
X75173809Y-32397619D01*
X75221428Y-32492857D01*
X75269047Y-32683333D01*
X75269047Y-32921428D01*
X75221428Y-33111904D01*
X75173809Y-33207142D01*
X75126190Y-33254761D01*
X75030952Y-33302380D01*
X74935714Y-33302380D01*
X74840476Y-33254761D01*
X74792857Y-33207142D01*
X74745238Y-33111904D01*
X74697619Y-32921428D01*
X74697619Y-32683333D01*
X74745238Y-32492857D01*
X74792857Y-32397619D01*
X74840476Y-32350000D01*
X74935714Y-32302380D01*
X76459523Y-33302380D02*
X76459523Y-32302380D01*
X76935714Y-32635714D02*
X76935714Y-33302380D01*
X76935714Y-32730952D02*
X76983333Y-32683333D01*
X77078571Y-32635714D01*
X77221428Y-32635714D01*
X77316666Y-32683333D01*
X77364285Y-32778571D01*
X77364285Y-33302380D01*
X77697619Y-32635714D02*
X78078571Y-32635714D01*
X77840476Y-32302380D02*
X77840476Y-33159523D01*
X77888095Y-33254761D01*
X77983333Y-33302380D01*
X78078571Y-33302380D01*
X78792857Y-33254761D02*
X78697619Y-33302380D01*
X78507142Y-33302380D01*
X78411904Y-33254761D01*
X78364285Y-33159523D01*
X78364285Y-32778571D01*
X78411904Y-32683333D01*
X78507142Y-32635714D01*
X78697619Y-32635714D01*
X78792857Y-32683333D01*
X78840476Y-32778571D01*
X78840476Y-32873809D01*
X78364285Y-32969047D01*
X79269047Y-32635714D02*
X79269047Y-33302380D01*
X79269047Y-32730952D02*
X79316666Y-32683333D01*
X79411904Y-32635714D01*
X79554761Y-32635714D01*
X79650000Y-32683333D01*
X79697619Y-32778571D01*
X79697619Y-33302380D01*
X80030952Y-32635714D02*
X80411904Y-32635714D01*
X80173809Y-32302380D02*
X80173809Y-33159523D01*
X80221428Y-33254761D01*
X80316666Y-33302380D01*
X80411904Y-33302380D01*
X80602380Y-32635714D02*
X80983333Y-32635714D01*
X80745238Y-33302380D02*
X80745238Y-32445238D01*
X80792857Y-32350000D01*
X80888095Y-32302380D01*
X80983333Y-32302380D01*
X81745238Y-32635714D02*
X81745238Y-33302380D01*
X81316666Y-32635714D02*
X81316666Y-33159523D01*
X81364285Y-33254761D01*
X81459523Y-33302380D01*
X81602380Y-33302380D01*
X81697619Y-33254761D01*
X81745238Y-33207142D01*
X82364285Y-33302380D02*
X82269047Y-33254761D01*
X82221428Y-33159523D01*
X82221428Y-32302380D01*
X83507142Y-33302380D02*
X83507142Y-32302380D01*
X83840476Y-33016666D01*
X84173809Y-32302380D01*
X84173809Y-33302380D01*
X84792857Y-33302380D02*
X84697619Y-33254761D01*
X84650000Y-33207142D01*
X84602380Y-33111904D01*
X84602380Y-32826190D01*
X84650000Y-32730952D01*
X84697619Y-32683333D01*
X84792857Y-32635714D01*
X84935714Y-32635714D01*
X85030952Y-32683333D01*
X85078571Y-32730952D01*
X85126190Y-32826190D01*
X85126190Y-33111904D01*
X85078571Y-33207142D01*
X85030952Y-33254761D01*
X84935714Y-33302380D01*
X84792857Y-33302380D01*
X85411904Y-32635714D02*
X85792857Y-32635714D01*
X85554761Y-32302380D02*
X85554761Y-33159523D01*
X85602380Y-33254761D01*
X85697619Y-33302380D01*
X85792857Y-33302380D01*
X86126190Y-33302380D02*
X86126190Y-32635714D01*
X86126190Y-32302380D02*
X86078571Y-32350000D01*
X86126190Y-32397619D01*
X86173809Y-32350000D01*
X86126190Y-32302380D01*
X86126190Y-32397619D01*
X86745238Y-33302380D02*
X86650000Y-33254761D01*
X86602380Y-33207142D01*
X86554761Y-33111904D01*
X86554761Y-32826190D01*
X86602380Y-32730952D01*
X86650000Y-32683333D01*
X86745238Y-32635714D01*
X86888095Y-32635714D01*
X86983333Y-32683333D01*
X87030952Y-32730952D01*
X87078571Y-32826190D01*
X87078571Y-33111904D01*
X87030952Y-33207142D01*
X86983333Y-33254761D01*
X86888095Y-33302380D01*
X86745238Y-33302380D01*
X87507142Y-32635714D02*
X87507142Y-33302380D01*
X87507142Y-32730952D02*
X87554761Y-32683333D01*
X87650000Y-32635714D01*
X87792857Y-32635714D01*
X87888095Y-32683333D01*
X87935714Y-32778571D01*
X87935714Y-33302380D01*
X88459523Y-33254761D02*
X88459523Y-33302380D01*
X88411904Y-33397619D01*
X88364285Y-33445238D01*
X89650000Y-33302380D02*
X89650000Y-32302380D01*
X90126190Y-32635714D02*
X90126190Y-33302380D01*
X90126190Y-32730952D02*
X90173809Y-32683333D01*
X90269047Y-32635714D01*
X90411904Y-32635714D01*
X90507142Y-32683333D01*
X90554761Y-32778571D01*
X90554761Y-33302380D01*
X91459523Y-33254761D02*
X91364285Y-33302380D01*
X91173809Y-33302380D01*
X91078571Y-33254761D01*
X91030952Y-33207142D01*
X90983333Y-33111904D01*
X90983333Y-32826190D01*
X91030952Y-32730952D01*
X91078571Y-32683333D01*
X91173809Y-32635714D01*
X91364285Y-32635714D01*
X91459523Y-32683333D01*
X91888095Y-33207142D02*
X91935714Y-33254761D01*
X91888095Y-33302380D01*
X91840476Y-33254761D01*
X91888095Y-33207142D01*
X91888095Y-33302380D01*
D13*
G36*
X103239631Y-54339100D02*
G01*
X103511164Y-54395724D01*
X103551933Y-54407124D01*
X103616583Y-54428311D01*
X103694670Y-54457699D01*
X103779853Y-54492450D01*
X103865792Y-54529724D01*
X103946146Y-54566681D01*
X104014576Y-54600481D01*
X104064739Y-54628284D01*
X104090296Y-54647251D01*
X104091363Y-54648724D01*
X104078872Y-54659966D01*
X104039122Y-54687029D01*
X103974120Y-54728689D01*
X103885873Y-54783723D01*
X103776386Y-54850907D01*
X103647666Y-54929017D01*
X103501719Y-55016830D01*
X103340552Y-55113122D01*
X103166171Y-55216669D01*
X102980581Y-55326247D01*
X102980299Y-55326413D01*
X102764650Y-55453441D01*
X102576406Y-55564559D01*
X102413769Y-55661009D01*
X102274945Y-55744037D01*
X102158136Y-55814887D01*
X102061547Y-55874802D01*
X101983381Y-55925027D01*
X101921844Y-55966807D01*
X101875137Y-56001386D01*
X101841467Y-56030007D01*
X101819036Y-56053916D01*
X101806048Y-56074356D01*
X101800708Y-56092572D01*
X101801219Y-56109809D01*
X101805785Y-56127309D01*
X101809407Y-56137586D01*
X101817994Y-56151226D01*
X101836259Y-56167107D01*
X101867246Y-56186761D01*
X101913996Y-56211719D01*
X101979552Y-56243514D01*
X102066956Y-56283677D01*
X102179252Y-56333738D01*
X102319481Y-56395231D01*
X102332733Y-56401010D01*
X102455128Y-56454435D01*
X102567279Y-56503499D01*
X102665493Y-56546581D01*
X102746080Y-56582056D01*
X102805348Y-56608301D01*
X102839605Y-56623691D01*
X102846695Y-56627091D01*
X102836943Y-56640216D01*
X102807649Y-56676682D01*
X102761001Y-56733857D01*
X102699192Y-56809107D01*
X102624409Y-56899801D01*
X102538844Y-57003305D01*
X102444686Y-57116986D01*
X102344125Y-57238212D01*
X102239351Y-57364351D01*
X102132554Y-57492768D01*
X102025923Y-57620832D01*
X101921650Y-57745910D01*
X101821923Y-57865369D01*
X101728933Y-57976576D01*
X101644870Y-58076899D01*
X101571923Y-58163705D01*
X101512283Y-58234361D01*
X101468139Y-58286234D01*
X101441682Y-58316691D01*
X101437145Y-58321659D01*
X101418938Y-58327669D01*
X101389845Y-58312924D01*
X101349301Y-58279325D01*
X101164587Y-58090653D01*
X101005513Y-57882266D01*
X100872695Y-57657265D01*
X100766749Y-57418754D01*
X100688290Y-57169834D01*
X100637933Y-56913609D01*
X100616294Y-56653182D01*
X100623988Y-56391654D01*
X100661630Y-56132129D01*
X100729837Y-55877708D01*
X100825621Y-55639072D01*
X100959240Y-55394400D01*
X101116971Y-55171889D01*
X101296499Y-54972584D01*
X101495509Y-54797531D01*
X101711686Y-54647777D01*
X101942716Y-54524368D01*
X102186283Y-54428349D01*
X102440073Y-54360766D01*
X102701771Y-54322667D01*
X102969062Y-54315096D01*
X103239631Y-54339100D01*
G37*
X103239631Y-54339100D02*
X103511164Y-54395724D01*
X103551933Y-54407124D01*
X103616583Y-54428311D01*
X103694670Y-54457699D01*
X103779853Y-54492450D01*
X103865792Y-54529724D01*
X103946146Y-54566681D01*
X104014576Y-54600481D01*
X104064739Y-54628284D01*
X104090296Y-54647251D01*
X104091363Y-54648724D01*
X104078872Y-54659966D01*
X104039122Y-54687029D01*
X103974120Y-54728689D01*
X103885873Y-54783723D01*
X103776386Y-54850907D01*
X103647666Y-54929017D01*
X103501719Y-55016830D01*
X103340552Y-55113122D01*
X103166171Y-55216669D01*
X102980581Y-55326247D01*
X102980299Y-55326413D01*
X102764650Y-55453441D01*
X102576406Y-55564559D01*
X102413769Y-55661009D01*
X102274945Y-55744037D01*
X102158136Y-55814887D01*
X102061547Y-55874802D01*
X101983381Y-55925027D01*
X101921844Y-55966807D01*
X101875137Y-56001386D01*
X101841467Y-56030007D01*
X101819036Y-56053916D01*
X101806048Y-56074356D01*
X101800708Y-56092572D01*
X101801219Y-56109809D01*
X101805785Y-56127309D01*
X101809407Y-56137586D01*
X101817994Y-56151226D01*
X101836259Y-56167107D01*
X101867246Y-56186761D01*
X101913996Y-56211719D01*
X101979552Y-56243514D01*
X102066956Y-56283677D01*
X102179252Y-56333738D01*
X102319481Y-56395231D01*
X102332733Y-56401010D01*
X102455128Y-56454435D01*
X102567279Y-56503499D01*
X102665493Y-56546581D01*
X102746080Y-56582056D01*
X102805348Y-56608301D01*
X102839605Y-56623691D01*
X102846695Y-56627091D01*
X102836943Y-56640216D01*
X102807649Y-56676682D01*
X102761001Y-56733857D01*
X102699192Y-56809107D01*
X102624409Y-56899801D01*
X102538844Y-57003305D01*
X102444686Y-57116986D01*
X102344125Y-57238212D01*
X102239351Y-57364351D01*
X102132554Y-57492768D01*
X102025923Y-57620832D01*
X101921650Y-57745910D01*
X101821923Y-57865369D01*
X101728933Y-57976576D01*
X101644870Y-58076899D01*
X101571923Y-58163705D01*
X101512283Y-58234361D01*
X101468139Y-58286234D01*
X101441682Y-58316691D01*
X101437145Y-58321659D01*
X101418938Y-58327669D01*
X101389845Y-58312924D01*
X101349301Y-58279325D01*
X101164587Y-58090653D01*
X101005513Y-57882266D01*
X100872695Y-57657265D01*
X100766749Y-57418754D01*
X100688290Y-57169834D01*
X100637933Y-56913609D01*
X100616294Y-56653182D01*
X100623988Y-56391654D01*
X100661630Y-56132129D01*
X100729837Y-55877708D01*
X100825621Y-55639072D01*
X100959240Y-55394400D01*
X101116971Y-55171889D01*
X101296499Y-54972584D01*
X101495509Y-54797531D01*
X101711686Y-54647777D01*
X101942716Y-54524368D01*
X102186283Y-54428349D01*
X102440073Y-54360766D01*
X102701771Y-54322667D01*
X102969062Y-54315096D01*
X103239631Y-54339100D01*
G36*
X104432466Y-54903100D02*
G01*
X104519901Y-54987185D01*
X104614400Y-55090589D01*
X104706976Y-55202807D01*
X104788648Y-55313333D01*
X104808464Y-55342739D01*
X104945847Y-55580897D01*
X105051693Y-55827101D01*
X105126682Y-56078960D01*
X105171496Y-56334079D01*
X105186814Y-56590067D01*
X105173318Y-56844530D01*
X105131688Y-57095076D01*
X105062603Y-57339311D01*
X104966746Y-57574843D01*
X104844797Y-57799279D01*
X104697435Y-58010226D01*
X104525342Y-58205292D01*
X104329198Y-58382082D01*
X104109684Y-58538205D01*
X103867480Y-58671267D01*
X103860927Y-58674378D01*
X103629680Y-58766412D01*
X103382209Y-58833065D01*
X103125847Y-58873288D01*
X102867924Y-58886033D01*
X102615775Y-58870251D01*
X102552866Y-58861471D01*
X102289673Y-58803274D01*
X102030712Y-58711799D01*
X101892466Y-58648393D01*
X101813331Y-58608267D01*
X101742243Y-58570718D01*
X101686324Y-58539613D01*
X101652696Y-58518815D01*
X101650011Y-58516819D01*
X101610755Y-58486177D01*
X103043025Y-57439913D01*
X103238995Y-57296569D01*
X103427379Y-57158406D01*
X103606354Y-57026780D01*
X103774099Y-56903047D01*
X103928792Y-56788565D01*
X104068609Y-56684689D01*
X104191728Y-56592776D01*
X104296327Y-56514183D01*
X104380584Y-56450267D01*
X104442677Y-56402383D01*
X104480782Y-56371888D01*
X104492995Y-56360575D01*
X104504256Y-56319717D01*
X104505447Y-56275223D01*
X104503293Y-56260057D01*
X104497912Y-56246658D01*
X104485922Y-56233355D01*
X104463943Y-56218476D01*
X104428594Y-56200349D01*
X104376494Y-56177302D01*
X104304263Y-56147664D01*
X104208519Y-56109763D01*
X104085882Y-56061926D01*
X104030870Y-56040540D01*
X103911783Y-55994285D01*
X103802664Y-55951956D01*
X103707581Y-55915125D01*
X103630599Y-55885367D01*
X103575784Y-55864253D01*
X103547203Y-55853358D01*
X103544304Y-55852301D01*
X103550926Y-55838506D01*
X103577173Y-55801670D01*
X103620809Y-55744617D01*
X103679599Y-55670171D01*
X103751306Y-55581156D01*
X103833694Y-55480397D01*
X103924526Y-55370716D01*
X103945900Y-55345096D01*
X104364733Y-54843726D01*
X104432466Y-54903100D01*
G37*
X104432466Y-54903100D02*
X104519901Y-54987185D01*
X104614400Y-55090589D01*
X104706976Y-55202807D01*
X104788648Y-55313333D01*
X104808464Y-55342739D01*
X104945847Y-55580897D01*
X105051693Y-55827101D01*
X105126682Y-56078960D01*
X105171496Y-56334079D01*
X105186814Y-56590067D01*
X105173318Y-56844530D01*
X105131688Y-57095076D01*
X105062603Y-57339311D01*
X104966746Y-57574843D01*
X104844797Y-57799279D01*
X104697435Y-58010226D01*
X104525342Y-58205292D01*
X104329198Y-58382082D01*
X104109684Y-58538205D01*
X103867480Y-58671267D01*
X103860927Y-58674378D01*
X103629680Y-58766412D01*
X103382209Y-58833065D01*
X103125847Y-58873288D01*
X102867924Y-58886033D01*
X102615775Y-58870251D01*
X102552866Y-58861471D01*
X102289673Y-58803274D01*
X102030712Y-58711799D01*
X101892466Y-58648393D01*
X101813331Y-58608267D01*
X101742243Y-58570718D01*
X101686324Y-58539613D01*
X101652696Y-58518815D01*
X101650011Y-58516819D01*
X101610755Y-58486177D01*
X103043025Y-57439913D01*
X103238995Y-57296569D01*
X103427379Y-57158406D01*
X103606354Y-57026780D01*
X103774099Y-56903047D01*
X103928792Y-56788565D01*
X104068609Y-56684689D01*
X104191728Y-56592776D01*
X104296327Y-56514183D01*
X104380584Y-56450267D01*
X104442677Y-56402383D01*
X104480782Y-56371888D01*
X104492995Y-56360575D01*
X104504256Y-56319717D01*
X104505447Y-56275223D01*
X104503293Y-56260057D01*
X104497912Y-56246658D01*
X104485922Y-56233355D01*
X104463943Y-56218476D01*
X104428594Y-56200349D01*
X104376494Y-56177302D01*
X104304263Y-56147664D01*
X104208519Y-56109763D01*
X104085882Y-56061926D01*
X104030870Y-56040540D01*
X103911783Y-55994285D01*
X103802664Y-55951956D01*
X103707581Y-55915125D01*
X103630599Y-55885367D01*
X103575784Y-55864253D01*
X103547203Y-55853358D01*
X103544304Y-55852301D01*
X103550926Y-55838506D01*
X103577173Y-55801670D01*
X103620809Y-55744617D01*
X103679599Y-55670171D01*
X103751306Y-55581156D01*
X103833694Y-55480397D01*
X103924526Y-55370716D01*
X103945900Y-55345096D01*
X104364733Y-54843726D01*
X104432466Y-54903100D01*
D14*
X88620000Y-42900000D02*
X88620000Y-42120000D01*
X88620000Y-42120000D02*
X87620000Y-42120000D01*
X70380000Y-42900000D02*
X70380000Y-42120000D01*
X70380000Y-42120000D02*
X71380000Y-42120000D01*
X88620000Y-67865000D02*
X70380000Y-67865000D01*
X70380000Y-67865000D02*
X70380000Y-61445000D01*
X88620000Y-67865000D02*
X88620000Y-61445000D01*
X88620000Y-61445000D02*
X89000000Y-61445000D01*
D10*
X94200000Y-46650000D02*
G75*
G03X94200000Y-46650000I-125000J0D01*
G01*
X100950000Y-48500000D02*
G75*
G03X100950000Y-48500000I-125000J0D01*
G01*
X108250000Y-52875000D02*
G75*
G03X108250000Y-52875000I-125000J0D01*
G01*
D12*
X55280000Y-50110000D02*
X54000000Y-50110000D01*
X54000000Y-50110000D02*
X54000000Y-59690000D01*
X54000000Y-59690000D02*
X55280000Y-59690000D01*
X59250000Y-50110000D02*
X58000000Y-50110000D01*
X59250000Y-59690000D02*
X58000000Y-59690000D01*
D15*
X115575000Y-47400000D02*
X115575000Y-43800000D01*
X111325000Y-42600000D02*
X113600000Y-42600000D01*
X111325000Y-43400000D02*
X111325000Y-42600000D01*
X111325000Y-48600000D02*
X113600000Y-48600000D01*
X111325000Y-47800000D02*
X111325000Y-48600000D01*
D16*
X110715000Y-48050000D02*
G75*
G03X110715000Y-48050000I-100000J0D01*
G01*
D15*
X115575000Y-56300000D02*
X115575000Y-52700000D01*
X111325000Y-51500000D02*
X113600000Y-51500000D01*
X111325000Y-52300000D02*
X111325000Y-51500000D01*
X111325000Y-57500000D02*
X113600000Y-57500000D01*
X111325000Y-56700000D02*
X111325000Y-57500000D01*
D16*
X110715000Y-56950000D02*
G75*
G03X110715000Y-56950000I-100000J0D01*
G01*
D15*
X104100000Y-32425000D02*
X100500000Y-32425000D01*
X99300000Y-36675000D02*
X99300000Y-34400000D01*
X100100000Y-36675000D02*
X99300000Y-36675000D01*
X105300000Y-36675000D02*
X105300000Y-34400000D01*
X104500000Y-36675000D02*
X105300000Y-36675000D01*
D16*
X104850000Y-37385000D02*
G75*
G03X104850000Y-37385000I-100000J0D01*
G01*
D15*
X100500000Y-67575000D02*
X104100000Y-67575000D01*
X105300000Y-63325000D02*
X105300000Y-65600000D01*
X104500000Y-63325000D02*
X105300000Y-63325000D01*
X99300000Y-63325000D02*
X99300000Y-65600000D01*
X100100000Y-63325000D02*
X99300000Y-63325000D01*
D16*
X99950000Y-62615000D02*
G75*
G03X99950000Y-62615000I-100000J0D01*
G01*
D12*
X64000000Y-48300000D02*
X63400000Y-48300000D01*
D14*
X65800000Y-47800000D02*
X65300000Y-47800000D01*
X65300000Y-47800000D02*
X65300000Y-47300000D01*
X65300000Y-47300000D02*
X65300000Y-47300000D01*
X65300000Y-46100000D02*
X65300000Y-45600000D01*
X65300000Y-45600000D02*
X65800000Y-45600000D01*
X65800000Y-45600000D02*
X65800000Y-45600000D01*
X67000000Y-45600000D02*
X67500000Y-45600000D01*
X67500000Y-45600000D02*
X67500000Y-46100000D01*
X67500000Y-46100000D02*
X67500000Y-46100000D01*
X67000000Y-47800000D02*
X67500000Y-47800000D01*
X67500000Y-47800000D02*
X67500000Y-47800000D01*
X73660000Y-34470000D02*
X73660000Y-35600000D01*
X72900000Y-34470000D02*
X73660000Y-34470000D01*
X73595000Y-37177530D02*
X73595000Y-38000000D01*
X73595000Y-36360000D02*
X73595000Y-36562470D01*
X73463471Y-36360000D02*
X73595000Y-36360000D01*
X72193471Y-36360000D02*
X72336529Y-36360000D01*
X72140000Y-36163471D02*
X72140000Y-36306529D01*
X72140000Y-34470000D02*
X72140000Y-35036529D01*
X73595000Y-38000000D02*
X69665000Y-38000000D01*
X72140000Y-34470000D02*
X69665000Y-34470000D01*
X69665000Y-35907530D02*
X69665000Y-36562470D01*
X69665000Y-37177530D02*
X69665000Y-38000000D01*
X69665000Y-34470000D02*
X69665000Y-35292470D01*
D17*
X92250000Y-40000000D02*
X85750000Y-40000000D01*
X92250000Y-34000000D02*
X85750000Y-34000000D01*
X92250000Y-38100000D02*
X92250000Y-35900000D01*
X85750000Y-38100000D02*
X85750000Y-35900000D01*
X94747000Y-39883000D02*
G75*
G03X94747000Y-39883000I-111000J0D01*
G01*
D12*
X98850000Y-45125000D02*
X98850000Y-46875000D01*
X100150000Y-44338000D02*
X100150000Y-46875000D01*
D10*
X58300000Y-42675000D02*
G75*
G03X58300000Y-42675000I-125000J0D01*
G01*
D12*
X66125000Y-39350000D02*
X65675000Y-39350000D01*
X65675000Y-39350000D02*
X65675000Y-36450000D01*
X65675000Y-36450000D02*
X66125000Y-36450000D01*
X66125000Y-36450000D02*
X66125000Y-39350000D01*
X67525000Y-39400000D02*
X66475000Y-39400000D01*
X65875000Y-41450000D02*
X66325000Y-41450000D01*
X66325000Y-41450000D02*
X66325000Y-44350000D01*
X66325000Y-44350000D02*
X65875000Y-44350000D01*
X65875000Y-44350000D02*
X65875000Y-41450000D01*
X64475000Y-41400000D02*
X65525000Y-41400000D01*
X101100000Y-47700000D02*
X101100000Y-46400000D01*
X104060000Y-46050000D02*
X101140000Y-46050000D01*
X104060000Y-45950000D02*
X104060000Y-46050000D01*
X101140000Y-45950000D02*
X104060000Y-45950000D01*
X101140000Y-46050000D02*
X101140000Y-45950000D01*
D11*
X76500000Y-34500000D02*
X76500000Y-39500000D01*
X76500000Y-39500000D02*
X81500000Y-39500000D01*
X81500000Y-39500000D02*
X81500000Y-34500000D01*
X81500000Y-34500000D02*
X76500000Y-34500000D01*
X81000000Y-37000000D02*
G75*
G03X81000000Y-37000000I-2000000J0D01*
G01*
X89476190Y-42390952D02*
X89880952Y-42390952D01*
X89928571Y-42367142D01*
X89952380Y-42343333D01*
X89976190Y-42295714D01*
X89976190Y-42200476D01*
X89952380Y-42152857D01*
X89928571Y-42129047D01*
X89880952Y-42105238D01*
X89476190Y-42105238D01*
X89976190Y-41605238D02*
X89976190Y-41890952D01*
X89976190Y-41748095D02*
X89476190Y-41748095D01*
X89547619Y-41795714D01*
X89595238Y-41843333D01*
X89619047Y-41890952D01*
X90278571Y-49926190D02*
X90111904Y-49688095D01*
X89992857Y-49926190D02*
X89992857Y-49426190D01*
X90183333Y-49426190D01*
X90230952Y-49450000D01*
X90254761Y-49473809D01*
X90278571Y-49521428D01*
X90278571Y-49592857D01*
X90254761Y-49640476D01*
X90230952Y-49664285D01*
X90183333Y-49688095D01*
X89992857Y-49688095D01*
X90754761Y-49926190D02*
X90469047Y-49926190D01*
X90611904Y-49926190D02*
X90611904Y-49426190D01*
X90564285Y-49497619D01*
X90516666Y-49545238D01*
X90469047Y-49569047D01*
X91230952Y-49926190D02*
X90945238Y-49926190D01*
X91088095Y-49926190D02*
X91088095Y-49426190D01*
X91040476Y-49497619D01*
X90992857Y-49545238D01*
X90945238Y-49569047D01*
X92466666Y-56376190D02*
X92300000Y-56138095D01*
X92180952Y-56376190D02*
X92180952Y-55876190D01*
X92371428Y-55876190D01*
X92419047Y-55900000D01*
X92442857Y-55923809D01*
X92466666Y-55971428D01*
X92466666Y-56042857D01*
X92442857Y-56090476D01*
X92419047Y-56114285D01*
X92371428Y-56138095D01*
X92180952Y-56138095D01*
X92942857Y-56376190D02*
X92657142Y-56376190D01*
X92800000Y-56376190D02*
X92800000Y-55876190D01*
X92752380Y-55947619D01*
X92704761Y-55995238D01*
X92657142Y-56019047D01*
X96978571Y-51926190D02*
X96811904Y-51688095D01*
X96692857Y-51926190D02*
X96692857Y-51426190D01*
X96883333Y-51426190D01*
X96930952Y-51450000D01*
X96954761Y-51473809D01*
X96978571Y-51521428D01*
X96978571Y-51592857D01*
X96954761Y-51640476D01*
X96930952Y-51664285D01*
X96883333Y-51688095D01*
X96692857Y-51688095D01*
X97454761Y-51926190D02*
X97169047Y-51926190D01*
X97311904Y-51926190D02*
X97311904Y-51426190D01*
X97264285Y-51497619D01*
X97216666Y-51545238D01*
X97169047Y-51569047D01*
X97645238Y-51473809D02*
X97669047Y-51450000D01*
X97716666Y-51426190D01*
X97835714Y-51426190D01*
X97883333Y-51450000D01*
X97907142Y-51473809D01*
X97930952Y-51521428D01*
X97930952Y-51569047D01*
X97907142Y-51640476D01*
X97621428Y-51926190D01*
X97930952Y-51926190D01*
X93811904Y-50826190D02*
X93811904Y-50326190D01*
X94335714Y-50778571D02*
X94311904Y-50802380D01*
X94240476Y-50826190D01*
X94192857Y-50826190D01*
X94121428Y-50802380D01*
X94073809Y-50754761D01*
X94050000Y-50707142D01*
X94026190Y-50611904D01*
X94026190Y-50540476D01*
X94050000Y-50445238D01*
X94073809Y-50397619D01*
X94121428Y-50350000D01*
X94192857Y-50326190D01*
X94240476Y-50326190D01*
X94311904Y-50350000D01*
X94335714Y-50373809D01*
X94526190Y-50373809D02*
X94550000Y-50350000D01*
X94597619Y-50326190D01*
X94716666Y-50326190D01*
X94764285Y-50350000D01*
X94788095Y-50373809D01*
X94811904Y-50421428D01*
X94811904Y-50469047D01*
X94788095Y-50540476D01*
X94502380Y-50826190D01*
X94811904Y-50826190D01*
X95928571Y-44828571D02*
X95904761Y-44852380D01*
X95833333Y-44876190D01*
X95785714Y-44876190D01*
X95714285Y-44852380D01*
X95666666Y-44804761D01*
X95642857Y-44757142D01*
X95619047Y-44661904D01*
X95619047Y-44590476D01*
X95642857Y-44495238D01*
X95666666Y-44447619D01*
X95714285Y-44400000D01*
X95785714Y-44376190D01*
X95833333Y-44376190D01*
X95904761Y-44400000D01*
X95928571Y-44423809D01*
X96404761Y-44876190D02*
X96119047Y-44876190D01*
X96261904Y-44876190D02*
X96261904Y-44376190D01*
X96214285Y-44447619D01*
X96166666Y-44495238D01*
X96119047Y-44519047D01*
X96833333Y-44376190D02*
X96738095Y-44376190D01*
X96690476Y-44400000D01*
X96666666Y-44423809D01*
X96619047Y-44495238D01*
X96595238Y-44590476D01*
X96595238Y-44780952D01*
X96619047Y-44828571D01*
X96642857Y-44852380D01*
X96690476Y-44876190D01*
X96785714Y-44876190D01*
X96833333Y-44852380D01*
X96857142Y-44828571D01*
X96880952Y-44780952D01*
X96880952Y-44661904D01*
X96857142Y-44614285D01*
X96833333Y-44590476D01*
X96785714Y-44566666D01*
X96690476Y-44566666D01*
X96642857Y-44590476D01*
X96619047Y-44614285D01*
X96595238Y-44661904D01*
X90178571Y-48626190D02*
X90011904Y-48388095D01*
X89892857Y-48626190D02*
X89892857Y-48126190D01*
X90083333Y-48126190D01*
X90130952Y-48150000D01*
X90154761Y-48173809D01*
X90178571Y-48221428D01*
X90178571Y-48292857D01*
X90154761Y-48340476D01*
X90130952Y-48364285D01*
X90083333Y-48388095D01*
X89892857Y-48388095D01*
X90654761Y-48626190D02*
X90369047Y-48626190D01*
X90511904Y-48626190D02*
X90511904Y-48126190D01*
X90464285Y-48197619D01*
X90416666Y-48245238D01*
X90369047Y-48269047D01*
X90964285Y-48126190D02*
X91011904Y-48126190D01*
X91059523Y-48150000D01*
X91083333Y-48173809D01*
X91107142Y-48221428D01*
X91130952Y-48316666D01*
X91130952Y-48435714D01*
X91107142Y-48530952D01*
X91083333Y-48578571D01*
X91059523Y-48602380D01*
X91011904Y-48626190D01*
X90964285Y-48626190D01*
X90916666Y-48602380D01*
X90892857Y-48578571D01*
X90869047Y-48530952D01*
X90845238Y-48435714D01*
X90845238Y-48316666D01*
X90869047Y-48221428D01*
X90892857Y-48173809D01*
X90916666Y-48150000D01*
X90964285Y-48126190D01*
X103311904Y-52426190D02*
X103311904Y-51926190D01*
X103835714Y-52378571D02*
X103811904Y-52402380D01*
X103740476Y-52426190D01*
X103692857Y-52426190D01*
X103621428Y-52402380D01*
X103573809Y-52354761D01*
X103550000Y-52307142D01*
X103526190Y-52211904D01*
X103526190Y-52140476D01*
X103550000Y-52045238D01*
X103573809Y-51997619D01*
X103621428Y-51950000D01*
X103692857Y-51926190D01*
X103740476Y-51926190D01*
X103811904Y-51950000D01*
X103835714Y-51973809D01*
X104264285Y-52092857D02*
X104264285Y-52426190D01*
X104145238Y-51902380D02*
X104026190Y-52259523D01*
X104335714Y-52259523D01*
X107961904Y-52426190D02*
X107961904Y-51926190D01*
X108485714Y-52378571D02*
X108461904Y-52402380D01*
X108390476Y-52426190D01*
X108342857Y-52426190D01*
X108271428Y-52402380D01*
X108223809Y-52354761D01*
X108200000Y-52307142D01*
X108176190Y-52211904D01*
X108176190Y-52140476D01*
X108200000Y-52045238D01*
X108223809Y-51997619D01*
X108271428Y-51950000D01*
X108342857Y-51926190D01*
X108390476Y-51926190D01*
X108461904Y-51950000D01*
X108485714Y-51973809D01*
X108652380Y-51926190D02*
X108961904Y-51926190D01*
X108795238Y-52116666D01*
X108866666Y-52116666D01*
X108914285Y-52140476D01*
X108938095Y-52164285D01*
X108961904Y-52211904D01*
X108961904Y-52330952D01*
X108938095Y-52378571D01*
X108914285Y-52402380D01*
X108866666Y-52426190D01*
X108723809Y-52426190D01*
X108676190Y-52402380D01*
X108652380Y-52378571D01*
X107078571Y-54978571D02*
X107054761Y-55002380D01*
X106983333Y-55026190D01*
X106935714Y-55026190D01*
X106864285Y-55002380D01*
X106816666Y-54954761D01*
X106792857Y-54907142D01*
X106769047Y-54811904D01*
X106769047Y-54740476D01*
X106792857Y-54645238D01*
X106816666Y-54597619D01*
X106864285Y-54550000D01*
X106935714Y-54526190D01*
X106983333Y-54526190D01*
X107054761Y-54550000D01*
X107078571Y-54573809D01*
X107554761Y-55026190D02*
X107269047Y-55026190D01*
X107411904Y-55026190D02*
X107411904Y-54526190D01*
X107364285Y-54597619D01*
X107316666Y-54645238D01*
X107269047Y-54669047D01*
X107745238Y-54573809D02*
X107769047Y-54550000D01*
X107816666Y-54526190D01*
X107935714Y-54526190D01*
X107983333Y-54550000D01*
X108007142Y-54573809D01*
X108030952Y-54621428D01*
X108030952Y-54669047D01*
X108007142Y-54740476D01*
X107721428Y-55026190D01*
X108030952Y-55026190D01*
X61633333Y-60126190D02*
X61633333Y-60483333D01*
X61609523Y-60554761D01*
X61561904Y-60602380D01*
X61490476Y-60626190D01*
X61442857Y-60626190D01*
X62133333Y-60626190D02*
X61847619Y-60626190D01*
X61990476Y-60626190D02*
X61990476Y-60126190D01*
X61942857Y-60197619D01*
X61895238Y-60245238D01*
X61847619Y-60269047D01*
X110183333Y-49426190D02*
X110183333Y-49783333D01*
X110159523Y-49854761D01*
X110111904Y-49902380D01*
X110040476Y-49926190D01*
X109992857Y-49926190D01*
X110635714Y-49426190D02*
X110540476Y-49426190D01*
X110492857Y-49450000D01*
X110469047Y-49473809D01*
X110421428Y-49545238D01*
X110397619Y-49640476D01*
X110397619Y-49830952D01*
X110421428Y-49878571D01*
X110445238Y-49902380D01*
X110492857Y-49926190D01*
X110588095Y-49926190D01*
X110635714Y-49902380D01*
X110659523Y-49878571D01*
X110683333Y-49830952D01*
X110683333Y-49711904D01*
X110659523Y-49664285D01*
X110635714Y-49640476D01*
X110588095Y-49616666D01*
X110492857Y-49616666D01*
X110445238Y-49640476D01*
X110421428Y-49664285D01*
X110397619Y-49711904D01*
X110133333Y-58276190D02*
X110133333Y-58633333D01*
X110109523Y-58704761D01*
X110061904Y-58752380D01*
X109990476Y-58776190D01*
X109942857Y-58776190D01*
X110347619Y-58323809D02*
X110371428Y-58300000D01*
X110419047Y-58276190D01*
X110538095Y-58276190D01*
X110585714Y-58300000D01*
X110609523Y-58323809D01*
X110633333Y-58371428D01*
X110633333Y-58419047D01*
X110609523Y-58490476D01*
X110323809Y-58776190D01*
X110633333Y-58776190D01*
X105333333Y-38326190D02*
X105333333Y-38683333D01*
X105309523Y-38754761D01*
X105261904Y-38802380D01*
X105190476Y-38826190D01*
X105142857Y-38826190D01*
X105523809Y-38326190D02*
X105857142Y-38326190D01*
X105642857Y-38826190D01*
X105433333Y-61276190D02*
X105433333Y-61633333D01*
X105409523Y-61704761D01*
X105361904Y-61752380D01*
X105290476Y-61776190D01*
X105242857Y-61776190D01*
X105623809Y-61276190D02*
X105933333Y-61276190D01*
X105766666Y-61466666D01*
X105838095Y-61466666D01*
X105885714Y-61490476D01*
X105909523Y-61514285D01*
X105933333Y-61561904D01*
X105933333Y-61680952D01*
X105909523Y-61728571D01*
X105885714Y-61752380D01*
X105838095Y-61776190D01*
X105695238Y-61776190D01*
X105647619Y-61752380D01*
X105623809Y-61728571D01*
X65166666Y-59976190D02*
X65000000Y-59738095D01*
X64880952Y-59976190D02*
X64880952Y-59476190D01*
X65071428Y-59476190D01*
X65119047Y-59500000D01*
X65142857Y-59523809D01*
X65166666Y-59571428D01*
X65166666Y-59642857D01*
X65142857Y-59690476D01*
X65119047Y-59714285D01*
X65071428Y-59738095D01*
X64880952Y-59738095D01*
X65404761Y-59976190D02*
X65500000Y-59976190D01*
X65547619Y-59952380D01*
X65571428Y-59928571D01*
X65619047Y-59857142D01*
X65642857Y-59761904D01*
X65642857Y-59571428D01*
X65619047Y-59523809D01*
X65595238Y-59500000D01*
X65547619Y-59476190D01*
X65452380Y-59476190D01*
X65404761Y-59500000D01*
X65380952Y-59523809D01*
X65357142Y-59571428D01*
X65357142Y-59690476D01*
X65380952Y-59738095D01*
X65404761Y-59761904D01*
X65452380Y-59785714D01*
X65547619Y-59785714D01*
X65595238Y-59761904D01*
X65619047Y-59738095D01*
X65642857Y-59690476D01*
X64426190Y-46183333D02*
X64188095Y-46350000D01*
X64426190Y-46469047D02*
X63926190Y-46469047D01*
X63926190Y-46278571D01*
X63950000Y-46230952D01*
X63973809Y-46207142D01*
X64021428Y-46183333D01*
X64092857Y-46183333D01*
X64140476Y-46207142D01*
X64164285Y-46230952D01*
X64188095Y-46278571D01*
X64188095Y-46469047D01*
X64140476Y-45897619D02*
X64116666Y-45945238D01*
X64092857Y-45969047D01*
X64045238Y-45992857D01*
X64021428Y-45992857D01*
X63973809Y-45969047D01*
X63950000Y-45945238D01*
X63926190Y-45897619D01*
X63926190Y-45802380D01*
X63950000Y-45754761D01*
X63973809Y-45730952D01*
X64021428Y-45707142D01*
X64045238Y-45707142D01*
X64092857Y-45730952D01*
X64116666Y-45754761D01*
X64140476Y-45802380D01*
X64140476Y-45897619D01*
X64164285Y-45945238D01*
X64188095Y-45969047D01*
X64235714Y-45992857D01*
X64330952Y-45992857D01*
X64378571Y-45969047D01*
X64402380Y-45945238D01*
X64426190Y-45897619D01*
X64426190Y-45802380D01*
X64402380Y-45754761D01*
X64378571Y-45730952D01*
X64330952Y-45707142D01*
X64235714Y-45707142D01*
X64188095Y-45730952D01*
X64164285Y-45754761D01*
X64140476Y-45802380D01*
X67819047Y-45526190D02*
X67819047Y-45930952D01*
X67842857Y-45978571D01*
X67866666Y-46002380D01*
X67914285Y-46026190D01*
X68009523Y-46026190D01*
X68057142Y-46002380D01*
X68080952Y-45978571D01*
X68104761Y-45930952D01*
X68104761Y-45526190D01*
X68319047Y-45573809D02*
X68342857Y-45550000D01*
X68390476Y-45526190D01*
X68509523Y-45526190D01*
X68557142Y-45550000D01*
X68580952Y-45573809D01*
X68604761Y-45621428D01*
X68604761Y-45669047D01*
X68580952Y-45740476D01*
X68295238Y-46026190D01*
X68604761Y-46026190D01*
X63616666Y-52826190D02*
X63450000Y-52588095D01*
X63330952Y-52826190D02*
X63330952Y-52326190D01*
X63521428Y-52326190D01*
X63569047Y-52350000D01*
X63592857Y-52373809D01*
X63616666Y-52421428D01*
X63616666Y-52492857D01*
X63592857Y-52540476D01*
X63569047Y-52564285D01*
X63521428Y-52588095D01*
X63330952Y-52588095D01*
X64069047Y-52326190D02*
X63830952Y-52326190D01*
X63807142Y-52564285D01*
X63830952Y-52540476D01*
X63878571Y-52516666D01*
X63997619Y-52516666D01*
X64045238Y-52540476D01*
X64069047Y-52564285D01*
X64092857Y-52611904D01*
X64092857Y-52730952D01*
X64069047Y-52778571D01*
X64045238Y-52802380D01*
X63997619Y-52826190D01*
X63878571Y-52826190D01*
X63830952Y-52802380D01*
X63807142Y-52778571D01*
X62216666Y-47126190D02*
X62050000Y-46888095D01*
X61930952Y-47126190D02*
X61930952Y-46626190D01*
X62121428Y-46626190D01*
X62169047Y-46650000D01*
X62192857Y-46673809D01*
X62216666Y-46721428D01*
X62216666Y-46792857D01*
X62192857Y-46840476D01*
X62169047Y-46864285D01*
X62121428Y-46888095D01*
X61930952Y-46888095D01*
X62645238Y-46792857D02*
X62645238Y-47126190D01*
X62526190Y-46602380D02*
X62407142Y-46959523D01*
X62716666Y-46959523D01*
X56816666Y-48678571D02*
X56792857Y-48702380D01*
X56721428Y-48726190D01*
X56673809Y-48726190D01*
X56602380Y-48702380D01*
X56554761Y-48654761D01*
X56530952Y-48607142D01*
X56507142Y-48511904D01*
X56507142Y-48440476D01*
X56530952Y-48345238D01*
X56554761Y-48297619D01*
X56602380Y-48250000D01*
X56673809Y-48226190D01*
X56721428Y-48226190D01*
X56792857Y-48250000D01*
X56816666Y-48273809D01*
X56983333Y-48226190D02*
X57316666Y-48226190D01*
X57102380Y-48726190D01*
X58216666Y-49478571D02*
X58192857Y-49502380D01*
X58121428Y-49526190D01*
X58073809Y-49526190D01*
X58002380Y-49502380D01*
X57954761Y-49454761D01*
X57930952Y-49407142D01*
X57907142Y-49311904D01*
X57907142Y-49240476D01*
X57930952Y-49145238D01*
X57954761Y-49097619D01*
X58002380Y-49050000D01*
X58073809Y-49026190D01*
X58121428Y-49026190D01*
X58192857Y-49050000D01*
X58216666Y-49073809D01*
X58645238Y-49026190D02*
X58550000Y-49026190D01*
X58502380Y-49050000D01*
X58478571Y-49073809D01*
X58430952Y-49145238D01*
X58407142Y-49240476D01*
X58407142Y-49430952D01*
X58430952Y-49478571D01*
X58454761Y-49502380D01*
X58502380Y-49526190D01*
X58597619Y-49526190D01*
X58645238Y-49502380D01*
X58669047Y-49478571D01*
X58692857Y-49430952D01*
X58692857Y-49311904D01*
X58669047Y-49264285D01*
X58645238Y-49240476D01*
X58597619Y-49216666D01*
X58502380Y-49216666D01*
X58454761Y-49240476D01*
X58430952Y-49264285D01*
X58407142Y-49311904D01*
X60516666Y-47078571D02*
X60492857Y-47102380D01*
X60421428Y-47126190D01*
X60373809Y-47126190D01*
X60302380Y-47102380D01*
X60254761Y-47054761D01*
X60230952Y-47007142D01*
X60207142Y-46911904D01*
X60207142Y-46840476D01*
X60230952Y-46745238D01*
X60254761Y-46697619D01*
X60302380Y-46650000D01*
X60373809Y-46626190D01*
X60421428Y-46626190D01*
X60492857Y-46650000D01*
X60516666Y-46673809D01*
X60945238Y-46792857D02*
X60945238Y-47126190D01*
X60826190Y-46602380D02*
X60707142Y-46959523D01*
X61016666Y-46959523D01*
X68433333Y-34126190D02*
X68433333Y-34483333D01*
X68409523Y-34554761D01*
X68361904Y-34602380D01*
X68290476Y-34626190D01*
X68242857Y-34626190D01*
X68909523Y-34126190D02*
X68671428Y-34126190D01*
X68647619Y-34364285D01*
X68671428Y-34340476D01*
X68719047Y-34316666D01*
X68838095Y-34316666D01*
X68885714Y-34340476D01*
X68909523Y-34364285D01*
X68933333Y-34411904D01*
X68933333Y-34530952D01*
X68909523Y-34578571D01*
X68885714Y-34602380D01*
X68838095Y-34626190D01*
X68719047Y-34626190D01*
X68671428Y-34602380D01*
X68647619Y-34578571D01*
X64066666Y-55926190D02*
X63900000Y-55688095D01*
X63780952Y-55926190D02*
X63780952Y-55426190D01*
X63971428Y-55426190D01*
X64019047Y-55450000D01*
X64042857Y-55473809D01*
X64066666Y-55521428D01*
X64066666Y-55592857D01*
X64042857Y-55640476D01*
X64019047Y-55664285D01*
X63971428Y-55688095D01*
X63780952Y-55688095D01*
X64233333Y-55426190D02*
X64542857Y-55426190D01*
X64376190Y-55616666D01*
X64447619Y-55616666D01*
X64495238Y-55640476D01*
X64519047Y-55664285D01*
X64542857Y-55711904D01*
X64542857Y-55830952D01*
X64519047Y-55878571D01*
X64495238Y-55902380D01*
X64447619Y-55926190D01*
X64304761Y-55926190D01*
X64257142Y-55902380D01*
X64233333Y-55878571D01*
X64116666Y-54826190D02*
X63950000Y-54588095D01*
X63830952Y-54826190D02*
X63830952Y-54326190D01*
X64021428Y-54326190D01*
X64069047Y-54350000D01*
X64092857Y-54373809D01*
X64116666Y-54421428D01*
X64116666Y-54492857D01*
X64092857Y-54540476D01*
X64069047Y-54564285D01*
X64021428Y-54588095D01*
X63830952Y-54588095D01*
X64307142Y-54373809D02*
X64330952Y-54350000D01*
X64378571Y-54326190D01*
X64497619Y-54326190D01*
X64545238Y-54350000D01*
X64569047Y-54373809D01*
X64592857Y-54421428D01*
X64592857Y-54469047D01*
X64569047Y-54540476D01*
X64283333Y-54826190D01*
X64592857Y-54826190D01*
D17*
X88332380Y-37485047D02*
X88513809Y-37545523D01*
X88816190Y-37545523D01*
X88937142Y-37485047D01*
X88997619Y-37424571D01*
X89058095Y-37303619D01*
X89058095Y-37182666D01*
X88997619Y-37061714D01*
X88937142Y-37001238D01*
X88816190Y-36940761D01*
X88574285Y-36880285D01*
X88453333Y-36819809D01*
X88392857Y-36759333D01*
X88332380Y-36638380D01*
X88332380Y-36517428D01*
X88392857Y-36396476D01*
X88453333Y-36336000D01*
X88574285Y-36275523D01*
X88876666Y-36275523D01*
X89058095Y-36336000D01*
X90267619Y-37545523D02*
X89541904Y-37545523D01*
X89904761Y-37545523D02*
X89904761Y-36275523D01*
X89783809Y-36456952D01*
X89662857Y-36577904D01*
X89541904Y-36638380D01*
D11*
X107178571Y-48528571D02*
X107154761Y-48552380D01*
X107083333Y-48576190D01*
X107035714Y-48576190D01*
X106964285Y-48552380D01*
X106916666Y-48504761D01*
X106892857Y-48457142D01*
X106869047Y-48361904D01*
X106869047Y-48290476D01*
X106892857Y-48195238D01*
X106916666Y-48147619D01*
X106964285Y-48100000D01*
X107035714Y-48076190D01*
X107083333Y-48076190D01*
X107154761Y-48100000D01*
X107178571Y-48123809D01*
X107654761Y-48576190D02*
X107369047Y-48576190D01*
X107511904Y-48576190D02*
X107511904Y-48076190D01*
X107464285Y-48147619D01*
X107416666Y-48195238D01*
X107369047Y-48219047D01*
X108107142Y-48076190D02*
X107869047Y-48076190D01*
X107845238Y-48314285D01*
X107869047Y-48290476D01*
X107916666Y-48266666D01*
X108035714Y-48266666D01*
X108083333Y-48290476D01*
X108107142Y-48314285D01*
X108130952Y-48361904D01*
X108130952Y-48480952D01*
X108107142Y-48528571D01*
X108083333Y-48552380D01*
X108035714Y-48576190D01*
X107916666Y-48576190D01*
X107869047Y-48552380D01*
X107845238Y-48528571D01*
X91528571Y-46278571D02*
X91504761Y-46302380D01*
X91433333Y-46326190D01*
X91385714Y-46326190D01*
X91314285Y-46302380D01*
X91266666Y-46254761D01*
X91242857Y-46207142D01*
X91219047Y-46111904D01*
X91219047Y-46040476D01*
X91242857Y-45945238D01*
X91266666Y-45897619D01*
X91314285Y-45850000D01*
X91385714Y-45826190D01*
X91433333Y-45826190D01*
X91504761Y-45850000D01*
X91528571Y-45873809D01*
X92004761Y-46326190D02*
X91719047Y-46326190D01*
X91861904Y-46326190D02*
X91861904Y-45826190D01*
X91814285Y-45897619D01*
X91766666Y-45945238D01*
X91719047Y-45969047D01*
X92480952Y-46326190D02*
X92195238Y-46326190D01*
X92338095Y-46326190D02*
X92338095Y-45826190D01*
X92290476Y-45897619D01*
X92242857Y-45945238D01*
X92195238Y-45969047D01*
X99130952Y-46176190D02*
X99130952Y-45676190D01*
X99250000Y-45676190D01*
X99321428Y-45700000D01*
X99369047Y-45747619D01*
X99392857Y-45795238D01*
X99416666Y-45890476D01*
X99416666Y-45961904D01*
X99392857Y-46057142D01*
X99369047Y-46104761D01*
X99321428Y-46152380D01*
X99250000Y-46176190D01*
X99130952Y-46176190D01*
X99607142Y-45723809D02*
X99630952Y-45700000D01*
X99678571Y-45676190D01*
X99797619Y-45676190D01*
X99845238Y-45700000D01*
X99869047Y-45723809D01*
X99892857Y-45771428D01*
X99892857Y-45819047D01*
X99869047Y-45890476D01*
X99583333Y-46176190D01*
X99892857Y-46176190D01*
X57311904Y-42126190D02*
X57311904Y-41626190D01*
X57835714Y-42078571D02*
X57811904Y-42102380D01*
X57740476Y-42126190D01*
X57692857Y-42126190D01*
X57621428Y-42102380D01*
X57573809Y-42054761D01*
X57550000Y-42007142D01*
X57526190Y-41911904D01*
X57526190Y-41840476D01*
X57550000Y-41745238D01*
X57573809Y-41697619D01*
X57621428Y-41650000D01*
X57692857Y-41626190D01*
X57740476Y-41626190D01*
X57811904Y-41650000D01*
X57835714Y-41673809D01*
X58311904Y-42126190D02*
X58026190Y-42126190D01*
X58169047Y-42126190D02*
X58169047Y-41626190D01*
X58121428Y-41697619D01*
X58073809Y-41745238D01*
X58026190Y-41769047D01*
X64752380Y-37273809D02*
X64704761Y-37250000D01*
X64657142Y-37202380D01*
X64585714Y-37130952D01*
X64538095Y-37107142D01*
X64490476Y-37107142D01*
X64514285Y-37226190D02*
X64466666Y-37202380D01*
X64419047Y-37154761D01*
X64395238Y-37059523D01*
X64395238Y-36892857D01*
X64419047Y-36797619D01*
X64466666Y-36750000D01*
X64514285Y-36726190D01*
X64609523Y-36726190D01*
X64657142Y-36750000D01*
X64704761Y-36797619D01*
X64728571Y-36892857D01*
X64728571Y-37059523D01*
X64704761Y-37154761D01*
X64657142Y-37202380D01*
X64609523Y-37226190D01*
X64514285Y-37226190D01*
X65204761Y-37226190D02*
X64919047Y-37226190D01*
X65061904Y-37226190D02*
X65061904Y-36726190D01*
X65014285Y-36797619D01*
X64966666Y-36845238D01*
X64919047Y-36869047D01*
X67152380Y-44173809D02*
X67104761Y-44150000D01*
X67057142Y-44102380D01*
X66985714Y-44030952D01*
X66938095Y-44007142D01*
X66890476Y-44007142D01*
X66914285Y-44126190D02*
X66866666Y-44102380D01*
X66819047Y-44054761D01*
X66795238Y-43959523D01*
X66795238Y-43792857D01*
X66819047Y-43697619D01*
X66866666Y-43650000D01*
X66914285Y-43626190D01*
X67009523Y-43626190D01*
X67057142Y-43650000D01*
X67104761Y-43697619D01*
X67128571Y-43792857D01*
X67128571Y-43959523D01*
X67104761Y-44054761D01*
X67057142Y-44102380D01*
X67009523Y-44126190D01*
X66914285Y-44126190D01*
X67319047Y-43673809D02*
X67342857Y-43650000D01*
X67390476Y-43626190D01*
X67509523Y-43626190D01*
X67557142Y-43650000D01*
X67580952Y-43673809D01*
X67604761Y-43721428D01*
X67604761Y-43769047D01*
X67580952Y-43840476D01*
X67295238Y-44126190D01*
X67604761Y-44126190D01*
X103602380Y-45373809D02*
X103554761Y-45350000D01*
X103507142Y-45302380D01*
X103435714Y-45230952D01*
X103388095Y-45207142D01*
X103340476Y-45207142D01*
X103364285Y-45326190D02*
X103316666Y-45302380D01*
X103269047Y-45254761D01*
X103245238Y-45159523D01*
X103245238Y-44992857D01*
X103269047Y-44897619D01*
X103316666Y-44850000D01*
X103364285Y-44826190D01*
X103459523Y-44826190D01*
X103507142Y-44850000D01*
X103554761Y-44897619D01*
X103578571Y-44992857D01*
X103578571Y-45159523D01*
X103554761Y-45254761D01*
X103507142Y-45302380D01*
X103459523Y-45326190D01*
X103364285Y-45326190D01*
X103745238Y-44826190D02*
X104054761Y-44826190D01*
X103888095Y-45016666D01*
X103959523Y-45016666D01*
X104007142Y-45040476D01*
X104030952Y-45064285D01*
X104054761Y-45111904D01*
X104054761Y-45230952D01*
X104030952Y-45278571D01*
X104007142Y-45302380D01*
X103959523Y-45326190D01*
X103816666Y-45326190D01*
X103769047Y-45302380D01*
X103745238Y-45278571D01*
X67578571Y-51121428D02*
X67602380Y-51145238D01*
X67626190Y-51216666D01*
X67626190Y-51264285D01*
X67602380Y-51335714D01*
X67554761Y-51383333D01*
X67507142Y-51407142D01*
X67411904Y-51430952D01*
X67340476Y-51430952D01*
X67245238Y-51407142D01*
X67197619Y-51383333D01*
X67150000Y-51335714D01*
X67126190Y-51264285D01*
X67126190Y-51216666D01*
X67150000Y-51145238D01*
X67173809Y-51121428D01*
X67626190Y-50645238D02*
X67626190Y-50930952D01*
X67626190Y-50788095D02*
X67126190Y-50788095D01*
X67197619Y-50835714D01*
X67245238Y-50883333D01*
X67269047Y-50930952D01*
X67126190Y-50335714D02*
X67126190Y-50288095D01*
X67150000Y-50240476D01*
X67173809Y-50216666D01*
X67221428Y-50192857D01*
X67316666Y-50169047D01*
X67435714Y-50169047D01*
X67530952Y-50192857D01*
X67578571Y-50216666D01*
X67602380Y-50240476D01*
X67626190Y-50288095D01*
X67626190Y-50335714D01*
X67602380Y-50383333D01*
X67578571Y-50407142D01*
X67530952Y-50430952D01*
X67435714Y-50454761D01*
X67316666Y-50454761D01*
X67221428Y-50430952D01*
X67173809Y-50407142D01*
X67150000Y-50383333D01*
X67126190Y-50335714D01*
X99078571Y-52826190D02*
X98911904Y-52588095D01*
X98792857Y-52826190D02*
X98792857Y-52326190D01*
X98983333Y-52326190D01*
X99030952Y-52350000D01*
X99054761Y-52373809D01*
X99078571Y-52421428D01*
X99078571Y-52492857D01*
X99054761Y-52540476D01*
X99030952Y-52564285D01*
X98983333Y-52588095D01*
X98792857Y-52588095D01*
X99554761Y-52826190D02*
X99269047Y-52826190D01*
X99411904Y-52826190D02*
X99411904Y-52326190D01*
X99364285Y-52397619D01*
X99316666Y-52445238D01*
X99269047Y-52469047D01*
X99721428Y-52326190D02*
X100030952Y-52326190D01*
X99864285Y-52516666D01*
X99935714Y-52516666D01*
X99983333Y-52540476D01*
X100007142Y-52564285D01*
X100030952Y-52611904D01*
X100030952Y-52730952D01*
X100007142Y-52778571D01*
X99983333Y-52802380D01*
X99935714Y-52826190D01*
X99792857Y-52826190D01*
X99745238Y-52802380D01*
X99721428Y-52778571D01*
D18*
X75135714Y-35852380D02*
X74564285Y-35852380D01*
X74850000Y-35852380D02*
X74850000Y-34852380D01*
X74754761Y-34995238D01*
X74659523Y-35090476D01*
X74564285Y-35138095D01*
X78409523Y-37361904D02*
X78409523Y-36561904D01*
X78600000Y-36561904D01*
X78714285Y-36600000D01*
X78790476Y-36676190D01*
X78828571Y-36752380D01*
X78866666Y-36904761D01*
X78866666Y-37019047D01*
X78828571Y-37171428D01*
X78790476Y-37247619D01*
X78714285Y-37323809D01*
X78600000Y-37361904D01*
X78409523Y-37361904D01*
X79628571Y-37361904D02*
X79171428Y-37361904D01*
X79400000Y-37361904D02*
X79400000Y-36561904D01*
X79323809Y-36676190D01*
X79247619Y-36752380D01*
X79171428Y-36790476D01*
D11*
X68616666Y-40726190D02*
X68450000Y-40488095D01*
X68330952Y-40726190D02*
X68330952Y-40226190D01*
X68521428Y-40226190D01*
X68569047Y-40250000D01*
X68592857Y-40273809D01*
X68616666Y-40321428D01*
X68616666Y-40392857D01*
X68592857Y-40440476D01*
X68569047Y-40464285D01*
X68521428Y-40488095D01*
X68330952Y-40488095D01*
X69045238Y-40226190D02*
X68950000Y-40226190D01*
X68902380Y-40250000D01*
X68878571Y-40273809D01*
X68830952Y-40345238D01*
X68807142Y-40440476D01*
X68807142Y-40630952D01*
X68830952Y-40678571D01*
X68854761Y-40702380D01*
X68902380Y-40726190D01*
X68997619Y-40726190D01*
X69045238Y-40702380D01*
X69069047Y-40678571D01*
X69092857Y-40630952D01*
X69092857Y-40511904D01*
X69069047Y-40464285D01*
X69045238Y-40440476D01*
X68997619Y-40416666D01*
X68902380Y-40416666D01*
X68854761Y-40440476D01*
X68830952Y-40464285D01*
X68807142Y-40511904D01*
X56316666Y-45378571D02*
X56292857Y-45402380D01*
X56221428Y-45426190D01*
X56173809Y-45426190D01*
X56102380Y-45402380D01*
X56054761Y-45354761D01*
X56030952Y-45307142D01*
X56007142Y-45211904D01*
X56007142Y-45140476D01*
X56030952Y-45045238D01*
X56054761Y-44997619D01*
X56102380Y-44950000D01*
X56173809Y-44926190D01*
X56221428Y-44926190D01*
X56292857Y-44950000D01*
X56316666Y-44973809D01*
X56769047Y-44926190D02*
X56530952Y-44926190D01*
X56507142Y-45164285D01*
X56530952Y-45140476D01*
X56578571Y-45116666D01*
X56697619Y-45116666D01*
X56745238Y-45140476D01*
X56769047Y-45164285D01*
X56792857Y-45211904D01*
X56792857Y-45330952D01*
X56769047Y-45378571D01*
X56745238Y-45402380D01*
X56697619Y-45426190D01*
X56578571Y-45426190D01*
X56530952Y-45402380D01*
X56507142Y-45378571D01*
X68678571Y-50983333D02*
X68702380Y-51007142D01*
X68726190Y-51078571D01*
X68726190Y-51126190D01*
X68702380Y-51197619D01*
X68654761Y-51245238D01*
X68607142Y-51269047D01*
X68511904Y-51292857D01*
X68440476Y-51292857D01*
X68345238Y-51269047D01*
X68297619Y-51245238D01*
X68250000Y-51197619D01*
X68226190Y-51126190D01*
X68226190Y-51078571D01*
X68250000Y-51007142D01*
X68273809Y-50983333D01*
X68726190Y-50745238D02*
X68726190Y-50650000D01*
X68702380Y-50602380D01*
X68678571Y-50578571D01*
X68607142Y-50530952D01*
X68511904Y-50507142D01*
X68321428Y-50507142D01*
X68273809Y-50530952D01*
X68250000Y-50554761D01*
X68226190Y-50602380D01*
X68226190Y-50697619D01*
X68250000Y-50745238D01*
X68273809Y-50769047D01*
X68321428Y-50792857D01*
X68440476Y-50792857D01*
X68488095Y-50769047D01*
X68511904Y-50745238D01*
X68535714Y-50697619D01*
X68535714Y-50602380D01*
X68511904Y-50554761D01*
X68488095Y-50530952D01*
X68440476Y-50507142D01*
X62416666Y-40726190D02*
X62250000Y-40488095D01*
X62130952Y-40726190D02*
X62130952Y-40226190D01*
X62321428Y-40226190D01*
X62369047Y-40250000D01*
X62392857Y-40273809D01*
X62416666Y-40321428D01*
X62416666Y-40392857D01*
X62392857Y-40440476D01*
X62369047Y-40464285D01*
X62321428Y-40488095D01*
X62130952Y-40488095D01*
X62583333Y-40226190D02*
X62916666Y-40226190D01*
X62702380Y-40726190D01*
X104978571Y-46378571D02*
X104954761Y-46402380D01*
X104883333Y-46426190D01*
X104835714Y-46426190D01*
X104764285Y-46402380D01*
X104716666Y-46354761D01*
X104692857Y-46307142D01*
X104669047Y-46211904D01*
X104669047Y-46140476D01*
X104692857Y-46045238D01*
X104716666Y-45997619D01*
X104764285Y-45950000D01*
X104835714Y-45926190D01*
X104883333Y-45926190D01*
X104954761Y-45950000D01*
X104978571Y-45973809D01*
X105454761Y-46426190D02*
X105169047Y-46426190D01*
X105311904Y-46426190D02*
X105311904Y-45926190D01*
X105264285Y-45997619D01*
X105216666Y-46045238D01*
X105169047Y-46069047D01*
X105883333Y-46092857D02*
X105883333Y-46426190D01*
X105764285Y-45902380D02*
X105645238Y-46259523D01*
X105954761Y-46259523D01*
X98978571Y-51778571D02*
X98954761Y-51802380D01*
X98883333Y-51826190D01*
X98835714Y-51826190D01*
X98764285Y-51802380D01*
X98716666Y-51754761D01*
X98692857Y-51707142D01*
X98669047Y-51611904D01*
X98669047Y-51540476D01*
X98692857Y-51445238D01*
X98716666Y-51397619D01*
X98764285Y-51350000D01*
X98835714Y-51326190D01*
X98883333Y-51326190D01*
X98954761Y-51350000D01*
X98978571Y-51373809D01*
X99454761Y-51826190D02*
X99169047Y-51826190D01*
X99311904Y-51826190D02*
X99311904Y-51326190D01*
X99264285Y-51397619D01*
X99216666Y-51445238D01*
X99169047Y-51469047D01*
X99621428Y-51326190D02*
X99930952Y-51326190D01*
X99764285Y-51516666D01*
X99835714Y-51516666D01*
X99883333Y-51540476D01*
X99907142Y-51564285D01*
X99930952Y-51611904D01*
X99930952Y-51730952D01*
X99907142Y-51778571D01*
X99883333Y-51802380D01*
X99835714Y-51826190D01*
X99692857Y-51826190D01*
X99645238Y-51802380D01*
X99621428Y-51778571D01*
X66378571Y-52083333D02*
X66402380Y-52107142D01*
X66426190Y-52178571D01*
X66426190Y-52226190D01*
X66402380Y-52297619D01*
X66354761Y-52345238D01*
X66307142Y-52369047D01*
X66211904Y-52392857D01*
X66140476Y-52392857D01*
X66045238Y-52369047D01*
X65997619Y-52345238D01*
X65950000Y-52297619D01*
X65926190Y-52226190D01*
X65926190Y-52178571D01*
X65950000Y-52107142D01*
X65973809Y-52083333D01*
X66140476Y-51797619D02*
X66116666Y-51845238D01*
X66092857Y-51869047D01*
X66045238Y-51892857D01*
X66021428Y-51892857D01*
X65973809Y-51869047D01*
X65950000Y-51845238D01*
X65926190Y-51797619D01*
X65926190Y-51702380D01*
X65950000Y-51654761D01*
X65973809Y-51630952D01*
X66021428Y-51607142D01*
X66045238Y-51607142D01*
X66092857Y-51630952D01*
X66116666Y-51654761D01*
X66140476Y-51702380D01*
X66140476Y-51797619D01*
X66164285Y-51845238D01*
X66188095Y-51869047D01*
X66235714Y-51892857D01*
X66330952Y-51892857D01*
X66378571Y-51869047D01*
X66402380Y-51845238D01*
X66426190Y-51797619D01*
X66426190Y-51702380D01*
X66402380Y-51654761D01*
X66378571Y-51630952D01*
X66330952Y-51607142D01*
X66235714Y-51607142D01*
X66188095Y-51630952D01*
X66164285Y-51654761D01*
X66140476Y-51702380D01*
X89916666Y-59428571D02*
X89892857Y-59452380D01*
X89821428Y-59476190D01*
X89773809Y-59476190D01*
X89702380Y-59452380D01*
X89654761Y-59404761D01*
X89630952Y-59357142D01*
X89607142Y-59261904D01*
X89607142Y-59190476D01*
X89630952Y-59095238D01*
X89654761Y-59047619D01*
X89702380Y-59000000D01*
X89773809Y-58976190D01*
X89821428Y-58976190D01*
X89892857Y-59000000D01*
X89916666Y-59023809D01*
X90107142Y-59023809D02*
X90130952Y-59000000D01*
X90178571Y-58976190D01*
X90297619Y-58976190D01*
X90345238Y-59000000D01*
X90369047Y-59023809D01*
X90392857Y-59071428D01*
X90392857Y-59119047D01*
X90369047Y-59190476D01*
X90083333Y-59476190D01*
X90392857Y-59476190D01*
X92966666Y-61428571D02*
X92942857Y-61452380D01*
X92871428Y-61476190D01*
X92823809Y-61476190D01*
X92752380Y-61452380D01*
X92704761Y-61404761D01*
X92680952Y-61357142D01*
X92657142Y-61261904D01*
X92657142Y-61190476D01*
X92680952Y-61095238D01*
X92704761Y-61047619D01*
X92752380Y-61000000D01*
X92823809Y-60976190D01*
X92871428Y-60976190D01*
X92942857Y-61000000D01*
X92966666Y-61023809D01*
X93133333Y-60976190D02*
X93442857Y-60976190D01*
X93276190Y-61166666D01*
X93347619Y-61166666D01*
X93395238Y-61190476D01*
X93419047Y-61214285D01*
X93442857Y-61261904D01*
X93442857Y-61380952D01*
X93419047Y-61428571D01*
X93395238Y-61452380D01*
X93347619Y-61476190D01*
X93204761Y-61476190D01*
X93157142Y-61452380D01*
X93133333Y-61428571D01*
X89966666Y-56128571D02*
X89942857Y-56152380D01*
X89871428Y-56176190D01*
X89823809Y-56176190D01*
X89752380Y-56152380D01*
X89704761Y-56104761D01*
X89680952Y-56057142D01*
X89657142Y-55961904D01*
X89657142Y-55890476D01*
X89680952Y-55795238D01*
X89704761Y-55747619D01*
X89752380Y-55700000D01*
X89823809Y-55676190D01*
X89871428Y-55676190D01*
X89942857Y-55700000D01*
X89966666Y-55723809D01*
X90442857Y-56176190D02*
X90157142Y-56176190D01*
X90300000Y-56176190D02*
X90300000Y-55676190D01*
X90252380Y-55747619D01*
X90204761Y-55795238D01*
X90157142Y-55819047D01*
M02*
