M48
; DRILL file {KiCad (5.1.5)-3} date 5/1/2020 11:47:35 AM
; FORMAT={-:-/ absolute / metric / decimal}
; #@! TF.CreationDate,2020-05-01T11:47:35-04:00
; #@! TF.GenerationSoftware,Kicad,Pcbnew,(5.1.5)-3
; #@! TF.FileFunction,Plated,1,2,PTH
FMAT,2
METRIC
T1C0.200
T2C0.600
T3C0.650
%
G90
G05
T1
X56.8Y-47.4
X57.0Y-42.8
X58.0Y-44.5
X58.4Y-55.8
X59.0Y-46.4
X59.5Y-53.5
X61.2Y-43.9
X61.4Y-51.7
X61.6Y-40.2
X63.0Y-38.8
X63.0Y-49.8
X63.5Y-55.1
X63.7Y-51.6
X65.577Y-45.2
X65.638Y-46.163
X65.9Y-37.9
X66.7Y-53.2
X68.5Y-55.0
X69.1Y-43.0
X73.4Y-58.8
X74.0Y-52.7
X74.6Y-34.3
X79.2Y-45.55
X81.35Y-47.3
X83.5Y-48.85
X85.0Y-51.4
X85.8Y-45.4
X89.8Y-53.0
X91.3Y-42.65
X91.5Y-51.1
X91.9Y-52.9
X92.4Y-39.1
X92.6Y-41.2
X93.0Y-51.3
X94.05Y-47.7
X94.5Y-50.3
X94.9Y-38.9
X96.7Y-34.0
X97.25Y-48.85
X98.2Y-50.9
X103.0Y-57.2
X105.8Y-56.5
X106.4Y-44.1
X107.6Y-38.8
X109.3Y-40.35
X109.3Y-44.0
X110.4Y-50.3
X110.5Y-41.6
X112.162Y-56.362
X112.2Y-49.8
X112.5Y-47.2
T3
X70.36Y-35.6
X70.36Y-36.87
X71.63Y-35.6
X71.63Y-36.87
X72.9Y-35.6
X72.9Y-36.87
T2
G00X57.0Y-50.58
M15
G01X56.2Y-50.58
M16
G05
G00X57.0Y-59.22
M15
G01X56.2Y-59.22
M16
G05
G00X61.33Y-50.58
M15
G01X60.23Y-50.58
M16
G05
G00X61.33Y-59.22
M15
G01X60.23Y-59.22
M16
G05
T0
M30
