%FSLAX45Y45*%
G04 Gerber Fmt 4.5, Leading zero omitted, Abs format (unit mm)*
G04 Created by KiCad (PCBNEW (5.1.5)-3) date 2020-05-02 14:54:03*
%MOMM*%
%LPD*%
G04 APERTURE LIST*
%TA.AperFunction,Profile*%
%ADD10C,0.050000*%
%TD*%
%TA.AperFunction,Profile*%
%ADD11C,0.100000*%
%TD*%
%ADD12C,0.200000*%
%ADD13C,0.300000*%
G04 APERTURE END LIST*
D10*
X6500000Y-6800000D02*
X5500000Y-6800000D01*
X6500000Y-6300000D02*
X6500000Y-6800000D01*
X6900000Y-6300000D02*
X6500000Y-6300000D01*
X9400000Y-6300000D02*
X6900000Y-6300000D01*
X9400000Y-6800000D02*
X9400000Y-6300000D01*
X11100000Y-6800000D02*
X9400000Y-6800000D01*
D11*
X5500000Y-3200000D02*
X5500000Y-3300000D01*
X11600000Y-3200000D02*
X5500000Y-3200000D01*
X11600000Y-3300000D02*
X11600000Y-3200000D01*
X11600000Y-3300000D02*
X11600000Y-6800000D01*
X11600000Y-6800000D02*
X11100000Y-6800000D01*
X5500000Y-6800000D02*
X5500000Y-3300000D01*
D12*
X5995500Y-5168500D02*
X6060500Y-5233500D01*
X6060500Y-5168500D02*
X5995500Y-5233500D01*
X5995500Y-5746500D02*
X6060500Y-5811500D01*
X6060500Y-5746500D02*
X5995500Y-5811500D01*
X11450000Y-3500000D02*
G75*
G03X11450000Y-3500000I-150000J0D01*
G01*
X5950000Y-3500000D02*
G75*
G03X5950000Y-3500000I-150000J0D01*
G01*
X5950000Y-6500000D02*
G75*
G03X5950000Y-6500000I-150000J0D01*
G01*
X11450000Y-6500000D02*
G75*
G03X11450000Y-6500000I-150000J0D01*
G01*
D13*
X5781428Y-7270714D02*
X5781428Y-6970714D01*
X5852857Y-6970714D01*
X5895714Y-6985000D01*
X5924286Y-7013571D01*
X5938571Y-7042143D01*
X5952857Y-7099286D01*
X5952857Y-7142143D01*
X5938571Y-7199286D01*
X5924286Y-7227857D01*
X5895714Y-7256429D01*
X5852857Y-7270714D01*
X5781428Y-7270714D01*
X6081428Y-7270714D02*
X6081428Y-7070714D01*
X6081428Y-7127857D02*
X6095714Y-7099286D01*
X6110000Y-7085000D01*
X6138571Y-7070714D01*
X6167143Y-7070714D01*
X6267143Y-7270714D02*
X6267143Y-7070714D01*
X6267143Y-6970714D02*
X6252857Y-6985000D01*
X6267143Y-6999286D01*
X6281428Y-6985000D01*
X6267143Y-6970714D01*
X6267143Y-6999286D01*
X6452857Y-7270714D02*
X6424286Y-7256429D01*
X6410000Y-7227857D01*
X6410000Y-6970714D01*
X6610000Y-7270714D02*
X6581428Y-7256429D01*
X6567143Y-7227857D01*
X6567143Y-6970714D01*
X6952857Y-7270714D02*
X6952857Y-6970714D01*
X7052857Y-7185000D01*
X7152857Y-6970714D01*
X7152857Y-7270714D01*
X7424286Y-7270714D02*
X7424286Y-7113571D01*
X7410000Y-7085000D01*
X7381428Y-7070714D01*
X7324286Y-7070714D01*
X7295714Y-7085000D01*
X7424286Y-7256429D02*
X7395714Y-7270714D01*
X7324286Y-7270714D01*
X7295714Y-7256429D01*
X7281428Y-7227857D01*
X7281428Y-7199286D01*
X7295714Y-7170714D01*
X7324286Y-7156429D01*
X7395714Y-7156429D01*
X7424286Y-7142143D01*
X7567143Y-7070714D02*
X7567143Y-7370714D01*
X7567143Y-7085000D02*
X7595714Y-7070714D01*
X7652857Y-7070714D01*
X7681428Y-7085000D01*
X7695714Y-7099286D01*
X7710000Y-7127857D01*
X7710000Y-7213571D01*
X7695714Y-7242143D01*
X7681428Y-7256429D01*
X7652857Y-7270714D01*
X7595714Y-7270714D01*
X7567143Y-7256429D01*
X7838571Y-7242143D02*
X7852857Y-7256429D01*
X7838571Y-7270714D01*
X7824286Y-7256429D01*
X7838571Y-7242143D01*
X7838571Y-7270714D01*
X7838571Y-7085000D02*
X7852857Y-7099286D01*
X7838571Y-7113571D01*
X7824286Y-7099286D01*
X7838571Y-7085000D01*
X7838571Y-7113571D01*
X5430000Y-7732500D02*
X5495000Y-7797500D01*
X5495000Y-7732500D02*
X5430000Y-7797500D01*
X5838571Y-7600714D02*
X5867143Y-7600714D01*
X5895714Y-7615000D01*
X5910000Y-7629286D01*
X5924286Y-7657857D01*
X5938571Y-7715000D01*
X5938571Y-7786429D01*
X5924286Y-7843571D01*
X5910000Y-7872143D01*
X5895714Y-7886429D01*
X5867143Y-7900714D01*
X5838571Y-7900714D01*
X5810000Y-7886429D01*
X5795714Y-7872143D01*
X5781428Y-7843571D01*
X5767143Y-7786429D01*
X5767143Y-7715000D01*
X5781428Y-7657857D01*
X5795714Y-7629286D01*
X5810000Y-7615000D01*
X5838571Y-7600714D01*
X6067143Y-7872143D02*
X6081428Y-7886429D01*
X6067143Y-7900714D01*
X6052857Y-7886429D01*
X6067143Y-7872143D01*
X6067143Y-7900714D01*
X6338571Y-7600714D02*
X6281428Y-7600714D01*
X6252857Y-7615000D01*
X6238571Y-7629286D01*
X6210000Y-7672143D01*
X6195714Y-7729286D01*
X6195714Y-7843571D01*
X6210000Y-7872143D01*
X6224286Y-7886429D01*
X6252857Y-7900714D01*
X6310000Y-7900714D01*
X6338571Y-7886429D01*
X6352857Y-7872143D01*
X6367143Y-7843571D01*
X6367143Y-7772143D01*
X6352857Y-7743571D01*
X6338571Y-7729286D01*
X6310000Y-7715000D01*
X6252857Y-7715000D01*
X6224286Y-7729286D01*
X6210000Y-7743571D01*
X6195714Y-7772143D01*
X6638571Y-7600714D02*
X6495714Y-7600714D01*
X6481428Y-7743571D01*
X6495714Y-7729286D01*
X6524286Y-7715000D01*
X6595714Y-7715000D01*
X6624286Y-7729286D01*
X6638571Y-7743571D01*
X6652857Y-7772143D01*
X6652857Y-7843571D01*
X6638571Y-7872143D01*
X6624286Y-7886429D01*
X6595714Y-7900714D01*
X6524286Y-7900714D01*
X6495714Y-7886429D01*
X6481428Y-7872143D01*
X6781428Y-7900714D02*
X6781428Y-7700714D01*
X6781428Y-7729286D02*
X6795714Y-7715000D01*
X6824286Y-7700714D01*
X6867143Y-7700714D01*
X6895714Y-7715000D01*
X6910000Y-7743571D01*
X6910000Y-7900714D01*
X6910000Y-7743571D02*
X6924286Y-7715000D01*
X6952857Y-7700714D01*
X6995714Y-7700714D01*
X7024286Y-7715000D01*
X7038571Y-7743571D01*
X7038571Y-7900714D01*
X7181428Y-7900714D02*
X7181428Y-7700714D01*
X7181428Y-7729286D02*
X7195714Y-7715000D01*
X7224286Y-7700714D01*
X7267143Y-7700714D01*
X7295714Y-7715000D01*
X7310000Y-7743571D01*
X7310000Y-7900714D01*
X7310000Y-7743571D02*
X7324286Y-7715000D01*
X7352857Y-7700714D01*
X7395714Y-7700714D01*
X7424286Y-7715000D01*
X7438571Y-7743571D01*
X7438571Y-7900714D01*
X8024286Y-7586429D02*
X7767143Y-7972143D01*
X8410000Y-7600714D02*
X8438571Y-7600714D01*
X8467143Y-7615000D01*
X8481428Y-7629286D01*
X8495714Y-7657857D01*
X8510000Y-7715000D01*
X8510000Y-7786429D01*
X8495714Y-7843571D01*
X8481428Y-7872143D01*
X8467143Y-7886429D01*
X8438571Y-7900714D01*
X8410000Y-7900714D01*
X8381428Y-7886429D01*
X8367143Y-7872143D01*
X8352857Y-7843571D01*
X8338571Y-7786429D01*
X8338571Y-7715000D01*
X8352857Y-7657857D01*
X8367143Y-7629286D01*
X8381428Y-7615000D01*
X8410000Y-7600714D01*
X8638571Y-7872143D02*
X8652857Y-7886429D01*
X8638571Y-7900714D01*
X8624286Y-7886429D01*
X8638571Y-7872143D01*
X8638571Y-7900714D01*
X8838571Y-7600714D02*
X8867143Y-7600714D01*
X8895714Y-7615000D01*
X8910000Y-7629286D01*
X8924286Y-7657857D01*
X8938571Y-7715000D01*
X8938571Y-7786429D01*
X8924286Y-7843571D01*
X8910000Y-7872143D01*
X8895714Y-7886429D01*
X8867143Y-7900714D01*
X8838571Y-7900714D01*
X8810000Y-7886429D01*
X8795714Y-7872143D01*
X8781428Y-7843571D01*
X8767143Y-7786429D01*
X8767143Y-7715000D01*
X8781428Y-7657857D01*
X8795714Y-7629286D01*
X8810000Y-7615000D01*
X8838571Y-7600714D01*
X9052857Y-7629286D02*
X9067143Y-7615000D01*
X9095714Y-7600714D01*
X9167143Y-7600714D01*
X9195714Y-7615000D01*
X9210000Y-7629286D01*
X9224286Y-7657857D01*
X9224286Y-7686429D01*
X9210000Y-7729286D01*
X9038571Y-7900714D01*
X9224286Y-7900714D01*
X9481428Y-7600714D02*
X9424286Y-7600714D01*
X9395714Y-7615000D01*
X9381428Y-7629286D01*
X9352857Y-7672143D01*
X9338571Y-7729286D01*
X9338571Y-7843571D01*
X9352857Y-7872143D01*
X9367143Y-7886429D01*
X9395714Y-7900714D01*
X9452857Y-7900714D01*
X9481428Y-7886429D01*
X9495714Y-7872143D01*
X9510000Y-7843571D01*
X9510000Y-7772143D01*
X9495714Y-7743571D01*
X9481428Y-7729286D01*
X9452857Y-7715000D01*
X9395714Y-7715000D01*
X9367143Y-7729286D01*
X9352857Y-7743571D01*
X9338571Y-7772143D01*
X9624286Y-7600714D02*
X9624286Y-7657857D01*
X9738571Y-7600714D02*
X9738571Y-7657857D01*
X10181428Y-8015000D02*
X10167143Y-8000714D01*
X10138571Y-7957857D01*
X10124286Y-7929286D01*
X10110000Y-7886429D01*
X10095714Y-7815000D01*
X10095714Y-7757857D01*
X10110000Y-7686429D01*
X10124286Y-7643571D01*
X10138571Y-7615000D01*
X10167143Y-7572143D01*
X10181428Y-7557857D01*
X10281428Y-7629286D02*
X10295714Y-7615000D01*
X10324286Y-7600714D01*
X10395714Y-7600714D01*
X10424286Y-7615000D01*
X10438571Y-7629286D01*
X10452857Y-7657857D01*
X10452857Y-7686429D01*
X10438571Y-7729286D01*
X10267143Y-7900714D01*
X10452857Y-7900714D01*
X10810000Y-7900714D02*
X10810000Y-7600714D01*
X10938571Y-7900714D02*
X10938571Y-7743571D01*
X10924286Y-7715000D01*
X10895714Y-7700714D01*
X10852857Y-7700714D01*
X10824286Y-7715000D01*
X10810000Y-7729286D01*
X11124286Y-7900714D02*
X11095714Y-7886429D01*
X11081428Y-7872143D01*
X11067143Y-7843571D01*
X11067143Y-7757857D01*
X11081428Y-7729286D01*
X11095714Y-7715000D01*
X11124286Y-7700714D01*
X11167143Y-7700714D01*
X11195714Y-7715000D01*
X11210000Y-7729286D01*
X11224286Y-7757857D01*
X11224286Y-7843571D01*
X11210000Y-7872143D01*
X11195714Y-7886429D01*
X11167143Y-7900714D01*
X11124286Y-7900714D01*
X11395714Y-7900714D02*
X11367143Y-7886429D01*
X11352857Y-7857857D01*
X11352857Y-7600714D01*
X11624286Y-7886429D02*
X11595714Y-7900714D01*
X11538571Y-7900714D01*
X11510000Y-7886429D01*
X11495714Y-7857857D01*
X11495714Y-7743571D01*
X11510000Y-7715000D01*
X11538571Y-7700714D01*
X11595714Y-7700714D01*
X11624286Y-7715000D01*
X11638571Y-7743571D01*
X11638571Y-7772143D01*
X11495714Y-7800714D01*
X11752857Y-7886429D02*
X11781428Y-7900714D01*
X11838571Y-7900714D01*
X11867143Y-7886429D01*
X11881428Y-7857857D01*
X11881428Y-7843571D01*
X11867143Y-7815000D01*
X11838571Y-7800714D01*
X11795714Y-7800714D01*
X11767143Y-7786429D01*
X11752857Y-7757857D01*
X11752857Y-7743571D01*
X11767143Y-7715000D01*
X11795714Y-7700714D01*
X11838571Y-7700714D01*
X11867143Y-7715000D01*
X11981428Y-8015000D02*
X11995714Y-8000714D01*
X12024286Y-7957857D01*
X12038571Y-7929286D01*
X12052857Y-7886429D01*
X12067143Y-7815000D01*
X12067143Y-7757857D01*
X12052857Y-7686429D01*
X12038571Y-7643571D01*
X12024286Y-7615000D01*
X11995714Y-7572143D01*
X11981428Y-7557857D01*
X12524286Y-8015000D02*
X12510000Y-8000714D01*
X12481428Y-7957857D01*
X12467143Y-7929286D01*
X12452857Y-7886429D01*
X12438571Y-7815000D01*
X12438571Y-7757857D01*
X12452857Y-7686429D01*
X12467143Y-7643571D01*
X12481428Y-7615000D01*
X12510000Y-7572143D01*
X12524286Y-7557857D01*
X12638571Y-7700714D02*
X12638571Y-7900714D01*
X12638571Y-7729286D02*
X12652857Y-7715000D01*
X12681428Y-7700714D01*
X12724286Y-7700714D01*
X12752857Y-7715000D01*
X12767143Y-7743571D01*
X12767143Y-7900714D01*
X12952857Y-7900714D02*
X12924286Y-7886429D01*
X12910000Y-7872143D01*
X12895714Y-7843571D01*
X12895714Y-7757857D01*
X12910000Y-7729286D01*
X12924286Y-7715000D01*
X12952857Y-7700714D01*
X12995714Y-7700714D01*
X13024286Y-7715000D01*
X13038571Y-7729286D01*
X13052857Y-7757857D01*
X13052857Y-7843571D01*
X13038571Y-7872143D01*
X13024286Y-7886429D01*
X12995714Y-7900714D01*
X12952857Y-7900714D01*
X13138571Y-7700714D02*
X13252857Y-7700714D01*
X13181428Y-7600714D02*
X13181428Y-7857857D01*
X13195714Y-7886429D01*
X13224286Y-7900714D01*
X13252857Y-7900714D01*
X13581428Y-7700714D02*
X13581428Y-8000714D01*
X13581428Y-7715000D02*
X13610000Y-7700714D01*
X13667143Y-7700714D01*
X13695714Y-7715000D01*
X13710000Y-7729286D01*
X13724286Y-7757857D01*
X13724286Y-7843571D01*
X13710000Y-7872143D01*
X13695714Y-7886429D01*
X13667143Y-7900714D01*
X13610000Y-7900714D01*
X13581428Y-7886429D01*
X13895714Y-7900714D02*
X13867143Y-7886429D01*
X13852857Y-7857857D01*
X13852857Y-7600714D01*
X14138571Y-7900714D02*
X14138571Y-7743571D01*
X14124286Y-7715000D01*
X14095714Y-7700714D01*
X14038571Y-7700714D01*
X14010000Y-7715000D01*
X14138571Y-7886429D02*
X14110000Y-7900714D01*
X14038571Y-7900714D01*
X14010000Y-7886429D01*
X13995714Y-7857857D01*
X13995714Y-7829286D01*
X14010000Y-7800714D01*
X14038571Y-7786429D01*
X14110000Y-7786429D01*
X14138571Y-7772143D01*
X14238571Y-7700714D02*
X14352857Y-7700714D01*
X14281428Y-7600714D02*
X14281428Y-7857857D01*
X14295714Y-7886429D01*
X14324286Y-7900714D01*
X14352857Y-7900714D01*
X14567143Y-7886429D02*
X14538571Y-7900714D01*
X14481428Y-7900714D01*
X14452857Y-7886429D01*
X14438571Y-7857857D01*
X14438571Y-7743571D01*
X14452857Y-7715000D01*
X14481428Y-7700714D01*
X14538571Y-7700714D01*
X14567143Y-7715000D01*
X14581428Y-7743571D01*
X14581428Y-7772143D01*
X14438571Y-7800714D01*
X14838571Y-7900714D02*
X14838571Y-7600714D01*
X14838571Y-7886429D02*
X14810000Y-7900714D01*
X14752857Y-7900714D01*
X14724286Y-7886429D01*
X14710000Y-7872143D01*
X14695714Y-7843571D01*
X14695714Y-7757857D01*
X14710000Y-7729286D01*
X14724286Y-7715000D01*
X14752857Y-7700714D01*
X14810000Y-7700714D01*
X14838571Y-7715000D01*
X14952857Y-8015000D02*
X14967143Y-8000714D01*
X14995714Y-7957857D01*
X15010000Y-7929286D01*
X15024286Y-7886429D01*
X15038571Y-7815000D01*
X15038571Y-7757857D01*
X15024286Y-7686429D01*
X15010000Y-7643571D01*
X14995714Y-7615000D01*
X14967143Y-7572143D01*
X14952857Y-7557857D01*
X5495000Y-8161000D02*
G75*
G03X5495000Y-8161000I-150000J0D01*
G01*
X5752857Y-7996714D02*
X5938571Y-7996714D01*
X5838571Y-8111000D01*
X5881428Y-8111000D01*
X5910000Y-8125286D01*
X5924286Y-8139571D01*
X5938571Y-8168143D01*
X5938571Y-8239571D01*
X5924286Y-8268143D01*
X5910000Y-8282429D01*
X5881428Y-8296714D01*
X5795714Y-8296714D01*
X5767143Y-8282429D01*
X5752857Y-8268143D01*
X6067143Y-8268143D02*
X6081428Y-8282429D01*
X6067143Y-8296714D01*
X6052857Y-8282429D01*
X6067143Y-8268143D01*
X6067143Y-8296714D01*
X6267143Y-7996714D02*
X6295714Y-7996714D01*
X6324286Y-8011000D01*
X6338571Y-8025286D01*
X6352857Y-8053857D01*
X6367143Y-8111000D01*
X6367143Y-8182429D01*
X6352857Y-8239571D01*
X6338571Y-8268143D01*
X6324286Y-8282429D01*
X6295714Y-8296714D01*
X6267143Y-8296714D01*
X6238571Y-8282429D01*
X6224286Y-8268143D01*
X6210000Y-8239571D01*
X6195714Y-8182429D01*
X6195714Y-8111000D01*
X6210000Y-8053857D01*
X6224286Y-8025286D01*
X6238571Y-8011000D01*
X6267143Y-7996714D01*
X6552857Y-7996714D02*
X6581428Y-7996714D01*
X6610000Y-8011000D01*
X6624286Y-8025286D01*
X6638571Y-8053857D01*
X6652857Y-8111000D01*
X6652857Y-8182429D01*
X6638571Y-8239571D01*
X6624286Y-8268143D01*
X6610000Y-8282429D01*
X6581428Y-8296714D01*
X6552857Y-8296714D01*
X6524286Y-8282429D01*
X6510000Y-8268143D01*
X6495714Y-8239571D01*
X6481428Y-8182429D01*
X6481428Y-8111000D01*
X6495714Y-8053857D01*
X6510000Y-8025286D01*
X6524286Y-8011000D01*
X6552857Y-7996714D01*
X6781428Y-8296714D02*
X6781428Y-8096714D01*
X6781428Y-8125286D02*
X6795714Y-8111000D01*
X6824286Y-8096714D01*
X6867143Y-8096714D01*
X6895714Y-8111000D01*
X6910000Y-8139571D01*
X6910000Y-8296714D01*
X6910000Y-8139571D02*
X6924286Y-8111000D01*
X6952857Y-8096714D01*
X6995714Y-8096714D01*
X7024286Y-8111000D01*
X7038571Y-8139571D01*
X7038571Y-8296714D01*
X7181428Y-8296714D02*
X7181428Y-8096714D01*
X7181428Y-8125286D02*
X7195714Y-8111000D01*
X7224286Y-8096714D01*
X7267143Y-8096714D01*
X7295714Y-8111000D01*
X7310000Y-8139571D01*
X7310000Y-8296714D01*
X7310000Y-8139571D02*
X7324286Y-8111000D01*
X7352857Y-8096714D01*
X7395714Y-8096714D01*
X7424286Y-8111000D01*
X7438571Y-8139571D01*
X7438571Y-8296714D01*
X8024286Y-7982429D02*
X7767143Y-8368143D01*
X8410000Y-7996714D02*
X8438571Y-7996714D01*
X8467143Y-8011000D01*
X8481428Y-8025286D01*
X8495714Y-8053857D01*
X8510000Y-8111000D01*
X8510000Y-8182429D01*
X8495714Y-8239571D01*
X8481428Y-8268143D01*
X8467143Y-8282429D01*
X8438571Y-8296714D01*
X8410000Y-8296714D01*
X8381428Y-8282429D01*
X8367143Y-8268143D01*
X8352857Y-8239571D01*
X8338571Y-8182429D01*
X8338571Y-8111000D01*
X8352857Y-8053857D01*
X8367143Y-8025286D01*
X8381428Y-8011000D01*
X8410000Y-7996714D01*
X8638571Y-8268143D02*
X8652857Y-8282429D01*
X8638571Y-8296714D01*
X8624286Y-8282429D01*
X8638571Y-8268143D01*
X8638571Y-8296714D01*
X8938571Y-8296714D02*
X8767143Y-8296714D01*
X8852857Y-8296714D02*
X8852857Y-7996714D01*
X8824286Y-8039571D01*
X8795714Y-8068143D01*
X8767143Y-8082429D01*
X9224286Y-8296714D02*
X9052857Y-8296714D01*
X9138571Y-8296714D02*
X9138571Y-7996714D01*
X9110000Y-8039571D01*
X9081428Y-8068143D01*
X9052857Y-8082429D01*
X9395714Y-8125286D02*
X9367143Y-8111000D01*
X9352857Y-8096714D01*
X9338571Y-8068143D01*
X9338571Y-8053857D01*
X9352857Y-8025286D01*
X9367143Y-8011000D01*
X9395714Y-7996714D01*
X9452857Y-7996714D01*
X9481428Y-8011000D01*
X9495714Y-8025286D01*
X9510000Y-8053857D01*
X9510000Y-8068143D01*
X9495714Y-8096714D01*
X9481428Y-8111000D01*
X9452857Y-8125286D01*
X9395714Y-8125286D01*
X9367143Y-8139571D01*
X9352857Y-8153857D01*
X9338571Y-8182429D01*
X9338571Y-8239571D01*
X9352857Y-8268143D01*
X9367143Y-8282429D01*
X9395714Y-8296714D01*
X9452857Y-8296714D01*
X9481428Y-8282429D01*
X9495714Y-8268143D01*
X9510000Y-8239571D01*
X9510000Y-8182429D01*
X9495714Y-8153857D01*
X9481428Y-8139571D01*
X9452857Y-8125286D01*
X9624286Y-7996714D02*
X9624286Y-8053857D01*
X9738571Y-7996714D02*
X9738571Y-8053857D01*
X10181428Y-8411000D02*
X10167143Y-8396714D01*
X10138571Y-8353857D01*
X10124286Y-8325286D01*
X10110000Y-8282429D01*
X10095714Y-8211000D01*
X10095714Y-8153857D01*
X10110000Y-8082429D01*
X10124286Y-8039571D01*
X10138571Y-8011000D01*
X10167143Y-7968143D01*
X10181428Y-7953857D01*
X10424286Y-8096714D02*
X10424286Y-8296714D01*
X10352857Y-7982429D02*
X10281428Y-8196714D01*
X10467143Y-8196714D01*
X10810000Y-8296714D02*
X10810000Y-7996714D01*
X10938571Y-8296714D02*
X10938571Y-8139571D01*
X10924286Y-8111000D01*
X10895714Y-8096714D01*
X10852857Y-8096714D01*
X10824286Y-8111000D01*
X10810000Y-8125286D01*
X11124286Y-8296714D02*
X11095714Y-8282429D01*
X11081428Y-8268143D01*
X11067143Y-8239571D01*
X11067143Y-8153857D01*
X11081428Y-8125286D01*
X11095714Y-8111000D01*
X11124286Y-8096714D01*
X11167143Y-8096714D01*
X11195714Y-8111000D01*
X11210000Y-8125286D01*
X11224286Y-8153857D01*
X11224286Y-8239571D01*
X11210000Y-8268143D01*
X11195714Y-8282429D01*
X11167143Y-8296714D01*
X11124286Y-8296714D01*
X11395714Y-8296714D02*
X11367143Y-8282429D01*
X11352857Y-8253857D01*
X11352857Y-7996714D01*
X11624286Y-8282429D02*
X11595714Y-8296714D01*
X11538571Y-8296714D01*
X11510000Y-8282429D01*
X11495714Y-8253857D01*
X11495714Y-8139571D01*
X11510000Y-8111000D01*
X11538571Y-8096714D01*
X11595714Y-8096714D01*
X11624286Y-8111000D01*
X11638571Y-8139571D01*
X11638571Y-8168143D01*
X11495714Y-8196714D01*
X11752857Y-8282429D02*
X11781428Y-8296714D01*
X11838571Y-8296714D01*
X11867143Y-8282429D01*
X11881428Y-8253857D01*
X11881428Y-8239571D01*
X11867143Y-8211000D01*
X11838571Y-8196714D01*
X11795714Y-8196714D01*
X11767143Y-8182429D01*
X11752857Y-8153857D01*
X11752857Y-8139571D01*
X11767143Y-8111000D01*
X11795714Y-8096714D01*
X11838571Y-8096714D01*
X11867143Y-8111000D01*
X11981428Y-8411000D02*
X11995714Y-8396714D01*
X12024286Y-8353857D01*
X12038571Y-8325286D01*
X12052857Y-8282429D01*
X12067143Y-8211000D01*
X12067143Y-8153857D01*
X12052857Y-8082429D01*
X12038571Y-8039571D01*
X12024286Y-8011000D01*
X11995714Y-7968143D01*
X11981428Y-7953857D01*
X12524286Y-8411000D02*
X12510000Y-8396714D01*
X12481428Y-8353857D01*
X12467143Y-8325286D01*
X12452857Y-8282429D01*
X12438571Y-8211000D01*
X12438571Y-8153857D01*
X12452857Y-8082429D01*
X12467143Y-8039571D01*
X12481428Y-8011000D01*
X12510000Y-7968143D01*
X12524286Y-7953857D01*
X12638571Y-8096714D02*
X12638571Y-8296714D01*
X12638571Y-8125286D02*
X12652857Y-8111000D01*
X12681428Y-8096714D01*
X12724286Y-8096714D01*
X12752857Y-8111000D01*
X12767143Y-8139571D01*
X12767143Y-8296714D01*
X12952857Y-8296714D02*
X12924286Y-8282429D01*
X12910000Y-8268143D01*
X12895714Y-8239571D01*
X12895714Y-8153857D01*
X12910000Y-8125286D01*
X12924286Y-8111000D01*
X12952857Y-8096714D01*
X12995714Y-8096714D01*
X13024286Y-8111000D01*
X13038571Y-8125286D01*
X13052857Y-8153857D01*
X13052857Y-8239571D01*
X13038571Y-8268143D01*
X13024286Y-8282429D01*
X12995714Y-8296714D01*
X12952857Y-8296714D01*
X13138571Y-8096714D02*
X13252857Y-8096714D01*
X13181428Y-7996714D02*
X13181428Y-8253857D01*
X13195714Y-8282429D01*
X13224286Y-8296714D01*
X13252857Y-8296714D01*
X13581428Y-8096714D02*
X13581428Y-8396714D01*
X13581428Y-8111000D02*
X13610000Y-8096714D01*
X13667143Y-8096714D01*
X13695714Y-8111000D01*
X13710000Y-8125286D01*
X13724286Y-8153857D01*
X13724286Y-8239571D01*
X13710000Y-8268143D01*
X13695714Y-8282429D01*
X13667143Y-8296714D01*
X13610000Y-8296714D01*
X13581428Y-8282429D01*
X13895714Y-8296714D02*
X13867143Y-8282429D01*
X13852857Y-8253857D01*
X13852857Y-7996714D01*
X14138571Y-8296714D02*
X14138571Y-8139571D01*
X14124286Y-8111000D01*
X14095714Y-8096714D01*
X14038571Y-8096714D01*
X14010000Y-8111000D01*
X14138571Y-8282429D02*
X14110000Y-8296714D01*
X14038571Y-8296714D01*
X14010000Y-8282429D01*
X13995714Y-8253857D01*
X13995714Y-8225286D01*
X14010000Y-8196714D01*
X14038571Y-8182429D01*
X14110000Y-8182429D01*
X14138571Y-8168143D01*
X14238571Y-8096714D02*
X14352857Y-8096714D01*
X14281428Y-7996714D02*
X14281428Y-8253857D01*
X14295714Y-8282429D01*
X14324286Y-8296714D01*
X14352857Y-8296714D01*
X14567143Y-8282429D02*
X14538571Y-8296714D01*
X14481428Y-8296714D01*
X14452857Y-8282429D01*
X14438571Y-8253857D01*
X14438571Y-8139571D01*
X14452857Y-8111000D01*
X14481428Y-8096714D01*
X14538571Y-8096714D01*
X14567143Y-8111000D01*
X14581428Y-8139571D01*
X14581428Y-8168143D01*
X14438571Y-8196714D01*
X14838571Y-8296714D02*
X14838571Y-7996714D01*
X14838571Y-8282429D02*
X14810000Y-8296714D01*
X14752857Y-8296714D01*
X14724286Y-8282429D01*
X14710000Y-8268143D01*
X14695714Y-8239571D01*
X14695714Y-8153857D01*
X14710000Y-8125286D01*
X14724286Y-8111000D01*
X14752857Y-8096714D01*
X14810000Y-8096714D01*
X14838571Y-8111000D01*
X14952857Y-8411000D02*
X14967143Y-8396714D01*
X14995714Y-8353857D01*
X15010000Y-8325286D01*
X15024286Y-8282429D01*
X15038571Y-8211000D01*
X15038571Y-8153857D01*
X15024286Y-8082429D01*
X15010000Y-8039571D01*
X14995714Y-8011000D01*
X14967143Y-7968143D01*
X14952857Y-7953857D01*
M02*
