G04 #@! TF.GenerationSoftware,KiCad,Pcbnew,(5.1.5)-3*
G04 #@! TF.CreationDate,2020-05-02T15:44:16-04:00*
G04 #@! TF.ProjectId,amp,616d702e-6b69-4636-9164-5f7063625858,0.6.0*
G04 #@! TF.SameCoordinates,Original*
G04 #@! TF.FileFunction,Legend,Bot*
G04 #@! TF.FilePolarity,Positive*
%FSLAX46Y46*%
G04 Gerber Fmt 4.6, Leading zero omitted, Abs format (unit mm)*
G04 Created by KiCad (PCBNEW (5.1.5)-3) date 2020-05-02 15:44:16*
%MOMM*%
%LPD*%
G04 APERTURE LIST*
%ADD10C,0.250000*%
%ADD11C,0.010000*%
%ADD12C,0.150000*%
G04 APERTURE END LIST*
D10*
X111061904Y-40192857D02*
X109538095Y-40192857D01*
X110300000Y-40954761D02*
X110300000Y-39430952D01*
D11*
G36*
X82944771Y-50332869D02*
G01*
X82924702Y-50111310D01*
X82887932Y-49902729D01*
X82831672Y-49688832D01*
X82798080Y-49582400D01*
X82766195Y-49495106D01*
X82723081Y-49389961D01*
X82673293Y-49276602D01*
X82621386Y-49164664D01*
X82571916Y-49063783D01*
X82529437Y-48983594D01*
X82498505Y-48933733D01*
X82485889Y-48922022D01*
X82470819Y-48943352D01*
X82432125Y-49005011D01*
X82371894Y-49103516D01*
X82292210Y-49235382D01*
X82195160Y-49397126D01*
X82082830Y-49585263D01*
X81957307Y-49796310D01*
X81820675Y-50026783D01*
X81675022Y-50273197D01*
X81556300Y-50474551D01*
X81403834Y-50732650D01*
X81257639Y-50978658D01*
X81119930Y-51208941D01*
X80992919Y-51419863D01*
X80878823Y-51607792D01*
X80779854Y-51769093D01*
X80698227Y-51900133D01*
X80636156Y-51997277D01*
X80595856Y-52056892D01*
X80581325Y-52074729D01*
X80500177Y-52116154D01*
X80425025Y-52113782D01*
X80366286Y-52068113D01*
X80363716Y-52064321D01*
X80343788Y-52026291D01*
X80306749Y-51948280D01*
X80255626Y-51836948D01*
X80193442Y-51698953D01*
X80123223Y-51540955D01*
X80047992Y-51369612D01*
X80043567Y-51359471D01*
X79969284Y-51190000D01*
X79900936Y-51035674D01*
X79841315Y-50902667D01*
X79793212Y-50797154D01*
X79759418Y-50725309D01*
X79742723Y-50693306D01*
X79742108Y-50692542D01*
X79719699Y-50704538D01*
X79662776Y-50746136D01*
X79575431Y-50813917D01*
X79461752Y-50904461D01*
X79325831Y-51014348D01*
X79171757Y-51140160D01*
X79003622Y-51278477D01*
X78825514Y-51425879D01*
X78641525Y-51578948D01*
X78455745Y-51734265D01*
X78272264Y-51888409D01*
X78095172Y-52037961D01*
X77928560Y-52179502D01*
X77776518Y-52309613D01*
X77643136Y-52424875D01*
X77532504Y-52521867D01*
X77448713Y-52597172D01*
X77395853Y-52647368D01*
X77378000Y-52668860D01*
X77395554Y-52698494D01*
X77443117Y-52753816D01*
X77513041Y-52826418D01*
X77582544Y-52893743D01*
X77894903Y-53153982D01*
X78229684Y-53369547D01*
X78583781Y-53539683D01*
X78954086Y-53663636D01*
X79337494Y-53740651D01*
X79730897Y-53769974D01*
X80131190Y-53750850D01*
X80535266Y-53682525D01*
X80680000Y-53646029D01*
X80839465Y-53592429D01*
X81024288Y-53514383D01*
X81220151Y-53419171D01*
X81412736Y-53314071D01*
X81587724Y-53206361D01*
X81699254Y-53127904D01*
X81999187Y-52869205D01*
X82263860Y-52575856D01*
X82490560Y-52252209D01*
X82676576Y-51902617D01*
X82819197Y-51531431D01*
X82906813Y-51189583D01*
X82932354Y-51017529D01*
X82946849Y-50810710D01*
X82950926Y-50585700D01*
X82944771Y-50332869D01*
G37*
X82944771Y-50332869D02*
X82924702Y-50111310D01*
X82887932Y-49902729D01*
X82831672Y-49688832D01*
X82798080Y-49582400D01*
X82766195Y-49495106D01*
X82723081Y-49389961D01*
X82673293Y-49276602D01*
X82621386Y-49164664D01*
X82571916Y-49063783D01*
X82529437Y-48983594D01*
X82498505Y-48933733D01*
X82485889Y-48922022D01*
X82470819Y-48943352D01*
X82432125Y-49005011D01*
X82371894Y-49103516D01*
X82292210Y-49235382D01*
X82195160Y-49397126D01*
X82082830Y-49585263D01*
X81957307Y-49796310D01*
X81820675Y-50026783D01*
X81675022Y-50273197D01*
X81556300Y-50474551D01*
X81403834Y-50732650D01*
X81257639Y-50978658D01*
X81119930Y-51208941D01*
X80992919Y-51419863D01*
X80878823Y-51607792D01*
X80779854Y-51769093D01*
X80698227Y-51900133D01*
X80636156Y-51997277D01*
X80595856Y-52056892D01*
X80581325Y-52074729D01*
X80500177Y-52116154D01*
X80425025Y-52113782D01*
X80366286Y-52068113D01*
X80363716Y-52064321D01*
X80343788Y-52026291D01*
X80306749Y-51948280D01*
X80255626Y-51836948D01*
X80193442Y-51698953D01*
X80123223Y-51540955D01*
X80047992Y-51369612D01*
X80043567Y-51359471D01*
X79969284Y-51190000D01*
X79900936Y-51035674D01*
X79841315Y-50902667D01*
X79793212Y-50797154D01*
X79759418Y-50725309D01*
X79742723Y-50693306D01*
X79742108Y-50692542D01*
X79719699Y-50704538D01*
X79662776Y-50746136D01*
X79575431Y-50813917D01*
X79461752Y-50904461D01*
X79325831Y-51014348D01*
X79171757Y-51140160D01*
X79003622Y-51278477D01*
X78825514Y-51425879D01*
X78641525Y-51578948D01*
X78455745Y-51734265D01*
X78272264Y-51888409D01*
X78095172Y-52037961D01*
X77928560Y-52179502D01*
X77776518Y-52309613D01*
X77643136Y-52424875D01*
X77532504Y-52521867D01*
X77448713Y-52597172D01*
X77395853Y-52647368D01*
X77378000Y-52668860D01*
X77395554Y-52698494D01*
X77443117Y-52753816D01*
X77513041Y-52826418D01*
X77582544Y-52893743D01*
X77894903Y-53153982D01*
X78229684Y-53369547D01*
X78583781Y-53539683D01*
X78954086Y-53663636D01*
X79337494Y-53740651D01*
X79730897Y-53769974D01*
X80131190Y-53750850D01*
X80535266Y-53682525D01*
X80680000Y-53646029D01*
X80839465Y-53592429D01*
X81024288Y-53514383D01*
X81220151Y-53419171D01*
X81412736Y-53314071D01*
X81587724Y-53206361D01*
X81699254Y-53127904D01*
X81999187Y-52869205D01*
X82263860Y-52575856D01*
X82490560Y-52252209D01*
X82676576Y-51902617D01*
X82819197Y-51531431D01*
X82906813Y-51189583D01*
X82932354Y-51017529D01*
X82946849Y-50810710D01*
X82950926Y-50585700D01*
X82944771Y-50332869D01*
G36*
X82024495Y-48342253D02*
G01*
X81733989Y-48086402D01*
X81412601Y-47866758D01*
X81067305Y-47686963D01*
X80705077Y-47550658D01*
X80340012Y-47462718D01*
X80159382Y-47440070D01*
X79947077Y-47427495D01*
X79721212Y-47424992D01*
X79499904Y-47432562D01*
X79301267Y-47450204D01*
X79216589Y-47462718D01*
X78833861Y-47554091D01*
X78472469Y-47691207D01*
X78131557Y-47874518D01*
X77810269Y-48104477D01*
X77540736Y-48348136D01*
X77268321Y-48654148D01*
X77041334Y-48981533D01*
X76860464Y-49329014D01*
X76726400Y-49695311D01*
X76655538Y-49989185D01*
X76631602Y-50151635D01*
X76614535Y-50341164D01*
X76605044Y-50540194D01*
X76603837Y-50731148D01*
X76611619Y-50896448D01*
X76616990Y-50948164D01*
X76659419Y-51202894D01*
X76721432Y-51461955D01*
X76797190Y-51702243D01*
X76827708Y-51782190D01*
X76874280Y-51889720D01*
X76929063Y-52004253D01*
X76987128Y-52116889D01*
X77043551Y-52218724D01*
X77093404Y-52300859D01*
X77131760Y-52354392D01*
X77153351Y-52370560D01*
X77170807Y-52349495D01*
X77216070Y-52290174D01*
X77287061Y-52195416D01*
X77381701Y-52068046D01*
X77497912Y-51910885D01*
X77633615Y-51726754D01*
X77786731Y-51518476D01*
X77955182Y-51288873D01*
X78136889Y-51040766D01*
X78329772Y-50776978D01*
X78531754Y-50500330D01*
X78608433Y-50395200D01*
X78856296Y-50055387D01*
X79076139Y-49754401D01*
X79269806Y-49489980D01*
X79439142Y-49259858D01*
X79585993Y-49061770D01*
X79712204Y-48893454D01*
X79819620Y-48752642D01*
X79910086Y-48637072D01*
X79985447Y-48544479D01*
X80047550Y-48472597D01*
X80098239Y-48419163D01*
X80139359Y-48381912D01*
X80172756Y-48358580D01*
X80200274Y-48346901D01*
X80223760Y-48344611D01*
X80245058Y-48349447D01*
X80266013Y-48359142D01*
X80267041Y-48359690D01*
X80292290Y-48392882D01*
X80332997Y-48473094D01*
X80388640Y-48599123D01*
X80458692Y-48769769D01*
X80542632Y-48983829D01*
X80566674Y-49046469D01*
X80632850Y-49217949D01*
X80693683Y-49372507D01*
X80746730Y-49504180D01*
X80789549Y-49607006D01*
X80819696Y-49675025D01*
X80834728Y-49702275D01*
X80835473Y-49702503D01*
X80857960Y-49685415D01*
X80914857Y-49639417D01*
X81001647Y-49568236D01*
X81113814Y-49475603D01*
X81246842Y-49365246D01*
X81396213Y-49240893D01*
X81539580Y-49121186D01*
X82227913Y-48545671D01*
X82024495Y-48342253D01*
G37*
X82024495Y-48342253D02*
X81733989Y-48086402D01*
X81412601Y-47866758D01*
X81067305Y-47686963D01*
X80705077Y-47550658D01*
X80340012Y-47462718D01*
X80159382Y-47440070D01*
X79947077Y-47427495D01*
X79721212Y-47424992D01*
X79499904Y-47432562D01*
X79301267Y-47450204D01*
X79216589Y-47462718D01*
X78833861Y-47554091D01*
X78472469Y-47691207D01*
X78131557Y-47874518D01*
X77810269Y-48104477D01*
X77540736Y-48348136D01*
X77268321Y-48654148D01*
X77041334Y-48981533D01*
X76860464Y-49329014D01*
X76726400Y-49695311D01*
X76655538Y-49989185D01*
X76631602Y-50151635D01*
X76614535Y-50341164D01*
X76605044Y-50540194D01*
X76603837Y-50731148D01*
X76611619Y-50896448D01*
X76616990Y-50948164D01*
X76659419Y-51202894D01*
X76721432Y-51461955D01*
X76797190Y-51702243D01*
X76827708Y-51782190D01*
X76874280Y-51889720D01*
X76929063Y-52004253D01*
X76987128Y-52116889D01*
X77043551Y-52218724D01*
X77093404Y-52300859D01*
X77131760Y-52354392D01*
X77153351Y-52370560D01*
X77170807Y-52349495D01*
X77216070Y-52290174D01*
X77287061Y-52195416D01*
X77381701Y-52068046D01*
X77497912Y-51910885D01*
X77633615Y-51726754D01*
X77786731Y-51518476D01*
X77955182Y-51288873D01*
X78136889Y-51040766D01*
X78329772Y-50776978D01*
X78531754Y-50500330D01*
X78608433Y-50395200D01*
X78856296Y-50055387D01*
X79076139Y-49754401D01*
X79269806Y-49489980D01*
X79439142Y-49259858D01*
X79585993Y-49061770D01*
X79712204Y-48893454D01*
X79819620Y-48752642D01*
X79910086Y-48637072D01*
X79985447Y-48544479D01*
X80047550Y-48472597D01*
X80098239Y-48419163D01*
X80139359Y-48381912D01*
X80172756Y-48358580D01*
X80200274Y-48346901D01*
X80223760Y-48344611D01*
X80245058Y-48349447D01*
X80266013Y-48359142D01*
X80267041Y-48359690D01*
X80292290Y-48392882D01*
X80332997Y-48473094D01*
X80388640Y-48599123D01*
X80458692Y-48769769D01*
X80542632Y-48983829D01*
X80566674Y-49046469D01*
X80632850Y-49217949D01*
X80693683Y-49372507D01*
X80746730Y-49504180D01*
X80789549Y-49607006D01*
X80819696Y-49675025D01*
X80834728Y-49702275D01*
X80835473Y-49702503D01*
X80857960Y-49685415D01*
X80914857Y-49639417D01*
X81001647Y-49568236D01*
X81113814Y-49475603D01*
X81246842Y-49365246D01*
X81396213Y-49240893D01*
X81539580Y-49121186D01*
X82227913Y-48545671D01*
X82024495Y-48342253D01*
G36*
X75066357Y-45763991D02*
G01*
X75065332Y-45497762D01*
X75063082Y-45272552D01*
X75059165Y-45083471D01*
X75053136Y-44925631D01*
X75044555Y-44794140D01*
X75032976Y-44684110D01*
X75017958Y-44590650D01*
X74999057Y-44508871D01*
X74975831Y-44433884D01*
X74947837Y-44360797D01*
X74914631Y-44284722D01*
X74901779Y-44256664D01*
X74746513Y-43977460D01*
X74556692Y-43732805D01*
X74336654Y-43524570D01*
X74090740Y-43354629D01*
X73823288Y-43224854D01*
X73538639Y-43137116D01*
X73241133Y-43093289D01*
X72935109Y-43095244D01*
X72624907Y-43144853D01*
X72444180Y-43196401D01*
X72192584Y-43305331D01*
X71952172Y-43457791D01*
X71730396Y-43646649D01*
X71534708Y-43864772D01*
X71372559Y-44105029D01*
X71265227Y-44324877D01*
X71220308Y-44448835D01*
X71185844Y-44576431D01*
X71160699Y-44716511D01*
X71143737Y-44877918D01*
X71133822Y-45069499D01*
X71129819Y-45300099D01*
X71129600Y-45380935D01*
X71129600Y-45899400D01*
X70469200Y-45899400D01*
X70469200Y-47321800D01*
X72826294Y-47321800D01*
X72826294Y-45895130D01*
X72710010Y-45893866D01*
X72626602Y-45891385D01*
X72584390Y-45887785D01*
X72582090Y-45887141D01*
X72569659Y-45873506D01*
X72560930Y-45839500D01*
X72555570Y-45778909D01*
X72553247Y-45685517D01*
X72553629Y-45553108D01*
X72555973Y-45397635D01*
X72559266Y-45230657D01*
X72562901Y-45105936D01*
X72568013Y-45014937D01*
X72575737Y-44949124D01*
X72587207Y-44899962D01*
X72603559Y-44858914D01*
X72625927Y-44817444D01*
X72635226Y-44801526D01*
X72734779Y-44680015D01*
X72866843Y-44590005D01*
X73018992Y-44539298D01*
X73062256Y-44533324D01*
X73198100Y-44543201D01*
X73334862Y-44592299D01*
X73455127Y-44672460D01*
X73525600Y-44750320D01*
X73569471Y-44826277D01*
X73601618Y-44914599D01*
X73623261Y-45023304D01*
X73635620Y-45160409D01*
X73639913Y-45333929D01*
X73638569Y-45493000D01*
X73631500Y-45886700D01*
X73124217Y-45893606D01*
X72967137Y-45895076D01*
X72826294Y-45895130D01*
X72826294Y-47321800D01*
X75066600Y-47321800D01*
X75066600Y-46076130D01*
X75066357Y-45763991D01*
G37*
X75066357Y-45763991D02*
X75065332Y-45497762D01*
X75063082Y-45272552D01*
X75059165Y-45083471D01*
X75053136Y-44925631D01*
X75044555Y-44794140D01*
X75032976Y-44684110D01*
X75017958Y-44590650D01*
X74999057Y-44508871D01*
X74975831Y-44433884D01*
X74947837Y-44360797D01*
X74914631Y-44284722D01*
X74901779Y-44256664D01*
X74746513Y-43977460D01*
X74556692Y-43732805D01*
X74336654Y-43524570D01*
X74090740Y-43354629D01*
X73823288Y-43224854D01*
X73538639Y-43137116D01*
X73241133Y-43093289D01*
X72935109Y-43095244D01*
X72624907Y-43144853D01*
X72444180Y-43196401D01*
X72192584Y-43305331D01*
X71952172Y-43457791D01*
X71730396Y-43646649D01*
X71534708Y-43864772D01*
X71372559Y-44105029D01*
X71265227Y-44324877D01*
X71220308Y-44448835D01*
X71185844Y-44576431D01*
X71160699Y-44716511D01*
X71143737Y-44877918D01*
X71133822Y-45069499D01*
X71129819Y-45300099D01*
X71129600Y-45380935D01*
X71129600Y-45899400D01*
X70469200Y-45899400D01*
X70469200Y-47321800D01*
X72826294Y-47321800D01*
X72826294Y-45895130D01*
X72710010Y-45893866D01*
X72626602Y-45891385D01*
X72584390Y-45887785D01*
X72582090Y-45887141D01*
X72569659Y-45873506D01*
X72560930Y-45839500D01*
X72555570Y-45778909D01*
X72553247Y-45685517D01*
X72553629Y-45553108D01*
X72555973Y-45397635D01*
X72559266Y-45230657D01*
X72562901Y-45105936D01*
X72568013Y-45014937D01*
X72575737Y-44949124D01*
X72587207Y-44899962D01*
X72603559Y-44858914D01*
X72625927Y-44817444D01*
X72635226Y-44801526D01*
X72734779Y-44680015D01*
X72866843Y-44590005D01*
X73018992Y-44539298D01*
X73062256Y-44533324D01*
X73198100Y-44543201D01*
X73334862Y-44592299D01*
X73455127Y-44672460D01*
X73525600Y-44750320D01*
X73569471Y-44826277D01*
X73601618Y-44914599D01*
X73623261Y-45023304D01*
X73635620Y-45160409D01*
X73639913Y-45333929D01*
X73638569Y-45493000D01*
X73631500Y-45886700D01*
X73124217Y-45893606D01*
X72967137Y-45895076D01*
X72826294Y-45895130D01*
X72826294Y-47321800D01*
X75066600Y-47321800D01*
X75066600Y-46076130D01*
X75066357Y-45763991D01*
G36*
X75502111Y-55362517D02*
G01*
X75439262Y-55324278D01*
X75337911Y-55263960D01*
X75200831Y-55183176D01*
X75030795Y-55083542D01*
X74830575Y-54966674D01*
X74602944Y-54834185D01*
X74350673Y-54687691D01*
X74076535Y-54528806D01*
X73783302Y-54359147D01*
X73473748Y-54180327D01*
X73150643Y-53993962D01*
X73032352Y-53925800D01*
X70541130Y-52490700D01*
X72943565Y-52484222D01*
X73288138Y-52483087D01*
X73617925Y-52481603D01*
X73929431Y-52479805D01*
X74219158Y-52477734D01*
X74483609Y-52475427D01*
X74719289Y-52472922D01*
X74922700Y-52470258D01*
X75090347Y-52467473D01*
X75218732Y-52464605D01*
X75304359Y-52461694D01*
X75343731Y-52458776D01*
X75346000Y-52457905D01*
X75327324Y-52438394D01*
X75273300Y-52388239D01*
X75186938Y-52310104D01*
X75071245Y-52206655D01*
X74929231Y-52080556D01*
X74763902Y-51934472D01*
X74578269Y-51771067D01*
X74375339Y-51593008D01*
X74158120Y-51402958D01*
X73949119Y-51220573D01*
X73672243Y-50978922D01*
X73431963Y-50768449D01*
X73226264Y-50587313D01*
X73053134Y-50433678D01*
X72910559Y-50305705D01*
X72796525Y-50201555D01*
X72709019Y-50119389D01*
X72646028Y-50057370D01*
X72605539Y-50013658D01*
X72585537Y-49986416D01*
X72583869Y-49973929D01*
X72607821Y-49952627D01*
X72666744Y-49900556D01*
X72757471Y-49820504D01*
X72876836Y-49715263D01*
X73021674Y-49587621D01*
X73188817Y-49440369D01*
X73375101Y-49276297D01*
X73577359Y-49098193D01*
X73792424Y-48908850D01*
X73936300Y-48782201D01*
X74158560Y-48586521D01*
X74370504Y-48399834D01*
X74568910Y-48224985D01*
X74750550Y-48064823D01*
X74912201Y-47922192D01*
X75050636Y-47799939D01*
X75162631Y-47700911D01*
X75244961Y-47627954D01*
X75294401Y-47583915D01*
X75307195Y-47572311D01*
X75314388Y-47564439D01*
X75316327Y-47557491D01*
X75310088Y-47551411D01*
X75292747Y-47546141D01*
X75261382Y-47541622D01*
X75213067Y-47537798D01*
X75144881Y-47534609D01*
X75053898Y-47531999D01*
X74937196Y-47529909D01*
X74791851Y-47528283D01*
X74614939Y-47527061D01*
X74403537Y-47526187D01*
X74154721Y-47525602D01*
X73865567Y-47525249D01*
X73533152Y-47525069D01*
X73154553Y-47525007D01*
X72913245Y-47525000D01*
X70469200Y-47525000D01*
X70469200Y-48946528D01*
X71740052Y-48960100D01*
X71039728Y-49484863D01*
X70339403Y-50009625D01*
X70575752Y-50184252D01*
X70670569Y-50254043D01*
X70795774Y-50345813D01*
X70940632Y-50451715D01*
X71094407Y-50563901D01*
X71246365Y-50674525D01*
X71265161Y-50688189D01*
X71718222Y-51017500D01*
X70469200Y-51031088D01*
X70469200Y-54664961D01*
X70469348Y-55090114D01*
X70469779Y-55501032D01*
X70470477Y-55894881D01*
X70471426Y-56268825D01*
X70472607Y-56620031D01*
X70474006Y-56945664D01*
X70475603Y-57242891D01*
X70477384Y-57508877D01*
X70479331Y-57740788D01*
X70481427Y-57935790D01*
X70483655Y-58091048D01*
X70485999Y-58203728D01*
X70488441Y-58270996D01*
X70490713Y-58290367D01*
X70520081Y-58274835D01*
X70589470Y-58236020D01*
X70695520Y-58175866D01*
X70834871Y-58096319D01*
X71004161Y-57999324D01*
X71200030Y-57886827D01*
X71419118Y-57760773D01*
X71658064Y-57623106D01*
X71913507Y-57475773D01*
X71945062Y-57457556D01*
X71945062Y-55788854D01*
X71933275Y-55781184D01*
X71925336Y-55753364D01*
X71920494Y-55698696D01*
X71917997Y-55610482D01*
X71917092Y-55482024D01*
X71917000Y-55387194D01*
X71917836Y-55247560D01*
X71920149Y-55127576D01*
X71923647Y-55035606D01*
X71928041Y-54980011D01*
X71931619Y-54967200D01*
X71958892Y-54979076D01*
X72018675Y-55010681D01*
X72099695Y-55055986D01*
X72128469Y-55072509D01*
X72245283Y-55140006D01*
X72374260Y-55214520D01*
X72484052Y-55277940D01*
X72657404Y-55378063D01*
X72331652Y-55568509D01*
X72213253Y-55637608D01*
X72107787Y-55698931D01*
X72024313Y-55747229D01*
X71971887Y-55777252D01*
X71961450Y-55783072D01*
X71945062Y-55788854D01*
X71945062Y-57457556D01*
X72182086Y-57320719D01*
X72460442Y-57159888D01*
X72745213Y-56995226D01*
X73033039Y-56828679D01*
X73320559Y-56662191D01*
X73604413Y-56497709D01*
X73881240Y-56337176D01*
X74147679Y-56182539D01*
X74400370Y-56035743D01*
X74635952Y-55898733D01*
X74851064Y-55773454D01*
X75042347Y-55661851D01*
X75206439Y-55565870D01*
X75339979Y-55487457D01*
X75439608Y-55428556D01*
X75501964Y-55391112D01*
X75523686Y-55377071D01*
X75523687Y-55377060D01*
X75502111Y-55362517D01*
G37*
X75502111Y-55362517D02*
X75439262Y-55324278D01*
X75337911Y-55263960D01*
X75200831Y-55183176D01*
X75030795Y-55083542D01*
X74830575Y-54966674D01*
X74602944Y-54834185D01*
X74350673Y-54687691D01*
X74076535Y-54528806D01*
X73783302Y-54359147D01*
X73473748Y-54180327D01*
X73150643Y-53993962D01*
X73032352Y-53925800D01*
X70541130Y-52490700D01*
X72943565Y-52484222D01*
X73288138Y-52483087D01*
X73617925Y-52481603D01*
X73929431Y-52479805D01*
X74219158Y-52477734D01*
X74483609Y-52475427D01*
X74719289Y-52472922D01*
X74922700Y-52470258D01*
X75090347Y-52467473D01*
X75218732Y-52464605D01*
X75304359Y-52461694D01*
X75343731Y-52458776D01*
X75346000Y-52457905D01*
X75327324Y-52438394D01*
X75273300Y-52388239D01*
X75186938Y-52310104D01*
X75071245Y-52206655D01*
X74929231Y-52080556D01*
X74763902Y-51934472D01*
X74578269Y-51771067D01*
X74375339Y-51593008D01*
X74158120Y-51402958D01*
X73949119Y-51220573D01*
X73672243Y-50978922D01*
X73431963Y-50768449D01*
X73226264Y-50587313D01*
X73053134Y-50433678D01*
X72910559Y-50305705D01*
X72796525Y-50201555D01*
X72709019Y-50119389D01*
X72646028Y-50057370D01*
X72605539Y-50013658D01*
X72585537Y-49986416D01*
X72583869Y-49973929D01*
X72607821Y-49952627D01*
X72666744Y-49900556D01*
X72757471Y-49820504D01*
X72876836Y-49715263D01*
X73021674Y-49587621D01*
X73188817Y-49440369D01*
X73375101Y-49276297D01*
X73577359Y-49098193D01*
X73792424Y-48908850D01*
X73936300Y-48782201D01*
X74158560Y-48586521D01*
X74370504Y-48399834D01*
X74568910Y-48224985D01*
X74750550Y-48064823D01*
X74912201Y-47922192D01*
X75050636Y-47799939D01*
X75162631Y-47700911D01*
X75244961Y-47627954D01*
X75294401Y-47583915D01*
X75307195Y-47572311D01*
X75314388Y-47564439D01*
X75316327Y-47557491D01*
X75310088Y-47551411D01*
X75292747Y-47546141D01*
X75261382Y-47541622D01*
X75213067Y-47537798D01*
X75144881Y-47534609D01*
X75053898Y-47531999D01*
X74937196Y-47529909D01*
X74791851Y-47528283D01*
X74614939Y-47527061D01*
X74403537Y-47526187D01*
X74154721Y-47525602D01*
X73865567Y-47525249D01*
X73533152Y-47525069D01*
X73154553Y-47525007D01*
X72913245Y-47525000D01*
X70469200Y-47525000D01*
X70469200Y-48946528D01*
X71740052Y-48960100D01*
X71039728Y-49484863D01*
X70339403Y-50009625D01*
X70575752Y-50184252D01*
X70670569Y-50254043D01*
X70795774Y-50345813D01*
X70940632Y-50451715D01*
X71094407Y-50563901D01*
X71246365Y-50674525D01*
X71265161Y-50688189D01*
X71718222Y-51017500D01*
X70469200Y-51031088D01*
X70469200Y-54664961D01*
X70469348Y-55090114D01*
X70469779Y-55501032D01*
X70470477Y-55894881D01*
X70471426Y-56268825D01*
X70472607Y-56620031D01*
X70474006Y-56945664D01*
X70475603Y-57242891D01*
X70477384Y-57508877D01*
X70479331Y-57740788D01*
X70481427Y-57935790D01*
X70483655Y-58091048D01*
X70485999Y-58203728D01*
X70488441Y-58270996D01*
X70490713Y-58290367D01*
X70520081Y-58274835D01*
X70589470Y-58236020D01*
X70695520Y-58175866D01*
X70834871Y-58096319D01*
X71004161Y-57999324D01*
X71200030Y-57886827D01*
X71419118Y-57760773D01*
X71658064Y-57623106D01*
X71913507Y-57475773D01*
X71945062Y-57457556D01*
X71945062Y-55788854D01*
X71933275Y-55781184D01*
X71925336Y-55753364D01*
X71920494Y-55698696D01*
X71917997Y-55610482D01*
X71917092Y-55482024D01*
X71917000Y-55387194D01*
X71917836Y-55247560D01*
X71920149Y-55127576D01*
X71923647Y-55035606D01*
X71928041Y-54980011D01*
X71931619Y-54967200D01*
X71958892Y-54979076D01*
X72018675Y-55010681D01*
X72099695Y-55055986D01*
X72128469Y-55072509D01*
X72245283Y-55140006D01*
X72374260Y-55214520D01*
X72484052Y-55277940D01*
X72657404Y-55378063D01*
X72331652Y-55568509D01*
X72213253Y-55637608D01*
X72107787Y-55698931D01*
X72024313Y-55747229D01*
X71971887Y-55777252D01*
X71961450Y-55783072D01*
X71945062Y-55788854D01*
X71945062Y-57457556D01*
X72182086Y-57320719D01*
X72460442Y-57159888D01*
X72745213Y-56995226D01*
X73033039Y-56828679D01*
X73320559Y-56662191D01*
X73604413Y-56497709D01*
X73881240Y-56337176D01*
X74147679Y-56182539D01*
X74400370Y-56035743D01*
X74635952Y-55898733D01*
X74851064Y-55773454D01*
X75042347Y-55661851D01*
X75206439Y-55565870D01*
X75339979Y-55487457D01*
X75439608Y-55428556D01*
X75501964Y-55391112D01*
X75523686Y-55377071D01*
X75523687Y-55377060D01*
X75502111Y-55362517D01*
G36*
X69611233Y-46834637D02*
G01*
X69592822Y-46813736D01*
X69527677Y-46785803D01*
X69453220Y-46788050D01*
X69393392Y-46818811D01*
X69385331Y-46828180D01*
X69353783Y-46905395D01*
X69372861Y-46980101D01*
X69402400Y-47017000D01*
X69461186Y-47060162D01*
X69518217Y-47059672D01*
X69574549Y-47028260D01*
X69617787Y-46972470D01*
X69630635Y-46900647D01*
X69611233Y-46834637D01*
G37*
X69611233Y-46834637D02*
X69592822Y-46813736D01*
X69527677Y-46785803D01*
X69453220Y-46788050D01*
X69393392Y-46818811D01*
X69385331Y-46828180D01*
X69353783Y-46905395D01*
X69372861Y-46980101D01*
X69402400Y-47017000D01*
X69461186Y-47060162D01*
X69518217Y-47059672D01*
X69574549Y-47028260D01*
X69617787Y-46972470D01*
X69630635Y-46900647D01*
X69611233Y-46834637D01*
G36*
X69625164Y-55744261D02*
G01*
X69590386Y-55685799D01*
X69527283Y-55654798D01*
X69504921Y-55653000D01*
X69426354Y-55671759D01*
X69373486Y-55719231D01*
X69351648Y-55782212D01*
X69366174Y-55847498D01*
X69408052Y-55892860D01*
X69486037Y-55928830D01*
X69552326Y-55916711D01*
X69588964Y-55885950D01*
X69626422Y-55815779D01*
X69625164Y-55744261D01*
G37*
X69625164Y-55744261D02*
X69590386Y-55685799D01*
X69527283Y-55654798D01*
X69504921Y-55653000D01*
X69426354Y-55671759D01*
X69373486Y-55719231D01*
X69351648Y-55782212D01*
X69366174Y-55847498D01*
X69408052Y-55892860D01*
X69486037Y-55928830D01*
X69552326Y-55916711D01*
X69588964Y-55885950D01*
X69626422Y-55815779D01*
X69625164Y-55744261D01*
G36*
X69271973Y-45377151D02*
G01*
X69257655Y-45314448D01*
X69226394Y-45262548D01*
X69204042Y-45236138D01*
X69146845Y-45183845D01*
X69081541Y-45155986D01*
X69000842Y-45143606D01*
X68869000Y-45130937D01*
X68869000Y-45350069D01*
X68867462Y-45448437D01*
X68863351Y-45523941D01*
X68857427Y-45565006D01*
X68854631Y-45569200D01*
X68823160Y-45558533D01*
X68791131Y-45542907D01*
X68761288Y-45508424D01*
X68743775Y-45455319D01*
X68741149Y-45402661D01*
X68755969Y-45369520D01*
X68767400Y-45366000D01*
X68786795Y-45343983D01*
X68791598Y-45287646D01*
X68781013Y-45211560D01*
X68776791Y-45194550D01*
X68756220Y-45149375D01*
X68724343Y-45143514D01*
X68674030Y-45177848D01*
X68638447Y-45211647D01*
X68597415Y-45258070D01*
X68575039Y-45304782D01*
X68565814Y-45369529D01*
X68564200Y-45450998D01*
X68567469Y-45548978D01*
X68580541Y-45614785D01*
X68608313Y-45666809D01*
X68628532Y-45692556D01*
X68725775Y-45771533D01*
X68844188Y-45812511D01*
X68970800Y-45815108D01*
X69045336Y-45792983D01*
X69045336Y-45562241D01*
X69027209Y-45557611D01*
X69021664Y-45509884D01*
X69021400Y-45480300D01*
X69027556Y-45421537D01*
X69042693Y-45392167D01*
X69045907Y-45391400D01*
X69076128Y-45411181D01*
X69096656Y-45440437D01*
X69107739Y-45491595D01*
X69083036Y-45529337D01*
X69045336Y-45562241D01*
X69045336Y-45792983D01*
X69092638Y-45778942D01*
X69191319Y-45709162D01*
X69238879Y-45656635D01*
X69264108Y-45608001D01*
X69273946Y-45543565D01*
X69275400Y-45470541D01*
X69271973Y-45377151D01*
G37*
X69271973Y-45377151D02*
X69257655Y-45314448D01*
X69226394Y-45262548D01*
X69204042Y-45236138D01*
X69146845Y-45183845D01*
X69081541Y-45155986D01*
X69000842Y-45143606D01*
X68869000Y-45130937D01*
X68869000Y-45350069D01*
X68867462Y-45448437D01*
X68863351Y-45523941D01*
X68857427Y-45565006D01*
X68854631Y-45569200D01*
X68823160Y-45558533D01*
X68791131Y-45542907D01*
X68761288Y-45508424D01*
X68743775Y-45455319D01*
X68741149Y-45402661D01*
X68755969Y-45369520D01*
X68767400Y-45366000D01*
X68786795Y-45343983D01*
X68791598Y-45287646D01*
X68781013Y-45211560D01*
X68776791Y-45194550D01*
X68756220Y-45149375D01*
X68724343Y-45143514D01*
X68674030Y-45177848D01*
X68638447Y-45211647D01*
X68597415Y-45258070D01*
X68575039Y-45304782D01*
X68565814Y-45369529D01*
X68564200Y-45450998D01*
X68567469Y-45548978D01*
X68580541Y-45614785D01*
X68608313Y-45666809D01*
X68628532Y-45692556D01*
X68725775Y-45771533D01*
X68844188Y-45812511D01*
X68970800Y-45815108D01*
X69045336Y-45792983D01*
X69045336Y-45562241D01*
X69027209Y-45557611D01*
X69021664Y-45509884D01*
X69021400Y-45480300D01*
X69027556Y-45421537D01*
X69042693Y-45392167D01*
X69045907Y-45391400D01*
X69076128Y-45411181D01*
X69096656Y-45440437D01*
X69107739Y-45491595D01*
X69083036Y-45529337D01*
X69045336Y-45562241D01*
X69045336Y-45792983D01*
X69092638Y-45778942D01*
X69191319Y-45709162D01*
X69238879Y-45656635D01*
X69264108Y-45608001D01*
X69273946Y-45543565D01*
X69275400Y-45470541D01*
X69271973Y-45377151D01*
G36*
X69186500Y-45950200D02*
G01*
X69023876Y-45949643D01*
X68905455Y-45947596D01*
X68824648Y-45943493D01*
X68774866Y-45936770D01*
X68749522Y-45926862D01*
X68742027Y-45913204D01*
X68742000Y-45912100D01*
X68722723Y-45883921D01*
X68661197Y-45874069D01*
X68653100Y-45874000D01*
X68564200Y-45874000D01*
X68564200Y-45999738D01*
X68571383Y-46091158D01*
X68594125Y-46140360D01*
X68603905Y-46147696D01*
X68630524Y-46168972D01*
X68615276Y-46193143D01*
X68603905Y-46202868D01*
X68569514Y-46261164D01*
X68561769Y-46344549D01*
X68579115Y-46435857D01*
X68619996Y-46517927D01*
X68634050Y-46535369D01*
X68730913Y-46608098D01*
X68849811Y-46645128D01*
X68931738Y-46646036D01*
X68931738Y-46406519D01*
X68843368Y-46401541D01*
X68778721Y-46370299D01*
X68747497Y-46316039D01*
X68746828Y-46285851D01*
X68766820Y-46232121D01*
X68820064Y-46200340D01*
X68837250Y-46194985D01*
X68935950Y-46182281D01*
X69019380Y-46199711D01*
X69075752Y-46243004D01*
X69092936Y-46287547D01*
X69088104Y-46343735D01*
X69047742Y-46376419D01*
X69034133Y-46381988D01*
X68931738Y-46406519D01*
X68931738Y-46646036D01*
X68976713Y-46646536D01*
X69097590Y-46612402D01*
X69198413Y-46542802D01*
X69208398Y-46532182D01*
X69251254Y-46477989D01*
X69270680Y-46427285D01*
X69272851Y-46358222D01*
X69269809Y-46314913D01*
X69258521Y-46178800D01*
X69355861Y-46178800D01*
X69420616Y-46183469D01*
X69448466Y-46202142D01*
X69453200Y-46229600D01*
X69463145Y-46264613D01*
X69501967Y-46278740D01*
X69542100Y-46280400D01*
X69631000Y-46280400D01*
X69631000Y-45950200D01*
X69186500Y-45950200D01*
G37*
X69186500Y-45950200D02*
X69023876Y-45949643D01*
X68905455Y-45947596D01*
X68824648Y-45943493D01*
X68774866Y-45936770D01*
X68749522Y-45926862D01*
X68742027Y-45913204D01*
X68742000Y-45912100D01*
X68722723Y-45883921D01*
X68661197Y-45874069D01*
X68653100Y-45874000D01*
X68564200Y-45874000D01*
X68564200Y-45999738D01*
X68571383Y-46091158D01*
X68594125Y-46140360D01*
X68603905Y-46147696D01*
X68630524Y-46168972D01*
X68615276Y-46193143D01*
X68603905Y-46202868D01*
X68569514Y-46261164D01*
X68561769Y-46344549D01*
X68579115Y-46435857D01*
X68619996Y-46517927D01*
X68634050Y-46535369D01*
X68730913Y-46608098D01*
X68849811Y-46645128D01*
X68931738Y-46646036D01*
X68931738Y-46406519D01*
X68843368Y-46401541D01*
X68778721Y-46370299D01*
X68747497Y-46316039D01*
X68746828Y-46285851D01*
X68766820Y-46232121D01*
X68820064Y-46200340D01*
X68837250Y-46194985D01*
X68935950Y-46182281D01*
X69019380Y-46199711D01*
X69075752Y-46243004D01*
X69092936Y-46287547D01*
X69088104Y-46343735D01*
X69047742Y-46376419D01*
X69034133Y-46381988D01*
X68931738Y-46406519D01*
X68931738Y-46646036D01*
X68976713Y-46646536D01*
X69097590Y-46612402D01*
X69198413Y-46542802D01*
X69208398Y-46532182D01*
X69251254Y-46477989D01*
X69270680Y-46427285D01*
X69272851Y-46358222D01*
X69269809Y-46314913D01*
X69258521Y-46178800D01*
X69355861Y-46178800D01*
X69420616Y-46183469D01*
X69448466Y-46202142D01*
X69453200Y-46229600D01*
X69463145Y-46264613D01*
X69501967Y-46278740D01*
X69542100Y-46280400D01*
X69631000Y-46280400D01*
X69631000Y-45950200D01*
X69186500Y-45950200D01*
G36*
X69020603Y-46788400D02*
G01*
X68899104Y-46786875D01*
X68819739Y-46781488D01*
X68773914Y-46771024D01*
X68753032Y-46754267D01*
X68751186Y-46750300D01*
X68714854Y-46721528D01*
X68650383Y-46712200D01*
X68564200Y-46712200D01*
X68564200Y-47093200D01*
X68653100Y-47093200D01*
X68718852Y-47084939D01*
X68741840Y-47058570D01*
X68742000Y-47055100D01*
X68752457Y-47034400D01*
X68790055Y-47022553D01*
X68864137Y-47017556D01*
X68919800Y-47017000D01*
X69013240Y-47018371D01*
X69066770Y-47024552D01*
X69091253Y-47038646D01*
X69097551Y-47063757D01*
X69097600Y-47067800D01*
X69107545Y-47102813D01*
X69146367Y-47116940D01*
X69186500Y-47118600D01*
X69275400Y-47118600D01*
X69275400Y-46788400D01*
X69020603Y-46788400D01*
G37*
X69020603Y-46788400D02*
X68899104Y-46786875D01*
X68819739Y-46781488D01*
X68773914Y-46771024D01*
X68753032Y-46754267D01*
X68751186Y-46750300D01*
X68714854Y-46721528D01*
X68650383Y-46712200D01*
X68564200Y-46712200D01*
X68564200Y-47093200D01*
X68653100Y-47093200D01*
X68718852Y-47084939D01*
X68741840Y-47058570D01*
X68742000Y-47055100D01*
X68752457Y-47034400D01*
X68790055Y-47022553D01*
X68864137Y-47017556D01*
X68919800Y-47017000D01*
X69013240Y-47018371D01*
X69066770Y-47024552D01*
X69091253Y-47038646D01*
X69097551Y-47063757D01*
X69097600Y-47067800D01*
X69107545Y-47102813D01*
X69146367Y-47116940D01*
X69186500Y-47118600D01*
X69275400Y-47118600D01*
X69275400Y-46788400D01*
X69020603Y-46788400D01*
G36*
X69273547Y-47516082D02*
G01*
X69265405Y-47470088D01*
X69247101Y-47451602D01*
X69224600Y-47448800D01*
X69173800Y-47448800D01*
X69224600Y-47398000D01*
X69259755Y-47340236D01*
X69275291Y-47268615D01*
X69270430Y-47201537D01*
X69244396Y-47157403D01*
X69234992Y-47152300D01*
X69186286Y-47152226D01*
X69120217Y-47172452D01*
X69111148Y-47176581D01*
X69055593Y-47209612D01*
X69037311Y-47246196D01*
X69040977Y-47285755D01*
X69034598Y-47356104D01*
X68984086Y-47401658D01*
X68889783Y-47422167D01*
X68851446Y-47423400D01*
X68777882Y-47417974D01*
X68745480Y-47399679D01*
X68742000Y-47385300D01*
X68722723Y-47357121D01*
X68661197Y-47347269D01*
X68653100Y-47347200D01*
X68564200Y-47347200D01*
X68564200Y-47533467D01*
X68566361Y-47626381D01*
X68572056Y-47698367D01*
X68580111Y-47735306D01*
X68581134Y-47736667D01*
X68622102Y-47753513D01*
X68677326Y-47753123D01*
X68724601Y-47738419D01*
X68742000Y-47715500D01*
X68752457Y-47694800D01*
X68790055Y-47682953D01*
X68864137Y-47677956D01*
X68919800Y-47677400D01*
X69016402Y-47679641D01*
X69071690Y-47687698D01*
X69095008Y-47703573D01*
X69097600Y-47715500D01*
X69116878Y-47743680D01*
X69178404Y-47753532D01*
X69186500Y-47753600D01*
X69275400Y-47753600D01*
X69275400Y-47601200D01*
X69273547Y-47516082D01*
G37*
X69273547Y-47516082D02*
X69265405Y-47470088D01*
X69247101Y-47451602D01*
X69224600Y-47448800D01*
X69173800Y-47448800D01*
X69224600Y-47398000D01*
X69259755Y-47340236D01*
X69275291Y-47268615D01*
X69270430Y-47201537D01*
X69244396Y-47157403D01*
X69234992Y-47152300D01*
X69186286Y-47152226D01*
X69120217Y-47172452D01*
X69111148Y-47176581D01*
X69055593Y-47209612D01*
X69037311Y-47246196D01*
X69040977Y-47285755D01*
X69034598Y-47356104D01*
X68984086Y-47401658D01*
X68889783Y-47422167D01*
X68851446Y-47423400D01*
X68777882Y-47417974D01*
X68745480Y-47399679D01*
X68742000Y-47385300D01*
X68722723Y-47357121D01*
X68661197Y-47347269D01*
X68653100Y-47347200D01*
X68564200Y-47347200D01*
X68564200Y-47533467D01*
X68566361Y-47626381D01*
X68572056Y-47698367D01*
X68580111Y-47735306D01*
X68581134Y-47736667D01*
X68622102Y-47753513D01*
X68677326Y-47753123D01*
X68724601Y-47738419D01*
X68742000Y-47715500D01*
X68752457Y-47694800D01*
X68790055Y-47682953D01*
X68864137Y-47677956D01*
X68919800Y-47677400D01*
X69016402Y-47679641D01*
X69071690Y-47687698D01*
X69095008Y-47703573D01*
X69097600Y-47715500D01*
X69116878Y-47743680D01*
X69178404Y-47753532D01*
X69186500Y-47753600D01*
X69275400Y-47753600D01*
X69275400Y-47601200D01*
X69273547Y-47516082D01*
G36*
X69273547Y-48405082D02*
G01*
X69265405Y-48359088D01*
X69247101Y-48340602D01*
X69224600Y-48337800D01*
X69173800Y-48337800D01*
X69224600Y-48287000D01*
X69259755Y-48229236D01*
X69275291Y-48157615D01*
X69270430Y-48090537D01*
X69244396Y-48046403D01*
X69234992Y-48041300D01*
X69186286Y-48041226D01*
X69120217Y-48061452D01*
X69111148Y-48065581D01*
X69055593Y-48098612D01*
X69037311Y-48135196D01*
X69040977Y-48174755D01*
X69034598Y-48245104D01*
X68984086Y-48290658D01*
X68889783Y-48311167D01*
X68851446Y-48312400D01*
X68777882Y-48306974D01*
X68745480Y-48288679D01*
X68742000Y-48274300D01*
X68722723Y-48246121D01*
X68661197Y-48236269D01*
X68653100Y-48236200D01*
X68564200Y-48236200D01*
X68564200Y-48422467D01*
X68566361Y-48515381D01*
X68572056Y-48587367D01*
X68580111Y-48624306D01*
X68581134Y-48625667D01*
X68622102Y-48642513D01*
X68677326Y-48642123D01*
X68724601Y-48627419D01*
X68742000Y-48604500D01*
X68752457Y-48583800D01*
X68790055Y-48571953D01*
X68864137Y-48566956D01*
X68919800Y-48566400D01*
X69016402Y-48568641D01*
X69071690Y-48576698D01*
X69095008Y-48592573D01*
X69097600Y-48604500D01*
X69116878Y-48632680D01*
X69178404Y-48642532D01*
X69186500Y-48642600D01*
X69275400Y-48642600D01*
X69275400Y-48490200D01*
X69273547Y-48405082D01*
G37*
X69273547Y-48405082D02*
X69265405Y-48359088D01*
X69247101Y-48340602D01*
X69224600Y-48337800D01*
X69173800Y-48337800D01*
X69224600Y-48287000D01*
X69259755Y-48229236D01*
X69275291Y-48157615D01*
X69270430Y-48090537D01*
X69244396Y-48046403D01*
X69234992Y-48041300D01*
X69186286Y-48041226D01*
X69120217Y-48061452D01*
X69111148Y-48065581D01*
X69055593Y-48098612D01*
X69037311Y-48135196D01*
X69040977Y-48174755D01*
X69034598Y-48245104D01*
X68984086Y-48290658D01*
X68889783Y-48311167D01*
X68851446Y-48312400D01*
X68777882Y-48306974D01*
X68745480Y-48288679D01*
X68742000Y-48274300D01*
X68722723Y-48246121D01*
X68661197Y-48236269D01*
X68653100Y-48236200D01*
X68564200Y-48236200D01*
X68564200Y-48422467D01*
X68566361Y-48515381D01*
X68572056Y-48587367D01*
X68580111Y-48624306D01*
X68581134Y-48625667D01*
X68622102Y-48642513D01*
X68677326Y-48642123D01*
X68724601Y-48627419D01*
X68742000Y-48604500D01*
X68752457Y-48583800D01*
X68790055Y-48571953D01*
X68864137Y-48566956D01*
X68919800Y-48566400D01*
X69016402Y-48568641D01*
X69071690Y-48576698D01*
X69095008Y-48592573D01*
X69097600Y-48604500D01*
X69116878Y-48632680D01*
X69178404Y-48642532D01*
X69186500Y-48642600D01*
X69275400Y-48642600D01*
X69275400Y-48490200D01*
X69273547Y-48405082D01*
G36*
X69270263Y-48941050D02*
G01*
X69262700Y-48782300D01*
X69002350Y-48775062D01*
X68882011Y-48770446D01*
X68804238Y-48763656D01*
X68760802Y-48753236D01*
X68743474Y-48737731D01*
X68742000Y-48729003D01*
X68726881Y-48702160D01*
X68675282Y-48696886D01*
X68659450Y-48698141D01*
X68612909Y-48704949D01*
X68587494Y-48722466D01*
X68575659Y-48763579D01*
X68569859Y-48841178D01*
X68569283Y-48852150D01*
X68566651Y-48934591D01*
X68572271Y-48978411D01*
X68589868Y-48995590D01*
X68614722Y-48998200D01*
X68667779Y-48998200D01*
X68615990Y-49053790D01*
X68575724Y-49128376D01*
X68562786Y-49222269D01*
X68577240Y-49314262D01*
X68615000Y-49379200D01*
X68649835Y-49405581D01*
X68697681Y-49421104D01*
X68771578Y-49428371D01*
X68869798Y-49430000D01*
X68978124Y-49432276D01*
X69044976Y-49440167D01*
X69079520Y-49455272D01*
X69088415Y-49468100D01*
X69124747Y-49496873D01*
X69189218Y-49506200D01*
X69275400Y-49506200D01*
X69275400Y-49201400D01*
X69033303Y-49201400D01*
X68900332Y-49197604D01*
X68814342Y-49184960D01*
X68771993Y-49161586D01*
X68769946Y-49125598D01*
X68804862Y-49075114D01*
X68806357Y-49073454D01*
X68854214Y-49043636D01*
X68922825Y-49025744D01*
X68996313Y-49020419D01*
X69058801Y-49028303D01*
X69094414Y-49050036D01*
X69097600Y-49061700D01*
X69116602Y-49089703D01*
X69177515Y-49099694D01*
X69187713Y-49099800D01*
X69277825Y-49099800D01*
X69270263Y-48941050D01*
G37*
X69270263Y-48941050D02*
X69262700Y-48782300D01*
X69002350Y-48775062D01*
X68882011Y-48770446D01*
X68804238Y-48763656D01*
X68760802Y-48753236D01*
X68743474Y-48737731D01*
X68742000Y-48729003D01*
X68726881Y-48702160D01*
X68675282Y-48696886D01*
X68659450Y-48698141D01*
X68612909Y-48704949D01*
X68587494Y-48722466D01*
X68575659Y-48763579D01*
X68569859Y-48841178D01*
X68569283Y-48852150D01*
X68566651Y-48934591D01*
X68572271Y-48978411D01*
X68589868Y-48995590D01*
X68614722Y-48998200D01*
X68667779Y-48998200D01*
X68615990Y-49053790D01*
X68575724Y-49128376D01*
X68562786Y-49222269D01*
X68577240Y-49314262D01*
X68615000Y-49379200D01*
X68649835Y-49405581D01*
X68697681Y-49421104D01*
X68771578Y-49428371D01*
X68869798Y-49430000D01*
X68978124Y-49432276D01*
X69044976Y-49440167D01*
X69079520Y-49455272D01*
X69088415Y-49468100D01*
X69124747Y-49496873D01*
X69189218Y-49506200D01*
X69275400Y-49506200D01*
X69275400Y-49201400D01*
X69033303Y-49201400D01*
X68900332Y-49197604D01*
X68814342Y-49184960D01*
X68771993Y-49161586D01*
X68769946Y-49125598D01*
X68804862Y-49075114D01*
X68806357Y-49073454D01*
X68854214Y-49043636D01*
X68922825Y-49025744D01*
X68996313Y-49020419D01*
X69058801Y-49028303D01*
X69094414Y-49050036D01*
X69097600Y-49061700D01*
X69116602Y-49089703D01*
X69177515Y-49099694D01*
X69187713Y-49099800D01*
X69277825Y-49099800D01*
X69270263Y-48941050D01*
G36*
X69273392Y-49831268D02*
G01*
X69263488Y-49770266D01*
X69239870Y-49724571D01*
X69196720Y-49676454D01*
X69192243Y-49671963D01*
X69088791Y-49600869D01*
X68967250Y-49567171D01*
X68841119Y-49570522D01*
X68723900Y-49610574D01*
X68629555Y-49686429D01*
X68591883Y-49739742D01*
X68572009Y-49797526D01*
X68564742Y-49878758D01*
X68564200Y-49925300D01*
X68567664Y-50022338D01*
X68581515Y-50087819D01*
X68610947Y-50140721D01*
X68629555Y-50164172D01*
X68724534Y-50240367D01*
X68841845Y-50280206D01*
X68919800Y-50282143D01*
X68919800Y-50039600D01*
X68821419Y-50025265D01*
X68760758Y-49984122D01*
X68742000Y-49925300D01*
X68761369Y-49865250D01*
X68791131Y-49837294D01*
X68852379Y-49818087D01*
X68919800Y-49811000D01*
X69018182Y-49825336D01*
X69078843Y-49866479D01*
X69097600Y-49925300D01*
X69075301Y-49988546D01*
X69011301Y-50027542D01*
X68919800Y-50039600D01*
X68919800Y-50282143D01*
X68967988Y-50283341D01*
X69089462Y-50249425D01*
X69192243Y-50178638D01*
X69237210Y-50129561D01*
X69262179Y-50084324D01*
X69272967Y-50025202D01*
X69275393Y-49934469D01*
X69275400Y-49925300D01*
X69273392Y-49831268D01*
G37*
X69273392Y-49831268D02*
X69263488Y-49770266D01*
X69239870Y-49724571D01*
X69196720Y-49676454D01*
X69192243Y-49671963D01*
X69088791Y-49600869D01*
X68967250Y-49567171D01*
X68841119Y-49570522D01*
X68723900Y-49610574D01*
X68629555Y-49686429D01*
X68591883Y-49739742D01*
X68572009Y-49797526D01*
X68564742Y-49878758D01*
X68564200Y-49925300D01*
X68567664Y-50022338D01*
X68581515Y-50087819D01*
X68610947Y-50140721D01*
X68629555Y-50164172D01*
X68724534Y-50240367D01*
X68841845Y-50280206D01*
X68919800Y-50282143D01*
X68919800Y-50039600D01*
X68821419Y-50025265D01*
X68760758Y-49984122D01*
X68742000Y-49925300D01*
X68761369Y-49865250D01*
X68791131Y-49837294D01*
X68852379Y-49818087D01*
X68919800Y-49811000D01*
X69018182Y-49825336D01*
X69078843Y-49866479D01*
X69097600Y-49925300D01*
X69075301Y-49988546D01*
X69011301Y-50027542D01*
X68919800Y-50039600D01*
X68919800Y-50282143D01*
X68967988Y-50283341D01*
X69089462Y-50249425D01*
X69192243Y-50178638D01*
X69237210Y-50129561D01*
X69262179Y-50084324D01*
X69272967Y-50025202D01*
X69275393Y-49934469D01*
X69275400Y-49925300D01*
X69273392Y-49831268D01*
G36*
X69270263Y-52471650D02*
G01*
X69262700Y-52312900D01*
X69002350Y-52305662D01*
X68882011Y-52301046D01*
X68804238Y-52294256D01*
X68760802Y-52283836D01*
X68743474Y-52268331D01*
X68742000Y-52259603D01*
X68726881Y-52232760D01*
X68675282Y-52227486D01*
X68659450Y-52228741D01*
X68612909Y-52235549D01*
X68587494Y-52253066D01*
X68575659Y-52294179D01*
X68569859Y-52371778D01*
X68569283Y-52382750D01*
X68566651Y-52465191D01*
X68572271Y-52509011D01*
X68589868Y-52526190D01*
X68614722Y-52528800D01*
X68667779Y-52528800D01*
X68615990Y-52584390D01*
X68579032Y-52654436D01*
X68564042Y-52746925D01*
X68572502Y-52838169D01*
X68596631Y-52893642D01*
X68652780Y-52934095D01*
X68749196Y-52964357D01*
X68875933Y-52981947D01*
X68964250Y-52985395D01*
X69045553Y-52989272D01*
X69086596Y-53002009D01*
X69097600Y-53025710D01*
X69111964Y-53053104D01*
X69161768Y-53058868D01*
X69180150Y-53057460D01*
X69225226Y-53051170D01*
X69250563Y-53035122D01*
X69262810Y-52997017D01*
X69268615Y-52924558D01*
X69270263Y-52890750D01*
X69277825Y-52732000D01*
X69034515Y-52732000D01*
X68918290Y-52730639D01*
X68843300Y-52725527D01*
X68800028Y-52715120D01*
X68778958Y-52697877D01*
X68775068Y-52689944D01*
X68779278Y-52640098D01*
X68823605Y-52596284D01*
X68897373Y-52565369D01*
X68986114Y-52554200D01*
X69060426Y-52559435D01*
X69093643Y-52577145D01*
X69097600Y-52592300D01*
X69116602Y-52620303D01*
X69177515Y-52630294D01*
X69187713Y-52630400D01*
X69277825Y-52630400D01*
X69270263Y-52471650D01*
G37*
X69270263Y-52471650D02*
X69262700Y-52312900D01*
X69002350Y-52305662D01*
X68882011Y-52301046D01*
X68804238Y-52294256D01*
X68760802Y-52283836D01*
X68743474Y-52268331D01*
X68742000Y-52259603D01*
X68726881Y-52232760D01*
X68675282Y-52227486D01*
X68659450Y-52228741D01*
X68612909Y-52235549D01*
X68587494Y-52253066D01*
X68575659Y-52294179D01*
X68569859Y-52371778D01*
X68569283Y-52382750D01*
X68566651Y-52465191D01*
X68572271Y-52509011D01*
X68589868Y-52526190D01*
X68614722Y-52528800D01*
X68667779Y-52528800D01*
X68615990Y-52584390D01*
X68579032Y-52654436D01*
X68564042Y-52746925D01*
X68572502Y-52838169D01*
X68596631Y-52893642D01*
X68652780Y-52934095D01*
X68749196Y-52964357D01*
X68875933Y-52981947D01*
X68964250Y-52985395D01*
X69045553Y-52989272D01*
X69086596Y-53002009D01*
X69097600Y-53025710D01*
X69111964Y-53053104D01*
X69161768Y-53058868D01*
X69180150Y-53057460D01*
X69225226Y-53051170D01*
X69250563Y-53035122D01*
X69262810Y-52997017D01*
X69268615Y-52924558D01*
X69270263Y-52890750D01*
X69277825Y-52732000D01*
X69034515Y-52732000D01*
X68918290Y-52730639D01*
X68843300Y-52725527D01*
X68800028Y-52715120D01*
X68778958Y-52697877D01*
X68775068Y-52689944D01*
X68779278Y-52640098D01*
X68823605Y-52596284D01*
X68897373Y-52565369D01*
X68986114Y-52554200D01*
X69060426Y-52559435D01*
X69093643Y-52577145D01*
X69097600Y-52592300D01*
X69116602Y-52620303D01*
X69177515Y-52630294D01*
X69187713Y-52630400D01*
X69277825Y-52630400D01*
X69270263Y-52471650D01*
G36*
X69451269Y-53639668D02*
G01*
X69438430Y-53606410D01*
X69404116Y-53596303D01*
X69365834Y-53595600D01*
X69308228Y-53591544D01*
X69281888Y-53569338D01*
X69271758Y-53513925D01*
X69270584Y-53500350D01*
X69260859Y-53437059D01*
X69236351Y-53408196D01*
X69182716Y-53397392D01*
X69180150Y-53397141D01*
X69127614Y-53395022D01*
X69104038Y-53411257D01*
X69097824Y-53459229D01*
X69097600Y-53492391D01*
X69097600Y-53595600D01*
X68932500Y-53595600D01*
X68839893Y-53593057D01*
X68788422Y-53583968D01*
X68768609Y-53566147D01*
X68767400Y-53557500D01*
X68786512Y-53523799D01*
X68803123Y-53519400D01*
X68824390Y-53510448D01*
X68823805Y-53475391D01*
X68811561Y-53430500D01*
X68787622Y-53367823D01*
X68758020Y-53345713D01*
X68708079Y-53358894D01*
X68667617Y-53378761D01*
X68608861Y-53418971D01*
X68577054Y-53472568D01*
X68565055Y-53554753D01*
X68564200Y-53598832D01*
X68578791Y-53691744D01*
X68626546Y-53761855D01*
X68663387Y-53793439D01*
X68705028Y-53812161D01*
X68765455Y-53821292D01*
X68858655Y-53824101D01*
X68893246Y-53824200D01*
X68994833Y-53825250D01*
X69055827Y-53830086D01*
X69086419Y-53841244D01*
X69096802Y-53861256D01*
X69097600Y-53875000D01*
X69107545Y-53910013D01*
X69146367Y-53924140D01*
X69186500Y-53925800D01*
X69247772Y-53920118D01*
X69272495Y-53897934D01*
X69275400Y-53875000D01*
X69285345Y-53839988D01*
X69324167Y-53825861D01*
X69364300Y-53824200D01*
X69418925Y-53821760D01*
X69444791Y-53805224D01*
X69452652Y-53760764D01*
X69453200Y-53709900D01*
X69451269Y-53639668D01*
G37*
X69451269Y-53639668D02*
X69438430Y-53606410D01*
X69404116Y-53596303D01*
X69365834Y-53595600D01*
X69308228Y-53591544D01*
X69281888Y-53569338D01*
X69271758Y-53513925D01*
X69270584Y-53500350D01*
X69260859Y-53437059D01*
X69236351Y-53408196D01*
X69182716Y-53397392D01*
X69180150Y-53397141D01*
X69127614Y-53395022D01*
X69104038Y-53411257D01*
X69097824Y-53459229D01*
X69097600Y-53492391D01*
X69097600Y-53595600D01*
X68932500Y-53595600D01*
X68839893Y-53593057D01*
X68788422Y-53583968D01*
X68768609Y-53566147D01*
X68767400Y-53557500D01*
X68786512Y-53523799D01*
X68803123Y-53519400D01*
X68824390Y-53510448D01*
X68823805Y-53475391D01*
X68811561Y-53430500D01*
X68787622Y-53367823D01*
X68758020Y-53345713D01*
X68708079Y-53358894D01*
X68667617Y-53378761D01*
X68608861Y-53418971D01*
X68577054Y-53472568D01*
X68565055Y-53554753D01*
X68564200Y-53598832D01*
X68578791Y-53691744D01*
X68626546Y-53761855D01*
X68663387Y-53793439D01*
X68705028Y-53812161D01*
X68765455Y-53821292D01*
X68858655Y-53824101D01*
X68893246Y-53824200D01*
X68994833Y-53825250D01*
X69055827Y-53830086D01*
X69086419Y-53841244D01*
X69096802Y-53861256D01*
X69097600Y-53875000D01*
X69107545Y-53910013D01*
X69146367Y-53924140D01*
X69186500Y-53925800D01*
X69247772Y-53920118D01*
X69272495Y-53897934D01*
X69275400Y-53875000D01*
X69285345Y-53839988D01*
X69324167Y-53825861D01*
X69364300Y-53824200D01*
X69418925Y-53821760D01*
X69444791Y-53805224D01*
X69452652Y-53760764D01*
X69453200Y-53709900D01*
X69451269Y-53639668D01*
G36*
X69196320Y-54459200D02*
G01*
X69235860Y-54402749D01*
X69261592Y-54340641D01*
X69274897Y-54258968D01*
X69275400Y-54241586D01*
X69266741Y-54157716D01*
X69235941Y-54099423D01*
X69175773Y-54061955D01*
X69079007Y-54040560D01*
X68955252Y-54031144D01*
X68844828Y-54024300D01*
X68777741Y-54014039D01*
X68746563Y-53998812D01*
X68742000Y-53986694D01*
X68718418Y-53959571D01*
X68653100Y-53951200D01*
X68564200Y-53951200D01*
X68564200Y-54332200D01*
X68650383Y-54332200D01*
X68719758Y-54321020D01*
X68751186Y-54294100D01*
X68785099Y-54269205D01*
X68852680Y-54256821D01*
X68938043Y-54258277D01*
X69015050Y-54272010D01*
X69061667Y-54303204D01*
X69068125Y-54351967D01*
X69034360Y-54404674D01*
X69015749Y-54419660D01*
X68956531Y-54445837D01*
X68883500Y-54458597D01*
X68812724Y-54457949D01*
X68760269Y-54443903D01*
X68742000Y-54419491D01*
X68727637Y-54392097D01*
X68677833Y-54386333D01*
X68659450Y-54387741D01*
X68576900Y-54395700D01*
X68569438Y-54579850D01*
X68561975Y-54764000D01*
X68651988Y-54764000D01*
X68718179Y-54755948D01*
X68741757Y-54730144D01*
X68742000Y-54725900D01*
X68749119Y-54710534D01*
X68775325Y-54699830D01*
X68827898Y-54693007D01*
X68914116Y-54689285D01*
X69041256Y-54687886D01*
X69097600Y-54687800D01*
X69238317Y-54688177D01*
X69336042Y-54690051D01*
X69398581Y-54694538D01*
X69433743Y-54702752D01*
X69449333Y-54715809D01*
X69453159Y-54734825D01*
X69453200Y-54738600D01*
X69463145Y-54773613D01*
X69501967Y-54787740D01*
X69542100Y-54789400D01*
X69631000Y-54789400D01*
X69631000Y-54459200D01*
X69196320Y-54459200D01*
G37*
X69196320Y-54459200D02*
X69235860Y-54402749D01*
X69261592Y-54340641D01*
X69274897Y-54258968D01*
X69275400Y-54241586D01*
X69266741Y-54157716D01*
X69235941Y-54099423D01*
X69175773Y-54061955D01*
X69079007Y-54040560D01*
X68955252Y-54031144D01*
X68844828Y-54024300D01*
X68777741Y-54014039D01*
X68746563Y-53998812D01*
X68742000Y-53986694D01*
X68718418Y-53959571D01*
X68653100Y-53951200D01*
X68564200Y-53951200D01*
X68564200Y-54332200D01*
X68650383Y-54332200D01*
X68719758Y-54321020D01*
X68751186Y-54294100D01*
X68785099Y-54269205D01*
X68852680Y-54256821D01*
X68938043Y-54258277D01*
X69015050Y-54272010D01*
X69061667Y-54303204D01*
X69068125Y-54351967D01*
X69034360Y-54404674D01*
X69015749Y-54419660D01*
X68956531Y-54445837D01*
X68883500Y-54458597D01*
X68812724Y-54457949D01*
X68760269Y-54443903D01*
X68742000Y-54419491D01*
X68727637Y-54392097D01*
X68677833Y-54386333D01*
X68659450Y-54387741D01*
X68576900Y-54395700D01*
X68569438Y-54579850D01*
X68561975Y-54764000D01*
X68651988Y-54764000D01*
X68718179Y-54755948D01*
X68741757Y-54730144D01*
X68742000Y-54725900D01*
X68749119Y-54710534D01*
X68775325Y-54699830D01*
X68827898Y-54693007D01*
X68914116Y-54689285D01*
X69041256Y-54687886D01*
X69097600Y-54687800D01*
X69238317Y-54688177D01*
X69336042Y-54690051D01*
X69398581Y-54694538D01*
X69433743Y-54702752D01*
X69449333Y-54715809D01*
X69453159Y-54734825D01*
X69453200Y-54738600D01*
X69463145Y-54773613D01*
X69501967Y-54787740D01*
X69542100Y-54789400D01*
X69631000Y-54789400D01*
X69631000Y-54459200D01*
X69196320Y-54459200D01*
G36*
X69008700Y-55653000D02*
G01*
X68886911Y-55651832D01*
X68807683Y-55647547D01*
X68762817Y-55638973D01*
X68744111Y-55624939D01*
X68742000Y-55614900D01*
X68722723Y-55586721D01*
X68661197Y-55576869D01*
X68653100Y-55576800D01*
X68564200Y-55576800D01*
X68564200Y-55957800D01*
X68650383Y-55957800D01*
X68719758Y-55946620D01*
X68751186Y-55919700D01*
X68775943Y-55896721D01*
X68833872Y-55884707D01*
X68921381Y-55881600D01*
X69009195Y-55883820D01*
X69058818Y-55892989D01*
X69082761Y-55912869D01*
X69090241Y-55932400D01*
X69114912Y-55969577D01*
X69171168Y-55982804D01*
X69189463Y-55983200D01*
X69275400Y-55983200D01*
X69275400Y-55653000D01*
X69008700Y-55653000D01*
G37*
X69008700Y-55653000D02*
X68886911Y-55651832D01*
X68807683Y-55647547D01*
X68762817Y-55638973D01*
X68744111Y-55624939D01*
X68742000Y-55614900D01*
X68722723Y-55586721D01*
X68661197Y-55576869D01*
X68653100Y-55576800D01*
X68564200Y-55576800D01*
X68564200Y-55957800D01*
X68650383Y-55957800D01*
X68719758Y-55946620D01*
X68751186Y-55919700D01*
X68775943Y-55896721D01*
X68833872Y-55884707D01*
X68921381Y-55881600D01*
X69009195Y-55883820D01*
X69058818Y-55892989D01*
X69082761Y-55912869D01*
X69090241Y-55932400D01*
X69114912Y-55969577D01*
X69171168Y-55982804D01*
X69189463Y-55983200D01*
X69275400Y-55983200D01*
X69275400Y-55653000D01*
X69008700Y-55653000D01*
G36*
X69186500Y-56110200D02*
G01*
X69023876Y-56109643D01*
X68905455Y-56107596D01*
X68824648Y-56103493D01*
X68774866Y-56096770D01*
X68749522Y-56086862D01*
X68742027Y-56073204D01*
X68742000Y-56072100D01*
X68722723Y-56043921D01*
X68661197Y-56034069D01*
X68653100Y-56034000D01*
X68564200Y-56034000D01*
X68564200Y-56220267D01*
X68566361Y-56313181D01*
X68572056Y-56385167D01*
X68580111Y-56422106D01*
X68581134Y-56423467D01*
X68622102Y-56440313D01*
X68677326Y-56439923D01*
X68724601Y-56425219D01*
X68742000Y-56402300D01*
X68749119Y-56386934D01*
X68775325Y-56376230D01*
X68827898Y-56369407D01*
X68914116Y-56365685D01*
X69041256Y-56364286D01*
X69097600Y-56364200D01*
X69241017Y-56364963D01*
X69340927Y-56367771D01*
X69404609Y-56373404D01*
X69439342Y-56382641D01*
X69452402Y-56396264D01*
X69453200Y-56402300D01*
X69472478Y-56430480D01*
X69534004Y-56440332D01*
X69542100Y-56440400D01*
X69631000Y-56440400D01*
X69631000Y-56110200D01*
X69186500Y-56110200D01*
G37*
X69186500Y-56110200D02*
X69023876Y-56109643D01*
X68905455Y-56107596D01*
X68824648Y-56103493D01*
X68774866Y-56096770D01*
X68749522Y-56086862D01*
X68742027Y-56073204D01*
X68742000Y-56072100D01*
X68722723Y-56043921D01*
X68661197Y-56034069D01*
X68653100Y-56034000D01*
X68564200Y-56034000D01*
X68564200Y-56220267D01*
X68566361Y-56313181D01*
X68572056Y-56385167D01*
X68580111Y-56422106D01*
X68581134Y-56423467D01*
X68622102Y-56440313D01*
X68677326Y-56439923D01*
X68724601Y-56425219D01*
X68742000Y-56402300D01*
X68749119Y-56386934D01*
X68775325Y-56376230D01*
X68827898Y-56369407D01*
X68914116Y-56365685D01*
X69041256Y-56364286D01*
X69097600Y-56364200D01*
X69241017Y-56364963D01*
X69340927Y-56367771D01*
X69404609Y-56373404D01*
X69439342Y-56382641D01*
X69452402Y-56396264D01*
X69453200Y-56402300D01*
X69472478Y-56430480D01*
X69534004Y-56440332D01*
X69542100Y-56440400D01*
X69631000Y-56440400D01*
X69631000Y-56110200D01*
X69186500Y-56110200D01*
G36*
X68838062Y-44883758D02*
G01*
X68799938Y-44823074D01*
X68732871Y-44786631D01*
X68692496Y-44781800D01*
X68615082Y-44802543D01*
X68567191Y-44856459D01*
X68556037Y-44931084D01*
X68573323Y-44987712D01*
X68622968Y-45037468D01*
X68694917Y-45057973D01*
X68767828Y-45045967D01*
X68802315Y-45022658D01*
X68840951Y-44954885D01*
X68838062Y-44883758D01*
G37*
X68838062Y-44883758D02*
X68799938Y-44823074D01*
X68732871Y-44786631D01*
X68692496Y-44781800D01*
X68615082Y-44802543D01*
X68567191Y-44856459D01*
X68556037Y-44931084D01*
X68573323Y-44987712D01*
X68622968Y-45037468D01*
X68694917Y-45057973D01*
X68767828Y-45045967D01*
X68802315Y-45022658D01*
X68840951Y-44954885D01*
X68838062Y-44883758D01*
G36*
X69189730Y-50725400D02*
G01*
X69128523Y-50732360D01*
X69094329Y-50749401D01*
X69092884Y-50752251D01*
X69065304Y-50760329D01*
X69001027Y-50742322D01*
X68970117Y-50729683D01*
X68903767Y-50699728D01*
X68878866Y-50681786D01*
X68890102Y-50668019D01*
X68919800Y-50655425D01*
X69015387Y-50620671D01*
X69071905Y-50607348D01*
X69095764Y-50614256D01*
X69097600Y-50622089D01*
X69119923Y-50640007D01*
X69174815Y-50648966D01*
X69186500Y-50649200D01*
X69275400Y-50649200D01*
X69275400Y-50293600D01*
X69186500Y-50293600D01*
X69118732Y-50302965D01*
X69097600Y-50328906D01*
X69075208Y-50351845D01*
X69014823Y-50386596D01*
X68926632Y-50428870D01*
X68820821Y-50474376D01*
X68707579Y-50518823D01*
X68597092Y-50557922D01*
X68499546Y-50587382D01*
X68462600Y-50596348D01*
X68346289Y-50641062D01*
X68270824Y-50715611D01*
X68236802Y-50819305D01*
X68234773Y-50860167D01*
X68241284Y-50938593D01*
X68256496Y-51000747D01*
X68261435Y-51011150D01*
X68299285Y-51049138D01*
X68348814Y-51044216D01*
X68408442Y-51003812D01*
X68447686Y-50964285D01*
X68449025Y-50933549D01*
X68434800Y-50913008D01*
X68415585Y-50876984D01*
X68437043Y-50846384D01*
X68449364Y-50836952D01*
X68512795Y-50808080D01*
X68554091Y-50801600D01*
X68604541Y-50812430D01*
X68682209Y-50841196D01*
X68775930Y-50882318D01*
X68874544Y-50930215D01*
X68966888Y-50979306D01*
X69041799Y-51024008D01*
X69088116Y-51058741D01*
X69097600Y-51073363D01*
X69115429Y-51098646D01*
X69173239Y-51102274D01*
X69180150Y-51101660D01*
X69262700Y-51093700D01*
X69277626Y-50725400D01*
X69189730Y-50725400D01*
G37*
X69189730Y-50725400D02*
X69128523Y-50732360D01*
X69094329Y-50749401D01*
X69092884Y-50752251D01*
X69065304Y-50760329D01*
X69001027Y-50742322D01*
X68970117Y-50729683D01*
X68903767Y-50699728D01*
X68878866Y-50681786D01*
X68890102Y-50668019D01*
X68919800Y-50655425D01*
X69015387Y-50620671D01*
X69071905Y-50607348D01*
X69095764Y-50614256D01*
X69097600Y-50622089D01*
X69119923Y-50640007D01*
X69174815Y-50648966D01*
X69186500Y-50649200D01*
X69275400Y-50649200D01*
X69275400Y-50293600D01*
X69186500Y-50293600D01*
X69118732Y-50302965D01*
X69097600Y-50328906D01*
X69075208Y-50351845D01*
X69014823Y-50386596D01*
X68926632Y-50428870D01*
X68820821Y-50474376D01*
X68707579Y-50518823D01*
X68597092Y-50557922D01*
X68499546Y-50587382D01*
X68462600Y-50596348D01*
X68346289Y-50641062D01*
X68270824Y-50715611D01*
X68236802Y-50819305D01*
X68234773Y-50860167D01*
X68241284Y-50938593D01*
X68256496Y-51000747D01*
X68261435Y-51011150D01*
X68299285Y-51049138D01*
X68348814Y-51044216D01*
X68408442Y-51003812D01*
X68447686Y-50964285D01*
X68449025Y-50933549D01*
X68434800Y-50913008D01*
X68415585Y-50876984D01*
X68437043Y-50846384D01*
X68449364Y-50836952D01*
X68512795Y-50808080D01*
X68554091Y-50801600D01*
X68604541Y-50812430D01*
X68682209Y-50841196D01*
X68775930Y-50882318D01*
X68874544Y-50930215D01*
X68966888Y-50979306D01*
X69041799Y-51024008D01*
X69088116Y-51058741D01*
X69097600Y-51073363D01*
X69115429Y-51098646D01*
X69173239Y-51102274D01*
X69180150Y-51101660D01*
X69262700Y-51093700D01*
X69277626Y-50725400D01*
X69189730Y-50725400D01*
G36*
X69270907Y-51966481D02*
G01*
X69259304Y-51901370D01*
X69247787Y-51876347D01*
X69233911Y-51845688D01*
X69247787Y-51831668D01*
X69263761Y-51798296D01*
X69273732Y-51732241D01*
X69275400Y-51687947D01*
X69258097Y-51572591D01*
X69203530Y-51488498D01*
X69107715Y-51430767D01*
X69051302Y-51412413D01*
X68904405Y-51395009D01*
X68769886Y-51422466D01*
X68656150Y-51492880D01*
X68643652Y-51504768D01*
X68594227Y-51558268D01*
X68570448Y-51604155D01*
X68565342Y-51663547D01*
X68569541Y-51729259D01*
X68575028Y-51808814D01*
X68570784Y-51850213D01*
X68551328Y-51865919D01*
X68511176Y-51868400D01*
X68508343Y-51868400D01*
X68449424Y-51856135D01*
X68420986Y-51830300D01*
X68384654Y-51801528D01*
X68320183Y-51792200D01*
X68234000Y-51792200D01*
X68234000Y-52173200D01*
X68322900Y-52173200D01*
X68388652Y-52164939D01*
X68411640Y-52138570D01*
X68411800Y-52135100D01*
X68419034Y-52119490D01*
X68445665Y-52108700D01*
X68499086Y-52101910D01*
X68586691Y-52098298D01*
X68715874Y-52097043D01*
X68754700Y-52097000D01*
X68892486Y-52097403D01*
X68919800Y-52097976D01*
X68919800Y-51868400D01*
X68860126Y-51859444D01*
X68805468Y-51842988D01*
X68756423Y-51812668D01*
X68745342Y-51762843D01*
X68746665Y-51747738D01*
X68761782Y-51698028D01*
X68802413Y-51668857D01*
X68850661Y-51654197D01*
X68956848Y-51642724D01*
X69037168Y-51664083D01*
X69084366Y-51715460D01*
X69092936Y-51748206D01*
X69088181Y-51804592D01*
X69048021Y-51837296D01*
X69034133Y-51842988D01*
X68966564Y-51862314D01*
X68919800Y-51868400D01*
X68919800Y-52097976D01*
X68987421Y-52099395D01*
X69047453Y-52104154D01*
X69080528Y-52112858D01*
X69094594Y-52126684D01*
X69097598Y-52146809D01*
X69097600Y-52147800D01*
X69107545Y-52182813D01*
X69146367Y-52196940D01*
X69186500Y-52198600D01*
X69275400Y-52198600D01*
X69275400Y-52051280D01*
X69270907Y-51966481D01*
G37*
X69270907Y-51966481D02*
X69259304Y-51901370D01*
X69247787Y-51876347D01*
X69233911Y-51845688D01*
X69247787Y-51831668D01*
X69263761Y-51798296D01*
X69273732Y-51732241D01*
X69275400Y-51687947D01*
X69258097Y-51572591D01*
X69203530Y-51488498D01*
X69107715Y-51430767D01*
X69051302Y-51412413D01*
X68904405Y-51395009D01*
X68769886Y-51422466D01*
X68656150Y-51492880D01*
X68643652Y-51504768D01*
X68594227Y-51558268D01*
X68570448Y-51604155D01*
X68565342Y-51663547D01*
X68569541Y-51729259D01*
X68575028Y-51808814D01*
X68570784Y-51850213D01*
X68551328Y-51865919D01*
X68511176Y-51868400D01*
X68508343Y-51868400D01*
X68449424Y-51856135D01*
X68420986Y-51830300D01*
X68384654Y-51801528D01*
X68320183Y-51792200D01*
X68234000Y-51792200D01*
X68234000Y-52173200D01*
X68322900Y-52173200D01*
X68388652Y-52164939D01*
X68411640Y-52138570D01*
X68411800Y-52135100D01*
X68419034Y-52119490D01*
X68445665Y-52108700D01*
X68499086Y-52101910D01*
X68586691Y-52098298D01*
X68715874Y-52097043D01*
X68754700Y-52097000D01*
X68892486Y-52097403D01*
X68919800Y-52097976D01*
X68919800Y-51868400D01*
X68860126Y-51859444D01*
X68805468Y-51842988D01*
X68756423Y-51812668D01*
X68745342Y-51762843D01*
X68746665Y-51747738D01*
X68761782Y-51698028D01*
X68802413Y-51668857D01*
X68850661Y-51654197D01*
X68956848Y-51642724D01*
X69037168Y-51664083D01*
X69084366Y-51715460D01*
X69092936Y-51748206D01*
X69088181Y-51804592D01*
X69048021Y-51837296D01*
X69034133Y-51842988D01*
X68966564Y-51862314D01*
X68919800Y-51868400D01*
X68919800Y-52097976D01*
X68987421Y-52099395D01*
X69047453Y-52104154D01*
X69080528Y-52112858D01*
X69094594Y-52126684D01*
X69097598Y-52146809D01*
X69097600Y-52147800D01*
X69107545Y-52182813D01*
X69146367Y-52196940D01*
X69186500Y-52198600D01*
X69275400Y-52198600D01*
X69275400Y-52051280D01*
X69270907Y-51966481D01*
G36*
X69399337Y-54825828D02*
G01*
X69383053Y-54796855D01*
X69342905Y-54789546D01*
X69328015Y-54789400D01*
X69261497Y-54801008D01*
X69218149Y-54824880D01*
X69167293Y-54847995D01*
X69079066Y-54848558D01*
X69065148Y-54847114D01*
X68987460Y-54842674D01*
X68935330Y-54856726D01*
X68884666Y-54897016D01*
X68872389Y-54909104D01*
X68820997Y-54983702D01*
X68784008Y-55080371D01*
X68767094Y-55178527D01*
X68775931Y-55257589D01*
X68776154Y-55258175D01*
X68775959Y-55299242D01*
X68766112Y-55310897D01*
X68747543Y-55314486D01*
X68733365Y-55293727D01*
X68721496Y-55241113D01*
X68709855Y-55149138D01*
X68703300Y-55084293D01*
X68688696Y-54977290D01*
X68666704Y-54906031D01*
X68632420Y-54855521D01*
X68626452Y-54849343D01*
X68545555Y-54799952D01*
X68454582Y-54792790D01*
X68366608Y-54824867D01*
X68294707Y-54893193D01*
X68273325Y-54930109D01*
X68249433Y-55012156D01*
X68237018Y-55120643D01*
X68236367Y-55235797D01*
X68247768Y-55337847D01*
X68266492Y-55398233D01*
X68312754Y-55457575D01*
X68366407Y-55499229D01*
X68415256Y-55521630D01*
X68454206Y-55517628D01*
X68458212Y-55515074D01*
X68458212Y-55292316D01*
X68425299Y-55277662D01*
X68405524Y-55229267D01*
X68399951Y-55162735D01*
X68409641Y-55093671D01*
X68435658Y-55037678D01*
X68440480Y-55031971D01*
X68471599Y-55019695D01*
X68495793Y-55049258D01*
X68508766Y-55111766D01*
X68508680Y-55173080D01*
X68496120Y-55251287D01*
X68470716Y-55287842D01*
X68458212Y-55292316D01*
X68458212Y-55515074D01*
X68506694Y-55484162D01*
X68512089Y-55480186D01*
X68560968Y-55450067D01*
X68587823Y-55445217D01*
X68589600Y-55449585D01*
X68610197Y-55478745D01*
X68652060Y-55504748D01*
X68708408Y-55519373D01*
X68763311Y-55500576D01*
X68782203Y-55488859D01*
X68842075Y-55460072D01*
X68895585Y-55465947D01*
X68911439Y-55472556D01*
X69023327Y-55499296D01*
X69064367Y-55491327D01*
X69064367Y-55242051D01*
X68993026Y-55240457D01*
X68953927Y-55206181D01*
X68949769Y-55164164D01*
X68967739Y-55121950D01*
X69014991Y-55107429D01*
X69034100Y-55106900D01*
X69088579Y-55113755D01*
X69108501Y-55142803D01*
X69110300Y-55170053D01*
X69093605Y-55225663D01*
X69064367Y-55242051D01*
X69064367Y-55491327D01*
X69129211Y-55478734D01*
X69191434Y-55439335D01*
X69227975Y-55404057D01*
X69249308Y-55366819D01*
X69259483Y-55313184D01*
X69262554Y-55228713D01*
X69262700Y-55185394D01*
X69262700Y-54992718D01*
X69332550Y-54992659D01*
X69377418Y-54987943D01*
X69397365Y-54964253D01*
X69402330Y-54907121D01*
X69402400Y-54891000D01*
X69399337Y-54825828D01*
G37*
X69399337Y-54825828D02*
X69383053Y-54796855D01*
X69342905Y-54789546D01*
X69328015Y-54789400D01*
X69261497Y-54801008D01*
X69218149Y-54824880D01*
X69167293Y-54847995D01*
X69079066Y-54848558D01*
X69065148Y-54847114D01*
X68987460Y-54842674D01*
X68935330Y-54856726D01*
X68884666Y-54897016D01*
X68872389Y-54909104D01*
X68820997Y-54983702D01*
X68784008Y-55080371D01*
X68767094Y-55178527D01*
X68775931Y-55257589D01*
X68776154Y-55258175D01*
X68775959Y-55299242D01*
X68766112Y-55310897D01*
X68747543Y-55314486D01*
X68733365Y-55293727D01*
X68721496Y-55241113D01*
X68709855Y-55149138D01*
X68703300Y-55084293D01*
X68688696Y-54977290D01*
X68666704Y-54906031D01*
X68632420Y-54855521D01*
X68626452Y-54849343D01*
X68545555Y-54799952D01*
X68454582Y-54792790D01*
X68366608Y-54824867D01*
X68294707Y-54893193D01*
X68273325Y-54930109D01*
X68249433Y-55012156D01*
X68237018Y-55120643D01*
X68236367Y-55235797D01*
X68247768Y-55337847D01*
X68266492Y-55398233D01*
X68312754Y-55457575D01*
X68366407Y-55499229D01*
X68415256Y-55521630D01*
X68454206Y-55517628D01*
X68458212Y-55515074D01*
X68458212Y-55292316D01*
X68425299Y-55277662D01*
X68405524Y-55229267D01*
X68399951Y-55162735D01*
X68409641Y-55093671D01*
X68435658Y-55037678D01*
X68440480Y-55031971D01*
X68471599Y-55019695D01*
X68495793Y-55049258D01*
X68508766Y-55111766D01*
X68508680Y-55173080D01*
X68496120Y-55251287D01*
X68470716Y-55287842D01*
X68458212Y-55292316D01*
X68458212Y-55515074D01*
X68506694Y-55484162D01*
X68512089Y-55480186D01*
X68560968Y-55450067D01*
X68587823Y-55445217D01*
X68589600Y-55449585D01*
X68610197Y-55478745D01*
X68652060Y-55504748D01*
X68708408Y-55519373D01*
X68763311Y-55500576D01*
X68782203Y-55488859D01*
X68842075Y-55460072D01*
X68895585Y-55465947D01*
X68911439Y-55472556D01*
X69023327Y-55499296D01*
X69064367Y-55491327D01*
X69064367Y-55242051D01*
X68993026Y-55240457D01*
X68953927Y-55206181D01*
X68949769Y-55164164D01*
X68967739Y-55121950D01*
X69014991Y-55107429D01*
X69034100Y-55106900D01*
X69088579Y-55113755D01*
X69108501Y-55142803D01*
X69110300Y-55170053D01*
X69093605Y-55225663D01*
X69064367Y-55242051D01*
X69064367Y-55491327D01*
X69129211Y-55478734D01*
X69191434Y-55439335D01*
X69227975Y-55404057D01*
X69249308Y-55366819D01*
X69259483Y-55313184D01*
X69262554Y-55228713D01*
X69262700Y-55185394D01*
X69262700Y-54992718D01*
X69332550Y-54992659D01*
X69377418Y-54987943D01*
X69397365Y-54964253D01*
X69402330Y-54907121D01*
X69402400Y-54891000D01*
X69399337Y-54825828D01*
D12*
X112452380Y-41821666D02*
X113166666Y-41821666D01*
X113309523Y-41774047D01*
X113404761Y-41678809D01*
X113452380Y-41535952D01*
X113452380Y-41440714D01*
X112785714Y-42726428D02*
X113452380Y-42726428D01*
X112404761Y-42488333D02*
X113119047Y-42250238D01*
X113119047Y-42869285D01*
M02*
