G04 #@! TF.GenerationSoftware,KiCad,Pcbnew,(5.1.5)-3*
G04 #@! TF.CreationDate,2020-05-02T18:46:00-04:00*
G04 #@! TF.ProjectId,amp,616d702e-6b69-4636-9164-5f7063625858,0.6.0*
G04 #@! TF.SameCoordinates,Original*
G04 #@! TF.FileFunction,Soldermask,Top*
G04 #@! TF.FilePolarity,Negative*
%FSLAX46Y46*%
G04 Gerber Fmt 4.6, Leading zero omitted, Abs format (unit mm)*
G04 Created by KiCad (PCBNEW (5.1.5)-3) date 2020-05-02 18:46:00*
%MOMM*%
%LPD*%
G04 APERTURE LIST*
%ADD10R,5.000000X5.000000*%
%ADD11R,2.000000X0.900000*%
%ADD12R,0.900000X2.000000*%
%ADD13R,0.750000X0.600000*%
%ADD14R,0.508000X0.660400*%
%ADD15R,0.660400X0.609600*%
%ADD16R,1.700000X2.450000*%
%ADD17R,0.850000X0.300000*%
%ADD18R,0.810000X0.940000*%
%ADD19R,0.800000X0.400000*%
%ADD20R,1.750000X2.500000*%
%ADD21R,1.000000X0.250000*%
%ADD22R,0.650000X0.620000*%
%ADD23O,2.000000X1.000000*%
%ADD24O,2.100000X1.050000*%
%ADD25C,0.650000*%
%ADD26R,1.150000X0.600000*%
%ADD27R,1.150000X0.300000*%
%ADD28R,1.550000X0.600000*%
%ADD29R,1.800000X1.200000*%
%ADD30R,0.600000X1.550000*%
%ADD31R,1.200000X1.800000*%
%ADD32R,0.600000X0.700000*%
%ADD33R,0.950000X0.800000*%
%ADD34R,0.375000X0.350000*%
%ADD35R,0.350000X0.375000*%
%ADD36R,0.600000X0.750000*%
%ADD37O,1.000000X1.000000*%
%ADD38R,1.000000X1.000000*%
%ADD39C,1.500000*%
%ADD40R,0.380000X0.400000*%
%ADD41R,3.200000X1.000000*%
%ADD42R,0.500000X1.050000*%
%ADD43R,2.550000X2.550000*%
%ADD44R,0.300000X0.850000*%
%ADD45R,1.050000X0.600000*%
%ADD46R,0.600000X1.300000*%
%ADD47R,0.620000X0.650000*%
%ADD48R,0.660400X0.508000*%
%ADD49R,1.500000X1.000000*%
%ADD50C,3.000000*%
%ADD51R,0.970000X0.960000*%
G04 APERTURE END LIST*
D10*
X80500000Y-52755000D03*
D11*
X88000000Y-60255000D03*
X88000000Y-58985000D03*
X88000000Y-57715000D03*
X88000000Y-56445000D03*
X88000000Y-55175000D03*
X88000000Y-53905000D03*
X88000000Y-52635000D03*
X88000000Y-51365000D03*
X88000000Y-50095000D03*
X88000000Y-48825000D03*
X88000000Y-47555000D03*
X88000000Y-46285000D03*
X88000000Y-45015000D03*
X88000000Y-43745000D03*
D12*
X85215000Y-42745000D03*
X83945000Y-42745000D03*
X82675000Y-42745000D03*
X81405000Y-42745000D03*
X80135000Y-42745000D03*
X78865000Y-42745000D03*
X77595000Y-42745000D03*
X76325000Y-42745000D03*
X75055000Y-42745000D03*
X73785000Y-42745000D03*
D11*
X71000000Y-43745000D03*
X71000000Y-45015000D03*
X71000000Y-46285000D03*
X71000000Y-47555000D03*
X71000000Y-48825000D03*
X71000000Y-50095000D03*
X71000000Y-51365000D03*
X71000000Y-52635000D03*
X71000000Y-53905000D03*
X71000000Y-55175000D03*
X71000000Y-56445000D03*
X71000000Y-57715000D03*
X71000000Y-58985000D03*
X71000000Y-60255000D03*
D13*
X93050000Y-48100000D03*
X91950000Y-48100000D03*
D14*
X91400000Y-57558800D03*
X91400000Y-56441200D03*
D15*
X96365800Y-50750000D03*
X97534200Y-50750000D03*
D16*
X96000000Y-48300000D03*
D17*
X97500000Y-47300000D03*
X97500000Y-47800000D03*
X97500000Y-48300000D03*
X97500000Y-48800000D03*
X97500000Y-49300000D03*
X94500000Y-49300000D03*
X94500000Y-48800000D03*
X94500000Y-48300000D03*
X94500000Y-47800000D03*
X94500000Y-47300000D03*
D18*
X96230000Y-45700000D03*
X97570000Y-45700000D03*
D13*
X93050000Y-49400000D03*
X91950000Y-49400000D03*
D19*
X100800000Y-49050000D03*
X100800000Y-50000000D03*
X100800000Y-50950000D03*
X103800000Y-50950000D03*
X103800000Y-50000000D03*
X103800000Y-49050000D03*
D20*
X102300000Y-50000000D03*
D21*
X107050000Y-52750000D03*
X107050000Y-52250000D03*
X107050000Y-51750000D03*
X107050000Y-51250000D03*
X107050000Y-50750000D03*
X107050000Y-50250000D03*
X105350000Y-50250000D03*
X105350000Y-50750000D03*
X105350000Y-51250000D03*
X105350000Y-51750000D03*
X105350000Y-52250000D03*
X105350000Y-52750000D03*
D22*
X107340000Y-53900000D03*
X106460000Y-53900000D03*
D23*
X56600000Y-50580000D03*
X56600000Y-59220000D03*
D24*
X60780000Y-50580000D03*
X60780000Y-59220000D03*
D25*
X60280000Y-57790000D03*
X60280000Y-52010000D03*
D26*
X61355000Y-51700000D03*
X61355000Y-58100000D03*
X61355000Y-52500000D03*
X61355000Y-57300000D03*
D27*
X61355000Y-55150000D03*
X61355000Y-54650000D03*
X61355000Y-55650000D03*
X61355000Y-56150000D03*
X61355000Y-56650000D03*
X61355000Y-54150000D03*
X61355000Y-53650000D03*
X61355000Y-53150000D03*
D28*
X111000000Y-44100000D03*
X111000000Y-45100000D03*
X111000000Y-46100000D03*
X111000000Y-47100000D03*
D29*
X114875000Y-48400000D03*
X114875000Y-42800000D03*
D28*
X111000000Y-53000000D03*
X111000000Y-54000000D03*
X111000000Y-55000000D03*
X111000000Y-56000000D03*
D29*
X114875000Y-57300000D03*
X114875000Y-51700000D03*
D30*
X100800000Y-37000000D03*
X101800000Y-37000000D03*
X102800000Y-37000000D03*
X103800000Y-37000000D03*
D31*
X105100000Y-33125000D03*
X99500000Y-33125000D03*
D30*
X103800000Y-63000000D03*
X102800000Y-63000000D03*
X101800000Y-63000000D03*
X100800000Y-63000000D03*
D31*
X99500000Y-66875000D03*
X105100000Y-66875000D03*
D32*
X64100000Y-58300000D03*
X64100000Y-59400000D03*
D33*
X63700000Y-49100000D03*
X63700000Y-47500000D03*
D34*
X67162500Y-46950000D03*
X67162500Y-46450000D03*
X65637500Y-46950000D03*
X65637500Y-46450000D03*
X67162500Y-45950000D03*
X65637500Y-45950000D03*
X67162500Y-47450000D03*
X65637500Y-47450000D03*
D35*
X66650000Y-45937500D03*
X66150000Y-45937500D03*
X66150000Y-47462500D03*
X66650000Y-47462500D03*
D36*
X63700000Y-51550000D03*
X63700000Y-50450000D03*
X62300000Y-47850000D03*
X62300000Y-48950000D03*
D18*
X58170000Y-47400000D03*
X56830000Y-47400000D03*
X61070000Y-48900000D03*
X59730000Y-48900000D03*
D22*
X61040000Y-47700000D03*
X60160000Y-47700000D03*
D37*
X70360000Y-36870000D03*
X70360000Y-35600000D03*
X71630000Y-36870000D03*
X71630000Y-35600000D03*
X72900000Y-36870000D03*
D38*
X72900000Y-35600000D03*
D39*
X113000000Y-40000000D03*
X62800000Y-66000000D03*
D40*
X64162000Y-56600000D03*
X63600000Y-56600000D03*
X63619000Y-53700000D03*
X64181000Y-53700000D03*
D41*
X92400000Y-39000000D03*
X92400000Y-35000000D03*
X85600000Y-35000000D03*
X85600000Y-39000000D03*
D22*
X106660000Y-49200000D03*
X107540000Y-49200000D03*
D18*
X94470000Y-45800000D03*
X93130000Y-45800000D03*
D42*
X99500000Y-47138000D03*
X99500000Y-44862000D03*
D43*
X61200000Y-43900000D03*
D44*
X59950000Y-41950000D03*
X60450000Y-41950000D03*
X60950000Y-41950000D03*
X61450000Y-41950000D03*
X61950000Y-41950000D03*
X62450000Y-41950000D03*
D17*
X63150000Y-42650000D03*
X63150000Y-43150000D03*
X63150000Y-43650000D03*
X63150000Y-44150000D03*
X63150000Y-44650000D03*
X63150000Y-45150000D03*
D44*
X62450000Y-45850000D03*
X61950000Y-45850000D03*
X61450000Y-45850000D03*
X60950000Y-45850000D03*
X60450000Y-45850000D03*
X59950000Y-45850000D03*
D17*
X59250000Y-45150000D03*
X59250000Y-44650000D03*
X59250000Y-44150000D03*
X59250000Y-43650000D03*
X59250000Y-43150000D03*
X59250000Y-42650000D03*
D45*
X67000000Y-38850000D03*
X67000000Y-36950000D03*
X64800000Y-37900000D03*
X65000000Y-41950000D03*
X65000000Y-43850000D03*
X67200000Y-42900000D03*
D46*
X102600000Y-44950000D03*
X103550000Y-47050000D03*
X101650000Y-47050000D03*
D47*
X67200000Y-49740000D03*
X67200000Y-48860000D03*
D48*
X100841200Y-52400000D03*
X101958800Y-52400000D03*
D49*
X81450000Y-38600000D03*
X81450000Y-35400000D03*
X76550000Y-38600000D03*
X76550000Y-35400000D03*
D48*
X67458800Y-40500000D03*
X66341200Y-40500000D03*
D50*
X113000000Y-65000000D03*
X113000000Y-35000000D03*
X58000000Y-65000000D03*
X58000000Y-35000000D03*
D22*
X57740000Y-46100000D03*
X56860000Y-46100000D03*
D47*
X68300000Y-48860000D03*
X68300000Y-49740000D03*
D48*
X63841200Y-40500000D03*
X64958800Y-40500000D03*
D51*
X105300000Y-48855000D03*
X105300000Y-47345000D03*
X99300000Y-48945000D03*
X99300000Y-50455000D03*
X65750000Y-49095000D03*
X65750000Y-50605000D03*
D47*
X90000000Y-60160000D03*
X90000000Y-61040000D03*
D51*
X91600000Y-59240000D03*
X91600000Y-60750000D03*
D47*
X90060000Y-56820000D03*
X90060000Y-57700000D03*
M02*
