M48
; DRILL file {KiCad (5.1.5)-3} date 5/2/2020 6:45:58 PM
; FORMAT={-:-/ absolute / metric / decimal}
; #@! TF.CreationDate,2020-05-02T18:45:58-04:00
; #@! TF.GenerationSoftware,Kicad,Pcbnew,(5.1.5)-3
; #@! TF.FileFunction,Plated,1,2,PTH
FMAT,2
METRIC
T1C0.200
T2C0.500
T3C0.600
T4C0.650
%
G90
G05
T1
X56.8Y-47.4
X57.0Y-42.8
X58.0Y-44.5
X58.4Y-55.8
X59.0Y-46.4
X59.5Y-53.5
X61.2Y-43.9
X61.4Y-51.7
X61.6Y-40.2
X63.0Y-38.8
X63.0Y-49.8
X63.5Y-55.1
X63.7Y-51.6
X65.638Y-46.163
X65.8Y-50.6
X65.9Y-37.9
X66.7Y-53.2
X68.5Y-55.0
X69.1Y-43.0
X73.5Y-44.9
X74.6Y-34.3
X82.2Y-57.9
X85.1Y-60.3
X85.5Y-56.5
X86.2Y-51.1
X90.0Y-52.7
X90.05Y-55.3
X91.1Y-54.7
X93.1Y-50.4
X96.6Y-61.4
X97.5Y-48.3
X98.1Y-62.75
X98.6Y-39.0
X99.3Y-50.5
X99.3Y-58.2
X99.4Y-60.6
X99.5Y-66.9
X102.2Y-50.0
X105.3Y-47.4
X106.7Y-49.2
X107.5Y-47.3
X108.3Y-42.35
X108.4Y-51.2
X111.0Y-57.7
T2
X65.577Y-45.2
X66.4Y-58.3
X67.9Y-51.4
X74.9Y-49.0
X94.5Y-44.6
X95.7Y-57.6
X98.5Y-53.5
X105.3Y-39.9
X105.95Y-44.9
T4
X70.36Y-35.6
X70.36Y-36.87
X71.63Y-35.6
X71.63Y-36.87
X72.9Y-35.6
X72.9Y-36.87
T3
G00X57.0Y-50.58
M15
G01X56.2Y-50.58
M16
G05
G00X57.0Y-59.22
M15
G01X56.2Y-59.22
M16
G05
G00X61.33Y-50.58
M15
G01X60.23Y-50.58
M16
G05
G00X61.33Y-59.22
M15
G01X60.23Y-59.22
M16
G05
T0
M30
