G04 #@! TF.GenerationSoftware,KiCad,Pcbnew,(5.1.5)-3*
G04 #@! TF.CreationDate,2020-03-30T16:28:43-04:00*
G04 #@! TF.ProjectId,amp,616d702e-6b69-4636-9164-5f7063625858,0.6.0*
G04 #@! TF.SameCoordinates,Original*
G04 #@! TF.FileFunction,Legend,Top*
G04 #@! TF.FilePolarity,Positive*
%FSLAX46Y46*%
G04 Gerber Fmt 4.6, Leading zero omitted, Abs format (unit mm)*
G04 Created by KiCad (PCBNEW (5.1.5)-3) date 2020-03-30 16:28:43*
%MOMM*%
%LPD*%
G04 APERTURE LIST*
%ADD10C,0.100000*%
%ADD11C,0.200000*%
%ADD12C,0.254000*%
%ADD13C,0.250000*%
%ADD14C,0.050000*%
%ADD15C,0.120000*%
%ADD16C,0.150000*%
G04 APERTURE END LIST*
D10*
X67300000Y-46300000D02*
G75*
G03X67300000Y-46300000I-300000J0D01*
G01*
X67100000Y-46300000D02*
G75*
G03X67100000Y-46300000I-100000J0D01*
G01*
X67433333Y-46726190D02*
X67766666Y-46726190D01*
X67433333Y-47226190D01*
X67766666Y-47226190D01*
X67000000Y-48488095D02*
X67000000Y-48726190D01*
X66833333Y-48226190D02*
X67000000Y-48488095D01*
X67166666Y-48226190D01*
X68733333Y-46026190D02*
X69066666Y-46526190D01*
X69066666Y-46026190D02*
X68733333Y-46526190D01*
X68600000Y-46300000D02*
X68400000Y-46500000D01*
X68600000Y-46300000D02*
X68400000Y-46100000D01*
X67000000Y-46300000D02*
X68600000Y-46300000D01*
X67000000Y-48000000D02*
X66800000Y-47800000D01*
X67000000Y-48000000D02*
X67200000Y-47800000D01*
X67000000Y-46300000D02*
X67000000Y-48000000D01*
X66550000Y-40700000D02*
X64250000Y-40700000D01*
X66550000Y-41700000D02*
X66550000Y-40700000D01*
X64250000Y-41700000D02*
X66550000Y-41700000D01*
X64250000Y-40700000D02*
X64250000Y-41700000D01*
X64050000Y-40700000D02*
X61750000Y-40700000D01*
X64050000Y-41700000D02*
X64050000Y-40700000D01*
X61750000Y-41700000D02*
X64050000Y-41700000D01*
X61750000Y-40700000D02*
X61750000Y-41700000D01*
X61700000Y-42600000D02*
X57700000Y-42600000D01*
X61700000Y-46600000D02*
X61700000Y-42600000D01*
X57700000Y-46600000D02*
X61700000Y-46600000D01*
X57700000Y-42600000D02*
X57700000Y-46600000D01*
X58800000Y-47550000D02*
X57000000Y-47550000D01*
X58800000Y-48450000D02*
X58800000Y-47550000D01*
X57000000Y-48450000D02*
X58800000Y-48450000D01*
X57000000Y-47550000D02*
X57000000Y-48450000D01*
X62350000Y-47500000D02*
X59350000Y-47500000D01*
X62350000Y-49000000D02*
X62350000Y-47500000D01*
X59350000Y-49000000D02*
X62350000Y-49000000D01*
X59350000Y-47500000D02*
X59350000Y-49000000D01*
X67150000Y-49000000D02*
X66250000Y-49000000D01*
X67150000Y-50800000D02*
X67150000Y-49000000D01*
X66250000Y-50800000D02*
X67150000Y-50800000D01*
X66250000Y-49000000D02*
X66250000Y-50800000D01*
X65200000Y-49000000D02*
X65150000Y-49000000D01*
X66050000Y-49000000D02*
X65200000Y-49000000D01*
X66050000Y-50800000D02*
X66050000Y-49000000D01*
X65150000Y-50800000D02*
X66050000Y-50800000D01*
X65150000Y-49000000D02*
X65150000Y-50800000D01*
X98200000Y-37750000D02*
X98150000Y-37750000D01*
X98200000Y-38850000D02*
X98200000Y-37750000D01*
X95800000Y-38850000D02*
X98200000Y-38850000D01*
X95800000Y-37750000D02*
X95800000Y-38850000D01*
X98150000Y-37750000D02*
X95800000Y-37750000D01*
X98200000Y-35000000D02*
X98200000Y-34950000D01*
X98200000Y-36050000D02*
X98200000Y-35000000D01*
X95800000Y-36050000D02*
X98200000Y-36050000D01*
X95800000Y-34950000D02*
X95800000Y-36050000D01*
X98200000Y-34950000D02*
X95800000Y-34950000D01*
X108750000Y-41900000D02*
X108750000Y-38900000D01*
X110250000Y-41900000D02*
X108750000Y-41900000D01*
X110250000Y-38900000D02*
X110250000Y-41900000D01*
X108750000Y-38900000D02*
X110250000Y-38900000D01*
X110050000Y-44550000D02*
X108950000Y-44550000D01*
X110050000Y-46850000D02*
X110050000Y-44550000D01*
X108950000Y-46850000D02*
X110050000Y-46850000D01*
X108950000Y-44550000D02*
X108950000Y-46850000D01*
X110050000Y-42050000D02*
X108950000Y-42050000D01*
X110050000Y-44350000D02*
X110050000Y-42050000D01*
X108950000Y-44350000D02*
X110050000Y-44350000D01*
X108950000Y-42050000D02*
X108950000Y-44350000D01*
X108200000Y-42000000D02*
X104600000Y-42000000D01*
X108200000Y-46200000D02*
X108200000Y-42000000D01*
X104600000Y-46200000D02*
X108200000Y-46200000D01*
X104600000Y-42000000D02*
X104600000Y-46200000D01*
X104450000Y-42000000D02*
X104450000Y-41950000D01*
X104450000Y-44450000D02*
X104450000Y-42000000D01*
X103200000Y-44450000D02*
X104450000Y-44450000D01*
X103200000Y-41950000D02*
X103200000Y-44450000D01*
X104450000Y-41950000D02*
X103200000Y-41950000D01*
X106050000Y-46350000D02*
X103150000Y-46350000D01*
X106050000Y-47850000D02*
X106050000Y-46350000D01*
X103150000Y-47850000D02*
X106050000Y-47850000D01*
X103150000Y-46350000D02*
X103150000Y-47850000D01*
X100850000Y-48400000D02*
X99350000Y-48400000D01*
X100850000Y-51400000D02*
X100850000Y-48400000D01*
X99350000Y-51400000D02*
X100850000Y-51400000D01*
X99350000Y-48400000D02*
X99350000Y-51400000D01*
X96650000Y-48500000D02*
X92400000Y-48500000D01*
X96650000Y-52100000D02*
X96650000Y-48500000D01*
X92400000Y-52100000D02*
X96650000Y-52100000D01*
X92400000Y-48500000D02*
X92400000Y-52100000D01*
X96900000Y-46950000D02*
X95050000Y-46950000D01*
X96900000Y-47950000D02*
X96900000Y-46950000D01*
X95050000Y-47950000D02*
X96900000Y-47950000D01*
X95050000Y-46950000D02*
X95050000Y-47950000D01*
X97750000Y-42850000D02*
X97750000Y-43850000D01*
X100050000Y-42850000D02*
X97750000Y-42850000D01*
X100050000Y-43850000D02*
X100050000Y-42850000D01*
X97750000Y-43850000D02*
X100050000Y-43850000D01*
X97400000Y-44600000D02*
X97350000Y-44600000D01*
X101250000Y-44600000D02*
X97400000Y-44600000D01*
X101250000Y-48100000D02*
X101250000Y-44600000D01*
X97350000Y-48100000D02*
X101250000Y-48100000D01*
X97350000Y-44600000D02*
X97350000Y-48100000D01*
X97100000Y-42800000D02*
X94700000Y-42800000D01*
X97100000Y-46700000D02*
X97100000Y-42800000D01*
X94700000Y-46700000D02*
X97100000Y-46700000D01*
X94700000Y-42800000D02*
X94700000Y-46700000D01*
X92000000Y-42100000D02*
X92000000Y-43100000D01*
X94300000Y-42100000D02*
X92000000Y-42100000D01*
X94300000Y-43100000D02*
X94300000Y-42100000D01*
X92000000Y-43100000D02*
X94300000Y-43100000D01*
X90800000Y-43550000D02*
X90800000Y-46750000D01*
X94300000Y-43550000D02*
X90800000Y-43550000D01*
X94300000Y-46750000D02*
X94300000Y-43550000D01*
X90800000Y-46750000D02*
X94300000Y-46750000D01*
X90950000Y-48250000D02*
X90950000Y-48300000D01*
X90950000Y-47400000D02*
X90950000Y-48250000D01*
X92750000Y-47400000D02*
X90950000Y-47400000D01*
X92750000Y-48300000D02*
X92750000Y-47400000D01*
X90950000Y-48300000D02*
X92750000Y-48300000D01*
X92200000Y-51750000D02*
X92200000Y-48850000D01*
X90800000Y-51750000D02*
X92200000Y-51750000D01*
X92200000Y-48850000D02*
X90800000Y-48850000D01*
X90800000Y-48850000D02*
X90800000Y-51750000D01*
X90550000Y-58200000D02*
X90550000Y-56350000D01*
X90500000Y-58200000D02*
X90550000Y-58200000D01*
X89600000Y-58200000D02*
X90500000Y-58200000D01*
X89600000Y-56350000D02*
X89600000Y-58200000D01*
X90550000Y-56350000D02*
X89600000Y-56350000D01*
X91900000Y-58150000D02*
X91900000Y-55850000D01*
X90900000Y-58150000D02*
X91900000Y-58150000D01*
X90900000Y-55850000D02*
X90900000Y-58150000D01*
X91900000Y-55850000D02*
X90900000Y-55850000D01*
X89550000Y-60550000D02*
X90450000Y-60550000D01*
X89550000Y-58750000D02*
X89550000Y-60550000D01*
X90450000Y-58750000D02*
X89550000Y-58750000D01*
X90450000Y-60550000D02*
X90450000Y-58750000D01*
X90850000Y-58500000D02*
X90850000Y-61500000D01*
X92350000Y-58500000D02*
X90850000Y-58500000D01*
X92350000Y-61500000D02*
X92350000Y-58500000D01*
X90850000Y-61500000D02*
X92350000Y-61500000D01*
X100178571Y-65083333D02*
X100416666Y-65083333D01*
X100130952Y-65226190D02*
X100297619Y-64726190D01*
X100464285Y-65226190D01*
X100630952Y-65226190D02*
X100630952Y-64892857D01*
X100630952Y-64940476D02*
X100654761Y-64916666D01*
X100702380Y-64892857D01*
X100773809Y-64892857D01*
X100821428Y-64916666D01*
X100845238Y-64964285D01*
X100845238Y-65226190D01*
X100845238Y-64964285D02*
X100869047Y-64916666D01*
X100916666Y-64892857D01*
X100988095Y-64892857D01*
X101035714Y-64916666D01*
X101059523Y-64964285D01*
X101059523Y-65226190D01*
X101297619Y-64892857D02*
X101297619Y-65392857D01*
X101297619Y-64916666D02*
X101345238Y-64892857D01*
X101440476Y-64892857D01*
X101488095Y-64916666D01*
X101511904Y-64940476D01*
X101535714Y-64988095D01*
X101535714Y-65130952D01*
X101511904Y-65178571D01*
X101488095Y-65202380D01*
X101440476Y-65226190D01*
X101345238Y-65226190D01*
X101297619Y-65202380D01*
X102226190Y-64726190D02*
X102273809Y-64726190D01*
X102321428Y-64750000D01*
X102345238Y-64773809D01*
X102369047Y-64821428D01*
X102392857Y-64916666D01*
X102392857Y-65035714D01*
X102369047Y-65130952D01*
X102345238Y-65178571D01*
X102321428Y-65202380D01*
X102273809Y-65226190D01*
X102226190Y-65226190D01*
X102178571Y-65202380D01*
X102154761Y-65178571D01*
X102130952Y-65130952D01*
X102107142Y-65035714D01*
X102107142Y-64916666D01*
X102130952Y-64821428D01*
X102154761Y-64773809D01*
X102178571Y-64750000D01*
X102226190Y-64726190D01*
X102607142Y-65178571D02*
X102630952Y-65202380D01*
X102607142Y-65226190D01*
X102583333Y-65202380D01*
X102607142Y-65178571D01*
X102607142Y-65226190D01*
X103059523Y-64726190D02*
X102964285Y-64726190D01*
X102916666Y-64750000D01*
X102892857Y-64773809D01*
X102845238Y-64845238D01*
X102821428Y-64940476D01*
X102821428Y-65130952D01*
X102845238Y-65178571D01*
X102869047Y-65202380D01*
X102916666Y-65226190D01*
X103011904Y-65226190D01*
X103059523Y-65202380D01*
X103083333Y-65178571D01*
X103107142Y-65130952D01*
X103107142Y-65011904D01*
X103083333Y-64964285D01*
X103059523Y-64940476D01*
X103011904Y-64916666D01*
X102916666Y-64916666D01*
X102869047Y-64940476D01*
X102845238Y-64964285D01*
X102821428Y-65011904D01*
X103321428Y-65178571D02*
X103345238Y-65202380D01*
X103321428Y-65226190D01*
X103297619Y-65202380D01*
X103321428Y-65178571D01*
X103321428Y-65226190D01*
X103535714Y-64773809D02*
X103559523Y-64750000D01*
X103607142Y-64726190D01*
X103726190Y-64726190D01*
X103773809Y-64750000D01*
X103797619Y-64773809D01*
X103821428Y-64821428D01*
X103821428Y-64869047D01*
X103797619Y-64940476D01*
X103511904Y-65226190D01*
X103821428Y-65226190D01*
X96785714Y-65845238D02*
X96738095Y-65821428D01*
X96642857Y-65821428D01*
X96595238Y-65845238D01*
X96547619Y-65892857D01*
X96523809Y-65940476D01*
X96523809Y-66035714D01*
X96547619Y-66083333D01*
X96595238Y-66130952D01*
X96642857Y-66154761D01*
X96738095Y-66154761D01*
X96785714Y-66130952D01*
X96690476Y-65654761D02*
X96571428Y-65678571D01*
X96452380Y-65750000D01*
X96380952Y-65869047D01*
X96357142Y-65988095D01*
X96380952Y-66107142D01*
X96452380Y-66226190D01*
X96571428Y-66297619D01*
X96690476Y-66321428D01*
X96809523Y-66297619D01*
X96928571Y-66226190D01*
X97000000Y-66107142D01*
X97023809Y-65988095D01*
X97000000Y-65869047D01*
X96928571Y-65750000D01*
X96809523Y-65678571D01*
X96690476Y-65654761D01*
X97595238Y-65773809D02*
X97619047Y-65750000D01*
X97666666Y-65726190D01*
X97785714Y-65726190D01*
X97833333Y-65750000D01*
X97857142Y-65773809D01*
X97880952Y-65821428D01*
X97880952Y-65869047D01*
X97857142Y-65940476D01*
X97571428Y-66226190D01*
X97880952Y-66226190D01*
X98190476Y-65726190D02*
X98238095Y-65726190D01*
X98285714Y-65750000D01*
X98309523Y-65773809D01*
X98333333Y-65821428D01*
X98357142Y-65916666D01*
X98357142Y-66035714D01*
X98333333Y-66130952D01*
X98309523Y-66178571D01*
X98285714Y-66202380D01*
X98238095Y-66226190D01*
X98190476Y-66226190D01*
X98142857Y-66202380D01*
X98119047Y-66178571D01*
X98095238Y-66130952D01*
X98071428Y-66035714D01*
X98071428Y-65916666D01*
X98095238Y-65821428D01*
X98119047Y-65773809D01*
X98142857Y-65750000D01*
X98190476Y-65726190D01*
X98547619Y-65773809D02*
X98571428Y-65750000D01*
X98619047Y-65726190D01*
X98738095Y-65726190D01*
X98785714Y-65750000D01*
X98809523Y-65773809D01*
X98833333Y-65821428D01*
X98833333Y-65869047D01*
X98809523Y-65940476D01*
X98523809Y-66226190D01*
X98833333Y-66226190D01*
X99142857Y-65726190D02*
X99190476Y-65726190D01*
X99238095Y-65750000D01*
X99261904Y-65773809D01*
X99285714Y-65821428D01*
X99309523Y-65916666D01*
X99309523Y-66035714D01*
X99285714Y-66130952D01*
X99261904Y-66178571D01*
X99238095Y-66202380D01*
X99190476Y-66226190D01*
X99142857Y-66226190D01*
X99095238Y-66202380D01*
X99071428Y-66178571D01*
X99047619Y-66130952D01*
X99023809Y-66035714D01*
X99023809Y-65916666D01*
X99047619Y-65821428D01*
X99071428Y-65773809D01*
X99095238Y-65750000D01*
X99142857Y-65726190D01*
X99904761Y-66226190D02*
X99904761Y-65726190D01*
X100142857Y-65892857D02*
X100142857Y-66226190D01*
X100142857Y-65940476D02*
X100166666Y-65916666D01*
X100214285Y-65892857D01*
X100285714Y-65892857D01*
X100333333Y-65916666D01*
X100357142Y-65964285D01*
X100357142Y-66226190D01*
X100523809Y-65892857D02*
X100714285Y-65892857D01*
X100595238Y-65726190D02*
X100595238Y-66154761D01*
X100619047Y-66202380D01*
X100666666Y-66226190D01*
X100714285Y-66226190D01*
X101071428Y-66202380D02*
X101023809Y-66226190D01*
X100928571Y-66226190D01*
X100880952Y-66202380D01*
X100857142Y-66154761D01*
X100857142Y-65964285D01*
X100880952Y-65916666D01*
X100928571Y-65892857D01*
X101023809Y-65892857D01*
X101071428Y-65916666D01*
X101095238Y-65964285D01*
X101095238Y-66011904D01*
X100857142Y-66059523D01*
X101309523Y-65892857D02*
X101309523Y-66226190D01*
X101309523Y-65940476D02*
X101333333Y-65916666D01*
X101380952Y-65892857D01*
X101452380Y-65892857D01*
X101500000Y-65916666D01*
X101523809Y-65964285D01*
X101523809Y-66226190D01*
X101690476Y-65892857D02*
X101880952Y-65892857D01*
X101761904Y-65726190D02*
X101761904Y-66154761D01*
X101785714Y-66202380D01*
X101833333Y-66226190D01*
X101880952Y-66226190D01*
X101976190Y-65892857D02*
X102166666Y-65892857D01*
X102047619Y-66226190D02*
X102047619Y-65797619D01*
X102071428Y-65750000D01*
X102119047Y-65726190D01*
X102166666Y-65726190D01*
X102547619Y-65892857D02*
X102547619Y-66226190D01*
X102333333Y-65892857D02*
X102333333Y-66154761D01*
X102357142Y-66202380D01*
X102404761Y-66226190D01*
X102476190Y-66226190D01*
X102523809Y-66202380D01*
X102547619Y-66178571D01*
X102857142Y-66226190D02*
X102809523Y-66202380D01*
X102785714Y-66154761D01*
X102785714Y-65726190D01*
X103428571Y-66226190D02*
X103428571Y-65726190D01*
X103595238Y-66083333D01*
X103761904Y-65726190D01*
X103761904Y-66226190D01*
X104071428Y-66226190D02*
X104023809Y-66202380D01*
X104000000Y-66178571D01*
X103976190Y-66130952D01*
X103976190Y-65988095D01*
X104000000Y-65940476D01*
X104023809Y-65916666D01*
X104071428Y-65892857D01*
X104142857Y-65892857D01*
X104190476Y-65916666D01*
X104214285Y-65940476D01*
X104238095Y-65988095D01*
X104238095Y-66130952D01*
X104214285Y-66178571D01*
X104190476Y-66202380D01*
X104142857Y-66226190D01*
X104071428Y-66226190D01*
X104380952Y-65892857D02*
X104571428Y-65892857D01*
X104452380Y-65726190D02*
X104452380Y-66154761D01*
X104476190Y-66202380D01*
X104523809Y-66226190D01*
X104571428Y-66226190D01*
X104738095Y-66226190D02*
X104738095Y-65892857D01*
X104738095Y-65726190D02*
X104714285Y-65750000D01*
X104738095Y-65773809D01*
X104761904Y-65750000D01*
X104738095Y-65726190D01*
X104738095Y-65773809D01*
X105047619Y-66226190D02*
X105000000Y-66202380D01*
X104976190Y-66178571D01*
X104952380Y-66130952D01*
X104952380Y-65988095D01*
X104976190Y-65940476D01*
X105000000Y-65916666D01*
X105047619Y-65892857D01*
X105119047Y-65892857D01*
X105166666Y-65916666D01*
X105190476Y-65940476D01*
X105214285Y-65988095D01*
X105214285Y-66130952D01*
X105190476Y-66178571D01*
X105166666Y-66202380D01*
X105119047Y-66226190D01*
X105047619Y-66226190D01*
X105428571Y-65892857D02*
X105428571Y-66226190D01*
X105428571Y-65940476D02*
X105452380Y-65916666D01*
X105500000Y-65892857D01*
X105571428Y-65892857D01*
X105619047Y-65916666D01*
X105642857Y-65964285D01*
X105642857Y-66226190D01*
X105904761Y-66202380D02*
X105904761Y-66226190D01*
X105880952Y-66273809D01*
X105857142Y-66297619D01*
X106500000Y-66226190D02*
X106500000Y-65726190D01*
X106738095Y-65892857D02*
X106738095Y-66226190D01*
X106738095Y-65940476D02*
X106761904Y-65916666D01*
X106809523Y-65892857D01*
X106880952Y-65892857D01*
X106928571Y-65916666D01*
X106952380Y-65964285D01*
X106952380Y-66226190D01*
X107404761Y-66202380D02*
X107357142Y-66226190D01*
X107261904Y-66226190D01*
X107214285Y-66202380D01*
X107190476Y-66178571D01*
X107166666Y-66130952D01*
X107166666Y-65988095D01*
X107190476Y-65940476D01*
X107214285Y-65916666D01*
X107261904Y-65892857D01*
X107357142Y-65892857D01*
X107404761Y-65916666D01*
X107619047Y-66178571D02*
X107642857Y-66202380D01*
X107619047Y-66226190D01*
X107595238Y-66202380D01*
X107619047Y-66178571D01*
X107619047Y-66226190D01*
D11*
X59250000Y-59690000D02*
X58000000Y-59690000D01*
X59250000Y-50110000D02*
X58000000Y-50110000D01*
X54000000Y-59690000D02*
X55280000Y-59690000D01*
X54000000Y-50110000D02*
X54000000Y-59690000D01*
X55280000Y-50110000D02*
X54000000Y-50110000D01*
X118140000Y-58620000D02*
X123980000Y-58620000D01*
X118140000Y-56080000D02*
X123980000Y-56080000D01*
X118140000Y-53540000D02*
X123980000Y-53540000D01*
X118140000Y-51000000D02*
X123980000Y-51000000D01*
X118140000Y-59890000D02*
X115600000Y-59890000D01*
X118140000Y-49730000D02*
X118140000Y-59890000D01*
X109000000Y-49730000D02*
X118140000Y-49730000D01*
D12*
X92250000Y-40000000D02*
X85750000Y-40000000D01*
X92250000Y-34000000D02*
X85750000Y-34000000D01*
X92250000Y-38100000D02*
X92250000Y-35900000D01*
X85750000Y-38100000D02*
X85750000Y-35900000D01*
X94747000Y-39883000D02*
G75*
G03X94747000Y-39883000I-111000J0D01*
G01*
D11*
X96550000Y-45625000D02*
X96550000Y-43875000D01*
X95250000Y-46412000D02*
X95250000Y-43875000D01*
D13*
X56800000Y-43375000D02*
G75*
G03X56800000Y-43375000I-125000J0D01*
G01*
X90800000Y-46500000D02*
G75*
G03X90800000Y-46500000I-125000J0D01*
G01*
X92725000Y-48650000D02*
G75*
G03X92725000Y-48650000I-125000J0D01*
G01*
D11*
X104500000Y-37500000D02*
G75*
G02X104600000Y-37500000I50000J0D01*
G01*
X104600000Y-37500000D02*
G75*
G02X104500000Y-37500000I-50000J0D01*
G01*
X104500000Y-37500000D02*
G75*
G02X104600000Y-37500000I50000J0D01*
G01*
X104600000Y-37500000D02*
X104600000Y-37500000D01*
X104500000Y-37500000D02*
X104500000Y-37500000D01*
X104600000Y-37500000D02*
X104600000Y-37500000D01*
D13*
X108175000Y-42225000D02*
G75*
G03X108175000Y-42225000I-125000J0D01*
G01*
D11*
X66025000Y-40100000D02*
X64975000Y-40100000D01*
X64625000Y-37150000D02*
X64625000Y-40050000D01*
X64175000Y-37150000D02*
X64625000Y-37150000D01*
X64175000Y-40050000D02*
X64175000Y-37150000D01*
X64625000Y-40050000D02*
X64175000Y-40050000D01*
X62975000Y-42100000D02*
X64025000Y-42100000D01*
X64375000Y-45050000D02*
X64375000Y-42150000D01*
X64825000Y-45050000D02*
X64375000Y-45050000D01*
X64825000Y-42150000D02*
X64825000Y-45050000D01*
X64375000Y-42150000D02*
X64825000Y-42150000D01*
X97600000Y-44850000D02*
X98900000Y-44850000D01*
X99250000Y-47810000D02*
X99250000Y-44890000D01*
X99350000Y-47810000D02*
X99250000Y-47810000D01*
X99350000Y-44890000D02*
X99350000Y-47810000D01*
X99250000Y-44890000D02*
X99350000Y-44890000D01*
D14*
X105100000Y-47100000D02*
X104100000Y-47100000D01*
X104600000Y-46600000D02*
X104600000Y-47600000D01*
D15*
X88620000Y-42900000D02*
X88620000Y-42120000D01*
X88620000Y-42120000D02*
X87620000Y-42120000D01*
X70380000Y-42900000D02*
X70380000Y-42120000D01*
X70380000Y-42120000D02*
X71380000Y-42120000D01*
X88620000Y-67865000D02*
X70380000Y-67865000D01*
X70380000Y-67865000D02*
X70380000Y-61445000D01*
X88620000Y-67865000D02*
X88620000Y-61445000D01*
X88620000Y-61445000D02*
X89000000Y-61445000D01*
D10*
X76500000Y-34500000D02*
X76500000Y-39500000D01*
X76500000Y-39500000D02*
X81500000Y-39500000D01*
X81500000Y-39500000D02*
X81500000Y-34500000D01*
X81500000Y-34500000D02*
X76500000Y-34500000D01*
X81000000Y-37000000D02*
G75*
G03X81000000Y-37000000I-2000000J0D01*
G01*
D15*
X64100000Y-46500000D02*
X64100000Y-46500000D01*
X64600000Y-46500000D02*
X64100000Y-46500000D01*
X64100000Y-48200000D02*
X64100000Y-48200000D01*
X64100000Y-48700000D02*
X64100000Y-48200000D01*
X64600000Y-48700000D02*
X64100000Y-48700000D01*
X65800000Y-48700000D02*
X65800000Y-48700000D01*
X66300000Y-48700000D02*
X65800000Y-48700000D01*
X66300000Y-48200000D02*
X66300000Y-48700000D01*
X66300000Y-47000000D02*
X66300000Y-47000000D01*
X66300000Y-46500000D02*
X66300000Y-47000000D01*
X65800000Y-46500000D02*
X66300000Y-46500000D01*
X70290000Y-35315000D02*
X71000000Y-35315000D01*
X70290000Y-36000000D02*
X70290000Y-35315000D01*
X72394493Y-35440000D02*
X72710000Y-35440000D01*
X70290000Y-36685000D02*
X70391724Y-36685000D01*
X72710000Y-35440000D02*
X72710000Y-38560000D01*
X70290000Y-36685000D02*
X70290000Y-38560000D01*
X71394493Y-38560000D02*
X71605507Y-38560000D01*
X72394493Y-38560000D02*
X72710000Y-38560000D01*
X70290000Y-38560000D02*
X70605507Y-38560000D01*
D10*
X64116666Y-56026190D02*
X63950000Y-55788095D01*
X63830952Y-56026190D02*
X63830952Y-55526190D01*
X64021428Y-55526190D01*
X64069047Y-55550000D01*
X64092857Y-55573809D01*
X64116666Y-55621428D01*
X64116666Y-55692857D01*
X64092857Y-55740476D01*
X64069047Y-55764285D01*
X64021428Y-55788095D01*
X63830952Y-55788095D01*
X64283333Y-55526190D02*
X64592857Y-55526190D01*
X64426190Y-55716666D01*
X64497619Y-55716666D01*
X64545238Y-55740476D01*
X64569047Y-55764285D01*
X64592857Y-55811904D01*
X64592857Y-55930952D01*
X64569047Y-55978571D01*
X64545238Y-56002380D01*
X64497619Y-56026190D01*
X64354761Y-56026190D01*
X64307142Y-56002380D01*
X64283333Y-55978571D01*
X64116666Y-54826190D02*
X63950000Y-54588095D01*
X63830952Y-54826190D02*
X63830952Y-54326190D01*
X64021428Y-54326190D01*
X64069047Y-54350000D01*
X64092857Y-54373809D01*
X64116666Y-54421428D01*
X64116666Y-54492857D01*
X64092857Y-54540476D01*
X64069047Y-54564285D01*
X64021428Y-54588095D01*
X63830952Y-54588095D01*
X64592857Y-54826190D02*
X64307142Y-54826190D01*
X64450000Y-54826190D02*
X64450000Y-54326190D01*
X64402380Y-54397619D01*
X64354761Y-54445238D01*
X64307142Y-54469047D01*
X61633333Y-60126190D02*
X61633333Y-60483333D01*
X61609523Y-60554761D01*
X61561904Y-60602380D01*
X61490476Y-60626190D01*
X61442857Y-60626190D01*
X62133333Y-60626190D02*
X61847619Y-60626190D01*
X61990476Y-60626190D02*
X61990476Y-60126190D01*
X61942857Y-60197619D01*
X61895238Y-60245238D01*
X61847619Y-60269047D01*
D12*
X108304523Y-51423333D02*
X109211666Y-51423333D01*
X109393095Y-51483809D01*
X109514047Y-51604761D01*
X109574523Y-51786190D01*
X109574523Y-51907142D01*
X108425476Y-50879047D02*
X108365000Y-50818571D01*
X108304523Y-50697619D01*
X108304523Y-50395238D01*
X108365000Y-50274285D01*
X108425476Y-50213809D01*
X108546428Y-50153333D01*
X108667380Y-50153333D01*
X108848809Y-50213809D01*
X109574523Y-50939523D01*
X109574523Y-50153333D01*
X88332380Y-37485047D02*
X88513809Y-37545523D01*
X88816190Y-37545523D01*
X88937142Y-37485047D01*
X88997619Y-37424571D01*
X89058095Y-37303619D01*
X89058095Y-37182666D01*
X88997619Y-37061714D01*
X88937142Y-37001238D01*
X88816190Y-36940761D01*
X88574285Y-36880285D01*
X88453333Y-36819809D01*
X88392857Y-36759333D01*
X88332380Y-36638380D01*
X88332380Y-36517428D01*
X88392857Y-36396476D01*
X88453333Y-36336000D01*
X88574285Y-36275523D01*
X88876666Y-36275523D01*
X89058095Y-36336000D01*
X90267619Y-37545523D02*
X89541904Y-37545523D01*
X89904761Y-37545523D02*
X89904761Y-36275523D01*
X89783809Y-36456952D01*
X89662857Y-36577904D01*
X89541904Y-36638380D01*
D10*
X96678571Y-36726190D02*
X96511904Y-36488095D01*
X96392857Y-36726190D02*
X96392857Y-36226190D01*
X96583333Y-36226190D01*
X96630952Y-36250000D01*
X96654761Y-36273809D01*
X96678571Y-36321428D01*
X96678571Y-36392857D01*
X96654761Y-36440476D01*
X96630952Y-36464285D01*
X96583333Y-36488095D01*
X96392857Y-36488095D01*
X97154761Y-36726190D02*
X96869047Y-36726190D01*
X97011904Y-36726190D02*
X97011904Y-36226190D01*
X96964285Y-36297619D01*
X96916666Y-36345238D01*
X96869047Y-36369047D01*
X97464285Y-36226190D02*
X97511904Y-36226190D01*
X97559523Y-36250000D01*
X97583333Y-36273809D01*
X97607142Y-36321428D01*
X97630952Y-36416666D01*
X97630952Y-36535714D01*
X97607142Y-36630952D01*
X97583333Y-36678571D01*
X97559523Y-36702380D01*
X97511904Y-36726190D01*
X97464285Y-36726190D01*
X97416666Y-36702380D01*
X97392857Y-36678571D01*
X97369047Y-36630952D01*
X97345238Y-36535714D01*
X97345238Y-36416666D01*
X97369047Y-36321428D01*
X97392857Y-36273809D01*
X97416666Y-36250000D01*
X97464285Y-36226190D01*
X97016666Y-39626190D02*
X96850000Y-39388095D01*
X96730952Y-39626190D02*
X96730952Y-39126190D01*
X96921428Y-39126190D01*
X96969047Y-39150000D01*
X96992857Y-39173809D01*
X97016666Y-39221428D01*
X97016666Y-39292857D01*
X96992857Y-39340476D01*
X96969047Y-39364285D01*
X96921428Y-39388095D01*
X96730952Y-39388095D01*
X97254761Y-39626190D02*
X97350000Y-39626190D01*
X97397619Y-39602380D01*
X97421428Y-39578571D01*
X97469047Y-39507142D01*
X97492857Y-39411904D01*
X97492857Y-39221428D01*
X97469047Y-39173809D01*
X97445238Y-39150000D01*
X97397619Y-39126190D01*
X97302380Y-39126190D01*
X97254761Y-39150000D01*
X97230952Y-39173809D01*
X97207142Y-39221428D01*
X97207142Y-39340476D01*
X97230952Y-39388095D01*
X97254761Y-39411904D01*
X97302380Y-39435714D01*
X97397619Y-39435714D01*
X97445238Y-39411904D01*
X97469047Y-39388095D01*
X97492857Y-39340476D01*
X89778571Y-48078571D02*
X89754761Y-48102380D01*
X89683333Y-48126190D01*
X89635714Y-48126190D01*
X89564285Y-48102380D01*
X89516666Y-48054761D01*
X89492857Y-48007142D01*
X89469047Y-47911904D01*
X89469047Y-47840476D01*
X89492857Y-47745238D01*
X89516666Y-47697619D01*
X89564285Y-47650000D01*
X89635714Y-47626190D01*
X89683333Y-47626190D01*
X89754761Y-47650000D01*
X89778571Y-47673809D01*
X90254761Y-48126190D02*
X89969047Y-48126190D01*
X90111904Y-48126190D02*
X90111904Y-47626190D01*
X90064285Y-47697619D01*
X90016666Y-47745238D01*
X89969047Y-47769047D01*
X90730952Y-48126190D02*
X90445238Y-48126190D01*
X90588095Y-48126190D02*
X90588095Y-47626190D01*
X90540476Y-47697619D01*
X90492857Y-47745238D01*
X90445238Y-47769047D01*
X103478571Y-41778571D02*
X103454761Y-41802380D01*
X103383333Y-41826190D01*
X103335714Y-41826190D01*
X103264285Y-41802380D01*
X103216666Y-41754761D01*
X103192857Y-41707142D01*
X103169047Y-41611904D01*
X103169047Y-41540476D01*
X103192857Y-41445238D01*
X103216666Y-41397619D01*
X103264285Y-41350000D01*
X103335714Y-41326190D01*
X103383333Y-41326190D01*
X103454761Y-41350000D01*
X103478571Y-41373809D01*
X103954761Y-41826190D02*
X103669047Y-41826190D01*
X103811904Y-41826190D02*
X103811904Y-41326190D01*
X103764285Y-41397619D01*
X103716666Y-41445238D01*
X103669047Y-41469047D01*
X104121428Y-41326190D02*
X104430952Y-41326190D01*
X104264285Y-41516666D01*
X104335714Y-41516666D01*
X104383333Y-41540476D01*
X104407142Y-41564285D01*
X104430952Y-41611904D01*
X104430952Y-41730952D01*
X104407142Y-41778571D01*
X104383333Y-41802380D01*
X104335714Y-41826190D01*
X104192857Y-41826190D01*
X104145238Y-41802380D01*
X104121428Y-41778571D01*
X95530952Y-45026190D02*
X95530952Y-44526190D01*
X95650000Y-44526190D01*
X95721428Y-44550000D01*
X95769047Y-44597619D01*
X95792857Y-44645238D01*
X95816666Y-44740476D01*
X95816666Y-44811904D01*
X95792857Y-44907142D01*
X95769047Y-44954761D01*
X95721428Y-45002380D01*
X95650000Y-45026190D01*
X95530952Y-45026190D01*
X96007142Y-44573809D02*
X96030952Y-44550000D01*
X96078571Y-44526190D01*
X96197619Y-44526190D01*
X96245238Y-44550000D01*
X96269047Y-44573809D01*
X96292857Y-44621428D01*
X96292857Y-44669047D01*
X96269047Y-44740476D01*
X95983333Y-45026190D01*
X96292857Y-45026190D01*
X55811904Y-42826190D02*
X55811904Y-42326190D01*
X56335714Y-42778571D02*
X56311904Y-42802380D01*
X56240476Y-42826190D01*
X56192857Y-42826190D01*
X56121428Y-42802380D01*
X56073809Y-42754761D01*
X56050000Y-42707142D01*
X56026190Y-42611904D01*
X56026190Y-42540476D01*
X56050000Y-42445238D01*
X56073809Y-42397619D01*
X56121428Y-42350000D01*
X56192857Y-42326190D01*
X56240476Y-42326190D01*
X56311904Y-42350000D01*
X56335714Y-42373809D01*
X56811904Y-42826190D02*
X56526190Y-42826190D01*
X56669047Y-42826190D02*
X56669047Y-42326190D01*
X56621428Y-42397619D01*
X56573809Y-42445238D01*
X56526190Y-42469047D01*
X89611904Y-46026190D02*
X89611904Y-45526190D01*
X90135714Y-45978571D02*
X90111904Y-46002380D01*
X90040476Y-46026190D01*
X89992857Y-46026190D01*
X89921428Y-46002380D01*
X89873809Y-45954761D01*
X89850000Y-45907142D01*
X89826190Y-45811904D01*
X89826190Y-45740476D01*
X89850000Y-45645238D01*
X89873809Y-45597619D01*
X89921428Y-45550000D01*
X89992857Y-45526190D01*
X90040476Y-45526190D01*
X90111904Y-45550000D01*
X90135714Y-45573809D01*
X90326190Y-45573809D02*
X90350000Y-45550000D01*
X90397619Y-45526190D01*
X90516666Y-45526190D01*
X90564285Y-45550000D01*
X90588095Y-45573809D01*
X90611904Y-45621428D01*
X90611904Y-45669047D01*
X90588095Y-45740476D01*
X90302380Y-46026190D01*
X90611904Y-46026190D01*
X94011904Y-52926190D02*
X94011904Y-52426190D01*
X94535714Y-52878571D02*
X94511904Y-52902380D01*
X94440476Y-52926190D01*
X94392857Y-52926190D01*
X94321428Y-52902380D01*
X94273809Y-52854761D01*
X94250000Y-52807142D01*
X94226190Y-52711904D01*
X94226190Y-52640476D01*
X94250000Y-52545238D01*
X94273809Y-52497619D01*
X94321428Y-52450000D01*
X94392857Y-52426190D01*
X94440476Y-52426190D01*
X94511904Y-52450000D01*
X94535714Y-52473809D01*
X94702380Y-52426190D02*
X95011904Y-52426190D01*
X94845238Y-52616666D01*
X94916666Y-52616666D01*
X94964285Y-52640476D01*
X94988095Y-52664285D01*
X95011904Y-52711904D01*
X95011904Y-52830952D01*
X94988095Y-52878571D01*
X94964285Y-52902380D01*
X94916666Y-52926190D01*
X94773809Y-52926190D01*
X94726190Y-52902380D01*
X94702380Y-52878571D01*
X101440476Y-39926190D02*
X101202380Y-39926190D01*
X101202380Y-39426190D01*
X101607142Y-39664285D02*
X101773809Y-39664285D01*
X101845238Y-39926190D02*
X101607142Y-39926190D01*
X101607142Y-39426190D01*
X101845238Y-39426190D01*
X102059523Y-39926190D02*
X102059523Y-39426190D01*
X102178571Y-39426190D01*
X102250000Y-39450000D01*
X102297619Y-39497619D01*
X102321428Y-39545238D01*
X102345238Y-39640476D01*
X102345238Y-39711904D01*
X102321428Y-39807142D01*
X102297619Y-39854761D01*
X102250000Y-39902380D01*
X102178571Y-39926190D01*
X102059523Y-39926190D01*
X102821428Y-39926190D02*
X102535714Y-39926190D01*
X102678571Y-39926190D02*
X102678571Y-39426190D01*
X102630952Y-39497619D01*
X102583333Y-39545238D01*
X102535714Y-39569047D01*
X106892857Y-41726190D02*
X106892857Y-41226190D01*
X107083333Y-41226190D01*
X107130952Y-41250000D01*
X107154761Y-41273809D01*
X107178571Y-41321428D01*
X107178571Y-41392857D01*
X107154761Y-41440476D01*
X107130952Y-41464285D01*
X107083333Y-41488095D01*
X106892857Y-41488095D01*
X107369047Y-41702380D02*
X107440476Y-41726190D01*
X107559523Y-41726190D01*
X107607142Y-41702380D01*
X107630952Y-41678571D01*
X107654761Y-41630952D01*
X107654761Y-41583333D01*
X107630952Y-41535714D01*
X107607142Y-41511904D01*
X107559523Y-41488095D01*
X107464285Y-41464285D01*
X107416666Y-41440476D01*
X107392857Y-41416666D01*
X107369047Y-41369047D01*
X107369047Y-41321428D01*
X107392857Y-41273809D01*
X107416666Y-41250000D01*
X107464285Y-41226190D01*
X107583333Y-41226190D01*
X107654761Y-41250000D01*
X108130952Y-41726190D02*
X107845238Y-41726190D01*
X107988095Y-41726190D02*
X107988095Y-41226190D01*
X107940476Y-41297619D01*
X107892857Y-41345238D01*
X107845238Y-41369047D01*
X63252380Y-37973809D02*
X63204761Y-37950000D01*
X63157142Y-37902380D01*
X63085714Y-37830952D01*
X63038095Y-37807142D01*
X62990476Y-37807142D01*
X63014285Y-37926190D02*
X62966666Y-37902380D01*
X62919047Y-37854761D01*
X62895238Y-37759523D01*
X62895238Y-37592857D01*
X62919047Y-37497619D01*
X62966666Y-37450000D01*
X63014285Y-37426190D01*
X63109523Y-37426190D01*
X63157142Y-37450000D01*
X63204761Y-37497619D01*
X63228571Y-37592857D01*
X63228571Y-37759523D01*
X63204761Y-37854761D01*
X63157142Y-37902380D01*
X63109523Y-37926190D01*
X63014285Y-37926190D01*
X63704761Y-37926190D02*
X63419047Y-37926190D01*
X63561904Y-37926190D02*
X63561904Y-37426190D01*
X63514285Y-37497619D01*
X63466666Y-37545238D01*
X63419047Y-37569047D01*
X65652380Y-44873809D02*
X65604761Y-44850000D01*
X65557142Y-44802380D01*
X65485714Y-44730952D01*
X65438095Y-44707142D01*
X65390476Y-44707142D01*
X65414285Y-44826190D02*
X65366666Y-44802380D01*
X65319047Y-44754761D01*
X65295238Y-44659523D01*
X65295238Y-44492857D01*
X65319047Y-44397619D01*
X65366666Y-44350000D01*
X65414285Y-44326190D01*
X65509523Y-44326190D01*
X65557142Y-44350000D01*
X65604761Y-44397619D01*
X65628571Y-44492857D01*
X65628571Y-44659523D01*
X65604761Y-44754761D01*
X65557142Y-44802380D01*
X65509523Y-44826190D01*
X65414285Y-44826190D01*
X65819047Y-44373809D02*
X65842857Y-44350000D01*
X65890476Y-44326190D01*
X66009523Y-44326190D01*
X66057142Y-44350000D01*
X66080952Y-44373809D01*
X66104761Y-44421428D01*
X66104761Y-44469047D01*
X66080952Y-44540476D01*
X65795238Y-44826190D01*
X66104761Y-44826190D01*
X100252380Y-47573809D02*
X100204761Y-47550000D01*
X100157142Y-47502380D01*
X100085714Y-47430952D01*
X100038095Y-47407142D01*
X99990476Y-47407142D01*
X100014285Y-47526190D02*
X99966666Y-47502380D01*
X99919047Y-47454761D01*
X99895238Y-47359523D01*
X99895238Y-47192857D01*
X99919047Y-47097619D01*
X99966666Y-47050000D01*
X100014285Y-47026190D01*
X100109523Y-47026190D01*
X100157142Y-47050000D01*
X100204761Y-47097619D01*
X100228571Y-47192857D01*
X100228571Y-47359523D01*
X100204761Y-47454761D01*
X100157142Y-47502380D01*
X100109523Y-47526190D01*
X100014285Y-47526190D01*
X100395238Y-47026190D02*
X100704761Y-47026190D01*
X100538095Y-47216666D01*
X100609523Y-47216666D01*
X100657142Y-47240476D01*
X100680952Y-47264285D01*
X100704761Y-47311904D01*
X100704761Y-47430952D01*
X100680952Y-47478571D01*
X100657142Y-47502380D01*
X100609523Y-47526190D01*
X100466666Y-47526190D01*
X100419047Y-47502380D01*
X100395238Y-47478571D01*
X110826190Y-43283333D02*
X110588095Y-43450000D01*
X110826190Y-43569047D02*
X110326190Y-43569047D01*
X110326190Y-43378571D01*
X110350000Y-43330952D01*
X110373809Y-43307142D01*
X110421428Y-43283333D01*
X110492857Y-43283333D01*
X110540476Y-43307142D01*
X110564285Y-43330952D01*
X110588095Y-43378571D01*
X110588095Y-43569047D01*
X110326190Y-42854761D02*
X110326190Y-42950000D01*
X110350000Y-42997619D01*
X110373809Y-43021428D01*
X110445238Y-43069047D01*
X110540476Y-43092857D01*
X110730952Y-43092857D01*
X110778571Y-43069047D01*
X110802380Y-43045238D01*
X110826190Y-42997619D01*
X110826190Y-42902380D01*
X110802380Y-42854761D01*
X110778571Y-42830952D01*
X110730952Y-42807142D01*
X110611904Y-42807142D01*
X110564285Y-42830952D01*
X110540476Y-42854761D01*
X110516666Y-42902380D01*
X110516666Y-42997619D01*
X110540476Y-43045238D01*
X110564285Y-43069047D01*
X110611904Y-43092857D01*
X110826190Y-45683333D02*
X110588095Y-45850000D01*
X110826190Y-45969047D02*
X110326190Y-45969047D01*
X110326190Y-45778571D01*
X110350000Y-45730952D01*
X110373809Y-45707142D01*
X110421428Y-45683333D01*
X110492857Y-45683333D01*
X110540476Y-45707142D01*
X110564285Y-45730952D01*
X110588095Y-45778571D01*
X110588095Y-45969047D01*
X110540476Y-45397619D02*
X110516666Y-45445238D01*
X110492857Y-45469047D01*
X110445238Y-45492857D01*
X110421428Y-45492857D01*
X110373809Y-45469047D01*
X110350000Y-45445238D01*
X110326190Y-45397619D01*
X110326190Y-45302380D01*
X110350000Y-45254761D01*
X110373809Y-45230952D01*
X110421428Y-45207142D01*
X110445238Y-45207142D01*
X110492857Y-45230952D01*
X110516666Y-45254761D01*
X110540476Y-45302380D01*
X110540476Y-45397619D01*
X110564285Y-45445238D01*
X110588095Y-45469047D01*
X110635714Y-45492857D01*
X110730952Y-45492857D01*
X110778571Y-45469047D01*
X110802380Y-45445238D01*
X110826190Y-45397619D01*
X110826190Y-45302380D01*
X110802380Y-45254761D01*
X110778571Y-45230952D01*
X110730952Y-45207142D01*
X110635714Y-45207142D01*
X110588095Y-45230952D01*
X110564285Y-45254761D01*
X110540476Y-45302380D01*
X104278571Y-48626190D02*
X104111904Y-48388095D01*
X103992857Y-48626190D02*
X103992857Y-48126190D01*
X104183333Y-48126190D01*
X104230952Y-48150000D01*
X104254761Y-48173809D01*
X104278571Y-48221428D01*
X104278571Y-48292857D01*
X104254761Y-48340476D01*
X104230952Y-48364285D01*
X104183333Y-48388095D01*
X103992857Y-48388095D01*
X104754761Y-48626190D02*
X104469047Y-48626190D01*
X104611904Y-48626190D02*
X104611904Y-48126190D01*
X104564285Y-48197619D01*
X104516666Y-48245238D01*
X104469047Y-48269047D01*
X104945238Y-48173809D02*
X104969047Y-48150000D01*
X105016666Y-48126190D01*
X105135714Y-48126190D01*
X105183333Y-48150000D01*
X105207142Y-48173809D01*
X105230952Y-48221428D01*
X105230952Y-48269047D01*
X105207142Y-48340476D01*
X104921428Y-48626190D01*
X105230952Y-48626190D01*
X67078571Y-51483333D02*
X67102380Y-51507142D01*
X67126190Y-51578571D01*
X67126190Y-51626190D01*
X67102380Y-51697619D01*
X67054761Y-51745238D01*
X67007142Y-51769047D01*
X66911904Y-51792857D01*
X66840476Y-51792857D01*
X66745238Y-51769047D01*
X66697619Y-51745238D01*
X66650000Y-51697619D01*
X66626190Y-51626190D01*
X66626190Y-51578571D01*
X66650000Y-51507142D01*
X66673809Y-51483333D01*
X66626190Y-51316666D02*
X66626190Y-50983333D01*
X67126190Y-51197619D01*
X91128571Y-41876190D02*
X90961904Y-41638095D01*
X90842857Y-41876190D02*
X90842857Y-41376190D01*
X91033333Y-41376190D01*
X91080952Y-41400000D01*
X91104761Y-41423809D01*
X91128571Y-41471428D01*
X91128571Y-41542857D01*
X91104761Y-41590476D01*
X91080952Y-41614285D01*
X91033333Y-41638095D01*
X90842857Y-41638095D01*
X91604761Y-41876190D02*
X91319047Y-41876190D01*
X91461904Y-41876190D02*
X91461904Y-41376190D01*
X91414285Y-41447619D01*
X91366666Y-41495238D01*
X91319047Y-41519047D01*
X92080952Y-41876190D02*
X91795238Y-41876190D01*
X91938095Y-41876190D02*
X91938095Y-41376190D01*
X91890476Y-41447619D01*
X91842857Y-41495238D01*
X91795238Y-41519047D01*
X89476190Y-42390952D02*
X89880952Y-42390952D01*
X89928571Y-42367142D01*
X89952380Y-42343333D01*
X89976190Y-42295714D01*
X89976190Y-42200476D01*
X89952380Y-42152857D01*
X89928571Y-42129047D01*
X89880952Y-42105238D01*
X89476190Y-42105238D01*
X89976190Y-41605238D02*
X89976190Y-41890952D01*
X89976190Y-41748095D02*
X89476190Y-41748095D01*
X89547619Y-41795714D01*
X89595238Y-41843333D01*
X89619047Y-41890952D01*
D16*
X75135714Y-35852380D02*
X74564285Y-35852380D01*
X74850000Y-35852380D02*
X74850000Y-34852380D01*
X74754761Y-34995238D01*
X74659523Y-35090476D01*
X74564285Y-35138095D01*
X78409523Y-37361904D02*
X78409523Y-36561904D01*
X78600000Y-36561904D01*
X78714285Y-36600000D01*
X78790476Y-36676190D01*
X78828571Y-36752380D01*
X78866666Y-36904761D01*
X78866666Y-37019047D01*
X78828571Y-37171428D01*
X78790476Y-37247619D01*
X78714285Y-37323809D01*
X78600000Y-37361904D01*
X78409523Y-37361904D01*
X79628571Y-37361904D02*
X79171428Y-37361904D01*
X79400000Y-37361904D02*
X79400000Y-36561904D01*
X79323809Y-36676190D01*
X79247619Y-36752380D01*
X79171428Y-36790476D01*
D10*
X63019047Y-46426190D02*
X63019047Y-46830952D01*
X63042857Y-46878571D01*
X63066666Y-46902380D01*
X63114285Y-46926190D01*
X63209523Y-46926190D01*
X63257142Y-46902380D01*
X63280952Y-46878571D01*
X63304761Y-46830952D01*
X63304761Y-46426190D01*
X63519047Y-46473809D02*
X63542857Y-46450000D01*
X63590476Y-46426190D01*
X63709523Y-46426190D01*
X63757142Y-46450000D01*
X63780952Y-46473809D01*
X63804761Y-46521428D01*
X63804761Y-46569047D01*
X63780952Y-46640476D01*
X63495238Y-46926190D01*
X63804761Y-46926190D01*
X67116666Y-41426190D02*
X66950000Y-41188095D01*
X66830952Y-41426190D02*
X66830952Y-40926190D01*
X67021428Y-40926190D01*
X67069047Y-40950000D01*
X67092857Y-40973809D01*
X67116666Y-41021428D01*
X67116666Y-41092857D01*
X67092857Y-41140476D01*
X67069047Y-41164285D01*
X67021428Y-41188095D01*
X66830952Y-41188095D01*
X67545238Y-41092857D02*
X67545238Y-41426190D01*
X67426190Y-40902380D02*
X67307142Y-41259523D01*
X67616666Y-41259523D01*
X56316666Y-48178571D02*
X56292857Y-48202380D01*
X56221428Y-48226190D01*
X56173809Y-48226190D01*
X56102380Y-48202380D01*
X56054761Y-48154761D01*
X56030952Y-48107142D01*
X56007142Y-48011904D01*
X56007142Y-47940476D01*
X56030952Y-47845238D01*
X56054761Y-47797619D01*
X56102380Y-47750000D01*
X56173809Y-47726190D01*
X56221428Y-47726190D01*
X56292857Y-47750000D01*
X56316666Y-47773809D01*
X56745238Y-47892857D02*
X56745238Y-48226190D01*
X56626190Y-47702380D02*
X56507142Y-48059523D01*
X56816666Y-48059523D01*
X65578571Y-51433333D02*
X65602380Y-51457142D01*
X65626190Y-51528571D01*
X65626190Y-51576190D01*
X65602380Y-51647619D01*
X65554761Y-51695238D01*
X65507142Y-51719047D01*
X65411904Y-51742857D01*
X65340476Y-51742857D01*
X65245238Y-51719047D01*
X65197619Y-51695238D01*
X65150000Y-51647619D01*
X65126190Y-51576190D01*
X65126190Y-51528571D01*
X65150000Y-51457142D01*
X65173809Y-51433333D01*
X65126190Y-51004761D02*
X65126190Y-51100000D01*
X65150000Y-51147619D01*
X65173809Y-51171428D01*
X65245238Y-51219047D01*
X65340476Y-51242857D01*
X65530952Y-51242857D01*
X65578571Y-51219047D01*
X65602380Y-51195238D01*
X65626190Y-51147619D01*
X65626190Y-51052380D01*
X65602380Y-51004761D01*
X65578571Y-50980952D01*
X65530952Y-50957142D01*
X65411904Y-50957142D01*
X65364285Y-50980952D01*
X65340476Y-51004761D01*
X65316666Y-51052380D01*
X65316666Y-51147619D01*
X65340476Y-51195238D01*
X65364285Y-51219047D01*
X65411904Y-51242857D01*
X60916666Y-41426190D02*
X60750000Y-41188095D01*
X60630952Y-41426190D02*
X60630952Y-40926190D01*
X60821428Y-40926190D01*
X60869047Y-40950000D01*
X60892857Y-40973809D01*
X60916666Y-41021428D01*
X60916666Y-41092857D01*
X60892857Y-41140476D01*
X60869047Y-41164285D01*
X60821428Y-41188095D01*
X60630952Y-41188095D01*
X61369047Y-40926190D02*
X61130952Y-40926190D01*
X61107142Y-41164285D01*
X61130952Y-41140476D01*
X61178571Y-41116666D01*
X61297619Y-41116666D01*
X61345238Y-41140476D01*
X61369047Y-41164285D01*
X61392857Y-41211904D01*
X61392857Y-41330952D01*
X61369047Y-41378571D01*
X61345238Y-41402380D01*
X61297619Y-41426190D01*
X61178571Y-41426190D01*
X61130952Y-41402380D01*
X61107142Y-41378571D01*
X94216666Y-47678571D02*
X94192857Y-47702380D01*
X94121428Y-47726190D01*
X94073809Y-47726190D01*
X94002380Y-47702380D01*
X93954761Y-47654761D01*
X93930952Y-47607142D01*
X93907142Y-47511904D01*
X93907142Y-47440476D01*
X93930952Y-47345238D01*
X93954761Y-47297619D01*
X94002380Y-47250000D01*
X94073809Y-47226190D01*
X94121428Y-47226190D01*
X94192857Y-47250000D01*
X94216666Y-47273809D01*
X94502380Y-47440476D02*
X94454761Y-47416666D01*
X94430952Y-47392857D01*
X94407142Y-47345238D01*
X94407142Y-47321428D01*
X94430952Y-47273809D01*
X94454761Y-47250000D01*
X94502380Y-47226190D01*
X94597619Y-47226190D01*
X94645238Y-47250000D01*
X94669047Y-47273809D01*
X94692857Y-47321428D01*
X94692857Y-47345238D01*
X94669047Y-47392857D01*
X94645238Y-47416666D01*
X94597619Y-47440476D01*
X94502380Y-47440476D01*
X94454761Y-47464285D01*
X94430952Y-47488095D01*
X94407142Y-47535714D01*
X94407142Y-47630952D01*
X94430952Y-47678571D01*
X94454761Y-47702380D01*
X94502380Y-47726190D01*
X94597619Y-47726190D01*
X94645238Y-47702380D01*
X94669047Y-47678571D01*
X94692857Y-47630952D01*
X94692857Y-47535714D01*
X94669047Y-47488095D01*
X94645238Y-47464285D01*
X94597619Y-47440476D01*
X92776190Y-57183333D02*
X92538095Y-57350000D01*
X92776190Y-57469047D02*
X92276190Y-57469047D01*
X92276190Y-57278571D01*
X92300000Y-57230952D01*
X92323809Y-57207142D01*
X92371428Y-57183333D01*
X92442857Y-57183333D01*
X92490476Y-57207142D01*
X92514285Y-57230952D01*
X92538095Y-57278571D01*
X92538095Y-57469047D01*
X92323809Y-56992857D02*
X92300000Y-56969047D01*
X92276190Y-56921428D01*
X92276190Y-56802380D01*
X92300000Y-56754761D01*
X92323809Y-56730952D01*
X92371428Y-56707142D01*
X92419047Y-56707142D01*
X92490476Y-56730952D01*
X92776190Y-57016666D01*
X92776190Y-56707142D01*
X71333333Y-34166190D02*
X71333333Y-34523333D01*
X71309523Y-34594761D01*
X71261904Y-34642380D01*
X71190476Y-34666190D01*
X71142857Y-34666190D01*
X71785714Y-34332857D02*
X71785714Y-34666190D01*
X71666666Y-34142380D02*
X71547619Y-34499523D01*
X71857142Y-34499523D01*
X100616666Y-43626190D02*
X100450000Y-43388095D01*
X100330952Y-43626190D02*
X100330952Y-43126190D01*
X100521428Y-43126190D01*
X100569047Y-43150000D01*
X100592857Y-43173809D01*
X100616666Y-43221428D01*
X100616666Y-43292857D01*
X100592857Y-43340476D01*
X100569047Y-43364285D01*
X100521428Y-43388095D01*
X100330952Y-43388095D01*
X100783333Y-43126190D02*
X101116666Y-43126190D01*
X100902380Y-43626190D01*
X100228571Y-52621428D02*
X100252380Y-52645238D01*
X100276190Y-52716666D01*
X100276190Y-52764285D01*
X100252380Y-52835714D01*
X100204761Y-52883333D01*
X100157142Y-52907142D01*
X100061904Y-52930952D01*
X99990476Y-52930952D01*
X99895238Y-52907142D01*
X99847619Y-52883333D01*
X99800000Y-52835714D01*
X99776190Y-52764285D01*
X99776190Y-52716666D01*
X99800000Y-52645238D01*
X99823809Y-52621428D01*
X100276190Y-52145238D02*
X100276190Y-52430952D01*
X100276190Y-52288095D02*
X99776190Y-52288095D01*
X99847619Y-52335714D01*
X99895238Y-52383333D01*
X99919047Y-52430952D01*
X99823809Y-51954761D02*
X99800000Y-51930952D01*
X99776190Y-51883333D01*
X99776190Y-51764285D01*
X99800000Y-51716666D01*
X99823809Y-51692857D01*
X99871428Y-51669047D01*
X99919047Y-51669047D01*
X99990476Y-51692857D01*
X100276190Y-51978571D01*
X100276190Y-51669047D01*
X109178571Y-38678571D02*
X109154761Y-38702380D01*
X109083333Y-38726190D01*
X109035714Y-38726190D01*
X108964285Y-38702380D01*
X108916666Y-38654761D01*
X108892857Y-38607142D01*
X108869047Y-38511904D01*
X108869047Y-38440476D01*
X108892857Y-38345238D01*
X108916666Y-38297619D01*
X108964285Y-38250000D01*
X109035714Y-38226190D01*
X109083333Y-38226190D01*
X109154761Y-38250000D01*
X109178571Y-38273809D01*
X109654761Y-38726190D02*
X109369047Y-38726190D01*
X109511904Y-38726190D02*
X109511904Y-38226190D01*
X109464285Y-38297619D01*
X109416666Y-38345238D01*
X109369047Y-38369047D01*
X109964285Y-38226190D02*
X110011904Y-38226190D01*
X110059523Y-38250000D01*
X110083333Y-38273809D01*
X110107142Y-38321428D01*
X110130952Y-38416666D01*
X110130952Y-38535714D01*
X110107142Y-38630952D01*
X110083333Y-38678571D01*
X110059523Y-38702380D01*
X110011904Y-38726190D01*
X109964285Y-38726190D01*
X109916666Y-38702380D01*
X109892857Y-38678571D01*
X109869047Y-38630952D01*
X109845238Y-38535714D01*
X109845238Y-38416666D01*
X109869047Y-38321428D01*
X109892857Y-38273809D01*
X109916666Y-38250000D01*
X109964285Y-38226190D01*
X91416666Y-52478571D02*
X91392857Y-52502380D01*
X91321428Y-52526190D01*
X91273809Y-52526190D01*
X91202380Y-52502380D01*
X91154761Y-52454761D01*
X91130952Y-52407142D01*
X91107142Y-52311904D01*
X91107142Y-52240476D01*
X91130952Y-52145238D01*
X91154761Y-52097619D01*
X91202380Y-52050000D01*
X91273809Y-52026190D01*
X91321428Y-52026190D01*
X91392857Y-52050000D01*
X91416666Y-52073809D01*
X91654761Y-52526190D02*
X91750000Y-52526190D01*
X91797619Y-52502380D01*
X91821428Y-52478571D01*
X91869047Y-52407142D01*
X91892857Y-52311904D01*
X91892857Y-52121428D01*
X91869047Y-52073809D01*
X91845238Y-52050000D01*
X91797619Y-52026190D01*
X91702380Y-52026190D01*
X91654761Y-52050000D01*
X91630952Y-52073809D01*
X91607142Y-52121428D01*
X91607142Y-52240476D01*
X91630952Y-52288095D01*
X91654761Y-52311904D01*
X91702380Y-52335714D01*
X91797619Y-52335714D01*
X91845238Y-52311904D01*
X91869047Y-52288095D01*
X91892857Y-52240476D01*
X62816666Y-48378571D02*
X62792857Y-48402380D01*
X62721428Y-48426190D01*
X62673809Y-48426190D01*
X62602380Y-48402380D01*
X62554761Y-48354761D01*
X62530952Y-48307142D01*
X62507142Y-48211904D01*
X62507142Y-48140476D01*
X62530952Y-48045238D01*
X62554761Y-47997619D01*
X62602380Y-47950000D01*
X62673809Y-47926190D01*
X62721428Y-47926190D01*
X62792857Y-47950000D01*
X62816666Y-47973809D01*
X63269047Y-47926190D02*
X63030952Y-47926190D01*
X63007142Y-48164285D01*
X63030952Y-48140476D01*
X63078571Y-48116666D01*
X63197619Y-48116666D01*
X63245238Y-48140476D01*
X63269047Y-48164285D01*
X63292857Y-48211904D01*
X63292857Y-48330952D01*
X63269047Y-48378571D01*
X63245238Y-48402380D01*
X63197619Y-48426190D01*
X63078571Y-48426190D01*
X63030952Y-48402380D01*
X63007142Y-48378571D01*
X90178571Y-61233333D02*
X90202380Y-61257142D01*
X90226190Y-61328571D01*
X90226190Y-61376190D01*
X90202380Y-61447619D01*
X90154761Y-61495238D01*
X90107142Y-61519047D01*
X90011904Y-61542857D01*
X89940476Y-61542857D01*
X89845238Y-61519047D01*
X89797619Y-61495238D01*
X89750000Y-61447619D01*
X89726190Y-61376190D01*
X89726190Y-61328571D01*
X89750000Y-61257142D01*
X89773809Y-61233333D01*
X89773809Y-61042857D02*
X89750000Y-61019047D01*
X89726190Y-60971428D01*
X89726190Y-60852380D01*
X89750000Y-60804761D01*
X89773809Y-60780952D01*
X89821428Y-60757142D01*
X89869047Y-60757142D01*
X89940476Y-60780952D01*
X90226190Y-61066666D01*
X90226190Y-60757142D01*
X93028571Y-60083333D02*
X93052380Y-60107142D01*
X93076190Y-60178571D01*
X93076190Y-60226190D01*
X93052380Y-60297619D01*
X93004761Y-60345238D01*
X92957142Y-60369047D01*
X92861904Y-60392857D01*
X92790476Y-60392857D01*
X92695238Y-60369047D01*
X92647619Y-60345238D01*
X92600000Y-60297619D01*
X92576190Y-60226190D01*
X92576190Y-60178571D01*
X92600000Y-60107142D01*
X92623809Y-60083333D01*
X92576190Y-59916666D02*
X92576190Y-59607142D01*
X92766666Y-59773809D01*
X92766666Y-59702380D01*
X92790476Y-59654761D01*
X92814285Y-59630952D01*
X92861904Y-59607142D01*
X92980952Y-59607142D01*
X93028571Y-59630952D01*
X93052380Y-59654761D01*
X93076190Y-59702380D01*
X93076190Y-59845238D01*
X93052380Y-59892857D01*
X93028571Y-59916666D01*
X90238571Y-55843333D02*
X90262380Y-55867142D01*
X90286190Y-55938571D01*
X90286190Y-55986190D01*
X90262380Y-56057619D01*
X90214761Y-56105238D01*
X90167142Y-56129047D01*
X90071904Y-56152857D01*
X90000476Y-56152857D01*
X89905238Y-56129047D01*
X89857619Y-56105238D01*
X89810000Y-56057619D01*
X89786190Y-55986190D01*
X89786190Y-55938571D01*
X89810000Y-55867142D01*
X89833809Y-55843333D01*
X90286190Y-55367142D02*
X90286190Y-55652857D01*
X90286190Y-55510000D02*
X89786190Y-55510000D01*
X89857619Y-55557619D01*
X89905238Y-55605238D01*
X89929047Y-55652857D01*
M02*
