G04 #@! TF.GenerationSoftware,KiCad,Pcbnew,(5.1.5)-3*
G04 #@! TF.CreationDate,2020-03-20T14:52:30-04:00*
G04 #@! TF.ProjectId,amp,616d702e-6b69-4636-9164-5f7063625858,0.6.0*
G04 #@! TF.SameCoordinates,Original*
G04 #@! TF.FileFunction,Copper,L2,Bot*
G04 #@! TF.FilePolarity,Positive*
%FSLAX46Y46*%
G04 Gerber Fmt 4.6, Leading zero omitted, Abs format (unit mm)*
G04 Created by KiCad (PCBNEW (5.1.5)-3) date 2020-03-20 14:52:30*
%MOMM*%
%LPD*%
G04 APERTURE LIST*
%ADD10C,1.650000*%
%ADD11R,1.650000X1.650000*%
%ADD12R,3.200000X1.000000*%
%ADD13O,1.600000X0.800000*%
%ADD14R,1.500000X1.000000*%
%ADD15O,0.850000X0.850000*%
%ADD16R,0.850000X0.850000*%
%ADD17C,1.998980*%
%ADD18R,1.998980X1.998980*%
%ADD19C,0.450000*%
%ADD20C,0.250000*%
%ADD21C,0.320000*%
%ADD22C,0.088900*%
%ADD23C,0.100000*%
G04 APERTURE END LIST*
D10*
X114080000Y-58620000D03*
X111540000Y-58620000D03*
X109000000Y-58620000D03*
X114080000Y-56080000D03*
X111540000Y-56080000D03*
X109000000Y-56080000D03*
X114080000Y-53540000D03*
X111540000Y-53540000D03*
X109000000Y-53540000D03*
X114080000Y-51000000D03*
X111540000Y-51000000D03*
D11*
X109000000Y-51000000D03*
D12*
X85600000Y-35000000D03*
X85600000Y-39000000D03*
X92400000Y-39000000D03*
X92400000Y-35000000D03*
D13*
X56200000Y-50410000D03*
X56200000Y-59390000D03*
X62150000Y-59030000D03*
X62150000Y-50770000D03*
D14*
X100300000Y-37500000D03*
X103300000Y-37500000D03*
X100300000Y-36100000D03*
X103300000Y-36100000D03*
X76550000Y-38600000D03*
X76550000Y-35400000D03*
X81450000Y-38600000D03*
X81450000Y-35400000D03*
D15*
X72000000Y-38000000D03*
X71000000Y-38000000D03*
X72000000Y-37000000D03*
X71000000Y-37000000D03*
X72000000Y-36000000D03*
D16*
X71000000Y-36000000D03*
D17*
X113000000Y-42190000D03*
D18*
X113000000Y-46000000D03*
D19*
X60100000Y-48200000D03*
X57500000Y-46800000D03*
X106400000Y-44100000D03*
X66100000Y-56800000D03*
X109500000Y-46200000D03*
X65600000Y-49460000D03*
X75500000Y-51200000D03*
X68350000Y-41900000D03*
X58400000Y-49100000D03*
X61550000Y-49450000D03*
X90000000Y-49550000D03*
X92600000Y-41200000D03*
X82050000Y-58650000D03*
X70700000Y-40600000D03*
X79550000Y-38700000D03*
X67400000Y-53000000D03*
X59500000Y-40700000D03*
X68000000Y-57300000D03*
X61800000Y-39800000D03*
X97250000Y-48850000D03*
X91300000Y-42650000D03*
X94050000Y-47700000D03*
X65900000Y-60400000D03*
X63425000Y-49350000D03*
X66000000Y-51350000D03*
X63400000Y-47750000D03*
X65200000Y-55200000D03*
X59400000Y-50400000D03*
X79200000Y-45550000D03*
X83500000Y-48850000D03*
X81350000Y-47300000D03*
X85000000Y-51400000D03*
X100300000Y-37500000D03*
X100300000Y-36100000D03*
X103500000Y-37500000D03*
X103500000Y-36000000D03*
X85850000Y-53900000D03*
D20*
X75500000Y-49050000D02*
X68350000Y-41900000D01*
X75500000Y-51200000D02*
X75500000Y-49050000D01*
D21*
X72601040Y-36000000D02*
X72000000Y-36000000D01*
X72950000Y-36000000D02*
X72601040Y-36000000D01*
X75550000Y-38600000D02*
X72950000Y-36000000D01*
X76550000Y-38600000D02*
X75550000Y-38600000D01*
X72700000Y-38600000D02*
X70700000Y-40600000D01*
X76550000Y-38600000D02*
X72700000Y-38600000D01*
X70700000Y-41165685D02*
X76700000Y-47165685D01*
X70700000Y-40600000D02*
X70700000Y-41165685D01*
X76700000Y-47165685D02*
X76700000Y-55100000D01*
X80250000Y-58650000D02*
X82050000Y-58650000D01*
X76700000Y-55100000D02*
X80250000Y-58650000D01*
D20*
X97975001Y-49198001D02*
X97975001Y-44275001D01*
X97223003Y-49949999D02*
X97975001Y-49198001D01*
D21*
X90399999Y-49949999D02*
X97223003Y-49949999D01*
X90000000Y-49550000D02*
X90399999Y-49949999D01*
D22*
X76550000Y-39188900D02*
X76550000Y-38600000D01*
D21*
X86911100Y-49550000D02*
X76550000Y-39188900D01*
X90000000Y-49550000D02*
X86911100Y-49550000D01*
X61200000Y-49100000D02*
X61550000Y-49450000D01*
X58400000Y-49100000D02*
X61200000Y-49100000D01*
X94900000Y-41200000D02*
X92600000Y-41200000D01*
X97975001Y-44275001D02*
X94900000Y-41200000D01*
X91450000Y-51000000D02*
X90000000Y-49550000D01*
X109000000Y-51000000D02*
X91450000Y-51000000D01*
D20*
X79650000Y-38600000D02*
X79550000Y-38700000D01*
X81450000Y-38600000D02*
X79650000Y-38600000D01*
X71000000Y-38000000D02*
X68300000Y-40700000D01*
X67400000Y-53000000D02*
X67400000Y-40700000D01*
X68300000Y-40700000D02*
X67400000Y-40700000D01*
X67400000Y-40700000D02*
X59500000Y-40700000D01*
X64600000Y-37000000D02*
X61800000Y-39800000D01*
X71000000Y-37000000D02*
X64600000Y-37000000D01*
X61234315Y-39800000D02*
X61800000Y-39800000D01*
X59326998Y-39800000D02*
X61234315Y-39800000D01*
X58774999Y-40351999D02*
X59326998Y-39800000D01*
X58774999Y-41048001D02*
X58774999Y-40351999D01*
X66674999Y-48948001D02*
X58774999Y-41048001D01*
X66674999Y-55974999D02*
X66674999Y-48948001D01*
X68000000Y-57300000D02*
X66674999Y-55974999D01*
X91300000Y-43215685D02*
X91300000Y-42650000D01*
X91300000Y-43465685D02*
X91300000Y-43215685D01*
X96684315Y-48850000D02*
X91300000Y-43465685D01*
X97250000Y-48850000D02*
X96684315Y-48850000D01*
X94050000Y-47700000D02*
X90000000Y-43650000D01*
X90711100Y-35000000D02*
X92400000Y-35000000D01*
X90000000Y-35711100D02*
X90711100Y-35000000D01*
X90000000Y-43650000D02*
X90000000Y-35711100D01*
X58674999Y-50748001D02*
X58674999Y-50051999D01*
X65900000Y-57973002D02*
X58674999Y-50748001D01*
X65900000Y-60400000D02*
X65900000Y-57973002D01*
X59051999Y-49674999D02*
X58674999Y-50051999D01*
X59748001Y-49674999D02*
X59051999Y-49674999D01*
X60125001Y-50170319D02*
X60125001Y-50051999D01*
X61904683Y-51950001D02*
X60125001Y-50170319D01*
X63712001Y-51950001D02*
X61904683Y-51950001D01*
X64050001Y-51612001D02*
X63712001Y-51950001D01*
X60125001Y-50051999D02*
X59748001Y-49674999D01*
X64050001Y-49975001D02*
X64050001Y-51612001D01*
X63425000Y-49350000D02*
X64050001Y-49975001D01*
X66000000Y-51350000D02*
X65050000Y-51350000D01*
X64600000Y-50600000D02*
X64600000Y-48650000D01*
X64600000Y-50900000D02*
X65050000Y-51350000D01*
X64600000Y-50600000D02*
X64600000Y-50900000D01*
X64600000Y-48650000D02*
X64600000Y-48300000D01*
X64050000Y-47750000D02*
X63400000Y-47750000D01*
X64600000Y-48300000D02*
X64050000Y-47750000D01*
X64200000Y-55200000D02*
X59400000Y-50400000D01*
X65200000Y-55200000D02*
X64200000Y-55200000D01*
X79518198Y-45550000D02*
X79200000Y-45550000D01*
X81328864Y-45550000D02*
X79518198Y-45550000D01*
X87817765Y-52038901D02*
X81328864Y-45550000D01*
X110501099Y-52038901D02*
X87817765Y-52038901D01*
X111540000Y-51000000D02*
X110501099Y-52038901D01*
X83724999Y-49074999D02*
X83500000Y-48850000D01*
X91768901Y-57118901D02*
X83724999Y-49074999D01*
X110501099Y-57118901D02*
X91768901Y-57118901D01*
X111540000Y-56080000D02*
X110501099Y-57118901D01*
X110501099Y-54578901D02*
X110715001Y-54364999D01*
X89878475Y-54578901D02*
X110501099Y-54578901D01*
X82599574Y-47300000D02*
X89878475Y-54578901D01*
X110715001Y-54364999D02*
X111540000Y-53540000D01*
X81350000Y-47300000D02*
X82599574Y-47300000D01*
X93258901Y-59658901D02*
X85224999Y-51624999D01*
X110501099Y-59658901D02*
X93258901Y-59658901D01*
X85224999Y-51624999D02*
X85000000Y-51400000D01*
X111540000Y-58620000D02*
X110501099Y-59658901D01*
D23*
G36*
X115800000Y-32990183D02*
G01*
X115800000Y-32990184D01*
X115800001Y-67800000D01*
X94050000Y-67800000D01*
X94050000Y-64837489D01*
X111350000Y-64837489D01*
X111350000Y-65162511D01*
X111413408Y-65481287D01*
X111537789Y-65781568D01*
X111718361Y-66051814D01*
X111948186Y-66281639D01*
X112218432Y-66462211D01*
X112518713Y-66586592D01*
X112837489Y-66650000D01*
X113162511Y-66650000D01*
X113481287Y-66586592D01*
X113781568Y-66462211D01*
X114051814Y-66281639D01*
X114281639Y-66051814D01*
X114462211Y-65781568D01*
X114586592Y-65481287D01*
X114650000Y-65162511D01*
X114650000Y-64837489D01*
X114586592Y-64518713D01*
X114462211Y-64218432D01*
X114281639Y-63948186D01*
X114051814Y-63718361D01*
X113781568Y-63537789D01*
X113481287Y-63413408D01*
X113162511Y-63350000D01*
X112837489Y-63350000D01*
X112518713Y-63413408D01*
X112218432Y-63537789D01*
X111948186Y-63718361D01*
X111718361Y-63948186D01*
X111537789Y-64218432D01*
X111413408Y-64518713D01*
X111350000Y-64837489D01*
X94050000Y-64837489D01*
X94050000Y-61000000D01*
X94049039Y-60990245D01*
X94046194Y-60980866D01*
X94041573Y-60972221D01*
X94035355Y-60964645D01*
X94027779Y-60958427D01*
X94019134Y-60953806D01*
X94009755Y-60950961D01*
X94000000Y-60950000D01*
X65000000Y-60950000D01*
X64990245Y-60950961D01*
X64980866Y-60953806D01*
X64972221Y-60958427D01*
X64964645Y-60964645D01*
X64958427Y-60972221D01*
X64953806Y-60980866D01*
X64950961Y-60990245D01*
X64950000Y-61000000D01*
X64950000Y-67800000D01*
X55200000Y-67800000D01*
X55200000Y-64837489D01*
X56350000Y-64837489D01*
X56350000Y-65162511D01*
X56413408Y-65481287D01*
X56537789Y-65781568D01*
X56718361Y-66051814D01*
X56948186Y-66281639D01*
X57218432Y-66462211D01*
X57518713Y-66586592D01*
X57837489Y-66650000D01*
X58162511Y-66650000D01*
X58481287Y-66586592D01*
X58781568Y-66462211D01*
X59051814Y-66281639D01*
X59281639Y-66051814D01*
X59462211Y-65781568D01*
X59586592Y-65481287D01*
X59650000Y-65162511D01*
X59650000Y-64837489D01*
X59586592Y-64518713D01*
X59462211Y-64218432D01*
X59281639Y-63948186D01*
X59051814Y-63718361D01*
X58781568Y-63537789D01*
X58481287Y-63413408D01*
X58162511Y-63350000D01*
X57837489Y-63350000D01*
X57518713Y-63413408D01*
X57218432Y-63537789D01*
X56948186Y-63718361D01*
X56718361Y-63948186D01*
X56537789Y-64218432D01*
X56413408Y-64518713D01*
X56350000Y-64837489D01*
X55200000Y-64837489D01*
X55200000Y-60181565D01*
X55279629Y-60241678D01*
X55455782Y-60326833D01*
X55645163Y-60375986D01*
X55840495Y-60387248D01*
X55996000Y-60229135D01*
X55996000Y-59594000D01*
X56404000Y-59594000D01*
X56404000Y-60229135D01*
X56559505Y-60387248D01*
X56754837Y-60375986D01*
X56944218Y-60326833D01*
X57120371Y-60241678D01*
X57276526Y-60123794D01*
X57406683Y-59977711D01*
X57492591Y-59737915D01*
X57392670Y-59594000D01*
X56404000Y-59594000D01*
X55996000Y-59594000D01*
X55976000Y-59594000D01*
X55976000Y-59377915D01*
X60857409Y-59377915D01*
X60943317Y-59617711D01*
X61073474Y-59763794D01*
X61229629Y-59881678D01*
X61405782Y-59966833D01*
X61595163Y-60015986D01*
X61790495Y-60027248D01*
X61946000Y-59869135D01*
X61946000Y-59234000D01*
X60957330Y-59234000D01*
X60857409Y-59377915D01*
X55976000Y-59377915D01*
X55976000Y-59186000D01*
X55996000Y-59186000D01*
X55996000Y-58550865D01*
X56404000Y-58550865D01*
X56404000Y-59186000D01*
X57392670Y-59186000D01*
X57492591Y-59042085D01*
X57406683Y-58802289D01*
X57299584Y-58682085D01*
X60857409Y-58682085D01*
X60957330Y-58826000D01*
X61946000Y-58826000D01*
X61946000Y-58190865D01*
X62354000Y-58190865D01*
X62354000Y-58826000D01*
X62374000Y-58826000D01*
X62374000Y-59234000D01*
X62354000Y-59234000D01*
X62354000Y-59869135D01*
X62509505Y-60027248D01*
X62704837Y-60015986D01*
X62894218Y-59966833D01*
X63070371Y-59881678D01*
X63226526Y-59763794D01*
X63356683Y-59617711D01*
X63442591Y-59377915D01*
X63342671Y-59234002D01*
X63508000Y-59234002D01*
X63508000Y-59162861D01*
X63521817Y-59160226D01*
X63524488Y-59159419D01*
X63524494Y-59159417D01*
X63585082Y-59140662D01*
X63601762Y-59133651D01*
X63618605Y-59126846D01*
X63621070Y-59125535D01*
X63676865Y-59095366D01*
X63691875Y-59085241D01*
X63707060Y-59075304D01*
X63709224Y-59073539D01*
X63758096Y-59033108D01*
X63770861Y-59020253D01*
X63783820Y-59007563D01*
X63785599Y-59005412D01*
X63825688Y-58956258D01*
X63835706Y-58941180D01*
X63845961Y-58926203D01*
X63847288Y-58923747D01*
X63877067Y-58867742D01*
X63883963Y-58851011D01*
X63891116Y-58834322D01*
X63891941Y-58831654D01*
X63910274Y-58770932D01*
X63913786Y-58753196D01*
X63917564Y-58735421D01*
X63917855Y-58732644D01*
X63924045Y-58669518D01*
X63924045Y-58669512D01*
X63925000Y-58659817D01*
X63925000Y-58340183D01*
X63924014Y-58330173D01*
X63924014Y-58325946D01*
X63923722Y-58323169D01*
X63916652Y-58260136D01*
X63912889Y-58242434D01*
X63909362Y-58224622D01*
X63908536Y-58221955D01*
X63889357Y-58161495D01*
X63882236Y-58144879D01*
X63875309Y-58128074D01*
X63873980Y-58125619D01*
X63873980Y-58125618D01*
X63873977Y-58125614D01*
X63843423Y-58070035D01*
X63833197Y-58055100D01*
X63823152Y-58039981D01*
X63821372Y-58037830D01*
X63821371Y-58037828D01*
X63821367Y-58037824D01*
X63780601Y-57989240D01*
X63767678Y-57976585D01*
X63754874Y-57963691D01*
X63752710Y-57961927D01*
X63703277Y-57922183D01*
X63688140Y-57912278D01*
X63673084Y-57902122D01*
X63670618Y-57900812D01*
X63670615Y-57900810D01*
X63670611Y-57900809D01*
X63614408Y-57871425D01*
X63597650Y-57864654D01*
X63580887Y-57857608D01*
X63578214Y-57856802D01*
X63517366Y-57838894D01*
X63499607Y-57835506D01*
X63481805Y-57831852D01*
X63479026Y-57831580D01*
X63415858Y-57825831D01*
X63397764Y-57825958D01*
X63379604Y-57825831D01*
X63376825Y-57826104D01*
X63313745Y-57832734D01*
X63296030Y-57836370D01*
X63278183Y-57839774D01*
X63275512Y-57840581D01*
X63275506Y-57840583D01*
X63214917Y-57859338D01*
X63198224Y-57866355D01*
X63181395Y-57873154D01*
X63178930Y-57874465D01*
X63123135Y-57904634D01*
X63108127Y-57914757D01*
X63092939Y-57924696D01*
X63090776Y-57926461D01*
X63041904Y-57966892D01*
X63029139Y-57979747D01*
X63016180Y-57992437D01*
X63014401Y-57994588D01*
X62974312Y-58043742D01*
X62964294Y-58058820D01*
X62954039Y-58073797D01*
X62952712Y-58076253D01*
X62933597Y-58112203D01*
X62894218Y-58093167D01*
X62704837Y-58044014D01*
X62509505Y-58032752D01*
X62354000Y-58190865D01*
X61946000Y-58190865D01*
X61790495Y-58032752D01*
X61595163Y-58044014D01*
X61405782Y-58093167D01*
X61229629Y-58178322D01*
X61073474Y-58296206D01*
X60943317Y-58442289D01*
X60857409Y-58682085D01*
X57299584Y-58682085D01*
X57276526Y-58656206D01*
X57120371Y-58538322D01*
X56944218Y-58453167D01*
X56754837Y-58404014D01*
X56559505Y-58392752D01*
X56404000Y-58550865D01*
X55996000Y-58550865D01*
X55840495Y-58392752D01*
X55645163Y-58404014D01*
X55455782Y-58453167D01*
X55279629Y-58538322D01*
X55200000Y-58598435D01*
X55200000Y-51201565D01*
X55279629Y-51261678D01*
X55455782Y-51346833D01*
X55645163Y-51395986D01*
X55840495Y-51407248D01*
X55996000Y-51249135D01*
X55996000Y-50614000D01*
X56404000Y-50614000D01*
X56404000Y-51249135D01*
X56559505Y-51407248D01*
X56754837Y-51395986D01*
X56944218Y-51346833D01*
X57120371Y-51261678D01*
X57276526Y-51143794D01*
X57406683Y-50997711D01*
X57492591Y-50757915D01*
X57392670Y-50614000D01*
X56404000Y-50614000D01*
X55996000Y-50614000D01*
X55976000Y-50614000D01*
X55976000Y-50206000D01*
X55996000Y-50206000D01*
X55996000Y-49570865D01*
X56404000Y-49570865D01*
X56404000Y-50206000D01*
X57392670Y-50206000D01*
X57492591Y-50062085D01*
X57406683Y-49822289D01*
X57276526Y-49676206D01*
X57120371Y-49558322D01*
X56944218Y-49473167D01*
X56754837Y-49424014D01*
X56559505Y-49412752D01*
X56404000Y-49570865D01*
X55996000Y-49570865D01*
X55840495Y-49412752D01*
X55645163Y-49424014D01*
X55455782Y-49473167D01*
X55279629Y-49558322D01*
X55200000Y-49618435D01*
X55200000Y-49063066D01*
X58025000Y-49063066D01*
X58025000Y-49136934D01*
X58039411Y-49209383D01*
X58067680Y-49277629D01*
X58108719Y-49339048D01*
X58160952Y-49391281D01*
X58222371Y-49432320D01*
X58290617Y-49460589D01*
X58363066Y-49475000D01*
X58436934Y-49475000D01*
X58509383Y-49460589D01*
X58577629Y-49432320D01*
X58611033Y-49410000D01*
X58978240Y-49410000D01*
X58946252Y-49419703D01*
X58898478Y-49445239D01*
X58856604Y-49479604D01*
X58847991Y-49490099D01*
X58490094Y-49847996D01*
X58479605Y-49856604D01*
X58445240Y-49898478D01*
X58419829Y-49946019D01*
X58419704Y-49946252D01*
X58403979Y-49998090D01*
X58398669Y-50051999D01*
X58400000Y-50065511D01*
X58399999Y-50734498D01*
X58398669Y-50748001D01*
X58402960Y-50791559D01*
X58403979Y-50801909D01*
X58419703Y-50853747D01*
X58445239Y-50901522D01*
X58479604Y-50943396D01*
X58490099Y-50952009D01*
X65625001Y-58086912D01*
X65625000Y-60144671D01*
X65608719Y-60160952D01*
X65567680Y-60222371D01*
X65539411Y-60290617D01*
X65525000Y-60363066D01*
X65525000Y-60436934D01*
X65539411Y-60509383D01*
X65567680Y-60577629D01*
X65608719Y-60639048D01*
X65660952Y-60691281D01*
X65722371Y-60732320D01*
X65790617Y-60760589D01*
X65863066Y-60775000D01*
X65936934Y-60775000D01*
X66009383Y-60760589D01*
X66077629Y-60732320D01*
X66139048Y-60691281D01*
X66191281Y-60639048D01*
X66232320Y-60577629D01*
X66260589Y-60509383D01*
X66275000Y-60436934D01*
X66275000Y-60363066D01*
X66260589Y-60290617D01*
X66232320Y-60222371D01*
X66191281Y-60160952D01*
X66175000Y-60144671D01*
X66175000Y-57986496D01*
X66176329Y-57973001D01*
X66175000Y-57959506D01*
X66175000Y-57959499D01*
X66171020Y-57919093D01*
X66170877Y-57918619D01*
X66162826Y-57892079D01*
X66155296Y-57867255D01*
X66129760Y-57819481D01*
X66095395Y-57777607D01*
X66084906Y-57768999D01*
X58949999Y-50634093D01*
X58949999Y-50363066D01*
X59025000Y-50363066D01*
X59025000Y-50436934D01*
X59039411Y-50509383D01*
X59067680Y-50577629D01*
X59108719Y-50639048D01*
X59160952Y-50691281D01*
X59222371Y-50732320D01*
X59290617Y-50760589D01*
X59363066Y-50775000D01*
X59386092Y-50775000D01*
X63995997Y-55384906D01*
X64004605Y-55395395D01*
X64046479Y-55429760D01*
X64094253Y-55455296D01*
X64130366Y-55466250D01*
X64146090Y-55471020D01*
X64199999Y-55476330D01*
X64213502Y-55475000D01*
X64944671Y-55475000D01*
X64960952Y-55491281D01*
X65022371Y-55532320D01*
X65090617Y-55560589D01*
X65163066Y-55575000D01*
X65236934Y-55575000D01*
X65309383Y-55560589D01*
X65377629Y-55532320D01*
X65439048Y-55491281D01*
X65491281Y-55439048D01*
X65532320Y-55377629D01*
X65560589Y-55309383D01*
X65575000Y-55236934D01*
X65575000Y-55163066D01*
X65560589Y-55090617D01*
X65532320Y-55022371D01*
X65491281Y-54960952D01*
X65439048Y-54908719D01*
X65377629Y-54867680D01*
X65309383Y-54839411D01*
X65236934Y-54825000D01*
X65163066Y-54825000D01*
X65090617Y-54839411D01*
X65022371Y-54867680D01*
X64960952Y-54908719D01*
X64944671Y-54925000D01*
X64313909Y-54925000D01*
X59775000Y-50386092D01*
X59775000Y-50363066D01*
X59760589Y-50290617D01*
X59732320Y-50222371D01*
X59691281Y-50160952D01*
X59639048Y-50108719D01*
X59577629Y-50067680D01*
X59509383Y-50039411D01*
X59436934Y-50025000D01*
X59363066Y-50025000D01*
X59290617Y-50039411D01*
X59222371Y-50067680D01*
X59160952Y-50108719D01*
X59108719Y-50160952D01*
X59067680Y-50222371D01*
X59039411Y-50290617D01*
X59025000Y-50363066D01*
X58949999Y-50363066D01*
X58949999Y-50165907D01*
X59165907Y-49949999D01*
X59634093Y-49949999D01*
X59849186Y-50165092D01*
X59848671Y-50170319D01*
X59853981Y-50224228D01*
X59855822Y-50230297D01*
X59869705Y-50276065D01*
X59895241Y-50323840D01*
X59929606Y-50365714D01*
X59940101Y-50374327D01*
X61700680Y-52134907D01*
X61709288Y-52145396D01*
X61751162Y-52179761D01*
X61798936Y-52205297D01*
X61835049Y-52216251D01*
X61850773Y-52221021D01*
X61855837Y-52221520D01*
X61891180Y-52225001D01*
X61891187Y-52225001D01*
X61904682Y-52226330D01*
X61918177Y-52225001D01*
X63698498Y-52225001D01*
X63712001Y-52226331D01*
X63765910Y-52221021D01*
X63817748Y-52205297D01*
X63865522Y-52179761D01*
X63907396Y-52145396D01*
X63916009Y-52134901D01*
X64234906Y-51816005D01*
X64245396Y-51807396D01*
X64279761Y-51765522D01*
X64305297Y-51717748D01*
X64317078Y-51678908D01*
X64321021Y-51665911D01*
X64326331Y-51612002D01*
X64325001Y-51598499D01*
X64325001Y-50913513D01*
X64328980Y-50953909D01*
X64344705Y-51005747D01*
X64370241Y-51053521D01*
X64404606Y-51095395D01*
X64415095Y-51104003D01*
X64845996Y-51534905D01*
X64854605Y-51545395D01*
X64896479Y-51579760D01*
X64944253Y-51605296D01*
X64980366Y-51616250D01*
X64996090Y-51621020D01*
X65049999Y-51626330D01*
X65063502Y-51625000D01*
X65744671Y-51625000D01*
X65760952Y-51641281D01*
X65822371Y-51682320D01*
X65890617Y-51710589D01*
X65963066Y-51725000D01*
X66036934Y-51725000D01*
X66109383Y-51710589D01*
X66177629Y-51682320D01*
X66239048Y-51641281D01*
X66291281Y-51589048D01*
X66332320Y-51527629D01*
X66360589Y-51459383D01*
X66375000Y-51386934D01*
X66375000Y-51313066D01*
X66360589Y-51240617D01*
X66332320Y-51172371D01*
X66291281Y-51110952D01*
X66239048Y-51058719D01*
X66177629Y-51017680D01*
X66109383Y-50989411D01*
X66036934Y-50975000D01*
X65963066Y-50975000D01*
X65890617Y-50989411D01*
X65822371Y-51017680D01*
X65760952Y-51058719D01*
X65744671Y-51075000D01*
X65163909Y-51075000D01*
X64875000Y-50786092D01*
X64875000Y-48313494D01*
X64876329Y-48299999D01*
X64875000Y-48286504D01*
X64875000Y-48286497D01*
X64871020Y-48246091D01*
X64855296Y-48194253D01*
X64829760Y-48146479D01*
X64795395Y-48104605D01*
X64784905Y-48095996D01*
X64254008Y-47565100D01*
X64245395Y-47554605D01*
X64203521Y-47520240D01*
X64155747Y-47494704D01*
X64103909Y-47478980D01*
X64063503Y-47475000D01*
X64050000Y-47473670D01*
X64036497Y-47475000D01*
X63655329Y-47475000D01*
X63639048Y-47458719D01*
X63577629Y-47417680D01*
X63509383Y-47389411D01*
X63436934Y-47375000D01*
X63363066Y-47375000D01*
X63290617Y-47389411D01*
X63222371Y-47417680D01*
X63160952Y-47458719D01*
X63108719Y-47510952D01*
X63067680Y-47572371D01*
X63039411Y-47640617D01*
X63025000Y-47713066D01*
X63025000Y-47786934D01*
X63039411Y-47859383D01*
X63067680Y-47927629D01*
X63108719Y-47989048D01*
X63160952Y-48041281D01*
X63222371Y-48082320D01*
X63290617Y-48110589D01*
X63363066Y-48125000D01*
X63436934Y-48125000D01*
X63509383Y-48110589D01*
X63577629Y-48082320D01*
X63639048Y-48041281D01*
X63655329Y-48025000D01*
X63936092Y-48025000D01*
X64325000Y-48413909D01*
X64325000Y-48663502D01*
X64325001Y-48663512D01*
X64325000Y-49961491D01*
X64321021Y-49921091D01*
X64305297Y-49869253D01*
X64290345Y-49841281D01*
X64279761Y-49821480D01*
X64245396Y-49779606D01*
X64234906Y-49770997D01*
X63800000Y-49336092D01*
X63800000Y-49313066D01*
X63785589Y-49240617D01*
X63757320Y-49172371D01*
X63716281Y-49110952D01*
X63664048Y-49058719D01*
X63602629Y-49017680D01*
X63534383Y-48989411D01*
X63461934Y-48975000D01*
X63388066Y-48975000D01*
X63315617Y-48989411D01*
X63247371Y-49017680D01*
X63185952Y-49058719D01*
X63133719Y-49110952D01*
X63092680Y-49172371D01*
X63064411Y-49240617D01*
X63050000Y-49313066D01*
X63050000Y-49386934D01*
X63064411Y-49459383D01*
X63092680Y-49527629D01*
X63133719Y-49589048D01*
X63185952Y-49641281D01*
X63247371Y-49682320D01*
X63315617Y-49710589D01*
X63388066Y-49725000D01*
X63411092Y-49725000D01*
X63775001Y-50088910D01*
X63775002Y-51006253D01*
X63768956Y-50997205D01*
X63702795Y-50931044D01*
X63624997Y-50879061D01*
X63538552Y-50843254D01*
X63446783Y-50825000D01*
X63353217Y-50825000D01*
X63261448Y-50843254D01*
X63175003Y-50879061D01*
X63097205Y-50931044D01*
X63054249Y-50974000D01*
X62354000Y-50974000D01*
X62354000Y-50994000D01*
X61946000Y-50994000D01*
X61946000Y-50974000D01*
X61926000Y-50974000D01*
X61926000Y-50566000D01*
X61946000Y-50566000D01*
X61946000Y-49930865D01*
X62354000Y-49930865D01*
X62354000Y-50566000D01*
X63342670Y-50566000D01*
X63442591Y-50422085D01*
X63356683Y-50182289D01*
X63226526Y-50036206D01*
X63070371Y-49918322D01*
X62894218Y-49833167D01*
X62704837Y-49784014D01*
X62509505Y-49772752D01*
X62354000Y-49930865D01*
X61946000Y-49930865D01*
X61790495Y-49772752D01*
X61737364Y-49775815D01*
X61789048Y-49741281D01*
X61841281Y-49689048D01*
X61882320Y-49627629D01*
X61910589Y-49559383D01*
X61925000Y-49486934D01*
X61925000Y-49413066D01*
X61910589Y-49340617D01*
X61882320Y-49272371D01*
X61841281Y-49210952D01*
X61789048Y-49158719D01*
X61727629Y-49117680D01*
X61659383Y-49089411D01*
X61619979Y-49081573D01*
X61429970Y-48891565D01*
X61420263Y-48879737D01*
X61373060Y-48840998D01*
X61319206Y-48812212D01*
X61260770Y-48794486D01*
X61215220Y-48790000D01*
X61215210Y-48790000D01*
X61200000Y-48788502D01*
X61184790Y-48790000D01*
X58611033Y-48790000D01*
X58577629Y-48767680D01*
X58509383Y-48739411D01*
X58436934Y-48725000D01*
X58363066Y-48725000D01*
X58290617Y-48739411D01*
X58222371Y-48767680D01*
X58160952Y-48808719D01*
X58108719Y-48860952D01*
X58067680Y-48922371D01*
X58039411Y-48990617D01*
X58025000Y-49063066D01*
X55200000Y-49063066D01*
X55200000Y-40351999D01*
X58498669Y-40351999D01*
X58500000Y-40365511D01*
X58499999Y-41034498D01*
X58498669Y-41048001D01*
X58499999Y-41061503D01*
X58503979Y-41101909D01*
X58519703Y-41153747D01*
X58545239Y-41201522D01*
X58579604Y-41243396D01*
X58590099Y-41252009D01*
X66400000Y-49061911D01*
X66399999Y-55961496D01*
X66398669Y-55974999D01*
X66399999Y-55988501D01*
X66403979Y-56028907D01*
X66419703Y-56080745D01*
X66445239Y-56128520D01*
X66479604Y-56170394D01*
X66490099Y-56179007D01*
X67625000Y-57313909D01*
X67625000Y-57336934D01*
X67639411Y-57409383D01*
X67667680Y-57477629D01*
X67708719Y-57539048D01*
X67760952Y-57591281D01*
X67822371Y-57632320D01*
X67890617Y-57660589D01*
X67963066Y-57675000D01*
X68036934Y-57675000D01*
X68109383Y-57660589D01*
X68177629Y-57632320D01*
X68239048Y-57591281D01*
X68291281Y-57539048D01*
X68332320Y-57477629D01*
X68360589Y-57409383D01*
X68375000Y-57336934D01*
X68375000Y-57263066D01*
X68360589Y-57190617D01*
X68332320Y-57122371D01*
X68291281Y-57060952D01*
X68239048Y-57008719D01*
X68177629Y-56967680D01*
X68109383Y-56939411D01*
X68036934Y-56925000D01*
X68013909Y-56925000D01*
X66949999Y-55861091D01*
X66949999Y-48961503D01*
X66951329Y-48948000D01*
X66946019Y-48894091D01*
X66941249Y-48878367D01*
X66930295Y-48842254D01*
X66904759Y-48794480D01*
X66870394Y-48752606D01*
X66859905Y-48743998D01*
X59049999Y-40934093D01*
X59049999Y-40465907D01*
X59440907Y-40075000D01*
X61544671Y-40075000D01*
X61560952Y-40091281D01*
X61622371Y-40132320D01*
X61690617Y-40160589D01*
X61763066Y-40175000D01*
X61836934Y-40175000D01*
X61909383Y-40160589D01*
X61977629Y-40132320D01*
X62039048Y-40091281D01*
X62091281Y-40039048D01*
X62132320Y-39977629D01*
X62160589Y-39909383D01*
X62175000Y-39836934D01*
X62175000Y-39813908D01*
X64713909Y-37275000D01*
X70492203Y-37275000D01*
X70553368Y-37366541D01*
X70633459Y-37446632D01*
X70713330Y-37500000D01*
X70633459Y-37553368D01*
X70553368Y-37633459D01*
X70490442Y-37727635D01*
X70447097Y-37832279D01*
X70425000Y-37943367D01*
X70425000Y-38056633D01*
X70446479Y-38164612D01*
X68186092Y-40425000D01*
X67413503Y-40425000D01*
X67400000Y-40423670D01*
X67386498Y-40425000D01*
X59755329Y-40425000D01*
X59739048Y-40408719D01*
X59677629Y-40367680D01*
X59609383Y-40339411D01*
X59536934Y-40325000D01*
X59463066Y-40325000D01*
X59390617Y-40339411D01*
X59322371Y-40367680D01*
X59260952Y-40408719D01*
X59208719Y-40460952D01*
X59167680Y-40522371D01*
X59139411Y-40590617D01*
X59125000Y-40663066D01*
X59125000Y-40736934D01*
X59139411Y-40809383D01*
X59167680Y-40877629D01*
X59208719Y-40939048D01*
X59260952Y-40991281D01*
X59322371Y-41032320D01*
X59390617Y-41060589D01*
X59463066Y-41075000D01*
X59536934Y-41075000D01*
X59609383Y-41060589D01*
X59677629Y-41032320D01*
X59739048Y-40991281D01*
X59755329Y-40975000D01*
X67125001Y-40975000D01*
X67125000Y-52744671D01*
X67108719Y-52760952D01*
X67067680Y-52822371D01*
X67039411Y-52890617D01*
X67025000Y-52963066D01*
X67025000Y-53036934D01*
X67039411Y-53109383D01*
X67067680Y-53177629D01*
X67108719Y-53239048D01*
X67160952Y-53291281D01*
X67222371Y-53332320D01*
X67290617Y-53360589D01*
X67363066Y-53375000D01*
X67436934Y-53375000D01*
X67509383Y-53360589D01*
X67577629Y-53332320D01*
X67639048Y-53291281D01*
X67691281Y-53239048D01*
X67732320Y-53177629D01*
X67760589Y-53109383D01*
X67775000Y-53036934D01*
X67775000Y-52963066D01*
X67760589Y-52890617D01*
X67732320Y-52822371D01*
X67691281Y-52760952D01*
X67675000Y-52744671D01*
X67675000Y-41863066D01*
X67975000Y-41863066D01*
X67975000Y-41936934D01*
X67989411Y-42009383D01*
X68017680Y-42077629D01*
X68058719Y-42139048D01*
X68110952Y-42191281D01*
X68172371Y-42232320D01*
X68240617Y-42260589D01*
X68313066Y-42275000D01*
X68336092Y-42275000D01*
X75225001Y-49163910D01*
X75225000Y-50944671D01*
X75208719Y-50960952D01*
X75167680Y-51022371D01*
X75139411Y-51090617D01*
X75125000Y-51163066D01*
X75125000Y-51236934D01*
X75139411Y-51309383D01*
X75167680Y-51377629D01*
X75208719Y-51439048D01*
X75260952Y-51491281D01*
X75322371Y-51532320D01*
X75390617Y-51560589D01*
X75463066Y-51575000D01*
X75536934Y-51575000D01*
X75609383Y-51560589D01*
X75677629Y-51532320D01*
X75739048Y-51491281D01*
X75791281Y-51439048D01*
X75832320Y-51377629D01*
X75860589Y-51309383D01*
X75875000Y-51236934D01*
X75875000Y-51163066D01*
X75860589Y-51090617D01*
X75832320Y-51022371D01*
X75791281Y-50960952D01*
X75775000Y-50944671D01*
X75775000Y-49063503D01*
X75776330Y-49050000D01*
X75771020Y-48996090D01*
X75762879Y-48969252D01*
X75755296Y-48944253D01*
X75729760Y-48896479D01*
X75695395Y-48854605D01*
X75684906Y-48845997D01*
X68725000Y-41886092D01*
X68725000Y-41863066D01*
X68710589Y-41790617D01*
X68682320Y-41722371D01*
X68641281Y-41660952D01*
X68589048Y-41608719D01*
X68527629Y-41567680D01*
X68459383Y-41539411D01*
X68386934Y-41525000D01*
X68313066Y-41525000D01*
X68240617Y-41539411D01*
X68172371Y-41567680D01*
X68110952Y-41608719D01*
X68058719Y-41660952D01*
X68017680Y-41722371D01*
X67989411Y-41790617D01*
X67975000Y-41863066D01*
X67675000Y-41863066D01*
X67675000Y-40975000D01*
X68286497Y-40975000D01*
X68300000Y-40976330D01*
X68353909Y-40971020D01*
X68357156Y-40970035D01*
X68405747Y-40955296D01*
X68453521Y-40929760D01*
X68495395Y-40895395D01*
X68504008Y-40884900D01*
X70835388Y-38553521D01*
X70943367Y-38575000D01*
X71056633Y-38575000D01*
X71167721Y-38552903D01*
X71272365Y-38509558D01*
X71366541Y-38446632D01*
X71446632Y-38366541D01*
X71500000Y-38286670D01*
X71553368Y-38366541D01*
X71633459Y-38446632D01*
X71727635Y-38509558D01*
X71832279Y-38552903D01*
X71943367Y-38575000D01*
X72056633Y-38575000D01*
X72167721Y-38552903D01*
X72272365Y-38509558D01*
X72366541Y-38446632D01*
X72446632Y-38366541D01*
X72509558Y-38272365D01*
X72552903Y-38167721D01*
X72575000Y-38056633D01*
X72575000Y-37943367D01*
X72552903Y-37832279D01*
X72545695Y-37814878D01*
X72676379Y-37713318D01*
X72802544Y-37567657D01*
X72897868Y-37400181D01*
X72917847Y-37351916D01*
X72818460Y-37204000D01*
X72204000Y-37204000D01*
X72204000Y-37224000D01*
X71796000Y-37224000D01*
X71796000Y-37204000D01*
X71776000Y-37204000D01*
X71776000Y-36796000D01*
X71796000Y-36796000D01*
X71796000Y-36776000D01*
X72204000Y-36776000D01*
X72204000Y-36796000D01*
X72818460Y-36796000D01*
X72917847Y-36648084D01*
X72897868Y-36599819D01*
X72802544Y-36432343D01*
X72696576Y-36310000D01*
X72821595Y-36310000D01*
X74801593Y-38290000D01*
X72715210Y-38290000D01*
X72699999Y-38288502D01*
X72684789Y-38290000D01*
X72684780Y-38290000D01*
X72639230Y-38294486D01*
X72580794Y-38312212D01*
X72526940Y-38340998D01*
X72526938Y-38340999D01*
X72526939Y-38340999D01*
X72491558Y-38370035D01*
X72491554Y-38370039D01*
X72479737Y-38379737D01*
X72470038Y-38391555D01*
X70630022Y-40231573D01*
X70590617Y-40239411D01*
X70522371Y-40267680D01*
X70460952Y-40308719D01*
X70408719Y-40360952D01*
X70367680Y-40422371D01*
X70339411Y-40490617D01*
X70325000Y-40563066D01*
X70325000Y-40636934D01*
X70339411Y-40709383D01*
X70367680Y-40777629D01*
X70390000Y-40811034D01*
X70390001Y-41150465D01*
X70388502Y-41165685D01*
X70394487Y-41226455D01*
X70412212Y-41284890D01*
X70412213Y-41284891D01*
X70440999Y-41338745D01*
X70479738Y-41385948D01*
X70491561Y-41395651D01*
X76390000Y-47294092D01*
X76390001Y-55084780D01*
X76388502Y-55100000D01*
X76394487Y-55160770D01*
X76412212Y-55219205D01*
X76412213Y-55219206D01*
X76440999Y-55273060D01*
X76479738Y-55320263D01*
X76491561Y-55329966D01*
X80020038Y-58858445D01*
X80029737Y-58870263D01*
X80041554Y-58879961D01*
X80041558Y-58879965D01*
X80064169Y-58898521D01*
X80076940Y-58909002D01*
X80130794Y-58937788D01*
X80189230Y-58955514D01*
X80234780Y-58960000D01*
X80234789Y-58960000D01*
X80249999Y-58961498D01*
X80265210Y-58960000D01*
X81838967Y-58960000D01*
X81872371Y-58982320D01*
X81940617Y-59010589D01*
X82013066Y-59025000D01*
X82086934Y-59025000D01*
X82159383Y-59010589D01*
X82227629Y-58982320D01*
X82289048Y-58941281D01*
X82341281Y-58889048D01*
X82382320Y-58827629D01*
X82410589Y-58759383D01*
X82425000Y-58686934D01*
X82425000Y-58613066D01*
X82410589Y-58540617D01*
X82382320Y-58472371D01*
X82341281Y-58410952D01*
X82289048Y-58358719D01*
X82227629Y-58317680D01*
X82159383Y-58289411D01*
X82086934Y-58275000D01*
X82013066Y-58275000D01*
X81940617Y-58289411D01*
X81872371Y-58317680D01*
X81838967Y-58340000D01*
X80378407Y-58340000D01*
X77010000Y-54971595D01*
X77010000Y-53863066D01*
X85475000Y-53863066D01*
X85475000Y-53936934D01*
X85489411Y-54009383D01*
X85517680Y-54077629D01*
X85558719Y-54139048D01*
X85610952Y-54191281D01*
X85672371Y-54232320D01*
X85740617Y-54260589D01*
X85813066Y-54275000D01*
X85886934Y-54275000D01*
X85959383Y-54260589D01*
X86027629Y-54232320D01*
X86089048Y-54191281D01*
X86141281Y-54139048D01*
X86182320Y-54077629D01*
X86210589Y-54009383D01*
X86225000Y-53936934D01*
X86225000Y-53863066D01*
X86210589Y-53790617D01*
X86182320Y-53722371D01*
X86141281Y-53660952D01*
X86089048Y-53608719D01*
X86027629Y-53567680D01*
X85959383Y-53539411D01*
X85886934Y-53525000D01*
X85813066Y-53525000D01*
X85740617Y-53539411D01*
X85672371Y-53567680D01*
X85610952Y-53608719D01*
X85558719Y-53660952D01*
X85517680Y-53722371D01*
X85489411Y-53790617D01*
X85475000Y-53863066D01*
X77010000Y-53863066D01*
X77010000Y-51363066D01*
X84625000Y-51363066D01*
X84625000Y-51436934D01*
X84639411Y-51509383D01*
X84667680Y-51577629D01*
X84708719Y-51639048D01*
X84760952Y-51691281D01*
X84822371Y-51732320D01*
X84890617Y-51760589D01*
X84963066Y-51775000D01*
X84986091Y-51775000D01*
X85040092Y-51829001D01*
X85040098Y-51829006D01*
X93054898Y-59843807D01*
X93063506Y-59854296D01*
X93105380Y-59888661D01*
X93153154Y-59914197D01*
X93189267Y-59925151D01*
X93204991Y-59929921D01*
X93258900Y-59935231D01*
X93272403Y-59933901D01*
X110487596Y-59933901D01*
X110501099Y-59935231D01*
X110555008Y-59929921D01*
X110606846Y-59914197D01*
X110654620Y-59888661D01*
X110696494Y-59854296D01*
X110705107Y-59843801D01*
X110912487Y-59636421D01*
X113352079Y-59636421D01*
X113437048Y-59852013D01*
X113689756Y-59953773D01*
X113957461Y-60004277D01*
X114229875Y-60001586D01*
X114496529Y-59945799D01*
X114722952Y-59852013D01*
X114807921Y-59636421D01*
X114080000Y-58908500D01*
X113352079Y-59636421D01*
X110912487Y-59636421D01*
X111070197Y-59478711D01*
X111078164Y-59484034D01*
X111255603Y-59557532D01*
X111443971Y-59595000D01*
X111636029Y-59595000D01*
X111824397Y-59557532D01*
X112001836Y-59484034D01*
X112161527Y-59377332D01*
X112297332Y-59241527D01*
X112404034Y-59081836D01*
X112477532Y-58904397D01*
X112515000Y-58716029D01*
X112515000Y-58523971D01*
X112509727Y-58497461D01*
X112695723Y-58497461D01*
X112698414Y-58769875D01*
X112754201Y-59036529D01*
X112847987Y-59262952D01*
X113063579Y-59347921D01*
X113791500Y-58620000D01*
X114368500Y-58620000D01*
X115096421Y-59347921D01*
X115312013Y-59262952D01*
X115413773Y-59010244D01*
X115464277Y-58742539D01*
X115461586Y-58470125D01*
X115405799Y-58203471D01*
X115312013Y-57977048D01*
X115096421Y-57892079D01*
X114368500Y-58620000D01*
X113791500Y-58620000D01*
X113063579Y-57892079D01*
X112847987Y-57977048D01*
X112746227Y-58229756D01*
X112695723Y-58497461D01*
X112509727Y-58497461D01*
X112477532Y-58335603D01*
X112404034Y-58158164D01*
X112297332Y-57998473D01*
X112161527Y-57862668D01*
X112001836Y-57755966D01*
X111824397Y-57682468D01*
X111636029Y-57645000D01*
X111443971Y-57645000D01*
X111255603Y-57682468D01*
X111078164Y-57755966D01*
X110918473Y-57862668D01*
X110782668Y-57998473D01*
X110675966Y-58158164D01*
X110602468Y-58335603D01*
X110565000Y-58523971D01*
X110565000Y-58716029D01*
X110602468Y-58904397D01*
X110675966Y-59081836D01*
X110681289Y-59089803D01*
X110387191Y-59383901D01*
X109611696Y-59383901D01*
X109621527Y-59377332D01*
X109757332Y-59241527D01*
X109864034Y-59081836D01*
X109937532Y-58904397D01*
X109975000Y-58716029D01*
X109975000Y-58523971D01*
X109937532Y-58335603D01*
X109864034Y-58158164D01*
X109757332Y-57998473D01*
X109621527Y-57862668D01*
X109461836Y-57755966D01*
X109284397Y-57682468D01*
X109096029Y-57645000D01*
X108903971Y-57645000D01*
X108715603Y-57682468D01*
X108538164Y-57755966D01*
X108378473Y-57862668D01*
X108242668Y-57998473D01*
X108135966Y-58158164D01*
X108062468Y-58335603D01*
X108025000Y-58523971D01*
X108025000Y-58716029D01*
X108062468Y-58904397D01*
X108135966Y-59081836D01*
X108242668Y-59241527D01*
X108378473Y-59377332D01*
X108388304Y-59383901D01*
X93372810Y-59383901D01*
X85429006Y-51440098D01*
X85429001Y-51440092D01*
X85375000Y-51386091D01*
X85375000Y-51363066D01*
X85360589Y-51290617D01*
X85332320Y-51222371D01*
X85291281Y-51160952D01*
X85239048Y-51108719D01*
X85177629Y-51067680D01*
X85109383Y-51039411D01*
X85036934Y-51025000D01*
X84963066Y-51025000D01*
X84890617Y-51039411D01*
X84822371Y-51067680D01*
X84760952Y-51108719D01*
X84708719Y-51160952D01*
X84667680Y-51222371D01*
X84639411Y-51290617D01*
X84625000Y-51363066D01*
X77010000Y-51363066D01*
X77010000Y-47180894D01*
X77011498Y-47165684D01*
X77010000Y-47150474D01*
X77010000Y-47150465D01*
X77005514Y-47104915D01*
X76987788Y-47046479D01*
X76959002Y-46992625D01*
X76938530Y-46967680D01*
X76929965Y-46957243D01*
X76929961Y-46957239D01*
X76920263Y-46945422D01*
X76908447Y-46935725D01*
X71010000Y-41037280D01*
X71010000Y-40811033D01*
X71032320Y-40777629D01*
X71060589Y-40709383D01*
X71068427Y-40669978D01*
X72828407Y-38910000D01*
X75534789Y-38910000D01*
X75549999Y-38911498D01*
X75565209Y-38910000D01*
X75649275Y-38910000D01*
X75649275Y-39100000D01*
X75652171Y-39129405D01*
X75660748Y-39157680D01*
X75674677Y-39183738D01*
X75693421Y-39206579D01*
X75716262Y-39225323D01*
X75742320Y-39239252D01*
X75770595Y-39247829D01*
X75800000Y-39250725D01*
X76244807Y-39250725D01*
X76262212Y-39308105D01*
X76290999Y-39361960D01*
X76320035Y-39397340D01*
X86681139Y-49758445D01*
X86690837Y-49770263D01*
X86702654Y-49779961D01*
X86702658Y-49779965D01*
X86722781Y-49796479D01*
X86738040Y-49809002D01*
X86791894Y-49837788D01*
X86850330Y-49855514D01*
X86895880Y-49860000D01*
X86895889Y-49860000D01*
X86911099Y-49861498D01*
X86926310Y-49860000D01*
X89788967Y-49860000D01*
X89822371Y-49882320D01*
X89890617Y-49910589D01*
X89930022Y-49918427D01*
X90170033Y-50158439D01*
X90179736Y-50170262D01*
X90191563Y-50179968D01*
X91220034Y-51208440D01*
X91229737Y-51220263D01*
X91254538Y-51240617D01*
X91276940Y-51259002D01*
X91330794Y-51287788D01*
X91389230Y-51305514D01*
X91450000Y-51311499D01*
X91465220Y-51310000D01*
X108024275Y-51310000D01*
X108024275Y-51763901D01*
X87931674Y-51763901D01*
X81532872Y-45365100D01*
X81524259Y-45354605D01*
X81482385Y-45320240D01*
X81434611Y-45294704D01*
X81382773Y-45278980D01*
X81342367Y-45275000D01*
X81328864Y-45273670D01*
X81315361Y-45275000D01*
X79455329Y-45275000D01*
X79439048Y-45258719D01*
X79377629Y-45217680D01*
X79309383Y-45189411D01*
X79236934Y-45175000D01*
X79163066Y-45175000D01*
X79090617Y-45189411D01*
X79022371Y-45217680D01*
X78960952Y-45258719D01*
X78908719Y-45310952D01*
X78867680Y-45372371D01*
X78839411Y-45440617D01*
X78825000Y-45513066D01*
X78825000Y-45586934D01*
X78839411Y-45659383D01*
X78867680Y-45727629D01*
X78908719Y-45789048D01*
X78960952Y-45841281D01*
X79022371Y-45882320D01*
X79090617Y-45910589D01*
X79163066Y-45925000D01*
X79236934Y-45925000D01*
X79309383Y-45910589D01*
X79377629Y-45882320D01*
X79439048Y-45841281D01*
X79455329Y-45825000D01*
X81214956Y-45825000D01*
X82414956Y-47025000D01*
X81605329Y-47025000D01*
X81589048Y-47008719D01*
X81527629Y-46967680D01*
X81459383Y-46939411D01*
X81386934Y-46925000D01*
X81313066Y-46925000D01*
X81240617Y-46939411D01*
X81172371Y-46967680D01*
X81110952Y-47008719D01*
X81058719Y-47060952D01*
X81017680Y-47122371D01*
X80989411Y-47190617D01*
X80975000Y-47263066D01*
X80975000Y-47336934D01*
X80989411Y-47409383D01*
X81017680Y-47477629D01*
X81058719Y-47539048D01*
X81110952Y-47591281D01*
X81172371Y-47632320D01*
X81240617Y-47660589D01*
X81313066Y-47675000D01*
X81386934Y-47675000D01*
X81459383Y-47660589D01*
X81527629Y-47632320D01*
X81589048Y-47591281D01*
X81605329Y-47575000D01*
X82485666Y-47575000D01*
X83398507Y-48487841D01*
X83390617Y-48489411D01*
X83322371Y-48517680D01*
X83260952Y-48558719D01*
X83208719Y-48610952D01*
X83167680Y-48672371D01*
X83139411Y-48740617D01*
X83125000Y-48813066D01*
X83125000Y-48886934D01*
X83139411Y-48959383D01*
X83167680Y-49027629D01*
X83208719Y-49089048D01*
X83260952Y-49141281D01*
X83322371Y-49182320D01*
X83390617Y-49210589D01*
X83463066Y-49225000D01*
X83486091Y-49225000D01*
X83540092Y-49279001D01*
X83540098Y-49279006D01*
X91564898Y-57303807D01*
X91573506Y-57314296D01*
X91615380Y-57348661D01*
X91663154Y-57374197D01*
X91699267Y-57385151D01*
X91714991Y-57389921D01*
X91768900Y-57395231D01*
X91782403Y-57393901D01*
X110487596Y-57393901D01*
X110501099Y-57395231D01*
X110555008Y-57389921D01*
X110606846Y-57374197D01*
X110654620Y-57348661D01*
X110696494Y-57314296D01*
X110705107Y-57303801D01*
X110912487Y-57096421D01*
X113352079Y-57096421D01*
X113437048Y-57312013D01*
X113530052Y-57349464D01*
X113437048Y-57387987D01*
X113352079Y-57603579D01*
X114080000Y-58331500D01*
X114807921Y-57603579D01*
X114722952Y-57387987D01*
X114629948Y-57350536D01*
X114722952Y-57312013D01*
X114807921Y-57096421D01*
X114080000Y-56368500D01*
X113352079Y-57096421D01*
X110912487Y-57096421D01*
X111070197Y-56938711D01*
X111078164Y-56944034D01*
X111255603Y-57017532D01*
X111443971Y-57055000D01*
X111636029Y-57055000D01*
X111824397Y-57017532D01*
X112001836Y-56944034D01*
X112161527Y-56837332D01*
X112297332Y-56701527D01*
X112404034Y-56541836D01*
X112477532Y-56364397D01*
X112515000Y-56176029D01*
X112515000Y-55983971D01*
X112509727Y-55957461D01*
X112695723Y-55957461D01*
X112698414Y-56229875D01*
X112754201Y-56496529D01*
X112847987Y-56722952D01*
X113063579Y-56807921D01*
X113791500Y-56080000D01*
X114368500Y-56080000D01*
X115096421Y-56807921D01*
X115312013Y-56722952D01*
X115413773Y-56470244D01*
X115464277Y-56202539D01*
X115461586Y-55930125D01*
X115405799Y-55663471D01*
X115312013Y-55437048D01*
X115096421Y-55352079D01*
X114368500Y-56080000D01*
X113791500Y-56080000D01*
X113063579Y-55352079D01*
X112847987Y-55437048D01*
X112746227Y-55689756D01*
X112695723Y-55957461D01*
X112509727Y-55957461D01*
X112477532Y-55795603D01*
X112404034Y-55618164D01*
X112297332Y-55458473D01*
X112161527Y-55322668D01*
X112001836Y-55215966D01*
X111824397Y-55142468D01*
X111636029Y-55105000D01*
X111443971Y-55105000D01*
X111255603Y-55142468D01*
X111078164Y-55215966D01*
X110918473Y-55322668D01*
X110782668Y-55458473D01*
X110675966Y-55618164D01*
X110602468Y-55795603D01*
X110565000Y-55983971D01*
X110565000Y-56176029D01*
X110602468Y-56364397D01*
X110675966Y-56541836D01*
X110681289Y-56549803D01*
X110387191Y-56843901D01*
X109611696Y-56843901D01*
X109621527Y-56837332D01*
X109757332Y-56701527D01*
X109864034Y-56541836D01*
X109937532Y-56364397D01*
X109975000Y-56176029D01*
X109975000Y-55983971D01*
X109937532Y-55795603D01*
X109864034Y-55618164D01*
X109757332Y-55458473D01*
X109621527Y-55322668D01*
X109461836Y-55215966D01*
X109284397Y-55142468D01*
X109096029Y-55105000D01*
X108903971Y-55105000D01*
X108715603Y-55142468D01*
X108538164Y-55215966D01*
X108378473Y-55322668D01*
X108242668Y-55458473D01*
X108135966Y-55618164D01*
X108062468Y-55795603D01*
X108025000Y-55983971D01*
X108025000Y-56176029D01*
X108062468Y-56364397D01*
X108135966Y-56541836D01*
X108242668Y-56701527D01*
X108378473Y-56837332D01*
X108388304Y-56843901D01*
X91882810Y-56843901D01*
X89892810Y-54853901D01*
X110487596Y-54853901D01*
X110501099Y-54855231D01*
X110555008Y-54849921D01*
X110606846Y-54834197D01*
X110654620Y-54808661D01*
X110696494Y-54774296D01*
X110705107Y-54763801D01*
X110912487Y-54556421D01*
X113352079Y-54556421D01*
X113437048Y-54772013D01*
X113530052Y-54809464D01*
X113437048Y-54847987D01*
X113352079Y-55063579D01*
X114080000Y-55791500D01*
X114807921Y-55063579D01*
X114722952Y-54847987D01*
X114629948Y-54810536D01*
X114722952Y-54772013D01*
X114807921Y-54556421D01*
X114080000Y-53828500D01*
X113352079Y-54556421D01*
X110912487Y-54556421D01*
X110919003Y-54549906D01*
X110919007Y-54549901D01*
X111070197Y-54398711D01*
X111078164Y-54404034D01*
X111255603Y-54477532D01*
X111443971Y-54515000D01*
X111636029Y-54515000D01*
X111824397Y-54477532D01*
X112001836Y-54404034D01*
X112161527Y-54297332D01*
X112297332Y-54161527D01*
X112404034Y-54001836D01*
X112477532Y-53824397D01*
X112515000Y-53636029D01*
X112515000Y-53443971D01*
X112509727Y-53417461D01*
X112695723Y-53417461D01*
X112698414Y-53689875D01*
X112754201Y-53956529D01*
X112847987Y-54182952D01*
X113063579Y-54267921D01*
X113791500Y-53540000D01*
X114368500Y-53540000D01*
X115096421Y-54267921D01*
X115312013Y-54182952D01*
X115413773Y-53930244D01*
X115464277Y-53662539D01*
X115461586Y-53390125D01*
X115405799Y-53123471D01*
X115312013Y-52897048D01*
X115096421Y-52812079D01*
X114368500Y-53540000D01*
X113791500Y-53540000D01*
X113063579Y-52812079D01*
X112847987Y-52897048D01*
X112746227Y-53149756D01*
X112695723Y-53417461D01*
X112509727Y-53417461D01*
X112477532Y-53255603D01*
X112404034Y-53078164D01*
X112297332Y-52918473D01*
X112161527Y-52782668D01*
X112001836Y-52675966D01*
X111824397Y-52602468D01*
X111636029Y-52565000D01*
X111443971Y-52565000D01*
X111255603Y-52602468D01*
X111078164Y-52675966D01*
X110918473Y-52782668D01*
X110782668Y-52918473D01*
X110675966Y-53078164D01*
X110602468Y-53255603D01*
X110565000Y-53443971D01*
X110565000Y-53636029D01*
X110602468Y-53824397D01*
X110675966Y-54001836D01*
X110681289Y-54009803D01*
X110530099Y-54160993D01*
X110530094Y-54160997D01*
X110387191Y-54303901D01*
X109611696Y-54303901D01*
X109621527Y-54297332D01*
X109757332Y-54161527D01*
X109864034Y-54001836D01*
X109937532Y-53824397D01*
X109975000Y-53636029D01*
X109975000Y-53443971D01*
X109937532Y-53255603D01*
X109864034Y-53078164D01*
X109757332Y-52918473D01*
X109621527Y-52782668D01*
X109461836Y-52675966D01*
X109284397Y-52602468D01*
X109096029Y-52565000D01*
X108903971Y-52565000D01*
X108715603Y-52602468D01*
X108538164Y-52675966D01*
X108378473Y-52782668D01*
X108242668Y-52918473D01*
X108135966Y-53078164D01*
X108062468Y-53255603D01*
X108025000Y-53443971D01*
X108025000Y-53636029D01*
X108062468Y-53824397D01*
X108135966Y-54001836D01*
X108242668Y-54161527D01*
X108378473Y-54297332D01*
X108388304Y-54303901D01*
X89992383Y-54303901D01*
X88002383Y-52313901D01*
X110487596Y-52313901D01*
X110501099Y-52315231D01*
X110555008Y-52309921D01*
X110606846Y-52294197D01*
X110654620Y-52268661D01*
X110696494Y-52234296D01*
X110705107Y-52223801D01*
X110912487Y-52016421D01*
X113352079Y-52016421D01*
X113437048Y-52232013D01*
X113530052Y-52269464D01*
X113437048Y-52307987D01*
X113352079Y-52523579D01*
X114080000Y-53251500D01*
X114807921Y-52523579D01*
X114722952Y-52307987D01*
X114629948Y-52270536D01*
X114722952Y-52232013D01*
X114807921Y-52016421D01*
X114080000Y-51288500D01*
X113352079Y-52016421D01*
X110912487Y-52016421D01*
X111070197Y-51858711D01*
X111078164Y-51864034D01*
X111255603Y-51937532D01*
X111443971Y-51975000D01*
X111636029Y-51975000D01*
X111824397Y-51937532D01*
X112001836Y-51864034D01*
X112161527Y-51757332D01*
X112297332Y-51621527D01*
X112404034Y-51461836D01*
X112477532Y-51284397D01*
X112515000Y-51096029D01*
X112515000Y-50903971D01*
X112509727Y-50877461D01*
X112695723Y-50877461D01*
X112698414Y-51149875D01*
X112754201Y-51416529D01*
X112847987Y-51642952D01*
X113063579Y-51727921D01*
X113791500Y-51000000D01*
X114368500Y-51000000D01*
X115096421Y-51727921D01*
X115312013Y-51642952D01*
X115413773Y-51390244D01*
X115464277Y-51122539D01*
X115461586Y-50850125D01*
X115405799Y-50583471D01*
X115312013Y-50357048D01*
X115096421Y-50272079D01*
X114368500Y-51000000D01*
X113791500Y-51000000D01*
X113063579Y-50272079D01*
X112847987Y-50357048D01*
X112746227Y-50609756D01*
X112695723Y-50877461D01*
X112509727Y-50877461D01*
X112477532Y-50715603D01*
X112404034Y-50538164D01*
X112297332Y-50378473D01*
X112161527Y-50242668D01*
X112001836Y-50135966D01*
X111824397Y-50062468D01*
X111636029Y-50025000D01*
X111443971Y-50025000D01*
X111255603Y-50062468D01*
X111078164Y-50135966D01*
X110918473Y-50242668D01*
X110782668Y-50378473D01*
X110675966Y-50538164D01*
X110602468Y-50715603D01*
X110565000Y-50903971D01*
X110565000Y-51096029D01*
X110602468Y-51284397D01*
X110675966Y-51461836D01*
X110681289Y-51469803D01*
X110387191Y-51763901D01*
X109975725Y-51763901D01*
X109975725Y-50175000D01*
X109972829Y-50145595D01*
X109964252Y-50117320D01*
X109950323Y-50091262D01*
X109931579Y-50068421D01*
X109908738Y-50049677D01*
X109882680Y-50035748D01*
X109854405Y-50027171D01*
X109825000Y-50024275D01*
X108175000Y-50024275D01*
X108145595Y-50027171D01*
X108117320Y-50035748D01*
X108091262Y-50049677D01*
X108068421Y-50068421D01*
X108049677Y-50091262D01*
X108035748Y-50117320D01*
X108027171Y-50145595D01*
X108024275Y-50175000D01*
X108024275Y-50690000D01*
X91578406Y-50690000D01*
X91148405Y-50259999D01*
X97238223Y-50259999D01*
X97283773Y-50255513D01*
X97342209Y-50237787D01*
X97396063Y-50209001D01*
X97443266Y-50170262D01*
X97482005Y-50123059D01*
X97510791Y-50069205D01*
X97518666Y-50043244D01*
X97578331Y-49983579D01*
X113352079Y-49983579D01*
X114080000Y-50711500D01*
X114807921Y-49983579D01*
X114722952Y-49767987D01*
X114470244Y-49666227D01*
X114202539Y-49615723D01*
X113930125Y-49618414D01*
X113663471Y-49674201D01*
X113437048Y-49767987D01*
X113352079Y-49983579D01*
X97578331Y-49983579D01*
X98159906Y-49402005D01*
X98170396Y-49393396D01*
X98204761Y-49351522D01*
X98230297Y-49303748D01*
X98246021Y-49251910D01*
X98250001Y-49211504D01*
X98250001Y-49211503D01*
X98251331Y-49198001D01*
X98250001Y-49184498D01*
X98250001Y-45000510D01*
X111849785Y-45000510D01*
X111849785Y-46999490D01*
X111852681Y-47028895D01*
X111861258Y-47057170D01*
X111875187Y-47083228D01*
X111893931Y-47106069D01*
X111916772Y-47124813D01*
X111942830Y-47138742D01*
X111971105Y-47147319D01*
X112000510Y-47150215D01*
X113999490Y-47150215D01*
X114028895Y-47147319D01*
X114057170Y-47138742D01*
X114083228Y-47124813D01*
X114106069Y-47106069D01*
X114124813Y-47083228D01*
X114138742Y-47057170D01*
X114147319Y-47028895D01*
X114150215Y-46999490D01*
X114150215Y-45000510D01*
X114147319Y-44971105D01*
X114138742Y-44942830D01*
X114124813Y-44916772D01*
X114106069Y-44893931D01*
X114083228Y-44875187D01*
X114057170Y-44861258D01*
X114028895Y-44852681D01*
X113999490Y-44849785D01*
X112000510Y-44849785D01*
X111971105Y-44852681D01*
X111942830Y-44861258D01*
X111916772Y-44875187D01*
X111893931Y-44893931D01*
X111875187Y-44916772D01*
X111861258Y-44942830D01*
X111852681Y-44971105D01*
X111849785Y-45000510D01*
X98250001Y-45000510D01*
X98250001Y-44418130D01*
X98262789Y-44394206D01*
X98280514Y-44335771D01*
X98286499Y-44275000D01*
X98280514Y-44214230D01*
X98262789Y-44155795D01*
X98234002Y-44101940D01*
X98204966Y-44066559D01*
X97470281Y-43331874D01*
X112146625Y-43331874D01*
X112252989Y-43565239D01*
X112535639Y-43684548D01*
X112836133Y-43746423D01*
X113142925Y-43748486D01*
X113444224Y-43690657D01*
X113728452Y-43575159D01*
X113747011Y-43565239D01*
X113853375Y-43331874D01*
X113000000Y-42478500D01*
X112146625Y-43331874D01*
X97470281Y-43331874D01*
X96471331Y-42332925D01*
X111441514Y-42332925D01*
X111499343Y-42634224D01*
X111614841Y-42918452D01*
X111624761Y-42937011D01*
X111858126Y-43043375D01*
X112711500Y-42190000D01*
X113288500Y-42190000D01*
X114141874Y-43043375D01*
X114375239Y-42937011D01*
X114494548Y-42654361D01*
X114556423Y-42353867D01*
X114558486Y-42047075D01*
X114500657Y-41745776D01*
X114385159Y-41461548D01*
X114375239Y-41442989D01*
X114141874Y-41336625D01*
X113288500Y-42190000D01*
X112711500Y-42190000D01*
X111858126Y-41336625D01*
X111624761Y-41442989D01*
X111505452Y-41725639D01*
X111443577Y-42026133D01*
X111441514Y-42332925D01*
X96471331Y-42332925D01*
X95186532Y-41048126D01*
X112146625Y-41048126D01*
X113000000Y-41901500D01*
X113853375Y-41048126D01*
X113747011Y-40814761D01*
X113464361Y-40695452D01*
X113163867Y-40633577D01*
X112857075Y-40631514D01*
X112555776Y-40689343D01*
X112271548Y-40804841D01*
X112252989Y-40814761D01*
X112146625Y-41048126D01*
X95186532Y-41048126D01*
X95129971Y-40991566D01*
X95120263Y-40979737D01*
X95073060Y-40940998D01*
X95019206Y-40912212D01*
X94960770Y-40894486D01*
X94915220Y-40890000D01*
X94915210Y-40890000D01*
X94900000Y-40888502D01*
X94884790Y-40890000D01*
X92811033Y-40890000D01*
X92777629Y-40867680D01*
X92709383Y-40839411D01*
X92636934Y-40825000D01*
X92563066Y-40825000D01*
X92490617Y-40839411D01*
X92422371Y-40867680D01*
X92360952Y-40908719D01*
X92308719Y-40960952D01*
X92267680Y-41022371D01*
X92239411Y-41090617D01*
X92225000Y-41163066D01*
X92225000Y-41236934D01*
X92239411Y-41309383D01*
X92267680Y-41377629D01*
X92308719Y-41439048D01*
X92360952Y-41491281D01*
X92422371Y-41532320D01*
X92490617Y-41560589D01*
X92563066Y-41575000D01*
X92636934Y-41575000D01*
X92709383Y-41560589D01*
X92777629Y-41532320D01*
X92811033Y-41510000D01*
X94771595Y-41510000D01*
X97700002Y-44438409D01*
X97700001Y-49084092D01*
X97144095Y-49639999D01*
X90528405Y-49639999D01*
X90368427Y-49480022D01*
X90360589Y-49440617D01*
X90332320Y-49372371D01*
X90291281Y-49310952D01*
X90239048Y-49258719D01*
X90177629Y-49217680D01*
X90109383Y-49189411D01*
X90036934Y-49175000D01*
X89963066Y-49175000D01*
X89890617Y-49189411D01*
X89822371Y-49217680D01*
X89788967Y-49240000D01*
X87039507Y-49240000D01*
X77050230Y-39250725D01*
X77300000Y-39250725D01*
X77329405Y-39247829D01*
X77357680Y-39239252D01*
X77383738Y-39225323D01*
X77406579Y-39206579D01*
X77425323Y-39183738D01*
X77439252Y-39157680D01*
X77447829Y-39129405D01*
X77450725Y-39100000D01*
X77450725Y-38663066D01*
X79175000Y-38663066D01*
X79175000Y-38736934D01*
X79189411Y-38809383D01*
X79217680Y-38877629D01*
X79258719Y-38939048D01*
X79310952Y-38991281D01*
X79372371Y-39032320D01*
X79440617Y-39060589D01*
X79513066Y-39075000D01*
X79586934Y-39075000D01*
X79659383Y-39060589D01*
X79727629Y-39032320D01*
X79789048Y-38991281D01*
X79841281Y-38939048D01*
X79882320Y-38877629D01*
X79883409Y-38875000D01*
X80549275Y-38875000D01*
X80549275Y-39100000D01*
X80552171Y-39129405D01*
X80560748Y-39157680D01*
X80574677Y-39183738D01*
X80593421Y-39206579D01*
X80616262Y-39225323D01*
X80642320Y-39239252D01*
X80670595Y-39247829D01*
X80700000Y-39250725D01*
X82200000Y-39250725D01*
X82229405Y-39247829D01*
X82257680Y-39239252D01*
X82283738Y-39225323D01*
X82306579Y-39206579D01*
X82325323Y-39183738D01*
X82339252Y-39157680D01*
X82347829Y-39129405D01*
X82350725Y-39100000D01*
X82350725Y-38500000D01*
X83849275Y-38500000D01*
X83849275Y-39500000D01*
X83852171Y-39529405D01*
X83860748Y-39557680D01*
X83874677Y-39583738D01*
X83893421Y-39606579D01*
X83916262Y-39625323D01*
X83942320Y-39639252D01*
X83970595Y-39647829D01*
X84000000Y-39650725D01*
X87200000Y-39650725D01*
X87229405Y-39647829D01*
X87257680Y-39639252D01*
X87283738Y-39625323D01*
X87306579Y-39606579D01*
X87325323Y-39583738D01*
X87339252Y-39557680D01*
X87347829Y-39529405D01*
X87350725Y-39500000D01*
X87350725Y-38500000D01*
X87347829Y-38470595D01*
X87339252Y-38442320D01*
X87325323Y-38416262D01*
X87306579Y-38393421D01*
X87283738Y-38374677D01*
X87257680Y-38360748D01*
X87229405Y-38352171D01*
X87200000Y-38349275D01*
X84000000Y-38349275D01*
X83970595Y-38352171D01*
X83942320Y-38360748D01*
X83916262Y-38374677D01*
X83893421Y-38393421D01*
X83874677Y-38416262D01*
X83860748Y-38442320D01*
X83852171Y-38470595D01*
X83849275Y-38500000D01*
X82350725Y-38500000D01*
X82350725Y-38100000D01*
X82347829Y-38070595D01*
X82339252Y-38042320D01*
X82325323Y-38016262D01*
X82306579Y-37993421D01*
X82283738Y-37974677D01*
X82257680Y-37960748D01*
X82229405Y-37952171D01*
X82200000Y-37949275D01*
X80700000Y-37949275D01*
X80670595Y-37952171D01*
X80642320Y-37960748D01*
X80616262Y-37974677D01*
X80593421Y-37993421D01*
X80574677Y-38016262D01*
X80560748Y-38042320D01*
X80552171Y-38070595D01*
X80549275Y-38100000D01*
X80549275Y-38325000D01*
X79663502Y-38325000D01*
X79649999Y-38323670D01*
X79603348Y-38328265D01*
X79586934Y-38325000D01*
X79513066Y-38325000D01*
X79440617Y-38339411D01*
X79372371Y-38367680D01*
X79310952Y-38408719D01*
X79258719Y-38460952D01*
X79217680Y-38522371D01*
X79189411Y-38590617D01*
X79175000Y-38663066D01*
X77450725Y-38663066D01*
X77450725Y-38100000D01*
X77447829Y-38070595D01*
X77439252Y-38042320D01*
X77425323Y-38016262D01*
X77406579Y-37993421D01*
X77383738Y-37974677D01*
X77357680Y-37960748D01*
X77329405Y-37952171D01*
X77300000Y-37949275D01*
X75800000Y-37949275D01*
X75770595Y-37952171D01*
X75742320Y-37960748D01*
X75716262Y-37974677D01*
X75693421Y-37993421D01*
X75674677Y-38016262D01*
X75660748Y-38042320D01*
X75652171Y-38070595D01*
X75649275Y-38100000D01*
X75649275Y-38260868D01*
X74324387Y-36935981D01*
X83750000Y-36935981D01*
X83750000Y-37064019D01*
X83774979Y-37189598D01*
X83823978Y-37307890D01*
X83895112Y-37414351D01*
X83985649Y-37504888D01*
X84092110Y-37576022D01*
X84210402Y-37625021D01*
X84335981Y-37650000D01*
X84464019Y-37650000D01*
X84589598Y-37625021D01*
X84707890Y-37576022D01*
X84814351Y-37504888D01*
X84904888Y-37414351D01*
X84976022Y-37307890D01*
X85025021Y-37189598D01*
X85050000Y-37064019D01*
X85050000Y-36935981D01*
X85025021Y-36810402D01*
X84976022Y-36692110D01*
X84904888Y-36585649D01*
X84814351Y-36495112D01*
X84707890Y-36423978D01*
X84589598Y-36374979D01*
X84464019Y-36350000D01*
X84335981Y-36350000D01*
X84210402Y-36374979D01*
X84092110Y-36423978D01*
X83985649Y-36495112D01*
X83895112Y-36585649D01*
X83823978Y-36692110D01*
X83774979Y-36810402D01*
X83750000Y-36935981D01*
X74324387Y-36935981D01*
X73179971Y-35791566D01*
X73170263Y-35779737D01*
X73123060Y-35740998D01*
X73069206Y-35712212D01*
X73010770Y-35694486D01*
X72965220Y-35690000D01*
X72965210Y-35690000D01*
X72950000Y-35688502D01*
X72934790Y-35690000D01*
X72484411Y-35690000D01*
X72446632Y-35633459D01*
X72366541Y-35553368D01*
X72272365Y-35490442D01*
X72167721Y-35447097D01*
X72056633Y-35425000D01*
X71943367Y-35425000D01*
X71832279Y-35447097D01*
X71727635Y-35490442D01*
X71633459Y-35553368D01*
X71575725Y-35611102D01*
X71575725Y-35575000D01*
X71572829Y-35545595D01*
X71564252Y-35517320D01*
X71550323Y-35491262D01*
X71531579Y-35468421D01*
X71508738Y-35449677D01*
X71482680Y-35435748D01*
X71454405Y-35427171D01*
X71425000Y-35424275D01*
X70575000Y-35424275D01*
X70545595Y-35427171D01*
X70517320Y-35435748D01*
X70491262Y-35449677D01*
X70468421Y-35468421D01*
X70449677Y-35491262D01*
X70435748Y-35517320D01*
X70427171Y-35545595D01*
X70424275Y-35575000D01*
X70424275Y-36425000D01*
X70427171Y-36454405D01*
X70435748Y-36482680D01*
X70449677Y-36508738D01*
X70468421Y-36531579D01*
X70491262Y-36550323D01*
X70517320Y-36564252D01*
X70545595Y-36572829D01*
X70575000Y-36575725D01*
X70611102Y-36575725D01*
X70553368Y-36633459D01*
X70492203Y-36725000D01*
X64613503Y-36725000D01*
X64600000Y-36723670D01*
X64546090Y-36728980D01*
X64530366Y-36733750D01*
X64494253Y-36744704D01*
X64446479Y-36770240D01*
X64404605Y-36804605D01*
X64395997Y-36815094D01*
X61786092Y-39425000D01*
X61763066Y-39425000D01*
X61690617Y-39439411D01*
X61622371Y-39467680D01*
X61560952Y-39508719D01*
X61544671Y-39525000D01*
X59340492Y-39525000D01*
X59326997Y-39523671D01*
X59313502Y-39525000D01*
X59313495Y-39525000D01*
X59278152Y-39528481D01*
X59273088Y-39528980D01*
X59257364Y-39533750D01*
X59221251Y-39544704D01*
X59173477Y-39570240D01*
X59131603Y-39604605D01*
X59122995Y-39615094D01*
X58590094Y-40147996D01*
X58579605Y-40156604D01*
X58545240Y-40198478D01*
X58531064Y-40225000D01*
X58519704Y-40246252D01*
X58503979Y-40298090D01*
X58498669Y-40351999D01*
X55200000Y-40351999D01*
X55200000Y-34837489D01*
X56350000Y-34837489D01*
X56350000Y-35162511D01*
X56413408Y-35481287D01*
X56537789Y-35781568D01*
X56718361Y-36051814D01*
X56948186Y-36281639D01*
X57218432Y-36462211D01*
X57518713Y-36586592D01*
X57837489Y-36650000D01*
X58162511Y-36650000D01*
X58481287Y-36586592D01*
X58781568Y-36462211D01*
X59051814Y-36281639D01*
X59281639Y-36051814D01*
X59462211Y-35781568D01*
X59586592Y-35481287D01*
X59650000Y-35162511D01*
X59650000Y-34900000D01*
X75649275Y-34900000D01*
X75649275Y-35900000D01*
X75652171Y-35929405D01*
X75660748Y-35957680D01*
X75674677Y-35983738D01*
X75693421Y-36006579D01*
X75716262Y-36025323D01*
X75742320Y-36039252D01*
X75770595Y-36047829D01*
X75800000Y-36050725D01*
X77300000Y-36050725D01*
X77329405Y-36047829D01*
X77357680Y-36039252D01*
X77383738Y-36025323D01*
X77406579Y-36006579D01*
X77425323Y-35983738D01*
X77439252Y-35957680D01*
X77447829Y-35929405D01*
X77450725Y-35900000D01*
X80139300Y-35900000D01*
X80150074Y-36009387D01*
X80181981Y-36114571D01*
X80233795Y-36211508D01*
X80303525Y-36296475D01*
X80388492Y-36366205D01*
X80485429Y-36418019D01*
X80590613Y-36449926D01*
X80700000Y-36460700D01*
X81106500Y-36458000D01*
X81246000Y-36318500D01*
X81246000Y-35604000D01*
X81654000Y-35604000D01*
X81654000Y-36318500D01*
X81793500Y-36458000D01*
X82200000Y-36460700D01*
X82309387Y-36449926D01*
X82414571Y-36418019D01*
X82511508Y-36366205D01*
X82596475Y-36296475D01*
X82666205Y-36211508D01*
X82718019Y-36114571D01*
X82749926Y-36009387D01*
X82760700Y-35900000D01*
X82758000Y-35743500D01*
X82725600Y-35711100D01*
X89723670Y-35711100D01*
X89725001Y-35724613D01*
X89725000Y-43636497D01*
X89723670Y-43650000D01*
X89725000Y-43663502D01*
X89728980Y-43703908D01*
X89744704Y-43755746D01*
X89770240Y-43803521D01*
X89804605Y-43845395D01*
X89815100Y-43854008D01*
X93675000Y-47713909D01*
X93675000Y-47736934D01*
X93689411Y-47809383D01*
X93717680Y-47877629D01*
X93758719Y-47939048D01*
X93810952Y-47991281D01*
X93872371Y-48032320D01*
X93940617Y-48060589D01*
X94013066Y-48075000D01*
X94086934Y-48075000D01*
X94159383Y-48060589D01*
X94227629Y-48032320D01*
X94289048Y-47991281D01*
X94341281Y-47939048D01*
X94382320Y-47877629D01*
X94410589Y-47809383D01*
X94425000Y-47736934D01*
X94425000Y-47663066D01*
X94410589Y-47590617D01*
X94382320Y-47522371D01*
X94341281Y-47460952D01*
X94289048Y-47408719D01*
X94227629Y-47367680D01*
X94159383Y-47339411D01*
X94086934Y-47325000D01*
X94063909Y-47325000D01*
X90275000Y-43536092D01*
X90275000Y-42613066D01*
X90925000Y-42613066D01*
X90925000Y-42686934D01*
X90939411Y-42759383D01*
X90967680Y-42827629D01*
X91008719Y-42889048D01*
X91025001Y-42905330D01*
X91025000Y-43202182D01*
X91025000Y-43452182D01*
X91023670Y-43465685D01*
X91026264Y-43492015D01*
X91028980Y-43519593D01*
X91044704Y-43571431D01*
X91070240Y-43619206D01*
X91104605Y-43661080D01*
X91115100Y-43669693D01*
X96480312Y-49034906D01*
X96488920Y-49045395D01*
X96530794Y-49079760D01*
X96578568Y-49105296D01*
X96614681Y-49116250D01*
X96630405Y-49121020D01*
X96684314Y-49126330D01*
X96697817Y-49125000D01*
X96994671Y-49125000D01*
X97010952Y-49141281D01*
X97072371Y-49182320D01*
X97140617Y-49210589D01*
X97213066Y-49225000D01*
X97286934Y-49225000D01*
X97359383Y-49210589D01*
X97427629Y-49182320D01*
X97489048Y-49141281D01*
X97541281Y-49089048D01*
X97582320Y-49027629D01*
X97610589Y-48959383D01*
X97625000Y-48886934D01*
X97625000Y-48813066D01*
X97610589Y-48740617D01*
X97582320Y-48672371D01*
X97541281Y-48610952D01*
X97489048Y-48558719D01*
X97427629Y-48517680D01*
X97359383Y-48489411D01*
X97286934Y-48475000D01*
X97213066Y-48475000D01*
X97140617Y-48489411D01*
X97072371Y-48517680D01*
X97010952Y-48558719D01*
X96994671Y-48575000D01*
X96798224Y-48575000D01*
X91575000Y-43351777D01*
X91575000Y-42905329D01*
X91591281Y-42889048D01*
X91632320Y-42827629D01*
X91660589Y-42759383D01*
X91675000Y-42686934D01*
X91675000Y-42613066D01*
X91660589Y-42540617D01*
X91632320Y-42472371D01*
X91591281Y-42410952D01*
X91539048Y-42358719D01*
X91477629Y-42317680D01*
X91409383Y-42289411D01*
X91336934Y-42275000D01*
X91263066Y-42275000D01*
X91190617Y-42289411D01*
X91122371Y-42317680D01*
X91060952Y-42358719D01*
X91008719Y-42410952D01*
X90967680Y-42472371D01*
X90939411Y-42540617D01*
X90925000Y-42613066D01*
X90275000Y-42613066D01*
X90275000Y-39691558D01*
X90281981Y-39714571D01*
X90333795Y-39811508D01*
X90403525Y-39896475D01*
X90488492Y-39966205D01*
X90585429Y-40018019D01*
X90690613Y-40049926D01*
X90800000Y-40060700D01*
X92056500Y-40058000D01*
X92196000Y-39918500D01*
X92196000Y-39204000D01*
X92604000Y-39204000D01*
X92604000Y-39918500D01*
X92743500Y-40058000D01*
X94000000Y-40060700D01*
X94109387Y-40049926D01*
X94214571Y-40018019D01*
X94311508Y-39966205D01*
X94396475Y-39896475D01*
X94466205Y-39811508D01*
X94518019Y-39714571D01*
X94549926Y-39609387D01*
X94560700Y-39500000D01*
X94558000Y-39343500D01*
X94418500Y-39204000D01*
X92604000Y-39204000D01*
X92196000Y-39204000D01*
X92176000Y-39204000D01*
X92176000Y-38796000D01*
X92196000Y-38796000D01*
X92196000Y-38081500D01*
X92604000Y-38081500D01*
X92604000Y-38796000D01*
X94418500Y-38796000D01*
X94558000Y-38656500D01*
X94560700Y-38500000D01*
X94549926Y-38390613D01*
X94518019Y-38285429D01*
X94466205Y-38188492D01*
X94396475Y-38103525D01*
X94311508Y-38033795D01*
X94214571Y-37981981D01*
X94109387Y-37950074D01*
X94000000Y-37939300D01*
X92743500Y-37942000D01*
X92604000Y-38081500D01*
X92196000Y-38081500D01*
X92056500Y-37942000D01*
X90800000Y-37939300D01*
X90690613Y-37950074D01*
X90585429Y-37981981D01*
X90488492Y-38033795D01*
X90403525Y-38103525D01*
X90333795Y-38188492D01*
X90281981Y-38285429D01*
X90275000Y-38308442D01*
X90275000Y-36935981D01*
X92950000Y-36935981D01*
X92950000Y-37064019D01*
X92974979Y-37189598D01*
X93023978Y-37307890D01*
X93095112Y-37414351D01*
X93185649Y-37504888D01*
X93292110Y-37576022D01*
X93410402Y-37625021D01*
X93535981Y-37650000D01*
X93664019Y-37650000D01*
X93789598Y-37625021D01*
X93907890Y-37576022D01*
X94014351Y-37504888D01*
X94104888Y-37414351D01*
X94176022Y-37307890D01*
X94225021Y-37189598D01*
X94250000Y-37064019D01*
X94250000Y-37000000D01*
X99399275Y-37000000D01*
X99399275Y-38000000D01*
X99402171Y-38029405D01*
X99410748Y-38057680D01*
X99424677Y-38083738D01*
X99443421Y-38106579D01*
X99466262Y-38125323D01*
X99492320Y-38139252D01*
X99520595Y-38147829D01*
X99550000Y-38150725D01*
X101050000Y-38150725D01*
X101079405Y-38147829D01*
X101107680Y-38139252D01*
X101133738Y-38125323D01*
X101156579Y-38106579D01*
X101175323Y-38083738D01*
X101189252Y-38057680D01*
X101197829Y-38029405D01*
X101200725Y-38000000D01*
X101200725Y-37000000D01*
X102399275Y-37000000D01*
X102399275Y-38000000D01*
X102402171Y-38029405D01*
X102410748Y-38057680D01*
X102424677Y-38083738D01*
X102443421Y-38106579D01*
X102466262Y-38125323D01*
X102492320Y-38139252D01*
X102520595Y-38147829D01*
X102550000Y-38150725D01*
X104050000Y-38150725D01*
X104079405Y-38147829D01*
X104107680Y-38139252D01*
X104133738Y-38125323D01*
X104156579Y-38106579D01*
X104175323Y-38083738D01*
X104189252Y-38057680D01*
X104197829Y-38029405D01*
X104200725Y-38000000D01*
X104200725Y-37000000D01*
X104197829Y-36970595D01*
X104189252Y-36942320D01*
X104175323Y-36916262D01*
X104156579Y-36893421D01*
X104133738Y-36874677D01*
X104107680Y-36860748D01*
X104079405Y-36852171D01*
X104050000Y-36849275D01*
X102550000Y-36849275D01*
X102520595Y-36852171D01*
X102492320Y-36860748D01*
X102466262Y-36874677D01*
X102443421Y-36893421D01*
X102424677Y-36916262D01*
X102410748Y-36942320D01*
X102402171Y-36970595D01*
X102399275Y-37000000D01*
X101200725Y-37000000D01*
X101197829Y-36970595D01*
X101189252Y-36942320D01*
X101175323Y-36916262D01*
X101156579Y-36893421D01*
X101133738Y-36874677D01*
X101107680Y-36860748D01*
X101079405Y-36852171D01*
X101050000Y-36849275D01*
X99550000Y-36849275D01*
X99520595Y-36852171D01*
X99492320Y-36860748D01*
X99466262Y-36874677D01*
X99443421Y-36893421D01*
X99424677Y-36916262D01*
X99410748Y-36942320D01*
X99402171Y-36970595D01*
X99399275Y-37000000D01*
X94250000Y-37000000D01*
X94250000Y-36935981D01*
X94225021Y-36810402D01*
X94176022Y-36692110D01*
X94104888Y-36585649D01*
X94014351Y-36495112D01*
X93907890Y-36423978D01*
X93789598Y-36374979D01*
X93664019Y-36350000D01*
X93535981Y-36350000D01*
X93410402Y-36374979D01*
X93292110Y-36423978D01*
X93185649Y-36495112D01*
X93095112Y-36585649D01*
X93023978Y-36692110D01*
X92974979Y-36810402D01*
X92950000Y-36935981D01*
X90275000Y-36935981D01*
X90275000Y-35825008D01*
X90649275Y-35450734D01*
X90649275Y-35500000D01*
X90652171Y-35529405D01*
X90660748Y-35557680D01*
X90674677Y-35583738D01*
X90693421Y-35606579D01*
X90716262Y-35625323D01*
X90742320Y-35639252D01*
X90770595Y-35647829D01*
X90800000Y-35650725D01*
X94000000Y-35650725D01*
X94029405Y-35647829D01*
X94057680Y-35639252D01*
X94083738Y-35625323D01*
X94106579Y-35606579D01*
X94111977Y-35600000D01*
X99399275Y-35600000D01*
X99399275Y-36600000D01*
X99402171Y-36629405D01*
X99410748Y-36657680D01*
X99424677Y-36683738D01*
X99443421Y-36706579D01*
X99466262Y-36725323D01*
X99492320Y-36739252D01*
X99520595Y-36747829D01*
X99550000Y-36750725D01*
X101050000Y-36750725D01*
X101079405Y-36747829D01*
X101107680Y-36739252D01*
X101133738Y-36725323D01*
X101156579Y-36706579D01*
X101175323Y-36683738D01*
X101189252Y-36657680D01*
X101197829Y-36629405D01*
X101200725Y-36600000D01*
X101200725Y-35600000D01*
X102399275Y-35600000D01*
X102399275Y-36600000D01*
X102402171Y-36629405D01*
X102410748Y-36657680D01*
X102424677Y-36683738D01*
X102443421Y-36706579D01*
X102466262Y-36725323D01*
X102492320Y-36739252D01*
X102520595Y-36747829D01*
X102550000Y-36750725D01*
X104050000Y-36750725D01*
X104079405Y-36747829D01*
X104107680Y-36739252D01*
X104133738Y-36725323D01*
X104156579Y-36706579D01*
X104175323Y-36683738D01*
X104189252Y-36657680D01*
X104197829Y-36629405D01*
X104200725Y-36600000D01*
X104200725Y-35600000D01*
X104197829Y-35570595D01*
X104189252Y-35542320D01*
X104175323Y-35516262D01*
X104156579Y-35493421D01*
X104133738Y-35474677D01*
X104107680Y-35460748D01*
X104079405Y-35452171D01*
X104050000Y-35449275D01*
X102550000Y-35449275D01*
X102520595Y-35452171D01*
X102492320Y-35460748D01*
X102466262Y-35474677D01*
X102443421Y-35493421D01*
X102424677Y-35516262D01*
X102410748Y-35542320D01*
X102402171Y-35570595D01*
X102399275Y-35600000D01*
X101200725Y-35600000D01*
X101197829Y-35570595D01*
X101189252Y-35542320D01*
X101175323Y-35516262D01*
X101156579Y-35493421D01*
X101133738Y-35474677D01*
X101107680Y-35460748D01*
X101079405Y-35452171D01*
X101050000Y-35449275D01*
X99550000Y-35449275D01*
X99520595Y-35452171D01*
X99492320Y-35460748D01*
X99466262Y-35474677D01*
X99443421Y-35493421D01*
X99424677Y-35516262D01*
X99410748Y-35542320D01*
X99402171Y-35570595D01*
X99399275Y-35600000D01*
X94111977Y-35600000D01*
X94125323Y-35583738D01*
X94139252Y-35557680D01*
X94147829Y-35529405D01*
X94150725Y-35500000D01*
X94150725Y-34837489D01*
X111350000Y-34837489D01*
X111350000Y-35162511D01*
X111413408Y-35481287D01*
X111537789Y-35781568D01*
X111718361Y-36051814D01*
X111948186Y-36281639D01*
X112218432Y-36462211D01*
X112518713Y-36586592D01*
X112837489Y-36650000D01*
X113162511Y-36650000D01*
X113481287Y-36586592D01*
X113781568Y-36462211D01*
X114051814Y-36281639D01*
X114281639Y-36051814D01*
X114462211Y-35781568D01*
X114586592Y-35481287D01*
X114650000Y-35162511D01*
X114650000Y-34837489D01*
X114586592Y-34518713D01*
X114462211Y-34218432D01*
X114281639Y-33948186D01*
X114051814Y-33718361D01*
X113781568Y-33537789D01*
X113481287Y-33413408D01*
X113162511Y-33350000D01*
X112837489Y-33350000D01*
X112518713Y-33413408D01*
X112218432Y-33537789D01*
X111948186Y-33718361D01*
X111718361Y-33948186D01*
X111537789Y-34218432D01*
X111413408Y-34518713D01*
X111350000Y-34837489D01*
X94150725Y-34837489D01*
X94150725Y-34500000D01*
X94147829Y-34470595D01*
X94139252Y-34442320D01*
X94125323Y-34416262D01*
X94106579Y-34393421D01*
X94083738Y-34374677D01*
X94057680Y-34360748D01*
X94029405Y-34352171D01*
X94000000Y-34349275D01*
X90800000Y-34349275D01*
X90770595Y-34352171D01*
X90742320Y-34360748D01*
X90716262Y-34374677D01*
X90693421Y-34393421D01*
X90674677Y-34416262D01*
X90660748Y-34442320D01*
X90652171Y-34470595D01*
X90649275Y-34500000D01*
X90649275Y-34731381D01*
X90641466Y-34733750D01*
X90605353Y-34744704D01*
X90557579Y-34770240D01*
X90515705Y-34804605D01*
X90507096Y-34815095D01*
X89815095Y-35507097D01*
X89804606Y-35515705D01*
X89770241Y-35557579D01*
X89756259Y-35583738D01*
X89744705Y-35605353D01*
X89728980Y-35657191D01*
X89723670Y-35711100D01*
X82725600Y-35711100D01*
X82618500Y-35604000D01*
X81654000Y-35604000D01*
X81246000Y-35604000D01*
X80281500Y-35604000D01*
X80142000Y-35743500D01*
X80139300Y-35900000D01*
X77450725Y-35900000D01*
X77450725Y-34900000D01*
X80139300Y-34900000D01*
X80142000Y-35056500D01*
X80281500Y-35196000D01*
X81246000Y-35196000D01*
X81246000Y-34481500D01*
X81654000Y-34481500D01*
X81654000Y-35196000D01*
X82618500Y-35196000D01*
X82758000Y-35056500D01*
X82760700Y-34900000D01*
X82749926Y-34790613D01*
X82718019Y-34685429D01*
X82666205Y-34588492D01*
X82596475Y-34503525D01*
X82592180Y-34500000D01*
X83849275Y-34500000D01*
X83849275Y-35500000D01*
X83852171Y-35529405D01*
X83860748Y-35557680D01*
X83874677Y-35583738D01*
X83893421Y-35606579D01*
X83916262Y-35625323D01*
X83942320Y-35639252D01*
X83970595Y-35647829D01*
X84000000Y-35650725D01*
X87200000Y-35650725D01*
X87229405Y-35647829D01*
X87257680Y-35639252D01*
X87283738Y-35625323D01*
X87306579Y-35606579D01*
X87325323Y-35583738D01*
X87339252Y-35557680D01*
X87347829Y-35529405D01*
X87350725Y-35500000D01*
X87350725Y-34500000D01*
X87347829Y-34470595D01*
X87339252Y-34442320D01*
X87325323Y-34416262D01*
X87306579Y-34393421D01*
X87283738Y-34374677D01*
X87257680Y-34360748D01*
X87229405Y-34352171D01*
X87200000Y-34349275D01*
X84000000Y-34349275D01*
X83970595Y-34352171D01*
X83942320Y-34360748D01*
X83916262Y-34374677D01*
X83893421Y-34393421D01*
X83874677Y-34416262D01*
X83860748Y-34442320D01*
X83852171Y-34470595D01*
X83849275Y-34500000D01*
X82592180Y-34500000D01*
X82511508Y-34433795D01*
X82414571Y-34381981D01*
X82309387Y-34350074D01*
X82200000Y-34339300D01*
X81793500Y-34342000D01*
X81654000Y-34481500D01*
X81246000Y-34481500D01*
X81106500Y-34342000D01*
X80700000Y-34339300D01*
X80590613Y-34350074D01*
X80485429Y-34381981D01*
X80388492Y-34433795D01*
X80303525Y-34503525D01*
X80233795Y-34588492D01*
X80181981Y-34685429D01*
X80150074Y-34790613D01*
X80139300Y-34900000D01*
X77450725Y-34900000D01*
X77447829Y-34870595D01*
X77439252Y-34842320D01*
X77425323Y-34816262D01*
X77406579Y-34793421D01*
X77383738Y-34774677D01*
X77357680Y-34760748D01*
X77329405Y-34752171D01*
X77300000Y-34749275D01*
X75800000Y-34749275D01*
X75770595Y-34752171D01*
X75742320Y-34760748D01*
X75716262Y-34774677D01*
X75693421Y-34793421D01*
X75674677Y-34816262D01*
X75660748Y-34842320D01*
X75652171Y-34870595D01*
X75649275Y-34900000D01*
X59650000Y-34900000D01*
X59650000Y-34837489D01*
X59586592Y-34518713D01*
X59462211Y-34218432D01*
X59281639Y-33948186D01*
X59051814Y-33718361D01*
X58781568Y-33537789D01*
X58481287Y-33413408D01*
X58162511Y-33350000D01*
X57837489Y-33350000D01*
X57518713Y-33413408D01*
X57218432Y-33537789D01*
X56948186Y-33718361D01*
X56718361Y-33948186D01*
X56537789Y-34218432D01*
X56413408Y-34518713D01*
X56350000Y-34837489D01*
X55200000Y-34837489D01*
X55200000Y-32200000D01*
X115800001Y-32200000D01*
X115800000Y-32990183D01*
G37*
X115800000Y-32990183D02*
X115800000Y-32990184D01*
X115800001Y-67800000D01*
X94050000Y-67800000D01*
X94050000Y-64837489D01*
X111350000Y-64837489D01*
X111350000Y-65162511D01*
X111413408Y-65481287D01*
X111537789Y-65781568D01*
X111718361Y-66051814D01*
X111948186Y-66281639D01*
X112218432Y-66462211D01*
X112518713Y-66586592D01*
X112837489Y-66650000D01*
X113162511Y-66650000D01*
X113481287Y-66586592D01*
X113781568Y-66462211D01*
X114051814Y-66281639D01*
X114281639Y-66051814D01*
X114462211Y-65781568D01*
X114586592Y-65481287D01*
X114650000Y-65162511D01*
X114650000Y-64837489D01*
X114586592Y-64518713D01*
X114462211Y-64218432D01*
X114281639Y-63948186D01*
X114051814Y-63718361D01*
X113781568Y-63537789D01*
X113481287Y-63413408D01*
X113162511Y-63350000D01*
X112837489Y-63350000D01*
X112518713Y-63413408D01*
X112218432Y-63537789D01*
X111948186Y-63718361D01*
X111718361Y-63948186D01*
X111537789Y-64218432D01*
X111413408Y-64518713D01*
X111350000Y-64837489D01*
X94050000Y-64837489D01*
X94050000Y-61000000D01*
X94049039Y-60990245D01*
X94046194Y-60980866D01*
X94041573Y-60972221D01*
X94035355Y-60964645D01*
X94027779Y-60958427D01*
X94019134Y-60953806D01*
X94009755Y-60950961D01*
X94000000Y-60950000D01*
X65000000Y-60950000D01*
X64990245Y-60950961D01*
X64980866Y-60953806D01*
X64972221Y-60958427D01*
X64964645Y-60964645D01*
X64958427Y-60972221D01*
X64953806Y-60980866D01*
X64950961Y-60990245D01*
X64950000Y-61000000D01*
X64950000Y-67800000D01*
X55200000Y-67800000D01*
X55200000Y-64837489D01*
X56350000Y-64837489D01*
X56350000Y-65162511D01*
X56413408Y-65481287D01*
X56537789Y-65781568D01*
X56718361Y-66051814D01*
X56948186Y-66281639D01*
X57218432Y-66462211D01*
X57518713Y-66586592D01*
X57837489Y-66650000D01*
X58162511Y-66650000D01*
X58481287Y-66586592D01*
X58781568Y-66462211D01*
X59051814Y-66281639D01*
X59281639Y-66051814D01*
X59462211Y-65781568D01*
X59586592Y-65481287D01*
X59650000Y-65162511D01*
X59650000Y-64837489D01*
X59586592Y-64518713D01*
X59462211Y-64218432D01*
X59281639Y-63948186D01*
X59051814Y-63718361D01*
X58781568Y-63537789D01*
X58481287Y-63413408D01*
X58162511Y-63350000D01*
X57837489Y-63350000D01*
X57518713Y-63413408D01*
X57218432Y-63537789D01*
X56948186Y-63718361D01*
X56718361Y-63948186D01*
X56537789Y-64218432D01*
X56413408Y-64518713D01*
X56350000Y-64837489D01*
X55200000Y-64837489D01*
X55200000Y-60181565D01*
X55279629Y-60241678D01*
X55455782Y-60326833D01*
X55645163Y-60375986D01*
X55840495Y-60387248D01*
X55996000Y-60229135D01*
X55996000Y-59594000D01*
X56404000Y-59594000D01*
X56404000Y-60229135D01*
X56559505Y-60387248D01*
X56754837Y-60375986D01*
X56944218Y-60326833D01*
X57120371Y-60241678D01*
X57276526Y-60123794D01*
X57406683Y-59977711D01*
X57492591Y-59737915D01*
X57392670Y-59594000D01*
X56404000Y-59594000D01*
X55996000Y-59594000D01*
X55976000Y-59594000D01*
X55976000Y-59377915D01*
X60857409Y-59377915D01*
X60943317Y-59617711D01*
X61073474Y-59763794D01*
X61229629Y-59881678D01*
X61405782Y-59966833D01*
X61595163Y-60015986D01*
X61790495Y-60027248D01*
X61946000Y-59869135D01*
X61946000Y-59234000D01*
X60957330Y-59234000D01*
X60857409Y-59377915D01*
X55976000Y-59377915D01*
X55976000Y-59186000D01*
X55996000Y-59186000D01*
X55996000Y-58550865D01*
X56404000Y-58550865D01*
X56404000Y-59186000D01*
X57392670Y-59186000D01*
X57492591Y-59042085D01*
X57406683Y-58802289D01*
X57299584Y-58682085D01*
X60857409Y-58682085D01*
X60957330Y-58826000D01*
X61946000Y-58826000D01*
X61946000Y-58190865D01*
X62354000Y-58190865D01*
X62354000Y-58826000D01*
X62374000Y-58826000D01*
X62374000Y-59234000D01*
X62354000Y-59234000D01*
X62354000Y-59869135D01*
X62509505Y-60027248D01*
X62704837Y-60015986D01*
X62894218Y-59966833D01*
X63070371Y-59881678D01*
X63226526Y-59763794D01*
X63356683Y-59617711D01*
X63442591Y-59377915D01*
X63342671Y-59234002D01*
X63508000Y-59234002D01*
X63508000Y-59162861D01*
X63521817Y-59160226D01*
X63524488Y-59159419D01*
X63524494Y-59159417D01*
X63585082Y-59140662D01*
X63601762Y-59133651D01*
X63618605Y-59126846D01*
X63621070Y-59125535D01*
X63676865Y-59095366D01*
X63691875Y-59085241D01*
X63707060Y-59075304D01*
X63709224Y-59073539D01*
X63758096Y-59033108D01*
X63770861Y-59020253D01*
X63783820Y-59007563D01*
X63785599Y-59005412D01*
X63825688Y-58956258D01*
X63835706Y-58941180D01*
X63845961Y-58926203D01*
X63847288Y-58923747D01*
X63877067Y-58867742D01*
X63883963Y-58851011D01*
X63891116Y-58834322D01*
X63891941Y-58831654D01*
X63910274Y-58770932D01*
X63913786Y-58753196D01*
X63917564Y-58735421D01*
X63917855Y-58732644D01*
X63924045Y-58669518D01*
X63924045Y-58669512D01*
X63925000Y-58659817D01*
X63925000Y-58340183D01*
X63924014Y-58330173D01*
X63924014Y-58325946D01*
X63923722Y-58323169D01*
X63916652Y-58260136D01*
X63912889Y-58242434D01*
X63909362Y-58224622D01*
X63908536Y-58221955D01*
X63889357Y-58161495D01*
X63882236Y-58144879D01*
X63875309Y-58128074D01*
X63873980Y-58125619D01*
X63873980Y-58125618D01*
X63873977Y-58125614D01*
X63843423Y-58070035D01*
X63833197Y-58055100D01*
X63823152Y-58039981D01*
X63821372Y-58037830D01*
X63821371Y-58037828D01*
X63821367Y-58037824D01*
X63780601Y-57989240D01*
X63767678Y-57976585D01*
X63754874Y-57963691D01*
X63752710Y-57961927D01*
X63703277Y-57922183D01*
X63688140Y-57912278D01*
X63673084Y-57902122D01*
X63670618Y-57900812D01*
X63670615Y-57900810D01*
X63670611Y-57900809D01*
X63614408Y-57871425D01*
X63597650Y-57864654D01*
X63580887Y-57857608D01*
X63578214Y-57856802D01*
X63517366Y-57838894D01*
X63499607Y-57835506D01*
X63481805Y-57831852D01*
X63479026Y-57831580D01*
X63415858Y-57825831D01*
X63397764Y-57825958D01*
X63379604Y-57825831D01*
X63376825Y-57826104D01*
X63313745Y-57832734D01*
X63296030Y-57836370D01*
X63278183Y-57839774D01*
X63275512Y-57840581D01*
X63275506Y-57840583D01*
X63214917Y-57859338D01*
X63198224Y-57866355D01*
X63181395Y-57873154D01*
X63178930Y-57874465D01*
X63123135Y-57904634D01*
X63108127Y-57914757D01*
X63092939Y-57924696D01*
X63090776Y-57926461D01*
X63041904Y-57966892D01*
X63029139Y-57979747D01*
X63016180Y-57992437D01*
X63014401Y-57994588D01*
X62974312Y-58043742D01*
X62964294Y-58058820D01*
X62954039Y-58073797D01*
X62952712Y-58076253D01*
X62933597Y-58112203D01*
X62894218Y-58093167D01*
X62704837Y-58044014D01*
X62509505Y-58032752D01*
X62354000Y-58190865D01*
X61946000Y-58190865D01*
X61790495Y-58032752D01*
X61595163Y-58044014D01*
X61405782Y-58093167D01*
X61229629Y-58178322D01*
X61073474Y-58296206D01*
X60943317Y-58442289D01*
X60857409Y-58682085D01*
X57299584Y-58682085D01*
X57276526Y-58656206D01*
X57120371Y-58538322D01*
X56944218Y-58453167D01*
X56754837Y-58404014D01*
X56559505Y-58392752D01*
X56404000Y-58550865D01*
X55996000Y-58550865D01*
X55840495Y-58392752D01*
X55645163Y-58404014D01*
X55455782Y-58453167D01*
X55279629Y-58538322D01*
X55200000Y-58598435D01*
X55200000Y-51201565D01*
X55279629Y-51261678D01*
X55455782Y-51346833D01*
X55645163Y-51395986D01*
X55840495Y-51407248D01*
X55996000Y-51249135D01*
X55996000Y-50614000D01*
X56404000Y-50614000D01*
X56404000Y-51249135D01*
X56559505Y-51407248D01*
X56754837Y-51395986D01*
X56944218Y-51346833D01*
X57120371Y-51261678D01*
X57276526Y-51143794D01*
X57406683Y-50997711D01*
X57492591Y-50757915D01*
X57392670Y-50614000D01*
X56404000Y-50614000D01*
X55996000Y-50614000D01*
X55976000Y-50614000D01*
X55976000Y-50206000D01*
X55996000Y-50206000D01*
X55996000Y-49570865D01*
X56404000Y-49570865D01*
X56404000Y-50206000D01*
X57392670Y-50206000D01*
X57492591Y-50062085D01*
X57406683Y-49822289D01*
X57276526Y-49676206D01*
X57120371Y-49558322D01*
X56944218Y-49473167D01*
X56754837Y-49424014D01*
X56559505Y-49412752D01*
X56404000Y-49570865D01*
X55996000Y-49570865D01*
X55840495Y-49412752D01*
X55645163Y-49424014D01*
X55455782Y-49473167D01*
X55279629Y-49558322D01*
X55200000Y-49618435D01*
X55200000Y-49063066D01*
X58025000Y-49063066D01*
X58025000Y-49136934D01*
X58039411Y-49209383D01*
X58067680Y-49277629D01*
X58108719Y-49339048D01*
X58160952Y-49391281D01*
X58222371Y-49432320D01*
X58290617Y-49460589D01*
X58363066Y-49475000D01*
X58436934Y-49475000D01*
X58509383Y-49460589D01*
X58577629Y-49432320D01*
X58611033Y-49410000D01*
X58978240Y-49410000D01*
X58946252Y-49419703D01*
X58898478Y-49445239D01*
X58856604Y-49479604D01*
X58847991Y-49490099D01*
X58490094Y-49847996D01*
X58479605Y-49856604D01*
X58445240Y-49898478D01*
X58419829Y-49946019D01*
X58419704Y-49946252D01*
X58403979Y-49998090D01*
X58398669Y-50051999D01*
X58400000Y-50065511D01*
X58399999Y-50734498D01*
X58398669Y-50748001D01*
X58402960Y-50791559D01*
X58403979Y-50801909D01*
X58419703Y-50853747D01*
X58445239Y-50901522D01*
X58479604Y-50943396D01*
X58490099Y-50952009D01*
X65625001Y-58086912D01*
X65625000Y-60144671D01*
X65608719Y-60160952D01*
X65567680Y-60222371D01*
X65539411Y-60290617D01*
X65525000Y-60363066D01*
X65525000Y-60436934D01*
X65539411Y-60509383D01*
X65567680Y-60577629D01*
X65608719Y-60639048D01*
X65660952Y-60691281D01*
X65722371Y-60732320D01*
X65790617Y-60760589D01*
X65863066Y-60775000D01*
X65936934Y-60775000D01*
X66009383Y-60760589D01*
X66077629Y-60732320D01*
X66139048Y-60691281D01*
X66191281Y-60639048D01*
X66232320Y-60577629D01*
X66260589Y-60509383D01*
X66275000Y-60436934D01*
X66275000Y-60363066D01*
X66260589Y-60290617D01*
X66232320Y-60222371D01*
X66191281Y-60160952D01*
X66175000Y-60144671D01*
X66175000Y-57986496D01*
X66176329Y-57973001D01*
X66175000Y-57959506D01*
X66175000Y-57959499D01*
X66171020Y-57919093D01*
X66170877Y-57918619D01*
X66162826Y-57892079D01*
X66155296Y-57867255D01*
X66129760Y-57819481D01*
X66095395Y-57777607D01*
X66084906Y-57768999D01*
X58949999Y-50634093D01*
X58949999Y-50363066D01*
X59025000Y-50363066D01*
X59025000Y-50436934D01*
X59039411Y-50509383D01*
X59067680Y-50577629D01*
X59108719Y-50639048D01*
X59160952Y-50691281D01*
X59222371Y-50732320D01*
X59290617Y-50760589D01*
X59363066Y-50775000D01*
X59386092Y-50775000D01*
X63995997Y-55384906D01*
X64004605Y-55395395D01*
X64046479Y-55429760D01*
X64094253Y-55455296D01*
X64130366Y-55466250D01*
X64146090Y-55471020D01*
X64199999Y-55476330D01*
X64213502Y-55475000D01*
X64944671Y-55475000D01*
X64960952Y-55491281D01*
X65022371Y-55532320D01*
X65090617Y-55560589D01*
X65163066Y-55575000D01*
X65236934Y-55575000D01*
X65309383Y-55560589D01*
X65377629Y-55532320D01*
X65439048Y-55491281D01*
X65491281Y-55439048D01*
X65532320Y-55377629D01*
X65560589Y-55309383D01*
X65575000Y-55236934D01*
X65575000Y-55163066D01*
X65560589Y-55090617D01*
X65532320Y-55022371D01*
X65491281Y-54960952D01*
X65439048Y-54908719D01*
X65377629Y-54867680D01*
X65309383Y-54839411D01*
X65236934Y-54825000D01*
X65163066Y-54825000D01*
X65090617Y-54839411D01*
X65022371Y-54867680D01*
X64960952Y-54908719D01*
X64944671Y-54925000D01*
X64313909Y-54925000D01*
X59775000Y-50386092D01*
X59775000Y-50363066D01*
X59760589Y-50290617D01*
X59732320Y-50222371D01*
X59691281Y-50160952D01*
X59639048Y-50108719D01*
X59577629Y-50067680D01*
X59509383Y-50039411D01*
X59436934Y-50025000D01*
X59363066Y-50025000D01*
X59290617Y-50039411D01*
X59222371Y-50067680D01*
X59160952Y-50108719D01*
X59108719Y-50160952D01*
X59067680Y-50222371D01*
X59039411Y-50290617D01*
X59025000Y-50363066D01*
X58949999Y-50363066D01*
X58949999Y-50165907D01*
X59165907Y-49949999D01*
X59634093Y-49949999D01*
X59849186Y-50165092D01*
X59848671Y-50170319D01*
X59853981Y-50224228D01*
X59855822Y-50230297D01*
X59869705Y-50276065D01*
X59895241Y-50323840D01*
X59929606Y-50365714D01*
X59940101Y-50374327D01*
X61700680Y-52134907D01*
X61709288Y-52145396D01*
X61751162Y-52179761D01*
X61798936Y-52205297D01*
X61835049Y-52216251D01*
X61850773Y-52221021D01*
X61855837Y-52221520D01*
X61891180Y-52225001D01*
X61891187Y-52225001D01*
X61904682Y-52226330D01*
X61918177Y-52225001D01*
X63698498Y-52225001D01*
X63712001Y-52226331D01*
X63765910Y-52221021D01*
X63817748Y-52205297D01*
X63865522Y-52179761D01*
X63907396Y-52145396D01*
X63916009Y-52134901D01*
X64234906Y-51816005D01*
X64245396Y-51807396D01*
X64279761Y-51765522D01*
X64305297Y-51717748D01*
X64317078Y-51678908D01*
X64321021Y-51665911D01*
X64326331Y-51612002D01*
X64325001Y-51598499D01*
X64325001Y-50913513D01*
X64328980Y-50953909D01*
X64344705Y-51005747D01*
X64370241Y-51053521D01*
X64404606Y-51095395D01*
X64415095Y-51104003D01*
X64845996Y-51534905D01*
X64854605Y-51545395D01*
X64896479Y-51579760D01*
X64944253Y-51605296D01*
X64980366Y-51616250D01*
X64996090Y-51621020D01*
X65049999Y-51626330D01*
X65063502Y-51625000D01*
X65744671Y-51625000D01*
X65760952Y-51641281D01*
X65822371Y-51682320D01*
X65890617Y-51710589D01*
X65963066Y-51725000D01*
X66036934Y-51725000D01*
X66109383Y-51710589D01*
X66177629Y-51682320D01*
X66239048Y-51641281D01*
X66291281Y-51589048D01*
X66332320Y-51527629D01*
X66360589Y-51459383D01*
X66375000Y-51386934D01*
X66375000Y-51313066D01*
X66360589Y-51240617D01*
X66332320Y-51172371D01*
X66291281Y-51110952D01*
X66239048Y-51058719D01*
X66177629Y-51017680D01*
X66109383Y-50989411D01*
X66036934Y-50975000D01*
X65963066Y-50975000D01*
X65890617Y-50989411D01*
X65822371Y-51017680D01*
X65760952Y-51058719D01*
X65744671Y-51075000D01*
X65163909Y-51075000D01*
X64875000Y-50786092D01*
X64875000Y-48313494D01*
X64876329Y-48299999D01*
X64875000Y-48286504D01*
X64875000Y-48286497D01*
X64871020Y-48246091D01*
X64855296Y-48194253D01*
X64829760Y-48146479D01*
X64795395Y-48104605D01*
X64784905Y-48095996D01*
X64254008Y-47565100D01*
X64245395Y-47554605D01*
X64203521Y-47520240D01*
X64155747Y-47494704D01*
X64103909Y-47478980D01*
X64063503Y-47475000D01*
X64050000Y-47473670D01*
X64036497Y-47475000D01*
X63655329Y-47475000D01*
X63639048Y-47458719D01*
X63577629Y-47417680D01*
X63509383Y-47389411D01*
X63436934Y-47375000D01*
X63363066Y-47375000D01*
X63290617Y-47389411D01*
X63222371Y-47417680D01*
X63160952Y-47458719D01*
X63108719Y-47510952D01*
X63067680Y-47572371D01*
X63039411Y-47640617D01*
X63025000Y-47713066D01*
X63025000Y-47786934D01*
X63039411Y-47859383D01*
X63067680Y-47927629D01*
X63108719Y-47989048D01*
X63160952Y-48041281D01*
X63222371Y-48082320D01*
X63290617Y-48110589D01*
X63363066Y-48125000D01*
X63436934Y-48125000D01*
X63509383Y-48110589D01*
X63577629Y-48082320D01*
X63639048Y-48041281D01*
X63655329Y-48025000D01*
X63936092Y-48025000D01*
X64325000Y-48413909D01*
X64325000Y-48663502D01*
X64325001Y-48663512D01*
X64325000Y-49961491D01*
X64321021Y-49921091D01*
X64305297Y-49869253D01*
X64290345Y-49841281D01*
X64279761Y-49821480D01*
X64245396Y-49779606D01*
X64234906Y-49770997D01*
X63800000Y-49336092D01*
X63800000Y-49313066D01*
X63785589Y-49240617D01*
X63757320Y-49172371D01*
X63716281Y-49110952D01*
X63664048Y-49058719D01*
X63602629Y-49017680D01*
X63534383Y-48989411D01*
X63461934Y-48975000D01*
X63388066Y-48975000D01*
X63315617Y-48989411D01*
X63247371Y-49017680D01*
X63185952Y-49058719D01*
X63133719Y-49110952D01*
X63092680Y-49172371D01*
X63064411Y-49240617D01*
X63050000Y-49313066D01*
X63050000Y-49386934D01*
X63064411Y-49459383D01*
X63092680Y-49527629D01*
X63133719Y-49589048D01*
X63185952Y-49641281D01*
X63247371Y-49682320D01*
X63315617Y-49710589D01*
X63388066Y-49725000D01*
X63411092Y-49725000D01*
X63775001Y-50088910D01*
X63775002Y-51006253D01*
X63768956Y-50997205D01*
X63702795Y-50931044D01*
X63624997Y-50879061D01*
X63538552Y-50843254D01*
X63446783Y-50825000D01*
X63353217Y-50825000D01*
X63261448Y-50843254D01*
X63175003Y-50879061D01*
X63097205Y-50931044D01*
X63054249Y-50974000D01*
X62354000Y-50974000D01*
X62354000Y-50994000D01*
X61946000Y-50994000D01*
X61946000Y-50974000D01*
X61926000Y-50974000D01*
X61926000Y-50566000D01*
X61946000Y-50566000D01*
X61946000Y-49930865D01*
X62354000Y-49930865D01*
X62354000Y-50566000D01*
X63342670Y-50566000D01*
X63442591Y-50422085D01*
X63356683Y-50182289D01*
X63226526Y-50036206D01*
X63070371Y-49918322D01*
X62894218Y-49833167D01*
X62704837Y-49784014D01*
X62509505Y-49772752D01*
X62354000Y-49930865D01*
X61946000Y-49930865D01*
X61790495Y-49772752D01*
X61737364Y-49775815D01*
X61789048Y-49741281D01*
X61841281Y-49689048D01*
X61882320Y-49627629D01*
X61910589Y-49559383D01*
X61925000Y-49486934D01*
X61925000Y-49413066D01*
X61910589Y-49340617D01*
X61882320Y-49272371D01*
X61841281Y-49210952D01*
X61789048Y-49158719D01*
X61727629Y-49117680D01*
X61659383Y-49089411D01*
X61619979Y-49081573D01*
X61429970Y-48891565D01*
X61420263Y-48879737D01*
X61373060Y-48840998D01*
X61319206Y-48812212D01*
X61260770Y-48794486D01*
X61215220Y-48790000D01*
X61215210Y-48790000D01*
X61200000Y-48788502D01*
X61184790Y-48790000D01*
X58611033Y-48790000D01*
X58577629Y-48767680D01*
X58509383Y-48739411D01*
X58436934Y-48725000D01*
X58363066Y-48725000D01*
X58290617Y-48739411D01*
X58222371Y-48767680D01*
X58160952Y-48808719D01*
X58108719Y-48860952D01*
X58067680Y-48922371D01*
X58039411Y-48990617D01*
X58025000Y-49063066D01*
X55200000Y-49063066D01*
X55200000Y-40351999D01*
X58498669Y-40351999D01*
X58500000Y-40365511D01*
X58499999Y-41034498D01*
X58498669Y-41048001D01*
X58499999Y-41061503D01*
X58503979Y-41101909D01*
X58519703Y-41153747D01*
X58545239Y-41201522D01*
X58579604Y-41243396D01*
X58590099Y-41252009D01*
X66400000Y-49061911D01*
X66399999Y-55961496D01*
X66398669Y-55974999D01*
X66399999Y-55988501D01*
X66403979Y-56028907D01*
X66419703Y-56080745D01*
X66445239Y-56128520D01*
X66479604Y-56170394D01*
X66490099Y-56179007D01*
X67625000Y-57313909D01*
X67625000Y-57336934D01*
X67639411Y-57409383D01*
X67667680Y-57477629D01*
X67708719Y-57539048D01*
X67760952Y-57591281D01*
X67822371Y-57632320D01*
X67890617Y-57660589D01*
X67963066Y-57675000D01*
X68036934Y-57675000D01*
X68109383Y-57660589D01*
X68177629Y-57632320D01*
X68239048Y-57591281D01*
X68291281Y-57539048D01*
X68332320Y-57477629D01*
X68360589Y-57409383D01*
X68375000Y-57336934D01*
X68375000Y-57263066D01*
X68360589Y-57190617D01*
X68332320Y-57122371D01*
X68291281Y-57060952D01*
X68239048Y-57008719D01*
X68177629Y-56967680D01*
X68109383Y-56939411D01*
X68036934Y-56925000D01*
X68013909Y-56925000D01*
X66949999Y-55861091D01*
X66949999Y-48961503D01*
X66951329Y-48948000D01*
X66946019Y-48894091D01*
X66941249Y-48878367D01*
X66930295Y-48842254D01*
X66904759Y-48794480D01*
X66870394Y-48752606D01*
X66859905Y-48743998D01*
X59049999Y-40934093D01*
X59049999Y-40465907D01*
X59440907Y-40075000D01*
X61544671Y-40075000D01*
X61560952Y-40091281D01*
X61622371Y-40132320D01*
X61690617Y-40160589D01*
X61763066Y-40175000D01*
X61836934Y-40175000D01*
X61909383Y-40160589D01*
X61977629Y-40132320D01*
X62039048Y-40091281D01*
X62091281Y-40039048D01*
X62132320Y-39977629D01*
X62160589Y-39909383D01*
X62175000Y-39836934D01*
X62175000Y-39813908D01*
X64713909Y-37275000D01*
X70492203Y-37275000D01*
X70553368Y-37366541D01*
X70633459Y-37446632D01*
X70713330Y-37500000D01*
X70633459Y-37553368D01*
X70553368Y-37633459D01*
X70490442Y-37727635D01*
X70447097Y-37832279D01*
X70425000Y-37943367D01*
X70425000Y-38056633D01*
X70446479Y-38164612D01*
X68186092Y-40425000D01*
X67413503Y-40425000D01*
X67400000Y-40423670D01*
X67386498Y-40425000D01*
X59755329Y-40425000D01*
X59739048Y-40408719D01*
X59677629Y-40367680D01*
X59609383Y-40339411D01*
X59536934Y-40325000D01*
X59463066Y-40325000D01*
X59390617Y-40339411D01*
X59322371Y-40367680D01*
X59260952Y-40408719D01*
X59208719Y-40460952D01*
X59167680Y-40522371D01*
X59139411Y-40590617D01*
X59125000Y-40663066D01*
X59125000Y-40736934D01*
X59139411Y-40809383D01*
X59167680Y-40877629D01*
X59208719Y-40939048D01*
X59260952Y-40991281D01*
X59322371Y-41032320D01*
X59390617Y-41060589D01*
X59463066Y-41075000D01*
X59536934Y-41075000D01*
X59609383Y-41060589D01*
X59677629Y-41032320D01*
X59739048Y-40991281D01*
X59755329Y-40975000D01*
X67125001Y-40975000D01*
X67125000Y-52744671D01*
X67108719Y-52760952D01*
X67067680Y-52822371D01*
X67039411Y-52890617D01*
X67025000Y-52963066D01*
X67025000Y-53036934D01*
X67039411Y-53109383D01*
X67067680Y-53177629D01*
X67108719Y-53239048D01*
X67160952Y-53291281D01*
X67222371Y-53332320D01*
X67290617Y-53360589D01*
X67363066Y-53375000D01*
X67436934Y-53375000D01*
X67509383Y-53360589D01*
X67577629Y-53332320D01*
X67639048Y-53291281D01*
X67691281Y-53239048D01*
X67732320Y-53177629D01*
X67760589Y-53109383D01*
X67775000Y-53036934D01*
X67775000Y-52963066D01*
X67760589Y-52890617D01*
X67732320Y-52822371D01*
X67691281Y-52760952D01*
X67675000Y-52744671D01*
X67675000Y-41863066D01*
X67975000Y-41863066D01*
X67975000Y-41936934D01*
X67989411Y-42009383D01*
X68017680Y-42077629D01*
X68058719Y-42139048D01*
X68110952Y-42191281D01*
X68172371Y-42232320D01*
X68240617Y-42260589D01*
X68313066Y-42275000D01*
X68336092Y-42275000D01*
X75225001Y-49163910D01*
X75225000Y-50944671D01*
X75208719Y-50960952D01*
X75167680Y-51022371D01*
X75139411Y-51090617D01*
X75125000Y-51163066D01*
X75125000Y-51236934D01*
X75139411Y-51309383D01*
X75167680Y-51377629D01*
X75208719Y-51439048D01*
X75260952Y-51491281D01*
X75322371Y-51532320D01*
X75390617Y-51560589D01*
X75463066Y-51575000D01*
X75536934Y-51575000D01*
X75609383Y-51560589D01*
X75677629Y-51532320D01*
X75739048Y-51491281D01*
X75791281Y-51439048D01*
X75832320Y-51377629D01*
X75860589Y-51309383D01*
X75875000Y-51236934D01*
X75875000Y-51163066D01*
X75860589Y-51090617D01*
X75832320Y-51022371D01*
X75791281Y-50960952D01*
X75775000Y-50944671D01*
X75775000Y-49063503D01*
X75776330Y-49050000D01*
X75771020Y-48996090D01*
X75762879Y-48969252D01*
X75755296Y-48944253D01*
X75729760Y-48896479D01*
X75695395Y-48854605D01*
X75684906Y-48845997D01*
X68725000Y-41886092D01*
X68725000Y-41863066D01*
X68710589Y-41790617D01*
X68682320Y-41722371D01*
X68641281Y-41660952D01*
X68589048Y-41608719D01*
X68527629Y-41567680D01*
X68459383Y-41539411D01*
X68386934Y-41525000D01*
X68313066Y-41525000D01*
X68240617Y-41539411D01*
X68172371Y-41567680D01*
X68110952Y-41608719D01*
X68058719Y-41660952D01*
X68017680Y-41722371D01*
X67989411Y-41790617D01*
X67975000Y-41863066D01*
X67675000Y-41863066D01*
X67675000Y-40975000D01*
X68286497Y-40975000D01*
X68300000Y-40976330D01*
X68353909Y-40971020D01*
X68357156Y-40970035D01*
X68405747Y-40955296D01*
X68453521Y-40929760D01*
X68495395Y-40895395D01*
X68504008Y-40884900D01*
X70835388Y-38553521D01*
X70943367Y-38575000D01*
X71056633Y-38575000D01*
X71167721Y-38552903D01*
X71272365Y-38509558D01*
X71366541Y-38446632D01*
X71446632Y-38366541D01*
X71500000Y-38286670D01*
X71553368Y-38366541D01*
X71633459Y-38446632D01*
X71727635Y-38509558D01*
X71832279Y-38552903D01*
X71943367Y-38575000D01*
X72056633Y-38575000D01*
X72167721Y-38552903D01*
X72272365Y-38509558D01*
X72366541Y-38446632D01*
X72446632Y-38366541D01*
X72509558Y-38272365D01*
X72552903Y-38167721D01*
X72575000Y-38056633D01*
X72575000Y-37943367D01*
X72552903Y-37832279D01*
X72545695Y-37814878D01*
X72676379Y-37713318D01*
X72802544Y-37567657D01*
X72897868Y-37400181D01*
X72917847Y-37351916D01*
X72818460Y-37204000D01*
X72204000Y-37204000D01*
X72204000Y-37224000D01*
X71796000Y-37224000D01*
X71796000Y-37204000D01*
X71776000Y-37204000D01*
X71776000Y-36796000D01*
X71796000Y-36796000D01*
X71796000Y-36776000D01*
X72204000Y-36776000D01*
X72204000Y-36796000D01*
X72818460Y-36796000D01*
X72917847Y-36648084D01*
X72897868Y-36599819D01*
X72802544Y-36432343D01*
X72696576Y-36310000D01*
X72821595Y-36310000D01*
X74801593Y-38290000D01*
X72715210Y-38290000D01*
X72699999Y-38288502D01*
X72684789Y-38290000D01*
X72684780Y-38290000D01*
X72639230Y-38294486D01*
X72580794Y-38312212D01*
X72526940Y-38340998D01*
X72526938Y-38340999D01*
X72526939Y-38340999D01*
X72491558Y-38370035D01*
X72491554Y-38370039D01*
X72479737Y-38379737D01*
X72470038Y-38391555D01*
X70630022Y-40231573D01*
X70590617Y-40239411D01*
X70522371Y-40267680D01*
X70460952Y-40308719D01*
X70408719Y-40360952D01*
X70367680Y-40422371D01*
X70339411Y-40490617D01*
X70325000Y-40563066D01*
X70325000Y-40636934D01*
X70339411Y-40709383D01*
X70367680Y-40777629D01*
X70390000Y-40811034D01*
X70390001Y-41150465D01*
X70388502Y-41165685D01*
X70394487Y-41226455D01*
X70412212Y-41284890D01*
X70412213Y-41284891D01*
X70440999Y-41338745D01*
X70479738Y-41385948D01*
X70491561Y-41395651D01*
X76390000Y-47294092D01*
X76390001Y-55084780D01*
X76388502Y-55100000D01*
X76394487Y-55160770D01*
X76412212Y-55219205D01*
X76412213Y-55219206D01*
X76440999Y-55273060D01*
X76479738Y-55320263D01*
X76491561Y-55329966D01*
X80020038Y-58858445D01*
X80029737Y-58870263D01*
X80041554Y-58879961D01*
X80041558Y-58879965D01*
X80064169Y-58898521D01*
X80076940Y-58909002D01*
X80130794Y-58937788D01*
X80189230Y-58955514D01*
X80234780Y-58960000D01*
X80234789Y-58960000D01*
X80249999Y-58961498D01*
X80265210Y-58960000D01*
X81838967Y-58960000D01*
X81872371Y-58982320D01*
X81940617Y-59010589D01*
X82013066Y-59025000D01*
X82086934Y-59025000D01*
X82159383Y-59010589D01*
X82227629Y-58982320D01*
X82289048Y-58941281D01*
X82341281Y-58889048D01*
X82382320Y-58827629D01*
X82410589Y-58759383D01*
X82425000Y-58686934D01*
X82425000Y-58613066D01*
X82410589Y-58540617D01*
X82382320Y-58472371D01*
X82341281Y-58410952D01*
X82289048Y-58358719D01*
X82227629Y-58317680D01*
X82159383Y-58289411D01*
X82086934Y-58275000D01*
X82013066Y-58275000D01*
X81940617Y-58289411D01*
X81872371Y-58317680D01*
X81838967Y-58340000D01*
X80378407Y-58340000D01*
X77010000Y-54971595D01*
X77010000Y-53863066D01*
X85475000Y-53863066D01*
X85475000Y-53936934D01*
X85489411Y-54009383D01*
X85517680Y-54077629D01*
X85558719Y-54139048D01*
X85610952Y-54191281D01*
X85672371Y-54232320D01*
X85740617Y-54260589D01*
X85813066Y-54275000D01*
X85886934Y-54275000D01*
X85959383Y-54260589D01*
X86027629Y-54232320D01*
X86089048Y-54191281D01*
X86141281Y-54139048D01*
X86182320Y-54077629D01*
X86210589Y-54009383D01*
X86225000Y-53936934D01*
X86225000Y-53863066D01*
X86210589Y-53790617D01*
X86182320Y-53722371D01*
X86141281Y-53660952D01*
X86089048Y-53608719D01*
X86027629Y-53567680D01*
X85959383Y-53539411D01*
X85886934Y-53525000D01*
X85813066Y-53525000D01*
X85740617Y-53539411D01*
X85672371Y-53567680D01*
X85610952Y-53608719D01*
X85558719Y-53660952D01*
X85517680Y-53722371D01*
X85489411Y-53790617D01*
X85475000Y-53863066D01*
X77010000Y-53863066D01*
X77010000Y-51363066D01*
X84625000Y-51363066D01*
X84625000Y-51436934D01*
X84639411Y-51509383D01*
X84667680Y-51577629D01*
X84708719Y-51639048D01*
X84760952Y-51691281D01*
X84822371Y-51732320D01*
X84890617Y-51760589D01*
X84963066Y-51775000D01*
X84986091Y-51775000D01*
X85040092Y-51829001D01*
X85040098Y-51829006D01*
X93054898Y-59843807D01*
X93063506Y-59854296D01*
X93105380Y-59888661D01*
X93153154Y-59914197D01*
X93189267Y-59925151D01*
X93204991Y-59929921D01*
X93258900Y-59935231D01*
X93272403Y-59933901D01*
X110487596Y-59933901D01*
X110501099Y-59935231D01*
X110555008Y-59929921D01*
X110606846Y-59914197D01*
X110654620Y-59888661D01*
X110696494Y-59854296D01*
X110705107Y-59843801D01*
X110912487Y-59636421D01*
X113352079Y-59636421D01*
X113437048Y-59852013D01*
X113689756Y-59953773D01*
X113957461Y-60004277D01*
X114229875Y-60001586D01*
X114496529Y-59945799D01*
X114722952Y-59852013D01*
X114807921Y-59636421D01*
X114080000Y-58908500D01*
X113352079Y-59636421D01*
X110912487Y-59636421D01*
X111070197Y-59478711D01*
X111078164Y-59484034D01*
X111255603Y-59557532D01*
X111443971Y-59595000D01*
X111636029Y-59595000D01*
X111824397Y-59557532D01*
X112001836Y-59484034D01*
X112161527Y-59377332D01*
X112297332Y-59241527D01*
X112404034Y-59081836D01*
X112477532Y-58904397D01*
X112515000Y-58716029D01*
X112515000Y-58523971D01*
X112509727Y-58497461D01*
X112695723Y-58497461D01*
X112698414Y-58769875D01*
X112754201Y-59036529D01*
X112847987Y-59262952D01*
X113063579Y-59347921D01*
X113791500Y-58620000D01*
X114368500Y-58620000D01*
X115096421Y-59347921D01*
X115312013Y-59262952D01*
X115413773Y-59010244D01*
X115464277Y-58742539D01*
X115461586Y-58470125D01*
X115405799Y-58203471D01*
X115312013Y-57977048D01*
X115096421Y-57892079D01*
X114368500Y-58620000D01*
X113791500Y-58620000D01*
X113063579Y-57892079D01*
X112847987Y-57977048D01*
X112746227Y-58229756D01*
X112695723Y-58497461D01*
X112509727Y-58497461D01*
X112477532Y-58335603D01*
X112404034Y-58158164D01*
X112297332Y-57998473D01*
X112161527Y-57862668D01*
X112001836Y-57755966D01*
X111824397Y-57682468D01*
X111636029Y-57645000D01*
X111443971Y-57645000D01*
X111255603Y-57682468D01*
X111078164Y-57755966D01*
X110918473Y-57862668D01*
X110782668Y-57998473D01*
X110675966Y-58158164D01*
X110602468Y-58335603D01*
X110565000Y-58523971D01*
X110565000Y-58716029D01*
X110602468Y-58904397D01*
X110675966Y-59081836D01*
X110681289Y-59089803D01*
X110387191Y-59383901D01*
X109611696Y-59383901D01*
X109621527Y-59377332D01*
X109757332Y-59241527D01*
X109864034Y-59081836D01*
X109937532Y-58904397D01*
X109975000Y-58716029D01*
X109975000Y-58523971D01*
X109937532Y-58335603D01*
X109864034Y-58158164D01*
X109757332Y-57998473D01*
X109621527Y-57862668D01*
X109461836Y-57755966D01*
X109284397Y-57682468D01*
X109096029Y-57645000D01*
X108903971Y-57645000D01*
X108715603Y-57682468D01*
X108538164Y-57755966D01*
X108378473Y-57862668D01*
X108242668Y-57998473D01*
X108135966Y-58158164D01*
X108062468Y-58335603D01*
X108025000Y-58523971D01*
X108025000Y-58716029D01*
X108062468Y-58904397D01*
X108135966Y-59081836D01*
X108242668Y-59241527D01*
X108378473Y-59377332D01*
X108388304Y-59383901D01*
X93372810Y-59383901D01*
X85429006Y-51440098D01*
X85429001Y-51440092D01*
X85375000Y-51386091D01*
X85375000Y-51363066D01*
X85360589Y-51290617D01*
X85332320Y-51222371D01*
X85291281Y-51160952D01*
X85239048Y-51108719D01*
X85177629Y-51067680D01*
X85109383Y-51039411D01*
X85036934Y-51025000D01*
X84963066Y-51025000D01*
X84890617Y-51039411D01*
X84822371Y-51067680D01*
X84760952Y-51108719D01*
X84708719Y-51160952D01*
X84667680Y-51222371D01*
X84639411Y-51290617D01*
X84625000Y-51363066D01*
X77010000Y-51363066D01*
X77010000Y-47180894D01*
X77011498Y-47165684D01*
X77010000Y-47150474D01*
X77010000Y-47150465D01*
X77005514Y-47104915D01*
X76987788Y-47046479D01*
X76959002Y-46992625D01*
X76938530Y-46967680D01*
X76929965Y-46957243D01*
X76929961Y-46957239D01*
X76920263Y-46945422D01*
X76908447Y-46935725D01*
X71010000Y-41037280D01*
X71010000Y-40811033D01*
X71032320Y-40777629D01*
X71060589Y-40709383D01*
X71068427Y-40669978D01*
X72828407Y-38910000D01*
X75534789Y-38910000D01*
X75549999Y-38911498D01*
X75565209Y-38910000D01*
X75649275Y-38910000D01*
X75649275Y-39100000D01*
X75652171Y-39129405D01*
X75660748Y-39157680D01*
X75674677Y-39183738D01*
X75693421Y-39206579D01*
X75716262Y-39225323D01*
X75742320Y-39239252D01*
X75770595Y-39247829D01*
X75800000Y-39250725D01*
X76244807Y-39250725D01*
X76262212Y-39308105D01*
X76290999Y-39361960D01*
X76320035Y-39397340D01*
X86681139Y-49758445D01*
X86690837Y-49770263D01*
X86702654Y-49779961D01*
X86702658Y-49779965D01*
X86722781Y-49796479D01*
X86738040Y-49809002D01*
X86791894Y-49837788D01*
X86850330Y-49855514D01*
X86895880Y-49860000D01*
X86895889Y-49860000D01*
X86911099Y-49861498D01*
X86926310Y-49860000D01*
X89788967Y-49860000D01*
X89822371Y-49882320D01*
X89890617Y-49910589D01*
X89930022Y-49918427D01*
X90170033Y-50158439D01*
X90179736Y-50170262D01*
X90191563Y-50179968D01*
X91220034Y-51208440D01*
X91229737Y-51220263D01*
X91254538Y-51240617D01*
X91276940Y-51259002D01*
X91330794Y-51287788D01*
X91389230Y-51305514D01*
X91450000Y-51311499D01*
X91465220Y-51310000D01*
X108024275Y-51310000D01*
X108024275Y-51763901D01*
X87931674Y-51763901D01*
X81532872Y-45365100D01*
X81524259Y-45354605D01*
X81482385Y-45320240D01*
X81434611Y-45294704D01*
X81382773Y-45278980D01*
X81342367Y-45275000D01*
X81328864Y-45273670D01*
X81315361Y-45275000D01*
X79455329Y-45275000D01*
X79439048Y-45258719D01*
X79377629Y-45217680D01*
X79309383Y-45189411D01*
X79236934Y-45175000D01*
X79163066Y-45175000D01*
X79090617Y-45189411D01*
X79022371Y-45217680D01*
X78960952Y-45258719D01*
X78908719Y-45310952D01*
X78867680Y-45372371D01*
X78839411Y-45440617D01*
X78825000Y-45513066D01*
X78825000Y-45586934D01*
X78839411Y-45659383D01*
X78867680Y-45727629D01*
X78908719Y-45789048D01*
X78960952Y-45841281D01*
X79022371Y-45882320D01*
X79090617Y-45910589D01*
X79163066Y-45925000D01*
X79236934Y-45925000D01*
X79309383Y-45910589D01*
X79377629Y-45882320D01*
X79439048Y-45841281D01*
X79455329Y-45825000D01*
X81214956Y-45825000D01*
X82414956Y-47025000D01*
X81605329Y-47025000D01*
X81589048Y-47008719D01*
X81527629Y-46967680D01*
X81459383Y-46939411D01*
X81386934Y-46925000D01*
X81313066Y-46925000D01*
X81240617Y-46939411D01*
X81172371Y-46967680D01*
X81110952Y-47008719D01*
X81058719Y-47060952D01*
X81017680Y-47122371D01*
X80989411Y-47190617D01*
X80975000Y-47263066D01*
X80975000Y-47336934D01*
X80989411Y-47409383D01*
X81017680Y-47477629D01*
X81058719Y-47539048D01*
X81110952Y-47591281D01*
X81172371Y-47632320D01*
X81240617Y-47660589D01*
X81313066Y-47675000D01*
X81386934Y-47675000D01*
X81459383Y-47660589D01*
X81527629Y-47632320D01*
X81589048Y-47591281D01*
X81605329Y-47575000D01*
X82485666Y-47575000D01*
X83398507Y-48487841D01*
X83390617Y-48489411D01*
X83322371Y-48517680D01*
X83260952Y-48558719D01*
X83208719Y-48610952D01*
X83167680Y-48672371D01*
X83139411Y-48740617D01*
X83125000Y-48813066D01*
X83125000Y-48886934D01*
X83139411Y-48959383D01*
X83167680Y-49027629D01*
X83208719Y-49089048D01*
X83260952Y-49141281D01*
X83322371Y-49182320D01*
X83390617Y-49210589D01*
X83463066Y-49225000D01*
X83486091Y-49225000D01*
X83540092Y-49279001D01*
X83540098Y-49279006D01*
X91564898Y-57303807D01*
X91573506Y-57314296D01*
X91615380Y-57348661D01*
X91663154Y-57374197D01*
X91699267Y-57385151D01*
X91714991Y-57389921D01*
X91768900Y-57395231D01*
X91782403Y-57393901D01*
X110487596Y-57393901D01*
X110501099Y-57395231D01*
X110555008Y-57389921D01*
X110606846Y-57374197D01*
X110654620Y-57348661D01*
X110696494Y-57314296D01*
X110705107Y-57303801D01*
X110912487Y-57096421D01*
X113352079Y-57096421D01*
X113437048Y-57312013D01*
X113530052Y-57349464D01*
X113437048Y-57387987D01*
X113352079Y-57603579D01*
X114080000Y-58331500D01*
X114807921Y-57603579D01*
X114722952Y-57387987D01*
X114629948Y-57350536D01*
X114722952Y-57312013D01*
X114807921Y-57096421D01*
X114080000Y-56368500D01*
X113352079Y-57096421D01*
X110912487Y-57096421D01*
X111070197Y-56938711D01*
X111078164Y-56944034D01*
X111255603Y-57017532D01*
X111443971Y-57055000D01*
X111636029Y-57055000D01*
X111824397Y-57017532D01*
X112001836Y-56944034D01*
X112161527Y-56837332D01*
X112297332Y-56701527D01*
X112404034Y-56541836D01*
X112477532Y-56364397D01*
X112515000Y-56176029D01*
X112515000Y-55983971D01*
X112509727Y-55957461D01*
X112695723Y-55957461D01*
X112698414Y-56229875D01*
X112754201Y-56496529D01*
X112847987Y-56722952D01*
X113063579Y-56807921D01*
X113791500Y-56080000D01*
X114368500Y-56080000D01*
X115096421Y-56807921D01*
X115312013Y-56722952D01*
X115413773Y-56470244D01*
X115464277Y-56202539D01*
X115461586Y-55930125D01*
X115405799Y-55663471D01*
X115312013Y-55437048D01*
X115096421Y-55352079D01*
X114368500Y-56080000D01*
X113791500Y-56080000D01*
X113063579Y-55352079D01*
X112847987Y-55437048D01*
X112746227Y-55689756D01*
X112695723Y-55957461D01*
X112509727Y-55957461D01*
X112477532Y-55795603D01*
X112404034Y-55618164D01*
X112297332Y-55458473D01*
X112161527Y-55322668D01*
X112001836Y-55215966D01*
X111824397Y-55142468D01*
X111636029Y-55105000D01*
X111443971Y-55105000D01*
X111255603Y-55142468D01*
X111078164Y-55215966D01*
X110918473Y-55322668D01*
X110782668Y-55458473D01*
X110675966Y-55618164D01*
X110602468Y-55795603D01*
X110565000Y-55983971D01*
X110565000Y-56176029D01*
X110602468Y-56364397D01*
X110675966Y-56541836D01*
X110681289Y-56549803D01*
X110387191Y-56843901D01*
X109611696Y-56843901D01*
X109621527Y-56837332D01*
X109757332Y-56701527D01*
X109864034Y-56541836D01*
X109937532Y-56364397D01*
X109975000Y-56176029D01*
X109975000Y-55983971D01*
X109937532Y-55795603D01*
X109864034Y-55618164D01*
X109757332Y-55458473D01*
X109621527Y-55322668D01*
X109461836Y-55215966D01*
X109284397Y-55142468D01*
X109096029Y-55105000D01*
X108903971Y-55105000D01*
X108715603Y-55142468D01*
X108538164Y-55215966D01*
X108378473Y-55322668D01*
X108242668Y-55458473D01*
X108135966Y-55618164D01*
X108062468Y-55795603D01*
X108025000Y-55983971D01*
X108025000Y-56176029D01*
X108062468Y-56364397D01*
X108135966Y-56541836D01*
X108242668Y-56701527D01*
X108378473Y-56837332D01*
X108388304Y-56843901D01*
X91882810Y-56843901D01*
X89892810Y-54853901D01*
X110487596Y-54853901D01*
X110501099Y-54855231D01*
X110555008Y-54849921D01*
X110606846Y-54834197D01*
X110654620Y-54808661D01*
X110696494Y-54774296D01*
X110705107Y-54763801D01*
X110912487Y-54556421D01*
X113352079Y-54556421D01*
X113437048Y-54772013D01*
X113530052Y-54809464D01*
X113437048Y-54847987D01*
X113352079Y-55063579D01*
X114080000Y-55791500D01*
X114807921Y-55063579D01*
X114722952Y-54847987D01*
X114629948Y-54810536D01*
X114722952Y-54772013D01*
X114807921Y-54556421D01*
X114080000Y-53828500D01*
X113352079Y-54556421D01*
X110912487Y-54556421D01*
X110919003Y-54549906D01*
X110919007Y-54549901D01*
X111070197Y-54398711D01*
X111078164Y-54404034D01*
X111255603Y-54477532D01*
X111443971Y-54515000D01*
X111636029Y-54515000D01*
X111824397Y-54477532D01*
X112001836Y-54404034D01*
X112161527Y-54297332D01*
X112297332Y-54161527D01*
X112404034Y-54001836D01*
X112477532Y-53824397D01*
X112515000Y-53636029D01*
X112515000Y-53443971D01*
X112509727Y-53417461D01*
X112695723Y-53417461D01*
X112698414Y-53689875D01*
X112754201Y-53956529D01*
X112847987Y-54182952D01*
X113063579Y-54267921D01*
X113791500Y-53540000D01*
X114368500Y-53540000D01*
X115096421Y-54267921D01*
X115312013Y-54182952D01*
X115413773Y-53930244D01*
X115464277Y-53662539D01*
X115461586Y-53390125D01*
X115405799Y-53123471D01*
X115312013Y-52897048D01*
X115096421Y-52812079D01*
X114368500Y-53540000D01*
X113791500Y-53540000D01*
X113063579Y-52812079D01*
X112847987Y-52897048D01*
X112746227Y-53149756D01*
X112695723Y-53417461D01*
X112509727Y-53417461D01*
X112477532Y-53255603D01*
X112404034Y-53078164D01*
X112297332Y-52918473D01*
X112161527Y-52782668D01*
X112001836Y-52675966D01*
X111824397Y-52602468D01*
X111636029Y-52565000D01*
X111443971Y-52565000D01*
X111255603Y-52602468D01*
X111078164Y-52675966D01*
X110918473Y-52782668D01*
X110782668Y-52918473D01*
X110675966Y-53078164D01*
X110602468Y-53255603D01*
X110565000Y-53443971D01*
X110565000Y-53636029D01*
X110602468Y-53824397D01*
X110675966Y-54001836D01*
X110681289Y-54009803D01*
X110530099Y-54160993D01*
X110530094Y-54160997D01*
X110387191Y-54303901D01*
X109611696Y-54303901D01*
X109621527Y-54297332D01*
X109757332Y-54161527D01*
X109864034Y-54001836D01*
X109937532Y-53824397D01*
X109975000Y-53636029D01*
X109975000Y-53443971D01*
X109937532Y-53255603D01*
X109864034Y-53078164D01*
X109757332Y-52918473D01*
X109621527Y-52782668D01*
X109461836Y-52675966D01*
X109284397Y-52602468D01*
X109096029Y-52565000D01*
X108903971Y-52565000D01*
X108715603Y-52602468D01*
X108538164Y-52675966D01*
X108378473Y-52782668D01*
X108242668Y-52918473D01*
X108135966Y-53078164D01*
X108062468Y-53255603D01*
X108025000Y-53443971D01*
X108025000Y-53636029D01*
X108062468Y-53824397D01*
X108135966Y-54001836D01*
X108242668Y-54161527D01*
X108378473Y-54297332D01*
X108388304Y-54303901D01*
X89992383Y-54303901D01*
X88002383Y-52313901D01*
X110487596Y-52313901D01*
X110501099Y-52315231D01*
X110555008Y-52309921D01*
X110606846Y-52294197D01*
X110654620Y-52268661D01*
X110696494Y-52234296D01*
X110705107Y-52223801D01*
X110912487Y-52016421D01*
X113352079Y-52016421D01*
X113437048Y-52232013D01*
X113530052Y-52269464D01*
X113437048Y-52307987D01*
X113352079Y-52523579D01*
X114080000Y-53251500D01*
X114807921Y-52523579D01*
X114722952Y-52307987D01*
X114629948Y-52270536D01*
X114722952Y-52232013D01*
X114807921Y-52016421D01*
X114080000Y-51288500D01*
X113352079Y-52016421D01*
X110912487Y-52016421D01*
X111070197Y-51858711D01*
X111078164Y-51864034D01*
X111255603Y-51937532D01*
X111443971Y-51975000D01*
X111636029Y-51975000D01*
X111824397Y-51937532D01*
X112001836Y-51864034D01*
X112161527Y-51757332D01*
X112297332Y-51621527D01*
X112404034Y-51461836D01*
X112477532Y-51284397D01*
X112515000Y-51096029D01*
X112515000Y-50903971D01*
X112509727Y-50877461D01*
X112695723Y-50877461D01*
X112698414Y-51149875D01*
X112754201Y-51416529D01*
X112847987Y-51642952D01*
X113063579Y-51727921D01*
X113791500Y-51000000D01*
X114368500Y-51000000D01*
X115096421Y-51727921D01*
X115312013Y-51642952D01*
X115413773Y-51390244D01*
X115464277Y-51122539D01*
X115461586Y-50850125D01*
X115405799Y-50583471D01*
X115312013Y-50357048D01*
X115096421Y-50272079D01*
X114368500Y-51000000D01*
X113791500Y-51000000D01*
X113063579Y-50272079D01*
X112847987Y-50357048D01*
X112746227Y-50609756D01*
X112695723Y-50877461D01*
X112509727Y-50877461D01*
X112477532Y-50715603D01*
X112404034Y-50538164D01*
X112297332Y-50378473D01*
X112161527Y-50242668D01*
X112001836Y-50135966D01*
X111824397Y-50062468D01*
X111636029Y-50025000D01*
X111443971Y-50025000D01*
X111255603Y-50062468D01*
X111078164Y-50135966D01*
X110918473Y-50242668D01*
X110782668Y-50378473D01*
X110675966Y-50538164D01*
X110602468Y-50715603D01*
X110565000Y-50903971D01*
X110565000Y-51096029D01*
X110602468Y-51284397D01*
X110675966Y-51461836D01*
X110681289Y-51469803D01*
X110387191Y-51763901D01*
X109975725Y-51763901D01*
X109975725Y-50175000D01*
X109972829Y-50145595D01*
X109964252Y-50117320D01*
X109950323Y-50091262D01*
X109931579Y-50068421D01*
X109908738Y-50049677D01*
X109882680Y-50035748D01*
X109854405Y-50027171D01*
X109825000Y-50024275D01*
X108175000Y-50024275D01*
X108145595Y-50027171D01*
X108117320Y-50035748D01*
X108091262Y-50049677D01*
X108068421Y-50068421D01*
X108049677Y-50091262D01*
X108035748Y-50117320D01*
X108027171Y-50145595D01*
X108024275Y-50175000D01*
X108024275Y-50690000D01*
X91578406Y-50690000D01*
X91148405Y-50259999D01*
X97238223Y-50259999D01*
X97283773Y-50255513D01*
X97342209Y-50237787D01*
X97396063Y-50209001D01*
X97443266Y-50170262D01*
X97482005Y-50123059D01*
X97510791Y-50069205D01*
X97518666Y-50043244D01*
X97578331Y-49983579D01*
X113352079Y-49983579D01*
X114080000Y-50711500D01*
X114807921Y-49983579D01*
X114722952Y-49767987D01*
X114470244Y-49666227D01*
X114202539Y-49615723D01*
X113930125Y-49618414D01*
X113663471Y-49674201D01*
X113437048Y-49767987D01*
X113352079Y-49983579D01*
X97578331Y-49983579D01*
X98159906Y-49402005D01*
X98170396Y-49393396D01*
X98204761Y-49351522D01*
X98230297Y-49303748D01*
X98246021Y-49251910D01*
X98250001Y-49211504D01*
X98250001Y-49211503D01*
X98251331Y-49198001D01*
X98250001Y-49184498D01*
X98250001Y-45000510D01*
X111849785Y-45000510D01*
X111849785Y-46999490D01*
X111852681Y-47028895D01*
X111861258Y-47057170D01*
X111875187Y-47083228D01*
X111893931Y-47106069D01*
X111916772Y-47124813D01*
X111942830Y-47138742D01*
X111971105Y-47147319D01*
X112000510Y-47150215D01*
X113999490Y-47150215D01*
X114028895Y-47147319D01*
X114057170Y-47138742D01*
X114083228Y-47124813D01*
X114106069Y-47106069D01*
X114124813Y-47083228D01*
X114138742Y-47057170D01*
X114147319Y-47028895D01*
X114150215Y-46999490D01*
X114150215Y-45000510D01*
X114147319Y-44971105D01*
X114138742Y-44942830D01*
X114124813Y-44916772D01*
X114106069Y-44893931D01*
X114083228Y-44875187D01*
X114057170Y-44861258D01*
X114028895Y-44852681D01*
X113999490Y-44849785D01*
X112000510Y-44849785D01*
X111971105Y-44852681D01*
X111942830Y-44861258D01*
X111916772Y-44875187D01*
X111893931Y-44893931D01*
X111875187Y-44916772D01*
X111861258Y-44942830D01*
X111852681Y-44971105D01*
X111849785Y-45000510D01*
X98250001Y-45000510D01*
X98250001Y-44418130D01*
X98262789Y-44394206D01*
X98280514Y-44335771D01*
X98286499Y-44275000D01*
X98280514Y-44214230D01*
X98262789Y-44155795D01*
X98234002Y-44101940D01*
X98204966Y-44066559D01*
X97470281Y-43331874D01*
X112146625Y-43331874D01*
X112252989Y-43565239D01*
X112535639Y-43684548D01*
X112836133Y-43746423D01*
X113142925Y-43748486D01*
X113444224Y-43690657D01*
X113728452Y-43575159D01*
X113747011Y-43565239D01*
X113853375Y-43331874D01*
X113000000Y-42478500D01*
X112146625Y-43331874D01*
X97470281Y-43331874D01*
X96471331Y-42332925D01*
X111441514Y-42332925D01*
X111499343Y-42634224D01*
X111614841Y-42918452D01*
X111624761Y-42937011D01*
X111858126Y-43043375D01*
X112711500Y-42190000D01*
X113288500Y-42190000D01*
X114141874Y-43043375D01*
X114375239Y-42937011D01*
X114494548Y-42654361D01*
X114556423Y-42353867D01*
X114558486Y-42047075D01*
X114500657Y-41745776D01*
X114385159Y-41461548D01*
X114375239Y-41442989D01*
X114141874Y-41336625D01*
X113288500Y-42190000D01*
X112711500Y-42190000D01*
X111858126Y-41336625D01*
X111624761Y-41442989D01*
X111505452Y-41725639D01*
X111443577Y-42026133D01*
X111441514Y-42332925D01*
X96471331Y-42332925D01*
X95186532Y-41048126D01*
X112146625Y-41048126D01*
X113000000Y-41901500D01*
X113853375Y-41048126D01*
X113747011Y-40814761D01*
X113464361Y-40695452D01*
X113163867Y-40633577D01*
X112857075Y-40631514D01*
X112555776Y-40689343D01*
X112271548Y-40804841D01*
X112252989Y-40814761D01*
X112146625Y-41048126D01*
X95186532Y-41048126D01*
X95129971Y-40991566D01*
X95120263Y-40979737D01*
X95073060Y-40940998D01*
X95019206Y-40912212D01*
X94960770Y-40894486D01*
X94915220Y-40890000D01*
X94915210Y-40890000D01*
X94900000Y-40888502D01*
X94884790Y-40890000D01*
X92811033Y-40890000D01*
X92777629Y-40867680D01*
X92709383Y-40839411D01*
X92636934Y-40825000D01*
X92563066Y-40825000D01*
X92490617Y-40839411D01*
X92422371Y-40867680D01*
X92360952Y-40908719D01*
X92308719Y-40960952D01*
X92267680Y-41022371D01*
X92239411Y-41090617D01*
X92225000Y-41163066D01*
X92225000Y-41236934D01*
X92239411Y-41309383D01*
X92267680Y-41377629D01*
X92308719Y-41439048D01*
X92360952Y-41491281D01*
X92422371Y-41532320D01*
X92490617Y-41560589D01*
X92563066Y-41575000D01*
X92636934Y-41575000D01*
X92709383Y-41560589D01*
X92777629Y-41532320D01*
X92811033Y-41510000D01*
X94771595Y-41510000D01*
X97700002Y-44438409D01*
X97700001Y-49084092D01*
X97144095Y-49639999D01*
X90528405Y-49639999D01*
X90368427Y-49480022D01*
X90360589Y-49440617D01*
X90332320Y-49372371D01*
X90291281Y-49310952D01*
X90239048Y-49258719D01*
X90177629Y-49217680D01*
X90109383Y-49189411D01*
X90036934Y-49175000D01*
X89963066Y-49175000D01*
X89890617Y-49189411D01*
X89822371Y-49217680D01*
X89788967Y-49240000D01*
X87039507Y-49240000D01*
X77050230Y-39250725D01*
X77300000Y-39250725D01*
X77329405Y-39247829D01*
X77357680Y-39239252D01*
X77383738Y-39225323D01*
X77406579Y-39206579D01*
X77425323Y-39183738D01*
X77439252Y-39157680D01*
X77447829Y-39129405D01*
X77450725Y-39100000D01*
X77450725Y-38663066D01*
X79175000Y-38663066D01*
X79175000Y-38736934D01*
X79189411Y-38809383D01*
X79217680Y-38877629D01*
X79258719Y-38939048D01*
X79310952Y-38991281D01*
X79372371Y-39032320D01*
X79440617Y-39060589D01*
X79513066Y-39075000D01*
X79586934Y-39075000D01*
X79659383Y-39060589D01*
X79727629Y-39032320D01*
X79789048Y-38991281D01*
X79841281Y-38939048D01*
X79882320Y-38877629D01*
X79883409Y-38875000D01*
X80549275Y-38875000D01*
X80549275Y-39100000D01*
X80552171Y-39129405D01*
X80560748Y-39157680D01*
X80574677Y-39183738D01*
X80593421Y-39206579D01*
X80616262Y-39225323D01*
X80642320Y-39239252D01*
X80670595Y-39247829D01*
X80700000Y-39250725D01*
X82200000Y-39250725D01*
X82229405Y-39247829D01*
X82257680Y-39239252D01*
X82283738Y-39225323D01*
X82306579Y-39206579D01*
X82325323Y-39183738D01*
X82339252Y-39157680D01*
X82347829Y-39129405D01*
X82350725Y-39100000D01*
X82350725Y-38500000D01*
X83849275Y-38500000D01*
X83849275Y-39500000D01*
X83852171Y-39529405D01*
X83860748Y-39557680D01*
X83874677Y-39583738D01*
X83893421Y-39606579D01*
X83916262Y-39625323D01*
X83942320Y-39639252D01*
X83970595Y-39647829D01*
X84000000Y-39650725D01*
X87200000Y-39650725D01*
X87229405Y-39647829D01*
X87257680Y-39639252D01*
X87283738Y-39625323D01*
X87306579Y-39606579D01*
X87325323Y-39583738D01*
X87339252Y-39557680D01*
X87347829Y-39529405D01*
X87350725Y-39500000D01*
X87350725Y-38500000D01*
X87347829Y-38470595D01*
X87339252Y-38442320D01*
X87325323Y-38416262D01*
X87306579Y-38393421D01*
X87283738Y-38374677D01*
X87257680Y-38360748D01*
X87229405Y-38352171D01*
X87200000Y-38349275D01*
X84000000Y-38349275D01*
X83970595Y-38352171D01*
X83942320Y-38360748D01*
X83916262Y-38374677D01*
X83893421Y-38393421D01*
X83874677Y-38416262D01*
X83860748Y-38442320D01*
X83852171Y-38470595D01*
X83849275Y-38500000D01*
X82350725Y-38500000D01*
X82350725Y-38100000D01*
X82347829Y-38070595D01*
X82339252Y-38042320D01*
X82325323Y-38016262D01*
X82306579Y-37993421D01*
X82283738Y-37974677D01*
X82257680Y-37960748D01*
X82229405Y-37952171D01*
X82200000Y-37949275D01*
X80700000Y-37949275D01*
X80670595Y-37952171D01*
X80642320Y-37960748D01*
X80616262Y-37974677D01*
X80593421Y-37993421D01*
X80574677Y-38016262D01*
X80560748Y-38042320D01*
X80552171Y-38070595D01*
X80549275Y-38100000D01*
X80549275Y-38325000D01*
X79663502Y-38325000D01*
X79649999Y-38323670D01*
X79603348Y-38328265D01*
X79586934Y-38325000D01*
X79513066Y-38325000D01*
X79440617Y-38339411D01*
X79372371Y-38367680D01*
X79310952Y-38408719D01*
X79258719Y-38460952D01*
X79217680Y-38522371D01*
X79189411Y-38590617D01*
X79175000Y-38663066D01*
X77450725Y-38663066D01*
X77450725Y-38100000D01*
X77447829Y-38070595D01*
X77439252Y-38042320D01*
X77425323Y-38016262D01*
X77406579Y-37993421D01*
X77383738Y-37974677D01*
X77357680Y-37960748D01*
X77329405Y-37952171D01*
X77300000Y-37949275D01*
X75800000Y-37949275D01*
X75770595Y-37952171D01*
X75742320Y-37960748D01*
X75716262Y-37974677D01*
X75693421Y-37993421D01*
X75674677Y-38016262D01*
X75660748Y-38042320D01*
X75652171Y-38070595D01*
X75649275Y-38100000D01*
X75649275Y-38260868D01*
X74324387Y-36935981D01*
X83750000Y-36935981D01*
X83750000Y-37064019D01*
X83774979Y-37189598D01*
X83823978Y-37307890D01*
X83895112Y-37414351D01*
X83985649Y-37504888D01*
X84092110Y-37576022D01*
X84210402Y-37625021D01*
X84335981Y-37650000D01*
X84464019Y-37650000D01*
X84589598Y-37625021D01*
X84707890Y-37576022D01*
X84814351Y-37504888D01*
X84904888Y-37414351D01*
X84976022Y-37307890D01*
X85025021Y-37189598D01*
X85050000Y-37064019D01*
X85050000Y-36935981D01*
X85025021Y-36810402D01*
X84976022Y-36692110D01*
X84904888Y-36585649D01*
X84814351Y-36495112D01*
X84707890Y-36423978D01*
X84589598Y-36374979D01*
X84464019Y-36350000D01*
X84335981Y-36350000D01*
X84210402Y-36374979D01*
X84092110Y-36423978D01*
X83985649Y-36495112D01*
X83895112Y-36585649D01*
X83823978Y-36692110D01*
X83774979Y-36810402D01*
X83750000Y-36935981D01*
X74324387Y-36935981D01*
X73179971Y-35791566D01*
X73170263Y-35779737D01*
X73123060Y-35740998D01*
X73069206Y-35712212D01*
X73010770Y-35694486D01*
X72965220Y-35690000D01*
X72965210Y-35690000D01*
X72950000Y-35688502D01*
X72934790Y-35690000D01*
X72484411Y-35690000D01*
X72446632Y-35633459D01*
X72366541Y-35553368D01*
X72272365Y-35490442D01*
X72167721Y-35447097D01*
X72056633Y-35425000D01*
X71943367Y-35425000D01*
X71832279Y-35447097D01*
X71727635Y-35490442D01*
X71633459Y-35553368D01*
X71575725Y-35611102D01*
X71575725Y-35575000D01*
X71572829Y-35545595D01*
X71564252Y-35517320D01*
X71550323Y-35491262D01*
X71531579Y-35468421D01*
X71508738Y-35449677D01*
X71482680Y-35435748D01*
X71454405Y-35427171D01*
X71425000Y-35424275D01*
X70575000Y-35424275D01*
X70545595Y-35427171D01*
X70517320Y-35435748D01*
X70491262Y-35449677D01*
X70468421Y-35468421D01*
X70449677Y-35491262D01*
X70435748Y-35517320D01*
X70427171Y-35545595D01*
X70424275Y-35575000D01*
X70424275Y-36425000D01*
X70427171Y-36454405D01*
X70435748Y-36482680D01*
X70449677Y-36508738D01*
X70468421Y-36531579D01*
X70491262Y-36550323D01*
X70517320Y-36564252D01*
X70545595Y-36572829D01*
X70575000Y-36575725D01*
X70611102Y-36575725D01*
X70553368Y-36633459D01*
X70492203Y-36725000D01*
X64613503Y-36725000D01*
X64600000Y-36723670D01*
X64546090Y-36728980D01*
X64530366Y-36733750D01*
X64494253Y-36744704D01*
X64446479Y-36770240D01*
X64404605Y-36804605D01*
X64395997Y-36815094D01*
X61786092Y-39425000D01*
X61763066Y-39425000D01*
X61690617Y-39439411D01*
X61622371Y-39467680D01*
X61560952Y-39508719D01*
X61544671Y-39525000D01*
X59340492Y-39525000D01*
X59326997Y-39523671D01*
X59313502Y-39525000D01*
X59313495Y-39525000D01*
X59278152Y-39528481D01*
X59273088Y-39528980D01*
X59257364Y-39533750D01*
X59221251Y-39544704D01*
X59173477Y-39570240D01*
X59131603Y-39604605D01*
X59122995Y-39615094D01*
X58590094Y-40147996D01*
X58579605Y-40156604D01*
X58545240Y-40198478D01*
X58531064Y-40225000D01*
X58519704Y-40246252D01*
X58503979Y-40298090D01*
X58498669Y-40351999D01*
X55200000Y-40351999D01*
X55200000Y-34837489D01*
X56350000Y-34837489D01*
X56350000Y-35162511D01*
X56413408Y-35481287D01*
X56537789Y-35781568D01*
X56718361Y-36051814D01*
X56948186Y-36281639D01*
X57218432Y-36462211D01*
X57518713Y-36586592D01*
X57837489Y-36650000D01*
X58162511Y-36650000D01*
X58481287Y-36586592D01*
X58781568Y-36462211D01*
X59051814Y-36281639D01*
X59281639Y-36051814D01*
X59462211Y-35781568D01*
X59586592Y-35481287D01*
X59650000Y-35162511D01*
X59650000Y-34900000D01*
X75649275Y-34900000D01*
X75649275Y-35900000D01*
X75652171Y-35929405D01*
X75660748Y-35957680D01*
X75674677Y-35983738D01*
X75693421Y-36006579D01*
X75716262Y-36025323D01*
X75742320Y-36039252D01*
X75770595Y-36047829D01*
X75800000Y-36050725D01*
X77300000Y-36050725D01*
X77329405Y-36047829D01*
X77357680Y-36039252D01*
X77383738Y-36025323D01*
X77406579Y-36006579D01*
X77425323Y-35983738D01*
X77439252Y-35957680D01*
X77447829Y-35929405D01*
X77450725Y-35900000D01*
X80139300Y-35900000D01*
X80150074Y-36009387D01*
X80181981Y-36114571D01*
X80233795Y-36211508D01*
X80303525Y-36296475D01*
X80388492Y-36366205D01*
X80485429Y-36418019D01*
X80590613Y-36449926D01*
X80700000Y-36460700D01*
X81106500Y-36458000D01*
X81246000Y-36318500D01*
X81246000Y-35604000D01*
X81654000Y-35604000D01*
X81654000Y-36318500D01*
X81793500Y-36458000D01*
X82200000Y-36460700D01*
X82309387Y-36449926D01*
X82414571Y-36418019D01*
X82511508Y-36366205D01*
X82596475Y-36296475D01*
X82666205Y-36211508D01*
X82718019Y-36114571D01*
X82749926Y-36009387D01*
X82760700Y-35900000D01*
X82758000Y-35743500D01*
X82725600Y-35711100D01*
X89723670Y-35711100D01*
X89725001Y-35724613D01*
X89725000Y-43636497D01*
X89723670Y-43650000D01*
X89725000Y-43663502D01*
X89728980Y-43703908D01*
X89744704Y-43755746D01*
X89770240Y-43803521D01*
X89804605Y-43845395D01*
X89815100Y-43854008D01*
X93675000Y-47713909D01*
X93675000Y-47736934D01*
X93689411Y-47809383D01*
X93717680Y-47877629D01*
X93758719Y-47939048D01*
X93810952Y-47991281D01*
X93872371Y-48032320D01*
X93940617Y-48060589D01*
X94013066Y-48075000D01*
X94086934Y-48075000D01*
X94159383Y-48060589D01*
X94227629Y-48032320D01*
X94289048Y-47991281D01*
X94341281Y-47939048D01*
X94382320Y-47877629D01*
X94410589Y-47809383D01*
X94425000Y-47736934D01*
X94425000Y-47663066D01*
X94410589Y-47590617D01*
X94382320Y-47522371D01*
X94341281Y-47460952D01*
X94289048Y-47408719D01*
X94227629Y-47367680D01*
X94159383Y-47339411D01*
X94086934Y-47325000D01*
X94063909Y-47325000D01*
X90275000Y-43536092D01*
X90275000Y-42613066D01*
X90925000Y-42613066D01*
X90925000Y-42686934D01*
X90939411Y-42759383D01*
X90967680Y-42827629D01*
X91008719Y-42889048D01*
X91025001Y-42905330D01*
X91025000Y-43202182D01*
X91025000Y-43452182D01*
X91023670Y-43465685D01*
X91026264Y-43492015D01*
X91028980Y-43519593D01*
X91044704Y-43571431D01*
X91070240Y-43619206D01*
X91104605Y-43661080D01*
X91115100Y-43669693D01*
X96480312Y-49034906D01*
X96488920Y-49045395D01*
X96530794Y-49079760D01*
X96578568Y-49105296D01*
X96614681Y-49116250D01*
X96630405Y-49121020D01*
X96684314Y-49126330D01*
X96697817Y-49125000D01*
X96994671Y-49125000D01*
X97010952Y-49141281D01*
X97072371Y-49182320D01*
X97140617Y-49210589D01*
X97213066Y-49225000D01*
X97286934Y-49225000D01*
X97359383Y-49210589D01*
X97427629Y-49182320D01*
X97489048Y-49141281D01*
X97541281Y-49089048D01*
X97582320Y-49027629D01*
X97610589Y-48959383D01*
X97625000Y-48886934D01*
X97625000Y-48813066D01*
X97610589Y-48740617D01*
X97582320Y-48672371D01*
X97541281Y-48610952D01*
X97489048Y-48558719D01*
X97427629Y-48517680D01*
X97359383Y-48489411D01*
X97286934Y-48475000D01*
X97213066Y-48475000D01*
X97140617Y-48489411D01*
X97072371Y-48517680D01*
X97010952Y-48558719D01*
X96994671Y-48575000D01*
X96798224Y-48575000D01*
X91575000Y-43351777D01*
X91575000Y-42905329D01*
X91591281Y-42889048D01*
X91632320Y-42827629D01*
X91660589Y-42759383D01*
X91675000Y-42686934D01*
X91675000Y-42613066D01*
X91660589Y-42540617D01*
X91632320Y-42472371D01*
X91591281Y-42410952D01*
X91539048Y-42358719D01*
X91477629Y-42317680D01*
X91409383Y-42289411D01*
X91336934Y-42275000D01*
X91263066Y-42275000D01*
X91190617Y-42289411D01*
X91122371Y-42317680D01*
X91060952Y-42358719D01*
X91008719Y-42410952D01*
X90967680Y-42472371D01*
X90939411Y-42540617D01*
X90925000Y-42613066D01*
X90275000Y-42613066D01*
X90275000Y-39691558D01*
X90281981Y-39714571D01*
X90333795Y-39811508D01*
X90403525Y-39896475D01*
X90488492Y-39966205D01*
X90585429Y-40018019D01*
X90690613Y-40049926D01*
X90800000Y-40060700D01*
X92056500Y-40058000D01*
X92196000Y-39918500D01*
X92196000Y-39204000D01*
X92604000Y-39204000D01*
X92604000Y-39918500D01*
X92743500Y-40058000D01*
X94000000Y-40060700D01*
X94109387Y-40049926D01*
X94214571Y-40018019D01*
X94311508Y-39966205D01*
X94396475Y-39896475D01*
X94466205Y-39811508D01*
X94518019Y-39714571D01*
X94549926Y-39609387D01*
X94560700Y-39500000D01*
X94558000Y-39343500D01*
X94418500Y-39204000D01*
X92604000Y-39204000D01*
X92196000Y-39204000D01*
X92176000Y-39204000D01*
X92176000Y-38796000D01*
X92196000Y-38796000D01*
X92196000Y-38081500D01*
X92604000Y-38081500D01*
X92604000Y-38796000D01*
X94418500Y-38796000D01*
X94558000Y-38656500D01*
X94560700Y-38500000D01*
X94549926Y-38390613D01*
X94518019Y-38285429D01*
X94466205Y-38188492D01*
X94396475Y-38103525D01*
X94311508Y-38033795D01*
X94214571Y-37981981D01*
X94109387Y-37950074D01*
X94000000Y-37939300D01*
X92743500Y-37942000D01*
X92604000Y-38081500D01*
X92196000Y-38081500D01*
X92056500Y-37942000D01*
X90800000Y-37939300D01*
X90690613Y-37950074D01*
X90585429Y-37981981D01*
X90488492Y-38033795D01*
X90403525Y-38103525D01*
X90333795Y-38188492D01*
X90281981Y-38285429D01*
X90275000Y-38308442D01*
X90275000Y-36935981D01*
X92950000Y-36935981D01*
X92950000Y-37064019D01*
X92974979Y-37189598D01*
X93023978Y-37307890D01*
X93095112Y-37414351D01*
X93185649Y-37504888D01*
X93292110Y-37576022D01*
X93410402Y-37625021D01*
X93535981Y-37650000D01*
X93664019Y-37650000D01*
X93789598Y-37625021D01*
X93907890Y-37576022D01*
X94014351Y-37504888D01*
X94104888Y-37414351D01*
X94176022Y-37307890D01*
X94225021Y-37189598D01*
X94250000Y-37064019D01*
X94250000Y-37000000D01*
X99399275Y-37000000D01*
X99399275Y-38000000D01*
X99402171Y-38029405D01*
X99410748Y-38057680D01*
X99424677Y-38083738D01*
X99443421Y-38106579D01*
X99466262Y-38125323D01*
X99492320Y-38139252D01*
X99520595Y-38147829D01*
X99550000Y-38150725D01*
X101050000Y-38150725D01*
X101079405Y-38147829D01*
X101107680Y-38139252D01*
X101133738Y-38125323D01*
X101156579Y-38106579D01*
X101175323Y-38083738D01*
X101189252Y-38057680D01*
X101197829Y-38029405D01*
X101200725Y-38000000D01*
X101200725Y-37000000D01*
X102399275Y-37000000D01*
X102399275Y-38000000D01*
X102402171Y-38029405D01*
X102410748Y-38057680D01*
X102424677Y-38083738D01*
X102443421Y-38106579D01*
X102466262Y-38125323D01*
X102492320Y-38139252D01*
X102520595Y-38147829D01*
X102550000Y-38150725D01*
X104050000Y-38150725D01*
X104079405Y-38147829D01*
X104107680Y-38139252D01*
X104133738Y-38125323D01*
X104156579Y-38106579D01*
X104175323Y-38083738D01*
X104189252Y-38057680D01*
X104197829Y-38029405D01*
X104200725Y-38000000D01*
X104200725Y-37000000D01*
X104197829Y-36970595D01*
X104189252Y-36942320D01*
X104175323Y-36916262D01*
X104156579Y-36893421D01*
X104133738Y-36874677D01*
X104107680Y-36860748D01*
X104079405Y-36852171D01*
X104050000Y-36849275D01*
X102550000Y-36849275D01*
X102520595Y-36852171D01*
X102492320Y-36860748D01*
X102466262Y-36874677D01*
X102443421Y-36893421D01*
X102424677Y-36916262D01*
X102410748Y-36942320D01*
X102402171Y-36970595D01*
X102399275Y-37000000D01*
X101200725Y-37000000D01*
X101197829Y-36970595D01*
X101189252Y-36942320D01*
X101175323Y-36916262D01*
X101156579Y-36893421D01*
X101133738Y-36874677D01*
X101107680Y-36860748D01*
X101079405Y-36852171D01*
X101050000Y-36849275D01*
X99550000Y-36849275D01*
X99520595Y-36852171D01*
X99492320Y-36860748D01*
X99466262Y-36874677D01*
X99443421Y-36893421D01*
X99424677Y-36916262D01*
X99410748Y-36942320D01*
X99402171Y-36970595D01*
X99399275Y-37000000D01*
X94250000Y-37000000D01*
X94250000Y-36935981D01*
X94225021Y-36810402D01*
X94176022Y-36692110D01*
X94104888Y-36585649D01*
X94014351Y-36495112D01*
X93907890Y-36423978D01*
X93789598Y-36374979D01*
X93664019Y-36350000D01*
X93535981Y-36350000D01*
X93410402Y-36374979D01*
X93292110Y-36423978D01*
X93185649Y-36495112D01*
X93095112Y-36585649D01*
X93023978Y-36692110D01*
X92974979Y-36810402D01*
X92950000Y-36935981D01*
X90275000Y-36935981D01*
X90275000Y-35825008D01*
X90649275Y-35450734D01*
X90649275Y-35500000D01*
X90652171Y-35529405D01*
X90660748Y-35557680D01*
X90674677Y-35583738D01*
X90693421Y-35606579D01*
X90716262Y-35625323D01*
X90742320Y-35639252D01*
X90770595Y-35647829D01*
X90800000Y-35650725D01*
X94000000Y-35650725D01*
X94029405Y-35647829D01*
X94057680Y-35639252D01*
X94083738Y-35625323D01*
X94106579Y-35606579D01*
X94111977Y-35600000D01*
X99399275Y-35600000D01*
X99399275Y-36600000D01*
X99402171Y-36629405D01*
X99410748Y-36657680D01*
X99424677Y-36683738D01*
X99443421Y-36706579D01*
X99466262Y-36725323D01*
X99492320Y-36739252D01*
X99520595Y-36747829D01*
X99550000Y-36750725D01*
X101050000Y-36750725D01*
X101079405Y-36747829D01*
X101107680Y-36739252D01*
X101133738Y-36725323D01*
X101156579Y-36706579D01*
X101175323Y-36683738D01*
X101189252Y-36657680D01*
X101197829Y-36629405D01*
X101200725Y-36600000D01*
X101200725Y-35600000D01*
X102399275Y-35600000D01*
X102399275Y-36600000D01*
X102402171Y-36629405D01*
X102410748Y-36657680D01*
X102424677Y-36683738D01*
X102443421Y-36706579D01*
X102466262Y-36725323D01*
X102492320Y-36739252D01*
X102520595Y-36747829D01*
X102550000Y-36750725D01*
X104050000Y-36750725D01*
X104079405Y-36747829D01*
X104107680Y-36739252D01*
X104133738Y-36725323D01*
X104156579Y-36706579D01*
X104175323Y-36683738D01*
X104189252Y-36657680D01*
X104197829Y-36629405D01*
X104200725Y-36600000D01*
X104200725Y-35600000D01*
X104197829Y-35570595D01*
X104189252Y-35542320D01*
X104175323Y-35516262D01*
X104156579Y-35493421D01*
X104133738Y-35474677D01*
X104107680Y-35460748D01*
X104079405Y-35452171D01*
X104050000Y-35449275D01*
X102550000Y-35449275D01*
X102520595Y-35452171D01*
X102492320Y-35460748D01*
X102466262Y-35474677D01*
X102443421Y-35493421D01*
X102424677Y-35516262D01*
X102410748Y-35542320D01*
X102402171Y-35570595D01*
X102399275Y-35600000D01*
X101200725Y-35600000D01*
X101197829Y-35570595D01*
X101189252Y-35542320D01*
X101175323Y-35516262D01*
X101156579Y-35493421D01*
X101133738Y-35474677D01*
X101107680Y-35460748D01*
X101079405Y-35452171D01*
X101050000Y-35449275D01*
X99550000Y-35449275D01*
X99520595Y-35452171D01*
X99492320Y-35460748D01*
X99466262Y-35474677D01*
X99443421Y-35493421D01*
X99424677Y-35516262D01*
X99410748Y-35542320D01*
X99402171Y-35570595D01*
X99399275Y-35600000D01*
X94111977Y-35600000D01*
X94125323Y-35583738D01*
X94139252Y-35557680D01*
X94147829Y-35529405D01*
X94150725Y-35500000D01*
X94150725Y-34837489D01*
X111350000Y-34837489D01*
X111350000Y-35162511D01*
X111413408Y-35481287D01*
X111537789Y-35781568D01*
X111718361Y-36051814D01*
X111948186Y-36281639D01*
X112218432Y-36462211D01*
X112518713Y-36586592D01*
X112837489Y-36650000D01*
X113162511Y-36650000D01*
X113481287Y-36586592D01*
X113781568Y-36462211D01*
X114051814Y-36281639D01*
X114281639Y-36051814D01*
X114462211Y-35781568D01*
X114586592Y-35481287D01*
X114650000Y-35162511D01*
X114650000Y-34837489D01*
X114586592Y-34518713D01*
X114462211Y-34218432D01*
X114281639Y-33948186D01*
X114051814Y-33718361D01*
X113781568Y-33537789D01*
X113481287Y-33413408D01*
X113162511Y-33350000D01*
X112837489Y-33350000D01*
X112518713Y-33413408D01*
X112218432Y-33537789D01*
X111948186Y-33718361D01*
X111718361Y-33948186D01*
X111537789Y-34218432D01*
X111413408Y-34518713D01*
X111350000Y-34837489D01*
X94150725Y-34837489D01*
X94150725Y-34500000D01*
X94147829Y-34470595D01*
X94139252Y-34442320D01*
X94125323Y-34416262D01*
X94106579Y-34393421D01*
X94083738Y-34374677D01*
X94057680Y-34360748D01*
X94029405Y-34352171D01*
X94000000Y-34349275D01*
X90800000Y-34349275D01*
X90770595Y-34352171D01*
X90742320Y-34360748D01*
X90716262Y-34374677D01*
X90693421Y-34393421D01*
X90674677Y-34416262D01*
X90660748Y-34442320D01*
X90652171Y-34470595D01*
X90649275Y-34500000D01*
X90649275Y-34731381D01*
X90641466Y-34733750D01*
X90605353Y-34744704D01*
X90557579Y-34770240D01*
X90515705Y-34804605D01*
X90507096Y-34815095D01*
X89815095Y-35507097D01*
X89804606Y-35515705D01*
X89770241Y-35557579D01*
X89756259Y-35583738D01*
X89744705Y-35605353D01*
X89728980Y-35657191D01*
X89723670Y-35711100D01*
X82725600Y-35711100D01*
X82618500Y-35604000D01*
X81654000Y-35604000D01*
X81246000Y-35604000D01*
X80281500Y-35604000D01*
X80142000Y-35743500D01*
X80139300Y-35900000D01*
X77450725Y-35900000D01*
X77450725Y-34900000D01*
X80139300Y-34900000D01*
X80142000Y-35056500D01*
X80281500Y-35196000D01*
X81246000Y-35196000D01*
X81246000Y-34481500D01*
X81654000Y-34481500D01*
X81654000Y-35196000D01*
X82618500Y-35196000D01*
X82758000Y-35056500D01*
X82760700Y-34900000D01*
X82749926Y-34790613D01*
X82718019Y-34685429D01*
X82666205Y-34588492D01*
X82596475Y-34503525D01*
X82592180Y-34500000D01*
X83849275Y-34500000D01*
X83849275Y-35500000D01*
X83852171Y-35529405D01*
X83860748Y-35557680D01*
X83874677Y-35583738D01*
X83893421Y-35606579D01*
X83916262Y-35625323D01*
X83942320Y-35639252D01*
X83970595Y-35647829D01*
X84000000Y-35650725D01*
X87200000Y-35650725D01*
X87229405Y-35647829D01*
X87257680Y-35639252D01*
X87283738Y-35625323D01*
X87306579Y-35606579D01*
X87325323Y-35583738D01*
X87339252Y-35557680D01*
X87347829Y-35529405D01*
X87350725Y-35500000D01*
X87350725Y-34500000D01*
X87347829Y-34470595D01*
X87339252Y-34442320D01*
X87325323Y-34416262D01*
X87306579Y-34393421D01*
X87283738Y-34374677D01*
X87257680Y-34360748D01*
X87229405Y-34352171D01*
X87200000Y-34349275D01*
X84000000Y-34349275D01*
X83970595Y-34352171D01*
X83942320Y-34360748D01*
X83916262Y-34374677D01*
X83893421Y-34393421D01*
X83874677Y-34416262D01*
X83860748Y-34442320D01*
X83852171Y-34470595D01*
X83849275Y-34500000D01*
X82592180Y-34500000D01*
X82511508Y-34433795D01*
X82414571Y-34381981D01*
X82309387Y-34350074D01*
X82200000Y-34339300D01*
X81793500Y-34342000D01*
X81654000Y-34481500D01*
X81246000Y-34481500D01*
X81106500Y-34342000D01*
X80700000Y-34339300D01*
X80590613Y-34350074D01*
X80485429Y-34381981D01*
X80388492Y-34433795D01*
X80303525Y-34503525D01*
X80233795Y-34588492D01*
X80181981Y-34685429D01*
X80150074Y-34790613D01*
X80139300Y-34900000D01*
X77450725Y-34900000D01*
X77447829Y-34870595D01*
X77439252Y-34842320D01*
X77425323Y-34816262D01*
X77406579Y-34793421D01*
X77383738Y-34774677D01*
X77357680Y-34760748D01*
X77329405Y-34752171D01*
X77300000Y-34749275D01*
X75800000Y-34749275D01*
X75770595Y-34752171D01*
X75742320Y-34760748D01*
X75716262Y-34774677D01*
X75693421Y-34793421D01*
X75674677Y-34816262D01*
X75660748Y-34842320D01*
X75652171Y-34870595D01*
X75649275Y-34900000D01*
X59650000Y-34900000D01*
X59650000Y-34837489D01*
X59586592Y-34518713D01*
X59462211Y-34218432D01*
X59281639Y-33948186D01*
X59051814Y-33718361D01*
X58781568Y-33537789D01*
X58481287Y-33413408D01*
X58162511Y-33350000D01*
X57837489Y-33350000D01*
X57518713Y-33413408D01*
X57218432Y-33537789D01*
X56948186Y-33718361D01*
X56718361Y-33948186D01*
X56537789Y-34218432D01*
X56413408Y-34518713D01*
X56350000Y-34837489D01*
X55200000Y-34837489D01*
X55200000Y-32200000D01*
X115800001Y-32200000D01*
X115800000Y-32990183D01*
M02*
