G04 #@! TF.GenerationSoftware,KiCad,Pcbnew,(5.1.5)-3*
G04 #@! TF.CreationDate,2020-03-20T14:52:30-04:00*
G04 #@! TF.ProjectId,amp,616d702e-6b69-4636-9164-5f7063625858,0.6.0*
G04 #@! TF.SameCoordinates,Original*
G04 #@! TF.FileFunction,Soldermask,Bot*
G04 #@! TF.FilePolarity,Negative*
%FSLAX46Y46*%
G04 Gerber Fmt 4.6, Leading zero omitted, Abs format (unit mm)*
G04 Created by KiCad (PCBNEW (5.1.5)-3) date 2020-03-20 14:52:30*
%MOMM*%
%LPD*%
G04 APERTURE LIST*
%ADD10C,1.000000*%
%ADD11C,1.650000*%
%ADD12R,1.650000X1.650000*%
%ADD13R,3.200000X1.000000*%
%ADD14O,1.600000X0.800000*%
%ADD15C,0.650000*%
%ADD16R,1.500000X1.000000*%
%ADD17C,3.000000*%
%ADD18O,0.850000X0.850000*%
%ADD19R,0.850000X0.850000*%
%ADD20C,1.998980*%
%ADD21R,1.998980X1.998980*%
G04 APERTURE END LIST*
D10*
X93600000Y-37000000D03*
X84400000Y-37000000D03*
D11*
X114080000Y-58620000D03*
X111540000Y-58620000D03*
X109000000Y-58620000D03*
X114080000Y-56080000D03*
X111540000Y-56080000D03*
X109000000Y-56080000D03*
X114080000Y-53540000D03*
X111540000Y-53540000D03*
X109000000Y-53540000D03*
X114080000Y-51000000D03*
X111540000Y-51000000D03*
D12*
X109000000Y-51000000D03*
D13*
X85600000Y-35000000D03*
X85600000Y-39000000D03*
X92400000Y-39000000D03*
X92400000Y-35000000D03*
D14*
X56200000Y-50410000D03*
X56200000Y-59390000D03*
X62150000Y-59030000D03*
X62150000Y-50770000D03*
D15*
X63400000Y-51300000D03*
D16*
X100300000Y-37500000D03*
X103300000Y-37500000D03*
X100300000Y-36100000D03*
X103300000Y-36100000D03*
X76550000Y-38600000D03*
X76550000Y-35400000D03*
X81450000Y-38600000D03*
X81450000Y-35400000D03*
D17*
X113000000Y-65000000D03*
X113000000Y-35000000D03*
X58000000Y-65000000D03*
X58000000Y-35000000D03*
D18*
X72000000Y-38000000D03*
X71000000Y-38000000D03*
X72000000Y-37000000D03*
X71000000Y-37000000D03*
X72000000Y-36000000D03*
D19*
X71000000Y-36000000D03*
D20*
X113000000Y-42190000D03*
D21*
X113000000Y-46000000D03*
M02*
