G04 #@! TF.GenerationSoftware,KiCad,Pcbnew,(5.1.5)-3*
G04 #@! TF.CreationDate,2020-05-02T14:54:01-04:00*
G04 #@! TF.ProjectId,amp,616d702e-6b69-4636-9164-5f7063625858,0.6.0*
G04 #@! TF.SameCoordinates,Original*
G04 #@! TF.FileFunction,Legend,Top*
G04 #@! TF.FilePolarity,Positive*
%FSLAX46Y46*%
G04 Gerber Fmt 4.6, Leading zero omitted, Abs format (unit mm)*
G04 Created by KiCad (PCBNEW (5.1.5)-3) date 2020-05-02 14:54:01*
%MOMM*%
%LPD*%
G04 APERTURE LIST*
%ADD10C,0.100000*%
%ADD11C,0.200000*%
%ADD12C,0.250000*%
%ADD13C,0.120000*%
%ADD14C,0.127000*%
%ADD15C,0.300000*%
%ADD16C,0.254000*%
%ADD17C,0.050000*%
%ADD18C,0.150000*%
G04 APERTURE END LIST*
D10*
X64650000Y-60000000D02*
X63550000Y-60000000D01*
X64650000Y-57700000D02*
X64650000Y-60000000D01*
X63550000Y-60000000D02*
X63550000Y-57700000D01*
X63550000Y-57700000D02*
X64650000Y-57700000D01*
X95150000Y-51750000D02*
X95150000Y-50250000D01*
X98050000Y-51750000D02*
X95150000Y-51750000D01*
X98050000Y-50250000D02*
X98050000Y-51750000D01*
X95150000Y-50250000D02*
X98050000Y-50250000D01*
X93850000Y-50100000D02*
X93850000Y-46500000D01*
X98150000Y-50100000D02*
X93850000Y-50100000D01*
X98150000Y-46500000D02*
X98150000Y-50100000D01*
X93850000Y-46500000D02*
X98150000Y-46500000D01*
X100200000Y-48200000D02*
X100200000Y-51800000D01*
X104400000Y-51800000D02*
X100200000Y-51800000D01*
X104400000Y-48200000D02*
X104400000Y-51800000D01*
X100200000Y-48200000D02*
X104400000Y-48200000D01*
X98450000Y-51200000D02*
X98450000Y-48200000D01*
X100050000Y-51200000D02*
X98450000Y-51200000D01*
X100050000Y-48200000D02*
X100050000Y-51200000D01*
X98450000Y-48200000D02*
X100050000Y-48200000D01*
X98300000Y-47950000D02*
X98300000Y-44000000D01*
X100700000Y-47950000D02*
X98300000Y-47950000D01*
X100700000Y-44000000D02*
X100700000Y-47950000D01*
X98300000Y-44000000D02*
X100700000Y-44000000D01*
X98150000Y-46300000D02*
X95650000Y-46300000D01*
X95650000Y-45100000D02*
X95650000Y-46300000D01*
X98150000Y-45100000D02*
X98150000Y-46300000D01*
X95650000Y-45100000D02*
X98150000Y-45100000D01*
X92650000Y-46350000D02*
X92650000Y-45250000D01*
X94950000Y-46350000D02*
X92650000Y-46350000D01*
X94950000Y-45250000D02*
X94950000Y-46350000D01*
X92650000Y-45250000D02*
X94950000Y-45250000D01*
X92650000Y-45150000D02*
X92650000Y-44050000D01*
X94950000Y-45150000D02*
X92650000Y-45150000D01*
X94950000Y-44050000D02*
X94950000Y-45150000D01*
X92650000Y-44050000D02*
X94950000Y-44050000D01*
X101400000Y-43950000D02*
X101400000Y-42450000D01*
X104400000Y-43950000D02*
X101400000Y-43950000D01*
X104400000Y-42450000D02*
X104400000Y-43950000D01*
X101400000Y-42450000D02*
X104400000Y-42450000D01*
X104550000Y-49600000D02*
X104550000Y-46600000D01*
X106050000Y-49600000D02*
X104550000Y-49600000D01*
X106050000Y-46600000D02*
X106050000Y-49600000D01*
X104550000Y-46600000D02*
X106050000Y-46600000D01*
X108050000Y-48750000D02*
X106200000Y-48750000D01*
X108050000Y-49650000D02*
X108050000Y-48750000D01*
X106200000Y-49650000D02*
X108050000Y-49650000D01*
X106200000Y-48750000D02*
X106200000Y-49650000D01*
X104600000Y-53250000D02*
X104600000Y-49750000D01*
X107800000Y-53250000D02*
X104600000Y-53250000D01*
X107800000Y-49750000D02*
X107800000Y-53250000D01*
X104600000Y-49750000D02*
X107800000Y-49750000D01*
X100250000Y-52900000D02*
X100250000Y-51900000D01*
X102550000Y-52900000D02*
X100250000Y-52900000D01*
X102550000Y-51900000D02*
X102550000Y-52900000D01*
X100300000Y-51900000D02*
X102550000Y-51900000D01*
X106000000Y-54350000D02*
X106000000Y-53450000D01*
X107800000Y-54350000D02*
X106000000Y-54350000D01*
X107800000Y-53450000D02*
X107800000Y-54350000D01*
X106000000Y-53450000D02*
X107800000Y-53450000D01*
X103250000Y-57850000D02*
X103250000Y-55550000D01*
X104350000Y-57850000D02*
X103250000Y-57850000D01*
X104350000Y-55550000D02*
X104350000Y-57850000D01*
X103250000Y-55550000D02*
X104350000Y-55550000D01*
X103250000Y-55350000D02*
X103250000Y-53000000D01*
X104350000Y-55350000D02*
X103250000Y-55350000D01*
X104350000Y-53000000D02*
X104350000Y-55350000D01*
X103250000Y-53000000D02*
X104350000Y-53000000D01*
X96000000Y-57750000D02*
X96000000Y-53050000D01*
X103050000Y-57750000D02*
X96000000Y-57750000D01*
X103050000Y-53050000D02*
X103050000Y-57750000D01*
X96000000Y-53050000D02*
X103050000Y-53050000D01*
X89550000Y-61500000D02*
X89550000Y-59650000D01*
X90450000Y-61500000D02*
X89550000Y-61500000D01*
X90450000Y-59650000D02*
X90450000Y-61500000D01*
X89550000Y-59650000D02*
X90450000Y-59650000D01*
D11*
X68200000Y-47600000D02*
G75*
G03X68200000Y-47600000I-100000J0D01*
G01*
D10*
X64600000Y-56100000D02*
X63100000Y-56100000D01*
X64600000Y-57100000D02*
X64600000Y-56100000D01*
X63100000Y-57100000D02*
X64600000Y-57100000D01*
X63100000Y-56100000D02*
X63100000Y-57100000D01*
X64600000Y-53200000D02*
X63200000Y-53200000D01*
X64600000Y-54200000D02*
X64600000Y-53200000D01*
X63200000Y-54200000D02*
X64600000Y-54200000D01*
X63200000Y-53200000D02*
X63200000Y-54200000D01*
X64300000Y-49800000D02*
X63200000Y-49800000D01*
X64300000Y-52200000D02*
X64300000Y-49800000D01*
X63100000Y-52200000D02*
X64300000Y-52200000D01*
X63100000Y-50000000D02*
X63100000Y-52200000D01*
X64400000Y-49700000D02*
X63200000Y-49700000D01*
X64400000Y-46900000D02*
X64400000Y-49700000D01*
X62900000Y-46900000D02*
X64400000Y-46900000D01*
X62900000Y-47200000D02*
X62900000Y-46900000D01*
X62900000Y-47200000D02*
X62900000Y-49600000D01*
X61700000Y-47200000D02*
X62900000Y-47200000D01*
X61700000Y-49600000D02*
X61700000Y-47200000D01*
X62900000Y-49600000D02*
X61700000Y-49600000D01*
X59200000Y-49500000D02*
X59200000Y-48300000D01*
X61600000Y-49500000D02*
X59200000Y-49500000D01*
X61600000Y-48300000D02*
X61600000Y-49500000D01*
X59200000Y-48300000D02*
X61600000Y-48300000D01*
X59700000Y-48200000D02*
X59700000Y-47200000D01*
X61500000Y-48200000D02*
X59700000Y-48200000D01*
X61500000Y-47200000D02*
X61500000Y-48200000D01*
X59700000Y-47200000D02*
X61500000Y-47200000D01*
X56300000Y-48000000D02*
X58700000Y-48000000D01*
X56300000Y-46800000D02*
X56300000Y-48000000D01*
X58700000Y-46800000D02*
X56300000Y-46800000D01*
X58700000Y-48000000D02*
X58700000Y-46800000D01*
X63200000Y-45900000D02*
X63200000Y-41900000D01*
X59200000Y-45900000D02*
X63200000Y-45900000D01*
X66900000Y-54200000D02*
G75*
G03X66900000Y-54200000I-300000J0D01*
G01*
X66700000Y-54200000D02*
G75*
G03X66700000Y-54200000I-100000J0D01*
G01*
X67033333Y-54626190D02*
X67366666Y-54626190D01*
X67033333Y-55126190D01*
X67366666Y-55126190D01*
X66100000Y-55688095D02*
X66100000Y-55926190D01*
X65933333Y-55426190D02*
X66100000Y-55688095D01*
X66266666Y-55426190D01*
X67533333Y-53326190D02*
X67866666Y-53826190D01*
X67866666Y-53326190D02*
X67533333Y-53826190D01*
X68200000Y-54200000D02*
X68000000Y-54400000D01*
X68200000Y-54200000D02*
X68000000Y-54000000D01*
X66600000Y-54200000D02*
X68200000Y-54200000D01*
X66600000Y-55900000D02*
X66400000Y-55700000D01*
X66600000Y-55900000D02*
X66800000Y-55700000D01*
X66600000Y-54200000D02*
X66600000Y-55900000D01*
X68050000Y-40000000D02*
X65750000Y-40000000D01*
X68050000Y-41000000D02*
X68050000Y-40000000D01*
X65750000Y-41000000D02*
X68050000Y-41000000D01*
X65750000Y-40000000D02*
X65750000Y-41000000D01*
X65550000Y-40000000D02*
X63250000Y-40000000D01*
X65550000Y-41000000D02*
X65550000Y-40000000D01*
X63250000Y-41000000D02*
X65550000Y-41000000D01*
X63250000Y-40000000D02*
X63250000Y-41000000D01*
X63200000Y-41900000D02*
X59200000Y-41900000D01*
X59200000Y-41900000D02*
X59200000Y-45900000D01*
X56400000Y-46550000D02*
X58200000Y-46550000D01*
X56400000Y-45650000D02*
X56400000Y-46550000D01*
X58200000Y-45650000D02*
X56400000Y-45650000D01*
X58200000Y-46550000D02*
X58200000Y-45650000D01*
X65000000Y-48350000D02*
X65000000Y-51350000D01*
X66500000Y-48350000D02*
X65000000Y-48350000D01*
X66500000Y-51350000D02*
X66500000Y-48350000D01*
X65000000Y-51350000D02*
X66500000Y-51350000D01*
X66750000Y-50200000D02*
X67650000Y-50200000D01*
X66750000Y-48400000D02*
X66750000Y-50200000D01*
X67650000Y-48400000D02*
X66750000Y-48400000D01*
X67650000Y-50200000D02*
X67650000Y-48400000D01*
X68200000Y-50200000D02*
X68250000Y-50200000D01*
X67850000Y-50200000D02*
X68700000Y-50200000D01*
X67850000Y-48400000D02*
X67850000Y-50200000D01*
X68750000Y-48400000D02*
X67850000Y-48400000D01*
X68750000Y-50200000D02*
X68750000Y-48400000D01*
X90550000Y-58200000D02*
X90550000Y-56350000D01*
X90500000Y-58200000D02*
X90550000Y-58200000D01*
X89600000Y-58200000D02*
X90500000Y-58200000D01*
X89600000Y-56350000D02*
X89600000Y-58200000D01*
X90550000Y-56350000D02*
X89600000Y-56350000D01*
X91900000Y-58150000D02*
X91900000Y-55850000D01*
X90900000Y-58150000D02*
X91900000Y-58150000D01*
X90900000Y-55850000D02*
X90900000Y-58150000D01*
X91900000Y-55850000D02*
X90900000Y-55850000D01*
X90850000Y-58500000D02*
X90850000Y-61500000D01*
X92350000Y-58500000D02*
X90850000Y-58500000D01*
X92350000Y-61500000D02*
X92350000Y-58500000D01*
X90850000Y-61500000D02*
X92350000Y-61500000D01*
D11*
X65450000Y-33216666D02*
X65926190Y-33216666D01*
X65354761Y-33502380D02*
X65688095Y-32502380D01*
X66021428Y-33502380D01*
X66354761Y-33502380D02*
X66354761Y-32835714D01*
X66354761Y-32930952D02*
X66402380Y-32883333D01*
X66497619Y-32835714D01*
X66640476Y-32835714D01*
X66735714Y-32883333D01*
X66783333Y-32978571D01*
X66783333Y-33502380D01*
X66783333Y-32978571D02*
X66830952Y-32883333D01*
X66926190Y-32835714D01*
X67069047Y-32835714D01*
X67164285Y-32883333D01*
X67211904Y-32978571D01*
X67211904Y-33502380D01*
X67688095Y-32835714D02*
X67688095Y-33835714D01*
X67688095Y-32883333D02*
X67783333Y-32835714D01*
X67973809Y-32835714D01*
X68069047Y-32883333D01*
X68116666Y-32930952D01*
X68164285Y-33026190D01*
X68164285Y-33311904D01*
X68116666Y-33407142D01*
X68069047Y-33454761D01*
X67973809Y-33502380D01*
X67783333Y-33502380D01*
X67688095Y-33454761D01*
X69545238Y-32502380D02*
X69640476Y-32502380D01*
X69735714Y-32550000D01*
X69783333Y-32597619D01*
X69830952Y-32692857D01*
X69878571Y-32883333D01*
X69878571Y-33121428D01*
X69830952Y-33311904D01*
X69783333Y-33407142D01*
X69735714Y-33454761D01*
X69640476Y-33502380D01*
X69545238Y-33502380D01*
X69450000Y-33454761D01*
X69402380Y-33407142D01*
X69354761Y-33311904D01*
X69307142Y-33121428D01*
X69307142Y-32883333D01*
X69354761Y-32692857D01*
X69402380Y-32597619D01*
X69450000Y-32550000D01*
X69545238Y-32502380D01*
X70307142Y-33407142D02*
X70354761Y-33454761D01*
X70307142Y-33502380D01*
X70259523Y-33454761D01*
X70307142Y-33407142D01*
X70307142Y-33502380D01*
X70688095Y-32502380D02*
X71354761Y-32502380D01*
X70926190Y-33502380D01*
X71735714Y-33407142D02*
X71783333Y-33454761D01*
X71735714Y-33502380D01*
X71688095Y-33454761D01*
X71735714Y-33407142D01*
X71735714Y-33502380D01*
X72402380Y-32502380D02*
X72497619Y-32502380D01*
X72592857Y-32550000D01*
X72640476Y-32597619D01*
X72688095Y-32692857D01*
X72735714Y-32883333D01*
X72735714Y-33121428D01*
X72688095Y-33311904D01*
X72640476Y-33407142D01*
X72592857Y-33454761D01*
X72497619Y-33502380D01*
X72402380Y-33502380D01*
X72307142Y-33454761D01*
X72259523Y-33407142D01*
X72211904Y-33311904D01*
X72164285Y-33121428D01*
X72164285Y-32883333D01*
X72211904Y-32692857D01*
X72259523Y-32597619D01*
X72307142Y-32550000D01*
X72402380Y-32502380D01*
X74735714Y-32740476D02*
X74640476Y-32692857D01*
X74450000Y-32692857D01*
X74354761Y-32740476D01*
X74259523Y-32835714D01*
X74211904Y-32930952D01*
X74211904Y-33121428D01*
X74259523Y-33216666D01*
X74354761Y-33311904D01*
X74450000Y-33359523D01*
X74640476Y-33359523D01*
X74735714Y-33311904D01*
X74545238Y-32359523D02*
X74307142Y-32407142D01*
X74069047Y-32550000D01*
X73926190Y-32788095D01*
X73878571Y-33026190D01*
X73926190Y-33264285D01*
X74069047Y-33502380D01*
X74307142Y-33645238D01*
X74545238Y-33692857D01*
X74783333Y-33645238D01*
X75021428Y-33502380D01*
X75164285Y-33264285D01*
X75211904Y-33026190D01*
X75164285Y-32788095D01*
X75021428Y-32550000D01*
X74783333Y-32407142D01*
X74545238Y-32359523D01*
X76354761Y-32597619D02*
X76402380Y-32550000D01*
X76497619Y-32502380D01*
X76735714Y-32502380D01*
X76830952Y-32550000D01*
X76878571Y-32597619D01*
X76926190Y-32692857D01*
X76926190Y-32788095D01*
X76878571Y-32930952D01*
X76307142Y-33502380D01*
X76926190Y-33502380D01*
X77545238Y-32502380D02*
X77640476Y-32502380D01*
X77735714Y-32550000D01*
X77783333Y-32597619D01*
X77830952Y-32692857D01*
X77878571Y-32883333D01*
X77878571Y-33121428D01*
X77830952Y-33311904D01*
X77783333Y-33407142D01*
X77735714Y-33454761D01*
X77640476Y-33502380D01*
X77545238Y-33502380D01*
X77450000Y-33454761D01*
X77402380Y-33407142D01*
X77354761Y-33311904D01*
X77307142Y-33121428D01*
X77307142Y-32883333D01*
X77354761Y-32692857D01*
X77402380Y-32597619D01*
X77450000Y-32550000D01*
X77545238Y-32502380D01*
X78259523Y-32597619D02*
X78307142Y-32550000D01*
X78402380Y-32502380D01*
X78640476Y-32502380D01*
X78735714Y-32550000D01*
X78783333Y-32597619D01*
X78830952Y-32692857D01*
X78830952Y-32788095D01*
X78783333Y-32930952D01*
X78211904Y-33502380D01*
X78830952Y-33502380D01*
X79450000Y-32502380D02*
X79545238Y-32502380D01*
X79640476Y-32550000D01*
X79688095Y-32597619D01*
X79735714Y-32692857D01*
X79783333Y-32883333D01*
X79783333Y-33121428D01*
X79735714Y-33311904D01*
X79688095Y-33407142D01*
X79640476Y-33454761D01*
X79545238Y-33502380D01*
X79450000Y-33502380D01*
X79354761Y-33454761D01*
X79307142Y-33407142D01*
X79259523Y-33311904D01*
X79211904Y-33121428D01*
X79211904Y-32883333D01*
X79259523Y-32692857D01*
X79307142Y-32597619D01*
X79354761Y-32550000D01*
X79450000Y-32502380D01*
X80973809Y-33502380D02*
X80973809Y-32502380D01*
X81449999Y-32835714D02*
X81449999Y-33502380D01*
X81449999Y-32930952D02*
X81497619Y-32883333D01*
X81592857Y-32835714D01*
X81735714Y-32835714D01*
X81830952Y-32883333D01*
X81878571Y-32978571D01*
X81878571Y-33502380D01*
X82211904Y-32835714D02*
X82592857Y-32835714D01*
X82354761Y-32502380D02*
X82354761Y-33359523D01*
X82402380Y-33454761D01*
X82497619Y-33502380D01*
X82592857Y-33502380D01*
X83307142Y-33454761D02*
X83211904Y-33502380D01*
X83021428Y-33502380D01*
X82926190Y-33454761D01*
X82878571Y-33359523D01*
X82878571Y-32978571D01*
X82926190Y-32883333D01*
X83021428Y-32835714D01*
X83211904Y-32835714D01*
X83307142Y-32883333D01*
X83354761Y-32978571D01*
X83354761Y-33073809D01*
X82878571Y-33169047D01*
X83783333Y-32835714D02*
X83783333Y-33502380D01*
X83783333Y-32930952D02*
X83830952Y-32883333D01*
X83926190Y-32835714D01*
X84069047Y-32835714D01*
X84164285Y-32883333D01*
X84211904Y-32978571D01*
X84211904Y-33502380D01*
X84545238Y-32835714D02*
X84926190Y-32835714D01*
X84688095Y-32502380D02*
X84688095Y-33359523D01*
X84735714Y-33454761D01*
X84830952Y-33502380D01*
X84926190Y-33502380D01*
X85116666Y-32835714D02*
X85497619Y-32835714D01*
X85259523Y-33502380D02*
X85259523Y-32645238D01*
X85307142Y-32550000D01*
X85402380Y-32502380D01*
X85497619Y-32502380D01*
X86259523Y-32835714D02*
X86259523Y-33502380D01*
X85830952Y-32835714D02*
X85830952Y-33359523D01*
X85878571Y-33454761D01*
X85973809Y-33502380D01*
X86116666Y-33502380D01*
X86211904Y-33454761D01*
X86259523Y-33407142D01*
X86878571Y-33502380D02*
X86783333Y-33454761D01*
X86735714Y-33359523D01*
X86735714Y-32502380D01*
X88021428Y-33502380D02*
X88021428Y-32502380D01*
X88354761Y-33216666D01*
X88688095Y-32502380D01*
X88688095Y-33502380D01*
X89307142Y-33502380D02*
X89211904Y-33454761D01*
X89164285Y-33407142D01*
X89116666Y-33311904D01*
X89116666Y-33026190D01*
X89164285Y-32930952D01*
X89211904Y-32883333D01*
X89307142Y-32835714D01*
X89449999Y-32835714D01*
X89545238Y-32883333D01*
X89592857Y-32930952D01*
X89640476Y-33026190D01*
X89640476Y-33311904D01*
X89592857Y-33407142D01*
X89545238Y-33454761D01*
X89449999Y-33502380D01*
X89307142Y-33502380D01*
X89926190Y-32835714D02*
X90307142Y-32835714D01*
X90069047Y-32502380D02*
X90069047Y-33359523D01*
X90116666Y-33454761D01*
X90211904Y-33502380D01*
X90307142Y-33502380D01*
X90640476Y-33502380D02*
X90640476Y-32835714D01*
X90640476Y-32502380D02*
X90592857Y-32550000D01*
X90640476Y-32597619D01*
X90688095Y-32550000D01*
X90640476Y-32502380D01*
X90640476Y-32597619D01*
X91259523Y-33502380D02*
X91164285Y-33454761D01*
X91116666Y-33407142D01*
X91069047Y-33311904D01*
X91069047Y-33026190D01*
X91116666Y-32930952D01*
X91164285Y-32883333D01*
X91259523Y-32835714D01*
X91402380Y-32835714D01*
X91497619Y-32883333D01*
X91545238Y-32930952D01*
X91592857Y-33026190D01*
X91592857Y-33311904D01*
X91545238Y-33407142D01*
X91497619Y-33454761D01*
X91402380Y-33502380D01*
X91259523Y-33502380D01*
X92021428Y-32835714D02*
X92021428Y-33502380D01*
X92021428Y-32930952D02*
X92069047Y-32883333D01*
X92164285Y-32835714D01*
X92307142Y-32835714D01*
X92402380Y-32883333D01*
X92449999Y-32978571D01*
X92449999Y-33502380D01*
X92973809Y-33454761D02*
X92973809Y-33502380D01*
X92926190Y-33597619D01*
X92878571Y-33645238D01*
X94164285Y-33502380D02*
X94164285Y-32502380D01*
X94640476Y-32835714D02*
X94640476Y-33502380D01*
X94640476Y-32930952D02*
X94688095Y-32883333D01*
X94783333Y-32835714D01*
X94926190Y-32835714D01*
X95021428Y-32883333D01*
X95069047Y-32978571D01*
X95069047Y-33502380D01*
X95973809Y-33454761D02*
X95878571Y-33502380D01*
X95688095Y-33502380D01*
X95592857Y-33454761D01*
X95545238Y-33407142D01*
X95497619Y-33311904D01*
X95497619Y-33026190D01*
X95545238Y-32930952D01*
X95592857Y-32883333D01*
X95688095Y-32835714D01*
X95878571Y-32835714D01*
X95973809Y-32883333D01*
X96402380Y-33407142D02*
X96449999Y-33454761D01*
X96402380Y-33502380D01*
X96354761Y-33454761D01*
X96402380Y-33407142D01*
X96402380Y-33502380D01*
D12*
X100950000Y-48500000D02*
G75*
G03X100950000Y-48500000I-125000J0D01*
G01*
X93625000Y-47125000D02*
G75*
G03X93625000Y-47125000I-125000J0D01*
G01*
X108250000Y-52875000D02*
G75*
G03X108250000Y-52875000I-125000J0D01*
G01*
D13*
X88620000Y-42900000D02*
X88620000Y-42120000D01*
X88620000Y-42120000D02*
X87620000Y-42120000D01*
X70380000Y-42900000D02*
X70380000Y-42120000D01*
X70380000Y-42120000D02*
X71380000Y-42120000D01*
X88620000Y-67865000D02*
X70380000Y-67865000D01*
X70380000Y-67865000D02*
X70380000Y-61445000D01*
X88620000Y-67865000D02*
X88620000Y-61445000D01*
X88620000Y-61445000D02*
X89000000Y-61445000D01*
D11*
X97100000Y-54700000D02*
G75*
G02X97000000Y-54700000I-50000J0D01*
G01*
X97000000Y-54700000D02*
G75*
G02X97100000Y-54700000I50000J0D01*
G01*
X97100000Y-54700000D02*
G75*
G02X97000000Y-54700000I-50000J0D01*
G01*
X97000000Y-54700000D02*
X97000000Y-54700000D01*
X97100000Y-54700000D02*
X97100000Y-54700000D01*
X97000000Y-54700000D02*
X97000000Y-54700000D01*
X55280000Y-50110000D02*
X54000000Y-50110000D01*
X54000000Y-50110000D02*
X54000000Y-59690000D01*
X54000000Y-59690000D02*
X55280000Y-59690000D01*
X59250000Y-50110000D02*
X58000000Y-50110000D01*
X59250000Y-59690000D02*
X58000000Y-59690000D01*
D14*
X115575000Y-47400000D02*
X115575000Y-43800000D01*
X111325000Y-42600000D02*
X113600000Y-42600000D01*
X111325000Y-43400000D02*
X111325000Y-42600000D01*
X111325000Y-48600000D02*
X113600000Y-48600000D01*
X111325000Y-47800000D02*
X111325000Y-48600000D01*
D15*
X110715000Y-48050000D02*
G75*
G03X110715000Y-48050000I-100000J0D01*
G01*
D14*
X115575000Y-56300000D02*
X115575000Y-52700000D01*
X111325000Y-51500000D02*
X113600000Y-51500000D01*
X111325000Y-52300000D02*
X111325000Y-51500000D01*
X111325000Y-57500000D02*
X113600000Y-57500000D01*
X111325000Y-56700000D02*
X111325000Y-57500000D01*
D15*
X110715000Y-56950000D02*
G75*
G03X110715000Y-56950000I-100000J0D01*
G01*
D14*
X104100000Y-32425000D02*
X100500000Y-32425000D01*
X99300000Y-36675000D02*
X99300000Y-34400000D01*
X100100000Y-36675000D02*
X99300000Y-36675000D01*
X105300000Y-36675000D02*
X105300000Y-34400000D01*
X104500000Y-36675000D02*
X105300000Y-36675000D01*
D15*
X104850000Y-37385000D02*
G75*
G03X104850000Y-37385000I-100000J0D01*
G01*
D14*
X100500000Y-67575000D02*
X104100000Y-67575000D01*
X105300000Y-63325000D02*
X105300000Y-65600000D01*
X104500000Y-63325000D02*
X105300000Y-63325000D01*
X99300000Y-63325000D02*
X99300000Y-65600000D01*
X100100000Y-63325000D02*
X99300000Y-63325000D01*
D15*
X99950000Y-62615000D02*
G75*
G03X99950000Y-62615000I-100000J0D01*
G01*
D11*
X64000000Y-48300000D02*
X63400000Y-48300000D01*
D13*
X65800000Y-47800000D02*
X65300000Y-47800000D01*
X65300000Y-47800000D02*
X65300000Y-47300000D01*
X65300000Y-47300000D02*
X65300000Y-47300000D01*
X65300000Y-46100000D02*
X65300000Y-45600000D01*
X65300000Y-45600000D02*
X65800000Y-45600000D01*
X65800000Y-45600000D02*
X65800000Y-45600000D01*
X67000000Y-45600000D02*
X67500000Y-45600000D01*
X67500000Y-45600000D02*
X67500000Y-46100000D01*
X67500000Y-46100000D02*
X67500000Y-46100000D01*
X67000000Y-47800000D02*
X67500000Y-47800000D01*
X67500000Y-47800000D02*
X67500000Y-47800000D01*
X73660000Y-34470000D02*
X73660000Y-35600000D01*
X72900000Y-34470000D02*
X73660000Y-34470000D01*
X73595000Y-37177530D02*
X73595000Y-38000000D01*
X73595000Y-36360000D02*
X73595000Y-36562470D01*
X73463471Y-36360000D02*
X73595000Y-36360000D01*
X72193471Y-36360000D02*
X72336529Y-36360000D01*
X72140000Y-36163471D02*
X72140000Y-36306529D01*
X72140000Y-34470000D02*
X72140000Y-35036529D01*
X73595000Y-38000000D02*
X69665000Y-38000000D01*
X72140000Y-34470000D02*
X69665000Y-34470000D01*
X69665000Y-35907530D02*
X69665000Y-36562470D01*
X69665000Y-37177530D02*
X69665000Y-38000000D01*
X69665000Y-34470000D02*
X69665000Y-35292470D01*
D16*
X92250000Y-40000000D02*
X85750000Y-40000000D01*
X92250000Y-34000000D02*
X85750000Y-34000000D01*
X92250000Y-38100000D02*
X92250000Y-35900000D01*
X85750000Y-38100000D02*
X85750000Y-35900000D01*
X94747000Y-39883000D02*
G75*
G03X94747000Y-39883000I-111000J0D01*
G01*
D11*
X98850000Y-45125000D02*
X98850000Y-46875000D01*
X100150000Y-44338000D02*
X100150000Y-46875000D01*
D12*
X58300000Y-42675000D02*
G75*
G03X58300000Y-42675000I-125000J0D01*
G01*
D11*
X66125000Y-39350000D02*
X65675000Y-39350000D01*
X65675000Y-39350000D02*
X65675000Y-36450000D01*
X65675000Y-36450000D02*
X66125000Y-36450000D01*
X66125000Y-36450000D02*
X66125000Y-39350000D01*
X67525000Y-39400000D02*
X66475000Y-39400000D01*
X65875000Y-41450000D02*
X66325000Y-41450000D01*
X66325000Y-41450000D02*
X66325000Y-44350000D01*
X66325000Y-44350000D02*
X65875000Y-44350000D01*
X65875000Y-44350000D02*
X65875000Y-41450000D01*
X64475000Y-41400000D02*
X65525000Y-41400000D01*
X101100000Y-47700000D02*
X101100000Y-46400000D01*
X104060000Y-46050000D02*
X101140000Y-46050000D01*
X104060000Y-45950000D02*
X104060000Y-46050000D01*
X101140000Y-45950000D02*
X104060000Y-45950000D01*
X101140000Y-46050000D02*
X101140000Y-45950000D01*
D17*
X97100000Y-51000000D02*
X96100000Y-51000000D01*
X96600000Y-50500000D02*
X96600000Y-51500000D01*
D10*
X76500000Y-34500000D02*
X76500000Y-39500000D01*
X76500000Y-39500000D02*
X81500000Y-39500000D01*
X81500000Y-39500000D02*
X81500000Y-34500000D01*
X81500000Y-34500000D02*
X76500000Y-34500000D01*
X81000000Y-37000000D02*
G75*
G03X81000000Y-37000000I-2000000J0D01*
G01*
X103311904Y-52426190D02*
X103311904Y-51926190D01*
X103835714Y-52378571D02*
X103811904Y-52402380D01*
X103740476Y-52426190D01*
X103692857Y-52426190D01*
X103621428Y-52402380D01*
X103573809Y-52354761D01*
X103550000Y-52307142D01*
X103526190Y-52211904D01*
X103526190Y-52140476D01*
X103550000Y-52045238D01*
X103573809Y-51997619D01*
X103621428Y-51950000D01*
X103692857Y-51926190D01*
X103740476Y-51926190D01*
X103811904Y-51950000D01*
X103835714Y-51973809D01*
X104002380Y-51926190D02*
X104311904Y-51926190D01*
X104145238Y-52116666D01*
X104216666Y-52116666D01*
X104264285Y-52140476D01*
X104288095Y-52164285D01*
X104311904Y-52211904D01*
X104311904Y-52330952D01*
X104288095Y-52378571D01*
X104264285Y-52402380D01*
X104216666Y-52426190D01*
X104073809Y-52426190D01*
X104026190Y-52402380D01*
X104002380Y-52378571D01*
X92492857Y-48176190D02*
X92492857Y-47676190D01*
X92683333Y-47676190D01*
X92730952Y-47700000D01*
X92754761Y-47723809D01*
X92778571Y-47771428D01*
X92778571Y-47842857D01*
X92754761Y-47890476D01*
X92730952Y-47914285D01*
X92683333Y-47938095D01*
X92492857Y-47938095D01*
X92969047Y-48152380D02*
X93040476Y-48176190D01*
X93159523Y-48176190D01*
X93207142Y-48152380D01*
X93230952Y-48128571D01*
X93254761Y-48080952D01*
X93254761Y-48033333D01*
X93230952Y-47985714D01*
X93207142Y-47961904D01*
X93159523Y-47938095D01*
X93064285Y-47914285D01*
X93016666Y-47890476D01*
X92992857Y-47866666D01*
X92969047Y-47819047D01*
X92969047Y-47771428D01*
X92992857Y-47723809D01*
X93016666Y-47700000D01*
X93064285Y-47676190D01*
X93183333Y-47676190D01*
X93254761Y-47700000D01*
X93730952Y-48176190D02*
X93445238Y-48176190D01*
X93588095Y-48176190D02*
X93588095Y-47676190D01*
X93540476Y-47747619D01*
X93492857Y-47795238D01*
X93445238Y-47819047D01*
X107961904Y-52426190D02*
X107961904Y-51926190D01*
X108485714Y-52378571D02*
X108461904Y-52402380D01*
X108390476Y-52426190D01*
X108342857Y-52426190D01*
X108271428Y-52402380D01*
X108223809Y-52354761D01*
X108200000Y-52307142D01*
X108176190Y-52211904D01*
X108176190Y-52140476D01*
X108200000Y-52045238D01*
X108223809Y-51997619D01*
X108271428Y-51950000D01*
X108342857Y-51926190D01*
X108390476Y-51926190D01*
X108461904Y-51950000D01*
X108485714Y-51973809D01*
X108676190Y-51973809D02*
X108700000Y-51950000D01*
X108747619Y-51926190D01*
X108866666Y-51926190D01*
X108914285Y-51950000D01*
X108938095Y-51973809D01*
X108961904Y-52021428D01*
X108961904Y-52069047D01*
X108938095Y-52140476D01*
X108652380Y-52426190D01*
X108961904Y-52426190D01*
X89476190Y-42390952D02*
X89880952Y-42390952D01*
X89928571Y-42367142D01*
X89952380Y-42343333D01*
X89976190Y-42295714D01*
X89976190Y-42200476D01*
X89952380Y-42152857D01*
X89928571Y-42129047D01*
X89880952Y-42105238D01*
X89476190Y-42105238D01*
X89976190Y-41605238D02*
X89976190Y-41890952D01*
X89976190Y-41748095D02*
X89476190Y-41748095D01*
X89547619Y-41795714D01*
X89595238Y-41843333D01*
X89619047Y-41890952D01*
X101690476Y-58426190D02*
X101452380Y-58426190D01*
X101452380Y-57926190D01*
X101857142Y-58164285D02*
X102023809Y-58164285D01*
X102095238Y-58426190D02*
X101857142Y-58426190D01*
X101857142Y-57926190D01*
X102095238Y-57926190D01*
X102309523Y-58426190D02*
X102309523Y-57926190D01*
X102428571Y-57926190D01*
X102500000Y-57950000D01*
X102547619Y-57997619D01*
X102571428Y-58045238D01*
X102595238Y-58140476D01*
X102595238Y-58211904D01*
X102571428Y-58307142D01*
X102547619Y-58354761D01*
X102500000Y-58402380D01*
X102428571Y-58426190D01*
X102309523Y-58426190D01*
X103071428Y-58426190D02*
X102785714Y-58426190D01*
X102928571Y-58426190D02*
X102928571Y-57926190D01*
X102880952Y-57997619D01*
X102833333Y-58045238D01*
X102785714Y-58069047D01*
X104878571Y-57826190D02*
X104711904Y-57588095D01*
X104592857Y-57826190D02*
X104592857Y-57326190D01*
X104783333Y-57326190D01*
X104830952Y-57350000D01*
X104854761Y-57373809D01*
X104878571Y-57421428D01*
X104878571Y-57492857D01*
X104854761Y-57540476D01*
X104830952Y-57564285D01*
X104783333Y-57588095D01*
X104592857Y-57588095D01*
X105354761Y-57826190D02*
X105069047Y-57826190D01*
X105211904Y-57826190D02*
X105211904Y-57326190D01*
X105164285Y-57397619D01*
X105116666Y-57445238D01*
X105069047Y-57469047D01*
X105664285Y-57326190D02*
X105711904Y-57326190D01*
X105759523Y-57350000D01*
X105783333Y-57373809D01*
X105807142Y-57421428D01*
X105830952Y-57516666D01*
X105830952Y-57635714D01*
X105807142Y-57730952D01*
X105783333Y-57778571D01*
X105759523Y-57802380D01*
X105711904Y-57826190D01*
X105664285Y-57826190D01*
X105616666Y-57802380D01*
X105592857Y-57778571D01*
X105569047Y-57730952D01*
X105545238Y-57635714D01*
X105545238Y-57516666D01*
X105569047Y-57421428D01*
X105592857Y-57373809D01*
X105616666Y-57350000D01*
X105664285Y-57326190D01*
X107316666Y-54978571D02*
X107292857Y-55002380D01*
X107221428Y-55026190D01*
X107173809Y-55026190D01*
X107102380Y-55002380D01*
X107054761Y-54954761D01*
X107030952Y-54907142D01*
X107007142Y-54811904D01*
X107007142Y-54740476D01*
X107030952Y-54645238D01*
X107054761Y-54597619D01*
X107102380Y-54550000D01*
X107173809Y-54526190D01*
X107221428Y-54526190D01*
X107292857Y-54550000D01*
X107316666Y-54573809D01*
X107602380Y-54740476D02*
X107554761Y-54716666D01*
X107530952Y-54692857D01*
X107507142Y-54645238D01*
X107507142Y-54621428D01*
X107530952Y-54573809D01*
X107554761Y-54550000D01*
X107602380Y-54526190D01*
X107697619Y-54526190D01*
X107745238Y-54550000D01*
X107769047Y-54573809D01*
X107792857Y-54621428D01*
X107792857Y-54645238D01*
X107769047Y-54692857D01*
X107745238Y-54716666D01*
X107697619Y-54740476D01*
X107602380Y-54740476D01*
X107554761Y-54764285D01*
X107530952Y-54788095D01*
X107507142Y-54835714D01*
X107507142Y-54930952D01*
X107530952Y-54978571D01*
X107554761Y-55002380D01*
X107602380Y-55026190D01*
X107697619Y-55026190D01*
X107745238Y-55002380D01*
X107769047Y-54978571D01*
X107792857Y-54930952D01*
X107792857Y-54835714D01*
X107769047Y-54788095D01*
X107745238Y-54764285D01*
X107697619Y-54740476D01*
X92466666Y-56376190D02*
X92300000Y-56138095D01*
X92180952Y-56376190D02*
X92180952Y-55876190D01*
X92371428Y-55876190D01*
X92419047Y-55900000D01*
X92442857Y-55923809D01*
X92466666Y-55971428D01*
X92466666Y-56042857D01*
X92442857Y-56090476D01*
X92419047Y-56114285D01*
X92371428Y-56138095D01*
X92180952Y-56138095D01*
X92657142Y-55923809D02*
X92680952Y-55900000D01*
X92728571Y-55876190D01*
X92847619Y-55876190D01*
X92895238Y-55900000D01*
X92919047Y-55923809D01*
X92942857Y-55971428D01*
X92942857Y-56019047D01*
X92919047Y-56090476D01*
X92633333Y-56376190D01*
X92942857Y-56376190D01*
X61633333Y-60126190D02*
X61633333Y-60483333D01*
X61609523Y-60554761D01*
X61561904Y-60602380D01*
X61490476Y-60626190D01*
X61442857Y-60626190D01*
X62133333Y-60626190D02*
X61847619Y-60626190D01*
X61990476Y-60626190D02*
X61990476Y-60126190D01*
X61942857Y-60197619D01*
X61895238Y-60245238D01*
X61847619Y-60269047D01*
X110183333Y-49426190D02*
X110183333Y-49783333D01*
X110159523Y-49854761D01*
X110111904Y-49902380D01*
X110040476Y-49926190D01*
X109992857Y-49926190D01*
X110635714Y-49426190D02*
X110540476Y-49426190D01*
X110492857Y-49450000D01*
X110469047Y-49473809D01*
X110421428Y-49545238D01*
X110397619Y-49640476D01*
X110397619Y-49830952D01*
X110421428Y-49878571D01*
X110445238Y-49902380D01*
X110492857Y-49926190D01*
X110588095Y-49926190D01*
X110635714Y-49902380D01*
X110659523Y-49878571D01*
X110683333Y-49830952D01*
X110683333Y-49711904D01*
X110659523Y-49664285D01*
X110635714Y-49640476D01*
X110588095Y-49616666D01*
X110492857Y-49616666D01*
X110445238Y-49640476D01*
X110421428Y-49664285D01*
X110397619Y-49711904D01*
X110133333Y-58276190D02*
X110133333Y-58633333D01*
X110109523Y-58704761D01*
X110061904Y-58752380D01*
X109990476Y-58776190D01*
X109942857Y-58776190D01*
X110347619Y-58323809D02*
X110371428Y-58300000D01*
X110419047Y-58276190D01*
X110538095Y-58276190D01*
X110585714Y-58300000D01*
X110609523Y-58323809D01*
X110633333Y-58371428D01*
X110633333Y-58419047D01*
X110609523Y-58490476D01*
X110323809Y-58776190D01*
X110633333Y-58776190D01*
X105333333Y-38326190D02*
X105333333Y-38683333D01*
X105309523Y-38754761D01*
X105261904Y-38802380D01*
X105190476Y-38826190D01*
X105142857Y-38826190D01*
X105523809Y-38326190D02*
X105857142Y-38326190D01*
X105642857Y-38826190D01*
X105433333Y-61276190D02*
X105433333Y-61633333D01*
X105409523Y-61704761D01*
X105361904Y-61752380D01*
X105290476Y-61776190D01*
X105242857Y-61776190D01*
X105909523Y-61276190D02*
X105671428Y-61276190D01*
X105647619Y-61514285D01*
X105671428Y-61490476D01*
X105719047Y-61466666D01*
X105838095Y-61466666D01*
X105885714Y-61490476D01*
X105909523Y-61514285D01*
X105933333Y-61561904D01*
X105933333Y-61680952D01*
X105909523Y-61728571D01*
X105885714Y-61752380D01*
X105838095Y-61776190D01*
X105719047Y-61776190D01*
X105671428Y-61752380D01*
X105647619Y-61728571D01*
X65166666Y-59976190D02*
X65000000Y-59738095D01*
X64880952Y-59976190D02*
X64880952Y-59476190D01*
X65071428Y-59476190D01*
X65119047Y-59500000D01*
X65142857Y-59523809D01*
X65166666Y-59571428D01*
X65166666Y-59642857D01*
X65142857Y-59690476D01*
X65119047Y-59714285D01*
X65071428Y-59738095D01*
X64880952Y-59738095D01*
X65333333Y-59476190D02*
X65666666Y-59476190D01*
X65452380Y-59976190D01*
X64426190Y-46421428D02*
X64188095Y-46588095D01*
X64426190Y-46707142D02*
X63926190Y-46707142D01*
X63926190Y-46516666D01*
X63950000Y-46469047D01*
X63973809Y-46445238D01*
X64021428Y-46421428D01*
X64092857Y-46421428D01*
X64140476Y-46445238D01*
X64164285Y-46469047D01*
X64188095Y-46516666D01*
X64188095Y-46707142D01*
X64426190Y-45945238D02*
X64426190Y-46230952D01*
X64426190Y-46088095D02*
X63926190Y-46088095D01*
X63997619Y-46135714D01*
X64045238Y-46183333D01*
X64069047Y-46230952D01*
X63926190Y-45492857D02*
X63926190Y-45730952D01*
X64164285Y-45754761D01*
X64140476Y-45730952D01*
X64116666Y-45683333D01*
X64116666Y-45564285D01*
X64140476Y-45516666D01*
X64164285Y-45492857D01*
X64211904Y-45469047D01*
X64330952Y-45469047D01*
X64378571Y-45492857D01*
X64402380Y-45516666D01*
X64426190Y-45564285D01*
X64426190Y-45683333D01*
X64402380Y-45730952D01*
X64378571Y-45754761D01*
X67819047Y-45526190D02*
X67819047Y-45930952D01*
X67842857Y-45978571D01*
X67866666Y-46002380D01*
X67914285Y-46026190D01*
X68009523Y-46026190D01*
X68057142Y-46002380D01*
X68080952Y-45978571D01*
X68104761Y-45930952D01*
X68104761Y-45526190D01*
X68319047Y-45573809D02*
X68342857Y-45550000D01*
X68390476Y-45526190D01*
X68509523Y-45526190D01*
X68557142Y-45550000D01*
X68580952Y-45573809D01*
X68604761Y-45621428D01*
X68604761Y-45669047D01*
X68580952Y-45740476D01*
X68295238Y-46026190D01*
X68604761Y-46026190D01*
X63378571Y-52826190D02*
X63211904Y-52588095D01*
X63092857Y-52826190D02*
X63092857Y-52326190D01*
X63283333Y-52326190D01*
X63330952Y-52350000D01*
X63354761Y-52373809D01*
X63378571Y-52421428D01*
X63378571Y-52492857D01*
X63354761Y-52540476D01*
X63330952Y-52564285D01*
X63283333Y-52588095D01*
X63092857Y-52588095D01*
X63854761Y-52826190D02*
X63569047Y-52826190D01*
X63711904Y-52826190D02*
X63711904Y-52326190D01*
X63664285Y-52397619D01*
X63616666Y-52445238D01*
X63569047Y-52469047D01*
X64283333Y-52492857D02*
X64283333Y-52826190D01*
X64164285Y-52302380D02*
X64045238Y-52659523D01*
X64354761Y-52659523D01*
X61978571Y-47126190D02*
X61811904Y-46888095D01*
X61692857Y-47126190D02*
X61692857Y-46626190D01*
X61883333Y-46626190D01*
X61930952Y-46650000D01*
X61954761Y-46673809D01*
X61978571Y-46721428D01*
X61978571Y-46792857D01*
X61954761Y-46840476D01*
X61930952Y-46864285D01*
X61883333Y-46888095D01*
X61692857Y-46888095D01*
X62454761Y-47126190D02*
X62169047Y-47126190D01*
X62311904Y-47126190D02*
X62311904Y-46626190D01*
X62264285Y-46697619D01*
X62216666Y-46745238D01*
X62169047Y-46769047D01*
X62621428Y-46626190D02*
X62930952Y-46626190D01*
X62764285Y-46816666D01*
X62835714Y-46816666D01*
X62883333Y-46840476D01*
X62907142Y-46864285D01*
X62930952Y-46911904D01*
X62930952Y-47030952D01*
X62907142Y-47078571D01*
X62883333Y-47102380D01*
X62835714Y-47126190D01*
X62692857Y-47126190D01*
X62645238Y-47102380D01*
X62621428Y-47078571D01*
X56578571Y-48678571D02*
X56554761Y-48702380D01*
X56483333Y-48726190D01*
X56435714Y-48726190D01*
X56364285Y-48702380D01*
X56316666Y-48654761D01*
X56292857Y-48607142D01*
X56269047Y-48511904D01*
X56269047Y-48440476D01*
X56292857Y-48345238D01*
X56316666Y-48297619D01*
X56364285Y-48250000D01*
X56435714Y-48226190D01*
X56483333Y-48226190D01*
X56554761Y-48250000D01*
X56578571Y-48273809D01*
X57054761Y-48726190D02*
X56769047Y-48726190D01*
X56911904Y-48726190D02*
X56911904Y-48226190D01*
X56864285Y-48297619D01*
X56816666Y-48345238D01*
X56769047Y-48369047D01*
X57483333Y-48226190D02*
X57388095Y-48226190D01*
X57340476Y-48250000D01*
X57316666Y-48273809D01*
X57269047Y-48345238D01*
X57245238Y-48440476D01*
X57245238Y-48630952D01*
X57269047Y-48678571D01*
X57292857Y-48702380D01*
X57340476Y-48726190D01*
X57435714Y-48726190D01*
X57483333Y-48702380D01*
X57507142Y-48678571D01*
X57530952Y-48630952D01*
X57530952Y-48511904D01*
X57507142Y-48464285D01*
X57483333Y-48440476D01*
X57435714Y-48416666D01*
X57340476Y-48416666D01*
X57292857Y-48440476D01*
X57269047Y-48464285D01*
X57245238Y-48511904D01*
X57978571Y-49478571D02*
X57954761Y-49502380D01*
X57883333Y-49526190D01*
X57835714Y-49526190D01*
X57764285Y-49502380D01*
X57716666Y-49454761D01*
X57692857Y-49407142D01*
X57669047Y-49311904D01*
X57669047Y-49240476D01*
X57692857Y-49145238D01*
X57716666Y-49097619D01*
X57764285Y-49050000D01*
X57835714Y-49026190D01*
X57883333Y-49026190D01*
X57954761Y-49050000D01*
X57978571Y-49073809D01*
X58454761Y-49526190D02*
X58169047Y-49526190D01*
X58311904Y-49526190D02*
X58311904Y-49026190D01*
X58264285Y-49097619D01*
X58216666Y-49145238D01*
X58169047Y-49169047D01*
X58907142Y-49026190D02*
X58669047Y-49026190D01*
X58645238Y-49264285D01*
X58669047Y-49240476D01*
X58716666Y-49216666D01*
X58835714Y-49216666D01*
X58883333Y-49240476D01*
X58907142Y-49264285D01*
X58930952Y-49311904D01*
X58930952Y-49430952D01*
X58907142Y-49478571D01*
X58883333Y-49502380D01*
X58835714Y-49526190D01*
X58716666Y-49526190D01*
X58669047Y-49502380D01*
X58645238Y-49478571D01*
X60278571Y-47078571D02*
X60254761Y-47102380D01*
X60183333Y-47126190D01*
X60135714Y-47126190D01*
X60064285Y-47102380D01*
X60016666Y-47054761D01*
X59992857Y-47007142D01*
X59969047Y-46911904D01*
X59969047Y-46840476D01*
X59992857Y-46745238D01*
X60016666Y-46697619D01*
X60064285Y-46650000D01*
X60135714Y-46626190D01*
X60183333Y-46626190D01*
X60254761Y-46650000D01*
X60278571Y-46673809D01*
X60754761Y-47126190D02*
X60469047Y-47126190D01*
X60611904Y-47126190D02*
X60611904Y-46626190D01*
X60564285Y-46697619D01*
X60516666Y-46745238D01*
X60469047Y-46769047D01*
X61183333Y-46792857D02*
X61183333Y-47126190D01*
X61064285Y-46602380D02*
X60945238Y-46959523D01*
X61254761Y-46959523D01*
X68433333Y-34126190D02*
X68433333Y-34483333D01*
X68409523Y-34554761D01*
X68361904Y-34602380D01*
X68290476Y-34626190D01*
X68242857Y-34626190D01*
X68885714Y-34292857D02*
X68885714Y-34626190D01*
X68766666Y-34102380D02*
X68647619Y-34459523D01*
X68957142Y-34459523D01*
X64066666Y-55926190D02*
X63900000Y-55688095D01*
X63780952Y-55926190D02*
X63780952Y-55426190D01*
X63971428Y-55426190D01*
X64019047Y-55450000D01*
X64042857Y-55473809D01*
X64066666Y-55521428D01*
X64066666Y-55592857D01*
X64042857Y-55640476D01*
X64019047Y-55664285D01*
X63971428Y-55688095D01*
X63780952Y-55688095D01*
X64233333Y-55426190D02*
X64542857Y-55426190D01*
X64376190Y-55616666D01*
X64447619Y-55616666D01*
X64495238Y-55640476D01*
X64519047Y-55664285D01*
X64542857Y-55711904D01*
X64542857Y-55830952D01*
X64519047Y-55878571D01*
X64495238Y-55902380D01*
X64447619Y-55926190D01*
X64304761Y-55926190D01*
X64257142Y-55902380D01*
X64233333Y-55878571D01*
X64116666Y-54826190D02*
X63950000Y-54588095D01*
X63830952Y-54826190D02*
X63830952Y-54326190D01*
X64021428Y-54326190D01*
X64069047Y-54350000D01*
X64092857Y-54373809D01*
X64116666Y-54421428D01*
X64116666Y-54492857D01*
X64092857Y-54540476D01*
X64069047Y-54564285D01*
X64021428Y-54588095D01*
X63830952Y-54588095D01*
X64592857Y-54826190D02*
X64307142Y-54826190D01*
X64450000Y-54826190D02*
X64450000Y-54326190D01*
X64402380Y-54397619D01*
X64354761Y-54445238D01*
X64307142Y-54469047D01*
D16*
X88332380Y-37485047D02*
X88513809Y-37545523D01*
X88816190Y-37545523D01*
X88937142Y-37485047D01*
X88997619Y-37424571D01*
X89058095Y-37303619D01*
X89058095Y-37182666D01*
X88997619Y-37061714D01*
X88937142Y-37001238D01*
X88816190Y-36940761D01*
X88574285Y-36880285D01*
X88453333Y-36819809D01*
X88392857Y-36759333D01*
X88332380Y-36638380D01*
X88332380Y-36517428D01*
X88392857Y-36396476D01*
X88453333Y-36336000D01*
X88574285Y-36275523D01*
X88876666Y-36275523D01*
X89058095Y-36336000D01*
X90267619Y-37545523D02*
X89541904Y-37545523D01*
X89904761Y-37545523D02*
X89904761Y-36275523D01*
X89783809Y-36456952D01*
X89662857Y-36577904D01*
X89541904Y-36638380D01*
D10*
X104816666Y-53926190D02*
X104650000Y-53688095D01*
X104530952Y-53926190D02*
X104530952Y-53426190D01*
X104721428Y-53426190D01*
X104769047Y-53450000D01*
X104792857Y-53473809D01*
X104816666Y-53521428D01*
X104816666Y-53592857D01*
X104792857Y-53640476D01*
X104769047Y-53664285D01*
X104721428Y-53688095D01*
X104530952Y-53688095D01*
X105054761Y-53926190D02*
X105150000Y-53926190D01*
X105197619Y-53902380D01*
X105221428Y-53878571D01*
X105269047Y-53807142D01*
X105292857Y-53711904D01*
X105292857Y-53521428D01*
X105269047Y-53473809D01*
X105245238Y-53450000D01*
X105197619Y-53426190D01*
X105102380Y-53426190D01*
X105054761Y-53450000D01*
X105030952Y-53473809D01*
X105007142Y-53521428D01*
X105007142Y-53640476D01*
X105030952Y-53688095D01*
X105054761Y-53711904D01*
X105102380Y-53735714D01*
X105197619Y-53735714D01*
X105245238Y-53711904D01*
X105269047Y-53688095D01*
X105292857Y-53640476D01*
X107178571Y-48528571D02*
X107154761Y-48552380D01*
X107083333Y-48576190D01*
X107035714Y-48576190D01*
X106964285Y-48552380D01*
X106916666Y-48504761D01*
X106892857Y-48457142D01*
X106869047Y-48361904D01*
X106869047Y-48290476D01*
X106892857Y-48195238D01*
X106916666Y-48147619D01*
X106964285Y-48100000D01*
X107035714Y-48076190D01*
X107083333Y-48076190D01*
X107154761Y-48100000D01*
X107178571Y-48123809D01*
X107654761Y-48576190D02*
X107369047Y-48576190D01*
X107511904Y-48576190D02*
X107511904Y-48076190D01*
X107464285Y-48147619D01*
X107416666Y-48195238D01*
X107369047Y-48219047D01*
X108130952Y-48576190D02*
X107845238Y-48576190D01*
X107988095Y-48576190D02*
X107988095Y-48076190D01*
X107940476Y-48147619D01*
X107892857Y-48195238D01*
X107845238Y-48219047D01*
X97128571Y-44828571D02*
X97104761Y-44852380D01*
X97033333Y-44876190D01*
X96985714Y-44876190D01*
X96914285Y-44852380D01*
X96866666Y-44804761D01*
X96842857Y-44757142D01*
X96819047Y-44661904D01*
X96819047Y-44590476D01*
X96842857Y-44495238D01*
X96866666Y-44447619D01*
X96914285Y-44400000D01*
X96985714Y-44376190D01*
X97033333Y-44376190D01*
X97104761Y-44400000D01*
X97128571Y-44423809D01*
X97604761Y-44876190D02*
X97319047Y-44876190D01*
X97461904Y-44876190D02*
X97461904Y-44376190D01*
X97414285Y-44447619D01*
X97366666Y-44495238D01*
X97319047Y-44519047D01*
X97771428Y-44376190D02*
X98080952Y-44376190D01*
X97914285Y-44566666D01*
X97985714Y-44566666D01*
X98033333Y-44590476D01*
X98057142Y-44614285D01*
X98080952Y-44661904D01*
X98080952Y-44780952D01*
X98057142Y-44828571D01*
X98033333Y-44852380D01*
X97985714Y-44876190D01*
X97842857Y-44876190D01*
X97795238Y-44852380D01*
X97771428Y-44828571D01*
X99130952Y-46176190D02*
X99130952Y-45676190D01*
X99250000Y-45676190D01*
X99321428Y-45700000D01*
X99369047Y-45747619D01*
X99392857Y-45795238D01*
X99416666Y-45890476D01*
X99416666Y-45961904D01*
X99392857Y-46057142D01*
X99369047Y-46104761D01*
X99321428Y-46152380D01*
X99250000Y-46176190D01*
X99130952Y-46176190D01*
X99607142Y-45723809D02*
X99630952Y-45700000D01*
X99678571Y-45676190D01*
X99797619Y-45676190D01*
X99845238Y-45700000D01*
X99869047Y-45723809D01*
X99892857Y-45771428D01*
X99892857Y-45819047D01*
X99869047Y-45890476D01*
X99583333Y-46176190D01*
X99892857Y-46176190D01*
X57311904Y-42126190D02*
X57311904Y-41626190D01*
X57835714Y-42078571D02*
X57811904Y-42102380D01*
X57740476Y-42126190D01*
X57692857Y-42126190D01*
X57621428Y-42102380D01*
X57573809Y-42054761D01*
X57550000Y-42007142D01*
X57526190Y-41911904D01*
X57526190Y-41840476D01*
X57550000Y-41745238D01*
X57573809Y-41697619D01*
X57621428Y-41650000D01*
X57692857Y-41626190D01*
X57740476Y-41626190D01*
X57811904Y-41650000D01*
X57835714Y-41673809D01*
X58311904Y-42126190D02*
X58026190Y-42126190D01*
X58169047Y-42126190D02*
X58169047Y-41626190D01*
X58121428Y-41697619D01*
X58073809Y-41745238D01*
X58026190Y-41769047D01*
X64752380Y-37273809D02*
X64704761Y-37250000D01*
X64657142Y-37202380D01*
X64585714Y-37130952D01*
X64538095Y-37107142D01*
X64490476Y-37107142D01*
X64514285Y-37226190D02*
X64466666Y-37202380D01*
X64419047Y-37154761D01*
X64395238Y-37059523D01*
X64395238Y-36892857D01*
X64419047Y-36797619D01*
X64466666Y-36750000D01*
X64514285Y-36726190D01*
X64609523Y-36726190D01*
X64657142Y-36750000D01*
X64704761Y-36797619D01*
X64728571Y-36892857D01*
X64728571Y-37059523D01*
X64704761Y-37154761D01*
X64657142Y-37202380D01*
X64609523Y-37226190D01*
X64514285Y-37226190D01*
X65204761Y-37226190D02*
X64919047Y-37226190D01*
X65061904Y-37226190D02*
X65061904Y-36726190D01*
X65014285Y-36797619D01*
X64966666Y-36845238D01*
X64919047Y-36869047D01*
X67152380Y-44173809D02*
X67104761Y-44150000D01*
X67057142Y-44102380D01*
X66985714Y-44030952D01*
X66938095Y-44007142D01*
X66890476Y-44007142D01*
X66914285Y-44126190D02*
X66866666Y-44102380D01*
X66819047Y-44054761D01*
X66795238Y-43959523D01*
X66795238Y-43792857D01*
X66819047Y-43697619D01*
X66866666Y-43650000D01*
X66914285Y-43626190D01*
X67009523Y-43626190D01*
X67057142Y-43650000D01*
X67104761Y-43697619D01*
X67128571Y-43792857D01*
X67128571Y-43959523D01*
X67104761Y-44054761D01*
X67057142Y-44102380D01*
X67009523Y-44126190D01*
X66914285Y-44126190D01*
X67319047Y-43673809D02*
X67342857Y-43650000D01*
X67390476Y-43626190D01*
X67509523Y-43626190D01*
X67557142Y-43650000D01*
X67580952Y-43673809D01*
X67604761Y-43721428D01*
X67604761Y-43769047D01*
X67580952Y-43840476D01*
X67295238Y-44126190D01*
X67604761Y-44126190D01*
X103602380Y-45373809D02*
X103554761Y-45350000D01*
X103507142Y-45302380D01*
X103435714Y-45230952D01*
X103388095Y-45207142D01*
X103340476Y-45207142D01*
X103364285Y-45326190D02*
X103316666Y-45302380D01*
X103269047Y-45254761D01*
X103245238Y-45159523D01*
X103245238Y-44992857D01*
X103269047Y-44897619D01*
X103316666Y-44850000D01*
X103364285Y-44826190D01*
X103459523Y-44826190D01*
X103507142Y-44850000D01*
X103554761Y-44897619D01*
X103578571Y-44992857D01*
X103578571Y-45159523D01*
X103554761Y-45254761D01*
X103507142Y-45302380D01*
X103459523Y-45326190D01*
X103364285Y-45326190D01*
X103745238Y-44826190D02*
X104054761Y-44826190D01*
X103888095Y-45016666D01*
X103959523Y-45016666D01*
X104007142Y-45040476D01*
X104030952Y-45064285D01*
X104054761Y-45111904D01*
X104054761Y-45230952D01*
X104030952Y-45278571D01*
X104007142Y-45302380D01*
X103959523Y-45326190D01*
X103816666Y-45326190D01*
X103769047Y-45302380D01*
X103745238Y-45278571D01*
X92016666Y-46326190D02*
X91850000Y-46088095D01*
X91730952Y-46326190D02*
X91730952Y-45826190D01*
X91921428Y-45826190D01*
X91969047Y-45850000D01*
X91992857Y-45873809D01*
X92016666Y-45921428D01*
X92016666Y-45992857D01*
X91992857Y-46040476D01*
X91969047Y-46064285D01*
X91921428Y-46088095D01*
X91730952Y-46088095D01*
X92445238Y-45826190D02*
X92350000Y-45826190D01*
X92302380Y-45850000D01*
X92278571Y-45873809D01*
X92230952Y-45945238D01*
X92207142Y-46040476D01*
X92207142Y-46230952D01*
X92230952Y-46278571D01*
X92254761Y-46302380D01*
X92302380Y-46326190D01*
X92397619Y-46326190D01*
X92445238Y-46302380D01*
X92469047Y-46278571D01*
X92492857Y-46230952D01*
X92492857Y-46111904D01*
X92469047Y-46064285D01*
X92445238Y-46040476D01*
X92397619Y-46016666D01*
X92302380Y-46016666D01*
X92254761Y-46040476D01*
X92230952Y-46064285D01*
X92207142Y-46111904D01*
X92016666Y-44576190D02*
X91850000Y-44338095D01*
X91730952Y-44576190D02*
X91730952Y-44076190D01*
X91921428Y-44076190D01*
X91969047Y-44100000D01*
X91992857Y-44123809D01*
X92016666Y-44171428D01*
X92016666Y-44242857D01*
X91992857Y-44290476D01*
X91969047Y-44314285D01*
X91921428Y-44338095D01*
X91730952Y-44338095D01*
X92302380Y-44290476D02*
X92254761Y-44266666D01*
X92230952Y-44242857D01*
X92207142Y-44195238D01*
X92207142Y-44171428D01*
X92230952Y-44123809D01*
X92254761Y-44100000D01*
X92302380Y-44076190D01*
X92397619Y-44076190D01*
X92445238Y-44100000D01*
X92469047Y-44123809D01*
X92492857Y-44171428D01*
X92492857Y-44195238D01*
X92469047Y-44242857D01*
X92445238Y-44266666D01*
X92397619Y-44290476D01*
X92302380Y-44290476D01*
X92254761Y-44314285D01*
X92230952Y-44338095D01*
X92207142Y-44385714D01*
X92207142Y-44480952D01*
X92230952Y-44528571D01*
X92254761Y-44552380D01*
X92302380Y-44576190D01*
X92397619Y-44576190D01*
X92445238Y-44552380D01*
X92469047Y-44528571D01*
X92492857Y-44480952D01*
X92492857Y-44385714D01*
X92469047Y-44338095D01*
X92445238Y-44314285D01*
X92397619Y-44290476D01*
X93978571Y-51676190D02*
X93811904Y-51438095D01*
X93692857Y-51676190D02*
X93692857Y-51176190D01*
X93883333Y-51176190D01*
X93930952Y-51200000D01*
X93954761Y-51223809D01*
X93978571Y-51271428D01*
X93978571Y-51342857D01*
X93954761Y-51390476D01*
X93930952Y-51414285D01*
X93883333Y-51438095D01*
X93692857Y-51438095D01*
X94454761Y-51676190D02*
X94169047Y-51676190D01*
X94311904Y-51676190D02*
X94311904Y-51176190D01*
X94264285Y-51247619D01*
X94216666Y-51295238D01*
X94169047Y-51319047D01*
X94645238Y-51223809D02*
X94669047Y-51200000D01*
X94716666Y-51176190D01*
X94835714Y-51176190D01*
X94883333Y-51200000D01*
X94907142Y-51223809D01*
X94930952Y-51271428D01*
X94930952Y-51319047D01*
X94907142Y-51390476D01*
X94621428Y-51676190D01*
X94930952Y-51676190D01*
X67578571Y-50883333D02*
X67602380Y-50907142D01*
X67626190Y-50978571D01*
X67626190Y-51026190D01*
X67602380Y-51097619D01*
X67554761Y-51145238D01*
X67507142Y-51169047D01*
X67411904Y-51192857D01*
X67340476Y-51192857D01*
X67245238Y-51169047D01*
X67197619Y-51145238D01*
X67150000Y-51097619D01*
X67126190Y-51026190D01*
X67126190Y-50978571D01*
X67150000Y-50907142D01*
X67173809Y-50883333D01*
X67126190Y-50716666D02*
X67126190Y-50383333D01*
X67626190Y-50597619D01*
X99078571Y-52826190D02*
X98911904Y-52588095D01*
X98792857Y-52826190D02*
X98792857Y-52326190D01*
X98983333Y-52326190D01*
X99030952Y-52350000D01*
X99054761Y-52373809D01*
X99078571Y-52421428D01*
X99078571Y-52492857D01*
X99054761Y-52540476D01*
X99030952Y-52564285D01*
X98983333Y-52588095D01*
X98792857Y-52588095D01*
X99554761Y-52826190D02*
X99269047Y-52826190D01*
X99411904Y-52826190D02*
X99411904Y-52326190D01*
X99364285Y-52397619D01*
X99316666Y-52445238D01*
X99269047Y-52469047D01*
X100030952Y-52826190D02*
X99745238Y-52826190D01*
X99888095Y-52826190D02*
X99888095Y-52326190D01*
X99840476Y-52397619D01*
X99792857Y-52445238D01*
X99745238Y-52469047D01*
D18*
X75135714Y-35852380D02*
X74564285Y-35852380D01*
X74850000Y-35852380D02*
X74850000Y-34852380D01*
X74754761Y-34995238D01*
X74659523Y-35090476D01*
X74564285Y-35138095D01*
X78409523Y-37361904D02*
X78409523Y-36561904D01*
X78600000Y-36561904D01*
X78714285Y-36600000D01*
X78790476Y-36676190D01*
X78828571Y-36752380D01*
X78866666Y-36904761D01*
X78866666Y-37019047D01*
X78828571Y-37171428D01*
X78790476Y-37247619D01*
X78714285Y-37323809D01*
X78600000Y-37361904D01*
X78409523Y-37361904D01*
X79628571Y-37361904D02*
X79171428Y-37361904D01*
X79400000Y-37361904D02*
X79400000Y-36561904D01*
X79323809Y-36676190D01*
X79247619Y-36752380D01*
X79171428Y-36790476D01*
D10*
X68616666Y-40726190D02*
X68450000Y-40488095D01*
X68330952Y-40726190D02*
X68330952Y-40226190D01*
X68521428Y-40226190D01*
X68569047Y-40250000D01*
X68592857Y-40273809D01*
X68616666Y-40321428D01*
X68616666Y-40392857D01*
X68592857Y-40440476D01*
X68569047Y-40464285D01*
X68521428Y-40488095D01*
X68330952Y-40488095D01*
X69045238Y-40392857D02*
X69045238Y-40726190D01*
X68926190Y-40202380D02*
X68807142Y-40559523D01*
X69116666Y-40559523D01*
X56316666Y-45378571D02*
X56292857Y-45402380D01*
X56221428Y-45426190D01*
X56173809Y-45426190D01*
X56102380Y-45402380D01*
X56054761Y-45354761D01*
X56030952Y-45307142D01*
X56007142Y-45211904D01*
X56007142Y-45140476D01*
X56030952Y-45045238D01*
X56054761Y-44997619D01*
X56102380Y-44950000D01*
X56173809Y-44926190D01*
X56221428Y-44926190D01*
X56292857Y-44950000D01*
X56316666Y-44973809D01*
X56745238Y-45092857D02*
X56745238Y-45426190D01*
X56626190Y-44902380D02*
X56507142Y-45259523D01*
X56816666Y-45259523D01*
X68678571Y-50983333D02*
X68702380Y-51007142D01*
X68726190Y-51078571D01*
X68726190Y-51126190D01*
X68702380Y-51197619D01*
X68654761Y-51245238D01*
X68607142Y-51269047D01*
X68511904Y-51292857D01*
X68440476Y-51292857D01*
X68345238Y-51269047D01*
X68297619Y-51245238D01*
X68250000Y-51197619D01*
X68226190Y-51126190D01*
X68226190Y-51078571D01*
X68250000Y-51007142D01*
X68273809Y-50983333D01*
X68226190Y-50554761D02*
X68226190Y-50650000D01*
X68250000Y-50697619D01*
X68273809Y-50721428D01*
X68345238Y-50769047D01*
X68440476Y-50792857D01*
X68630952Y-50792857D01*
X68678571Y-50769047D01*
X68702380Y-50745238D01*
X68726190Y-50697619D01*
X68726190Y-50602380D01*
X68702380Y-50554761D01*
X68678571Y-50530952D01*
X68630952Y-50507142D01*
X68511904Y-50507142D01*
X68464285Y-50530952D01*
X68440476Y-50554761D01*
X68416666Y-50602380D01*
X68416666Y-50697619D01*
X68440476Y-50745238D01*
X68464285Y-50769047D01*
X68511904Y-50792857D01*
X62416666Y-40726190D02*
X62250000Y-40488095D01*
X62130952Y-40726190D02*
X62130952Y-40226190D01*
X62321428Y-40226190D01*
X62369047Y-40250000D01*
X62392857Y-40273809D01*
X62416666Y-40321428D01*
X62416666Y-40392857D01*
X62392857Y-40440476D01*
X62369047Y-40464285D01*
X62321428Y-40488095D01*
X62130952Y-40488095D01*
X62869047Y-40226190D02*
X62630952Y-40226190D01*
X62607142Y-40464285D01*
X62630952Y-40440476D01*
X62678571Y-40416666D01*
X62797619Y-40416666D01*
X62845238Y-40440476D01*
X62869047Y-40464285D01*
X62892857Y-40511904D01*
X62892857Y-40630952D01*
X62869047Y-40678571D01*
X62845238Y-40702380D01*
X62797619Y-40726190D01*
X62678571Y-40726190D01*
X62630952Y-40702380D01*
X62607142Y-40678571D01*
X104978571Y-46378571D02*
X104954761Y-46402380D01*
X104883333Y-46426190D01*
X104835714Y-46426190D01*
X104764285Y-46402380D01*
X104716666Y-46354761D01*
X104692857Y-46307142D01*
X104669047Y-46211904D01*
X104669047Y-46140476D01*
X104692857Y-46045238D01*
X104716666Y-45997619D01*
X104764285Y-45950000D01*
X104835714Y-45926190D01*
X104883333Y-45926190D01*
X104954761Y-45950000D01*
X104978571Y-45973809D01*
X105454761Y-46426190D02*
X105169047Y-46426190D01*
X105311904Y-46426190D02*
X105311904Y-45926190D01*
X105264285Y-45997619D01*
X105216666Y-46045238D01*
X105169047Y-46069047D01*
X105645238Y-45973809D02*
X105669047Y-45950000D01*
X105716666Y-45926190D01*
X105835714Y-45926190D01*
X105883333Y-45950000D01*
X105907142Y-45973809D01*
X105930952Y-46021428D01*
X105930952Y-46069047D01*
X105907142Y-46140476D01*
X105621428Y-46426190D01*
X105930952Y-46426190D01*
X100278571Y-42978571D02*
X100254761Y-43002380D01*
X100183333Y-43026190D01*
X100135714Y-43026190D01*
X100064285Y-43002380D01*
X100016666Y-42954761D01*
X99992857Y-42907142D01*
X99969047Y-42811904D01*
X99969047Y-42740476D01*
X99992857Y-42645238D01*
X100016666Y-42597619D01*
X100064285Y-42550000D01*
X100135714Y-42526190D01*
X100183333Y-42526190D01*
X100254761Y-42550000D01*
X100278571Y-42573809D01*
X100754761Y-43026190D02*
X100469047Y-43026190D01*
X100611904Y-43026190D02*
X100611904Y-42526190D01*
X100564285Y-42597619D01*
X100516666Y-42645238D01*
X100469047Y-42669047D01*
X101064285Y-42526190D02*
X101111904Y-42526190D01*
X101159523Y-42550000D01*
X101183333Y-42573809D01*
X101207142Y-42621428D01*
X101230952Y-42716666D01*
X101230952Y-42835714D01*
X101207142Y-42930952D01*
X101183333Y-42978571D01*
X101159523Y-43002380D01*
X101111904Y-43026190D01*
X101064285Y-43026190D01*
X101016666Y-43002380D01*
X100992857Y-42978571D01*
X100969047Y-42930952D01*
X100945238Y-42835714D01*
X100945238Y-42716666D01*
X100969047Y-42621428D01*
X100992857Y-42573809D01*
X101016666Y-42550000D01*
X101064285Y-42526190D01*
X99216666Y-51778571D02*
X99192857Y-51802380D01*
X99121428Y-51826190D01*
X99073809Y-51826190D01*
X99002380Y-51802380D01*
X98954761Y-51754761D01*
X98930952Y-51707142D01*
X98907142Y-51611904D01*
X98907142Y-51540476D01*
X98930952Y-51445238D01*
X98954761Y-51397619D01*
X99002380Y-51350000D01*
X99073809Y-51326190D01*
X99121428Y-51326190D01*
X99192857Y-51350000D01*
X99216666Y-51373809D01*
X99454761Y-51826190D02*
X99550000Y-51826190D01*
X99597619Y-51802380D01*
X99621428Y-51778571D01*
X99669047Y-51707142D01*
X99692857Y-51611904D01*
X99692857Y-51421428D01*
X99669047Y-51373809D01*
X99645238Y-51350000D01*
X99597619Y-51326190D01*
X99502380Y-51326190D01*
X99454761Y-51350000D01*
X99430952Y-51373809D01*
X99407142Y-51421428D01*
X99407142Y-51540476D01*
X99430952Y-51588095D01*
X99454761Y-51611904D01*
X99502380Y-51635714D01*
X99597619Y-51635714D01*
X99645238Y-51611904D01*
X99669047Y-51588095D01*
X99692857Y-51540476D01*
X66378571Y-52083333D02*
X66402380Y-52107142D01*
X66426190Y-52178571D01*
X66426190Y-52226190D01*
X66402380Y-52297619D01*
X66354761Y-52345238D01*
X66307142Y-52369047D01*
X66211904Y-52392857D01*
X66140476Y-52392857D01*
X66045238Y-52369047D01*
X65997619Y-52345238D01*
X65950000Y-52297619D01*
X65926190Y-52226190D01*
X65926190Y-52178571D01*
X65950000Y-52107142D01*
X65973809Y-52083333D01*
X65926190Y-51630952D02*
X65926190Y-51869047D01*
X66164285Y-51892857D01*
X66140476Y-51869047D01*
X66116666Y-51821428D01*
X66116666Y-51702380D01*
X66140476Y-51654761D01*
X66164285Y-51630952D01*
X66211904Y-51607142D01*
X66330952Y-51607142D01*
X66378571Y-51630952D01*
X66402380Y-51654761D01*
X66426190Y-51702380D01*
X66426190Y-51821428D01*
X66402380Y-51869047D01*
X66378571Y-51892857D01*
X89916666Y-59428571D02*
X89892857Y-59452380D01*
X89821428Y-59476190D01*
X89773809Y-59476190D01*
X89702380Y-59452380D01*
X89654761Y-59404761D01*
X89630952Y-59357142D01*
X89607142Y-59261904D01*
X89607142Y-59190476D01*
X89630952Y-59095238D01*
X89654761Y-59047619D01*
X89702380Y-59000000D01*
X89773809Y-58976190D01*
X89821428Y-58976190D01*
X89892857Y-59000000D01*
X89916666Y-59023809D01*
X90107142Y-59023809D02*
X90130952Y-59000000D01*
X90178571Y-58976190D01*
X90297619Y-58976190D01*
X90345238Y-59000000D01*
X90369047Y-59023809D01*
X90392857Y-59071428D01*
X90392857Y-59119047D01*
X90369047Y-59190476D01*
X90083333Y-59476190D01*
X90392857Y-59476190D01*
X92966666Y-61428571D02*
X92942857Y-61452380D01*
X92871428Y-61476190D01*
X92823809Y-61476190D01*
X92752380Y-61452380D01*
X92704761Y-61404761D01*
X92680952Y-61357142D01*
X92657142Y-61261904D01*
X92657142Y-61190476D01*
X92680952Y-61095238D01*
X92704761Y-61047619D01*
X92752380Y-61000000D01*
X92823809Y-60976190D01*
X92871428Y-60976190D01*
X92942857Y-61000000D01*
X92966666Y-61023809D01*
X93133333Y-60976190D02*
X93442857Y-60976190D01*
X93276190Y-61166666D01*
X93347619Y-61166666D01*
X93395238Y-61190476D01*
X93419047Y-61214285D01*
X93442857Y-61261904D01*
X93442857Y-61380952D01*
X93419047Y-61428571D01*
X93395238Y-61452380D01*
X93347619Y-61476190D01*
X93204761Y-61476190D01*
X93157142Y-61452380D01*
X93133333Y-61428571D01*
X89966666Y-56128571D02*
X89942857Y-56152380D01*
X89871428Y-56176190D01*
X89823809Y-56176190D01*
X89752380Y-56152380D01*
X89704761Y-56104761D01*
X89680952Y-56057142D01*
X89657142Y-55961904D01*
X89657142Y-55890476D01*
X89680952Y-55795238D01*
X89704761Y-55747619D01*
X89752380Y-55700000D01*
X89823809Y-55676190D01*
X89871428Y-55676190D01*
X89942857Y-55700000D01*
X89966666Y-55723809D01*
X90442857Y-56176190D02*
X90157142Y-56176190D01*
X90300000Y-56176190D02*
X90300000Y-55676190D01*
X90252380Y-55747619D01*
X90204761Y-55795238D01*
X90157142Y-55819047D01*
M02*
