M48
; DRILL file {KiCad (5.1.5)-3} date 3/20/2020 2:52:27 PM
; FORMAT={-:-/ absolute / metric / decimal}
; #@! TF.CreationDate,2020-03-20T14:52:27-04:00
; #@! TF.GenerationSoftware,Kicad,Pcbnew,(5.1.5)-3
; #@! TF.FileFunction,Plated,1,2,PTH
FMAT,2
METRIC
T1C0.200
T2C0.500
T3C0.800
T4C1.100
%
G90
G05
T1
X57.5Y-46.8
X58.4Y-49.1
X59.4Y-50.4
X59.5Y-40.7
X60.1Y-48.2
X61.55Y-49.45
X61.8Y-39.8
X63.4Y-47.75
X63.425Y-49.35
X65.2Y-55.2
X65.6Y-49.46
X65.9Y-60.4
X66.0Y-51.35
X66.1Y-56.8
X67.4Y-53.0
X68.0Y-57.3
X68.35Y-41.9
X70.7Y-40.6
X75.5Y-51.2
X79.2Y-45.55
X79.55Y-38.7
X81.35Y-47.3
X82.05Y-58.65
X83.5Y-48.85
X85.0Y-51.4
X85.85Y-53.9
X90.0Y-49.55
X91.3Y-42.65
X92.6Y-41.2
X94.05Y-47.7
X97.25Y-48.85
X100.3Y-36.1
X100.3Y-37.5
X103.5Y-36.0
X103.5Y-37.5
X106.4Y-44.1
X109.5Y-46.2
T2
X71.0Y-36.0
X71.0Y-37.0
X71.0Y-38.0
X72.0Y-36.0
X72.0Y-37.0
X72.0Y-38.0
T3
X113.0Y-42.19
X113.0Y-46.0
T4
X109.0Y-51.0
X109.0Y-53.54
X109.0Y-56.08
X109.0Y-58.62
X111.54Y-51.0
X111.54Y-53.54
X111.54Y-56.08
X111.54Y-58.62
X114.08Y-51.0
X114.08Y-53.54
X114.08Y-56.08
X114.08Y-58.62
T2
G00X56.5Y-50.41
M15
G01X55.9Y-50.41
M16
G05
G00X56.5Y-59.39
M15
G01X55.9Y-59.39
M16
G05
G00X62.45Y-50.77
M15
G01X61.85Y-50.77
M16
G05
G00X62.45Y-59.03
M15
G01X61.85Y-59.03
M16
G05
T0
M30
