%FSLAX45Y45*%
G04 Gerber Fmt 4.5, Leading zero omitted, Abs format (unit mm)*
G04 Created by KiCad (PCBNEW (5.1.5)-3) date 2020-05-02 18:45:58*
%MOMM*%
%LPD*%
G04 APERTURE LIST*
%TA.AperFunction,Profile*%
%ADD10C,0.050000*%
%TD*%
%TA.AperFunction,Profile*%
%ADD11C,0.100000*%
%TD*%
%ADD12C,0.200000*%
%ADD13C,0.300000*%
G04 APERTURE END LIST*
D10*
X6500000Y-6800000D02*
X5500000Y-6800000D01*
X6500000Y-6300000D02*
X6500000Y-6800000D01*
X6900000Y-6300000D02*
X6500000Y-6300000D01*
X9400000Y-6300000D02*
X6900000Y-6300000D01*
X9400000Y-6800000D02*
X9400000Y-6300000D01*
X11100000Y-6800000D02*
X9400000Y-6800000D01*
D11*
X5500000Y-3200000D02*
X5500000Y-3300000D01*
X11600000Y-3200000D02*
X5500000Y-3200000D01*
X11600000Y-3300000D02*
X11600000Y-3200000D01*
X11600000Y-3300000D02*
X11600000Y-6800000D01*
X11600000Y-6800000D02*
X11100000Y-6800000D01*
X5500000Y-6800000D02*
X5500000Y-3300000D01*
D12*
X5670000Y-4730000D02*
X5690000Y-4750000D01*
X5690000Y-4730000D02*
X5670000Y-4750000D01*
X5690000Y-4270000D02*
X5710000Y-4290000D01*
X5710000Y-4270000D02*
X5690000Y-4290000D01*
X5790000Y-4440000D02*
X5810000Y-4460000D01*
X5810000Y-4440000D02*
X5790000Y-4460000D01*
X5830000Y-5570000D02*
X5850000Y-5590000D01*
X5850000Y-5570000D02*
X5830000Y-5590000D01*
X5890000Y-4630000D02*
X5910000Y-4650000D01*
X5910000Y-4630000D02*
X5890000Y-4650000D01*
X5940000Y-5340000D02*
X5960000Y-5360000D01*
X5960000Y-5340000D02*
X5940000Y-5360000D01*
X6110000Y-4380000D02*
X6130000Y-4400000D01*
X6130000Y-4380000D02*
X6110000Y-4400000D01*
X6130000Y-5160000D02*
X6150000Y-5180000D01*
X6150000Y-5160000D02*
X6130000Y-5180000D01*
X6150000Y-4010000D02*
X6170000Y-4030000D01*
X6170000Y-4010000D02*
X6150000Y-4030000D01*
X6290000Y-3870000D02*
X6310000Y-3890000D01*
X6310000Y-3870000D02*
X6290000Y-3890000D01*
X6290000Y-4970000D02*
X6310000Y-4990000D01*
X6310000Y-4970000D02*
X6290000Y-4990000D01*
X6340000Y-5500000D02*
X6360000Y-5520000D01*
X6360000Y-5500000D02*
X6340000Y-5520000D01*
X6360000Y-5150000D02*
X6380000Y-5170000D01*
X6380000Y-5150000D02*
X6360000Y-5170000D01*
X6553750Y-4606250D02*
X6573750Y-4626250D01*
X6573750Y-4606250D02*
X6553750Y-4626250D01*
X6570000Y-5050000D02*
X6590000Y-5070000D01*
X6590000Y-5050000D02*
X6570000Y-5070000D01*
X6580000Y-3780000D02*
X6600000Y-3800000D01*
X6600000Y-3780000D02*
X6580000Y-3800000D01*
X6660000Y-5310000D02*
X6680000Y-5330000D01*
X6680000Y-5310000D02*
X6660000Y-5330000D01*
X6840000Y-5490000D02*
X6860000Y-5510000D01*
X6860000Y-5490000D02*
X6840000Y-5510000D01*
X6900000Y-4290000D02*
X6920000Y-4310000D01*
X6920000Y-4290000D02*
X6900000Y-4310000D01*
X7340000Y-4480000D02*
X7360000Y-4500000D01*
X7360000Y-4480000D02*
X7340000Y-4500000D01*
X7450000Y-3420000D02*
X7470000Y-3440000D01*
X7470000Y-3420000D02*
X7450000Y-3440000D01*
X8210000Y-5780000D02*
X8230000Y-5800000D01*
X8230000Y-5780000D02*
X8210000Y-5800000D01*
X8500000Y-6020000D02*
X8520000Y-6040000D01*
X8520000Y-6020000D02*
X8500000Y-6040000D01*
X8540000Y-5640000D02*
X8560000Y-5660000D01*
X8560000Y-5640000D02*
X8540000Y-5660000D01*
X8610000Y-5100000D02*
X8630000Y-5120000D01*
X8630000Y-5100000D02*
X8610000Y-5120000D01*
X8990000Y-5260000D02*
X9010000Y-5280000D01*
X9010000Y-5260000D02*
X8990000Y-5280000D01*
X8995000Y-5520000D02*
X9015000Y-5540000D01*
X9015000Y-5520000D02*
X8995000Y-5540000D01*
X9100000Y-5460000D02*
X9120000Y-5480000D01*
X9120000Y-5460000D02*
X9100000Y-5480000D01*
X9300000Y-5030000D02*
X9320000Y-5050000D01*
X9320000Y-5030000D02*
X9300000Y-5050000D01*
X9650000Y-6130000D02*
X9670000Y-6150000D01*
X9670000Y-6130000D02*
X9650000Y-6150000D01*
X9740000Y-4820000D02*
X9760000Y-4840000D01*
X9760000Y-4820000D02*
X9740000Y-4840000D01*
X9800000Y-6265000D02*
X9820000Y-6285000D01*
X9820000Y-6265000D02*
X9800000Y-6285000D01*
X9850000Y-3890000D02*
X9870000Y-3910000D01*
X9870000Y-3890000D02*
X9850000Y-3910000D01*
X9920000Y-5040000D02*
X9940000Y-5060000D01*
X9940000Y-5040000D02*
X9920000Y-5060000D01*
X9920000Y-5810000D02*
X9940000Y-5830000D01*
X9940000Y-5810000D02*
X9920000Y-5830000D01*
X9930000Y-6050000D02*
X9950000Y-6070000D01*
X9950000Y-6050000D02*
X9930000Y-6070000D01*
X9940000Y-6680000D02*
X9960000Y-6700000D01*
X9960000Y-6680000D02*
X9940000Y-6700000D01*
X10210000Y-4990000D02*
X10230000Y-5010000D01*
X10230000Y-4990000D02*
X10210000Y-5010000D01*
X10520000Y-4730000D02*
X10540000Y-4750000D01*
X10540000Y-4730000D02*
X10520000Y-4750000D01*
X10660000Y-4910000D02*
X10680000Y-4930000D01*
X10680000Y-4910000D02*
X10660000Y-4930000D01*
X10740000Y-4720000D02*
X10760000Y-4740000D01*
X10760000Y-4720000D02*
X10740000Y-4740000D01*
X10820000Y-4225000D02*
X10840000Y-4245000D01*
X10840000Y-4225000D02*
X10820000Y-4245000D01*
X10830000Y-5110000D02*
X10850000Y-5130000D01*
X10850000Y-5110000D02*
X10830000Y-5130000D01*
X11090000Y-5760000D02*
X11110000Y-5780000D01*
X11110000Y-5760000D02*
X11090000Y-5780000D01*
X6582698Y-4520000D02*
G75*
G03X6582698Y-4520000I-25000J0D01*
G01*
X6665000Y-5830000D02*
G75*
G03X6665000Y-5830000I-25000J0D01*
G01*
X6815000Y-5140000D02*
G75*
G03X6815000Y-5140000I-25000J0D01*
G01*
X7515000Y-4900000D02*
G75*
G03X7515000Y-4900000I-25000J0D01*
G01*
X9475000Y-4460000D02*
G75*
G03X9475000Y-4460000I-25000J0D01*
G01*
X9595000Y-5760000D02*
G75*
G03X9595000Y-5760000I-25000J0D01*
G01*
X9875000Y-5350000D02*
G75*
G03X9875000Y-5350000I-25000J0D01*
G01*
X10555000Y-3990000D02*
G75*
G03X10555000Y-3990000I-25000J0D01*
G01*
X10620000Y-4490000D02*
G75*
G03X10620000Y-4490000I-25000J0D01*
G01*
X5660000Y-5028000D02*
X5660000Y-5088000D01*
X5630000Y-5058000D02*
X5690000Y-5058000D01*
X5700000Y-5038000D02*
X5620000Y-5038000D01*
X5700000Y-5078000D02*
X5620000Y-5078000D01*
X5620000Y-5038000D02*
G75*
G03X5620000Y-5078000I0J-20000D01*
G01*
X5700000Y-5078000D02*
G75*
G03X5700000Y-5038000I0J20000D01*
G01*
X5660000Y-5892000D02*
X5660000Y-5952000D01*
X5630000Y-5922000D02*
X5690000Y-5922000D01*
X5700000Y-5902000D02*
X5620000Y-5902000D01*
X5700000Y-5942000D02*
X5620000Y-5942000D01*
X5620000Y-5902000D02*
G75*
G03X5620000Y-5942000I0J-20000D01*
G01*
X5700000Y-5942000D02*
G75*
G03X5700000Y-5902000I0J20000D01*
G01*
X6078000Y-5028000D02*
X6078000Y-5088000D01*
X6048000Y-5058000D02*
X6108000Y-5058000D01*
X6133000Y-5038000D02*
X6023000Y-5038000D01*
X6133000Y-5078000D02*
X6023000Y-5078000D01*
X6023000Y-5038000D02*
G75*
G03X6023000Y-5078000I0J-20000D01*
G01*
X6133000Y-5078000D02*
G75*
G03X6133000Y-5038000I0J20000D01*
G01*
X6078000Y-5892000D02*
X6078000Y-5952000D01*
X6048000Y-5922000D02*
X6108000Y-5922000D01*
X6133000Y-5902000D02*
X6023000Y-5902000D01*
X6133000Y-5942000D02*
X6023000Y-5942000D01*
X6023000Y-5902000D02*
G75*
G03X6023000Y-5942000I0J-20000D01*
G01*
X6133000Y-5942000D02*
G75*
G03X6133000Y-5902000I0J20000D01*
G01*
X7058981Y-3582981D02*
X7058981Y-3537019D01*
X7013019Y-3537019D01*
X7013019Y-3582981D01*
X7058981Y-3582981D01*
X7058981Y-3709981D02*
X7058981Y-3664019D01*
X7013019Y-3664019D01*
X7013019Y-3709981D01*
X7058981Y-3709981D01*
X7185981Y-3582981D02*
X7185981Y-3537019D01*
X7140019Y-3537019D01*
X7140019Y-3582981D01*
X7185981Y-3582981D01*
X7185981Y-3709981D02*
X7185981Y-3664019D01*
X7140019Y-3664019D01*
X7140019Y-3709981D01*
X7185981Y-3709981D01*
X7312981Y-3582981D02*
X7312981Y-3537019D01*
X7267019Y-3537019D01*
X7267019Y-3582981D01*
X7312981Y-3582981D01*
X7312981Y-3709981D02*
X7312981Y-3664019D01*
X7267019Y-3664019D01*
X7267019Y-3709981D01*
X7312981Y-3709981D01*
D13*
X286429Y-465714D02*
X286429Y-165714D01*
X357857Y-165714D01*
X400714Y-180000D01*
X429286Y-208571D01*
X443571Y-237143D01*
X457857Y-294286D01*
X457857Y-337143D01*
X443571Y-394286D01*
X429286Y-422857D01*
X400714Y-451428D01*
X357857Y-465714D01*
X286429Y-465714D01*
X586429Y-465714D02*
X586429Y-265714D01*
X586429Y-322857D02*
X600714Y-294286D01*
X615000Y-280000D01*
X643571Y-265714D01*
X672143Y-265714D01*
X772143Y-465714D02*
X772143Y-265714D01*
X772143Y-165714D02*
X757857Y-180000D01*
X772143Y-194286D01*
X786428Y-180000D01*
X772143Y-165714D01*
X772143Y-194286D01*
X957857Y-465714D02*
X929286Y-451428D01*
X915000Y-422857D01*
X915000Y-165714D01*
X1115000Y-465714D02*
X1086429Y-451428D01*
X1072143Y-422857D01*
X1072143Y-165714D01*
X1457857Y-465714D02*
X1457857Y-165714D01*
X1557857Y-380000D01*
X1657857Y-165714D01*
X1657857Y-465714D01*
X1929286Y-465714D02*
X1929286Y-308571D01*
X1915000Y-280000D01*
X1886428Y-265714D01*
X1829286Y-265714D01*
X1800714Y-280000D01*
X1929286Y-451428D02*
X1900714Y-465714D01*
X1829286Y-465714D01*
X1800714Y-451428D01*
X1786428Y-422857D01*
X1786428Y-394286D01*
X1800714Y-365714D01*
X1829286Y-351428D01*
X1900714Y-351428D01*
X1929286Y-337143D01*
X2072143Y-265714D02*
X2072143Y-565714D01*
X2072143Y-280000D02*
X2100714Y-265714D01*
X2157857Y-265714D01*
X2186429Y-280000D01*
X2200714Y-294286D01*
X2215000Y-322857D01*
X2215000Y-408571D01*
X2200714Y-437143D01*
X2186429Y-451428D01*
X2157857Y-465714D01*
X2100714Y-465714D01*
X2072143Y-451428D01*
X2343571Y-437143D02*
X2357857Y-451428D01*
X2343571Y-465714D01*
X2329286Y-451428D01*
X2343571Y-437143D01*
X2343571Y-465714D01*
X2343571Y-280000D02*
X2357857Y-294286D01*
X2343571Y-308571D01*
X2329286Y-294286D01*
X2343571Y-280000D01*
X2343571Y-308571D01*
X-20000Y-950000D02*
X0Y-970000D01*
X0Y-950000D02*
X-20000Y-970000D01*
X343571Y-795714D02*
X372143Y-795714D01*
X400714Y-810000D01*
X415000Y-824286D01*
X429286Y-852857D01*
X443571Y-910000D01*
X443571Y-981428D01*
X429286Y-1038571D01*
X415000Y-1067143D01*
X400714Y-1081429D01*
X372143Y-1095714D01*
X343571Y-1095714D01*
X315000Y-1081429D01*
X300714Y-1067143D01*
X286429Y-1038571D01*
X272143Y-981428D01*
X272143Y-910000D01*
X286429Y-852857D01*
X300714Y-824286D01*
X315000Y-810000D01*
X343571Y-795714D01*
X572143Y-1067143D02*
X586429Y-1081429D01*
X572143Y-1095714D01*
X557857Y-1081429D01*
X572143Y-1067143D01*
X572143Y-1095714D01*
X700714Y-824286D02*
X715000Y-810000D01*
X743571Y-795714D01*
X815000Y-795714D01*
X843571Y-810000D01*
X857857Y-824286D01*
X872143Y-852857D01*
X872143Y-881428D01*
X857857Y-924286D01*
X686429Y-1095714D01*
X872143Y-1095714D01*
X1057857Y-795714D02*
X1086429Y-795714D01*
X1115000Y-810000D01*
X1129286Y-824286D01*
X1143571Y-852857D01*
X1157857Y-910000D01*
X1157857Y-981428D01*
X1143571Y-1038571D01*
X1129286Y-1067143D01*
X1115000Y-1081429D01*
X1086429Y-1095714D01*
X1057857Y-1095714D01*
X1029286Y-1081429D01*
X1015000Y-1067143D01*
X1000714Y-1038571D01*
X986428Y-981428D01*
X986428Y-910000D01*
X1000714Y-852857D01*
X1015000Y-824286D01*
X1029286Y-810000D01*
X1057857Y-795714D01*
X1286429Y-1095714D02*
X1286429Y-895714D01*
X1286429Y-924286D02*
X1300714Y-910000D01*
X1329286Y-895714D01*
X1372143Y-895714D01*
X1400714Y-910000D01*
X1415000Y-938571D01*
X1415000Y-1095714D01*
X1415000Y-938571D02*
X1429286Y-910000D01*
X1457857Y-895714D01*
X1500714Y-895714D01*
X1529286Y-910000D01*
X1543571Y-938571D01*
X1543571Y-1095714D01*
X1686428Y-1095714D02*
X1686428Y-895714D01*
X1686428Y-924286D02*
X1700714Y-910000D01*
X1729286Y-895714D01*
X1772143Y-895714D01*
X1800714Y-910000D01*
X1815000Y-938571D01*
X1815000Y-1095714D01*
X1815000Y-938571D02*
X1829286Y-910000D01*
X1857857Y-895714D01*
X1900714Y-895714D01*
X1929286Y-910000D01*
X1943571Y-938571D01*
X1943571Y-1095714D01*
X2529286Y-781428D02*
X2272143Y-1167143D01*
X2915000Y-795714D02*
X2943571Y-795714D01*
X2972143Y-810000D01*
X2986428Y-824286D01*
X3000714Y-852857D01*
X3015000Y-910000D01*
X3015000Y-981428D01*
X3000714Y-1038571D01*
X2986428Y-1067143D01*
X2972143Y-1081429D01*
X2943571Y-1095714D01*
X2915000Y-1095714D01*
X2886428Y-1081429D01*
X2872143Y-1067143D01*
X2857857Y-1038571D01*
X2843571Y-981428D01*
X2843571Y-910000D01*
X2857857Y-852857D01*
X2872143Y-824286D01*
X2886428Y-810000D01*
X2915000Y-795714D01*
X3143571Y-1067143D02*
X3157857Y-1081429D01*
X3143571Y-1095714D01*
X3129286Y-1081429D01*
X3143571Y-1067143D01*
X3143571Y-1095714D01*
X3343571Y-795714D02*
X3372143Y-795714D01*
X3400714Y-810000D01*
X3415000Y-824286D01*
X3429286Y-852857D01*
X3443571Y-910000D01*
X3443571Y-981428D01*
X3429286Y-1038571D01*
X3415000Y-1067143D01*
X3400714Y-1081429D01*
X3372143Y-1095714D01*
X3343571Y-1095714D01*
X3315000Y-1081429D01*
X3300714Y-1067143D01*
X3286428Y-1038571D01*
X3272143Y-981428D01*
X3272143Y-910000D01*
X3286428Y-852857D01*
X3300714Y-824286D01*
X3315000Y-810000D01*
X3343571Y-795714D01*
X3629286Y-795714D02*
X3657857Y-795714D01*
X3686428Y-810000D01*
X3700714Y-824286D01*
X3715000Y-852857D01*
X3729286Y-910000D01*
X3729286Y-981428D01*
X3715000Y-1038571D01*
X3700714Y-1067143D01*
X3686428Y-1081429D01*
X3657857Y-1095714D01*
X3629286Y-1095714D01*
X3600714Y-1081429D01*
X3586428Y-1067143D01*
X3572143Y-1038571D01*
X3557857Y-981428D01*
X3557857Y-910000D01*
X3572143Y-852857D01*
X3586428Y-824286D01*
X3600714Y-810000D01*
X3629286Y-795714D01*
X3900714Y-924286D02*
X3872143Y-910000D01*
X3857857Y-895714D01*
X3843571Y-867143D01*
X3843571Y-852857D01*
X3857857Y-824286D01*
X3872143Y-810000D01*
X3900714Y-795714D01*
X3957857Y-795714D01*
X3986428Y-810000D01*
X4000714Y-824286D01*
X4015000Y-852857D01*
X4015000Y-867143D01*
X4000714Y-895714D01*
X3986428Y-910000D01*
X3957857Y-924286D01*
X3900714Y-924286D01*
X3872143Y-938571D01*
X3857857Y-952857D01*
X3843571Y-981428D01*
X3843571Y-1038571D01*
X3857857Y-1067143D01*
X3872143Y-1081429D01*
X3900714Y-1095714D01*
X3957857Y-1095714D01*
X3986428Y-1081429D01*
X4000714Y-1067143D01*
X4015000Y-1038571D01*
X4015000Y-981428D01*
X4000714Y-952857D01*
X3986428Y-938571D01*
X3957857Y-924286D01*
X4129286Y-795714D02*
X4129286Y-852857D01*
X4243571Y-795714D02*
X4243571Y-852857D01*
X4686429Y-1210000D02*
X4672143Y-1195714D01*
X4643571Y-1152857D01*
X4629286Y-1124286D01*
X4615000Y-1081429D01*
X4600714Y-1010000D01*
X4600714Y-952857D01*
X4615000Y-881428D01*
X4629286Y-838571D01*
X4643571Y-810000D01*
X4672143Y-767143D01*
X4686429Y-752857D01*
X4929286Y-895714D02*
X4929286Y-1095714D01*
X4857857Y-781428D02*
X4786429Y-995714D01*
X4972143Y-995714D01*
X5215000Y-895714D02*
X5215000Y-1095714D01*
X5143571Y-781428D02*
X5072143Y-995714D01*
X5257857Y-995714D01*
X5600714Y-1095714D02*
X5600714Y-795714D01*
X5729286Y-1095714D02*
X5729286Y-938571D01*
X5715000Y-910000D01*
X5686428Y-895714D01*
X5643571Y-895714D01*
X5615000Y-910000D01*
X5600714Y-924286D01*
X5915000Y-1095714D02*
X5886428Y-1081429D01*
X5872143Y-1067143D01*
X5857857Y-1038571D01*
X5857857Y-952857D01*
X5872143Y-924286D01*
X5886428Y-910000D01*
X5915000Y-895714D01*
X5957857Y-895714D01*
X5986428Y-910000D01*
X6000714Y-924286D01*
X6015000Y-952857D01*
X6015000Y-1038571D01*
X6000714Y-1067143D01*
X5986428Y-1081429D01*
X5957857Y-1095714D01*
X5915000Y-1095714D01*
X6186428Y-1095714D02*
X6157857Y-1081429D01*
X6143571Y-1052857D01*
X6143571Y-795714D01*
X6415000Y-1081429D02*
X6386428Y-1095714D01*
X6329286Y-1095714D01*
X6300714Y-1081429D01*
X6286428Y-1052857D01*
X6286428Y-938571D01*
X6300714Y-910000D01*
X6329286Y-895714D01*
X6386428Y-895714D01*
X6415000Y-910000D01*
X6429286Y-938571D01*
X6429286Y-967143D01*
X6286428Y-995714D01*
X6543571Y-1081429D02*
X6572143Y-1095714D01*
X6629286Y-1095714D01*
X6657857Y-1081429D01*
X6672143Y-1052857D01*
X6672143Y-1038571D01*
X6657857Y-1010000D01*
X6629286Y-995714D01*
X6586428Y-995714D01*
X6557857Y-981428D01*
X6543571Y-952857D01*
X6543571Y-938571D01*
X6557857Y-910000D01*
X6586428Y-895714D01*
X6629286Y-895714D01*
X6657857Y-910000D01*
X6772143Y-1210000D02*
X6786428Y-1195714D01*
X6815000Y-1152857D01*
X6829286Y-1124286D01*
X6843571Y-1081429D01*
X6857857Y-1010000D01*
X6857857Y-952857D01*
X6843571Y-881428D01*
X6829286Y-838571D01*
X6815000Y-810000D01*
X6786428Y-767143D01*
X6772143Y-752857D01*
X0Y-1356000D02*
G75*
G03X0Y-1356000I-25000J0D01*
G01*
X343571Y-1191714D02*
X372143Y-1191714D01*
X400714Y-1206000D01*
X415000Y-1220286D01*
X429286Y-1248857D01*
X443571Y-1306000D01*
X443571Y-1377429D01*
X429286Y-1434571D01*
X415000Y-1463143D01*
X400714Y-1477428D01*
X372143Y-1491714D01*
X343571Y-1491714D01*
X315000Y-1477428D01*
X300714Y-1463143D01*
X286429Y-1434571D01*
X272143Y-1377429D01*
X272143Y-1306000D01*
X286429Y-1248857D01*
X300714Y-1220286D01*
X315000Y-1206000D01*
X343571Y-1191714D01*
X572143Y-1463143D02*
X586429Y-1477428D01*
X572143Y-1491714D01*
X557857Y-1477428D01*
X572143Y-1463143D01*
X572143Y-1491714D01*
X857857Y-1191714D02*
X715000Y-1191714D01*
X700714Y-1334571D01*
X715000Y-1320286D01*
X743571Y-1306000D01*
X815000Y-1306000D01*
X843571Y-1320286D01*
X857857Y-1334571D01*
X872143Y-1363143D01*
X872143Y-1434571D01*
X857857Y-1463143D01*
X843571Y-1477428D01*
X815000Y-1491714D01*
X743571Y-1491714D01*
X715000Y-1477428D01*
X700714Y-1463143D01*
X1057857Y-1191714D02*
X1086429Y-1191714D01*
X1115000Y-1206000D01*
X1129286Y-1220286D01*
X1143571Y-1248857D01*
X1157857Y-1306000D01*
X1157857Y-1377429D01*
X1143571Y-1434571D01*
X1129286Y-1463143D01*
X1115000Y-1477428D01*
X1086429Y-1491714D01*
X1057857Y-1491714D01*
X1029286Y-1477428D01*
X1015000Y-1463143D01*
X1000714Y-1434571D01*
X986428Y-1377429D01*
X986428Y-1306000D01*
X1000714Y-1248857D01*
X1015000Y-1220286D01*
X1029286Y-1206000D01*
X1057857Y-1191714D01*
X1286429Y-1491714D02*
X1286429Y-1291714D01*
X1286429Y-1320286D02*
X1300714Y-1306000D01*
X1329286Y-1291714D01*
X1372143Y-1291714D01*
X1400714Y-1306000D01*
X1415000Y-1334571D01*
X1415000Y-1491714D01*
X1415000Y-1334571D02*
X1429286Y-1306000D01*
X1457857Y-1291714D01*
X1500714Y-1291714D01*
X1529286Y-1306000D01*
X1543571Y-1334571D01*
X1543571Y-1491714D01*
X1686428Y-1491714D02*
X1686428Y-1291714D01*
X1686428Y-1320286D02*
X1700714Y-1306000D01*
X1729286Y-1291714D01*
X1772143Y-1291714D01*
X1800714Y-1306000D01*
X1815000Y-1334571D01*
X1815000Y-1491714D01*
X1815000Y-1334571D02*
X1829286Y-1306000D01*
X1857857Y-1291714D01*
X1900714Y-1291714D01*
X1929286Y-1306000D01*
X1943571Y-1334571D01*
X1943571Y-1491714D01*
X2529286Y-1177429D02*
X2272143Y-1563143D01*
X2915000Y-1191714D02*
X2943571Y-1191714D01*
X2972143Y-1206000D01*
X2986428Y-1220286D01*
X3000714Y-1248857D01*
X3015000Y-1306000D01*
X3015000Y-1377429D01*
X3000714Y-1434571D01*
X2986428Y-1463143D01*
X2972143Y-1477428D01*
X2943571Y-1491714D01*
X2915000Y-1491714D01*
X2886428Y-1477428D01*
X2872143Y-1463143D01*
X2857857Y-1434571D01*
X2843571Y-1377429D01*
X2843571Y-1306000D01*
X2857857Y-1248857D01*
X2872143Y-1220286D01*
X2886428Y-1206000D01*
X2915000Y-1191714D01*
X3143571Y-1463143D02*
X3157857Y-1477428D01*
X3143571Y-1491714D01*
X3129286Y-1477428D01*
X3143571Y-1463143D01*
X3143571Y-1491714D01*
X3343571Y-1191714D02*
X3372143Y-1191714D01*
X3400714Y-1206000D01*
X3415000Y-1220286D01*
X3429286Y-1248857D01*
X3443571Y-1306000D01*
X3443571Y-1377429D01*
X3429286Y-1434571D01*
X3415000Y-1463143D01*
X3400714Y-1477428D01*
X3372143Y-1491714D01*
X3343571Y-1491714D01*
X3315000Y-1477428D01*
X3300714Y-1463143D01*
X3286428Y-1434571D01*
X3272143Y-1377429D01*
X3272143Y-1306000D01*
X3286428Y-1248857D01*
X3300714Y-1220286D01*
X3315000Y-1206000D01*
X3343571Y-1191714D01*
X3557857Y-1220286D02*
X3572143Y-1206000D01*
X3600714Y-1191714D01*
X3672143Y-1191714D01*
X3700714Y-1206000D01*
X3715000Y-1220286D01*
X3729286Y-1248857D01*
X3729286Y-1277429D01*
X3715000Y-1320286D01*
X3543571Y-1491714D01*
X3729286Y-1491714D01*
X3915000Y-1191714D02*
X3943571Y-1191714D01*
X3972143Y-1206000D01*
X3986428Y-1220286D01*
X4000714Y-1248857D01*
X4015000Y-1306000D01*
X4015000Y-1377429D01*
X4000714Y-1434571D01*
X3986428Y-1463143D01*
X3972143Y-1477428D01*
X3943571Y-1491714D01*
X3915000Y-1491714D01*
X3886428Y-1477428D01*
X3872143Y-1463143D01*
X3857857Y-1434571D01*
X3843571Y-1377429D01*
X3843571Y-1306000D01*
X3857857Y-1248857D01*
X3872143Y-1220286D01*
X3886428Y-1206000D01*
X3915000Y-1191714D01*
X4129286Y-1191714D02*
X4129286Y-1248857D01*
X4243571Y-1191714D02*
X4243571Y-1248857D01*
X4686429Y-1606000D02*
X4672143Y-1591714D01*
X4643571Y-1548857D01*
X4629286Y-1520286D01*
X4615000Y-1477428D01*
X4600714Y-1406000D01*
X4600714Y-1348857D01*
X4615000Y-1277429D01*
X4629286Y-1234571D01*
X4643571Y-1206000D01*
X4672143Y-1163143D01*
X4686429Y-1148857D01*
X4815000Y-1491714D02*
X4872143Y-1491714D01*
X4900714Y-1477428D01*
X4915000Y-1463143D01*
X4943571Y-1420286D01*
X4957857Y-1363143D01*
X4957857Y-1248857D01*
X4943571Y-1220286D01*
X4929286Y-1206000D01*
X4900714Y-1191714D01*
X4843571Y-1191714D01*
X4815000Y-1206000D01*
X4800714Y-1220286D01*
X4786429Y-1248857D01*
X4786429Y-1320286D01*
X4800714Y-1348857D01*
X4815000Y-1363143D01*
X4843571Y-1377429D01*
X4900714Y-1377429D01*
X4929286Y-1363143D01*
X4943571Y-1348857D01*
X4957857Y-1320286D01*
X5315000Y-1491714D02*
X5315000Y-1191714D01*
X5443571Y-1491714D02*
X5443571Y-1334571D01*
X5429286Y-1306000D01*
X5400714Y-1291714D01*
X5357857Y-1291714D01*
X5329286Y-1306000D01*
X5315000Y-1320286D01*
X5629286Y-1491714D02*
X5600714Y-1477428D01*
X5586429Y-1463143D01*
X5572143Y-1434571D01*
X5572143Y-1348857D01*
X5586429Y-1320286D01*
X5600714Y-1306000D01*
X5629286Y-1291714D01*
X5672143Y-1291714D01*
X5700714Y-1306000D01*
X5715000Y-1320286D01*
X5729286Y-1348857D01*
X5729286Y-1434571D01*
X5715000Y-1463143D01*
X5700714Y-1477428D01*
X5672143Y-1491714D01*
X5629286Y-1491714D01*
X5900714Y-1491714D02*
X5872143Y-1477428D01*
X5857857Y-1448857D01*
X5857857Y-1191714D01*
X6129286Y-1477428D02*
X6100714Y-1491714D01*
X6043571Y-1491714D01*
X6015000Y-1477428D01*
X6000714Y-1448857D01*
X6000714Y-1334571D01*
X6015000Y-1306000D01*
X6043571Y-1291714D01*
X6100714Y-1291714D01*
X6129286Y-1306000D01*
X6143571Y-1334571D01*
X6143571Y-1363143D01*
X6000714Y-1391714D01*
X6257857Y-1477428D02*
X6286428Y-1491714D01*
X6343571Y-1491714D01*
X6372143Y-1477428D01*
X6386428Y-1448857D01*
X6386428Y-1434571D01*
X6372143Y-1406000D01*
X6343571Y-1391714D01*
X6300714Y-1391714D01*
X6272143Y-1377429D01*
X6257857Y-1348857D01*
X6257857Y-1334571D01*
X6272143Y-1306000D01*
X6300714Y-1291714D01*
X6343571Y-1291714D01*
X6372143Y-1306000D01*
X6486428Y-1606000D02*
X6500714Y-1591714D01*
X6529286Y-1548857D01*
X6543571Y-1520286D01*
X6557857Y-1477428D01*
X6572143Y-1406000D01*
X6572143Y-1348857D01*
X6557857Y-1277429D01*
X6543571Y-1234571D01*
X6529286Y-1206000D01*
X6500714Y-1163143D01*
X6486428Y-1148857D01*
X-30000Y-1722000D02*
X-30000Y-1782000D01*
X-60000Y-1752000D02*
X0Y-1752000D01*
X343571Y-1587714D02*
X372143Y-1587714D01*
X400714Y-1602000D01*
X415000Y-1616286D01*
X429286Y-1644857D01*
X443571Y-1702000D01*
X443571Y-1773428D01*
X429286Y-1830571D01*
X415000Y-1859143D01*
X400714Y-1873428D01*
X372143Y-1887714D01*
X343571Y-1887714D01*
X315000Y-1873428D01*
X300714Y-1859143D01*
X286429Y-1830571D01*
X272143Y-1773428D01*
X272143Y-1702000D01*
X286429Y-1644857D01*
X300714Y-1616286D01*
X315000Y-1602000D01*
X343571Y-1587714D01*
X572143Y-1859143D02*
X586429Y-1873428D01*
X572143Y-1887714D01*
X557857Y-1873428D01*
X572143Y-1859143D01*
X572143Y-1887714D01*
X843571Y-1587714D02*
X786428Y-1587714D01*
X757857Y-1602000D01*
X743571Y-1616286D01*
X715000Y-1659143D01*
X700714Y-1716286D01*
X700714Y-1830571D01*
X715000Y-1859143D01*
X729286Y-1873428D01*
X757857Y-1887714D01*
X815000Y-1887714D01*
X843571Y-1873428D01*
X857857Y-1859143D01*
X872143Y-1830571D01*
X872143Y-1759143D01*
X857857Y-1730571D01*
X843571Y-1716286D01*
X815000Y-1702000D01*
X757857Y-1702000D01*
X729286Y-1716286D01*
X715000Y-1730571D01*
X700714Y-1759143D01*
X1057857Y-1587714D02*
X1086429Y-1587714D01*
X1115000Y-1602000D01*
X1129286Y-1616286D01*
X1143571Y-1644857D01*
X1157857Y-1702000D01*
X1157857Y-1773428D01*
X1143571Y-1830571D01*
X1129286Y-1859143D01*
X1115000Y-1873428D01*
X1086429Y-1887714D01*
X1057857Y-1887714D01*
X1029286Y-1873428D01*
X1015000Y-1859143D01*
X1000714Y-1830571D01*
X986428Y-1773428D01*
X986428Y-1702000D01*
X1000714Y-1644857D01*
X1015000Y-1616286D01*
X1029286Y-1602000D01*
X1057857Y-1587714D01*
X1286429Y-1887714D02*
X1286429Y-1687714D01*
X1286429Y-1716286D02*
X1300714Y-1702000D01*
X1329286Y-1687714D01*
X1372143Y-1687714D01*
X1400714Y-1702000D01*
X1415000Y-1730571D01*
X1415000Y-1887714D01*
X1415000Y-1730571D02*
X1429286Y-1702000D01*
X1457857Y-1687714D01*
X1500714Y-1687714D01*
X1529286Y-1702000D01*
X1543571Y-1730571D01*
X1543571Y-1887714D01*
X1686428Y-1887714D02*
X1686428Y-1687714D01*
X1686428Y-1716286D02*
X1700714Y-1702000D01*
X1729286Y-1687714D01*
X1772143Y-1687714D01*
X1800714Y-1702000D01*
X1815000Y-1730571D01*
X1815000Y-1887714D01*
X1815000Y-1730571D02*
X1829286Y-1702000D01*
X1857857Y-1687714D01*
X1900714Y-1687714D01*
X1929286Y-1702000D01*
X1943571Y-1730571D01*
X1943571Y-1887714D01*
X2529286Y-1573428D02*
X2272143Y-1959143D01*
X2915000Y-1587714D02*
X2943571Y-1587714D01*
X2972143Y-1602000D01*
X2986428Y-1616286D01*
X3000714Y-1644857D01*
X3015000Y-1702000D01*
X3015000Y-1773428D01*
X3000714Y-1830571D01*
X2986428Y-1859143D01*
X2972143Y-1873428D01*
X2943571Y-1887714D01*
X2915000Y-1887714D01*
X2886428Y-1873428D01*
X2872143Y-1859143D01*
X2857857Y-1830571D01*
X2843571Y-1773428D01*
X2843571Y-1702000D01*
X2857857Y-1644857D01*
X2872143Y-1616286D01*
X2886428Y-1602000D01*
X2915000Y-1587714D01*
X3143571Y-1859143D02*
X3157857Y-1873428D01*
X3143571Y-1887714D01*
X3129286Y-1873428D01*
X3143571Y-1859143D01*
X3143571Y-1887714D01*
X3343571Y-1587714D02*
X3372143Y-1587714D01*
X3400714Y-1602000D01*
X3415000Y-1616286D01*
X3429286Y-1644857D01*
X3443571Y-1702000D01*
X3443571Y-1773428D01*
X3429286Y-1830571D01*
X3415000Y-1859143D01*
X3400714Y-1873428D01*
X3372143Y-1887714D01*
X3343571Y-1887714D01*
X3315000Y-1873428D01*
X3300714Y-1859143D01*
X3286428Y-1830571D01*
X3272143Y-1773428D01*
X3272143Y-1702000D01*
X3286428Y-1644857D01*
X3300714Y-1616286D01*
X3315000Y-1602000D01*
X3343571Y-1587714D01*
X3557857Y-1616286D02*
X3572143Y-1602000D01*
X3600714Y-1587714D01*
X3672143Y-1587714D01*
X3700714Y-1602000D01*
X3715000Y-1616286D01*
X3729286Y-1644857D01*
X3729286Y-1673428D01*
X3715000Y-1716286D01*
X3543571Y-1887714D01*
X3729286Y-1887714D01*
X3986428Y-1687714D02*
X3986428Y-1887714D01*
X3915000Y-1573428D02*
X3843571Y-1787714D01*
X4029286Y-1787714D01*
X4129286Y-1587714D02*
X4129286Y-1644857D01*
X4243571Y-1587714D02*
X4243571Y-1644857D01*
X4686429Y-2002000D02*
X4672143Y-1987714D01*
X4643571Y-1944857D01*
X4629286Y-1916286D01*
X4615000Y-1873428D01*
X4600714Y-1802000D01*
X4600714Y-1744857D01*
X4615000Y-1673428D01*
X4629286Y-1630571D01*
X4643571Y-1602000D01*
X4672143Y-1559143D01*
X4686429Y-1544857D01*
X4857857Y-1587714D02*
X4886429Y-1587714D01*
X4915000Y-1602000D01*
X4929286Y-1616286D01*
X4943571Y-1644857D01*
X4957857Y-1702000D01*
X4957857Y-1773428D01*
X4943571Y-1830571D01*
X4929286Y-1859143D01*
X4915000Y-1873428D01*
X4886429Y-1887714D01*
X4857857Y-1887714D01*
X4829286Y-1873428D01*
X4815000Y-1859143D01*
X4800714Y-1830571D01*
X4786429Y-1773428D01*
X4786429Y-1702000D01*
X4800714Y-1644857D01*
X4815000Y-1616286D01*
X4829286Y-1602000D01*
X4857857Y-1587714D01*
X5315000Y-1887714D02*
X5315000Y-1587714D01*
X5443571Y-1887714D02*
X5443571Y-1730571D01*
X5429286Y-1702000D01*
X5400714Y-1687714D01*
X5357857Y-1687714D01*
X5329286Y-1702000D01*
X5315000Y-1716286D01*
X5629286Y-1887714D02*
X5600714Y-1873428D01*
X5586429Y-1859143D01*
X5572143Y-1830571D01*
X5572143Y-1744857D01*
X5586429Y-1716286D01*
X5600714Y-1702000D01*
X5629286Y-1687714D01*
X5672143Y-1687714D01*
X5700714Y-1702000D01*
X5715000Y-1716286D01*
X5729286Y-1744857D01*
X5729286Y-1830571D01*
X5715000Y-1859143D01*
X5700714Y-1873428D01*
X5672143Y-1887714D01*
X5629286Y-1887714D01*
X5900714Y-1887714D02*
X5872143Y-1873428D01*
X5857857Y-1844857D01*
X5857857Y-1587714D01*
X6129286Y-1873428D02*
X6100714Y-1887714D01*
X6043571Y-1887714D01*
X6015000Y-1873428D01*
X6000714Y-1844857D01*
X6000714Y-1730571D01*
X6015000Y-1702000D01*
X6043571Y-1687714D01*
X6100714Y-1687714D01*
X6129286Y-1702000D01*
X6143571Y-1730571D01*
X6143571Y-1759143D01*
X6000714Y-1787714D01*
X6257857Y-1873428D02*
X6286428Y-1887714D01*
X6343571Y-1887714D01*
X6372143Y-1873428D01*
X6386428Y-1844857D01*
X6386428Y-1830571D01*
X6372143Y-1802000D01*
X6343571Y-1787714D01*
X6300714Y-1787714D01*
X6272143Y-1773428D01*
X6257857Y-1744857D01*
X6257857Y-1730571D01*
X6272143Y-1702000D01*
X6300714Y-1687714D01*
X6343571Y-1687714D01*
X6372143Y-1702000D01*
X6743571Y-1773428D02*
X6972143Y-1773428D01*
X6857857Y-1887714D02*
X6857857Y-1659143D01*
X7472143Y-1687714D02*
X7472143Y-1887714D01*
X7400714Y-1573428D02*
X7329286Y-1787714D01*
X7515000Y-1787714D01*
X7843571Y-1873428D02*
X7872143Y-1887714D01*
X7929286Y-1887714D01*
X7957857Y-1873428D01*
X7972143Y-1844857D01*
X7972143Y-1830571D01*
X7957857Y-1802000D01*
X7929286Y-1787714D01*
X7886428Y-1787714D01*
X7857857Y-1773428D01*
X7843571Y-1744857D01*
X7843571Y-1730571D01*
X7857857Y-1702000D01*
X7886428Y-1687714D01*
X7929286Y-1687714D01*
X7957857Y-1702000D01*
X8143571Y-1887714D02*
X8115000Y-1873428D01*
X8100714Y-1844857D01*
X8100714Y-1587714D01*
X8300714Y-1887714D02*
X8272143Y-1873428D01*
X8257857Y-1859143D01*
X8243571Y-1830571D01*
X8243571Y-1744857D01*
X8257857Y-1716286D01*
X8272143Y-1702000D01*
X8300714Y-1687714D01*
X8343571Y-1687714D01*
X8372143Y-1702000D01*
X8386428Y-1716286D01*
X8400714Y-1744857D01*
X8400714Y-1830571D01*
X8386428Y-1859143D01*
X8372143Y-1873428D01*
X8343571Y-1887714D01*
X8300714Y-1887714D01*
X8486429Y-1687714D02*
X8600714Y-1687714D01*
X8529286Y-1587714D02*
X8529286Y-1844857D01*
X8543571Y-1873428D01*
X8572143Y-1887714D01*
X8600714Y-1887714D01*
X8686429Y-1873428D02*
X8715000Y-1887714D01*
X8772143Y-1887714D01*
X8800714Y-1873428D01*
X8815000Y-1844857D01*
X8815000Y-1830571D01*
X8800714Y-1802000D01*
X8772143Y-1787714D01*
X8729286Y-1787714D01*
X8700714Y-1773428D01*
X8686429Y-1744857D01*
X8686429Y-1730571D01*
X8700714Y-1702000D01*
X8729286Y-1687714D01*
X8772143Y-1687714D01*
X8800714Y-1702000D01*
X8915000Y-2002000D02*
X8929286Y-1987714D01*
X8957857Y-1944857D01*
X8972143Y-1916286D01*
X8986429Y-1873428D01*
X9000714Y-1802000D01*
X9000714Y-1744857D01*
X8986429Y-1673428D01*
X8972143Y-1630571D01*
X8957857Y-1602000D01*
X8929286Y-1559143D01*
X8915000Y-1544857D01*
X-9519Y-2170981D02*
X-9519Y-2125019D01*
X-55481Y-2125019D01*
X-55481Y-2170981D01*
X-9519Y-2170981D01*
X343571Y-1983714D02*
X372143Y-1983714D01*
X400714Y-1998000D01*
X415000Y-2012286D01*
X429286Y-2040857D01*
X443571Y-2098000D01*
X443571Y-2169429D01*
X429286Y-2226571D01*
X415000Y-2255143D01*
X400714Y-2269429D01*
X372143Y-2283714D01*
X343571Y-2283714D01*
X315000Y-2269429D01*
X300714Y-2255143D01*
X286429Y-2226571D01*
X272143Y-2169429D01*
X272143Y-2098000D01*
X286429Y-2040857D01*
X300714Y-2012286D01*
X315000Y-1998000D01*
X343571Y-1983714D01*
X572143Y-2255143D02*
X586429Y-2269429D01*
X572143Y-2283714D01*
X557857Y-2269429D01*
X572143Y-2255143D01*
X572143Y-2283714D01*
X843571Y-1983714D02*
X786428Y-1983714D01*
X757857Y-1998000D01*
X743571Y-2012286D01*
X715000Y-2055143D01*
X700714Y-2112286D01*
X700714Y-2226571D01*
X715000Y-2255143D01*
X729286Y-2269429D01*
X757857Y-2283714D01*
X815000Y-2283714D01*
X843571Y-2269429D01*
X857857Y-2255143D01*
X872143Y-2226571D01*
X872143Y-2155143D01*
X857857Y-2126571D01*
X843571Y-2112286D01*
X815000Y-2098000D01*
X757857Y-2098000D01*
X729286Y-2112286D01*
X715000Y-2126571D01*
X700714Y-2155143D01*
X1143571Y-1983714D02*
X1000714Y-1983714D01*
X986428Y-2126571D01*
X1000714Y-2112286D01*
X1029286Y-2098000D01*
X1100714Y-2098000D01*
X1129286Y-2112286D01*
X1143571Y-2126571D01*
X1157857Y-2155143D01*
X1157857Y-2226571D01*
X1143571Y-2255143D01*
X1129286Y-2269429D01*
X1100714Y-2283714D01*
X1029286Y-2283714D01*
X1000714Y-2269429D01*
X986428Y-2255143D01*
X1286429Y-2283714D02*
X1286429Y-2083714D01*
X1286429Y-2112286D02*
X1300714Y-2098000D01*
X1329286Y-2083714D01*
X1372143Y-2083714D01*
X1400714Y-2098000D01*
X1415000Y-2126571D01*
X1415000Y-2283714D01*
X1415000Y-2126571D02*
X1429286Y-2098000D01*
X1457857Y-2083714D01*
X1500714Y-2083714D01*
X1529286Y-2098000D01*
X1543571Y-2126571D01*
X1543571Y-2283714D01*
X1686428Y-2283714D02*
X1686428Y-2083714D01*
X1686428Y-2112286D02*
X1700714Y-2098000D01*
X1729286Y-2083714D01*
X1772143Y-2083714D01*
X1800714Y-2098000D01*
X1815000Y-2126571D01*
X1815000Y-2283714D01*
X1815000Y-2126571D02*
X1829286Y-2098000D01*
X1857857Y-2083714D01*
X1900714Y-2083714D01*
X1929286Y-2098000D01*
X1943571Y-2126571D01*
X1943571Y-2283714D01*
X2529286Y-1969428D02*
X2272143Y-2355143D01*
X2915000Y-1983714D02*
X2943571Y-1983714D01*
X2972143Y-1998000D01*
X2986428Y-2012286D01*
X3000714Y-2040857D01*
X3015000Y-2098000D01*
X3015000Y-2169429D01*
X3000714Y-2226571D01*
X2986428Y-2255143D01*
X2972143Y-2269429D01*
X2943571Y-2283714D01*
X2915000Y-2283714D01*
X2886428Y-2269429D01*
X2872143Y-2255143D01*
X2857857Y-2226571D01*
X2843571Y-2169429D01*
X2843571Y-2098000D01*
X2857857Y-2040857D01*
X2872143Y-2012286D01*
X2886428Y-1998000D01*
X2915000Y-1983714D01*
X3143571Y-2255143D02*
X3157857Y-2269429D01*
X3143571Y-2283714D01*
X3129286Y-2269429D01*
X3143571Y-2255143D01*
X3143571Y-2283714D01*
X3343571Y-1983714D02*
X3372143Y-1983714D01*
X3400714Y-1998000D01*
X3415000Y-2012286D01*
X3429286Y-2040857D01*
X3443571Y-2098000D01*
X3443571Y-2169429D01*
X3429286Y-2226571D01*
X3415000Y-2255143D01*
X3400714Y-2269429D01*
X3372143Y-2283714D01*
X3343571Y-2283714D01*
X3315000Y-2269429D01*
X3300714Y-2255143D01*
X3286428Y-2226571D01*
X3272143Y-2169429D01*
X3272143Y-2098000D01*
X3286428Y-2040857D01*
X3300714Y-2012286D01*
X3315000Y-1998000D01*
X3343571Y-1983714D01*
X3557857Y-2012286D02*
X3572143Y-1998000D01*
X3600714Y-1983714D01*
X3672143Y-1983714D01*
X3700714Y-1998000D01*
X3715000Y-2012286D01*
X3729286Y-2040857D01*
X3729286Y-2069428D01*
X3715000Y-2112286D01*
X3543571Y-2283714D01*
X3729286Y-2283714D01*
X3986428Y-1983714D02*
X3929286Y-1983714D01*
X3900714Y-1998000D01*
X3886428Y-2012286D01*
X3857857Y-2055143D01*
X3843571Y-2112286D01*
X3843571Y-2226571D01*
X3857857Y-2255143D01*
X3872143Y-2269429D01*
X3900714Y-2283714D01*
X3957857Y-2283714D01*
X3986428Y-2269429D01*
X4000714Y-2255143D01*
X4015000Y-2226571D01*
X4015000Y-2155143D01*
X4000714Y-2126571D01*
X3986428Y-2112286D01*
X3957857Y-2098000D01*
X3900714Y-2098000D01*
X3872143Y-2112286D01*
X3857857Y-2126571D01*
X3843571Y-2155143D01*
X4129286Y-1983714D02*
X4129286Y-2040857D01*
X4243571Y-1983714D02*
X4243571Y-2040857D01*
X4686429Y-2398000D02*
X4672143Y-2383714D01*
X4643571Y-2340857D01*
X4629286Y-2312286D01*
X4615000Y-2269429D01*
X4600714Y-2198000D01*
X4600714Y-2140857D01*
X4615000Y-2069428D01*
X4629286Y-2026571D01*
X4643571Y-1998000D01*
X4672143Y-1955143D01*
X4686429Y-1940857D01*
X4929286Y-1983714D02*
X4872143Y-1983714D01*
X4843571Y-1998000D01*
X4829286Y-2012286D01*
X4800714Y-2055143D01*
X4786429Y-2112286D01*
X4786429Y-2226571D01*
X4800714Y-2255143D01*
X4815000Y-2269429D01*
X4843571Y-2283714D01*
X4900714Y-2283714D01*
X4929286Y-2269429D01*
X4943571Y-2255143D01*
X4957857Y-2226571D01*
X4957857Y-2155143D01*
X4943571Y-2126571D01*
X4929286Y-2112286D01*
X4900714Y-2098000D01*
X4843571Y-2098000D01*
X4815000Y-2112286D01*
X4800714Y-2126571D01*
X4786429Y-2155143D01*
X5315000Y-2283714D02*
X5315000Y-1983714D01*
X5443571Y-2283714D02*
X5443571Y-2126571D01*
X5429286Y-2098000D01*
X5400714Y-2083714D01*
X5357857Y-2083714D01*
X5329286Y-2098000D01*
X5315000Y-2112286D01*
X5629286Y-2283714D02*
X5600714Y-2269429D01*
X5586429Y-2255143D01*
X5572143Y-2226571D01*
X5572143Y-2140857D01*
X5586429Y-2112286D01*
X5600714Y-2098000D01*
X5629286Y-2083714D01*
X5672143Y-2083714D01*
X5700714Y-2098000D01*
X5715000Y-2112286D01*
X5729286Y-2140857D01*
X5729286Y-2226571D01*
X5715000Y-2255143D01*
X5700714Y-2269429D01*
X5672143Y-2283714D01*
X5629286Y-2283714D01*
X5900714Y-2283714D02*
X5872143Y-2269429D01*
X5857857Y-2240857D01*
X5857857Y-1983714D01*
X6129286Y-2269429D02*
X6100714Y-2283714D01*
X6043571Y-2283714D01*
X6015000Y-2269429D01*
X6000714Y-2240857D01*
X6000714Y-2126571D01*
X6015000Y-2098000D01*
X6043571Y-2083714D01*
X6100714Y-2083714D01*
X6129286Y-2098000D01*
X6143571Y-2126571D01*
X6143571Y-2155143D01*
X6000714Y-2183714D01*
X6257857Y-2269429D02*
X6286428Y-2283714D01*
X6343571Y-2283714D01*
X6372143Y-2269429D01*
X6386428Y-2240857D01*
X6386428Y-2226571D01*
X6372143Y-2198000D01*
X6343571Y-2183714D01*
X6300714Y-2183714D01*
X6272143Y-2169429D01*
X6257857Y-2140857D01*
X6257857Y-2126571D01*
X6272143Y-2098000D01*
X6300714Y-2083714D01*
X6343571Y-2083714D01*
X6372143Y-2098000D01*
X6486428Y-2398000D02*
X6500714Y-2383714D01*
X6529286Y-2340857D01*
X6543571Y-2312286D01*
X6557857Y-2269429D01*
X6572143Y-2198000D01*
X6572143Y-2140857D01*
X6557857Y-2069428D01*
X6543571Y-2026571D01*
X6529286Y-1998000D01*
X6500714Y-1955143D01*
X6486428Y-1940857D01*
M02*
