M48
; DRILL file {KiCad (5.1.5)-3} date 3/30/2020 4:28:45 PM
; FORMAT={-:-/ absolute / metric / decimal}
; #@! TF.CreationDate,2020-03-30T16:28:45-04:00
; #@! TF.GenerationSoftware,Kicad,Pcbnew,(5.1.5)-3
; #@! TF.FileFunction,Plated,1,2,PTH
FMAT,2
METRIC
T1C0.200
T2C0.500
T3C0.600
T4C1.100
%
G90
G05
T1
X57.5Y-46.8
X58.4Y-49.1
X59.5Y-40.7
X59.7Y-44.6
X60.1Y-48.2
X61.55Y-49.45
X61.8Y-39.8
X63.4Y-47.75
X63.4Y-51.0
X63.425Y-49.35
X65.6Y-49.46
X66.0Y-51.35
X66.9Y-59.8
X67.4Y-53.0
X68.0Y-57.3
X68.35Y-41.9
X70.7Y-40.6
X73.775Y-36.825
X75.5Y-51.2
X79.2Y-45.55
X81.35Y-47.3
X82.05Y-58.65
X83.5Y-48.85
X85.0Y-51.4
X90.0Y-49.55
X91.3Y-42.65
X92.4Y-39.1
X92.6Y-41.2
X94.05Y-47.7
X97.25Y-48.85
X106.4Y-44.1
X109.5Y-46.2
X113.0Y-46.0
T2
X71.0Y-36.0
X71.0Y-37.0
X71.0Y-38.0
X72.0Y-36.0
X72.0Y-37.0
X72.0Y-38.0
T4
X109.0Y-51.0
X109.0Y-53.54
X109.0Y-56.08
X109.0Y-58.62
X111.54Y-51.0
X111.54Y-53.54
X111.54Y-56.08
X111.54Y-58.62
X114.08Y-51.0
X114.08Y-53.54
X114.08Y-56.08
X114.08Y-58.62
T3
G00X57.0Y-50.58
M15
G01X56.2Y-50.58
M16
G05
G00X57.0Y-59.22
M15
G01X56.2Y-59.22
M16
G05
G00X61.33Y-50.58
M15
G01X60.23Y-50.58
M16
G05
G00X61.33Y-59.22
M15
G01X60.23Y-59.22
M16
G05
T0
M30
