G04 #@! TF.GenerationSoftware,KiCad,Pcbnew,(5.1.5)-3*
G04 #@! TF.CreationDate,2020-05-02T18:33:40-04:00*
G04 #@! TF.ProjectId,amp,616d702e-6b69-4636-9164-5f7063625858,0.6.0*
G04 #@! TF.SameCoordinates,Original*
G04 #@! TF.FileFunction,Copper,L2,Bot*
G04 #@! TF.FilePolarity,Positive*
%FSLAX46Y46*%
G04 Gerber Fmt 4.6, Leading zero omitted, Abs format (unit mm)*
G04 Created by KiCad (PCBNEW (5.1.5)-3) date 2020-05-02 18:33:40*
%MOMM*%
%LPD*%
G04 APERTURE LIST*
%ADD10R,1.998980X1.998980*%
%ADD11C,1.998980*%
%ADD12O,2.000000X1.000000*%
%ADD13O,2.100000X1.050000*%
%ADD14O,1.000000X1.000000*%
%ADD15R,1.000000X1.000000*%
%ADD16C,0.450000*%
%ADD17C,0.600000*%
%ADD18C,0.088900*%
%ADD19C,0.320000*%
%ADD20C,0.250000*%
%ADD21C,0.254000*%
G04 APERTURE END LIST*
D10*
X112950000Y-39975000D03*
D11*
X112950000Y-43150000D03*
X112950000Y-46325000D03*
D12*
X56600000Y-50580000D03*
X56600000Y-59220000D03*
D13*
X60780000Y-50580000D03*
X60780000Y-59220000D03*
D14*
X70360000Y-36870000D03*
X70360000Y-35600000D03*
X71630000Y-36870000D03*
X71630000Y-35600000D03*
X72900000Y-36870000D03*
D15*
X72900000Y-35600000D03*
D16*
X98100000Y-62750000D03*
X99500000Y-66900000D03*
X106700000Y-49200000D03*
X105300000Y-47400000D03*
X65800000Y-50600000D03*
X63700000Y-51600000D03*
X102200000Y-50000000D03*
X99300000Y-50500000D03*
X61400000Y-51700000D03*
X61200000Y-43900000D03*
X56800000Y-47400000D03*
X63500000Y-55100000D03*
X65637500Y-46162500D03*
X90050000Y-55300000D03*
X111000000Y-57700000D03*
X108300000Y-42350000D03*
X69100000Y-43000000D03*
X74600000Y-34300000D03*
X73500000Y-44900000D03*
D17*
X67900000Y-51400000D03*
D16*
X91100000Y-54700000D03*
D17*
X65576978Y-45200000D03*
X95700000Y-57600000D03*
X74900000Y-49000000D03*
X66400000Y-58300000D03*
X98500000Y-53500000D03*
D16*
X66700000Y-53200000D03*
X61600000Y-40200000D03*
X63000000Y-38800000D03*
X68500000Y-55000000D03*
X65900000Y-37900000D03*
X98600000Y-39000000D03*
X107500000Y-47300000D03*
X108400000Y-51200000D03*
X90000000Y-52700000D03*
D17*
X105950000Y-44900000D03*
X105300000Y-39900000D03*
D16*
X91500000Y-47000000D03*
X85100000Y-46250000D03*
X93100000Y-50400000D03*
X86200000Y-51100000D03*
D17*
X94500000Y-44600000D03*
D16*
X97500000Y-48300000D03*
X58000000Y-44500000D03*
X59500000Y-53500000D03*
X57000000Y-42800000D03*
X58400000Y-55800000D03*
X85500000Y-56500000D03*
X99300000Y-58200000D03*
X59000000Y-46400000D03*
X63000000Y-49800000D03*
X82200000Y-57900000D03*
X99400000Y-60600000D03*
X85100000Y-60300000D03*
X96600000Y-61400000D03*
D18*
X74600000Y-37500000D02*
X69100000Y-43000000D01*
X74600000Y-34300000D02*
X74600000Y-37500000D01*
X71000000Y-44900000D02*
X69100000Y-43000000D01*
X73500000Y-44900000D02*
X71000000Y-44900000D01*
D19*
X72900000Y-38195176D02*
X72900000Y-37577106D01*
X72900000Y-37577106D02*
X72900000Y-36870000D01*
X65895176Y-45200000D02*
X72900000Y-38195176D01*
X65576978Y-45200000D02*
X65895176Y-45200000D01*
X72900000Y-36870000D02*
X73607106Y-36870000D01*
X73607106Y-36870000D02*
X74000000Y-36477106D01*
X92800000Y-54700000D02*
X95700000Y-57600000D01*
X91100000Y-54700000D02*
X92800000Y-54700000D01*
X70300000Y-49000000D02*
X74900000Y-49000000D01*
X67900000Y-51400000D02*
X70300000Y-49000000D01*
X66400000Y-58300000D02*
X71200000Y-53500000D01*
D18*
X63700000Y-35600000D02*
X70360000Y-35600000D01*
X61600000Y-40200000D02*
X61600000Y-37700000D01*
X61600000Y-37700000D02*
X63700000Y-35600000D01*
X66475001Y-52975001D02*
X66475001Y-49075001D01*
X66700000Y-53200000D02*
X66475001Y-52975001D01*
X61600000Y-44200000D02*
X61600000Y-40200000D01*
X66475001Y-49075001D02*
X61600000Y-44200000D01*
X65675001Y-38124999D02*
X65900000Y-37900000D01*
X63224999Y-39024999D02*
X64775001Y-39024999D01*
X64775001Y-39024999D02*
X65675001Y-38124999D01*
X63000000Y-38800000D02*
X63224999Y-39024999D01*
X63000000Y-44100000D02*
X63000000Y-44000000D01*
X63000000Y-44900000D02*
X63000000Y-44000000D01*
X63000000Y-44000000D02*
X63000000Y-38800000D01*
X68500000Y-54681802D02*
X67900000Y-54081802D01*
X68500000Y-55000000D02*
X68500000Y-54681802D01*
X67900000Y-54081802D02*
X67900000Y-52800000D01*
X67900000Y-52800000D02*
X66900000Y-51800000D01*
X66900000Y-48800000D02*
X63000000Y-44900000D01*
X66900000Y-51800000D02*
X66900000Y-48800000D01*
X100400000Y-39000000D02*
X98600000Y-39000000D01*
X103300000Y-41900000D02*
X100400000Y-39000000D01*
X107500000Y-47300000D02*
X106400000Y-46200000D01*
X106400000Y-46200000D02*
X105600000Y-46200000D01*
X103300000Y-43900000D02*
X103300000Y-41900000D01*
X105600000Y-46200000D02*
X103300000Y-43900000D01*
X106900000Y-52700000D02*
X108400000Y-51200000D01*
X90000000Y-52700000D02*
X106900000Y-52700000D01*
D19*
X112650000Y-39900000D02*
X113000000Y-40250000D01*
X105300000Y-39900000D02*
X112650000Y-39900000D01*
X105300000Y-44250000D02*
X105950000Y-44900000D01*
X105300000Y-39900000D02*
X105300000Y-44250000D01*
D18*
X85850000Y-47000000D02*
X85100000Y-46250000D01*
X91500000Y-47000000D02*
X85850000Y-47000000D01*
D19*
X94500000Y-44600000D02*
X94500000Y-45024264D01*
X86400000Y-53500000D02*
X98500000Y-53500000D01*
X94500000Y-44600000D02*
X85500000Y-44600000D01*
X84300000Y-45800000D02*
X84300000Y-53500000D01*
X85500000Y-44600000D02*
X84300000Y-45800000D01*
X71200000Y-53500000D02*
X84300000Y-53500000D01*
X84300000Y-53500000D02*
X86400000Y-53500000D01*
D18*
X57775001Y-44724999D02*
X57775001Y-48175001D01*
X58000000Y-44500000D02*
X57775001Y-44724999D01*
X57775001Y-48175001D02*
X59100000Y-49500000D01*
X59100000Y-53100000D02*
X59500000Y-53500000D01*
X59100000Y-49500000D02*
X59100000Y-53100000D01*
X57000000Y-42800000D02*
X57000000Y-43600000D01*
X57000000Y-43600000D02*
X57500000Y-44100000D01*
X57500000Y-44100000D02*
X57500000Y-49100000D01*
X58400000Y-50000000D02*
X58400000Y-50200000D01*
X57500000Y-49100000D02*
X58400000Y-50000000D01*
X58400000Y-55800000D02*
X58400000Y-50200000D01*
X58400000Y-50200000D02*
X58400000Y-50100000D01*
X87200000Y-58200000D02*
X85500000Y-56500000D01*
X97800000Y-58200000D02*
X87200000Y-58200000D01*
X97800000Y-58200000D02*
X99300000Y-58200000D01*
D19*
X62024999Y-46424999D02*
X59024999Y-46424999D01*
X59024999Y-46424999D02*
X59000000Y-46400000D01*
X63000000Y-49800000D02*
X63000000Y-47400000D01*
X63000000Y-47400000D02*
X62024999Y-46424999D01*
D20*
X83000000Y-58700000D02*
X82200000Y-57900000D01*
X99400000Y-60600000D02*
X97500000Y-58700000D01*
X97500000Y-58700000D02*
X83000000Y-58700000D01*
X85324999Y-60075001D02*
X85100000Y-60300000D01*
X86000000Y-59400000D02*
X85324999Y-60075001D01*
X95100000Y-59400000D02*
X86000000Y-59400000D01*
X96600000Y-61400000D02*
X96600000Y-60900000D01*
X96600000Y-60900000D02*
X95100000Y-59400000D01*
D18*
X86900000Y-50400000D02*
X86200000Y-51100000D01*
X93100000Y-50400000D02*
X86900000Y-50400000D01*
X107800000Y-48300000D02*
X97500000Y-48300000D01*
X112950000Y-43150000D02*
X107800000Y-48300000D01*
D21*
G36*
X115723000Y-32986394D02*
G01*
X115723000Y-32986395D01*
X115723001Y-67723000D01*
X110986394Y-67723000D01*
X110945699Y-67727008D01*
X110893484Y-67742847D01*
X110883844Y-67748000D01*
X94252000Y-67748000D01*
X94252000Y-64829905D01*
X111273000Y-64829905D01*
X111273000Y-65170095D01*
X111339368Y-65503747D01*
X111469553Y-65818041D01*
X111658552Y-66100898D01*
X111899102Y-66341448D01*
X112181959Y-66530447D01*
X112496253Y-66660632D01*
X112829905Y-66727000D01*
X113170095Y-66727000D01*
X113503747Y-66660632D01*
X113818041Y-66530447D01*
X114100898Y-66341448D01*
X114341448Y-66100898D01*
X114530447Y-65818041D01*
X114660632Y-65503747D01*
X114727000Y-65170095D01*
X114727000Y-64829905D01*
X114660632Y-64496253D01*
X114530447Y-64181959D01*
X114341448Y-63899102D01*
X114100898Y-63658552D01*
X113818041Y-63469553D01*
X113503747Y-63339368D01*
X113170095Y-63273000D01*
X112829905Y-63273000D01*
X112496253Y-63339368D01*
X112181959Y-63469553D01*
X111899102Y-63658552D01*
X111658552Y-63899102D01*
X111469553Y-64181959D01*
X111339368Y-64496253D01*
X111273000Y-64829905D01*
X94252000Y-64829905D01*
X94252000Y-63012376D01*
X94253219Y-63000000D01*
X94248353Y-62950599D01*
X94233944Y-62903097D01*
X94210544Y-62859319D01*
X94179053Y-62820947D01*
X94140681Y-62789456D01*
X94127000Y-62782143D01*
X94127000Y-62000000D01*
X94124560Y-61975224D01*
X94117333Y-61951399D01*
X94105597Y-61929443D01*
X94089803Y-61910197D01*
X94070557Y-61894403D01*
X94048601Y-61882667D01*
X94024776Y-61875440D01*
X94000000Y-61873000D01*
X65000000Y-61873000D01*
X64975224Y-61875440D01*
X64951399Y-61882667D01*
X64929443Y-61894403D01*
X64910197Y-61910197D01*
X64894403Y-61929443D01*
X64882667Y-61951399D01*
X64875440Y-61975224D01*
X64873000Y-62000000D01*
X64873000Y-62782143D01*
X64859319Y-62789456D01*
X64820947Y-62820947D01*
X64789456Y-62859319D01*
X64766056Y-62903097D01*
X64751647Y-62950599D01*
X64746781Y-63000000D01*
X64748000Y-63012376D01*
X64748001Y-67748000D01*
X55277000Y-67748000D01*
X55277000Y-64829905D01*
X56273000Y-64829905D01*
X56273000Y-65170095D01*
X56339368Y-65503747D01*
X56469553Y-65818041D01*
X56658552Y-66100898D01*
X56899102Y-66341448D01*
X57181959Y-66530447D01*
X57496253Y-66660632D01*
X57829905Y-66727000D01*
X58170095Y-66727000D01*
X58503747Y-66660632D01*
X58818041Y-66530447D01*
X59100898Y-66341448D01*
X59341448Y-66100898D01*
X59530447Y-65818041D01*
X59660632Y-65503747D01*
X59727000Y-65170095D01*
X59727000Y-64829905D01*
X59660632Y-64496253D01*
X59530447Y-64181959D01*
X59341448Y-63899102D01*
X59100898Y-63658552D01*
X58818041Y-63469553D01*
X58503747Y-63339368D01*
X58170095Y-63273000D01*
X57829905Y-63273000D01*
X57496253Y-63339368D01*
X57181959Y-63469553D01*
X56899102Y-63658552D01*
X56658552Y-63899102D01*
X56469553Y-64181959D01*
X56339368Y-64496253D01*
X56273000Y-64829905D01*
X55277000Y-64829905D01*
X55277000Y-60003997D01*
X55363831Y-60093161D01*
X55548322Y-60220003D01*
X55754013Y-60308415D01*
X55973000Y-60355000D01*
X56473000Y-60355000D01*
X56473000Y-59347000D01*
X56727000Y-59347000D01*
X56727000Y-60355000D01*
X57227000Y-60355000D01*
X57445987Y-60308415D01*
X57651678Y-60220003D01*
X57836169Y-60093161D01*
X57992369Y-59932764D01*
X58114276Y-59744976D01*
X58192710Y-59525810D01*
X59136036Y-59525810D01*
X59219937Y-59758864D01*
X59344953Y-59950441D01*
X59504941Y-60113947D01*
X59693754Y-60243099D01*
X59904135Y-60332934D01*
X60128000Y-60380000D01*
X60653000Y-60380000D01*
X60653000Y-59347000D01*
X60907000Y-59347000D01*
X60907000Y-60380000D01*
X61432000Y-60380000D01*
X61655865Y-60332934D01*
X61866246Y-60243099D01*
X62055059Y-60113947D01*
X62215047Y-59950441D01*
X62340063Y-59758864D01*
X62423964Y-59525810D01*
X62298163Y-59347000D01*
X60907000Y-59347000D01*
X60653000Y-59347000D01*
X59261837Y-59347000D01*
X59136036Y-59525810D01*
X58192710Y-59525810D01*
X58194119Y-59521874D01*
X58067954Y-59347000D01*
X56727000Y-59347000D01*
X56473000Y-59347000D01*
X56453000Y-59347000D01*
X56453000Y-59093000D01*
X56473000Y-59093000D01*
X56473000Y-58085000D01*
X56727000Y-58085000D01*
X56727000Y-59093000D01*
X58067954Y-59093000D01*
X58194119Y-58918126D01*
X58192711Y-58914190D01*
X59136036Y-58914190D01*
X59261837Y-59093000D01*
X60653000Y-59093000D01*
X60653000Y-58197646D01*
X60708766Y-58141880D01*
X60763476Y-58060000D01*
X60907000Y-58060000D01*
X60907000Y-59093000D01*
X62298163Y-59093000D01*
X62423964Y-58914190D01*
X62340063Y-58681136D01*
X62215047Y-58489559D01*
X62055059Y-58326053D01*
X61941089Y-58248095D01*
X65873000Y-58248095D01*
X65873000Y-58351905D01*
X65893252Y-58453720D01*
X65932979Y-58549628D01*
X65990652Y-58635943D01*
X66064057Y-58709348D01*
X66150372Y-58767021D01*
X66246280Y-58806748D01*
X66348095Y-58827000D01*
X66451905Y-58827000D01*
X66553720Y-58806748D01*
X66649628Y-58767021D01*
X66735943Y-58709348D01*
X66809348Y-58635943D01*
X66867021Y-58549628D01*
X66906748Y-58453720D01*
X66927000Y-58351905D01*
X66927000Y-58320300D01*
X67391818Y-57855482D01*
X81748000Y-57855482D01*
X81748000Y-57944518D01*
X81765370Y-58031844D01*
X81799443Y-58114102D01*
X81848909Y-58188133D01*
X81911867Y-58251091D01*
X81985898Y-58300557D01*
X82068156Y-58334630D01*
X82153879Y-58351681D01*
X82738870Y-58936673D01*
X82749894Y-58950106D01*
X82803493Y-58994093D01*
X82864644Y-59026779D01*
X82930996Y-59046907D01*
X82982708Y-59052000D01*
X82982711Y-59052000D01*
X83000000Y-59053703D01*
X83017289Y-59052000D01*
X85942094Y-59052000D01*
X85930996Y-59053093D01*
X85880086Y-59068536D01*
X85864643Y-59073221D01*
X85827640Y-59093000D01*
X85803493Y-59105907D01*
X85749894Y-59149894D01*
X85738870Y-59163327D01*
X85088330Y-59813868D01*
X85088325Y-59813872D01*
X85053878Y-59848319D01*
X84968156Y-59865370D01*
X84885898Y-59899443D01*
X84811867Y-59948909D01*
X84748909Y-60011867D01*
X84699443Y-60085898D01*
X84665370Y-60168156D01*
X84648000Y-60255482D01*
X84648000Y-60344518D01*
X84665370Y-60431844D01*
X84699443Y-60514102D01*
X84748909Y-60588133D01*
X84811867Y-60651091D01*
X84885898Y-60700557D01*
X84968156Y-60734630D01*
X85055482Y-60752000D01*
X85144518Y-60752000D01*
X85231844Y-60734630D01*
X85314102Y-60700557D01*
X85388133Y-60651091D01*
X85451091Y-60588133D01*
X85500557Y-60514102D01*
X85534630Y-60431844D01*
X85551681Y-60346122D01*
X85586128Y-60311675D01*
X85586132Y-60311670D01*
X86145803Y-59752000D01*
X94954198Y-59752000D01*
X96248001Y-61045804D01*
X96248001Y-61113227D01*
X96199443Y-61185898D01*
X96165370Y-61268156D01*
X96148000Y-61355482D01*
X96148000Y-61444518D01*
X96165370Y-61531844D01*
X96199443Y-61614102D01*
X96248909Y-61688133D01*
X96311867Y-61751091D01*
X96385898Y-61800557D01*
X96468156Y-61834630D01*
X96555482Y-61852000D01*
X96644518Y-61852000D01*
X96731844Y-61834630D01*
X96814102Y-61800557D01*
X96888133Y-61751091D01*
X96951091Y-61688133D01*
X97000557Y-61614102D01*
X97034630Y-61531844D01*
X97052000Y-61444518D01*
X97052000Y-61355482D01*
X97034630Y-61268156D01*
X97000557Y-61185898D01*
X96952000Y-61113227D01*
X96952000Y-60917288D01*
X96953703Y-60899999D01*
X96952000Y-60882708D01*
X96946907Y-60830996D01*
X96926779Y-60764644D01*
X96909247Y-60731844D01*
X96894093Y-60703492D01*
X96861128Y-60663325D01*
X96850106Y-60649894D01*
X96836673Y-60638870D01*
X95361135Y-59163333D01*
X95350106Y-59149894D01*
X95296507Y-59105907D01*
X95235356Y-59073221D01*
X95169004Y-59053093D01*
X95157906Y-59052000D01*
X97354198Y-59052000D01*
X98948319Y-60646123D01*
X98965370Y-60731844D01*
X98999443Y-60814102D01*
X99048909Y-60888133D01*
X99111867Y-60951091D01*
X99185898Y-61000557D01*
X99268156Y-61034630D01*
X99355482Y-61052000D01*
X99444518Y-61052000D01*
X99531844Y-61034630D01*
X99614102Y-61000557D01*
X99688133Y-60951091D01*
X99751091Y-60888133D01*
X99800557Y-60814102D01*
X99834630Y-60731844D01*
X99852000Y-60644518D01*
X99852000Y-60555482D01*
X99834630Y-60468156D01*
X99800557Y-60385898D01*
X99751091Y-60311867D01*
X99688133Y-60248909D01*
X99614102Y-60199443D01*
X99531844Y-60165370D01*
X99446123Y-60148319D01*
X97769252Y-58471450D01*
X98937762Y-58471450D01*
X98948909Y-58488133D01*
X99011867Y-58551091D01*
X99085898Y-58600557D01*
X99168156Y-58634630D01*
X99255482Y-58652000D01*
X99344518Y-58652000D01*
X99431844Y-58634630D01*
X99514102Y-58600557D01*
X99588133Y-58551091D01*
X99651091Y-58488133D01*
X99700557Y-58414102D01*
X99734630Y-58331844D01*
X99752000Y-58244518D01*
X99752000Y-58155482D01*
X99734630Y-58068156D01*
X99700557Y-57985898D01*
X99651091Y-57911867D01*
X99588133Y-57848909D01*
X99514102Y-57799443D01*
X99431844Y-57765370D01*
X99344518Y-57748000D01*
X99255482Y-57748000D01*
X99168156Y-57765370D01*
X99085898Y-57799443D01*
X99011867Y-57848909D01*
X98948909Y-57911867D01*
X98937762Y-57928550D01*
X96114288Y-57928550D01*
X96167021Y-57849628D01*
X96206748Y-57753720D01*
X96227000Y-57651905D01*
X96227000Y-57548095D01*
X96206748Y-57446280D01*
X96167021Y-57350372D01*
X96109348Y-57264057D01*
X96035943Y-57190652D01*
X95949628Y-57132979D01*
X95853720Y-57093252D01*
X95751905Y-57073000D01*
X95720301Y-57073000D01*
X93087093Y-54439793D01*
X93074974Y-54425026D01*
X93016046Y-54376665D01*
X92948815Y-54340729D01*
X92875865Y-54318600D01*
X92819007Y-54313000D01*
X92818996Y-54313000D01*
X92800000Y-54311129D01*
X92781004Y-54313000D01*
X91334391Y-54313000D01*
X91314102Y-54299443D01*
X91231844Y-54265370D01*
X91144518Y-54248000D01*
X91055482Y-54248000D01*
X90968156Y-54265370D01*
X90885898Y-54299443D01*
X90811867Y-54348909D01*
X90748909Y-54411867D01*
X90699443Y-54485898D01*
X90665370Y-54568156D01*
X90648000Y-54655482D01*
X90648000Y-54744518D01*
X90665370Y-54831844D01*
X90699443Y-54914102D01*
X90748909Y-54988133D01*
X90811867Y-55051091D01*
X90885898Y-55100557D01*
X90968156Y-55134630D01*
X91055482Y-55152000D01*
X91144518Y-55152000D01*
X91231844Y-55134630D01*
X91314102Y-55100557D01*
X91334391Y-55087000D01*
X92639700Y-55087000D01*
X95173000Y-57620301D01*
X95173000Y-57651905D01*
X95193252Y-57753720D01*
X95232979Y-57849628D01*
X95285712Y-57928550D01*
X87312438Y-57928550D01*
X85948085Y-56564198D01*
X85952000Y-56544518D01*
X85952000Y-56455482D01*
X85934630Y-56368156D01*
X85900557Y-56285898D01*
X85851091Y-56211867D01*
X85788133Y-56148909D01*
X85714102Y-56099443D01*
X85631844Y-56065370D01*
X85544518Y-56048000D01*
X85455482Y-56048000D01*
X85368156Y-56065370D01*
X85285898Y-56099443D01*
X85211867Y-56148909D01*
X85148909Y-56211867D01*
X85099443Y-56285898D01*
X85065370Y-56368156D01*
X85048000Y-56455482D01*
X85048000Y-56544518D01*
X85065370Y-56631844D01*
X85099443Y-56714102D01*
X85148909Y-56788133D01*
X85211867Y-56851091D01*
X85285898Y-56900557D01*
X85368156Y-56934630D01*
X85455482Y-56952000D01*
X85544518Y-56952000D01*
X85564198Y-56948085D01*
X86964112Y-58348000D01*
X83145803Y-58348000D01*
X82651681Y-57853879D01*
X82634630Y-57768156D01*
X82600557Y-57685898D01*
X82551091Y-57611867D01*
X82488133Y-57548909D01*
X82414102Y-57499443D01*
X82331844Y-57465370D01*
X82244518Y-57448000D01*
X82155482Y-57448000D01*
X82068156Y-57465370D01*
X81985898Y-57499443D01*
X81911867Y-57548909D01*
X81848909Y-57611867D01*
X81799443Y-57685898D01*
X81765370Y-57768156D01*
X81748000Y-57855482D01*
X67391818Y-57855482D01*
X71360301Y-53887000D01*
X84280993Y-53887000D01*
X84300000Y-53888872D01*
X84319007Y-53887000D01*
X98141709Y-53887000D01*
X98164057Y-53909348D01*
X98250372Y-53967021D01*
X98346280Y-54006748D01*
X98448095Y-54027000D01*
X98551905Y-54027000D01*
X98653720Y-54006748D01*
X98749628Y-53967021D01*
X98835943Y-53909348D01*
X98909348Y-53835943D01*
X98967021Y-53749628D01*
X99006748Y-53653720D01*
X99027000Y-53551905D01*
X99027000Y-53448095D01*
X99006748Y-53346280D01*
X98967021Y-53250372D01*
X98909348Y-53164057D01*
X98835943Y-53090652D01*
X98749628Y-53032979D01*
X98653720Y-52993252D01*
X98551905Y-52973000D01*
X98448095Y-52973000D01*
X98346280Y-52993252D01*
X98250372Y-53032979D01*
X98164057Y-53090652D01*
X98141709Y-53113000D01*
X90184062Y-53113000D01*
X90214102Y-53100557D01*
X90288133Y-53051091D01*
X90351091Y-52988133D01*
X90362238Y-52971450D01*
X106886671Y-52971450D01*
X106900000Y-52972763D01*
X106913329Y-52971450D01*
X106913331Y-52971450D01*
X106953213Y-52967522D01*
X107004382Y-52952000D01*
X107051539Y-52926794D01*
X107092873Y-52892873D01*
X107101380Y-52882508D01*
X108335802Y-51648086D01*
X108355482Y-51652000D01*
X108444518Y-51652000D01*
X108531844Y-51634630D01*
X108614102Y-51600557D01*
X108688133Y-51551091D01*
X108751091Y-51488133D01*
X108800557Y-51414102D01*
X108834630Y-51331844D01*
X108852000Y-51244518D01*
X108852000Y-51155482D01*
X108834630Y-51068156D01*
X108800557Y-50985898D01*
X108751091Y-50911867D01*
X108688133Y-50848909D01*
X108614102Y-50799443D01*
X108531844Y-50765370D01*
X108444518Y-50748000D01*
X108355482Y-50748000D01*
X108268156Y-50765370D01*
X108185898Y-50799443D01*
X108111867Y-50848909D01*
X108048909Y-50911867D01*
X107999443Y-50985898D01*
X107965370Y-51068156D01*
X107948000Y-51155482D01*
X107948000Y-51244518D01*
X107951914Y-51264198D01*
X106787563Y-52428550D01*
X90362238Y-52428550D01*
X90351091Y-52411867D01*
X90288133Y-52348909D01*
X90214102Y-52299443D01*
X90131844Y-52265370D01*
X90044518Y-52248000D01*
X89955482Y-52248000D01*
X89868156Y-52265370D01*
X89785898Y-52299443D01*
X89711867Y-52348909D01*
X89648909Y-52411867D01*
X89599443Y-52485898D01*
X89565370Y-52568156D01*
X89548000Y-52655482D01*
X89548000Y-52744518D01*
X89565370Y-52831844D01*
X89599443Y-52914102D01*
X89648909Y-52988133D01*
X89711867Y-53051091D01*
X89785898Y-53100557D01*
X89815938Y-53113000D01*
X84687000Y-53113000D01*
X84687000Y-51055482D01*
X85748000Y-51055482D01*
X85748000Y-51144518D01*
X85765370Y-51231844D01*
X85799443Y-51314102D01*
X85848909Y-51388133D01*
X85911867Y-51451091D01*
X85985898Y-51500557D01*
X86068156Y-51534630D01*
X86155482Y-51552000D01*
X86244518Y-51552000D01*
X86331844Y-51534630D01*
X86414102Y-51500557D01*
X86488133Y-51451091D01*
X86551091Y-51388133D01*
X86600557Y-51314102D01*
X86634630Y-51231844D01*
X86652000Y-51144518D01*
X86652000Y-51055482D01*
X86648086Y-51035802D01*
X87012439Y-50671450D01*
X92737762Y-50671450D01*
X92748909Y-50688133D01*
X92811867Y-50751091D01*
X92885898Y-50800557D01*
X92968156Y-50834630D01*
X93055482Y-50852000D01*
X93144518Y-50852000D01*
X93231844Y-50834630D01*
X93314102Y-50800557D01*
X93388133Y-50751091D01*
X93451091Y-50688133D01*
X93500557Y-50614102D01*
X93534630Y-50531844D01*
X93552000Y-50444518D01*
X93552000Y-50355482D01*
X93534630Y-50268156D01*
X93500557Y-50185898D01*
X93451091Y-50111867D01*
X93388133Y-50048909D01*
X93314102Y-49999443D01*
X93231844Y-49965370D01*
X93144518Y-49948000D01*
X93055482Y-49948000D01*
X92968156Y-49965370D01*
X92885898Y-49999443D01*
X92811867Y-50048909D01*
X92748909Y-50111867D01*
X92737762Y-50128550D01*
X86913328Y-50128550D01*
X86899999Y-50127237D01*
X86886670Y-50128550D01*
X86886669Y-50128550D01*
X86846787Y-50132478D01*
X86795618Y-50148000D01*
X86748461Y-50173206D01*
X86707127Y-50207127D01*
X86698629Y-50217482D01*
X86264198Y-50651914D01*
X86244518Y-50648000D01*
X86155482Y-50648000D01*
X86068156Y-50665370D01*
X85985898Y-50699443D01*
X85911867Y-50748909D01*
X85848909Y-50811867D01*
X85799443Y-50885898D01*
X85765370Y-50968156D01*
X85748000Y-51055482D01*
X84687000Y-51055482D01*
X84687000Y-48255482D01*
X97048000Y-48255482D01*
X97048000Y-48344518D01*
X97065370Y-48431844D01*
X97099443Y-48514102D01*
X97148909Y-48588133D01*
X97211867Y-48651091D01*
X97285898Y-48700557D01*
X97368156Y-48734630D01*
X97455482Y-48752000D01*
X97544518Y-48752000D01*
X97631844Y-48734630D01*
X97714102Y-48700557D01*
X97788133Y-48651091D01*
X97851091Y-48588133D01*
X97862238Y-48571450D01*
X107786671Y-48571450D01*
X107800000Y-48572763D01*
X107813329Y-48571450D01*
X107813331Y-48571450D01*
X107853213Y-48567522D01*
X107904382Y-48552000D01*
X107951539Y-48526794D01*
X107992873Y-48492873D01*
X108001380Y-48482507D01*
X109023837Y-47460050D01*
X111994555Y-47460050D01*
X112090258Y-47724399D01*
X112379787Y-47865238D01*
X112691229Y-47946885D01*
X113012615Y-47966205D01*
X113331595Y-47922454D01*
X113635911Y-47817314D01*
X113809742Y-47724399D01*
X113905445Y-47460050D01*
X112950000Y-46504605D01*
X111994555Y-47460050D01*
X109023837Y-47460050D01*
X110096272Y-46387615D01*
X111308795Y-46387615D01*
X111352546Y-46706595D01*
X111457686Y-47010911D01*
X111550601Y-47184742D01*
X111814950Y-47280445D01*
X112770395Y-46325000D01*
X113129605Y-46325000D01*
X114085050Y-47280445D01*
X114349399Y-47184742D01*
X114490238Y-46895213D01*
X114571885Y-46583771D01*
X114591205Y-46262385D01*
X114547454Y-45943405D01*
X114442314Y-45639089D01*
X114349399Y-45465258D01*
X114085050Y-45369555D01*
X113129605Y-46325000D01*
X112770395Y-46325000D01*
X111814950Y-45369555D01*
X111550601Y-45465258D01*
X111409762Y-45754787D01*
X111328115Y-46066229D01*
X111308795Y-46387615D01*
X110096272Y-46387615D01*
X111293937Y-45189950D01*
X111994555Y-45189950D01*
X112950000Y-46145395D01*
X113905445Y-45189950D01*
X113809742Y-44925601D01*
X113520213Y-44784762D01*
X113208771Y-44703115D01*
X112887385Y-44683795D01*
X112568405Y-44727546D01*
X112264089Y-44832686D01*
X112090258Y-44925601D01*
X111994555Y-45189950D01*
X111293937Y-45189950D01*
X112295874Y-44188014D01*
X112369039Y-44236901D01*
X112592246Y-44329356D01*
X112829201Y-44376490D01*
X113070799Y-44376490D01*
X113307754Y-44329356D01*
X113530961Y-44236901D01*
X113731842Y-44102677D01*
X113902677Y-43931842D01*
X114036901Y-43730961D01*
X114129356Y-43507754D01*
X114176490Y-43270799D01*
X114176490Y-43029201D01*
X114129356Y-42792246D01*
X114036901Y-42569039D01*
X113902677Y-42368158D01*
X113731842Y-42197323D01*
X113530961Y-42063099D01*
X113307754Y-41970644D01*
X113070799Y-41923510D01*
X112829201Y-41923510D01*
X112592246Y-41970644D01*
X112369039Y-42063099D01*
X112168158Y-42197323D01*
X111997323Y-42368158D01*
X111863099Y-42569039D01*
X111770644Y-42792246D01*
X111723510Y-43029201D01*
X111723510Y-43270799D01*
X111770644Y-43507754D01*
X111863099Y-43730961D01*
X111911986Y-43804126D01*
X107687563Y-48028550D01*
X97862238Y-48028550D01*
X97851091Y-48011867D01*
X97788133Y-47948909D01*
X97714102Y-47899443D01*
X97631844Y-47865370D01*
X97544518Y-47848000D01*
X97455482Y-47848000D01*
X97368156Y-47865370D01*
X97285898Y-47899443D01*
X97211867Y-47948909D01*
X97148909Y-48011867D01*
X97099443Y-48085898D01*
X97065370Y-48168156D01*
X97048000Y-48255482D01*
X84687000Y-48255482D01*
X84687000Y-46434062D01*
X84699443Y-46464102D01*
X84748909Y-46538133D01*
X84811867Y-46601091D01*
X84885898Y-46650557D01*
X84968156Y-46684630D01*
X85055482Y-46702000D01*
X85144518Y-46702000D01*
X85164198Y-46698085D01*
X85648625Y-47182513D01*
X85657127Y-47192873D01*
X85698461Y-47226794D01*
X85745618Y-47252000D01*
X85796787Y-47267522D01*
X85836669Y-47271450D01*
X85836670Y-47271450D01*
X85849999Y-47272763D01*
X85863328Y-47271450D01*
X91137762Y-47271450D01*
X91148909Y-47288133D01*
X91211867Y-47351091D01*
X91285898Y-47400557D01*
X91368156Y-47434630D01*
X91455482Y-47452000D01*
X91544518Y-47452000D01*
X91631844Y-47434630D01*
X91714102Y-47400557D01*
X91788133Y-47351091D01*
X91851091Y-47288133D01*
X91900557Y-47214102D01*
X91934630Y-47131844D01*
X91952000Y-47044518D01*
X91952000Y-46955482D01*
X91934630Y-46868156D01*
X91900557Y-46785898D01*
X91851091Y-46711867D01*
X91788133Y-46648909D01*
X91714102Y-46599443D01*
X91631844Y-46565370D01*
X91544518Y-46548000D01*
X91455482Y-46548000D01*
X91368156Y-46565370D01*
X91285898Y-46599443D01*
X91211867Y-46648909D01*
X91148909Y-46711867D01*
X91137762Y-46728550D01*
X85962438Y-46728550D01*
X85548085Y-46314198D01*
X85552000Y-46294518D01*
X85552000Y-46205482D01*
X85534630Y-46118156D01*
X85500557Y-46035898D01*
X85451091Y-45961867D01*
X85388133Y-45898909D01*
X85314102Y-45849443D01*
X85231844Y-45815370D01*
X85144518Y-45798000D01*
X85055482Y-45798000D01*
X84968156Y-45815370D01*
X84885898Y-45849443D01*
X84811867Y-45898909D01*
X84748909Y-45961867D01*
X84699443Y-46035898D01*
X84687000Y-46065938D01*
X84687000Y-45960300D01*
X85660301Y-44987000D01*
X94113000Y-44987000D01*
X94113000Y-45043271D01*
X94118601Y-45100129D01*
X94140730Y-45173079D01*
X94176666Y-45240310D01*
X94225027Y-45299238D01*
X94283955Y-45347599D01*
X94351186Y-45383535D01*
X94424136Y-45405664D01*
X94500000Y-45413136D01*
X94575865Y-45405664D01*
X94648815Y-45383535D01*
X94716046Y-45347599D01*
X94774974Y-45299238D01*
X94823335Y-45240310D01*
X94859271Y-45173079D01*
X94881400Y-45100129D01*
X94887000Y-45043271D01*
X94887000Y-44958291D01*
X94909348Y-44935943D01*
X94967021Y-44849628D01*
X95006748Y-44753720D01*
X95027000Y-44651905D01*
X95027000Y-44548095D01*
X95006748Y-44446280D01*
X94967021Y-44350372D01*
X94909348Y-44264057D01*
X94835943Y-44190652D01*
X94749628Y-44132979D01*
X94653720Y-44093252D01*
X94551905Y-44073000D01*
X94448095Y-44073000D01*
X94346280Y-44093252D01*
X94250372Y-44132979D01*
X94164057Y-44190652D01*
X94141709Y-44213000D01*
X85518996Y-44213000D01*
X85499999Y-44211129D01*
X85481003Y-44213000D01*
X85480993Y-44213000D01*
X85424135Y-44218600D01*
X85351185Y-44240729D01*
X85283954Y-44276665D01*
X85283952Y-44276666D01*
X85283953Y-44276666D01*
X85246835Y-44307128D01*
X85225026Y-44325026D01*
X85212912Y-44339787D01*
X84039793Y-45512907D01*
X84025026Y-45525026D01*
X83976665Y-45583955D01*
X83940729Y-45651186D01*
X83918600Y-45724136D01*
X83913000Y-45780994D01*
X83913000Y-45781004D01*
X83911129Y-45800000D01*
X83913000Y-45818997D01*
X83913001Y-53113000D01*
X71218996Y-53113000D01*
X71199999Y-53111129D01*
X71181003Y-53113000D01*
X71180993Y-53113000D01*
X71124135Y-53118600D01*
X71051185Y-53140729D01*
X71007542Y-53164057D01*
X70983954Y-53176665D01*
X70950181Y-53204382D01*
X70925026Y-53225026D01*
X70912912Y-53239787D01*
X66379700Y-57773000D01*
X66348095Y-57773000D01*
X66246280Y-57793252D01*
X66150372Y-57832979D01*
X66064057Y-57890652D01*
X65990652Y-57964057D01*
X65932979Y-58050372D01*
X65893252Y-58146280D01*
X65873000Y-58248095D01*
X61941089Y-58248095D01*
X61866246Y-58196901D01*
X61655865Y-58107066D01*
X61432000Y-58060000D01*
X60907000Y-58060000D01*
X60763476Y-58060000D01*
X60769176Y-58051470D01*
X60810787Y-57951012D01*
X60832000Y-57844367D01*
X60832000Y-57735633D01*
X60810787Y-57628988D01*
X60769176Y-57528530D01*
X60708766Y-57438120D01*
X60631880Y-57361234D01*
X60541470Y-57300824D01*
X60441012Y-57259213D01*
X60334367Y-57238000D01*
X60225633Y-57238000D01*
X60118988Y-57259213D01*
X60018530Y-57300824D01*
X59928120Y-57361234D01*
X59851234Y-57438120D01*
X59790824Y-57528530D01*
X59749213Y-57628988D01*
X59728000Y-57735633D01*
X59728000Y-57844367D01*
X59749213Y-57951012D01*
X59790824Y-58051470D01*
X59844879Y-58132369D01*
X59693754Y-58196901D01*
X59504941Y-58326053D01*
X59344953Y-58489559D01*
X59219937Y-58681136D01*
X59136036Y-58914190D01*
X58192711Y-58914190D01*
X58114276Y-58695024D01*
X57992369Y-58507236D01*
X57836169Y-58346839D01*
X57651678Y-58219997D01*
X57445987Y-58131585D01*
X57227000Y-58085000D01*
X56727000Y-58085000D01*
X56473000Y-58085000D01*
X55973000Y-58085000D01*
X55754013Y-58131585D01*
X55548322Y-58219997D01*
X55363831Y-58346839D01*
X55277000Y-58436003D01*
X55277000Y-51363997D01*
X55363831Y-51453161D01*
X55548322Y-51580003D01*
X55754013Y-51668415D01*
X55973000Y-51715000D01*
X56473000Y-51715000D01*
X56473000Y-50707000D01*
X56453000Y-50707000D01*
X56453000Y-50453000D01*
X56473000Y-50453000D01*
X56473000Y-49445000D01*
X55973000Y-49445000D01*
X55754013Y-49491585D01*
X55548322Y-49579997D01*
X55363831Y-49706839D01*
X55277000Y-49796003D01*
X55277000Y-42755482D01*
X56548000Y-42755482D01*
X56548000Y-42844518D01*
X56565370Y-42931844D01*
X56599443Y-43014102D01*
X56648909Y-43088133D01*
X56711867Y-43151091D01*
X56728550Y-43162239D01*
X56728551Y-43586662D01*
X56727237Y-43600000D01*
X56732479Y-43653213D01*
X56748000Y-43704381D01*
X56771315Y-43748000D01*
X56773207Y-43751539D01*
X56807128Y-43792873D01*
X56817488Y-43801375D01*
X57228550Y-44212438D01*
X57228551Y-49086661D01*
X57227237Y-49100000D01*
X57232479Y-49153213D01*
X57248000Y-49204381D01*
X57271315Y-49248000D01*
X57273207Y-49251539D01*
X57307128Y-49292873D01*
X57317488Y-49301375D01*
X57554219Y-49538106D01*
X57445987Y-49491585D01*
X57227000Y-49445000D01*
X56727000Y-49445000D01*
X56727000Y-50453000D01*
X56747000Y-50453000D01*
X56747000Y-50707000D01*
X56727000Y-50707000D01*
X56727000Y-51715000D01*
X57227000Y-51715000D01*
X57445987Y-51668415D01*
X57651678Y-51580003D01*
X57836169Y-51453161D01*
X57992369Y-51292764D01*
X58114276Y-51104976D01*
X58128551Y-51065088D01*
X58128550Y-55437762D01*
X58111867Y-55448909D01*
X58048909Y-55511867D01*
X57999443Y-55585898D01*
X57965370Y-55668156D01*
X57948000Y-55755482D01*
X57948000Y-55844518D01*
X57965370Y-55931844D01*
X57999443Y-56014102D01*
X58048909Y-56088133D01*
X58111867Y-56151091D01*
X58185898Y-56200557D01*
X58268156Y-56234630D01*
X58355482Y-56252000D01*
X58444518Y-56252000D01*
X58531844Y-56234630D01*
X58614102Y-56200557D01*
X58688133Y-56151091D01*
X58751091Y-56088133D01*
X58800557Y-56014102D01*
X58834630Y-55931844D01*
X58852000Y-55844518D01*
X58852000Y-55755482D01*
X58834630Y-55668156D01*
X58800557Y-55585898D01*
X58751091Y-55511867D01*
X58688133Y-55448909D01*
X58671450Y-55437762D01*
X58671450Y-50013328D01*
X58672763Y-49999999D01*
X58669352Y-49965370D01*
X58667522Y-49946787D01*
X58652000Y-49895618D01*
X58626794Y-49848461D01*
X58592873Y-49807127D01*
X58582513Y-49798625D01*
X57771450Y-48987563D01*
X57771450Y-48555337D01*
X58828550Y-49612438D01*
X58828551Y-53086661D01*
X58827237Y-53100000D01*
X58832479Y-53153213D01*
X58848000Y-53204381D01*
X58852559Y-53212910D01*
X58873207Y-53251539D01*
X58907128Y-53292873D01*
X58917488Y-53301375D01*
X59051915Y-53435802D01*
X59048000Y-53455482D01*
X59048000Y-53544518D01*
X59065370Y-53631844D01*
X59099443Y-53714102D01*
X59148909Y-53788133D01*
X59211867Y-53851091D01*
X59285898Y-53900557D01*
X59368156Y-53934630D01*
X59455482Y-53952000D01*
X59544518Y-53952000D01*
X59631844Y-53934630D01*
X59714102Y-53900557D01*
X59788133Y-53851091D01*
X59851091Y-53788133D01*
X59900557Y-53714102D01*
X59934630Y-53631844D01*
X59952000Y-53544518D01*
X59952000Y-53455482D01*
X59934630Y-53368156D01*
X59900557Y-53285898D01*
X59851091Y-53211867D01*
X59788133Y-53148909D01*
X59714102Y-53099443D01*
X59631844Y-53065370D01*
X59544518Y-53048000D01*
X59455482Y-53048000D01*
X59435802Y-53051915D01*
X59371450Y-52987563D01*
X59371450Y-51337521D01*
X59504941Y-51473947D01*
X59693754Y-51603099D01*
X59844879Y-51667631D01*
X59790824Y-51748530D01*
X59749213Y-51848988D01*
X59728000Y-51955633D01*
X59728000Y-52064367D01*
X59749213Y-52171012D01*
X59790824Y-52271470D01*
X59851234Y-52361880D01*
X59928120Y-52438766D01*
X60018530Y-52499176D01*
X60118988Y-52540787D01*
X60225633Y-52562000D01*
X60334367Y-52562000D01*
X60441012Y-52540787D01*
X60541470Y-52499176D01*
X60631880Y-52438766D01*
X60708766Y-52361880D01*
X60769176Y-52271470D01*
X60810787Y-52171012D01*
X60832000Y-52064367D01*
X60832000Y-51955633D01*
X60810787Y-51848988D01*
X60769176Y-51748530D01*
X60708766Y-51658120D01*
X60653000Y-51602354D01*
X60653000Y-50707000D01*
X60907000Y-50707000D01*
X60907000Y-51740000D01*
X61432000Y-51740000D01*
X61655865Y-51692934D01*
X61866246Y-51603099D01*
X62055059Y-51473947D01*
X62215047Y-51310441D01*
X62340063Y-51118864D01*
X62423964Y-50885810D01*
X62298163Y-50707000D01*
X60907000Y-50707000D01*
X60653000Y-50707000D01*
X60633000Y-50707000D01*
X60633000Y-50453000D01*
X60653000Y-50453000D01*
X60653000Y-49420000D01*
X60907000Y-49420000D01*
X60907000Y-50453000D01*
X62298163Y-50453000D01*
X62423964Y-50274190D01*
X62340063Y-50041136D01*
X62215047Y-49849559D01*
X62055059Y-49686053D01*
X61866246Y-49556901D01*
X61655865Y-49467066D01*
X61432000Y-49420000D01*
X60907000Y-49420000D01*
X60653000Y-49420000D01*
X60128000Y-49420000D01*
X59904135Y-49467066D01*
X59693754Y-49556901D01*
X59504941Y-49686053D01*
X59371450Y-49822479D01*
X59371450Y-49513331D01*
X59372763Y-49500000D01*
X59367522Y-49446786D01*
X59352000Y-49395618D01*
X59326794Y-49348460D01*
X59314627Y-49333634D01*
X59292873Y-49307127D01*
X59282513Y-49298625D01*
X58046451Y-48062564D01*
X58046451Y-46355482D01*
X58548000Y-46355482D01*
X58548000Y-46444518D01*
X58565370Y-46531844D01*
X58599443Y-46614102D01*
X58648909Y-46688133D01*
X58711867Y-46751091D01*
X58785898Y-46800557D01*
X58868156Y-46834630D01*
X58955482Y-46852000D01*
X59044518Y-46852000D01*
X59131844Y-46834630D01*
X59186479Y-46811999D01*
X61864699Y-46811999D01*
X62613001Y-47560302D01*
X62613000Y-49565608D01*
X62599443Y-49585898D01*
X62565370Y-49668156D01*
X62548000Y-49755482D01*
X62548000Y-49844518D01*
X62565370Y-49931844D01*
X62599443Y-50014102D01*
X62648909Y-50088133D01*
X62711867Y-50151091D01*
X62785898Y-50200557D01*
X62868156Y-50234630D01*
X62955482Y-50252000D01*
X63044518Y-50252000D01*
X63131844Y-50234630D01*
X63214102Y-50200557D01*
X63288133Y-50151091D01*
X63351091Y-50088133D01*
X63400557Y-50014102D01*
X63434630Y-49931844D01*
X63452000Y-49844518D01*
X63452000Y-49755482D01*
X63434630Y-49668156D01*
X63400557Y-49585898D01*
X63387000Y-49565609D01*
X63387000Y-47419007D01*
X63388872Y-47400000D01*
X63381400Y-47324135D01*
X63359271Y-47251185D01*
X63323335Y-47183954D01*
X63287090Y-47139789D01*
X63287088Y-47139787D01*
X63274974Y-47125026D01*
X63260213Y-47112912D01*
X62312092Y-46164792D01*
X62299973Y-46150025D01*
X62241045Y-46101664D01*
X62173814Y-46065728D01*
X62100864Y-46043599D01*
X62044006Y-46037999D01*
X62043995Y-46037999D01*
X62024999Y-46036128D01*
X62006003Y-46037999D01*
X59271805Y-46037999D01*
X59214102Y-45999443D01*
X59131844Y-45965370D01*
X59044518Y-45948000D01*
X58955482Y-45948000D01*
X58868156Y-45965370D01*
X58785898Y-45999443D01*
X58711867Y-46048909D01*
X58648909Y-46111867D01*
X58599443Y-46185898D01*
X58565370Y-46268156D01*
X58548000Y-46355482D01*
X58046451Y-46355482D01*
X58046451Y-44951616D01*
X58131844Y-44934630D01*
X58214102Y-44900557D01*
X58288133Y-44851091D01*
X58351091Y-44788133D01*
X58400557Y-44714102D01*
X58434630Y-44631844D01*
X58452000Y-44544518D01*
X58452000Y-44455482D01*
X58434630Y-44368156D01*
X58400557Y-44285898D01*
X58351091Y-44211867D01*
X58288133Y-44148909D01*
X58214102Y-44099443D01*
X58131844Y-44065370D01*
X58044518Y-44048000D01*
X57955482Y-44048000D01*
X57868156Y-44065370D01*
X57785898Y-44099443D01*
X57771896Y-44108799D01*
X57772763Y-44100000D01*
X57771041Y-44082517D01*
X57767522Y-44046787D01*
X57752000Y-43995618D01*
X57747217Y-43986669D01*
X57726794Y-43948460D01*
X57713678Y-43932479D01*
X57692873Y-43907127D01*
X57682513Y-43898625D01*
X57271450Y-43487563D01*
X57271450Y-43162238D01*
X57288133Y-43151091D01*
X57351091Y-43088133D01*
X57400557Y-43014102D01*
X57434630Y-42931844D01*
X57452000Y-42844518D01*
X57452000Y-42755482D01*
X57434630Y-42668156D01*
X57400557Y-42585898D01*
X57351091Y-42511867D01*
X57288133Y-42448909D01*
X57214102Y-42399443D01*
X57131844Y-42365370D01*
X57044518Y-42348000D01*
X56955482Y-42348000D01*
X56868156Y-42365370D01*
X56785898Y-42399443D01*
X56711867Y-42448909D01*
X56648909Y-42511867D01*
X56599443Y-42585898D01*
X56565370Y-42668156D01*
X56548000Y-42755482D01*
X55277000Y-42755482D01*
X55277000Y-40155482D01*
X61148000Y-40155482D01*
X61148000Y-40244518D01*
X61165370Y-40331844D01*
X61199443Y-40414102D01*
X61248909Y-40488133D01*
X61311867Y-40551091D01*
X61328551Y-40562239D01*
X61328550Y-44186671D01*
X61327237Y-44200000D01*
X61328550Y-44213329D01*
X61328550Y-44213330D01*
X61332478Y-44253212D01*
X61348000Y-44304381D01*
X61373206Y-44351539D01*
X61407127Y-44392873D01*
X61417493Y-44401380D01*
X66203552Y-49187440D01*
X66203551Y-52961672D01*
X66202238Y-52975001D01*
X66203551Y-52988330D01*
X66203551Y-52988331D01*
X66207479Y-53028213D01*
X66223001Y-53079382D01*
X66248207Y-53126540D01*
X66252674Y-53131983D01*
X66248000Y-53155482D01*
X66248000Y-53244518D01*
X66265370Y-53331844D01*
X66299443Y-53414102D01*
X66348909Y-53488133D01*
X66411867Y-53551091D01*
X66485898Y-53600557D01*
X66568156Y-53634630D01*
X66655482Y-53652000D01*
X66744518Y-53652000D01*
X66831844Y-53634630D01*
X66914102Y-53600557D01*
X66988133Y-53551091D01*
X67051091Y-53488133D01*
X67100557Y-53414102D01*
X67134630Y-53331844D01*
X67152000Y-53244518D01*
X67152000Y-53155482D01*
X67134630Y-53068156D01*
X67100557Y-52985898D01*
X67051091Y-52911867D01*
X66988133Y-52848909D01*
X66914102Y-52799443D01*
X66831844Y-52765370D01*
X66746451Y-52748384D01*
X66746451Y-52030338D01*
X67628551Y-52912439D01*
X67628550Y-54068473D01*
X67627237Y-54081802D01*
X67628550Y-54095131D01*
X67628550Y-54095132D01*
X67632478Y-54135014D01*
X67648000Y-54186183D01*
X67673206Y-54233341D01*
X67707127Y-54274675D01*
X67717492Y-54283181D01*
X68147815Y-54713505D01*
X68099443Y-54785898D01*
X68065370Y-54868156D01*
X68048000Y-54955482D01*
X68048000Y-55044518D01*
X68065370Y-55131844D01*
X68099443Y-55214102D01*
X68148909Y-55288133D01*
X68211867Y-55351091D01*
X68285898Y-55400557D01*
X68368156Y-55434630D01*
X68455482Y-55452000D01*
X68544518Y-55452000D01*
X68631844Y-55434630D01*
X68714102Y-55400557D01*
X68788133Y-55351091D01*
X68851091Y-55288133D01*
X68900557Y-55214102D01*
X68934630Y-55131844D01*
X68952000Y-55044518D01*
X68952000Y-54955482D01*
X68934630Y-54868156D01*
X68900557Y-54785898D01*
X68851091Y-54711867D01*
X68788133Y-54648909D01*
X68768212Y-54635598D01*
X68767522Y-54628589D01*
X68752000Y-54577420D01*
X68726794Y-54530263D01*
X68692873Y-54488929D01*
X68682513Y-54480427D01*
X68171450Y-53969365D01*
X68171450Y-52813331D01*
X68172763Y-52800000D01*
X68167522Y-52746786D01*
X68152000Y-52695618D01*
X68126794Y-52648460D01*
X68114627Y-52633634D01*
X68092873Y-52607127D01*
X68082513Y-52598625D01*
X67171450Y-51687563D01*
X67171450Y-51348095D01*
X67373000Y-51348095D01*
X67373000Y-51451905D01*
X67393252Y-51553720D01*
X67432979Y-51649628D01*
X67490652Y-51735943D01*
X67564057Y-51809348D01*
X67650372Y-51867021D01*
X67746280Y-51906748D01*
X67848095Y-51927000D01*
X67951905Y-51927000D01*
X68053720Y-51906748D01*
X68149628Y-51867021D01*
X68235943Y-51809348D01*
X68309348Y-51735943D01*
X68367021Y-51649628D01*
X68406748Y-51553720D01*
X68427000Y-51451905D01*
X68427000Y-51420300D01*
X70460301Y-49387000D01*
X74541709Y-49387000D01*
X74564057Y-49409348D01*
X74650372Y-49467021D01*
X74746280Y-49506748D01*
X74848095Y-49527000D01*
X74951905Y-49527000D01*
X75053720Y-49506748D01*
X75149628Y-49467021D01*
X75235943Y-49409348D01*
X75309348Y-49335943D01*
X75367021Y-49249628D01*
X75406748Y-49153720D01*
X75427000Y-49051905D01*
X75427000Y-48948095D01*
X75406748Y-48846280D01*
X75367021Y-48750372D01*
X75309348Y-48664057D01*
X75235943Y-48590652D01*
X75149628Y-48532979D01*
X75053720Y-48493252D01*
X74951905Y-48473000D01*
X74848095Y-48473000D01*
X74746280Y-48493252D01*
X74650372Y-48532979D01*
X74564057Y-48590652D01*
X74541709Y-48613000D01*
X70319007Y-48613000D01*
X70300000Y-48611128D01*
X70224135Y-48618600D01*
X70151185Y-48640729D01*
X70083954Y-48676665D01*
X70054842Y-48700557D01*
X70025026Y-48725026D01*
X70012912Y-48739787D01*
X67879700Y-50873000D01*
X67848095Y-50873000D01*
X67746280Y-50893252D01*
X67650372Y-50932979D01*
X67564057Y-50990652D01*
X67490652Y-51064057D01*
X67432979Y-51150372D01*
X67393252Y-51246280D01*
X67373000Y-51348095D01*
X67171450Y-51348095D01*
X67171450Y-48813329D01*
X67172763Y-48800000D01*
X67171450Y-48786669D01*
X67167522Y-48746787D01*
X67152000Y-48695618D01*
X67126794Y-48648461D01*
X67092873Y-48607127D01*
X67082513Y-48598625D01*
X63271450Y-44787563D01*
X63271450Y-39296449D01*
X64761672Y-39296449D01*
X64775001Y-39297762D01*
X64788330Y-39296449D01*
X64788332Y-39296449D01*
X64828214Y-39292521D01*
X64879383Y-39276999D01*
X64926540Y-39251793D01*
X64967874Y-39217872D01*
X64976380Y-39207507D01*
X65835802Y-38348086D01*
X65855482Y-38352000D01*
X65944518Y-38352000D01*
X66031844Y-38334630D01*
X66114102Y-38300557D01*
X66188133Y-38251091D01*
X66251091Y-38188133D01*
X66300557Y-38114102D01*
X66334630Y-38031844D01*
X66352000Y-37944518D01*
X66352000Y-37855482D01*
X66334630Y-37768156D01*
X66300557Y-37685898D01*
X66251091Y-37611867D01*
X66188133Y-37548909D01*
X66114102Y-37499443D01*
X66031844Y-37465370D01*
X65944518Y-37448000D01*
X65855482Y-37448000D01*
X65768156Y-37465370D01*
X65685898Y-37499443D01*
X65611867Y-37548909D01*
X65548909Y-37611867D01*
X65499443Y-37685898D01*
X65465370Y-37768156D01*
X65448000Y-37855482D01*
X65448000Y-37944518D01*
X65451914Y-37964198D01*
X64662564Y-38753549D01*
X63451616Y-38753549D01*
X63434630Y-38668156D01*
X63400557Y-38585898D01*
X63351091Y-38511867D01*
X63288133Y-38448909D01*
X63214102Y-38399443D01*
X63131844Y-38365370D01*
X63044518Y-38348000D01*
X62955482Y-38348000D01*
X62868156Y-38365370D01*
X62785898Y-38399443D01*
X62711867Y-38448909D01*
X62648909Y-38511867D01*
X62599443Y-38585898D01*
X62565370Y-38668156D01*
X62548000Y-38755482D01*
X62548000Y-38844518D01*
X62565370Y-38931844D01*
X62599443Y-39014102D01*
X62648909Y-39088133D01*
X62711867Y-39151091D01*
X62728551Y-39162239D01*
X62728550Y-43986669D01*
X62728550Y-44113330D01*
X62728551Y-44113339D01*
X62728550Y-44886671D01*
X62727237Y-44900000D01*
X62728550Y-44913329D01*
X62728550Y-44913330D01*
X62731973Y-44948086D01*
X61871450Y-44087563D01*
X61871450Y-40562238D01*
X61888133Y-40551091D01*
X61951091Y-40488133D01*
X62000557Y-40414102D01*
X62034630Y-40331844D01*
X62052000Y-40244518D01*
X62052000Y-40155482D01*
X62034630Y-40068156D01*
X62000557Y-39985898D01*
X61951091Y-39911867D01*
X61888133Y-39848909D01*
X61871450Y-39837762D01*
X61871450Y-37812437D01*
X63812439Y-35871450D01*
X69685539Y-35871450D01*
X69715741Y-35944364D01*
X69795302Y-36063436D01*
X69896564Y-36164698D01*
X70001779Y-36235000D01*
X69896564Y-36305302D01*
X69795302Y-36406564D01*
X69715741Y-36525636D01*
X69660938Y-36657942D01*
X69633000Y-36798397D01*
X69633000Y-36941603D01*
X69660938Y-37082058D01*
X69715741Y-37214364D01*
X69795302Y-37333436D01*
X69896564Y-37434698D01*
X70015636Y-37514259D01*
X70147942Y-37569062D01*
X70288397Y-37597000D01*
X70431603Y-37597000D01*
X70572058Y-37569062D01*
X70701667Y-37515376D01*
X70734682Y-37567601D01*
X70887980Y-37728865D01*
X71069794Y-37857123D01*
X71273136Y-37947446D01*
X71328126Y-37964119D01*
X71503000Y-37837954D01*
X71503000Y-36997000D01*
X71483000Y-36997000D01*
X71483000Y-36743000D01*
X71503000Y-36743000D01*
X71503000Y-36723000D01*
X71757000Y-36723000D01*
X71757000Y-36743000D01*
X71777000Y-36743000D01*
X71777000Y-36997000D01*
X71757000Y-36997000D01*
X71757000Y-37837954D01*
X71931874Y-37964119D01*
X71986864Y-37947446D01*
X72190206Y-37857123D01*
X72372020Y-37728865D01*
X72513000Y-37580559D01*
X72513000Y-37596112D01*
X72513001Y-37596122D01*
X72513000Y-38034875D01*
X65818327Y-44729549D01*
X65730698Y-44693252D01*
X65628883Y-44673000D01*
X65525073Y-44673000D01*
X65423258Y-44693252D01*
X65327350Y-44732979D01*
X65241035Y-44790652D01*
X65167630Y-44864057D01*
X65109957Y-44950372D01*
X65070230Y-45046280D01*
X65049978Y-45148095D01*
X65049978Y-45251905D01*
X65070230Y-45353720D01*
X65109957Y-45449628D01*
X65167630Y-45535943D01*
X65241035Y-45609348D01*
X65327350Y-45667021D01*
X65423258Y-45706748D01*
X65525073Y-45727000D01*
X65628883Y-45727000D01*
X65730698Y-45706748D01*
X65826606Y-45667021D01*
X65912921Y-45609348D01*
X65937573Y-45584696D01*
X65971041Y-45581400D01*
X66043991Y-45559271D01*
X66111222Y-45523335D01*
X66170150Y-45474974D01*
X66182269Y-45460207D01*
X68648000Y-42994476D01*
X68648000Y-43044518D01*
X68665370Y-43131844D01*
X68699443Y-43214102D01*
X68748909Y-43288133D01*
X68811867Y-43351091D01*
X68885898Y-43400557D01*
X68968156Y-43434630D01*
X69055482Y-43452000D01*
X69144518Y-43452000D01*
X69164198Y-43448085D01*
X70798625Y-45082513D01*
X70807127Y-45092873D01*
X70832995Y-45114102D01*
X70848460Y-45126794D01*
X70888312Y-45148095D01*
X70895618Y-45152000D01*
X70946787Y-45167522D01*
X70986669Y-45171450D01*
X70986671Y-45171450D01*
X71000000Y-45172763D01*
X71013329Y-45171450D01*
X73137762Y-45171450D01*
X73148909Y-45188133D01*
X73211867Y-45251091D01*
X73285898Y-45300557D01*
X73368156Y-45334630D01*
X73455482Y-45352000D01*
X73544518Y-45352000D01*
X73631844Y-45334630D01*
X73714102Y-45300557D01*
X73788133Y-45251091D01*
X73851091Y-45188133D01*
X73900557Y-45114102D01*
X73934630Y-45031844D01*
X73952000Y-44944518D01*
X73952000Y-44855482D01*
X73934630Y-44768156D01*
X73900557Y-44685898D01*
X73851091Y-44611867D01*
X73788133Y-44548909D01*
X73714102Y-44499443D01*
X73631844Y-44465370D01*
X73544518Y-44448000D01*
X73455482Y-44448000D01*
X73368156Y-44465370D01*
X73285898Y-44499443D01*
X73211867Y-44548909D01*
X73148909Y-44611867D01*
X73137762Y-44628550D01*
X71112438Y-44628550D01*
X69548085Y-43064198D01*
X69552000Y-43044518D01*
X69552000Y-42955482D01*
X69548085Y-42935802D01*
X73528405Y-38955482D01*
X98148000Y-38955482D01*
X98148000Y-39044518D01*
X98165370Y-39131844D01*
X98199443Y-39214102D01*
X98248909Y-39288133D01*
X98311867Y-39351091D01*
X98385898Y-39400557D01*
X98468156Y-39434630D01*
X98555482Y-39452000D01*
X98644518Y-39452000D01*
X98731844Y-39434630D01*
X98814102Y-39400557D01*
X98888133Y-39351091D01*
X98951091Y-39288133D01*
X98962238Y-39271450D01*
X100287563Y-39271450D01*
X103028551Y-42012439D01*
X103028550Y-43886671D01*
X103027237Y-43900000D01*
X103028550Y-43913329D01*
X103028550Y-43913330D01*
X103032478Y-43953212D01*
X103048000Y-44004381D01*
X103073206Y-44051539D01*
X103107127Y-44092873D01*
X103117493Y-44101380D01*
X105398625Y-46382513D01*
X105407127Y-46392873D01*
X105448461Y-46426794D01*
X105495618Y-46452000D01*
X105546787Y-46467522D01*
X105586669Y-46471450D01*
X105586670Y-46471450D01*
X105599999Y-46472763D01*
X105613328Y-46471450D01*
X106287563Y-46471450D01*
X107051914Y-47235802D01*
X107048000Y-47255482D01*
X107048000Y-47344518D01*
X107065370Y-47431844D01*
X107099443Y-47514102D01*
X107148909Y-47588133D01*
X107211867Y-47651091D01*
X107285898Y-47700557D01*
X107368156Y-47734630D01*
X107455482Y-47752000D01*
X107544518Y-47752000D01*
X107631844Y-47734630D01*
X107714102Y-47700557D01*
X107788133Y-47651091D01*
X107851091Y-47588133D01*
X107900557Y-47514102D01*
X107934630Y-47431844D01*
X107952000Y-47344518D01*
X107952000Y-47255482D01*
X107934630Y-47168156D01*
X107900557Y-47085898D01*
X107851091Y-47011867D01*
X107788133Y-46948909D01*
X107714102Y-46899443D01*
X107631844Y-46865370D01*
X107544518Y-46848000D01*
X107455482Y-46848000D01*
X107435802Y-46851914D01*
X106601379Y-46017492D01*
X106592873Y-46007127D01*
X106551539Y-45973206D01*
X106504382Y-45948000D01*
X106453213Y-45932478D01*
X106413331Y-45928550D01*
X106413329Y-45928550D01*
X106400000Y-45927237D01*
X106386671Y-45928550D01*
X105712438Y-45928550D01*
X103571450Y-43787563D01*
X103571450Y-41913328D01*
X103572763Y-41899999D01*
X103571450Y-41886669D01*
X103567522Y-41846787D01*
X103552000Y-41795618D01*
X103526794Y-41748461D01*
X103492873Y-41707127D01*
X103482513Y-41698625D01*
X101631983Y-39848095D01*
X104773000Y-39848095D01*
X104773000Y-39951905D01*
X104793252Y-40053720D01*
X104832979Y-40149628D01*
X104890652Y-40235943D01*
X104913000Y-40258291D01*
X104913001Y-44230993D01*
X104911129Y-44250000D01*
X104913001Y-44269007D01*
X104918519Y-44325027D01*
X104918601Y-44325864D01*
X104940729Y-44398814D01*
X104976665Y-44466045D01*
X104996860Y-44490652D01*
X105025027Y-44524974D01*
X105039788Y-44537088D01*
X105423000Y-44920301D01*
X105423000Y-44951905D01*
X105443252Y-45053720D01*
X105482979Y-45149628D01*
X105540652Y-45235943D01*
X105614057Y-45309348D01*
X105700372Y-45367021D01*
X105796280Y-45406748D01*
X105898095Y-45427000D01*
X106001905Y-45427000D01*
X106103720Y-45406748D01*
X106199628Y-45367021D01*
X106285943Y-45309348D01*
X106359348Y-45235943D01*
X106417021Y-45149628D01*
X106456748Y-45053720D01*
X106477000Y-44951905D01*
X106477000Y-44848095D01*
X106456748Y-44746280D01*
X106417021Y-44650372D01*
X106359348Y-44564057D01*
X106285943Y-44490652D01*
X106199628Y-44432979D01*
X106103720Y-44393252D01*
X106001905Y-44373000D01*
X105970301Y-44373000D01*
X105687000Y-44089700D01*
X105687000Y-40287000D01*
X111722412Y-40287000D01*
X111722412Y-40974490D01*
X111726795Y-41018990D01*
X111739775Y-41061779D01*
X111760853Y-41101214D01*
X111789220Y-41135780D01*
X111823786Y-41164147D01*
X111863221Y-41185225D01*
X111906010Y-41198205D01*
X111950510Y-41202588D01*
X113949490Y-41202588D01*
X113993990Y-41198205D01*
X114036779Y-41185225D01*
X114076214Y-41164147D01*
X114110780Y-41135780D01*
X114139147Y-41101214D01*
X114160225Y-41061779D01*
X114173205Y-41018990D01*
X114177588Y-40974490D01*
X114177588Y-38975510D01*
X114173205Y-38931010D01*
X114160225Y-38888221D01*
X114139147Y-38848786D01*
X114110780Y-38814220D01*
X114076214Y-38785853D01*
X114036779Y-38764775D01*
X113993990Y-38751795D01*
X113949490Y-38747412D01*
X111950510Y-38747412D01*
X111906010Y-38751795D01*
X111863221Y-38764775D01*
X111823786Y-38785853D01*
X111789220Y-38814220D01*
X111760853Y-38848786D01*
X111739775Y-38888221D01*
X111726795Y-38931010D01*
X111722412Y-38975510D01*
X111722412Y-39513000D01*
X105658291Y-39513000D01*
X105635943Y-39490652D01*
X105549628Y-39432979D01*
X105453720Y-39393252D01*
X105351905Y-39373000D01*
X105248095Y-39373000D01*
X105146280Y-39393252D01*
X105050372Y-39432979D01*
X104964057Y-39490652D01*
X104890652Y-39564057D01*
X104832979Y-39650372D01*
X104793252Y-39746280D01*
X104773000Y-39848095D01*
X101631983Y-39848095D01*
X100601380Y-38817493D01*
X100592873Y-38807127D01*
X100551539Y-38773206D01*
X100504382Y-38748000D01*
X100453213Y-38732478D01*
X100413331Y-38728550D01*
X100413329Y-38728550D01*
X100400000Y-38727237D01*
X100386671Y-38728550D01*
X98962238Y-38728550D01*
X98951091Y-38711867D01*
X98888133Y-38648909D01*
X98814102Y-38599443D01*
X98731844Y-38565370D01*
X98644518Y-38548000D01*
X98555482Y-38548000D01*
X98468156Y-38565370D01*
X98385898Y-38599443D01*
X98311867Y-38648909D01*
X98248909Y-38711867D01*
X98199443Y-38785898D01*
X98165370Y-38868156D01*
X98148000Y-38955482D01*
X73528405Y-38955482D01*
X74782513Y-37701375D01*
X74792873Y-37692873D01*
X74814627Y-37666366D01*
X74826794Y-37651540D01*
X74852000Y-37604382D01*
X74867522Y-37553214D01*
X74872763Y-37500000D01*
X74871450Y-37486669D01*
X74871450Y-34829905D01*
X111273000Y-34829905D01*
X111273000Y-35170095D01*
X111339368Y-35503747D01*
X111469553Y-35818041D01*
X111658552Y-36100898D01*
X111899102Y-36341448D01*
X112181959Y-36530447D01*
X112496253Y-36660632D01*
X112829905Y-36727000D01*
X113170095Y-36727000D01*
X113503747Y-36660632D01*
X113818041Y-36530447D01*
X114100898Y-36341448D01*
X114341448Y-36100898D01*
X114530447Y-35818041D01*
X114660632Y-35503747D01*
X114727000Y-35170095D01*
X114727000Y-34829905D01*
X114660632Y-34496253D01*
X114530447Y-34181959D01*
X114341448Y-33899102D01*
X114100898Y-33658552D01*
X113818041Y-33469553D01*
X113503747Y-33339368D01*
X113170095Y-33273000D01*
X112829905Y-33273000D01*
X112496253Y-33339368D01*
X112181959Y-33469553D01*
X111899102Y-33658552D01*
X111658552Y-33899102D01*
X111469553Y-34181959D01*
X111339368Y-34496253D01*
X111273000Y-34829905D01*
X74871450Y-34829905D01*
X74871450Y-34662238D01*
X74888133Y-34651091D01*
X74951091Y-34588133D01*
X75000557Y-34514102D01*
X75034630Y-34431844D01*
X75052000Y-34344518D01*
X75052000Y-34255482D01*
X75034630Y-34168156D01*
X75000557Y-34085898D01*
X74951091Y-34011867D01*
X74888133Y-33948909D01*
X74814102Y-33899443D01*
X74731844Y-33865370D01*
X74644518Y-33848000D01*
X74555482Y-33848000D01*
X74468156Y-33865370D01*
X74385898Y-33899443D01*
X74311867Y-33948909D01*
X74248909Y-34011867D01*
X74199443Y-34085898D01*
X74165370Y-34168156D01*
X74148000Y-34255482D01*
X74148000Y-34344518D01*
X74165370Y-34431844D01*
X74199443Y-34514102D01*
X74248909Y-34588133D01*
X74311867Y-34651091D01*
X74328550Y-34662238D01*
X74328551Y-36270819D01*
X74323335Y-36261061D01*
X74274974Y-36202132D01*
X74216045Y-36153771D01*
X74148814Y-36117835D01*
X74075864Y-36095707D01*
X73999999Y-36088235D01*
X73924135Y-36095707D01*
X73851185Y-36117835D01*
X73783954Y-36153771D01*
X73739789Y-36190016D01*
X73488147Y-36441658D01*
X73464698Y-36406564D01*
X73386232Y-36328098D01*
X73400000Y-36328098D01*
X73444500Y-36323715D01*
X73487289Y-36310735D01*
X73526724Y-36289657D01*
X73561290Y-36261290D01*
X73589657Y-36226724D01*
X73610735Y-36187289D01*
X73623715Y-36144500D01*
X73628098Y-36100000D01*
X73628098Y-35100000D01*
X73623715Y-35055500D01*
X73610735Y-35012711D01*
X73589657Y-34973276D01*
X73561290Y-34938710D01*
X73526724Y-34910343D01*
X73487289Y-34889265D01*
X73444500Y-34876285D01*
X73400000Y-34871902D01*
X72400000Y-34871902D01*
X72355500Y-34876285D01*
X72312711Y-34889265D01*
X72273276Y-34910343D01*
X72238710Y-34938710D01*
X72210343Y-34973276D01*
X72189265Y-35012711D01*
X72176285Y-35055500D01*
X72171902Y-35100000D01*
X72171902Y-35113768D01*
X72093436Y-35035302D01*
X71974364Y-34955741D01*
X71842058Y-34900938D01*
X71701603Y-34873000D01*
X71558397Y-34873000D01*
X71417942Y-34900938D01*
X71285636Y-34955741D01*
X71166564Y-35035302D01*
X71065302Y-35136564D01*
X70995000Y-35241779D01*
X70924698Y-35136564D01*
X70823436Y-35035302D01*
X70704364Y-34955741D01*
X70572058Y-34900938D01*
X70431603Y-34873000D01*
X70288397Y-34873000D01*
X70147942Y-34900938D01*
X70015636Y-34955741D01*
X69896564Y-35035302D01*
X69795302Y-35136564D01*
X69715741Y-35255636D01*
X69685539Y-35328550D01*
X63713328Y-35328550D01*
X63699999Y-35327237D01*
X63686670Y-35328550D01*
X63686669Y-35328550D01*
X63646787Y-35332478D01*
X63595618Y-35348000D01*
X63548461Y-35373206D01*
X63507127Y-35407127D01*
X63498630Y-35417482D01*
X61417488Y-37498625D01*
X61407128Y-37507127D01*
X61373207Y-37548461D01*
X61348000Y-37595619D01*
X61332479Y-37646787D01*
X61327237Y-37700000D01*
X61328551Y-37713339D01*
X61328550Y-39837762D01*
X61311867Y-39848909D01*
X61248909Y-39911867D01*
X61199443Y-39985898D01*
X61165370Y-40068156D01*
X61148000Y-40155482D01*
X55277000Y-40155482D01*
X55277000Y-34829905D01*
X56273000Y-34829905D01*
X56273000Y-35170095D01*
X56339368Y-35503747D01*
X56469553Y-35818041D01*
X56658552Y-36100898D01*
X56899102Y-36341448D01*
X57181959Y-36530447D01*
X57496253Y-36660632D01*
X57829905Y-36727000D01*
X58170095Y-36727000D01*
X58503747Y-36660632D01*
X58818041Y-36530447D01*
X59100898Y-36341448D01*
X59341448Y-36100898D01*
X59530447Y-35818041D01*
X59660632Y-35503747D01*
X59727000Y-35170095D01*
X59727000Y-34829905D01*
X59660632Y-34496253D01*
X59530447Y-34181959D01*
X59341448Y-33899102D01*
X59100898Y-33658552D01*
X58818041Y-33469553D01*
X58503747Y-33339368D01*
X58170095Y-33273000D01*
X57829905Y-33273000D01*
X57496253Y-33339368D01*
X57181959Y-33469553D01*
X56899102Y-33658552D01*
X56658552Y-33899102D01*
X56469553Y-34181959D01*
X56339368Y-34496253D01*
X56273000Y-34829905D01*
X55277000Y-34829905D01*
X55277000Y-32277000D01*
X115723001Y-32277000D01*
X115723000Y-32986394D01*
G37*
X115723000Y-32986394D02*
X115723000Y-32986395D01*
X115723001Y-67723000D01*
X110986394Y-67723000D01*
X110945699Y-67727008D01*
X110893484Y-67742847D01*
X110883844Y-67748000D01*
X94252000Y-67748000D01*
X94252000Y-64829905D01*
X111273000Y-64829905D01*
X111273000Y-65170095D01*
X111339368Y-65503747D01*
X111469553Y-65818041D01*
X111658552Y-66100898D01*
X111899102Y-66341448D01*
X112181959Y-66530447D01*
X112496253Y-66660632D01*
X112829905Y-66727000D01*
X113170095Y-66727000D01*
X113503747Y-66660632D01*
X113818041Y-66530447D01*
X114100898Y-66341448D01*
X114341448Y-66100898D01*
X114530447Y-65818041D01*
X114660632Y-65503747D01*
X114727000Y-65170095D01*
X114727000Y-64829905D01*
X114660632Y-64496253D01*
X114530447Y-64181959D01*
X114341448Y-63899102D01*
X114100898Y-63658552D01*
X113818041Y-63469553D01*
X113503747Y-63339368D01*
X113170095Y-63273000D01*
X112829905Y-63273000D01*
X112496253Y-63339368D01*
X112181959Y-63469553D01*
X111899102Y-63658552D01*
X111658552Y-63899102D01*
X111469553Y-64181959D01*
X111339368Y-64496253D01*
X111273000Y-64829905D01*
X94252000Y-64829905D01*
X94252000Y-63012376D01*
X94253219Y-63000000D01*
X94248353Y-62950599D01*
X94233944Y-62903097D01*
X94210544Y-62859319D01*
X94179053Y-62820947D01*
X94140681Y-62789456D01*
X94127000Y-62782143D01*
X94127000Y-62000000D01*
X94124560Y-61975224D01*
X94117333Y-61951399D01*
X94105597Y-61929443D01*
X94089803Y-61910197D01*
X94070557Y-61894403D01*
X94048601Y-61882667D01*
X94024776Y-61875440D01*
X94000000Y-61873000D01*
X65000000Y-61873000D01*
X64975224Y-61875440D01*
X64951399Y-61882667D01*
X64929443Y-61894403D01*
X64910197Y-61910197D01*
X64894403Y-61929443D01*
X64882667Y-61951399D01*
X64875440Y-61975224D01*
X64873000Y-62000000D01*
X64873000Y-62782143D01*
X64859319Y-62789456D01*
X64820947Y-62820947D01*
X64789456Y-62859319D01*
X64766056Y-62903097D01*
X64751647Y-62950599D01*
X64746781Y-63000000D01*
X64748000Y-63012376D01*
X64748001Y-67748000D01*
X55277000Y-67748000D01*
X55277000Y-64829905D01*
X56273000Y-64829905D01*
X56273000Y-65170095D01*
X56339368Y-65503747D01*
X56469553Y-65818041D01*
X56658552Y-66100898D01*
X56899102Y-66341448D01*
X57181959Y-66530447D01*
X57496253Y-66660632D01*
X57829905Y-66727000D01*
X58170095Y-66727000D01*
X58503747Y-66660632D01*
X58818041Y-66530447D01*
X59100898Y-66341448D01*
X59341448Y-66100898D01*
X59530447Y-65818041D01*
X59660632Y-65503747D01*
X59727000Y-65170095D01*
X59727000Y-64829905D01*
X59660632Y-64496253D01*
X59530447Y-64181959D01*
X59341448Y-63899102D01*
X59100898Y-63658552D01*
X58818041Y-63469553D01*
X58503747Y-63339368D01*
X58170095Y-63273000D01*
X57829905Y-63273000D01*
X57496253Y-63339368D01*
X57181959Y-63469553D01*
X56899102Y-63658552D01*
X56658552Y-63899102D01*
X56469553Y-64181959D01*
X56339368Y-64496253D01*
X56273000Y-64829905D01*
X55277000Y-64829905D01*
X55277000Y-60003997D01*
X55363831Y-60093161D01*
X55548322Y-60220003D01*
X55754013Y-60308415D01*
X55973000Y-60355000D01*
X56473000Y-60355000D01*
X56473000Y-59347000D01*
X56727000Y-59347000D01*
X56727000Y-60355000D01*
X57227000Y-60355000D01*
X57445987Y-60308415D01*
X57651678Y-60220003D01*
X57836169Y-60093161D01*
X57992369Y-59932764D01*
X58114276Y-59744976D01*
X58192710Y-59525810D01*
X59136036Y-59525810D01*
X59219937Y-59758864D01*
X59344953Y-59950441D01*
X59504941Y-60113947D01*
X59693754Y-60243099D01*
X59904135Y-60332934D01*
X60128000Y-60380000D01*
X60653000Y-60380000D01*
X60653000Y-59347000D01*
X60907000Y-59347000D01*
X60907000Y-60380000D01*
X61432000Y-60380000D01*
X61655865Y-60332934D01*
X61866246Y-60243099D01*
X62055059Y-60113947D01*
X62215047Y-59950441D01*
X62340063Y-59758864D01*
X62423964Y-59525810D01*
X62298163Y-59347000D01*
X60907000Y-59347000D01*
X60653000Y-59347000D01*
X59261837Y-59347000D01*
X59136036Y-59525810D01*
X58192710Y-59525810D01*
X58194119Y-59521874D01*
X58067954Y-59347000D01*
X56727000Y-59347000D01*
X56473000Y-59347000D01*
X56453000Y-59347000D01*
X56453000Y-59093000D01*
X56473000Y-59093000D01*
X56473000Y-58085000D01*
X56727000Y-58085000D01*
X56727000Y-59093000D01*
X58067954Y-59093000D01*
X58194119Y-58918126D01*
X58192711Y-58914190D01*
X59136036Y-58914190D01*
X59261837Y-59093000D01*
X60653000Y-59093000D01*
X60653000Y-58197646D01*
X60708766Y-58141880D01*
X60763476Y-58060000D01*
X60907000Y-58060000D01*
X60907000Y-59093000D01*
X62298163Y-59093000D01*
X62423964Y-58914190D01*
X62340063Y-58681136D01*
X62215047Y-58489559D01*
X62055059Y-58326053D01*
X61941089Y-58248095D01*
X65873000Y-58248095D01*
X65873000Y-58351905D01*
X65893252Y-58453720D01*
X65932979Y-58549628D01*
X65990652Y-58635943D01*
X66064057Y-58709348D01*
X66150372Y-58767021D01*
X66246280Y-58806748D01*
X66348095Y-58827000D01*
X66451905Y-58827000D01*
X66553720Y-58806748D01*
X66649628Y-58767021D01*
X66735943Y-58709348D01*
X66809348Y-58635943D01*
X66867021Y-58549628D01*
X66906748Y-58453720D01*
X66927000Y-58351905D01*
X66927000Y-58320300D01*
X67391818Y-57855482D01*
X81748000Y-57855482D01*
X81748000Y-57944518D01*
X81765370Y-58031844D01*
X81799443Y-58114102D01*
X81848909Y-58188133D01*
X81911867Y-58251091D01*
X81985898Y-58300557D01*
X82068156Y-58334630D01*
X82153879Y-58351681D01*
X82738870Y-58936673D01*
X82749894Y-58950106D01*
X82803493Y-58994093D01*
X82864644Y-59026779D01*
X82930996Y-59046907D01*
X82982708Y-59052000D01*
X82982711Y-59052000D01*
X83000000Y-59053703D01*
X83017289Y-59052000D01*
X85942094Y-59052000D01*
X85930996Y-59053093D01*
X85880086Y-59068536D01*
X85864643Y-59073221D01*
X85827640Y-59093000D01*
X85803493Y-59105907D01*
X85749894Y-59149894D01*
X85738870Y-59163327D01*
X85088330Y-59813868D01*
X85088325Y-59813872D01*
X85053878Y-59848319D01*
X84968156Y-59865370D01*
X84885898Y-59899443D01*
X84811867Y-59948909D01*
X84748909Y-60011867D01*
X84699443Y-60085898D01*
X84665370Y-60168156D01*
X84648000Y-60255482D01*
X84648000Y-60344518D01*
X84665370Y-60431844D01*
X84699443Y-60514102D01*
X84748909Y-60588133D01*
X84811867Y-60651091D01*
X84885898Y-60700557D01*
X84968156Y-60734630D01*
X85055482Y-60752000D01*
X85144518Y-60752000D01*
X85231844Y-60734630D01*
X85314102Y-60700557D01*
X85388133Y-60651091D01*
X85451091Y-60588133D01*
X85500557Y-60514102D01*
X85534630Y-60431844D01*
X85551681Y-60346122D01*
X85586128Y-60311675D01*
X85586132Y-60311670D01*
X86145803Y-59752000D01*
X94954198Y-59752000D01*
X96248001Y-61045804D01*
X96248001Y-61113227D01*
X96199443Y-61185898D01*
X96165370Y-61268156D01*
X96148000Y-61355482D01*
X96148000Y-61444518D01*
X96165370Y-61531844D01*
X96199443Y-61614102D01*
X96248909Y-61688133D01*
X96311867Y-61751091D01*
X96385898Y-61800557D01*
X96468156Y-61834630D01*
X96555482Y-61852000D01*
X96644518Y-61852000D01*
X96731844Y-61834630D01*
X96814102Y-61800557D01*
X96888133Y-61751091D01*
X96951091Y-61688133D01*
X97000557Y-61614102D01*
X97034630Y-61531844D01*
X97052000Y-61444518D01*
X97052000Y-61355482D01*
X97034630Y-61268156D01*
X97000557Y-61185898D01*
X96952000Y-61113227D01*
X96952000Y-60917288D01*
X96953703Y-60899999D01*
X96952000Y-60882708D01*
X96946907Y-60830996D01*
X96926779Y-60764644D01*
X96909247Y-60731844D01*
X96894093Y-60703492D01*
X96861128Y-60663325D01*
X96850106Y-60649894D01*
X96836673Y-60638870D01*
X95361135Y-59163333D01*
X95350106Y-59149894D01*
X95296507Y-59105907D01*
X95235356Y-59073221D01*
X95169004Y-59053093D01*
X95157906Y-59052000D01*
X97354198Y-59052000D01*
X98948319Y-60646123D01*
X98965370Y-60731844D01*
X98999443Y-60814102D01*
X99048909Y-60888133D01*
X99111867Y-60951091D01*
X99185898Y-61000557D01*
X99268156Y-61034630D01*
X99355482Y-61052000D01*
X99444518Y-61052000D01*
X99531844Y-61034630D01*
X99614102Y-61000557D01*
X99688133Y-60951091D01*
X99751091Y-60888133D01*
X99800557Y-60814102D01*
X99834630Y-60731844D01*
X99852000Y-60644518D01*
X99852000Y-60555482D01*
X99834630Y-60468156D01*
X99800557Y-60385898D01*
X99751091Y-60311867D01*
X99688133Y-60248909D01*
X99614102Y-60199443D01*
X99531844Y-60165370D01*
X99446123Y-60148319D01*
X97769252Y-58471450D01*
X98937762Y-58471450D01*
X98948909Y-58488133D01*
X99011867Y-58551091D01*
X99085898Y-58600557D01*
X99168156Y-58634630D01*
X99255482Y-58652000D01*
X99344518Y-58652000D01*
X99431844Y-58634630D01*
X99514102Y-58600557D01*
X99588133Y-58551091D01*
X99651091Y-58488133D01*
X99700557Y-58414102D01*
X99734630Y-58331844D01*
X99752000Y-58244518D01*
X99752000Y-58155482D01*
X99734630Y-58068156D01*
X99700557Y-57985898D01*
X99651091Y-57911867D01*
X99588133Y-57848909D01*
X99514102Y-57799443D01*
X99431844Y-57765370D01*
X99344518Y-57748000D01*
X99255482Y-57748000D01*
X99168156Y-57765370D01*
X99085898Y-57799443D01*
X99011867Y-57848909D01*
X98948909Y-57911867D01*
X98937762Y-57928550D01*
X96114288Y-57928550D01*
X96167021Y-57849628D01*
X96206748Y-57753720D01*
X96227000Y-57651905D01*
X96227000Y-57548095D01*
X96206748Y-57446280D01*
X96167021Y-57350372D01*
X96109348Y-57264057D01*
X96035943Y-57190652D01*
X95949628Y-57132979D01*
X95853720Y-57093252D01*
X95751905Y-57073000D01*
X95720301Y-57073000D01*
X93087093Y-54439793D01*
X93074974Y-54425026D01*
X93016046Y-54376665D01*
X92948815Y-54340729D01*
X92875865Y-54318600D01*
X92819007Y-54313000D01*
X92818996Y-54313000D01*
X92800000Y-54311129D01*
X92781004Y-54313000D01*
X91334391Y-54313000D01*
X91314102Y-54299443D01*
X91231844Y-54265370D01*
X91144518Y-54248000D01*
X91055482Y-54248000D01*
X90968156Y-54265370D01*
X90885898Y-54299443D01*
X90811867Y-54348909D01*
X90748909Y-54411867D01*
X90699443Y-54485898D01*
X90665370Y-54568156D01*
X90648000Y-54655482D01*
X90648000Y-54744518D01*
X90665370Y-54831844D01*
X90699443Y-54914102D01*
X90748909Y-54988133D01*
X90811867Y-55051091D01*
X90885898Y-55100557D01*
X90968156Y-55134630D01*
X91055482Y-55152000D01*
X91144518Y-55152000D01*
X91231844Y-55134630D01*
X91314102Y-55100557D01*
X91334391Y-55087000D01*
X92639700Y-55087000D01*
X95173000Y-57620301D01*
X95173000Y-57651905D01*
X95193252Y-57753720D01*
X95232979Y-57849628D01*
X95285712Y-57928550D01*
X87312438Y-57928550D01*
X85948085Y-56564198D01*
X85952000Y-56544518D01*
X85952000Y-56455482D01*
X85934630Y-56368156D01*
X85900557Y-56285898D01*
X85851091Y-56211867D01*
X85788133Y-56148909D01*
X85714102Y-56099443D01*
X85631844Y-56065370D01*
X85544518Y-56048000D01*
X85455482Y-56048000D01*
X85368156Y-56065370D01*
X85285898Y-56099443D01*
X85211867Y-56148909D01*
X85148909Y-56211867D01*
X85099443Y-56285898D01*
X85065370Y-56368156D01*
X85048000Y-56455482D01*
X85048000Y-56544518D01*
X85065370Y-56631844D01*
X85099443Y-56714102D01*
X85148909Y-56788133D01*
X85211867Y-56851091D01*
X85285898Y-56900557D01*
X85368156Y-56934630D01*
X85455482Y-56952000D01*
X85544518Y-56952000D01*
X85564198Y-56948085D01*
X86964112Y-58348000D01*
X83145803Y-58348000D01*
X82651681Y-57853879D01*
X82634630Y-57768156D01*
X82600557Y-57685898D01*
X82551091Y-57611867D01*
X82488133Y-57548909D01*
X82414102Y-57499443D01*
X82331844Y-57465370D01*
X82244518Y-57448000D01*
X82155482Y-57448000D01*
X82068156Y-57465370D01*
X81985898Y-57499443D01*
X81911867Y-57548909D01*
X81848909Y-57611867D01*
X81799443Y-57685898D01*
X81765370Y-57768156D01*
X81748000Y-57855482D01*
X67391818Y-57855482D01*
X71360301Y-53887000D01*
X84280993Y-53887000D01*
X84300000Y-53888872D01*
X84319007Y-53887000D01*
X98141709Y-53887000D01*
X98164057Y-53909348D01*
X98250372Y-53967021D01*
X98346280Y-54006748D01*
X98448095Y-54027000D01*
X98551905Y-54027000D01*
X98653720Y-54006748D01*
X98749628Y-53967021D01*
X98835943Y-53909348D01*
X98909348Y-53835943D01*
X98967021Y-53749628D01*
X99006748Y-53653720D01*
X99027000Y-53551905D01*
X99027000Y-53448095D01*
X99006748Y-53346280D01*
X98967021Y-53250372D01*
X98909348Y-53164057D01*
X98835943Y-53090652D01*
X98749628Y-53032979D01*
X98653720Y-52993252D01*
X98551905Y-52973000D01*
X98448095Y-52973000D01*
X98346280Y-52993252D01*
X98250372Y-53032979D01*
X98164057Y-53090652D01*
X98141709Y-53113000D01*
X90184062Y-53113000D01*
X90214102Y-53100557D01*
X90288133Y-53051091D01*
X90351091Y-52988133D01*
X90362238Y-52971450D01*
X106886671Y-52971450D01*
X106900000Y-52972763D01*
X106913329Y-52971450D01*
X106913331Y-52971450D01*
X106953213Y-52967522D01*
X107004382Y-52952000D01*
X107051539Y-52926794D01*
X107092873Y-52892873D01*
X107101380Y-52882508D01*
X108335802Y-51648086D01*
X108355482Y-51652000D01*
X108444518Y-51652000D01*
X108531844Y-51634630D01*
X108614102Y-51600557D01*
X108688133Y-51551091D01*
X108751091Y-51488133D01*
X108800557Y-51414102D01*
X108834630Y-51331844D01*
X108852000Y-51244518D01*
X108852000Y-51155482D01*
X108834630Y-51068156D01*
X108800557Y-50985898D01*
X108751091Y-50911867D01*
X108688133Y-50848909D01*
X108614102Y-50799443D01*
X108531844Y-50765370D01*
X108444518Y-50748000D01*
X108355482Y-50748000D01*
X108268156Y-50765370D01*
X108185898Y-50799443D01*
X108111867Y-50848909D01*
X108048909Y-50911867D01*
X107999443Y-50985898D01*
X107965370Y-51068156D01*
X107948000Y-51155482D01*
X107948000Y-51244518D01*
X107951914Y-51264198D01*
X106787563Y-52428550D01*
X90362238Y-52428550D01*
X90351091Y-52411867D01*
X90288133Y-52348909D01*
X90214102Y-52299443D01*
X90131844Y-52265370D01*
X90044518Y-52248000D01*
X89955482Y-52248000D01*
X89868156Y-52265370D01*
X89785898Y-52299443D01*
X89711867Y-52348909D01*
X89648909Y-52411867D01*
X89599443Y-52485898D01*
X89565370Y-52568156D01*
X89548000Y-52655482D01*
X89548000Y-52744518D01*
X89565370Y-52831844D01*
X89599443Y-52914102D01*
X89648909Y-52988133D01*
X89711867Y-53051091D01*
X89785898Y-53100557D01*
X89815938Y-53113000D01*
X84687000Y-53113000D01*
X84687000Y-51055482D01*
X85748000Y-51055482D01*
X85748000Y-51144518D01*
X85765370Y-51231844D01*
X85799443Y-51314102D01*
X85848909Y-51388133D01*
X85911867Y-51451091D01*
X85985898Y-51500557D01*
X86068156Y-51534630D01*
X86155482Y-51552000D01*
X86244518Y-51552000D01*
X86331844Y-51534630D01*
X86414102Y-51500557D01*
X86488133Y-51451091D01*
X86551091Y-51388133D01*
X86600557Y-51314102D01*
X86634630Y-51231844D01*
X86652000Y-51144518D01*
X86652000Y-51055482D01*
X86648086Y-51035802D01*
X87012439Y-50671450D01*
X92737762Y-50671450D01*
X92748909Y-50688133D01*
X92811867Y-50751091D01*
X92885898Y-50800557D01*
X92968156Y-50834630D01*
X93055482Y-50852000D01*
X93144518Y-50852000D01*
X93231844Y-50834630D01*
X93314102Y-50800557D01*
X93388133Y-50751091D01*
X93451091Y-50688133D01*
X93500557Y-50614102D01*
X93534630Y-50531844D01*
X93552000Y-50444518D01*
X93552000Y-50355482D01*
X93534630Y-50268156D01*
X93500557Y-50185898D01*
X93451091Y-50111867D01*
X93388133Y-50048909D01*
X93314102Y-49999443D01*
X93231844Y-49965370D01*
X93144518Y-49948000D01*
X93055482Y-49948000D01*
X92968156Y-49965370D01*
X92885898Y-49999443D01*
X92811867Y-50048909D01*
X92748909Y-50111867D01*
X92737762Y-50128550D01*
X86913328Y-50128550D01*
X86899999Y-50127237D01*
X86886670Y-50128550D01*
X86886669Y-50128550D01*
X86846787Y-50132478D01*
X86795618Y-50148000D01*
X86748461Y-50173206D01*
X86707127Y-50207127D01*
X86698629Y-50217482D01*
X86264198Y-50651914D01*
X86244518Y-50648000D01*
X86155482Y-50648000D01*
X86068156Y-50665370D01*
X85985898Y-50699443D01*
X85911867Y-50748909D01*
X85848909Y-50811867D01*
X85799443Y-50885898D01*
X85765370Y-50968156D01*
X85748000Y-51055482D01*
X84687000Y-51055482D01*
X84687000Y-48255482D01*
X97048000Y-48255482D01*
X97048000Y-48344518D01*
X97065370Y-48431844D01*
X97099443Y-48514102D01*
X97148909Y-48588133D01*
X97211867Y-48651091D01*
X97285898Y-48700557D01*
X97368156Y-48734630D01*
X97455482Y-48752000D01*
X97544518Y-48752000D01*
X97631844Y-48734630D01*
X97714102Y-48700557D01*
X97788133Y-48651091D01*
X97851091Y-48588133D01*
X97862238Y-48571450D01*
X107786671Y-48571450D01*
X107800000Y-48572763D01*
X107813329Y-48571450D01*
X107813331Y-48571450D01*
X107853213Y-48567522D01*
X107904382Y-48552000D01*
X107951539Y-48526794D01*
X107992873Y-48492873D01*
X108001380Y-48482507D01*
X109023837Y-47460050D01*
X111994555Y-47460050D01*
X112090258Y-47724399D01*
X112379787Y-47865238D01*
X112691229Y-47946885D01*
X113012615Y-47966205D01*
X113331595Y-47922454D01*
X113635911Y-47817314D01*
X113809742Y-47724399D01*
X113905445Y-47460050D01*
X112950000Y-46504605D01*
X111994555Y-47460050D01*
X109023837Y-47460050D01*
X110096272Y-46387615D01*
X111308795Y-46387615D01*
X111352546Y-46706595D01*
X111457686Y-47010911D01*
X111550601Y-47184742D01*
X111814950Y-47280445D01*
X112770395Y-46325000D01*
X113129605Y-46325000D01*
X114085050Y-47280445D01*
X114349399Y-47184742D01*
X114490238Y-46895213D01*
X114571885Y-46583771D01*
X114591205Y-46262385D01*
X114547454Y-45943405D01*
X114442314Y-45639089D01*
X114349399Y-45465258D01*
X114085050Y-45369555D01*
X113129605Y-46325000D01*
X112770395Y-46325000D01*
X111814950Y-45369555D01*
X111550601Y-45465258D01*
X111409762Y-45754787D01*
X111328115Y-46066229D01*
X111308795Y-46387615D01*
X110096272Y-46387615D01*
X111293937Y-45189950D01*
X111994555Y-45189950D01*
X112950000Y-46145395D01*
X113905445Y-45189950D01*
X113809742Y-44925601D01*
X113520213Y-44784762D01*
X113208771Y-44703115D01*
X112887385Y-44683795D01*
X112568405Y-44727546D01*
X112264089Y-44832686D01*
X112090258Y-44925601D01*
X111994555Y-45189950D01*
X111293937Y-45189950D01*
X112295874Y-44188014D01*
X112369039Y-44236901D01*
X112592246Y-44329356D01*
X112829201Y-44376490D01*
X113070799Y-44376490D01*
X113307754Y-44329356D01*
X113530961Y-44236901D01*
X113731842Y-44102677D01*
X113902677Y-43931842D01*
X114036901Y-43730961D01*
X114129356Y-43507754D01*
X114176490Y-43270799D01*
X114176490Y-43029201D01*
X114129356Y-42792246D01*
X114036901Y-42569039D01*
X113902677Y-42368158D01*
X113731842Y-42197323D01*
X113530961Y-42063099D01*
X113307754Y-41970644D01*
X113070799Y-41923510D01*
X112829201Y-41923510D01*
X112592246Y-41970644D01*
X112369039Y-42063099D01*
X112168158Y-42197323D01*
X111997323Y-42368158D01*
X111863099Y-42569039D01*
X111770644Y-42792246D01*
X111723510Y-43029201D01*
X111723510Y-43270799D01*
X111770644Y-43507754D01*
X111863099Y-43730961D01*
X111911986Y-43804126D01*
X107687563Y-48028550D01*
X97862238Y-48028550D01*
X97851091Y-48011867D01*
X97788133Y-47948909D01*
X97714102Y-47899443D01*
X97631844Y-47865370D01*
X97544518Y-47848000D01*
X97455482Y-47848000D01*
X97368156Y-47865370D01*
X97285898Y-47899443D01*
X97211867Y-47948909D01*
X97148909Y-48011867D01*
X97099443Y-48085898D01*
X97065370Y-48168156D01*
X97048000Y-48255482D01*
X84687000Y-48255482D01*
X84687000Y-46434062D01*
X84699443Y-46464102D01*
X84748909Y-46538133D01*
X84811867Y-46601091D01*
X84885898Y-46650557D01*
X84968156Y-46684630D01*
X85055482Y-46702000D01*
X85144518Y-46702000D01*
X85164198Y-46698085D01*
X85648625Y-47182513D01*
X85657127Y-47192873D01*
X85698461Y-47226794D01*
X85745618Y-47252000D01*
X85796787Y-47267522D01*
X85836669Y-47271450D01*
X85836670Y-47271450D01*
X85849999Y-47272763D01*
X85863328Y-47271450D01*
X91137762Y-47271450D01*
X91148909Y-47288133D01*
X91211867Y-47351091D01*
X91285898Y-47400557D01*
X91368156Y-47434630D01*
X91455482Y-47452000D01*
X91544518Y-47452000D01*
X91631844Y-47434630D01*
X91714102Y-47400557D01*
X91788133Y-47351091D01*
X91851091Y-47288133D01*
X91900557Y-47214102D01*
X91934630Y-47131844D01*
X91952000Y-47044518D01*
X91952000Y-46955482D01*
X91934630Y-46868156D01*
X91900557Y-46785898D01*
X91851091Y-46711867D01*
X91788133Y-46648909D01*
X91714102Y-46599443D01*
X91631844Y-46565370D01*
X91544518Y-46548000D01*
X91455482Y-46548000D01*
X91368156Y-46565370D01*
X91285898Y-46599443D01*
X91211867Y-46648909D01*
X91148909Y-46711867D01*
X91137762Y-46728550D01*
X85962438Y-46728550D01*
X85548085Y-46314198D01*
X85552000Y-46294518D01*
X85552000Y-46205482D01*
X85534630Y-46118156D01*
X85500557Y-46035898D01*
X85451091Y-45961867D01*
X85388133Y-45898909D01*
X85314102Y-45849443D01*
X85231844Y-45815370D01*
X85144518Y-45798000D01*
X85055482Y-45798000D01*
X84968156Y-45815370D01*
X84885898Y-45849443D01*
X84811867Y-45898909D01*
X84748909Y-45961867D01*
X84699443Y-46035898D01*
X84687000Y-46065938D01*
X84687000Y-45960300D01*
X85660301Y-44987000D01*
X94113000Y-44987000D01*
X94113000Y-45043271D01*
X94118601Y-45100129D01*
X94140730Y-45173079D01*
X94176666Y-45240310D01*
X94225027Y-45299238D01*
X94283955Y-45347599D01*
X94351186Y-45383535D01*
X94424136Y-45405664D01*
X94500000Y-45413136D01*
X94575865Y-45405664D01*
X94648815Y-45383535D01*
X94716046Y-45347599D01*
X94774974Y-45299238D01*
X94823335Y-45240310D01*
X94859271Y-45173079D01*
X94881400Y-45100129D01*
X94887000Y-45043271D01*
X94887000Y-44958291D01*
X94909348Y-44935943D01*
X94967021Y-44849628D01*
X95006748Y-44753720D01*
X95027000Y-44651905D01*
X95027000Y-44548095D01*
X95006748Y-44446280D01*
X94967021Y-44350372D01*
X94909348Y-44264057D01*
X94835943Y-44190652D01*
X94749628Y-44132979D01*
X94653720Y-44093252D01*
X94551905Y-44073000D01*
X94448095Y-44073000D01*
X94346280Y-44093252D01*
X94250372Y-44132979D01*
X94164057Y-44190652D01*
X94141709Y-44213000D01*
X85518996Y-44213000D01*
X85499999Y-44211129D01*
X85481003Y-44213000D01*
X85480993Y-44213000D01*
X85424135Y-44218600D01*
X85351185Y-44240729D01*
X85283954Y-44276665D01*
X85283952Y-44276666D01*
X85283953Y-44276666D01*
X85246835Y-44307128D01*
X85225026Y-44325026D01*
X85212912Y-44339787D01*
X84039793Y-45512907D01*
X84025026Y-45525026D01*
X83976665Y-45583955D01*
X83940729Y-45651186D01*
X83918600Y-45724136D01*
X83913000Y-45780994D01*
X83913000Y-45781004D01*
X83911129Y-45800000D01*
X83913000Y-45818997D01*
X83913001Y-53113000D01*
X71218996Y-53113000D01*
X71199999Y-53111129D01*
X71181003Y-53113000D01*
X71180993Y-53113000D01*
X71124135Y-53118600D01*
X71051185Y-53140729D01*
X71007542Y-53164057D01*
X70983954Y-53176665D01*
X70950181Y-53204382D01*
X70925026Y-53225026D01*
X70912912Y-53239787D01*
X66379700Y-57773000D01*
X66348095Y-57773000D01*
X66246280Y-57793252D01*
X66150372Y-57832979D01*
X66064057Y-57890652D01*
X65990652Y-57964057D01*
X65932979Y-58050372D01*
X65893252Y-58146280D01*
X65873000Y-58248095D01*
X61941089Y-58248095D01*
X61866246Y-58196901D01*
X61655865Y-58107066D01*
X61432000Y-58060000D01*
X60907000Y-58060000D01*
X60763476Y-58060000D01*
X60769176Y-58051470D01*
X60810787Y-57951012D01*
X60832000Y-57844367D01*
X60832000Y-57735633D01*
X60810787Y-57628988D01*
X60769176Y-57528530D01*
X60708766Y-57438120D01*
X60631880Y-57361234D01*
X60541470Y-57300824D01*
X60441012Y-57259213D01*
X60334367Y-57238000D01*
X60225633Y-57238000D01*
X60118988Y-57259213D01*
X60018530Y-57300824D01*
X59928120Y-57361234D01*
X59851234Y-57438120D01*
X59790824Y-57528530D01*
X59749213Y-57628988D01*
X59728000Y-57735633D01*
X59728000Y-57844367D01*
X59749213Y-57951012D01*
X59790824Y-58051470D01*
X59844879Y-58132369D01*
X59693754Y-58196901D01*
X59504941Y-58326053D01*
X59344953Y-58489559D01*
X59219937Y-58681136D01*
X59136036Y-58914190D01*
X58192711Y-58914190D01*
X58114276Y-58695024D01*
X57992369Y-58507236D01*
X57836169Y-58346839D01*
X57651678Y-58219997D01*
X57445987Y-58131585D01*
X57227000Y-58085000D01*
X56727000Y-58085000D01*
X56473000Y-58085000D01*
X55973000Y-58085000D01*
X55754013Y-58131585D01*
X55548322Y-58219997D01*
X55363831Y-58346839D01*
X55277000Y-58436003D01*
X55277000Y-51363997D01*
X55363831Y-51453161D01*
X55548322Y-51580003D01*
X55754013Y-51668415D01*
X55973000Y-51715000D01*
X56473000Y-51715000D01*
X56473000Y-50707000D01*
X56453000Y-50707000D01*
X56453000Y-50453000D01*
X56473000Y-50453000D01*
X56473000Y-49445000D01*
X55973000Y-49445000D01*
X55754013Y-49491585D01*
X55548322Y-49579997D01*
X55363831Y-49706839D01*
X55277000Y-49796003D01*
X55277000Y-42755482D01*
X56548000Y-42755482D01*
X56548000Y-42844518D01*
X56565370Y-42931844D01*
X56599443Y-43014102D01*
X56648909Y-43088133D01*
X56711867Y-43151091D01*
X56728550Y-43162239D01*
X56728551Y-43586662D01*
X56727237Y-43600000D01*
X56732479Y-43653213D01*
X56748000Y-43704381D01*
X56771315Y-43748000D01*
X56773207Y-43751539D01*
X56807128Y-43792873D01*
X56817488Y-43801375D01*
X57228550Y-44212438D01*
X57228551Y-49086661D01*
X57227237Y-49100000D01*
X57232479Y-49153213D01*
X57248000Y-49204381D01*
X57271315Y-49248000D01*
X57273207Y-49251539D01*
X57307128Y-49292873D01*
X57317488Y-49301375D01*
X57554219Y-49538106D01*
X57445987Y-49491585D01*
X57227000Y-49445000D01*
X56727000Y-49445000D01*
X56727000Y-50453000D01*
X56747000Y-50453000D01*
X56747000Y-50707000D01*
X56727000Y-50707000D01*
X56727000Y-51715000D01*
X57227000Y-51715000D01*
X57445987Y-51668415D01*
X57651678Y-51580003D01*
X57836169Y-51453161D01*
X57992369Y-51292764D01*
X58114276Y-51104976D01*
X58128551Y-51065088D01*
X58128550Y-55437762D01*
X58111867Y-55448909D01*
X58048909Y-55511867D01*
X57999443Y-55585898D01*
X57965370Y-55668156D01*
X57948000Y-55755482D01*
X57948000Y-55844518D01*
X57965370Y-55931844D01*
X57999443Y-56014102D01*
X58048909Y-56088133D01*
X58111867Y-56151091D01*
X58185898Y-56200557D01*
X58268156Y-56234630D01*
X58355482Y-56252000D01*
X58444518Y-56252000D01*
X58531844Y-56234630D01*
X58614102Y-56200557D01*
X58688133Y-56151091D01*
X58751091Y-56088133D01*
X58800557Y-56014102D01*
X58834630Y-55931844D01*
X58852000Y-55844518D01*
X58852000Y-55755482D01*
X58834630Y-55668156D01*
X58800557Y-55585898D01*
X58751091Y-55511867D01*
X58688133Y-55448909D01*
X58671450Y-55437762D01*
X58671450Y-50013328D01*
X58672763Y-49999999D01*
X58669352Y-49965370D01*
X58667522Y-49946787D01*
X58652000Y-49895618D01*
X58626794Y-49848461D01*
X58592873Y-49807127D01*
X58582513Y-49798625D01*
X57771450Y-48987563D01*
X57771450Y-48555337D01*
X58828550Y-49612438D01*
X58828551Y-53086661D01*
X58827237Y-53100000D01*
X58832479Y-53153213D01*
X58848000Y-53204381D01*
X58852559Y-53212910D01*
X58873207Y-53251539D01*
X58907128Y-53292873D01*
X58917488Y-53301375D01*
X59051915Y-53435802D01*
X59048000Y-53455482D01*
X59048000Y-53544518D01*
X59065370Y-53631844D01*
X59099443Y-53714102D01*
X59148909Y-53788133D01*
X59211867Y-53851091D01*
X59285898Y-53900557D01*
X59368156Y-53934630D01*
X59455482Y-53952000D01*
X59544518Y-53952000D01*
X59631844Y-53934630D01*
X59714102Y-53900557D01*
X59788133Y-53851091D01*
X59851091Y-53788133D01*
X59900557Y-53714102D01*
X59934630Y-53631844D01*
X59952000Y-53544518D01*
X59952000Y-53455482D01*
X59934630Y-53368156D01*
X59900557Y-53285898D01*
X59851091Y-53211867D01*
X59788133Y-53148909D01*
X59714102Y-53099443D01*
X59631844Y-53065370D01*
X59544518Y-53048000D01*
X59455482Y-53048000D01*
X59435802Y-53051915D01*
X59371450Y-52987563D01*
X59371450Y-51337521D01*
X59504941Y-51473947D01*
X59693754Y-51603099D01*
X59844879Y-51667631D01*
X59790824Y-51748530D01*
X59749213Y-51848988D01*
X59728000Y-51955633D01*
X59728000Y-52064367D01*
X59749213Y-52171012D01*
X59790824Y-52271470D01*
X59851234Y-52361880D01*
X59928120Y-52438766D01*
X60018530Y-52499176D01*
X60118988Y-52540787D01*
X60225633Y-52562000D01*
X60334367Y-52562000D01*
X60441012Y-52540787D01*
X60541470Y-52499176D01*
X60631880Y-52438766D01*
X60708766Y-52361880D01*
X60769176Y-52271470D01*
X60810787Y-52171012D01*
X60832000Y-52064367D01*
X60832000Y-51955633D01*
X60810787Y-51848988D01*
X60769176Y-51748530D01*
X60708766Y-51658120D01*
X60653000Y-51602354D01*
X60653000Y-50707000D01*
X60907000Y-50707000D01*
X60907000Y-51740000D01*
X61432000Y-51740000D01*
X61655865Y-51692934D01*
X61866246Y-51603099D01*
X62055059Y-51473947D01*
X62215047Y-51310441D01*
X62340063Y-51118864D01*
X62423964Y-50885810D01*
X62298163Y-50707000D01*
X60907000Y-50707000D01*
X60653000Y-50707000D01*
X60633000Y-50707000D01*
X60633000Y-50453000D01*
X60653000Y-50453000D01*
X60653000Y-49420000D01*
X60907000Y-49420000D01*
X60907000Y-50453000D01*
X62298163Y-50453000D01*
X62423964Y-50274190D01*
X62340063Y-50041136D01*
X62215047Y-49849559D01*
X62055059Y-49686053D01*
X61866246Y-49556901D01*
X61655865Y-49467066D01*
X61432000Y-49420000D01*
X60907000Y-49420000D01*
X60653000Y-49420000D01*
X60128000Y-49420000D01*
X59904135Y-49467066D01*
X59693754Y-49556901D01*
X59504941Y-49686053D01*
X59371450Y-49822479D01*
X59371450Y-49513331D01*
X59372763Y-49500000D01*
X59367522Y-49446786D01*
X59352000Y-49395618D01*
X59326794Y-49348460D01*
X59314627Y-49333634D01*
X59292873Y-49307127D01*
X59282513Y-49298625D01*
X58046451Y-48062564D01*
X58046451Y-46355482D01*
X58548000Y-46355482D01*
X58548000Y-46444518D01*
X58565370Y-46531844D01*
X58599443Y-46614102D01*
X58648909Y-46688133D01*
X58711867Y-46751091D01*
X58785898Y-46800557D01*
X58868156Y-46834630D01*
X58955482Y-46852000D01*
X59044518Y-46852000D01*
X59131844Y-46834630D01*
X59186479Y-46811999D01*
X61864699Y-46811999D01*
X62613001Y-47560302D01*
X62613000Y-49565608D01*
X62599443Y-49585898D01*
X62565370Y-49668156D01*
X62548000Y-49755482D01*
X62548000Y-49844518D01*
X62565370Y-49931844D01*
X62599443Y-50014102D01*
X62648909Y-50088133D01*
X62711867Y-50151091D01*
X62785898Y-50200557D01*
X62868156Y-50234630D01*
X62955482Y-50252000D01*
X63044518Y-50252000D01*
X63131844Y-50234630D01*
X63214102Y-50200557D01*
X63288133Y-50151091D01*
X63351091Y-50088133D01*
X63400557Y-50014102D01*
X63434630Y-49931844D01*
X63452000Y-49844518D01*
X63452000Y-49755482D01*
X63434630Y-49668156D01*
X63400557Y-49585898D01*
X63387000Y-49565609D01*
X63387000Y-47419007D01*
X63388872Y-47400000D01*
X63381400Y-47324135D01*
X63359271Y-47251185D01*
X63323335Y-47183954D01*
X63287090Y-47139789D01*
X63287088Y-47139787D01*
X63274974Y-47125026D01*
X63260213Y-47112912D01*
X62312092Y-46164792D01*
X62299973Y-46150025D01*
X62241045Y-46101664D01*
X62173814Y-46065728D01*
X62100864Y-46043599D01*
X62044006Y-46037999D01*
X62043995Y-46037999D01*
X62024999Y-46036128D01*
X62006003Y-46037999D01*
X59271805Y-46037999D01*
X59214102Y-45999443D01*
X59131844Y-45965370D01*
X59044518Y-45948000D01*
X58955482Y-45948000D01*
X58868156Y-45965370D01*
X58785898Y-45999443D01*
X58711867Y-46048909D01*
X58648909Y-46111867D01*
X58599443Y-46185898D01*
X58565370Y-46268156D01*
X58548000Y-46355482D01*
X58046451Y-46355482D01*
X58046451Y-44951616D01*
X58131844Y-44934630D01*
X58214102Y-44900557D01*
X58288133Y-44851091D01*
X58351091Y-44788133D01*
X58400557Y-44714102D01*
X58434630Y-44631844D01*
X58452000Y-44544518D01*
X58452000Y-44455482D01*
X58434630Y-44368156D01*
X58400557Y-44285898D01*
X58351091Y-44211867D01*
X58288133Y-44148909D01*
X58214102Y-44099443D01*
X58131844Y-44065370D01*
X58044518Y-44048000D01*
X57955482Y-44048000D01*
X57868156Y-44065370D01*
X57785898Y-44099443D01*
X57771896Y-44108799D01*
X57772763Y-44100000D01*
X57771041Y-44082517D01*
X57767522Y-44046787D01*
X57752000Y-43995618D01*
X57747217Y-43986669D01*
X57726794Y-43948460D01*
X57713678Y-43932479D01*
X57692873Y-43907127D01*
X57682513Y-43898625D01*
X57271450Y-43487563D01*
X57271450Y-43162238D01*
X57288133Y-43151091D01*
X57351091Y-43088133D01*
X57400557Y-43014102D01*
X57434630Y-42931844D01*
X57452000Y-42844518D01*
X57452000Y-42755482D01*
X57434630Y-42668156D01*
X57400557Y-42585898D01*
X57351091Y-42511867D01*
X57288133Y-42448909D01*
X57214102Y-42399443D01*
X57131844Y-42365370D01*
X57044518Y-42348000D01*
X56955482Y-42348000D01*
X56868156Y-42365370D01*
X56785898Y-42399443D01*
X56711867Y-42448909D01*
X56648909Y-42511867D01*
X56599443Y-42585898D01*
X56565370Y-42668156D01*
X56548000Y-42755482D01*
X55277000Y-42755482D01*
X55277000Y-40155482D01*
X61148000Y-40155482D01*
X61148000Y-40244518D01*
X61165370Y-40331844D01*
X61199443Y-40414102D01*
X61248909Y-40488133D01*
X61311867Y-40551091D01*
X61328551Y-40562239D01*
X61328550Y-44186671D01*
X61327237Y-44200000D01*
X61328550Y-44213329D01*
X61328550Y-44213330D01*
X61332478Y-44253212D01*
X61348000Y-44304381D01*
X61373206Y-44351539D01*
X61407127Y-44392873D01*
X61417493Y-44401380D01*
X66203552Y-49187440D01*
X66203551Y-52961672D01*
X66202238Y-52975001D01*
X66203551Y-52988330D01*
X66203551Y-52988331D01*
X66207479Y-53028213D01*
X66223001Y-53079382D01*
X66248207Y-53126540D01*
X66252674Y-53131983D01*
X66248000Y-53155482D01*
X66248000Y-53244518D01*
X66265370Y-53331844D01*
X66299443Y-53414102D01*
X66348909Y-53488133D01*
X66411867Y-53551091D01*
X66485898Y-53600557D01*
X66568156Y-53634630D01*
X66655482Y-53652000D01*
X66744518Y-53652000D01*
X66831844Y-53634630D01*
X66914102Y-53600557D01*
X66988133Y-53551091D01*
X67051091Y-53488133D01*
X67100557Y-53414102D01*
X67134630Y-53331844D01*
X67152000Y-53244518D01*
X67152000Y-53155482D01*
X67134630Y-53068156D01*
X67100557Y-52985898D01*
X67051091Y-52911867D01*
X66988133Y-52848909D01*
X66914102Y-52799443D01*
X66831844Y-52765370D01*
X66746451Y-52748384D01*
X66746451Y-52030338D01*
X67628551Y-52912439D01*
X67628550Y-54068473D01*
X67627237Y-54081802D01*
X67628550Y-54095131D01*
X67628550Y-54095132D01*
X67632478Y-54135014D01*
X67648000Y-54186183D01*
X67673206Y-54233341D01*
X67707127Y-54274675D01*
X67717492Y-54283181D01*
X68147815Y-54713505D01*
X68099443Y-54785898D01*
X68065370Y-54868156D01*
X68048000Y-54955482D01*
X68048000Y-55044518D01*
X68065370Y-55131844D01*
X68099443Y-55214102D01*
X68148909Y-55288133D01*
X68211867Y-55351091D01*
X68285898Y-55400557D01*
X68368156Y-55434630D01*
X68455482Y-55452000D01*
X68544518Y-55452000D01*
X68631844Y-55434630D01*
X68714102Y-55400557D01*
X68788133Y-55351091D01*
X68851091Y-55288133D01*
X68900557Y-55214102D01*
X68934630Y-55131844D01*
X68952000Y-55044518D01*
X68952000Y-54955482D01*
X68934630Y-54868156D01*
X68900557Y-54785898D01*
X68851091Y-54711867D01*
X68788133Y-54648909D01*
X68768212Y-54635598D01*
X68767522Y-54628589D01*
X68752000Y-54577420D01*
X68726794Y-54530263D01*
X68692873Y-54488929D01*
X68682513Y-54480427D01*
X68171450Y-53969365D01*
X68171450Y-52813331D01*
X68172763Y-52800000D01*
X68167522Y-52746786D01*
X68152000Y-52695618D01*
X68126794Y-52648460D01*
X68114627Y-52633634D01*
X68092873Y-52607127D01*
X68082513Y-52598625D01*
X67171450Y-51687563D01*
X67171450Y-51348095D01*
X67373000Y-51348095D01*
X67373000Y-51451905D01*
X67393252Y-51553720D01*
X67432979Y-51649628D01*
X67490652Y-51735943D01*
X67564057Y-51809348D01*
X67650372Y-51867021D01*
X67746280Y-51906748D01*
X67848095Y-51927000D01*
X67951905Y-51927000D01*
X68053720Y-51906748D01*
X68149628Y-51867021D01*
X68235943Y-51809348D01*
X68309348Y-51735943D01*
X68367021Y-51649628D01*
X68406748Y-51553720D01*
X68427000Y-51451905D01*
X68427000Y-51420300D01*
X70460301Y-49387000D01*
X74541709Y-49387000D01*
X74564057Y-49409348D01*
X74650372Y-49467021D01*
X74746280Y-49506748D01*
X74848095Y-49527000D01*
X74951905Y-49527000D01*
X75053720Y-49506748D01*
X75149628Y-49467021D01*
X75235943Y-49409348D01*
X75309348Y-49335943D01*
X75367021Y-49249628D01*
X75406748Y-49153720D01*
X75427000Y-49051905D01*
X75427000Y-48948095D01*
X75406748Y-48846280D01*
X75367021Y-48750372D01*
X75309348Y-48664057D01*
X75235943Y-48590652D01*
X75149628Y-48532979D01*
X75053720Y-48493252D01*
X74951905Y-48473000D01*
X74848095Y-48473000D01*
X74746280Y-48493252D01*
X74650372Y-48532979D01*
X74564057Y-48590652D01*
X74541709Y-48613000D01*
X70319007Y-48613000D01*
X70300000Y-48611128D01*
X70224135Y-48618600D01*
X70151185Y-48640729D01*
X70083954Y-48676665D01*
X70054842Y-48700557D01*
X70025026Y-48725026D01*
X70012912Y-48739787D01*
X67879700Y-50873000D01*
X67848095Y-50873000D01*
X67746280Y-50893252D01*
X67650372Y-50932979D01*
X67564057Y-50990652D01*
X67490652Y-51064057D01*
X67432979Y-51150372D01*
X67393252Y-51246280D01*
X67373000Y-51348095D01*
X67171450Y-51348095D01*
X67171450Y-48813329D01*
X67172763Y-48800000D01*
X67171450Y-48786669D01*
X67167522Y-48746787D01*
X67152000Y-48695618D01*
X67126794Y-48648461D01*
X67092873Y-48607127D01*
X67082513Y-48598625D01*
X63271450Y-44787563D01*
X63271450Y-39296449D01*
X64761672Y-39296449D01*
X64775001Y-39297762D01*
X64788330Y-39296449D01*
X64788332Y-39296449D01*
X64828214Y-39292521D01*
X64879383Y-39276999D01*
X64926540Y-39251793D01*
X64967874Y-39217872D01*
X64976380Y-39207507D01*
X65835802Y-38348086D01*
X65855482Y-38352000D01*
X65944518Y-38352000D01*
X66031844Y-38334630D01*
X66114102Y-38300557D01*
X66188133Y-38251091D01*
X66251091Y-38188133D01*
X66300557Y-38114102D01*
X66334630Y-38031844D01*
X66352000Y-37944518D01*
X66352000Y-37855482D01*
X66334630Y-37768156D01*
X66300557Y-37685898D01*
X66251091Y-37611867D01*
X66188133Y-37548909D01*
X66114102Y-37499443D01*
X66031844Y-37465370D01*
X65944518Y-37448000D01*
X65855482Y-37448000D01*
X65768156Y-37465370D01*
X65685898Y-37499443D01*
X65611867Y-37548909D01*
X65548909Y-37611867D01*
X65499443Y-37685898D01*
X65465370Y-37768156D01*
X65448000Y-37855482D01*
X65448000Y-37944518D01*
X65451914Y-37964198D01*
X64662564Y-38753549D01*
X63451616Y-38753549D01*
X63434630Y-38668156D01*
X63400557Y-38585898D01*
X63351091Y-38511867D01*
X63288133Y-38448909D01*
X63214102Y-38399443D01*
X63131844Y-38365370D01*
X63044518Y-38348000D01*
X62955482Y-38348000D01*
X62868156Y-38365370D01*
X62785898Y-38399443D01*
X62711867Y-38448909D01*
X62648909Y-38511867D01*
X62599443Y-38585898D01*
X62565370Y-38668156D01*
X62548000Y-38755482D01*
X62548000Y-38844518D01*
X62565370Y-38931844D01*
X62599443Y-39014102D01*
X62648909Y-39088133D01*
X62711867Y-39151091D01*
X62728551Y-39162239D01*
X62728550Y-43986669D01*
X62728550Y-44113330D01*
X62728551Y-44113339D01*
X62728550Y-44886671D01*
X62727237Y-44900000D01*
X62728550Y-44913329D01*
X62728550Y-44913330D01*
X62731973Y-44948086D01*
X61871450Y-44087563D01*
X61871450Y-40562238D01*
X61888133Y-40551091D01*
X61951091Y-40488133D01*
X62000557Y-40414102D01*
X62034630Y-40331844D01*
X62052000Y-40244518D01*
X62052000Y-40155482D01*
X62034630Y-40068156D01*
X62000557Y-39985898D01*
X61951091Y-39911867D01*
X61888133Y-39848909D01*
X61871450Y-39837762D01*
X61871450Y-37812437D01*
X63812439Y-35871450D01*
X69685539Y-35871450D01*
X69715741Y-35944364D01*
X69795302Y-36063436D01*
X69896564Y-36164698D01*
X70001779Y-36235000D01*
X69896564Y-36305302D01*
X69795302Y-36406564D01*
X69715741Y-36525636D01*
X69660938Y-36657942D01*
X69633000Y-36798397D01*
X69633000Y-36941603D01*
X69660938Y-37082058D01*
X69715741Y-37214364D01*
X69795302Y-37333436D01*
X69896564Y-37434698D01*
X70015636Y-37514259D01*
X70147942Y-37569062D01*
X70288397Y-37597000D01*
X70431603Y-37597000D01*
X70572058Y-37569062D01*
X70701667Y-37515376D01*
X70734682Y-37567601D01*
X70887980Y-37728865D01*
X71069794Y-37857123D01*
X71273136Y-37947446D01*
X71328126Y-37964119D01*
X71503000Y-37837954D01*
X71503000Y-36997000D01*
X71483000Y-36997000D01*
X71483000Y-36743000D01*
X71503000Y-36743000D01*
X71503000Y-36723000D01*
X71757000Y-36723000D01*
X71757000Y-36743000D01*
X71777000Y-36743000D01*
X71777000Y-36997000D01*
X71757000Y-36997000D01*
X71757000Y-37837954D01*
X71931874Y-37964119D01*
X71986864Y-37947446D01*
X72190206Y-37857123D01*
X72372020Y-37728865D01*
X72513000Y-37580559D01*
X72513000Y-37596112D01*
X72513001Y-37596122D01*
X72513000Y-38034875D01*
X65818327Y-44729549D01*
X65730698Y-44693252D01*
X65628883Y-44673000D01*
X65525073Y-44673000D01*
X65423258Y-44693252D01*
X65327350Y-44732979D01*
X65241035Y-44790652D01*
X65167630Y-44864057D01*
X65109957Y-44950372D01*
X65070230Y-45046280D01*
X65049978Y-45148095D01*
X65049978Y-45251905D01*
X65070230Y-45353720D01*
X65109957Y-45449628D01*
X65167630Y-45535943D01*
X65241035Y-45609348D01*
X65327350Y-45667021D01*
X65423258Y-45706748D01*
X65525073Y-45727000D01*
X65628883Y-45727000D01*
X65730698Y-45706748D01*
X65826606Y-45667021D01*
X65912921Y-45609348D01*
X65937573Y-45584696D01*
X65971041Y-45581400D01*
X66043991Y-45559271D01*
X66111222Y-45523335D01*
X66170150Y-45474974D01*
X66182269Y-45460207D01*
X68648000Y-42994476D01*
X68648000Y-43044518D01*
X68665370Y-43131844D01*
X68699443Y-43214102D01*
X68748909Y-43288133D01*
X68811867Y-43351091D01*
X68885898Y-43400557D01*
X68968156Y-43434630D01*
X69055482Y-43452000D01*
X69144518Y-43452000D01*
X69164198Y-43448085D01*
X70798625Y-45082513D01*
X70807127Y-45092873D01*
X70832995Y-45114102D01*
X70848460Y-45126794D01*
X70888312Y-45148095D01*
X70895618Y-45152000D01*
X70946787Y-45167522D01*
X70986669Y-45171450D01*
X70986671Y-45171450D01*
X71000000Y-45172763D01*
X71013329Y-45171450D01*
X73137762Y-45171450D01*
X73148909Y-45188133D01*
X73211867Y-45251091D01*
X73285898Y-45300557D01*
X73368156Y-45334630D01*
X73455482Y-45352000D01*
X73544518Y-45352000D01*
X73631844Y-45334630D01*
X73714102Y-45300557D01*
X73788133Y-45251091D01*
X73851091Y-45188133D01*
X73900557Y-45114102D01*
X73934630Y-45031844D01*
X73952000Y-44944518D01*
X73952000Y-44855482D01*
X73934630Y-44768156D01*
X73900557Y-44685898D01*
X73851091Y-44611867D01*
X73788133Y-44548909D01*
X73714102Y-44499443D01*
X73631844Y-44465370D01*
X73544518Y-44448000D01*
X73455482Y-44448000D01*
X73368156Y-44465370D01*
X73285898Y-44499443D01*
X73211867Y-44548909D01*
X73148909Y-44611867D01*
X73137762Y-44628550D01*
X71112438Y-44628550D01*
X69548085Y-43064198D01*
X69552000Y-43044518D01*
X69552000Y-42955482D01*
X69548085Y-42935802D01*
X73528405Y-38955482D01*
X98148000Y-38955482D01*
X98148000Y-39044518D01*
X98165370Y-39131844D01*
X98199443Y-39214102D01*
X98248909Y-39288133D01*
X98311867Y-39351091D01*
X98385898Y-39400557D01*
X98468156Y-39434630D01*
X98555482Y-39452000D01*
X98644518Y-39452000D01*
X98731844Y-39434630D01*
X98814102Y-39400557D01*
X98888133Y-39351091D01*
X98951091Y-39288133D01*
X98962238Y-39271450D01*
X100287563Y-39271450D01*
X103028551Y-42012439D01*
X103028550Y-43886671D01*
X103027237Y-43900000D01*
X103028550Y-43913329D01*
X103028550Y-43913330D01*
X103032478Y-43953212D01*
X103048000Y-44004381D01*
X103073206Y-44051539D01*
X103107127Y-44092873D01*
X103117493Y-44101380D01*
X105398625Y-46382513D01*
X105407127Y-46392873D01*
X105448461Y-46426794D01*
X105495618Y-46452000D01*
X105546787Y-46467522D01*
X105586669Y-46471450D01*
X105586670Y-46471450D01*
X105599999Y-46472763D01*
X105613328Y-46471450D01*
X106287563Y-46471450D01*
X107051914Y-47235802D01*
X107048000Y-47255482D01*
X107048000Y-47344518D01*
X107065370Y-47431844D01*
X107099443Y-47514102D01*
X107148909Y-47588133D01*
X107211867Y-47651091D01*
X107285898Y-47700557D01*
X107368156Y-47734630D01*
X107455482Y-47752000D01*
X107544518Y-47752000D01*
X107631844Y-47734630D01*
X107714102Y-47700557D01*
X107788133Y-47651091D01*
X107851091Y-47588133D01*
X107900557Y-47514102D01*
X107934630Y-47431844D01*
X107952000Y-47344518D01*
X107952000Y-47255482D01*
X107934630Y-47168156D01*
X107900557Y-47085898D01*
X107851091Y-47011867D01*
X107788133Y-46948909D01*
X107714102Y-46899443D01*
X107631844Y-46865370D01*
X107544518Y-46848000D01*
X107455482Y-46848000D01*
X107435802Y-46851914D01*
X106601379Y-46017492D01*
X106592873Y-46007127D01*
X106551539Y-45973206D01*
X106504382Y-45948000D01*
X106453213Y-45932478D01*
X106413331Y-45928550D01*
X106413329Y-45928550D01*
X106400000Y-45927237D01*
X106386671Y-45928550D01*
X105712438Y-45928550D01*
X103571450Y-43787563D01*
X103571450Y-41913328D01*
X103572763Y-41899999D01*
X103571450Y-41886669D01*
X103567522Y-41846787D01*
X103552000Y-41795618D01*
X103526794Y-41748461D01*
X103492873Y-41707127D01*
X103482513Y-41698625D01*
X101631983Y-39848095D01*
X104773000Y-39848095D01*
X104773000Y-39951905D01*
X104793252Y-40053720D01*
X104832979Y-40149628D01*
X104890652Y-40235943D01*
X104913000Y-40258291D01*
X104913001Y-44230993D01*
X104911129Y-44250000D01*
X104913001Y-44269007D01*
X104918519Y-44325027D01*
X104918601Y-44325864D01*
X104940729Y-44398814D01*
X104976665Y-44466045D01*
X104996860Y-44490652D01*
X105025027Y-44524974D01*
X105039788Y-44537088D01*
X105423000Y-44920301D01*
X105423000Y-44951905D01*
X105443252Y-45053720D01*
X105482979Y-45149628D01*
X105540652Y-45235943D01*
X105614057Y-45309348D01*
X105700372Y-45367021D01*
X105796280Y-45406748D01*
X105898095Y-45427000D01*
X106001905Y-45427000D01*
X106103720Y-45406748D01*
X106199628Y-45367021D01*
X106285943Y-45309348D01*
X106359348Y-45235943D01*
X106417021Y-45149628D01*
X106456748Y-45053720D01*
X106477000Y-44951905D01*
X106477000Y-44848095D01*
X106456748Y-44746280D01*
X106417021Y-44650372D01*
X106359348Y-44564057D01*
X106285943Y-44490652D01*
X106199628Y-44432979D01*
X106103720Y-44393252D01*
X106001905Y-44373000D01*
X105970301Y-44373000D01*
X105687000Y-44089700D01*
X105687000Y-40287000D01*
X111722412Y-40287000D01*
X111722412Y-40974490D01*
X111726795Y-41018990D01*
X111739775Y-41061779D01*
X111760853Y-41101214D01*
X111789220Y-41135780D01*
X111823786Y-41164147D01*
X111863221Y-41185225D01*
X111906010Y-41198205D01*
X111950510Y-41202588D01*
X113949490Y-41202588D01*
X113993990Y-41198205D01*
X114036779Y-41185225D01*
X114076214Y-41164147D01*
X114110780Y-41135780D01*
X114139147Y-41101214D01*
X114160225Y-41061779D01*
X114173205Y-41018990D01*
X114177588Y-40974490D01*
X114177588Y-38975510D01*
X114173205Y-38931010D01*
X114160225Y-38888221D01*
X114139147Y-38848786D01*
X114110780Y-38814220D01*
X114076214Y-38785853D01*
X114036779Y-38764775D01*
X113993990Y-38751795D01*
X113949490Y-38747412D01*
X111950510Y-38747412D01*
X111906010Y-38751795D01*
X111863221Y-38764775D01*
X111823786Y-38785853D01*
X111789220Y-38814220D01*
X111760853Y-38848786D01*
X111739775Y-38888221D01*
X111726795Y-38931010D01*
X111722412Y-38975510D01*
X111722412Y-39513000D01*
X105658291Y-39513000D01*
X105635943Y-39490652D01*
X105549628Y-39432979D01*
X105453720Y-39393252D01*
X105351905Y-39373000D01*
X105248095Y-39373000D01*
X105146280Y-39393252D01*
X105050372Y-39432979D01*
X104964057Y-39490652D01*
X104890652Y-39564057D01*
X104832979Y-39650372D01*
X104793252Y-39746280D01*
X104773000Y-39848095D01*
X101631983Y-39848095D01*
X100601380Y-38817493D01*
X100592873Y-38807127D01*
X100551539Y-38773206D01*
X100504382Y-38748000D01*
X100453213Y-38732478D01*
X100413331Y-38728550D01*
X100413329Y-38728550D01*
X100400000Y-38727237D01*
X100386671Y-38728550D01*
X98962238Y-38728550D01*
X98951091Y-38711867D01*
X98888133Y-38648909D01*
X98814102Y-38599443D01*
X98731844Y-38565370D01*
X98644518Y-38548000D01*
X98555482Y-38548000D01*
X98468156Y-38565370D01*
X98385898Y-38599443D01*
X98311867Y-38648909D01*
X98248909Y-38711867D01*
X98199443Y-38785898D01*
X98165370Y-38868156D01*
X98148000Y-38955482D01*
X73528405Y-38955482D01*
X74782513Y-37701375D01*
X74792873Y-37692873D01*
X74814627Y-37666366D01*
X74826794Y-37651540D01*
X74852000Y-37604382D01*
X74867522Y-37553214D01*
X74872763Y-37500000D01*
X74871450Y-37486669D01*
X74871450Y-34829905D01*
X111273000Y-34829905D01*
X111273000Y-35170095D01*
X111339368Y-35503747D01*
X111469553Y-35818041D01*
X111658552Y-36100898D01*
X111899102Y-36341448D01*
X112181959Y-36530447D01*
X112496253Y-36660632D01*
X112829905Y-36727000D01*
X113170095Y-36727000D01*
X113503747Y-36660632D01*
X113818041Y-36530447D01*
X114100898Y-36341448D01*
X114341448Y-36100898D01*
X114530447Y-35818041D01*
X114660632Y-35503747D01*
X114727000Y-35170095D01*
X114727000Y-34829905D01*
X114660632Y-34496253D01*
X114530447Y-34181959D01*
X114341448Y-33899102D01*
X114100898Y-33658552D01*
X113818041Y-33469553D01*
X113503747Y-33339368D01*
X113170095Y-33273000D01*
X112829905Y-33273000D01*
X112496253Y-33339368D01*
X112181959Y-33469553D01*
X111899102Y-33658552D01*
X111658552Y-33899102D01*
X111469553Y-34181959D01*
X111339368Y-34496253D01*
X111273000Y-34829905D01*
X74871450Y-34829905D01*
X74871450Y-34662238D01*
X74888133Y-34651091D01*
X74951091Y-34588133D01*
X75000557Y-34514102D01*
X75034630Y-34431844D01*
X75052000Y-34344518D01*
X75052000Y-34255482D01*
X75034630Y-34168156D01*
X75000557Y-34085898D01*
X74951091Y-34011867D01*
X74888133Y-33948909D01*
X74814102Y-33899443D01*
X74731844Y-33865370D01*
X74644518Y-33848000D01*
X74555482Y-33848000D01*
X74468156Y-33865370D01*
X74385898Y-33899443D01*
X74311867Y-33948909D01*
X74248909Y-34011867D01*
X74199443Y-34085898D01*
X74165370Y-34168156D01*
X74148000Y-34255482D01*
X74148000Y-34344518D01*
X74165370Y-34431844D01*
X74199443Y-34514102D01*
X74248909Y-34588133D01*
X74311867Y-34651091D01*
X74328550Y-34662238D01*
X74328551Y-36270819D01*
X74323335Y-36261061D01*
X74274974Y-36202132D01*
X74216045Y-36153771D01*
X74148814Y-36117835D01*
X74075864Y-36095707D01*
X73999999Y-36088235D01*
X73924135Y-36095707D01*
X73851185Y-36117835D01*
X73783954Y-36153771D01*
X73739789Y-36190016D01*
X73488147Y-36441658D01*
X73464698Y-36406564D01*
X73386232Y-36328098D01*
X73400000Y-36328098D01*
X73444500Y-36323715D01*
X73487289Y-36310735D01*
X73526724Y-36289657D01*
X73561290Y-36261290D01*
X73589657Y-36226724D01*
X73610735Y-36187289D01*
X73623715Y-36144500D01*
X73628098Y-36100000D01*
X73628098Y-35100000D01*
X73623715Y-35055500D01*
X73610735Y-35012711D01*
X73589657Y-34973276D01*
X73561290Y-34938710D01*
X73526724Y-34910343D01*
X73487289Y-34889265D01*
X73444500Y-34876285D01*
X73400000Y-34871902D01*
X72400000Y-34871902D01*
X72355500Y-34876285D01*
X72312711Y-34889265D01*
X72273276Y-34910343D01*
X72238710Y-34938710D01*
X72210343Y-34973276D01*
X72189265Y-35012711D01*
X72176285Y-35055500D01*
X72171902Y-35100000D01*
X72171902Y-35113768D01*
X72093436Y-35035302D01*
X71974364Y-34955741D01*
X71842058Y-34900938D01*
X71701603Y-34873000D01*
X71558397Y-34873000D01*
X71417942Y-34900938D01*
X71285636Y-34955741D01*
X71166564Y-35035302D01*
X71065302Y-35136564D01*
X70995000Y-35241779D01*
X70924698Y-35136564D01*
X70823436Y-35035302D01*
X70704364Y-34955741D01*
X70572058Y-34900938D01*
X70431603Y-34873000D01*
X70288397Y-34873000D01*
X70147942Y-34900938D01*
X70015636Y-34955741D01*
X69896564Y-35035302D01*
X69795302Y-35136564D01*
X69715741Y-35255636D01*
X69685539Y-35328550D01*
X63713328Y-35328550D01*
X63699999Y-35327237D01*
X63686670Y-35328550D01*
X63686669Y-35328550D01*
X63646787Y-35332478D01*
X63595618Y-35348000D01*
X63548461Y-35373206D01*
X63507127Y-35407127D01*
X63498630Y-35417482D01*
X61417488Y-37498625D01*
X61407128Y-37507127D01*
X61373207Y-37548461D01*
X61348000Y-37595619D01*
X61332479Y-37646787D01*
X61327237Y-37700000D01*
X61328551Y-37713339D01*
X61328550Y-39837762D01*
X61311867Y-39848909D01*
X61248909Y-39911867D01*
X61199443Y-39985898D01*
X61165370Y-40068156D01*
X61148000Y-40155482D01*
X55277000Y-40155482D01*
X55277000Y-34829905D01*
X56273000Y-34829905D01*
X56273000Y-35170095D01*
X56339368Y-35503747D01*
X56469553Y-35818041D01*
X56658552Y-36100898D01*
X56899102Y-36341448D01*
X57181959Y-36530447D01*
X57496253Y-36660632D01*
X57829905Y-36727000D01*
X58170095Y-36727000D01*
X58503747Y-36660632D01*
X58818041Y-36530447D01*
X59100898Y-36341448D01*
X59341448Y-36100898D01*
X59530447Y-35818041D01*
X59660632Y-35503747D01*
X59727000Y-35170095D01*
X59727000Y-34829905D01*
X59660632Y-34496253D01*
X59530447Y-34181959D01*
X59341448Y-33899102D01*
X59100898Y-33658552D01*
X58818041Y-33469553D01*
X58503747Y-33339368D01*
X58170095Y-33273000D01*
X57829905Y-33273000D01*
X57496253Y-33339368D01*
X57181959Y-33469553D01*
X56899102Y-33658552D01*
X56658552Y-33899102D01*
X56469553Y-34181959D01*
X56339368Y-34496253D01*
X56273000Y-34829905D01*
X55277000Y-34829905D01*
X55277000Y-32277000D01*
X115723001Y-32277000D01*
X115723000Y-32986394D01*
M02*
